<svg width="312" height="695" viewBox="0 0 312 695" fill="none" xmlns="http://www.w3.org/2000/svg">
<path d="M269.803 659.423H43.045V714H269.803V659.423Z" fill="#B89382"/>
<path d="M270.136 677.6H42.707V694.59H270.136V677.6Z" fill="#E3C4B2"/>
<path d="M270.136 657.65H42.707V667.063H270.136V657.65Z" fill="#E3C4B2"/>
<path d="M270.136 155.762H26.2229V183.649H270.136V155.762Z" fill="#FFFAEC"/>
<path d="M156.421 0C71.5516 0 2.74988 68.8111 2.74988 153.692V158.8H310.098V153.692C310.098 68.8111 241.296 0 156.421 0Z" fill="#FFFAEC"/>
<path d="M156.421 28.9941C90.2665 28.9941 36.6333 82.6294 36.6333 148.799V152.777H276.204V148.799C276.204 82.6346 222.576 28.9941 156.416 28.9941H156.421Z" fill="#3B1A54"/>
<path d="M13.9663 154.707C13.9247 154.707 13.8883 154.707 13.8467 154.707C12.7911 154.639 11.9903 153.734 12.0527 152.678C16.8888 74.1262 80.3032 12.5962 156.421 12.5962C232.54 12.5962 295.944 74.1158 300.79 152.657C300.858 153.713 300.052 154.618 298.996 154.686C297.966 154.759 297.03 153.947 296.968 152.892C292.246 76.3677 230.512 16.4239 156.421 16.4239C82.3313 16.4239 20.586 76.3781 15.8748 152.912C15.8124 153.926 14.9699 154.707 13.9663 154.707Z" fill="#E1D9D0"/>
<path d="M43.1334 168.13H0.836304V714H43.1334V168.13Z" fill="#FFFAEC"/>
<path d="M47.9642 158.722H-3.99976V168.135H47.9642V158.722Z" fill="#FFFAEC"/>
<path d="M39.951 631.386H4.01355V637.435H39.951V631.386Z" fill="#E1D9D0"/>
<path d="M39.951 236.083H4.01355V242.131H39.951V236.083Z" fill="#E1D9D0"/>
<path d="M35.791 168.13H31.137V236.083H35.791V168.13Z" fill="#E1D9D0"/>
<path d="M12.8276 168.13H8.17358V236.083H12.8276V168.13Z" fill="#E1D9D0"/>
<path d="M35.791 637.43H31.137V705.383H35.791V637.43Z" fill="#E1D9D0"/>
<path d="M12.8276 637.43H8.17358V705.383H12.8276V637.43Z" fill="#E1D9D0"/>
<path d="M311.169 168.13H268.872V714H311.169V168.13Z" fill="#FFFAEC"/>
<path d="M316 158.722H264.036V168.135H316V158.722Z" fill="#FFFAEC"/>
<path d="M307.987 631.386H272.049V637.435H307.987V631.386Z" fill="#E1D9D0"/>
<path d="M307.987 236.083H272.049V242.131H307.987V236.083Z" fill="#E1D9D0"/>
<path d="M303.832 168.13H299.178V236.083H303.832V168.13Z" fill="#E1D9D0"/>
<path d="M280.864 168.13H276.21V236.083H280.864V168.13Z" fill="#E1D9D0"/>
<path d="M303.832 637.43H299.178V705.383H303.832V637.43Z" fill="#E1D9D0"/>
<path d="M280.864 637.43H276.21V705.383H280.864V637.43Z" fill="#E1D9D0"/>
<path d="M276.21 154.691H36.6386C35.583 154.691 34.725 153.833 34.725 152.777V148.798C34.725 81.6827 89.3202 27.0801 156.427 27.0801C223.533 27.0801 278.128 81.6827 278.128 148.798V152.777C278.128 153.833 277.27 154.691 276.215 154.691H276.21ZM38.5522 150.863H274.296V148.798C274.296 83.7942 221.422 30.913 156.427 30.913C91.4314 30.913 38.5522 83.7942 38.5522 148.798V150.863Z" fill="#E1D9D0"/>
<path d="M156.421 116.366C155.366 116.366 154.508 115.508 154.508 114.453V28.994C154.508 27.9382 155.366 27.0801 156.421 27.0801C157.477 27.0801 158.335 27.9382 158.335 28.994V114.453C158.335 115.508 157.477 116.366 156.421 116.366Z" fill="#E1D9D0"/>
<path d="M129.251 126.591C128.762 126.591 128.274 126.404 127.899 126.03L68.858 66.9751C68.1092 66.2261 68.1092 65.0144 68.858 64.2707C69.6068 63.527 70.8184 63.5218 71.562 64.2707L130.603 123.325C131.352 124.074 131.352 125.286 130.603 126.03C130.229 126.404 129.74 126.591 129.251 126.591Z" fill="#E1D9D0"/>
<path d="M183.098 127.179C182.609 127.179 182.12 126.992 181.746 126.617C180.997 125.868 180.997 124.656 181.746 123.913L241.328 64.3278C242.077 63.5789 243.288 63.5789 244.032 64.3278C244.775 65.0767 244.781 66.2885 244.032 67.0322L184.45 126.617C184.075 126.992 183.586 127.179 183.098 127.179Z" fill="#E1D9D0"/>
<path d="M194.741 154.691C193.685 154.691 192.827 153.833 192.827 152.777C192.827 132.702 176.499 116.367 156.421 116.367C136.344 116.367 120.016 132.702 120.016 152.777C120.016 153.833 119.158 154.691 118.102 154.691C117.047 154.691 116.189 153.833 116.189 152.777C116.189 130.591 134.238 112.539 156.421 112.539C178.605 112.539 196.654 130.591 196.654 152.777C196.654 153.833 195.796 154.691 194.741 154.691Z" fill="#E1D9D0"/>
</svg>
