<?xml version="1.0" encoding="utf-8"?>
<!-- Generator: Adobe Illustrator 27.8.1, SVG Export Plug-In . SVG Version: 6.00 Build 0)  -->
<svg version="1.1" id="圖層_1" xmlns="http://www.w3.org/2000/svg" xmlns:xlink="http://www.w3.org/1999/xlink" x="0px" y="0px"
	 viewBox="0 0 226 93.9" style="enable-background:new 0 0 226 93.9;" xml:space="preserve">
<style type="text/css">
	.st0{fill:#EAEFE3;}
	.st1{fill-rule:evenodd;clip-rule:evenodd;fill:#FFFFFF;}
	.st2{fill:#669093;}
</style>
<path class="st0" d="M17.7,17.2c4.1-1.5,6.6-0.7,8.5,0.4c2.8,1.8,4.7,5.1,4.7,8.5c0,1.5-0.2,3.4,1.1,4.2c0.7,0.4,1.6,0.3,2.4,0.3
	c4.9-0.1,9.6-0.2,11.1,7.9c0.5,2.6,4.3,3.3,5.8,1c0.2-0.3,0.4-0.7,0.5-1.1c0.4-1.6-0.1-3.4-0.1-5c0-2.2,1-4.4,2.7-5.8
	c1.2-1,2.8-1.8,3-3.4c0.1-1-0.5-2-0.9-2.9C54.4,16.6,55,8.3,60.2,4c10.3-8.7,20.2-0.6,20.7-0.6c0.9,0.1,1.7-0.1,2.5-0.3
	c3.3-0.7,6.7-1.5,10.1-1.3c2.1,0.2,4.1,0.9,5.8,2c0.1,0,0.1,0.1,0.2,0.1l0,0c0.1,0.1,0.3,0.2,0.4,0.4c0.8,0.7,1.6,1.5,2,2.5l2,34.2
	l0.6,10.7l0,0l-0.9,42.2H0V32c0,0,2.9-5.4,9.6-3.8c2.4,0.6,2.3-1,2.3-2.7C11.8,23.8,12.7,19,17.7,17.2z"/>
<path class="st0" d="M118.1,93.9l0.3-29.2l0.2-4.2l0.2-5.1l0.5-10.9l1.3-28.3c0.3-0.8,0.8-1.5,1.2-2.1c0.3-0.4,0.6-0.7,1-1
	c1.5-1.3,3.4-2.1,5.2-2.3c3-0.3,5.9,0.6,8.9,1.4c0.7,0.2,1.5,0.4,2.2,0.3c0.5,0,13.8-6.2,22.9,3.4c4.5,4.8,3.6,12,1.7,17.2
	c-0.4,1-0.9,2.1-0.8,3.2c0.1,1.2-2.3,1.2-1.6,1.9c0.4,0.4,0.8,0.7,1.1,1.1c1.5,1.6,2.4,4,2.4,6.4c0,1.9-0.5,3.7-0.1,5.5
	c0.1,0.4,0.2,0.9,0.4,1.2c1.3,2.5,4.7,1.9,5.1-1.1c1.3-9,5.5-8.9,9.7-8.8c0.7,0,1.5,0.1,2.1-0.4c1.2-0.9,1-3,1-4.7
	c0-1.4,0.2-2.8,0.6-4.1c0.7-2.2,1.9-4.1,3.5-5.3c2.5-2,5.8-2.2,8.4-0.5c0.8,0.5,1.6,1.2,2.5,1.4c0.9,0.2,2,0,2.4-1
	c0.2-0.5,0.2-1.1,0.3-1.7c0.4-3.1,1.7-5.2,4.7-6.6s7.8,0,9.2,2.4c0,0,0.2-9.9,11.3-13.1v85H118.1z"/>
<path class="st1" d="M34.4,67.6c0.3-1.3,5-9.1,10.5-14.4c3.1-3,6.4-5.2,9.3-5c1.4,0.1,2.5-0.6,3.7-1.3c0.7-0.5,1.5-0.9,2.4-1.2
	c2.7-0.8,5.5-0.2,7.9,1.1c0.4,0.2,0.7,0.5,1.1,0.9c0.8,0.8,1.7,1.5,2.8,0.7c3.8-2.7,5.2-8.7,5.7-13.1c0-0.1,0-0.1,0-0.2
	c0.1-0.7,0.2-1.5,0.5-2.1c0.4-0.7,1-1,1.6-1.4c0.4-0.2,0.8-0.5,1.1-0.8c0.7-0.7,1.1-1.6,1.5-2.5c0.2-0.4,0.3-0.7,0.5-1.1
	c0.8-1.4,1.5-2.8,2.4-4.1c1.6-2.7,3.4-5.3,5.3-7.8c4.3-5.7,14.7-13,18.9-11c2.2,1,4.1,2.5,6.1,3.9c0.5,0.4,1,0.7,1.5,1.1
	c2.8,2,4.9,3.7,6.4,7c0.3,0.6,0.6,1.3,0.9,2c0.9,2.2,1.9,4.3,3.4,6.1c1.5,1.7,3.4,2.8,5.6,3.4c1.1,0.3,2.1,0.1,3.2-0.1
	c0.9-0.1,1.9-0.3,2.8-0.1c1.7,0.3,3,1.7,4.1,3c2.4,2.8,4.8,5.6,6.8,8.7c2.4-1.1,4.8-2.3,7.2-3.5c1-0.5,2-1,2.9-1.5
	c2.5-1.3,5-2.6,7.5-3.8c2.5-1.2,6.6-1.5,11.9,0.7c6.5,2.6,16,8,22.1,17.9c2.5,4.1,5.6,12,5.6,12c8.2-5.9,19.4,1.7,18.4,2.8v30H11.4
	c0.6-27,22.9-25.8,22.9-25.8"/>
<path class="st2" d="M20,57.8c0.1,0.1,6.3,7.4,10.5,8.9c1.1,0.4,2.4,0.9,3.7,1.4c4.1,1.7,9.1,4.1,15,7.3c6,3.3,11.2,10.7,22.7,13.1
	c13,2.7,17.9,4.8,19,5.4l0,0H0V43.2C0,43.2,10.8,48.1,20,57.8z"/>
<path class="st2" d="M135.1,93.9c1.2-0.6,6.1-2.9,19-5.5c11.4-2.4,16.7-9.8,22.7-13.1c1.1-0.6,2.2-1.2,3.3-1.8
	c6.3-3.3,11.4-5.5,15.4-6.9c4.4-1.5,6.2-4.3,10.6-8.9c7.3-7.6,20-14.7,20-14.7v50.9H135.1z"/>
</svg>
