<svg width="1513" height="222" viewBox="0 0 1513 222" fill="none" xmlns="http://www.w3.org/2000/svg">
<path d="M-192.132 219.498C-192.629 219.594 -193.139 219.677 -193.664 219.733C-202.8 220.673 -210.957 214.037 -211.909 204.884C-212.862 195.746 -206.223 187.561 -197.087 186.607C-187.964 185.667 -179.793 192.303 -178.841 201.456C-178.482 204.87 -179.2 208.161 -180.69 210.981C-179.034 210.124 -177.295 209.377 -175.515 208.742C-174.107 198.76 -169.773 189.096 -162.431 181.132C-156.786 175.008 -149.996 170.597 -142.695 167.874C-141.88 166.892 -141.025 165.938 -140.114 165.012C-140.058 164.777 -139.99 164.556 -139.907 164.335C-141.839 162.123 -143.468 159.579 -144.668 156.717C-150.741 142.338 -144.02 125.748 -129.666 119.679C-127.278 118.67 -124.835 118.02 -122.379 117.688C-122.075 117.163 -121.771 116.637 -121.426 116.126C-125.567 108.854 -124.932 99.4661 -119.163 92.7747C-111.848 84.2859 -99.0403 83.3596 -90.5662 90.6871C-85.3215 95.2218 -82.9753 101.872 -83.6653 108.273C-81.8022 109.503 -80.0494 110.969 -78.4898 112.683C-78.2 109.932 -77.6616 107.236 -76.8887 104.637C-77.5098 102.134 -77.9377 99.5491 -78.1171 96.8808C-79.0833 82.5716 -73.1348 69.3961 -63.1425 60.6308C-65.4887 59.8566 -67.4623 58.0593 -68.3594 55.5431C-69.9052 51.2296 -67.6555 46.4737 -63.3494 44.9253C-59.0433 43.3768 -54.2957 45.6303 -52.7499 49.9438C-52.6395 50.2342 -52.5566 50.5383 -52.4876 50.8425C-48.9406 40.2799 -41.2118 31.1414 -30.2948 26.1505C-15.9825 19.6111 0.0825195 21.8646 11.869 30.6299C27.6856 27.0768 44.6891 33.6991 53.6324 48.3125C61.3475 60.9073 61.0853 76.1567 54.2535 88.1432C57.0829 91.7654 59.4291 95.8439 61.1682 100.337C66.6888 100.047 72.0162 102.867 74.8455 107.734C77.592 102.701 81.3184 98.0974 85.9971 94.2264C105.747 77.9125 134.965 80.719 151.265 100.503C154.715 104.692 157.296 109.31 159.049 114.135C159.132 114.135 159.228 114.107 159.311 114.093C179.13 111.19 197.666 123.425 203.255 142.076C204.691 136.864 207.368 131.9 211.302 127.67C224.385 113.596 246.385 112.808 260.435 125.914C261.539 126.937 262.547 128.029 263.485 129.149C273.05 126.84 283.525 128.721 291.916 135.218C294.939 137.555 297.437 140.306 299.424 143.334C299.839 143.223 300.266 143.113 300.68 143.016C305.635 138.523 311.556 135.495 317.794 134.029C318.609 131.416 319.837 128.914 321.493 126.647C308.299 121.656 298.044 109.987 295.546 95.0559C292.358 75.9908 302.861 57.8105 319.865 50.566C319.989 27.0629 336.454 6.03462 360.345 1.07133C387.81 -4.63853 414.695 13.0441 420.395 40.5703C422.479 50.6213 421.43 60.5755 417.938 69.4652C418.725 71.2072 419.332 73.0045 419.746 74.8432C427.613 79.1153 433.41 86.9404 434.707 96.5075C434.914 98.056 434.997 99.5906 434.969 101.111C444.175 102.411 452.939 107.001 459.343 114.729C464.795 121.296 467.707 129.149 468.204 137.071C488.464 136.449 506.751 148.615 514.342 166.934C521.919 166.92 529.22 168.717 535.735 171.98C538.385 172.367 540.979 172.962 543.505 173.763C545.41 172.104 547.521 170.611 549.84 169.353C551.179 168.62 552.559 167.998 553.939 167.445C554.132 161.929 556.313 156.648 560.067 152.625C563.338 145.781 569.41 140.334 577.264 138.094C587.256 135.26 597.524 138.357 604.301 145.311C611.215 144.744 618.089 145.698 624.465 147.979C624.782 147.246 625.127 146.528 625.486 145.809C620.007 142.338 615.328 137.458 612.03 131.347C607.254 122.485 606.233 112.6 608.427 103.531C608.11 103.13 607.793 102.729 607.503 102.3C599.525 90.9774 602.217 75.3271 613.52 67.3361C617.592 64.4604 622.215 62.9811 626.853 62.7737C633.118 60.4511 639.881 60.2575 646.147 62.0687C649.252 60.2575 652.758 59.0271 656.54 58.5708C662.06 57.8934 667.388 58.9303 671.997 61.253C685.951 57.7828 701.326 61.5156 712.243 72.4376C719.254 79.4609 723.284 88.3229 724.374 97.4615C725.975 95.1941 728.059 93.2171 730.599 91.6963C740.439 85.7653 753.206 88.9451 759.127 98.8025C762.439 104.333 762.908 110.775 760.935 116.416C762.439 117.301 763.792 118.504 764.854 120.038C767.228 123.495 767.587 127.725 766.207 131.361C773.811 134.79 780.229 140.583 784.425 147.924C791.629 143.237 800.172 140.403 809.392 140.154C836.043 139.463 858.249 160.533 858.981 187.243C859.353 200.695 854.192 213 845.593 222H-194.326C-193.622 221.143 -192.891 220.299 -192.118 219.498H-192.132Z" fill="white"/>
<path d="M1716.16 207.766C1708.75 199.009 1698.42 194.16 1687.79 193.419C1687.45 192.801 1687.07 192.195 1686.68 191.6C1685.68 174.223 1671.57 160.112 1653.76 159.404C1647.98 159.18 1642.47 160.392 1637.58 162.727C1637.11 162.671 1636.64 162.637 1636.15 162.626C1641.06 146.225 1633.42 128.241 1617.44 120.641C1614.75 119.361 1611.98 118.452 1609.19 117.891C1609.29 117.756 1609.41 117.644 1609.52 117.509C1622.6 101.254 1619.99 77.5112 1603.7 64.4667C1588.08 51.9723 1565.58 53.847 1552.22 68.306C1551.3 69.0918 1550.45 69.9225 1549.63 70.8094C1545.71 69.1928 1541.56 68.5642 1537.48 68.8448C1525.15 59.5273 1507.56 59.8753 1495.57 70.5287C1485.93 79.0941 1482.52 92.0151 1485.64 103.645C1485.61 103.713 1485.58 103.791 1485.56 103.87C1484.35 105.666 1483.3 107.552 1482.42 109.494C1477.43 104.622 1470.81 102.096 1464.13 102.141C1462.99 101.086 1461.77 100.087 1460.48 99.1436C1444.5 87.6145 1422.9 89.5342 1409.19 102.702C1394.03 102.444 1379.7 111.683 1374.24 126.692C1373.33 129.184 1372.72 131.71 1372.38 134.236C1369.24 135.257 1366.33 136.829 1363.78 138.85C1363.47 138.715 1363.15 138.569 1362.84 138.434C1353.64 134.73 1343.72 135.706 1335.72 140.23C1335.66 140.197 1335.6 140.163 1335.55 140.141C1323.63 134 1309.81 135.37 1299.51 142.521C1298.4 141.948 1297.26 141.432 1296.11 140.994C1302.84 120.484 1292.19 98.1557 1271.73 90.5333C1269.95 89.871 1268.15 89.3546 1266.35 88.9504C1266.38 88.6024 1266.41 88.2657 1266.42 87.9064C1267.35 71.2359 1254.54 56.9678 1237.82 56.0473C1223.84 55.2727 1211.54 64.0963 1207.35 76.7591C1203.93 74.4802 1200.09 72.6841 1195.91 71.5278C1174.88 65.7465 1153.13 78.0501 1147.32 99.0201C1146.91 100.502 1146.6 101.984 1146.37 103.466C1142.67 104.779 1139.15 106.8 1136.04 109.561C1122.91 121.146 1121.67 141.151 1133.29 154.24C1138.99 160.662 1146.71 164.22 1154.66 164.826C1154.22 165.365 1153.79 165.915 1153.38 166.488C1150.55 166.578 1147.73 166.982 1144.98 167.723C1143.33 167.049 1141.61 166.522 1139.8 166.151C1130.32 164.231 1120.97 167.195 1114.4 173.302C1113.81 173.47 1113.24 173.65 1112.67 173.841C1107.27 173.291 1101.84 173.964 1096.78 175.794C1096.42 173.223 1095.79 170.686 1094.9 168.239C1097.73 163.075 1099.43 157.193 1099.65 150.917C1100.39 129.386 1083.48 111.335 1061.89 110.594C1048.35 110.134 1036.19 116.589 1028.82 126.771C1028.25 126.467 1027.67 126.176 1027.08 125.895C1028.3 123.436 1029.22 120.776 1029.81 117.969C1033.56 99.9518 1021.95 82.3159 1003.88 78.5777C987.939 75.2773 972.291 83.91 966.268 98.369C958.399 98.4925 950.518 100.872 943.674 105.61C931.222 102.938 917.713 106.07 907.559 115.242C904.564 117.936 902.076 120.989 900.072 124.256C894.86 125.468 890.447 129.397 888.882 134.898C887.553 139.546 888.555 144.305 891.19 147.943C889.366 151.063 888.116 154.353 887.429 157.709C882.026 158.147 876.701 160.179 872.186 163.861C865.375 169.429 861.919 177.557 862.066 185.707C850.234 189.557 840.315 198.751 836.049 211.425C834.867 214.928 834.202 218.475 834 222H1724C1722.42 216.926 1719.83 212.076 1716.19 207.766H1716.16Z" fill="white"/>
</svg>
