<?xml version="1.0" encoding="UTF-8"?>
<svg xmlns="http://www.w3.org/2000/svg" xmlns:xlink="http://www.w3.org/1999/xlink" width="340px" height="388px" viewBox="0 0 340 387" version="1.1">
<g id="surface1">
<path style=" stroke:none;fill-rule:nonzero;fill:rgb(100%,80%,80%);fill-opacity:1;" d="M -166.871094 53.125 C -166.871094 53.125 87.226562 196.425781 94.296875 224.003906 C 102.820312 257.238281 95.226562 275.808594 109.449219 295.417969 C 123.667969 315.03125 132.714844 318.828125 139.855469 330.789062 C 147.007812 342.75 145.210938 344.921875 160.375 360.453125 C 175.535156 375.980469 184.558594 390.097656 191.890625 386.40625 C 199.214844 382.71875 200.902344 368.917969 200.902344 368.917969 C 200.902344 368.917969 241.691406 373.042969 257.105469 375.410156 C 272.515625 377.78125 301.082031 381.5625 306.441406 374.726562 C 311.796875 367.902344 296.378906 356.71875 296.378906 356.71875 C 296.378906 356.71875 333.144531 357.238281 337.964844 351.789062 C 342.792969 346.339844 335.023438 338.429688 335.023438 338.429688 C 335.023438 338.429688 336.273438 333.980469 334.539062 329.824219 C 332.808594 325.664062 327.316406 320.53125 327.316406 320.53125 C 327.316406 320.53125 322.757812 309.488281 307.554688 307.59375 L 247.242188 308.648438 C 247.242188 308.648438 211.496094 278.597656 201.351562 261.433594 C 191.199219 244.261719 193.226562 214.992188 178.683594 189.160156 C 164.117188 163.335938 -112.175781 -29.535156 -112.175781 -29.535156 C -149.40625 -10.539062 -166.871094 53.125 -166.871094 53.125 Z M -166.871094 53.125 "/>
<path style=" stroke:none;fill-rule:nonzero;fill:rgb(23.137255%,10.196078%,32.941176%);fill-opacity:1;" d="M 239.933594 343.851562 C 237.199219 342.191406 212.617188 327.402344 196.769531 323.296875 C 196.425781 323.210938 196.078125 323.324219 195.855469 323.578125 C 195.769531 323.683594 195.699219 323.804688 195.664062 323.945312 C 195.542969 324.425781 195.832031 324.925781 196.3125 325.046875 C 212.488281 329.234375 238.929688 345.363281 239.199219 345.519531 C 239.339844 345.609375 239.5 345.652344 239.664062 345.652344 C 265.441406 346 286.082031 352.90625 298.472656 358.371094 C 297.238281 357.339844 296.378906 356.71875 296.378906 356.71875 C 296.378906 356.71875 297.449219 356.738281 299.222656 356.738281 C 286.691406 351.203125 265.890625 344.246094 239.933594 343.851562 Z M 239.933594 343.851562 "/>
<path style=" stroke:none;fill-rule:nonzero;fill:rgb(23.137255%,10.196078%,32.941176%);fill-opacity:1;" d="M 283.511719 375.875 C 288.148438 372.097656 301.78125 372.851562 307.238281 373.332031 C 307.453125 372.753906 307.554688 372.152344 307.558594 371.539062 C 302.011719 371.03125 287.605469 370.195312 282.367188 374.46875 C 281.113281 375.488281 280.417969 376.757812 280.308594 378.214844 C 280.914062 378.261719 281.519531 378.304688 282.125 378.339844 C 282.203125 377.386719 282.664062 376.574219 283.523438 375.875 Z M 283.511719 375.875 "/>
<path style=" stroke:none;fill-rule:nonzero;fill:rgb(23.137255%,10.196078%,32.941176%);fill-opacity:1;" d="M 199.246094 375.96875 C 194.863281 367.839844 187.980469 356.476562 183.34375 355.53125 C 176.296875 354.105469 169.917969 358.984375 168.449219 363.109375 C 167.886719 364.675781 168.644531 367.585938 169.816406 370.628906 C 171.179688 372.144531 172.476562 373.601562 173.730469 374.976562 C 171.523438 370.398438 169.566406 365.394531 170.160156 363.71875 C 171.378906 360.289062 176.984375 356.089844 182.980469 357.3125 C 186.890625 358.109375 193.832031 369.667969 198.402344 378.253906 C 198.71875 377.488281 199 376.714844 199.246094 375.96875 Z M 199.246094 375.96875 "/>
<path style=" stroke:none;fill-rule:nonzero;fill:rgb(23.137255%,10.196078%,32.941176%);fill-opacity:1;" d="M 313.679688 353.511719 C 312.972656 354.535156 312.6875 355.546875 312.605469 356.4375 C 313.222656 356.414062 313.832031 356.378906 314.449219 356.347656 C 314.53125 355.785156 314.75 355.144531 315.195312 354.507812 C 316.710938 352.34375 321.851562 349 339.117188 349.945312 C 339.351562 349.351562 339.480469 348.753906 339.523438 348.152344 C 325.398438 347.347656 316.722656 349.128906 313.679688 353.515625 Z M 313.679688 353.511719 "/>
<path style=" stroke:none;fill-rule:nonzero;fill:rgb(23.137255%,10.196078%,32.941176%);fill-opacity:1;" d="M 164.996094 260.722656 C 165.066406 260.226562 164.710938 259.765625 164.214844 259.699219 C 163.902344 259.65625 163.605469 259.78125 163.410156 260.003906 C 163.292969 260.132812 163.214844 260.292969 163.1875 260.472656 C 163.140625 260.84375 158.417969 297.648438 183.5 332.191406 C 194.980469 347.996094 199.699219 360.324219 201.464844 368.976562 C 201.890625 369.019531 202.566406 369.089844 203.441406 369.179688 C 201.707031 360.269531 196.902344 347.566406 184.964844 331.132812 C 160.328125 297.195312 164.9375 261.085938 164.984375 260.722656 Z M 164.996094 260.722656 "/>
<path style=" stroke:none;fill-rule:nonzero;fill:rgb(23.137255%,10.196078%,32.941176%);fill-opacity:1;" d="M 274.738281 316.925781 C 260.273438 316.980469 249.828125 317.019531 242.363281 315.472656 C 242.03125 315.40625 241.699219 315.53125 241.484375 315.765625 C 241.382812 315.882812 241.3125 316.023438 241.28125 316.179688 C 241.179688 316.667969 241.5 317.148438 241.988281 317.25 C 249.636719 318.832031 260.167969 318.792969 274.746094 318.746094 C 283.617188 318.710938 293.667969 318.675781 305.652344 318.972656 C 315.203125 319.207031 323.511719 321.191406 330.46875 323.851562 C 329.355469 322.566406 328.328125 321.523438 327.761719 320.972656 C 321.355469 318.863281 313.980469 317.371094 305.691406 317.164062 C 293.691406 316.863281 283.625 316.902344 274.738281 316.933594 Z M 274.738281 316.925781 "/>
<path style=" stroke:none;fill-rule:nonzero;fill:rgb(23.137255%,10.196078%,32.941176%);fill-opacity:1;" d="M 138.582031 328.773438 C 137.445312 321.507812 132.238281 307.117188 112.015625 283.382812 C 111.691406 283.003906 111.117188 282.960938 110.738281 283.285156 C 110.699219 283.3125 110.664062 283.347656 110.640625 283.375 C 110.351562 283.707031 110.34375 284.210938 110.636719 284.558594 C 127.328125 304.144531 133.570312 317.242188 135.828125 325.023438 C 136.785156 326.207031 137.703125 327.433594 138.589844 328.773438 Z M 138.582031 328.773438 "/>
<path style=" stroke:none;fill-rule:nonzero;fill:rgb(23.137255%,10.196078%,32.941176%);fill-opacity:1;" d="M 210.84375 315.203125 C 210.351562 315.140625 209.894531 315.484375 209.828125 315.980469 C 209.761719 316.480469 210.113281 316.933594 210.605469 316.996094 C 223.886719 318.707031 234.421875 324.59375 242.109375 328.890625 C 246.972656 331.605469 250.808594 333.746094 253.960938 334.203125 C 261.980469 335.347656 267.902344 335.453125 302.902344 332.136719 C 317.960938 330.710938 328.417969 334.390625 335.285156 338.710938 C 335.128906 338.539062 335.023438 338.433594 335.023438 338.433594 C 335.023438 338.433594 335.214844 337.75 335.34375 336.671875 C 327.835938 332.226562 317.144531 328.964844 302.730469 330.332031 C 267.933594 333.632812 262.070312 333.535156 254.222656 332.410156 C 251.398438 332.003906 247.699219 329.929688 243 327.308594 C 235.175781 322.941406 224.46875 316.953125 210.84375 315.203125 Z M 210.84375 315.203125 "/>
</g>
</svg>
