<svg width="436" height="498" viewBox="0 0 436 498" fill="none" xmlns="http://www.w3.org/2000/svg">
<path d="M-213.986 68.3625C-213.986 68.3625 111.853 252.764 120.923 288.25C131.856 331.016 122.116 354.916 140.353 380.148C158.591 405.388 170.185 410.274 179.345 425.668C188.513 441.062 186.209 443.848 205.655 463.834C225.102 483.82 236.672 501.984 246.069 497.237C255.465 492.49 257.63 474.734 257.63 474.734C257.63 474.734 309.932 480.037 329.698 483.085C349.463 486.133 386.094 491.003 392.965 482.211C399.837 473.427 380.063 459.038 380.063 459.038C380.063 459.038 427.209 459.7 433.395 452.689C439.58 445.679 429.62 435.498 429.62 435.498C429.62 435.498 431.221 429.778 428.999 424.426C426.776 419.074 419.733 412.464 419.733 412.464C419.733 412.464 413.891 398.255 394.395 395.82L317.049 397.176C317.049 397.176 271.211 358.511 258.202 336.417C245.186 314.323 247.785 276.655 229.13 243.416C210.46 210.185 -143.847 -38.0063 -143.847 -38.0063C-191.59 -13.5672 -213.986 68.3625 -213.986 68.3625Z" fill="#FFCCCC"/>
<path d="M307.677 442.476C304.172 440.335 272.649 421.305 252.328 416.026C251.886 415.912 251.437 416.067 251.159 416.386C251.045 416.517 250.955 416.68 250.914 416.86C250.751 417.481 251.126 418.118 251.747 418.282C272.485 423.666 306.394 444.42 306.738 444.625C306.917 444.739 307.122 444.796 307.334 444.796C340.394 445.246 366.859 454.127 382.743 461.163C381.166 459.831 380.063 459.038 380.063 459.038C380.063 459.038 381.436 459.055 383.708 459.055C367.644 451.938 340.966 442.982 307.677 442.476Z" fill="#3B1A54"/>
<path d="M363.566 483.681C369.507 478.82 386.992 479.792 393.987 480.413C394.264 479.67 394.395 478.893 394.403 478.101C387.286 477.447 368.812 476.377 362.095 481.876C360.486 483.191 359.595 484.817 359.456 486.696C360.233 486.754 361.009 486.811 361.785 486.86C361.883 485.626 362.471 484.588 363.574 483.681H363.566Z" fill="#3B1A54"/>
<path d="M255.506 483.804C249.885 473.345 241.06 458.719 235.112 457.51C226.075 455.671 217.895 461.947 216.008 467.258C215.289 469.276 216.261 473.018 217.765 476.932C219.513 478.885 221.18 480.756 222.782 482.529C219.954 476.638 217.446 470.199 218.206 468.042C219.767 463.63 226.957 458.229 234.646 459.798C239.663 460.819 248.561 475.698 254.419 486.745C254.828 485.757 255.187 484.768 255.506 483.804Z" fill="#3B1A54"/>
<path d="M402.247 454.904C401.34 456.219 400.973 457.527 400.875 458.671C401.659 458.638 402.444 458.597 403.236 458.556C403.342 457.829 403.62 457.012 404.192 456.187C406.137 453.4 412.723 449.102 434.866 450.312C435.168 449.552 435.331 448.784 435.389 448.008C417.274 446.97 406.153 449.266 402.247 454.912V454.904Z" fill="#3B1A54"/>
<path d="M211.579 335.502C211.669 334.865 211.22 334.277 210.582 334.187C210.182 334.129 209.798 334.293 209.545 334.579C209.398 334.742 209.3 334.955 209.267 335.183C209.201 335.657 203.147 383.016 235.316 427.474C250.032 447.811 256.086 463.671 258.349 474.808C258.897 474.865 259.763 474.955 260.882 475.069C258.66 463.606 252.499 447.256 237.195 426.109C205.598 382.436 211.506 335.968 211.571 335.502H211.579Z" fill="#3B1A54"/>
<path d="M352.315 407.831C333.767 407.896 320.367 407.945 310.79 405.96C310.366 405.87 309.941 406.033 309.671 406.336C309.54 406.483 309.45 406.663 309.41 406.867C309.279 407.496 309.687 408.117 310.316 408.248C320.122 410.282 333.628 410.233 352.323 410.168C363.697 410.127 376.591 410.078 391.952 410.462C404.2 410.764 414.855 413.322 423.778 416.737C422.348 415.087 421.032 413.747 420.305 413.036C412.093 410.323 402.631 408.395 392.009 408.133C376.615 407.749 363.705 407.798 352.315 407.839V407.831Z" fill="#3B1A54"/>
<path d="M177.711 423.07C176.256 413.722 169.581 395.207 143.646 364.664C143.23 364.174 142.494 364.117 142.004 364.534C141.955 364.574 141.914 364.615 141.881 364.656C141.506 365.081 141.497 365.726 141.873 366.176C163.281 391.383 171.289 408.232 174.181 418.249C175.407 419.769 176.583 421.354 177.719 423.07H177.711Z" fill="#3B1A54"/>
<path d="M270.377 405.608C269.74 405.527 269.16 405.976 269.07 406.614C268.988 407.251 269.437 407.839 270.075 407.921C287.103 410.119 300.609 417.693 310.472 423.225C316.706 426.714 321.625 429.476 325.67 430.056C335.949 431.535 343.548 431.666 388.43 427.4C407.738 425.562 421.147 430.301 429.955 435.865C429.751 435.637 429.62 435.506 429.62 435.506C429.62 435.506 429.865 434.623 430.028 433.234C420.403 427.515 406.692 423.323 388.21 425.08C343.58 429.329 336.071 429.198 326.005 427.752C322.385 427.229 317.638 424.565 311.616 421.19C301.582 415.569 287.846 407.864 270.377 405.608Z" fill="#3B1A54"/>
</svg>
