<?xml version="1.0" encoding="utf-8"?>
<!-- Generator: Adobe Illustrator 27.8.1, SVG Export Plug-In . SVG Version: 6.00 Build 0)  -->
<svg version="1.1" id="圖層_1" xmlns="http://www.w3.org/2000/svg" xmlns:xlink="http://www.w3.org/1999/xlink" x="0px" y="0px"
	 viewBox="0 0 933 646" style="enable-background:new 0 0 933 646;" xml:space="preserve">
<style type="text/css">
	.st0{fill:url(#SVGID_1_);}
</style>
<linearGradient id="SVGID_1_" gradientUnits="userSpaceOnUse" x1="466.2501" y1="902.3632" x2="466.2501" y2="112" gradientTransform="matrix(1 0 0 1 0 -112)">
	<stop  offset="0" style="stop-color:#5E4873"/>
	<stop  offset="0.28" style="stop-color:#644C78"/>
	<stop  offset="0.68" style="stop-color:#765987"/>
	<stop  offset="1" style="stop-color:#8A6799"/>
</linearGradient>
<path class="st0" d="M933,790.4H55.5C23.5,761-0.5,699-0.5,647s0.3-66,14.3-108.2C33,481.2,92.3,399.4,191.8,344.8
	c117.4-64.4,196.5-46.4,274.5-56.5c73.3-9.5,115.1-20.4,154.7-57.6c39.5-37.3,42.2-60.8,60-105C693,93.4,705,61.2,717.3,29
	c2.1-5.4,4.8-10.6,7.5-15.6c9.2-16.9,16-17.7,27.4-2.8c4.8,6.2,9,13.2,12.4,20.3c6.3,13.3,16.6,21,29.9,22.3
	c16.3,1.6,33.1,3.1,49.2,0.8c8.3-1.2,16.4-9.6,23-16.5c6.5-6.8,10.7-16.2,16.5-23.9c8.9-11.8,17.5-11.4,22.9,2.7
	c6.1,15.7,10,32.5,14,49c4.8,20.1,8.6,40.4,12.9,60.6L933,790.4L933,790.4z"/>
</svg>
