<?xml version="1.0" encoding="utf-8"?>
<!-- Generator: Adobe Illustrator 27.8.1, SVG Export Plug-In . SVG Version: 6.00 Build 0)  -->
<svg version="1.1" id="圖層_1" xmlns="http://www.w3.org/2000/svg" xmlns:xlink="http://www.w3.org/1999/xlink" x="0px" y="0px"
	 viewBox="0 0 1512 713.2" style="enable-background:new 0 0 1512 713.2;" xml:space="preserve">
<style type="text/css">
	.st0{clip-path:url(#SVGID_00000133494478634405284880000001489697511947930777_);}
	.st1{fill:url(#SVGID_00000003809169359850726400000014473559332972701079_);}
</style>
<g>
	<g>
		<g>
			<defs>
				<rect id="SVGID_1_" width="1512" height="713.2"/>
			</defs>
			<clipPath id="SVGID_00000096747943783111661340000002833848596535749046_">
				<use xlink:href="#SVGID_1_"  style="overflow:visible;"/>
			</clipPath>
			<g style="clip-path:url(#SVGID_00000096747943783111661340000002833848596535749046_);">
				
					<linearGradient id="SVGID_00000077282883515792908610000007148203485919582135_" gradientUnits="userSpaceOnUse" x1="756.1001" y1="666.2415" x2="756.1001" y2="-53.2" gradientTransform="matrix(1 0 0 -1 0 626)">
					<stop  offset="0.193" style="stop-color:#5B457D"/>
					<stop  offset="1" style="stop-color:#2F2544"/>
				</linearGradient>
				<path style="fill:url(#SVGID_00000077282883515792908610000007148203485919582135_);" d="M0,222.8
					c8.9-33.6,16.9-67.5,26.9-100.8c9.6-32,20.8-63.6,32.4-95c4.4-11.9,9.6-25.6,25-26.9C100-1.2,105.9,12.5,113,23
					c5.7,8.4,10.6,17.7,14.4,27.1c9.6,23.8,26.9,36,52.2,37c14.3,0.6,28.6,1.7,42.8,1.1c28.3-1.1,50.4-13.3,64.2-39
					c5.9-11,12.1-21.9,19.2-32.1c14.9-21.4,30.8-21.9,43.2,0.7c31.7,58.1,49.8,119.4,66.8,182.9c24.1,89.9,50.6,134.9,84.6,170.4
					c61.6,64.4,181.8,110.1,307.2,103.3c162.5-8.8,247.3-55.9,413.4-61c84.7-2.6,175.7,20.8,291.2,105v194.8H0V222.8z"/>
			</g>
		</g>
	</g>
</g>
</svg>
