<?xml version="1.0" encoding="utf-8"?>
<!-- Generator: Adobe Illustrator 27.8.1, SVG Export Plug-In . SVG Version: 6.00 Build 0)  -->
<svg version="1.1" id="圖層_1" xmlns="http://www.w3.org/2000/svg" xmlns:xlink="http://www.w3.org/1999/xlink" x="0px" y="0px"
	 viewBox="0 0 1512 733" style="enable-background:new 0 0 1512 733;" xml:space="preserve">
<style type="text/css">
	.st0{clip-path:url(#SVGID_00000044887856239169360540000004347152121810183328_);}
	.st1{fill:#FFFFFF;}
	.st2{fill:#E8E6DF;}
	.st3{fill:#3B1A54;}
	.st4{fill:none;stroke:#3B1A54;stroke-width:3;stroke-linecap:round;stroke-miterlimit:10;}
	.st5{fill:none;stroke:#877629;stroke-miterlimit:10;}
</style>
<g>
	<g>
		<defs>
			<polygon id="SVGID_1_" points="0,0 1512,0 1512,732.4 0,737 			"/>
		</defs>
		<clipPath id="SVGID_00000125569125537523714320000012491878880518655389_">
			<use xlink:href="#SVGID_1_"  style="overflow:visible;"/>
		</clipPath>
		<g style="clip-path:url(#SVGID_00000125569125537523714320000012491878880518655389_);">
			<path class="st1" d="M734.9,27.9c-0.7-9.5,0.1-16.3,2.4-22.6c2.4-6.3,6.6-3.6,9.5-0.7c3,3,9.6,13.6,11.6,14.1
				c2.6,0.6,17.7-6.6,40.5,3.4c4.8,2.1,7.2,1.8,10.1-1.7c2.5-2.9,11.6-13.9,17.4-14.9c5.4-0.9,7.1,11.1,7.6,25.5
				c0.5,14.3,3.7,39,10.4,60.8c11.7,37.7,37.5,94.5,88.5,151.7c92.6,103.9,210.5,193.2,302.6,237.2
				c128.9,61.5,276.4,67.8,276.4,67.8V733l-630.6,4l-141.8-5.2l-113.2-65.1l-15.6-152.8l12-245.3l10.7-86.9l51.2-85.8L734.9,27.9
				L734.9,27.9z"/>
			<path class="st2" d="M713.7,733c48.6-45.6,7.7-88.8,5.8-92.7c-4.7-9.6-12.4-17.4-17-27c-6.9-14.6-6-32.7,2.4-46.5
				c11.4-18.7,33-22.5,51.6-30.5c19.1-8.2,37.2-19.2,47-38.2c11.5-22.4,9.8-49.3-3-70.9c-11.1-18.8-29-32.8-48.5-42.7
				c-37.8-19.3-97.1-21.4-105.3-73.2c-7-44.4,36.8-75.4,72.1-91.3c20.4-9.2,41.8-16.1,63.7-20.5c16.1-3.2,32.5-4.2,49-5.6
				c4.8-0.4,10.4-1.3,12.6-5.6c2.5-4.8-1-10.6-5.2-13.9c-11.9-9.2-30.7-9.7-45.2-9.8c-17.9-0.2-35.7,2.5-53.1,6.6
				c-11.9,2.8-23.6,6.6-34.8,11.4c-12.1,5.1-24.6,15.2-37.7,17.2c-4.4,0.7-9.5-0.4-12.3-4c-2.6-3.3-2.8-8-1.4-12
				c10.9-33,55.4-38.3,83.9-44.3c24.6-5.2,25.4-19.9,25-36.9c-0.4-17.1-9.9-24.6-17.1-31c-7.2-6.3-11.5-14.3-11.5-19.9V27.9
				C717,33,714.6,51.7,714.6,51.7c-9.1,1.2-27,8.7-27,8.7c-7.9-15.5-19.5-19.5-25.8-16.7s-6,14.3-6.7,27.9
				c-2.6,44.6-45.4,112.1-98.3,175.1C456.1,366.6,374.2,443.2,238.3,488.9C159.2,515.5,0,546.2,0,546.2v186.3l665.1,0.5H713.7z"/>
			<path class="st3" d="M742.9,114.5c-1.9-0.8-6.1-1.8-3.9-6c2-3.6,5.4-3.3,7.8-1.7c2.7,1.7,0.5,5.4-0.1,6.1
				S744.9,115.3,742.9,114.5L742.9,114.5z"/>
			<path class="st4" d="M738.5,123.6c0,0,5.8-2.4,6.5-9.4c0,0,2.5,3.1,7.1,2.5"/>
			<path class="st3" d="M767.5,67.3c4.2,0.2,5.2,3.3,4,5.4s-3.3,3.6-5.2,3.3c-1.9-0.3-3.9-2.8-4-4.9S763.8,67.2,767.5,67.3
				L767.5,67.3z"/>
			<path class="st4" d="M758.4,80.6c0,0,4.9,0.9,7.9-4.6c0,0,0.3,5.5,9.5,6.4"/>
			<path class="st4" d="M748.3,49.2c0,0,4.8,1.7,8.2,7.3"/>
			<path class="st4" d="M789.6,59.3c0,0,5.4-3.6,14-4.9"/>
			<path class="st4" d="M698.3,102.4c0,0,9.6-2.5,17,1.4"/>
			<path class="st4" d="M746.8,93.1c0,0,0.8-3.9,4.5-7.8"/>
		</g>
	</g>
</g>
<line class="st5" x1="756" y1="-382.2" x2="756" y2="-88.5"/>
</svg>
