<?xml version="1.0" encoding="utf-8"?>
<!-- Generator: Adobe Illustrator 27.8.1, SVG Export Plug-In . SVG Version: 6.00 Build 0)  -->
<svg version="1.1" id="圖層_1" xmlns="http://www.w3.org/2000/svg" xmlns:xlink="http://www.w3.org/1999/xlink" x="0px" y="0px"
	 viewBox="0 0 1513 677" style="enable-background:new 0 0 1513 677;" xml:space="preserve">
<style type="text/css">
	.st0{clip-path:url(#SVGID_00000113315420093063385960000012482747353676923828_);}
	.st1{fill:url(#SVGID_00000125593359206770762490000003041151179020462491_);}
</style>
<g>
	<defs>
		<polygon id="SVGID_1_" points="0,0.8 1512,0.8 1513,676.2 0,676.2 		"/>
	</defs>
	<clipPath id="SVGID_00000033337310916317682230000002867783406550572948_">
		<use xlink:href="#SVGID_1_"  style="overflow:visible;"/>
	</clipPath>
	<g style="clip-path:url(#SVGID_00000033337310916317682230000002867783406550572948_);">
		
			<linearGradient id="SVGID_00000174603371492332112930000000873414296661324965_" gradientUnits="userSpaceOnUse" x1="753.968" y1="600.841" x2="757.254" y2="118.5227" gradientTransform="matrix(1 0 0 -1 0 678)">
			<stop  offset="0" style="stop-color:#FFFFFF"/>
			<stop  offset="0.13" style="stop-color:#FCF9F5"/>
			<stop  offset="0.36" style="stop-color:#F5E9DB"/>
			<stop  offset="0.64" style="stop-color:#EACFB1"/>
			<stop  offset="0.98" style="stop-color:#DCAB77"/>
			<stop  offset="1" style="stop-color:#DBA974"/>
		</linearGradient>
		<path style="fill:url(#SVGID_00000174603371492332112930000000873414296661324965_);" d="M0,72.4c61.1-23.7,142.6-62.7,207.4-70
			c53.6-6,104.5,6.5,157.6,8.1c48.8,1.5,101.6,12.1,147.5,32.1c40.3,17.6,79.4,39.7,119.8,58.4c28.2,13.1,59,0,87.9,9.6
			c37.7,12.5,74.8,25.6,111.6,41c32.5,13.6,74.2-6.8,104.2-19.2c15.7-6.5,22.4-3.6,39.2-2.4c19.3,1.4,32.2-12.2,50.6-12.6
			c50.5-1.3,92.8,41.5,143.4,47.4c42.2,4.9,74.7-7.4,110.7,16.9c24.8,16.7,42.3,20.4,72.3,17.5c55.5-5.4,105.9,19.1,160.9,23.5V677
			H0L0,72.4z"/>
	</g>
</g>
</svg>
