<?xml version="1.0" encoding="utf-8"?>
<!-- Generator: Adobe Illustrator 27.8.1, SVG Export Plug-In . SVG Version: 6.00 Build 0)  -->
<svg version="1.1" id="圖層_1" xmlns="http://www.w3.org/2000/svg" xmlns:xlink="http://www.w3.org/1999/xlink" x="0px" y="0px"
	 viewBox="0 0 808 568.6" style="enable-background:new 0 0 808 568.6;" xml:space="preserve">
<style type="text/css">
	.st0{fill:url(#SVGID_1_);}
</style>
<linearGradient id="SVGID_1_" gradientUnits="userSpaceOnUse" x1="392.8829" y1="1062.6" x2="392.8829" y2="495.0392" gradientTransform="matrix(1 0 0 1 0 -494)">
	<stop  offset="0" style="stop-color:#5E4873"/>
	<stop  offset="0.32" style="stop-color:#644974"/>
	<stop  offset="0.77" style="stop-color:#764F79"/>
	<stop  offset="1" style="stop-color:#82537D"/>
</linearGradient>
<path class="st0" d="M663,510c-38.9,25.6-127,58.4-230,58.4L0,568.6V155C122,9,257.1,4.7,286.9,2c47.1-4.3,92.6,6.4,137.4,20.8
	c7.1,2.8,14.3,5.5,21.4,8.4c42.8,17.9,84.6,39.1,131.4,44.2c28.8,3.1,54.8,0.8,72.2-28.8c7.3-12.3,13.3-10.6,22.4,1.3
	c5.3,7,11.9,14.3,19.4,17.6c15.3,6.8,28.4,1.3,39.4-12.2c10.9-13.5,15.8-12.3,20.8,4.9C757,77.7,771,107.4,777,137
	c12.1,59,13.9,147.3-9,222C747.1,427.3,701.9,484.4,663,510z"/>
</svg>
