<svg width="27" height="25" viewBox="0 0 27 25" fill="none" xmlns="http://www.w3.org/2000/svg">
<g clip-path="url(#clip0_1974_1123)">
<path d="M9.45803 9.66003C11.148 9.32003 12.438 7.83003 12.298 5.73003C12.158 3.63003 11.008 0.720027 9.45803 0.380027C7.64803 -0.00997305 4.98803 3.16003 5.39803 5.87003C5.80803 8.58003 7.76803 10 9.45803 9.66003Z" fill="#AE80C4"/>
<path d="M5.728 11.96C5.768 10.06 4.708 8.17 3.498 7.96C2.428 7.79 0.447998 9.66 0.447998 11.42C0.447998 13.18 2.008 14.94 3.498 14.74C4.988 14.54 5.708 13.21 5.728 11.96Z" fill="#AE80C4"/>
<path d="M13.588 10.8099C10.538 10.8099 5.39796 14.0599 4.17796 18.1899C2.95796 22.3199 6.02796 23.9999 7.49796 24.2799C9.93796 24.7499 11.768 22.9899 13.588 22.9899C15.418 22.9899 17.248 24.7499 19.678 24.2799C21.148 23.9899 24.218 22.3199 22.998 18.1899C21.778 14.0599 16.628 10.8099 13.588 10.8099Z" fill="#AE80C4"/>
<path d="M17.718 9.66003C19.408 10 21.378 8.58003 21.778 5.87003C22.178 3.16003 19.518 -0.00997305 17.718 0.380027C16.158 0.720027 15.008 3.63003 14.878 5.73003C14.748 7.83003 16.028 9.32003 17.718 9.66003Z" fill="#AE80C4"/>
<path d="M23.678 7.96994C22.458 8.16994 21.398 10.0699 21.448 11.9699C21.478 13.2199 22.188 14.5399 23.678 14.7499C25.168 14.9499 26.728 13.1899 26.728 11.4299C26.728 9.66994 24.748 7.79994 23.678 7.97994V7.96994Z" fill="#AE80C4"/>
</g>
<defs>
<clipPath id="clip0_1974_1123">
<rect width="26.27" height="24.02" fill="white" transform="translate(0.447998 0.349976)"/>
</clipPath>
</defs>
</svg>
