<svg width="67" height="81" viewBox="0 0 67 81" fill="none" xmlns="http://www.w3.org/2000/svg">
<path d="M0.573808 27.4912C0.280083 22.8701 0.720671 17.9711 3.31279 14.125C5.90492 10.2789 11.1479 7.91716 15.3996 9.80364C19.4016 11.5731 21.1786 16.187 22.3241 20.3987C24.3362 27.7983 25.6359 35.3955 26.2013 43.0364C30.3061 33.6771 34.433 24.2886 39.742 15.5435C43.2447 9.77439 47.6432 4.00527 54.0024 1.68007C55.3755 1.17555 56.8588 0.846509 58.3128 1.05856C62.1312 1.62157 64.4149 5.62121 65.4062 9.33568C69.3862 24.252 61.8962 39.7388 53.2093 52.5273C47.6139 60.7679 41.453 68.7306 34.6606 76.0279C29.5204 81.5485 26.2233 83.4934 21.7073 76.4886C12.4917 62.223 1.66793 44.7474 0.573808 27.4912Z" fill="#F75454"/>
</svg>
