<svg width="221" height="169" viewBox="0 0 221 169" fill="none" xmlns="http://www.w3.org/2000/svg">
<path d="M48.6524 94.7003C46.981 94.0089 46.2419 91.9664 47.6326 89.344C48.5875 88.0133 50.2764 87.7405 51.7983 88.4431C51.9098 88.4922 52.1207 88.6309 52.3512 88.8388C55.7123 86.8854 58.7903 83.7651 62.2693 81.7718C60.6689 81.7376 51.9045 80.9305 49.1757 80.4025C39.6656 81.6392 33.3515 82.2864 26.0337 85.2089C26.0824 85.7 26.0274 86.2607 25.8071 86.9045C25.0351 89.1137 23.7261 90.0646 21.3282 89.0701C19.6568 88.3787 18.9176 86.3361 20.3084 83.7138C21.2632 82.3831 22.9522 82.1102 24.474 82.8129C24.6928 82.9157 25.2813 83.3264 25.6758 84.0521C31.2797 81.2938 37.5264 79.9582 43.6471 79.1709C42.2849 78.8272 30.1862 76.7823 29.9887 76.8104C24.9 77.4715 19.2513 77.9627 14.1337 77.0932C14.0939 77.2464 14.0802 77.3888 14.023 77.5521C13.2509 79.7613 11.942 80.7123 9.54401 79.7177C7.87262 79.0263 7.13347 76.9838 8.52425 74.3614C9.47907 73.0307 11.168 72.7579 12.6899 73.4606C12.989 73.6015 13.9468 74.3024 14.1978 75.5778C18.5549 76.1908 22.8289 75.7059 27.2031 75.5005C23.6531 75.0741 17.4646 72.2754 12.1835 68.5073C11.376 69.7474 10.1797 70.1466 8.32545 69.3762C6.65407 68.6848 5.91491 66.6423 7.30569 64.0199C8.26052 62.6892 9.94946 62.4164 11.4713 63.119C11.8774 63.3049 13.5284 64.5368 12.8839 66.8954C15.5788 68.433 18.2729 69.9442 21.0331 71.2914C18.9081 67.8866 18.0322 64.2333 17.5128 60.2484C17.1106 60.2036 16.6803 60.099 16.1988 59.8967C14.5274 59.2053 13.7883 57.1627 15.1791 54.5404C16.1339 53.2097 17.8228 52.9369 19.3447 53.6395C19.7731 53.837 21.5808 55.1586 20.6821 57.7263C20.2981 58.8242 19.782 59.6051 19.0657 59.9991C20.5473 65.6431 24.0763 72.5156 24.0903 72.5455C40.0867 77.4024 40.7271 76.6563 48.7711 78.1891C46.8517 76.8096 40.1148 72.6563 36.6965 65.8064C36.0914 65.9137 35.3795 65.8215 34.5193 65.4666C32.8479 64.7752 32.1087 62.7326 33.4995 60.1103C34.4544 58.7796 36.1433 58.5067 37.6652 59.2094C38.0936 59.4069 39.9013 60.7285 39.0025 63.2962C38.7818 63.9224 38.514 64.4373 38.1947 64.8456C42.3739 70.2072 51.4702 78.5956 52.8785 79.0153C53.1629 79.0999 67.6597 79.7408 72.5821 79.6002C67.0893 77.7475 62.7539 72.7952 59.1114 68.365C58.3118 69.2511 57.199 69.485 55.5811 68.8161C53.9097 68.1246 53.1706 66.0821 54.5613 63.4597C55.5162 62.129 57.2051 61.8562 58.727 62.5589C59.1554 62.7563 60.9631 64.078 60.0643 66.6457C60.0437 66.6958 60.0228 66.7372 60.0064 66.7826C64.8076 72.009 75.0272 79.1071 75.0272 79.1071C75.0272 79.1071 85.2248 78.3532 94.3639 78.527C95.1088 78.5372 95.2534 80.9116 94.3735 80.9601C85.5086 81.4636 76.6881 81.4999 67.8858 81.7159C65.2817 82.676 56.9492 87.9585 53.2135 90.0726C53.4377 90.6962 53.4995 91.4999 53.1477 92.4893C52.3757 94.6985 51.0667 95.6495 48.6688 94.6549L48.6524 94.7003Z" fill="#DBD0A2"/>
<path d="M127.924 67.5397C128.001 73.1096 132.565 85.2505 132.559 85.3902C132.493 89.9066 133.286 93.649 134.982 97.2691C134.433 97.1062 130.058 94.813 128.301 93.7945C127.269 92.322 123.482 85.0293 122.168 82.9166C122.401 82.806 124.12 78.4583 123.1 76.8403C121.963 75.0302 119.623 74.1281 117.627 74.6985C115.875 75.199 113.557 77.8589 114.794 79.8203C116.463 83.8886 119.928 83.26 120.832 83.2367C122.168 86.3563 123.66 89.3712 125.473 92.223C120.527 89.5574 115.193 87.2584 110.208 86.6124C108.129 80.1753 104.042 74.5646 98.503 71.0027C95.3258 68.954 91.7605 67.5513 88.173 66.5328C83.3989 65.1767 78.1369 65.9042 73.5403 64.3269C73.5403 64.3269 84.6465 79.471 91.6662 82.8235C95.1373 84.4822 97.4107 85.978 109.642 87.7764C116.013 90.3373 128.389 96.1749 128.445 96.2273C123.327 96.0294 118.048 97.0713 113.136 98.3284C108.794 95.1157 104.148 94.5453 98.7081 95.3019C91.766 96.2681 77.1832 99.83 77.6046 100.197C85.8719 107.478 96.7564 108.438 100.527 107.693C104.331 106.942 109.886 104.876 114.428 99.3586C114.433 99.3527 114.411 99.3469 114.405 99.3411C118.059 98.8872 121.719 98.4681 125.379 98.084C128.068 97.7988 130.358 98.0665 132.637 98.5612C133.818 99.2713 142.978 105.889 145.362 107.938C142.889 107.844 137.871 107.641 137.871 107.641C130.463 102.42 111.461 104.975 114.117 106.698C118.509 109.544 133.879 115.114 137.427 108.729C140.793 109.299 144.176 109.282 147.491 109.788C150.779 112.716 158.198 119.799 158.72 120.294C158.038 119.974 151.184 115.806 141.486 116.639C139.989 115.236 138.758 115.731 137.716 116.208C135.104 117.395 136.241 119.863 137.106 120.457C141.619 123.559 143.383 120.16 142.667 118.041C146.133 118.437 149.648 118.455 153.019 119.24C153.003 119.24 152.986 119.24 152.964 119.252C149.626 120.457 146.388 122.441 144.397 125.514C144.17 125.328 141.065 123.716 139.169 124.577C136.219 125.916 137.788 130.351 139.141 131.102C145.196 134.46 145.623 129.402 145.196 126.452C148.062 122.639 154.633 119.875 154.672 119.892C156.141 120.497 158.864 121.493 160.372 121.871C166.333 127.488 172.565 133.017 179.396 137.324C175.931 137.196 172.415 137.23 169.049 137.865C166.942 138.266 164.908 138.831 162.834 139.244C162.812 139.227 162.801 139.204 162.773 139.186C147.353 129.146 116.102 137.836 113.973 139.215C113.114 139.774 132.104 149.581 141.83 148.33C147.957 147.544 163.205 140.804 163.205 140.804C168.329 139.727 175.193 138.75 182.579 139.209C185.994 141.101 189.571 142.655 193.336 143.743C191.5 144.337 189.615 144.814 187.852 145.577C184.985 146.816 182.257 148.341 179.596 150C179.54 150.035 179.513 150.081 179.468 150.122C175.359 149.948 171.328 150.303 167.414 152.217C163.965 153.911 160.777 156.198 157.422 158.078C153.901 160.046 145.495 164.242 146.804 165.61C149.853 168.793 163.887 168.98 170.608 165.627C175.049 163.41 176.252 160.226 182.318 150.308C184.902 148.76 187.564 147.369 190.369 146.298C192.144 145.617 194.012 145.192 195.714 144.354C196.829 144.61 214.179 148.562 219.624 147.427C220.239 147.299 220.433 146.304 219.701 146.176C212.831 144.954 206.055 145.542 199.291 143.318C197.256 141.811 195.166 139.5 194.201 138.517C190.031 134.268 187.741 129.088 186.333 123.408C190.547 118.129 189.21 109.195 187.741 103.095C186.931 99.7427 185.884 96.3088 184.004 93.4337C181.342 89.3595 177.832 83.1727 176.075 81.5838C175.171 80.7689 171.417 89.9706 171.079 94.394C170.752 98.73 172.16 103.014 173.901 106.872C175.997 111.517 179.33 119.56 184.276 121.918C185.318 129.612 188.623 135.77 193.375 140.17C193.962 140.711 194.899 141.642 195.997 142.603C186.505 139.617 171.423 131.597 163.239 120.131C161.409 117.57 160.011 114.602 158.869 111.616C159.241 111.715 163.216 96.7861 161.631 88.859C160.161 81.5372 151.356 68.2148 151.112 69.2741C148.323 81.415 149.321 96.8385 157.594 111.977C159.207 114.922 160.034 117.378 161.78 120.556C159.169 118.164 137.366 98.1538 136.607 97.857C135.897 96.4951 135.259 95.0982 134.866 93.6141C134.189 91.059 134.333 88.3817 133.879 85.7918C134.256 86.0769 142.324 70.5254 142.678 62.3248C143.011 54.6945 138.864 48.7696 134.727 42.8912C134.289 42.2743 127.807 59.4147 127.924 67.563V67.5397Z" fill="#C2B075"/>
<path d="M80.2957 49.1952C79.4611 47.9797 79.8504 46.2018 81.9442 44.9485C83.1763 44.4181 84.4503 44.9562 85.1766 46.1241C85.2341 46.2104 85.3112 46.3963 85.3785 46.6433C88.5243 46.7232 91.9903 45.8418 95.2312 45.9412C94.156 45.2216 88.5377 40.8294 86.9062 39.2713C79.8786 36.01 75.2955 33.7203 69.0276 32.6102C68.8482 32.9756 68.5594 33.3553 68.1268 33.7143C66.6342 34.9467 65.3241 35.0473 64.1249 33.2986C63.2902 32.0831 63.6795 30.3052 65.7733 29.0519C67.0054 28.5215 68.2794 29.0596 69.0057 30.2275C69.1119 30.399 69.3322 30.9425 69.284 31.6285C74.3146 32.1115 79.1513 33.8802 83.6661 35.9849C82.8864 35.1479 75.5368 28.4328 75.3875 28.3628C71.6267 26.6179 67.5636 24.5065 64.4576 21.6607C64.367 21.7525 64.2939 21.8462 64.1806 21.9398C62.6881 23.1722 61.378 23.2727 60.1787 21.5241C59.3441 20.3085 59.7334 18.5306 61.8272 17.2773C63.0593 16.7469 64.3333 17.2851 65.0596 18.4529C65.2012 18.6817 65.5493 19.5941 65.1618 20.6143C67.8638 22.949 70.9838 24.4621 74.0595 26.2229C71.8232 24.375 68.8304 19.6937 66.8836 14.7225C65.7908 15.2464 64.7975 15.0147 63.8737 13.6606C63.0391 12.4451 63.4284 10.6672 65.5222 9.4139C66.7543 8.8835 68.0283 9.42163 68.7546 10.5895C68.95 10.8996 69.5323 12.4901 68.0671 13.8852C69.2273 16.1525 70.4043 18.3995 71.6944 20.5529C71.738 17.2112 72.7399 14.2347 74.1333 11.1826C73.8809 10.9769 73.6333 10.714 73.391 10.3631C72.5563 9.14759 72.9456 7.36969 75.0394 6.11642C76.2715 5.58602 77.5455 6.12415 78.2718 7.29202C78.4783 7.61671 79.1323 9.34379 77.3929 10.7789C76.6524 11.3869 75.9554 11.7249 75.2962 11.6905C73.8364 16.3441 73.2309 22.7563 73.2303 22.7872C82.0092 33.2006 82.7687 32.945 87.5833 37.5347C86.8806 35.7224 84.104 29.8376 84.7713 23.4856C84.3103 23.3006 83.8678 22.9183 83.4369 22.2979C82.6023 21.0824 82.9916 19.3045 85.0854 18.0512C86.3175 17.5208 87.5915 18.059 88.3178 19.2268C88.5242 19.5515 89.1782 21.2786 87.4388 22.7137C87.0164 23.065 86.6019 23.3108 86.2117 23.4618C86.7097 29.0897 89.2427 39.0028 90.0185 39.9192C90.1759 40.1054 99.775 46.8702 103.193 48.9134C100.261 45.2096 99.4736 39.8017 98.9289 35.0728C97.9995 35.3581 97.137 35.0348 96.3281 33.8532C95.4935 32.6376 95.8828 30.8597 97.9766 29.6065C99.2087 29.0761 100.483 29.6142 101.209 30.7821C101.415 31.1068 102.069 32.8338 100.33 34.2689C100.294 34.2959 100.264 34.3191 100.233 34.3422C101.221 40.1406 105.076 49.631 105.076 49.631C105.076 49.631 112.361 53.5374 118.509 57.6347C119.012 57.9708 118.07 59.7174 117.449 59.3636C111.187 55.8651 105.155 52.0468 99.0643 48.3725C96.8706 47.9212 88.878 48.044 85.4042 47.9228C85.2806 48.4673 84.9707 49.0618 84.3013 49.6158C82.8088 50.8482 81.4987 50.9487 80.2994 49.2L80.2957 49.1952Z" fill="#DBD0A2"/>
</svg>
