<svg width="198" height="172" viewBox="0 0 198 172" fill="none" xmlns="http://www.w3.org/2000/svg">
<path d="M170.016 123.943C171.133 122.751 170.999 120.848 168.915 119.305C167.657 118.612 166.174 119.047 165.183 120.189C165.108 120.275 164.988 120.459 164.876 120.716C161.42 120.459 157.775 119.164 154.211 118.921C155.506 118.274 162.391 114.272 164.431 112.802C172.663 110.131 178.063 108.219 185.105 107.726C185.243 108.132 185.49 108.562 185.903 108.984C187.335 110.442 188.748 110.689 190.352 108.981C191.469 107.788 191.335 105.885 189.251 104.342C187.992 103.649 186.51 104.084 185.519 105.226C185.374 105.392 185.042 105.943 184.979 106.674C179.393 106.641 173.803 107.982 168.51 109.705C169.497 108.909 178.663 102.637 178.834 102.587C183.237 101.16 188.038 99.3758 191.911 96.7188C191.995 96.8275 192.06 96.9303 192.163 97.0388C193.595 98.4969 195.008 98.7441 196.612 97.0356C197.729 95.8433 197.595 93.9396 195.511 92.3969C194.253 91.7039 192.77 92.1391 191.779 93.2814C191.584 93.5086 191.057 94.4269 191.311 95.5442C187.97 97.7028 184.299 98.9578 180.645 100.481C183.397 98.7784 187.448 94.1841 190.409 89.1628C191.52 89.833 192.642 89.6937 193.88 88.3723C194.997 87.1801 194.863 85.2764 192.779 83.7337C191.521 83.0406 190.038 83.4759 189.048 84.6181C188.783 84.9252 187.88 86.5291 189.256 88.1522C187.607 90.4089 185.945 92.6415 184.18 94.7717C184.686 91.2546 184.091 88.0167 183.073 84.6614C183.384 84.4696 183.701 84.2228 184.023 83.8787C185.14 82.6864 185.006 80.7828 182.922 79.24C181.664 78.547 180.181 78.9822 179.19 80.1245C178.913 80.4438 177.909 82.1888 179.574 83.8819C180.283 84.6049 180.99 85.0298 181.718 85.0649C182.542 90.1142 182.14 96.9168 182.134 96.9473C170.798 106.948 170.003 106.597 163.977 110.902C165.05 109.071 169.062 103.187 169.382 96.4396C169.916 96.2941 170.468 95.9415 171.036 95.3331C172.154 94.1408 172.019 92.2372 169.935 90.6944C168.677 90.0014 167.194 90.4366 166.204 91.5789C165.926 91.8982 164.923 93.6432 166.587 95.3363C166.994 95.7521 167.399 96.0522 167.809 96.2549C166.325 102.113 161.91 112.262 160.911 113.137C160.708 113.315 149.077 119.393 145.004 121.17C148.829 117.588 150.59 111.995 151.963 107.081C152.937 107.479 153.931 107.238 155.01 106.082C156.128 104.89 155.993 102.986 153.909 101.444C152.651 100.751 151.168 101.186 150.178 102.328C149.9 102.647 148.897 104.392 150.561 106.086C150.593 106.116 150.626 106.14 150.658 106.176C148.613 112.168 142.82 121.722 142.82 121.722C142.82 121.722 134.199 125.043 126.787 128.692C126.184 128.99 126.919 130.924 127.662 130.624C135.1 127.62 142.329 124.259 149.611 121.05C152.085 120.811 160.815 121.798 164.635 122.045C164.679 122.629 164.915 123.284 165.56 123.941C166.993 125.399 168.406 125.646 170.009 123.937L170.016 123.943Z" fill="#C2B075"/>
<path d="M86.155 79.3626C86.0272 84.5135 81.6878 95.6898 81.6878 95.8238C81.7061 99.9982 80.9393 103.451 79.3265 106.783C79.8377 106.636 83.9031 104.562 85.5464 103.636C86.5201 102.283 90.0927 95.5813 91.3281 93.6409C91.1151 93.5388 89.5632 89.4984 90.5248 88.0113C91.5959 86.3453 93.7686 85.5411 95.6066 86.0837C97.2194 86.5624 99.3434 89.0517 98.1749 90.8452C96.5925 94.5855 93.3913 93.9728 92.5514 93.9409C91.2855 96.8131 89.8736 99.5833 88.1695 102.2C92.7766 99.7875 97.7306 97.7195 102.356 97.177C104.34 91.2473 108.18 86.1028 113.341 82.8667C116.305 81.0093 119.616 79.7455 122.951 78.8392C127.382 77.6392 132.251 78.3605 136.517 76.9562C136.517 76.9562 126.092 90.8388 119.561 93.8643C116.336 95.3579 114.212 96.7238 102.873 98.2493C96.9516 100.553 85.4429 105.819 85.3881 105.864C90.1231 105.736 95.0041 106.758 99.5382 107.97C103.591 105.047 107.894 104.568 112.921 105.328C119.336 106.298 132.805 109.745 132.409 110.083C124.686 116.728 114.601 117.5 111.114 116.772C107.602 116.038 102.478 114.066 98.3332 108.915C98.3271 108.909 98.3454 108.902 98.3575 108.896C94.9798 108.436 91.5959 108.015 88.2121 107.613C85.7229 107.319 83.6049 107.543 81.487 107.977C80.3854 108.621 71.8467 114.64 69.6192 116.51C71.9076 116.453 76.5573 116.319 76.5573 116.319C83.465 111.57 101.029 114.136 98.5522 115.7C94.4624 118.285 80.1785 123.276 76.959 117.334C73.8429 117.825 70.7086 117.774 67.6352 118.208C64.5617 120.883 57.6297 127.348 57.1428 127.802C57.7758 127.514 64.1661 123.729 73.1248 124.604C74.5246 123.321 75.6566 123.793 76.6182 124.246C79.0282 125.37 77.951 127.642 77.1415 128.185C72.9361 131.006 71.3294 127.846 72.0171 125.887C68.8037 126.212 65.5537 126.193 62.4194 126.889C62.4377 126.889 62.4498 126.889 62.4681 126.895C65.5476 128.051 68.5237 129.914 70.3374 132.78C70.5443 132.608 73.4413 131.153 75.188 131.97C77.9023 133.24 76.4112 137.325 75.1514 138.001C69.5097 141.046 69.1688 136.361 69.5888 133.636C66.9718 130.08 60.9162 127.451 60.8797 127.463C59.5103 128.006 56.9846 128.9 55.5848 129.231C50.01 134.363 44.1917 139.412 37.8257 143.318C41.0331 143.235 44.2891 143.305 47.3991 143.931C49.3466 144.32 51.2272 144.869 53.1382 145.271C53.1564 145.252 53.1686 145.233 53.193 145.22C67.5621 136.099 96.4039 144.474 98.3575 145.769C99.1487 146.293 81.4748 155.165 72.4857 153.901C66.8196 153.109 52.773 146.714 52.773 146.714C48.0381 145.661 41.6964 144.684 34.8557 145.035C31.6727 146.752 28.3497 148.144 24.8564 149.114C26.5483 149.682 28.2889 150.148 29.9139 150.869C32.5552 152.044 35.0687 153.48 37.5153 155.05C37.564 155.082 37.5944 155.126 37.631 155.165C41.4347 155.05 45.1655 155.414 48.7684 157.233C51.9453 158.835 54.8727 160.986 57.9644 162.76C61.2022 164.618 68.9437 168.588 67.7204 169.839C64.866 172.749 51.8784 172.769 45.6889 169.603C41.5991 167.509 40.5157 164.547 35.0018 155.312C32.6282 153.856 30.1756 152.535 27.589 151.514C25.9518 150.863 24.2234 150.454 22.6593 149.656C21.6247 149.886 5.52707 153.352 0.499999 152.241C-0.0660036 152.114 -0.236398 151.195 0.439153 151.086C6.81124 150.027 13.0738 150.646 19.3607 148.661C21.2595 147.288 23.2131 145.176 24.1199 144.276C28.0211 140.389 30.1877 135.627 31.551 130.387C27.6985 125.459 29.0253 117.213 30.4433 111.589C31.2284 108.5 32.2266 105.328 33.9976 102.692C36.5051 98.9514 39.8098 93.2707 41.4469 91.8154C42.2929 91.0686 45.6767 99.6216 45.9445 103.713C46.2062 107.728 44.8612 111.672 43.2119 115.221C41.2217 119.498 38.0631 126.895 33.4681 129.021C32.4274 136.125 29.3113 141.786 24.8685 145.801C24.3208 146.299 23.4383 147.148 22.4158 148.022C31.2284 145.361 45.2689 138.104 52.9556 127.591C54.6719 125.242 55.9926 122.51 57.082 119.766C56.7351 119.855 53.1991 106.004 54.751 98.6897C56.1812 91.9367 64.4643 79.7072 64.6773 80.6902C67.1422 91.9494 66.0711 106.202 58.2627 120.11C56.7412 122.817 55.95 125.083 54.3067 128C56.7472 125.817 77.1172 107.543 77.8232 107.275C78.4926 106.024 79.0952 104.741 79.4725 103.368C80.1237 101.013 80.0203 98.5365 80.4585 96.1493C80.1055 96.411 72.79 81.9412 72.5405 74.3584C72.3031 67.2991 76.1982 61.8673 80.0933 56.4674C80.5011 55.8994 86.3376 71.8245 86.155 79.3562V79.3626Z" fill="#C2B075"/>
<path d="M149.756 54.5921C150.06 52.7347 148.8 50.9092 145.976 50.6029C144.418 50.6667 143.323 51.9815 143.11 53.7177C143.091 53.8453 143.098 54.107 143.146 54.4325C139.848 56.2389 135.752 57.1197 132.356 59.009C133.153 57.592 137.024 49.4667 138.004 46.7796C143.901 39.1904 147.674 34.0459 153.791 29.3481C154.156 29.6736 154.637 29.9545 155.27 30.1268C157.442 30.7332 158.885 30.1332 159.317 27.4652C159.621 25.6078 158.361 23.7759 155.537 23.4759C153.979 23.5398 152.884 24.8546 152.671 26.5907C152.64 26.8461 152.671 27.5928 153.048 28.3588C147.942 31.6587 143.651 36.3373 139.866 41.2265C140.292 39.8414 144.887 28.0907 145.009 27.9311C148.161 23.8717 151.472 19.2186 153.407 14.2464C153.547 14.3038 153.669 14.3677 153.833 14.4123C156.006 15.0187 157.448 14.4187 157.881 11.7507C158.185 9.89332 156.925 8.06146 154.101 7.76147C152.543 7.82529 151.448 9.14014 151.235 10.8763C151.192 11.2145 151.259 12.4592 152.16 13.4166C150.407 17.5782 147.814 21.0249 145.398 24.7333C146.889 21.3888 147.826 14.3613 147.522 7.56997C148.934 7.58274 149.871 6.76574 150.212 4.7041C150.516 2.8467 149.257 1.01484 146.433 0.714844C144.875 0.778672 143.779 2.09353 143.566 3.82966C143.505 4.2956 143.645 6.44659 145.873 7.24444C145.721 10.4869 145.544 13.7166 145.209 16.9016C143.566 13.0783 141.089 10.1933 138.15 7.44233C138.32 7.06574 138.46 6.63169 138.545 6.08915C138.849 4.23176 137.59 2.39989 134.766 2.0999C133.208 2.16373 132.112 3.47859 131.899 5.21471C131.838 5.69981 131.966 8.0423 134.498 8.7444C135.575 9.0444 136.47 9.0444 137.158 8.64867C140.931 13.206 144.631 20.2654 144.649 20.2973C140.31 37.0841 139.379 37.2053 136.458 45.1136C136.342 42.6435 136.47 34.3522 132.733 27.4077C133.135 26.9418 133.421 26.2652 133.579 25.3078C133.883 23.4504 132.623 21.6185 129.8 21.3185C128.242 21.3824 127.146 22.6972 126.933 24.4333C126.872 24.9184 127 27.2609 129.532 27.963C130.153 28.1354 130.7 28.1928 131.193 28.1545C133.348 34.9075 135.399 47.7051 135.009 49.1795C134.93 49.4795 127.974 62.5132 125.326 66.7258C126.671 60.86 124.925 54.2027 123.239 48.4646C124.365 48.2859 125.125 47.4433 125.418 45.6434C125.722 43.786 124.462 41.9605 121.638 41.6541C120.08 41.718 118.985 43.0328 118.772 44.769C118.711 45.2541 118.839 47.5966 121.37 48.2987C121.419 48.3114 121.462 48.3178 121.51 48.3306C123.233 55.5495 123.671 68.5832 123.671 68.5832C123.671 68.5832 117.81 77.0532 113.239 85.1338C112.868 85.7912 114.694 87.2912 115.193 86.5508C120.171 79.1021 124.742 71.4172 129.453 63.8536C131.564 62.1302 140.103 57.9112 143.731 55.8751C144.12 56.4304 144.729 56.9473 145.708 57.2154C147.881 57.8218 149.324 57.2218 149.756 54.5538V54.5921Z" fill="#DBD0A2"/>
</svg>
