<svg width="917" height="197" viewBox="0 0 917 197" fill="none" xmlns="http://www.w3.org/2000/svg">
<path d="M-156.629 37.0715C-111.308 24.7549 -64.4062 2.86624 -17.1864 1.0614C21.8677 -0.430059 58.0807 9.69829 96.4363 13.014C131.649 16.06 169.392 25.0507 201.659 39.7153C229.983 52.592 257.263 68.2173 285.562 81.8081C305.322 91.3017 328.22 84.3718 348.696 91.6588C375.374 101.161 401.638 111.101 427.524 122.384C450.424 132.372 481.501 121.308 503.793 114.773C515.454 111.354 520.204 113.457 532.265 114.947C546.17 116.667 556.143 108.654 569.452 109.156C606.064 110.549 634.634 139.391 670.985 145.308C701.264 150.23 725.399 143.892 750.313 160.782C767.463 172.412 779.947 175.528 801.767 174.974C842.172 173.94 876.94 191.611 916.517 196.787C825.949 190.595 737.077 193.732 646.671 185.985C613.614 183.149 582.128 175.837 548.703 176.985C509.491 178.33 472.014 191.052 432.252 192.728C386.435 194.653 342.966 179.833 296.879 180.833C271.022 181.396 245.134 185.225 219.284 186.582C186.029 188.335 160.23 179.179 128.593 174.45C94.4714 169.354 58.9874 176.417 24.5347 173.58C-14.6726 170.351 -49.9471 170.515 -89.2389 174.475C-117.603 177.336 -145.015 177.744 -172.819 170.484" fill="#C6ADD2"/>
</svg>
