<svg width="432" height="154" viewBox="0 0 432 154" fill="none" xmlns="http://www.w3.org/2000/svg">
<path d="M302.776 103.472C299.086 102.302 295.456 100.912 292.116 98.9925C284.246 94.4825 278.776 87.6125 273.065 80.8625C276.475 72.0725 271.255 65.6425 276.195 54.4425C281.356 42.9425 292.256 37.6525 294.566 36.6025C309.096 29.5925 327.766 32.7125 342.857 43.9225C343.047 44.0025 343.217 44.2025 343.407 44.2825C342.177 27.4825 347.087 14.0425 355.937 10.6525C358.697 9.57249 363.657 8.84249 366.477 11.4025C370.257 14.7925 366.647 20.6625 366.647 35.0825C366.687 46.1225 368.767 47.4225 367.217 54.0125C365.227 62.2925 360.057 67.7325 358.057 69.8225C354.887 73.1725 351.397 75.6025 347.877 77.4525C341.117 81.0525 334.457 82.3025 330.286 83.5425C318.516 86.8125 312.416 92.7225 302.786 103.472H302.776Z" fill="white"/>
<path d="M175.734 65.2924C176.194 60.5424 176.284 53.2024 173.474 45.1124C170.964 37.9124 168.484 36.8124 167.664 32.4624C164.864 17.5624 187.714 -3.22757 195.204 0.422431C199.154 2.35243 200.194 11.7524 196.404 18.0924C193.014 23.7624 186.824 25.2524 185.354 25.5624C187.804 28.3424 190.564 32.0224 193.004 36.6924C197.514 45.3524 198.824 53.4424 199.214 58.6724L175.734 65.2824V65.2924Z" fill="#CF9A70"/>
<path d="M115.303 102.302C118.153 105.672 123.013 110.812 130.193 115.102C139.563 120.792 148.773 122.792 159.584 122.792C174.614 122.892 192.744 119.342 218.725 117.372C252.705 114.812 250.435 118.722 276.066 117.292C278.946 117.152 282.176 116.912 285.866 116.582C327.757 112.982 338.797 105.952 357.117 114.282C361.107 116.012 367.018 119.332 374.518 120.912C378.408 121.742 382.638 122.122 387.218 121.592C390.098 121.272 397.548 120.422 404.398 115.362C409.818 111.312 409.058 108.982 416.118 100.492C425.379 89.4424 431.919 87.2624 431.199 82.2324C430.689 78.4624 426.409 75.8324 423.599 74.8924C414.638 71.8024 402.248 78.9524 392.398 92.6224C392.308 92.4424 392.298 92.1724 392.208 91.9924C387.848 73.7024 375.538 59.3324 359.897 55.3724C357.457 54.6924 345.707 51.7424 334.367 57.2524C323.387 62.6624 323.257 70.9424 315.237 75.4024C303.906 81.6224 291.776 72.2024 271.126 64.5424C268.776 63.6824 222.665 47.0124 175.784 58.3424C162.424 61.5424 152.063 66.2224 145.373 69.6624L115.323 102.312L115.303 102.302Z" fill="white"/>
<path d="M77.232 98.4225C78.4721 99.4225 79.7121 100.422 80.9521 101.322C87.2622 106.212 93.6523 110.092 99.8225 112.432C101.472 113.222 103.113 113.802 104.653 114.182C112.663 116.802 119.803 116.782 125.163 113.522C128.703 111.422 133.463 103.582 142.993 87.9025C145.773 83.2625 147.453 80.2725 148.303 75.9725C149.713 68.8025 147.973 62.7125 146.243 56.8225C144.833 51.9425 142.263 44.9525 140.943 45.2725C139.413 45.5025 142.433 54.9425 138.513 64.6025C136.163 70.3625 132.143 74.3025 128.723 76.9125C129.763 71.8925 130.673 65.4425 130.543 57.9925C130.433 51.7725 129.733 46.2725 128.733 41.7925C123.613 40.6525 118.383 39.4125 113.153 38.2825C115.753 47.0125 115.983 54.7725 112.093 60.1425C110.793 61.9025 109.383 63.0525 107.773 63.9925C102.823 66.8325 96.6024 67.2425 90.3523 72.0525C85.2122 75.9125 79.4221 83.2625 77.222 98.4125L77.232 98.4225Z" fill="white"/>
<path d="M101.362 105.462C118.693 124.192 120.173 131.302 118.233 134.312C115.213 138.992 104.292 133.162 87.8922 138.232C75.802 141.972 76.972 146.622 65.7718 150.732C47.4815 157.452 29.8512 150.802 17.2009 146.032C9.56078 143.142 0.0106105 139.542 0.000610352 134.632C0.000610352 131.142 4.8007 130.372 19.541 120.902C30.8712 113.622 33.8712 110.322 41.2414 109.262C47.1215 108.412 48.4515 110.252 53.8016 109.902C59.5917 109.512 67.9218 106.802 77.722 95.4524L101.362 105.472V105.462Z" fill="#CF9A70"/>
<path d="M88.8522 102.732C84.7922 110.752 79.9821 114.422 76.712 116.272C62.4017 124.372 48.5515 114.022 34.5612 123.482C33.4412 124.232 26.4911 128.932 27.2911 133.452C28.2611 138.962 40.2713 141.512 47.8515 141.872C64.6918 142.672 79.0421 133.582 81.0721 132.302C85.6722 129.392 88.3522 126.602 94.7423 124.382C98.5424 123.062 100.962 122.882 101.892 121.022C103.502 117.812 99.2624 112.452 95.5524 108.522L88.8522 102.752V102.732Z" fill="#FFCCCC"/>
<path d="M113.343 42.6024C114.343 46.0024 114.613 47.2424 114.983 47.2124C115.703 47.1424 114.953 43.6824 117.113 41.7024C118.783 40.1624 120.863 40.6524 120.933 40.0524C121.063 38.9024 113.683 36.2224 112.363 38.0624C112.033 38.5224 112.273 38.9724 113.343 42.6124V42.6024Z" fill="#3B1A54"/>
<path d="M134.003 69.0525C136.423 71.5625 139.323 75.1625 141.543 80.0125C148.063 94.2425 147.443 114.222 139.073 118.122C135.293 119.882 129.903 118.372 127.253 115.322C124.463 112.112 126.483 109.232 126.913 95.1525C127.203 85.5425 126.343 82.2925 128.743 76.9325C130.363 73.3025 132.473 70.6925 134.003 69.0525Z" fill="#FFCCCC"/>
<path d="M77.232 98.4225C78.472 99.4225 79.712 100.422 80.952 101.322C82.162 100.582 83.802 100.762 85.132 101.152C89.132 102.312 92.352 105.312 95.352 108.122C96.802 109.522 98.262 110.932 99.812 112.432C101.372 114.042 103.032 115.642 104.792 116.942C104.772 116.022 104.762 115.102 104.642 114.192C104.272 110.422 103.492 106.662 107.222 103.842C109.542 102.072 113.002 101.802 114.702 99.3225C115.702 97.8725 115.662 95.9325 115.632 94.1025C115.672 90.4325 115.612 86.7525 115.552 83.1825C115.522 81.2425 115.382 79.2025 114.232 77.7925C113.192 76.3825 111.232 75.7025 110.592 74.0825C109.842 72.1525 111.132 69.9925 110.892 67.9525C110.662 66.2225 109.312 64.8125 107.762 64.0225C102.812 66.8625 96.592 67.2725 90.342 72.0825C85.202 75.9425 79.412 83.2925 77.212 98.4425L77.232 98.4225Z" fill="#CF9A70"/>
<path d="M110.14 76.2184C112.791 76.173 114.919 74.9545 114.894 73.4967C114.869 72.0388 112.7 70.8938 110.05 70.9391C107.399 70.9845 105.271 72.203 105.296 73.6609C105.321 75.1187 107.49 76.2637 110.14 76.2184Z" fill="#3B1A54"/>
<path d="M203.754 74.2325C205.744 69.8925 208.224 62.9825 208.194 54.4225C208.174 46.7925 206.184 44.9425 206.834 40.5625C209.054 25.5625 237.434 13.3625 243.324 19.2625C246.434 22.3725 244.344 31.5925 238.694 36.3625C233.644 40.6125 227.304 40.0025 225.814 39.8125C227.224 43.2325 228.634 47.6225 229.414 52.8325C230.854 62.4925 229.454 70.5725 228.114 75.6425L203.754 74.2325Z" fill="white"/>
<path d="M159.574 122.792C174.604 122.892 192.734 119.342 218.715 117.372C252.695 114.812 250.425 118.722 276.056 117.292V116.572C275.906 113.782 275.766 110.722 274.106 108.412C271.066 104.412 265.135 104.692 260.095 104.782C256.945 104.742 253.515 104.532 251.145 102.412C249.685 101.082 248.745 99.2124 247.735 97.6124C244.035 91.9124 237.495 88.4224 230.735 87.9124C223.975 87.4024 217.175 89.7624 211.845 93.9924C208.474 96.6624 205.554 100.132 201.814 102.352C193.444 107.442 182.884 105.822 173.074 106.262C170.734 106.302 168.224 106.702 166.814 108.442C165.754 109.542 165.424 111.162 164.994 112.612C163.884 116.412 161.964 119.682 159.584 122.782L159.574 122.792Z" fill="#CF9A70"/>
<path d="M374.508 120.922C378.398 121.752 382.628 122.132 387.208 121.602C390.088 121.282 397.538 120.432 404.388 115.372C409.808 111.322 409.048 108.992 416.108 100.502C425.368 89.4525 431.909 87.2725 431.189 82.2425C430.679 78.4725 426.398 75.8425 423.588 74.9025C414.628 71.8125 402.238 78.9625 392.388 92.6325C392.298 92.4525 392.288 92.1825 392.198 92.0025C391.938 92.6325 391.588 93.2725 391.058 93.7325C390.088 94.6525 388.648 94.8525 387.298 94.8725C385.318 94.9025 383.248 94.7625 381.358 95.1525C379.388 95.5425 377.418 96.5725 376.458 98.2925C375.588 100.022 375.808 102.172 376.648 103.962C377.578 105.652 378.948 107.072 380.418 108.402C381.788 109.552 383.348 111.052 383.098 112.762C382.948 114.652 381.078 115.772 379.478 116.692C377.698 117.802 376.008 119.272 374.508 120.922Z" fill="#CF9A70"/>
<path d="M227.875 76.0024C227.645 76.0024 227.405 75.9524 227.185 75.8424C226.475 75.4724 226.195 74.5924 226.565 73.8924C228.395 70.3724 229.405 66.4424 229.475 62.5124C229.595 56.4724 227.565 51.7424 225.835 48.8324C225.425 48.1424 225.655 47.2524 226.345 46.8424C227.015 46.4424 227.915 46.6524 228.335 47.3524C230.255 50.5824 232.515 55.8424 232.385 62.5624C232.305 66.9324 231.185 71.3124 229.145 75.2224C228.895 75.7124 228.395 75.9924 227.885 76.0024H227.875Z" fill="#3B1A54"/>
<path d="M224.095 40.2725C223.125 40.1825 222.545 39.4725 222.625 38.6725L223.175 33.3725C223.265 32.5725 223.985 31.9825 224.765 32.0825C225.565 32.1625 226.145 32.8725 226.055 33.6725L225.505 38.9825C225.435 39.7225 224.815 40.2725 224.095 40.2825V40.2725Z" fill="#3B1A54"/>
<path d="M183.734 27.4024C183.484 27.4024 183.244 27.3524 183.004 27.2224L177.974 24.4524C177.274 24.0724 177.014 23.1824 177.404 22.4824C177.784 21.7824 178.674 21.5324 179.374 21.9124L184.404 24.6824C185.104 25.0624 185.364 25.9524 184.974 26.6524C184.714 27.1224 184.234 27.3924 183.734 27.4024Z" fill="#3B1A54"/>
<path d="M212.234 85.3724C204.874 85.5024 198.964 81.9924 196.544 80.3024C195.884 79.8424 195.734 78.9424 196.194 78.2824C196.654 77.6224 197.564 77.4724 198.214 77.9324C200.724 79.6824 207.444 83.6124 215.344 82.1624C217.474 81.7724 219.534 81.0324 221.474 79.9524C222.174 79.5624 223.054 79.8224 223.444 80.5224C223.834 81.2224 223.574 82.1024 222.874 82.4924C220.654 83.7224 218.294 84.5724 215.864 85.0124C214.624 85.2424 213.414 85.3524 212.244 85.3724H212.234Z" fill="#3B1A54"/>
<path d="M138.413 100.402C137.703 100.412 137.073 99.9024 136.963 99.1724C136.393 95.5124 135.473 91.8924 134.223 88.4024C133.123 85.3224 131.753 82.3124 130.143 79.4524C129.753 78.7524 130.003 77.8724 130.703 77.4824C131.393 77.1024 132.283 77.3324 132.673 78.0324C134.363 81.0324 135.793 84.1924 136.953 87.4324C138.263 91.0924 139.223 94.9024 139.823 98.7324C139.943 99.5224 139.403 100.262 138.613 100.382C138.543 100.382 138.483 100.402 138.413 100.402Z" fill="#3B1A54"/>
<path d="M150.193 90.9524C149.163 90.8224 148.613 90.0824 148.733 89.2924C149.203 86.0924 149.383 82.8224 149.253 79.6024C149.123 76.3124 148.673 73.0124 147.923 69.8024C147.743 69.0224 148.223 68.2424 149.003 68.0624C149.803 67.8724 150.563 68.3624 150.743 69.1424C151.543 72.5324 152.013 76.0124 152.153 79.4824C152.283 82.8924 152.103 86.3324 151.603 89.7224C151.503 90.4324 150.893 90.9424 150.193 90.9624V90.9524Z" fill="#3B1A54"/>
<path d="M298.286 87.5824C297.766 87.5824 297.256 87.3224 296.986 86.8324C290.496 75.0324 292.006 67.1824 293.486 63.5624C300.036 47.5124 328.026 47.0824 341.897 49.0924C353.387 50.7524 364.207 55.3424 374.037 62.7224C374.677 63.2024 374.807 64.1124 374.327 64.7524C373.847 65.3924 372.927 65.5224 372.297 65.0424C362.857 57.9624 352.487 53.5624 341.477 51.9624C326.246 49.7524 301.606 51.3124 296.176 64.6524C294.886 67.8024 293.616 74.6824 299.536 85.4324C299.926 86.1324 299.666 87.0124 298.966 87.4024C298.756 87.5224 298.526 87.5724 298.296 87.5824H298.286Z" fill="#3B1A54"/>
<path d="M292.306 75.2624C292.086 75.2624 291.856 75.2224 291.646 75.1224L275.746 67.3924C275.026 67.0424 274.726 66.1724 275.076 65.4524C275.426 64.7324 276.296 64.4324 277.016 64.7824L292.916 72.5124C293.636 72.8624 293.936 73.7324 293.586 74.4524C293.336 74.9624 292.836 75.2624 292.306 75.2624Z" fill="#3B1A54"/>
</svg>
