<svg width="1227" height="233" viewBox="0 0 1227 233" fill="none" xmlns="http://www.w3.org/2000/svg">
<g style="mix-blend-mode:multiply">
<path fill-rule="evenodd" clip-rule="evenodd" d="M0 214.871V10.7422C20.0339 5.30877 40.1961 1.33209 60.44 0.320061C90.9841 -1.20589 120.199 2.99392 149.556 7.21414C166.949 9.71443 184.392 12.2219 202.19 13.5501C246.11 16.8301 293.27 27.4801 333.69 45.2801C353.632 54.0649 373.175 63.9365 392.765 73.8312C408.029 81.5412 423.32 89.2652 438.85 96.5001C452.126 102.688 466.456 102.979 480.843 103.271C493.289 103.524 505.777 103.778 517.66 107.85C551.04 119.3 583.91 131.3 616.33 144.98C642.372 155.976 676.559 145.247 703.351 136.839C706.065 135.987 708.704 135.159 711.25 134.38C722.71 130.874 728.827 131.74 738.34 133.086C740.847 133.441 743.591 133.83 746.73 134.18C755.998 135.216 763.828 132.808 771.641 130.406C778.453 128.311 785.252 126.22 792.98 126.42C817.621 127.068 839.458 137.72 861.478 148.461C880.243 157.615 899.141 166.833 920.02 169.98C932.163 171.808 943.5 172.197 954.332 172.569C977.218 173.355 997.852 174.064 1019.09 188.1C1040.63 202.34 1056.23 206.04 1083.41 205.03C1113.33 203.912 1140.87 211.062 1168.66 218.277C1187.61 223.198 1206.68 228.15 1226.71 230.53C1174.61 227.582 1122.99 227.103 1071.42 226.624C1011.2 226.065 951.061 225.507 890.32 221.02C875.906 219.954 861.724 218.203 847.593 216.459C821.304 213.214 795.196 209.991 768.12 211.24C743.459 212.376 719.391 217.12 695.231 221.882C671.543 226.551 647.765 231.238 623.25 232.56C593.961 234.136 565.379 230.205 536.73 226.265C509.566 222.53 482.342 218.786 454.4 219.72C436.06 220.335 417.724 222.269 399.391 224.203C385.525 225.666 371.662 227.129 357.8 228.02C329.283 229.859 305.095 225.2 279.901 220.348C268.511 218.154 256.915 215.921 244.62 214.23C221.148 211.006 197.214 212.39 173.263 213.774C153.756 214.902 134.238 216.03 114.95 214.67C75.133 211.861 38.5978 211.816 0 214.871Z" fill="#FFE382"/>
</g>
</svg>
