<svg width="1513" height="353" viewBox="0 0 1513 353" fill="none" xmlns="http://www.w3.org/2000/svg">
<path d="M1192.01 3.50998C1380.01 2.56998 1511.01 1.04997 1512.11 0.499972C1512.52 0.289972 1512.11 353.5 1512.11 353.5C1512.11 353.5 0.833916 352.37 0.013916 352.37V253.21C0.013916 253.21 48.2439 204.87 124.014 184.48C209.014 161.61 271.014 179.07 331.014 158.78C355.654 150.45 380.434 142.18 405.984 137.08C432.834 131.73 453.064 131.92 479.914 135.89C535.344 144.08 591.744 144.5 647.614 137.14C703.534 129.77 758.794 109.66 796.864 91.0399C829.844 74.91 866.654 51.47 910.974 36.67C994.914 8.62996 1039.71 15.6 1124.83 4.95999C1147.05 2.17999 1169.6 3.61997 1192 3.49997L1192.01 3.50998Z" fill="#FFDD79"/>
</svg>
