<?xml version="1.0" encoding="utf-8"?>
<!-- Generator: Adobe Illustrator 27.8.1, SVG Export Plug-In . SVG Version: 6.00 Build 0)  -->
<svg version="1.1" id="圖層_1" xmlns="http://www.w3.org/2000/svg" xmlns:xlink="http://www.w3.org/1999/xlink" x="0px" y="0px"
	 viewBox="0 0 1145 651.7" style="enable-background:new 0 0 1145 651.7;" xml:space="preserve">
<style type="text/css">
	.st0{fill:#FFFFFF;}
</style>
<path class="st0" d="M147,398.2C61,418.7,0,374.7,0,374.7V76.3c0,0,36.1-64.8,137-75c119-12,146.9,65.1,223,101
	c53,25,118-14,167.9,54.9c41.4,57,5.1,92.1,35.7,147.3c28.4,51.2,85.3,49.6,130.6,62c27.2,7.5,56.6,12.5,77.8,30.6
	c26.4,22.5,33.6,87,79,78.4c22.6-4.2,39.2-13.7,63.5-10.6c22.4,2.9,44.1,12.9,59,29.6c18.4,20.5,29.2,50.2,55.6,59.4
	c19.3,6.7,40.4-0.2,60.8-1.6c20.6-1.4,42.8,9.1,51.9,27.7l0,0c9.8,20.2-21.9,16.8-37.7,22.7c-24.2,9-40.8,26.3-62.8,38
	c-15.1,8-33,12.5-49.8,8.7c-34.1-7.6-36.6-39.2-52-63.7c-14.7-23.4-42.6-37.4-70.5-38.8c-37.4-1.8-55.4,22.9-84.8,40.6
	c-63.1,38-155.9,18.4-186.9-49.9c-7.2-15.8-11.7-34.4-26.4-44.3c-14.7-9.8-34.3-7.2-51.8-4.3c-33.4,5.6-77.9,21.3-111.5,18.4
	c-28.8-2.5-27-27.3-31.9-48.5c-3.1-11.7-20.7-40.2-49.7-53.2C307,397.2,233,377.7,147,398.2z"/>
</svg>
