<?xml version="1.0" encoding="UTF-8"?>
<svg xmlns="http://www.w3.org/2000/svg" xmlns:xlink="http://www.w3.org/1999/xlink" width="420px" height="389px" viewBox="0 0 419 389" version="1.1">
<g id="surface1">
<path style="fill:none;stroke-width:1.33;stroke-linecap:butt;stroke-linejoin:miter;stroke:rgb(0%,16.470588%,14.901961%);stroke-opacity:1;stroke-miterlimit:10;" d="M 25.901934 348.149201 C 25.901934 348.149201 136.833747 374.761187 194.392247 295.119477 " transform="matrix(0.963218,0,0,0.965261,0,0)"/>
<path style=" stroke:none;fill-rule:nonzero;fill:rgb(5.490196%,25.490196%,36.078431%);fill-opacity:1;" d="M 51.632812 339.886719 C 51.949219 339.539062 26.261719 316.789062 0.0429688 334 C 14.257812 349.210938 40.332031 352.273438 51.632812 339.886719 Z M 51.632812 339.886719 "/>
<path style=" stroke:none;fill-rule:nonzero;fill:rgb(5.490196%,25.490196%,36.078431%);fill-opacity:1;" d="M 62.007812 339.125 C 62.007812 339.125 32.445312 350.804688 32.742188 374.394531 C 58.066406 365.023438 62.007812 339.125 62.007812 339.125 Z M 62.007812 339.125 "/>
<path style=" stroke:none;fill-rule:nonzero;fill:rgb(5.490196%,25.490196%,36.078431%);fill-opacity:1;" d="M 67.777344 340.792969 C 67.777344 340.792969 36.683594 334.203125 33.0625 310.890625 C 59.589844 315.910156 67.777344 340.792969 67.777344 340.792969 Z M 67.777344 340.792969 "/>
<path style=" stroke:none;fill-rule:nonzero;fill:rgb(5.490196%,25.490196%,36.078431%);fill-opacity:1;" d="M 92.753906 338.476562 C 92.753906 338.476562 61.179688 334.859375 55.378906 311.992188 C 82.261719 314.472656 92.753906 338.476562 92.753906 338.476562 Z M 92.753906 338.476562 "/>
<path style=" stroke:none;fill-rule:nonzero;fill:rgb(5.490196%,25.490196%,36.078431%);fill-opacity:1;" d="M 117.246094 333.660156 C 117.246094 333.660156 85.46875 333.371094 77.3125 311.238281 C 104.300781 310.890625 117.246094 333.660156 117.246094 333.660156 Z M 117.246094 333.660156 "/>
<path style=" stroke:none;fill-rule:nonzero;fill:rgb(5.490196%,25.490196%,36.078431%);fill-opacity:1;" d="M 137.484375 326.210938 C 137.484375 326.210938 105.707031 326.285156 97.296875 304.25 C 124.289062 303.59375 137.484375 326.210938 137.484375 326.210938 Z M 137.484375 326.210938 "/>
<path style=" stroke:none;fill-rule:nonzero;fill:rgb(5.490196%,25.490196%,36.078431%);fill-opacity:1;" d="M 88.101562 339.433594 C 88.101562 339.433594 58.539062 351.113281 58.835938 374.703125 C 84.160156 365.332031 88.101562 339.433594 88.101562 339.433594 Z M 88.101562 339.433594 "/>
<path style=" stroke:none;fill-rule:nonzero;fill:rgb(5.490196%,25.490196%,36.078431%);fill-opacity:1;" d="M 115.957031 334.230469 C 115.957031 334.230469 86.394531 345.910156 86.695312 369.5 C 112.015625 360.128906 115.957031 334.230469 115.957031 334.230469 Z M 115.957031 334.230469 "/>
<path style=" stroke:none;fill-rule:nonzero;fill:rgb(5.490196%,25.490196%,36.078431%);fill-opacity:1;" d="M 136.445312 326.710938 C 136.445312 326.710938 108.511719 341.90625 111.667969 365.285156 C 135.671875 352.898438 136.445312 326.710938 136.445312 326.710938 Z M 136.445312 326.710938 "/>
<path style="fill:none;stroke-width:1.33;stroke-linecap:butt;stroke-linejoin:miter;stroke:rgb(0%,16.470588%,14.901961%);stroke-opacity:1;stroke-miterlimit:10;" d="M 59.294218 231.470859 C 59.294218 231.470859 141.444753 310.630995 231.422239 271.12984 " transform="matrix(0.963218,0,0,0.965261,0,0)"/>
<path style=" stroke:none;fill-rule:nonzero;fill:rgb(5.490196%,25.490196%,36.078431%);fill-opacity:1;" d="M 78.179688 240.28125 C 78.632812 240.148438 67.976562 207.492188 36.683594 209.015625 C 41.25 229.355469 62.179688 245.234375 78.179688 240.28125 Z M 78.179688 240.28125 "/>
<path style=" stroke:none;fill-rule:nonzero;fill:rgb(5.490196%,25.490196%,36.078431%);fill-opacity:1;" d="M 87.503906 244.894531 C 87.503906 244.894531 56.109375 239.953125 44.4375 260.445312 C 71.011719 265.226562 87.503906 244.894531 87.503906 244.894531 Z M 87.503906 244.894531 "/>
<path style=" stroke:none;fill-rule:nonzero;fill:rgb(5.490196%,25.490196%,36.078431%);fill-opacity:1;" d="M 91.636719 249.269531 C 91.636719 249.269531 68.160156 227.800781 76.832031 205.859375 C 97.164062 223.660156 91.636719 249.269531 91.636719 249.269531 Z M 91.636719 249.269531 "/>
<path style=" stroke:none;fill-rule:nonzero;fill:rgb(5.490196%,25.490196%,36.078431%);fill-opacity:1;" d="M 114.347656 259.953125 C 114.347656 259.953125 88.957031 240.804688 95.515625 218.140625 C 117.4375 233.929688 114.347656 259.953125 114.347656 259.953125 Z M 114.347656 259.953125 "/>
<path style=" stroke:none;fill-rule:nonzero;fill:rgb(5.490196%,25.490196%,36.078431%);fill-opacity:1;" d="M 137.898438 268.234375 C 137.898438 268.234375 110.648438 251.855469 114.808594 228.632812 C 138.253906 242.039062 137.898438 268.234375 137.898438 268.234375 Z M 137.898438 268.234375 "/>
<path style=" stroke:none;fill-rule:nonzero;fill:rgb(5.490196%,25.490196%,36.078431%);fill-opacity:1;" d="M 159.109375 272.085938 C 159.109375 272.085938 131.675781 256.015625 135.566406 232.742188 C 159.167969 245.878906 159.109375 272.085938 159.109375 272.085938 Z M 159.109375 272.085938 "/>
<path style=" stroke:none;fill-rule:nonzero;fill:rgb(5.490196%,25.490196%,36.078431%);fill-opacity:1;" d="M 109.847656 258.410156 C 109.847656 258.410156 78.457031 253.46875 66.785156 273.960938 C 93.359375 278.738281 109.847656 258.410156 109.847656 258.410156 Z M 109.847656 258.410156 "/>
<path style=" stroke:none;fill-rule:nonzero;fill:rgb(5.490196%,25.490196%,36.078431%);fill-opacity:1;" d="M 136.492188 268.070312 C 136.492188 268.070312 105.101562 263.128906 93.425781 283.621094 C 120 288.402344 136.492188 268.070312 136.492188 268.070312 Z M 136.492188 268.070312 "/>
<path style=" stroke:none;fill-rule:nonzero;fill:rgb(5.490196%,25.490196%,36.078431%);fill-opacity:1;" d="M 157.953125 271.992188 C 157.953125 271.992188 126.195312 270.898438 117.09375 292.667969 C 144.042969 294.183594 157.953125 271.992188 157.953125 271.992188 Z M 157.953125 271.992188 "/>
<path style="fill:none;stroke-width:1.33;stroke-linecap:butt;stroke-linejoin:miter;stroke:rgb(0%,16.470588%,14.901961%);stroke-opacity:1;stroke-miterlimit:10;" d="M 216.344207 82.061717 C 216.344207 82.061717 171.892807 187.121596 241.013294 256.969965 " transform="matrix(0.963218,0,0,0.965261,0,0)"/>
<path style=" stroke:none;fill-rule:nonzero;fill:rgb(5.490196%,25.490196%,36.078431%);fill-opacity:1;" d="M 200.246094 104.972656 C 200.535156 105.347656 227.140625 83.679688 214.503906 54.941406 C 197.195312 66.507812 189.902344 91.777344 200.246094 104.972656 Z M 200.246094 104.972656 "/>
<path style=" stroke:none;fill-rule:nonzero;fill:rgb(5.490196%,25.490196%,36.078431%);fill-opacity:1;" d="M 199.285156 115.347656 C 199.285156 115.347656 192.636719 84.210938 169.367188 80.636719 C 174.433594 107.210938 199.285156 115.347656 199.285156 115.347656 Z M 199.285156 115.347656 "/>
<path style=" stroke:none;fill-rule:nonzero;fill:rgb(5.490196%,25.490196%,36.078431%);fill-opacity:1;" d="M 196.691406 120.773438 C 196.691406 120.773438 208.28125 91.121094 231.820312 91.371094 C 222.527344 116.765625 196.691406 120.773438 196.691406 120.773438 Z M 196.691406 120.773438 "/>
<path style=" stroke:none;fill-rule:nonzero;fill:rgb(5.490196%,25.490196%,36.078431%);fill-opacity:1;" d="M 194.882812 145.851562 C 194.882812 145.851562 203.617188 115.234375 227.082031 113.253906 C 220.222656 139.421875 194.882812 145.851562 194.882812 145.851562 Z M 194.882812 145.851562 "/>
<path style=" stroke:none;fill-rule:nonzero;fill:rgb(5.490196%,25.490196%,36.078431%);fill-opacity:1;" d="M 195.605469 170.851562 C 195.605469 170.851562 201.105469 139.480469 224.230469 135.058594 C 220.148438 161.796875 195.605469 170.851562 195.605469 170.851562 Z M 195.605469 170.851562 "/>
<path style=" stroke:none;fill-rule:nonzero;fill:rgb(5.490196%,25.490196%,36.078431%);fill-opacity:1;" d="M 199.621094 192.078125 C 199.621094 192.078125 204.765625 160.648438 227.832031 155.957031 C 224.046875 182.742188 199.621094 192.078125 199.621094 192.078125 Z M 199.621094 192.078125 "/>
<path style=" stroke:none;fill-rule:nonzero;fill:rgb(5.490196%,25.490196%,36.078431%);fill-opacity:1;" d="M 194.707031 141.082031 C 194.707031 141.082031 188.0625 109.941406 164.792969 106.371094 C 169.859375 132.945312 194.707031 141.082031 194.707031 141.082031 Z M 194.707031 141.082031 "/>
<path style=" stroke:none;fill-rule:nonzero;fill:rgb(5.490196%,25.490196%,36.078431%);fill-opacity:1;" d="M 195.257812 169.480469 C 195.257812 169.480469 188.613281 138.339844 165.339844 134.769531 C 170.40625 161.34375 195.257812 169.480469 195.257812 169.480469 Z M 195.257812 169.480469 "/>
<path style=" stroke:none;fill-rule:nonzero;fill:rgb(5.490196%,25.490196%,36.078431%);fill-opacity:1;" d="M 199.304688 190.96875 C 199.304688 190.96875 188.929688 160.859375 165.398438 160.144531 C 173.652344 185.910156 199.304688 190.96875 199.304688 190.96875 Z M 199.304688 190.96875 "/>
<path style=" stroke:none;fill-rule:nonzero;fill:rgb(5.490196%,25.490196%,36.078431%);fill-opacity:1;" d="M 313.945312 30.503906 L 338.769531 80.097656 L 295.132812 45.925781 C 279.519531 60.945312 267.644531 78.6875 258.976562 97.519531 L 321.09375 140.890625 L 254.8125 107.277344 C 248.214844 123.949219 243.988281 141.21875 241.773438 158.03125 L 290.675781 184.308594 L 240.328125 172.90625 C 238.496094 201.921875 242.628906 228.488281 250.882812 246.671875 L 418.050781 246.671875 L 418.050781 0.800781 C 374.386719 0.800781 340.191406 12.289062 313.945312 30.503906 Z M 313.945312 30.503906 "/>
<path style=" stroke:none;fill-rule:nonzero;fill:rgb(0%,41.960784%,33.72549%);fill-opacity:1;" d="M 367.703125 6.613281 L 418.050781 124.816406 L 418.050781 117.492188 L 370.535156 5.9375 C 369.582031 6.160156 368.636719 6.371094 367.703125 6.601562 Z M 367.703125 6.613281 "/>
<path style=" stroke:none;fill-rule:nonzero;fill:rgb(0%,41.960784%,33.72549%);fill-opacity:1;" d="M 248.457031 125.976562 L 418.050781 228.160156 L 418.050781 224.800781 L 249.3125 123.136719 C 249.023438 124.085938 248.726562 125.03125 248.445312 125.976562 Z M 248.457031 125.976562 "/>
<path style=" stroke:none;fill-rule:nonzero;fill:rgb(0%,41.960784%,33.72549%);fill-opacity:1;" d="M 418.050781 244.210938 L 418.050781 241.265625 L 240.472656 201.421875 C 240.546875 202.425781 240.617188 203.429688 240.710938 204.421875 Z M 418.050781 244.210938 "/>
<path style=" stroke:none;fill-rule:nonzero;fill:rgb(0%,41.960784%,33.72549%);fill-opacity:1;" d="M 285.519531 56.070312 C 284.886719 56.796875 284.257812 57.53125 283.644531 58.261719 L 418.050781 199.441406 L 418.050781 195.273438 Z M 285.519531 56.070312 "/>
<path style=" stroke:none;fill-rule:nonzero;fill:rgb(0%,41.960784%,33.72549%);fill-opacity:1;" d="M 418.050781 239.683594 L 418.050781 238.121094 L 283.480469 180.445312 L 290.675781 184.316406 L 286.800781 183.4375 Z M 418.050781 239.683594 "/>
<path style=" stroke:none;fill-rule:nonzero;fill:rgb(0%,41.960784%,33.72549%);fill-opacity:1;" d="M 333.546875 18.988281 L 418.050781 167.472656 L 418.050781 164.566406 L 334.828125 18.339844 C 334.394531 18.550781 333.972656 18.773438 333.546875 18.988281 Z M 333.546875 18.988281 "/>
<path style=" stroke:none;fill-rule:nonzero;fill:rgb(0%,41.960784%,33.72549%);fill-opacity:1;" d="M 266.910156 82.222656 C 266.671875 82.644531 266.421875 83.0625 266.179688 83.484375 L 418.050781 214.703125 L 418.050781 212.800781 Z M 266.910156 82.222656 "/>
<path style=" stroke:none;fill-rule:nonzero;fill:rgb(5.490196%,34.509804%,36.078431%);fill-opacity:1;" d="M 353.140625 180.019531 C 347.042969 180.019531 340.992188 180.222656 335.011719 180.609375 L 341.445312 236.664062 L 323.558594 181.59375 C 297.695312 184.355469 273.085938 190.675781 250.363281 200.003906 L 263.589844 231.933594 L 235.722656 206.554688 C 192.089844 227.734375 156.585938 260.332031 134.371094 299.808594 L 172.691406 333.042969 L 125.867188 316.703125 C 115.964844 338.921875 110.117188 362.9375 109.136719 388.042969 L 418.058594 388.042969 L 418.058594 187.742188 C 397.390625 182.722656 375.628906 180.03125 353.148438 180.03125 Z M 353.140625 180.019531 "/>
<path style=" stroke:none;fill-rule:nonzero;fill:rgb(5.490196%,25.490196%,36.078431%);fill-opacity:1;" d="M 154.1875 270.648438 C 153.28125 271.769531 152.402344 272.90625 151.519531 274.046875 L 277.449219 388.035156 L 283.875 388.035156 Z M 154.1875 270.648438 "/>
<path style=" stroke:none;fill-rule:nonzero;fill:rgb(5.490196%,25.490196%,36.078431%);fill-opacity:1;" d="M 214.050781 388.035156 L 118.394531 336.179688 C 117.941406 337.570312 117.507812 338.96875 117.082031 340.378906 L 205.003906 388.042969 L 214.050781 388.042969 Z M 214.050781 388.035156 "/>
<path style=" stroke:none;fill-rule:nonzero;fill:rgb(5.490196%,25.490196%,36.078431%);fill-opacity:1;" d="M 300.152344 185.117188 C 298.726562 185.398438 297.320312 185.6875 295.90625 185.988281 L 363.058594 388.035156 L 367.597656 388.035156 Z M 300.152344 185.117188 "/>
<path style=" stroke:none;fill-rule:nonzero;fill:rgb(5.490196%,25.490196%,36.078431%);fill-opacity:1;" d="M 219.164062 215.367188 L 323.433594 388.035156 L 328.460938 388.035156 L 222.921875 213.253906 C 221.667969 213.960938 220.398438 214.644531 219.164062 215.359375 Z M 219.164062 215.367188 "/>
<path style=" stroke:none;fill-rule:nonzero;fill:rgb(5.490196%,25.490196%,36.078431%);fill-opacity:1;" d="M 365.871094 180.339844 L 386.917969 388.035156 L 391.242188 388.035156 L 370.21875 180.542969 C 368.773438 180.457031 367.316406 180.398438 365.871094 180.339844 Z M 365.871094 180.339844 "/>
<path style=" stroke:none;fill-rule:nonzero;fill:rgb(5.490196%,25.490196%,36.078431%);fill-opacity:1;" d="M 162.863281 329.609375 L 153.492188 326.335938 L 238.226562 388.035156 L 243.109375 388.035156 Z M 162.863281 329.609375 "/>
<path style=" stroke:none;fill-rule:nonzero;fill:rgb(5.490196%,25.490196%,36.078431%);fill-opacity:1;" d="M 189.027344 236.035156 L 301.152344 388.035156 L 304.71875 388.035156 L 191.269531 234.238281 C 190.519531 234.828125 189.765625 235.425781 189.027344 236.027344 Z M 189.027344 236.035156 "/>
<path style=" stroke:none;fill-rule:nonzero;fill:rgb(5.490196%,25.490196%,36.078431%);fill-opacity:1;" d="M 350.132812 180.070312 L 376.699219 388.035156 L 379.589844 388.035156 L 353.015625 180.019531 C 352.050781 180.019531 351.085938 180.058594 350.125 180.070312 Z M 350.132812 180.070312 "/>
<path style=" stroke:none;fill-rule:nonzero;fill:rgb(5.490196%,25.490196%,36.078431%);fill-opacity:1;" d="M 275.5625 191.140625 C 274.636719 191.410156 273.722656 191.691406 272.804688 191.972656 L 347.023438 388.035156 L 350.09375 388.035156 L 275.570312 191.140625 Z M 275.5625 191.140625 "/>
</g>
</svg>
