<?xml version="1.0" encoding="UTF-8"?>
<svg xmlns="http://www.w3.org/2000/svg" xmlns:xlink="http://www.w3.org/1999/xlink" width="358px" height="403px" viewBox="0 0 218 330" version="1.1">
<g id="surface1">
<path style=" stroke:none;fill-rule:nonzero;fill:rgb(23.137255%,9.803922%,32.941176%);fill-opacity:1;" d="M 82.671875 214.566406 C 84.023438 212.253906 83.542969 209.289062 84.445312 206.765625 C 85.292969 204.375 87.285156 202.59375 89.203125 200.925781 C 93.320312 197.339844 97.492188 193.714844 102.371094 191.25 C 104.980469 189.933594 107.785156 188.949219 110.101562 187.167969 C 106.777344 186.039062 103.15625 186.101562 99.710938 186.753906 C 93.683594 187.898438 87.941406 190.917969 83.957031 195.585938 C 79.394531 200.9375 79.386719 208.480469 82.675781 214.566406 Z M 82.671875 214.566406 "/>
<path style=" stroke:none;fill-rule:nonzero;fill:rgb(46.666667%,37.647059%,58.823529%);fill-opacity:1;" d="M 142.222656 206.832031 C 137.28125 203.253906 132.742188 199.058594 127.324219 196.257812 C 123.226562 194.136719 118.746094 192.882812 114.296875 191.640625 C 108.535156 190.03125 102.539062 188.40625 96.652344 189.4375 C 88.542969 190.859375 81.679688 197.75 80.292969 205.871094 C 79.492188 201.878906 81.300781 197.722656 84.066406 194.738281 C 86.835938 191.753906 90.464844 189.746094 94.058594 187.820312 C 100.507812 184.371094 107.273438 180.988281 114.582031 180.546875 C 120.675781 180.167969 126.699219 181.882812 132.515625 183.726562 C 141.785156 186.65625 150.925781 189.980469 159.917969 193.683594 C 164.164062 195.4375 168.488281 197.339844 171.773438 200.554688 C 175.050781 203.773438 177.117188 208.621094 175.839844 213.042969 C 175.492188 214.238281 174.863281 215.417969 173.808594 216.070312 C 172.132812 217.109375 169.96875 216.558594 168.082031 215.972656 C 158.902344 213.125 150.300781 212.582031 142.214844 206.832031 Z M 142.222656 206.832031 "/>
<path style=" stroke:none;fill-rule:nonzero;fill:rgb(23.137255%,9.803922%,32.941176%);fill-opacity:1;" d="M 171.199219 207.171875 C 170.75 203.375 168.675781 199.96875 166.34375 196.941406 C 166.203125 196.757812 166.050781 196.585938 165.910156 196.40625 C 163.976562 195.382812 161.953125 194.511719 159.933594 193.683594 C 157.21875 192.574219 154.488281 191.496094 151.753906 190.453125 C 151.84375 190.558594 151.933594 190.65625 152.015625 190.761719 C 154.25 193.460938 155.496094 196.957031 155.46875 200.457031 C 155.46875 201.300781 155.375 202.164062 155.007812 202.917969 C 154.128906 204.699219 151.902344 205.359375 149.917969 205.40625 C 146.320312 205.480469 141.304688 202.8125 137.15625 202.953125 C 138.832031 204.269531 140.507812 205.59375 142.230469 206.832031 C 150.316406 212.582031 158.917969 213.125 168.097656 215.972656 C 168.109375 215.972656 168.132812 215.980469 168.148438 215.988281 C 170.539062 213.914062 171.589844 210.386719 171.207031 207.171875 Z M 171.199219 207.171875 "/>
<path style=" stroke:none;fill-rule:nonzero;fill:rgb(46.666667%,37.647059%,58.823529%);fill-opacity:1;" d="M 142.605469 281.378906 C 131.734375 278.734375 120.382812 278.078125 109.289062 279.449219 C 103.816406 280.125 98.417969 281.28125 93.066406 282.589844 C 85.84375 284.355469 78.664062 286.402344 71.777344 289.234375 C 69.175781 290.300781 66.507812 291.574219 64.839844 293.84375 C 79.902344 289.453125 95.945312 294.046875 111.632812 294.4375 C 117.683594 294.585938 123.75 294.097656 129.796875 294.488281 C 136.394531 294.910156 142.921875 296.375 149.535156 296.40625 C 153.804688 296.429688 158.089844 295.851562 162.34375 296.269531 C 165.734375 296.601562 169.652344 297.414062 172.171875 295.121094 C 172.570312 294.761719 172.914062 294.308594 173.003906 293.773438 C 173.15625 292.835938 172.464844 291.992188 171.785156 291.324219 C 165.765625 285.386719 157.585938 282.257812 149.671875 279.289062 C 147.613281 280.441406 144.859375 280.664062 142.613281 281.378906 Z M 142.605469 281.378906 "/>
<path style=" stroke:none;fill-rule:nonzero;fill:rgb(23.137255%,9.803922%,32.941176%);fill-opacity:1;" d="M 171.710938 295.464844 C 172.164062 293.691406 171.703125 291.875 170.710938 290.324219 C 169.140625 288.910156 167.433594 287.664062 165.644531 286.542969 C 162.847656 285.648438 159.75 285.792969 156.804688 286.175781 C 151.25 286.90625 145.816406 288.394531 140.253906 289.039062 C 132.855469 289.894531 125.359375 289.25 117.917969 289.535156 C 112.898438 289.730469 107.816406 290.378906 103.085938 292.144531 C 102.164062 292.488281 100.792969 292.925781 99.613281 293.527344 C 103.628906 293.957031 107.640625 294.324219 111.632812 294.421875 C 117.683594 294.570312 123.75 294.082031 129.796875 294.472656 C 136.394531 294.894531 142.921875 296.359375 149.535156 296.390625 C 153.804688 296.414062 158.089844 295.835938 162.34375 296.253906 C 165.539062 296.570312 169.195312 297.308594 171.710938 295.480469 C 171.710938 295.472656 171.710938 295.464844 171.71875 295.460938 Z M 171.710938 295.464844 "/>
<path style=" stroke:none;fill-rule:nonzero;fill:rgb(46.666667%,37.647059%,58.823529%);fill-opacity:1;" d="M 103.558594 222.699219 C 92.757812 225.390625 82.488281 229.835938 72.273438 234.261719 C 66.191406 236.894531 60.066406 239.554688 54.617188 243.335938 C 48.835938 247.351562 43.949219 252.550781 39.640625 258.121094 C 47.226562 251.84375 56.125 247.175781 65.605469 244.515625 C 77.121094 241.277344 89.238281 241.003906 101.207031 240.75 C 107.835938 240.613281 114.460938 240.472656 121.089844 240.335938 C 125.863281 240.238281 130.644531 240.132812 135.394531 239.703125 C 140.003906 239.285156 144.574219 238.5625 149.144531 237.832031 C 154.542969 236.976562 159.949219 236.117188 165.34375 235.253906 C 160.683594 228.257812 153.144531 223.492188 145.09375 221.0625 C 131.375 216.921875 117.160156 219.304688 103.558594 222.695312 Z M 103.558594 222.699219 "/>
<path style=" stroke:none;fill-rule:nonzero;fill:rgb(46.666667%,37.647059%,58.823529%);fill-opacity:1;" d="M 174.222656 161.421875 C 172.71875 156.679688 171.359375 151.867188 169.296875 147.335938 C 167.78125 143.988281 165.871094 140.765625 165.179688 137.15625 C 165.847656 137.125 166.425781 137.585938 166.9375 138.019531 C 171.890625 142.285156 176.847656 146.539062 181.800781 150.800781 C 187.0625 155.324219 192.445312 159.992188 195.699219 166.128906 C 199.40625 173.101562 200 181.265625 202.261719 188.835938 C 203.796875 193.964844 206.101562 198.828125 207.726562 203.921875 C 209.351562 209.019531 210.269531 214.539062 208.921875 219.710938 C 208.734375 220.445312 208.472656 221.207031 207.90625 221.707031 C 206.824219 222.679688 205.109375 222.332031 203.804688 221.6875 C 198.339844 219.003906 195.675781 212.808594 193.746094 207.035156 C 191.332031 199.8125 187.160156 194.179688 184.085938 187.371094 C 180.28125 178.929688 177.003906 170.238281 174.207031 161.414062 Z M 174.222656 161.421875 "/>
<path style=" stroke:none;fill-rule:nonzero;fill:rgb(46.666667%,37.647059%,58.823529%);fill-opacity:1;" d="M 205.027344 66.105469 C 206.457031 73.921875 207.890625 81.761719 208.34375 89.695312 C 208.863281 98.820312 208.082031 107.96875 207.304688 117.078125 C 207.238281 117.921875 207.164062 118.792969 207.386719 119.605469 C 207.644531 120.527344 208.246094 121.304688 208.832031 122.0625 C 210.570312 124.28125 212.328125 126.519531 214.566406 128.21875 C 216.808594 129.917969 219.632812 131.03125 222.421875 130.667969 C 223.5 130.527344 224.609375 130.128906 225.265625 129.265625 C 225.917969 128.40625 226.015625 127.265625 226.085938 126.195312 C 227.144531 110.183594 227.777344 93.964844 224.6875 78.214844 C 221.355469 61.25 213.832031 45.441406 206.382812 29.84375 C 201.59375 19.824219 196.21875 6.824219 186.875 0.148438 C 187.890625 5.21875 191.210938 10.464844 192.96875 15.433594 C 194.878906 20.851562 196.503906 26.363281 197.933594 31.925781 C 200.832031 43.199219 202.9375 54.664062 205.035156 66.113281 Z M 205.027344 66.105469 "/>
<path style=" stroke:none;fill-rule:nonzero;fill:rgb(46.666667%,37.647059%,58.823529%);fill-opacity:1;" d="M 209.402344 242.53125 C 209.074219 231.738281 209.117188 221.101562 209.433594 210.304688 C 204.78125 206.066406 200.050781 201.742188 196.804688 196.347656 C 193.40625 190.695312 191.738281 184.039062 187.699219 178.824219 C 183.386719 173.246094 176.816406 169.902344 171.800781 164.941406 C 165.203125 158.414062 161.382812 149.191406 153.804688 143.832031 C 148.746094 140.253906 142.484375 138.757812 137.238281 135.449219 C 132.367188 132.375 128.210938 127.675781 122.535156 126.664062 C 116.503906 125.589844 110.605469 129.007812 104.5 129.40625 C 100.3125 129.675781 96.148438 128.753906 92.171875 130.082031 C 102.019531 132.894531 112.386719 136.007812 119.355469 143.507812 C 121.78125 146.117188 123.683594 149.152344 125.835938 151.996094 C 131.816406 159.910156 139.777344 166.429688 144.214844 175.304688 C 146.152344 179.191406 147.363281 183.433594 149.597656 187.152344 C 152.785156 192.476562 157.84375 196.40625 161.472656 201.429688 C 165.855469 207.492188 168.019531 214.964844 172.546875 220.925781 C 178.546875 228.828125 189.851562 229.894531 199.113281 233.449219 C 202.015625 234.5625 205.164062 235.757812 206.773438 238.410156 C 207.570312 239.734375 208.117188 241.652344 209.386719 242.523438 Z M 209.402344 242.53125 "/>
<path style=" stroke:none;fill-rule:nonzero;fill:rgb(23.137255%,9.803922%,32.941176%);fill-opacity:1;" d="M 189.65625 210.351562 C 189.496094 210.351562 189.355469 210.253906 189.300781 210.09375 C 187.796875 205.742188 184.785156 202.066406 181.867188 198.511719 C 179.875 196.082031 177.808594 193.566406 176.207031 190.820312 C 174.847656 188.5 173.792969 185.964844 172.777344 183.515625 C 171.402344 180.191406 169.976562 176.765625 167.78125 173.886719 C 165.140625 170.417969 161.464844 167.832031 157.910156 165.332031 C 150.511719 160.121094 142.132812 154.21875 136.058594 146.265625 C 135.417969 145.425781 134.789062 144.546875 134.1875 143.695312 C 132.457031 141.269531 130.667969 138.765625 128.34375 136.878906 C 123.542969 132.992188 116.972656 132.113281 111.167969 131.765625 C 110.957031 131.75 110.800781 131.578125 110.816406 131.367188 C 110.828125 131.15625 111.011719 130.992188 111.214844 131.015625 C 117.128906 131.367188 123.847656 132.269531 128.820312 136.292969 C 131.222656 138.238281 133.042969 140.789062 134.800781 143.253906 C 135.402344 144.09375 136.027344 144.96875 136.660156 145.800781 C 142.65625 153.664062 150.988281 159.527344 158.339844 164.707031 C 161.945312 167.246094 165.667969 169.871094 168.375 173.425781 C 170.621094 176.382812 172.074219 179.859375 173.472656 183.222656 C 174.476562 185.648438 175.523438 188.152344 176.855469 190.4375 C 178.425781 193.128906 180.46875 195.617188 182.445312 198.03125 C 185.402344 201.628906 188.460938 205.359375 190.007812 209.847656 C 190.078125 210.042969 189.972656 210.261719 189.777344 210.328125 C 189.738281 210.34375 189.691406 210.351562 189.65625 210.351562 Z M 189.65625 210.351562 "/>
<path style=" stroke:none;fill-rule:nonzero;fill:rgb(23.137255%,9.803922%,32.941176%);fill-opacity:1;" d="M 130.34375 138.117188 C 124.847656 137.367188 119.300781 137.863281 113.910156 138.886719 C 114.296875 139.140625 114.671875 139.40625 115.046875 139.675781 C 120.339844 138.742188 125.75 138.359375 131.082031 139.222656 L 131.96875 139.367188 L 131.605469 138.539062 C 129.992188 134.820312 128.105469 131.21875 125.976562 127.761719 C 125.464844 127.527344 124.953125 127.324219 124.421875 127.144531 C 126.660156 130.65625 128.644531 134.324219 130.34375 138.117188 Z M 130.34375 138.117188 "/>
<path style=" stroke:none;fill-rule:nonzero;fill:rgb(23.137255%,9.803922%,32.941176%);fill-opacity:1;" d="M 106.746094 134.992188 C 107.265625 135.21875 107.769531 135.449219 108.28125 135.691406 C 113.386719 134.75 118.550781 134.136719 123.757812 133.894531 L 124.527344 133.855469 L 124.171875 133.171875 C 122.917969 130.765625 121.339844 128.519531 119.535156 126.46875 C 119.121094 126.484375 118.707031 126.511719 118.292969 126.558594 C 120.089844 128.503906 121.667969 130.65625 122.941406 132.953125 C 117.496094 133.261719 112.085938 133.945312 106.746094 134.992188 Z M 106.746094 134.992188 "/>
<path style=" stroke:none;fill-rule:nonzero;fill:rgb(23.137255%,9.803922%,32.941176%);fill-opacity:1;" d="M 144.242188 153.542969 C 137.96875 151.304688 131.261719 150.550781 124.667969 150.378906 C 124.910156 150.71875 125.15625 151.046875 125.40625 151.386719 C 131.96875 151.605469 138.605469 152.4375 144.761719 154.785156 L 145.628906 155.113281 L 145.417969 154.214844 C 144.011719 148.296875 142.125 142.492188 139.792969 136.878906 C 139.328125 136.636719 138.867188 136.382812 138.417969 136.125 C 140.824219 141.765625 142.777344 147.597656 144.242188 153.550781 Z M 144.242188 153.542969 "/>
<path style=" stroke:none;fill-rule:nonzero;fill:rgb(23.137255%,9.803922%,32.941176%);fill-opacity:1;" d="M 159.121094 165.917969 C 152.558594 165.039062 145.988281 166.546875 139.613281 168.089844 C 139.832031 168.375 140.050781 168.652344 140.265625 168.945312 C 146.632812 167.414062 153.195312 165.960938 159.648438 166.992188 L 160.324219 167.097656 L 156.714844 146.222656 C 156.332031 145.863281 155.941406 145.515625 155.535156 145.175781 L 159.121094 165.925781 Z M 159.121094 165.917969 "/>
<path style=" stroke:none;fill-rule:nonzero;fill:rgb(23.137255%,9.803922%,32.941176%);fill-opacity:1;" d="M 153.363281 161.738281 L 154.0625 161.917969 L 153.972656 161.203125 C 153.160156 154.507812 151.738281 147.882812 149.753906 141.433594 C 149.355469 141.230469 148.949219 141.050781 148.542969 140.855469 C 150.582031 147.296875 152.046875 153.914062 152.902344 160.609375 C 145.71875 158.835938 138.253906 157.941406 130.804688 157.925781 C 131.097656 158.257812 131.398438 158.589844 131.691406 158.917969 C 139.003906 159 146.324219 159.941406 153.363281 161.738281 Z M 153.363281 161.738281 "/>
<path style=" stroke:none;fill-rule:nonzero;fill:rgb(23.137255%,9.803922%,32.941176%);fill-opacity:1;" d="M 181.550781 198.960938 L 182.226562 199.359375 L 182.289062 198.578125 C 182.679688 193.4375 183.0625 188.289062 183.445312 183.140625 C 183.640625 180.457031 183.851562 177.636719 183.882812 174.789062 C 183.558594 174.5 183.226562 174.214844 182.898438 173.9375 C 182.90625 177.058594 182.6875 180.140625 182.46875 183.070312 C 182.109375 187.964844 181.746094 192.851562 181.371094 197.746094 C 178.402344 196.226562 174.96875 195.789062 171.914062 195.398438 C 166.335938 194.691406 160.625 193.984375 154.902344 193.867188 C 155.210938 194.195312 155.519531 194.535156 155.828125 194.867188 C 161.195312 195.039062 166.554688 195.707031 171.792969 196.367188 C 174.988281 196.773438 178.613281 197.234375 181.550781 198.953125 Z M 181.550781 198.960938 "/>
<path style=" stroke:none;fill-rule:nonzero;fill:rgb(23.137255%,9.803922%,32.941176%);fill-opacity:1;" d="M 152.078125 184.132812 C 154.886719 184.191406 157.796875 184.257812 160.570312 184.84375 C 163.390625 185.4375 166.042969 186.558594 168.742188 187.746094 C 171.320312 188.882812 173.914062 190.070312 176.449219 191.289062 L 177.054688 191.582031 L 177.148438 190.910156 C 178.140625 183.257812 176.855469 175.605469 175.507812 168.1875 C 175.109375 167.871094 174.71875 167.546875 174.335938 167.226562 L 174.335938 167.253906 C 175.703125 174.726562 177.109375 182.445312 176.253906 190.113281 C 173.90625 189.003906 171.515625 187.90625 169.132812 186.859375 C 166.382812 185.648438 163.675781 184.507812 160.765625 183.890625 C 157.902344 183.28125 154.949219 183.214844 152.09375 183.152344 L 147.542969 183.054688 C 147.6875 183.386719 147.835938 183.71875 147.988281 184.046875 L 152.070312 184.136719 Z M 152.078125 184.132812 "/>
<path style=" stroke:none;fill-rule:nonzero;fill:rgb(23.137255%,9.803922%,32.941176%);fill-opacity:1;" d="M 136.75 146.546875 L 137.53125 146.742188 L 137.351562 145.960938 C 136.253906 141.238281 134.710938 136.644531 132.773438 132.210938 C 132.230469 131.796875 131.691406 131.375 131.140625 130.96875 C 133.292969 135.601562 134.996094 140.433594 136.207031 145.402344 C 130.910156 144.175781 125.414062 143.785156 119.976562 144.214844 C 120.242188 144.523438 120.511719 144.824219 120.765625 145.140625 C 126.128906 144.792969 131.546875 145.253906 136.757812 146.546875 Z M 136.75 146.546875 "/>
<path style=" stroke:none;fill-rule:nonzero;fill:rgb(23.137255%,9.803922%,32.941176%);fill-opacity:1;" d="M 170.417969 177.679688 L 171.089844 177.875 L 171.050781 177.183594 C 170.75 171.78125 169.472656 166.457031 168.238281 161.308594 C 168.1875 161.105469 168.140625 160.894531 168.089844 160.683594 C 167.578125 160.03125 167.082031 159.371094 166.585938 158.699219 C 166.824219 159.648438 167.050781 160.59375 167.277344 161.535156 C 168.449219 166.421875 169.652344 171.464844 170.019531 176.546875 C 161.652344 174.246094 152.8125 173.90625 144.3125 175.480469 C 144.460938 175.78125 144.605469 176.085938 144.746094 176.394531 C 153.257812 174.863281 162.089844 175.277344 170.417969 177.679688 Z M 170.417969 177.679688 "/>
<path style=" stroke:none;fill-rule:nonzero;fill:rgb(23.137255%,9.803922%,32.941176%);fill-opacity:1;" d="M 196.8125 196.347656 C 196.269531 195.445312 195.773438 194.519531 195.300781 193.574219 C 194.203125 191.378906 191.054688 191.476562 190.136719 193.753906 C 189.046875 196.460938 187.933594 199.128906 185.617188 200.902344 C 183.175781 202.78125 179.875 203.148438 176.808594 202.871094 C 173.246094 202.546875 169.796875 201.464844 166.472656 200.140625 C 164.425781 199.332031 162.390625 198.429688 160.226562 198.066406 C 159.84375 198.007812 159.261719 197.941406 158.632812 197.910156 C 159.640625 199.039062 160.609375 200.195312 161.496094 201.421875 C 165.878906 207.488281 168.042969 214.957031 172.570312 220.917969 C 178.566406 228.820312 189.875 229.886719 199.132812 233.441406 C 202.035156 234.554688 205.1875 235.75 206.792969 238.40625 C 207.589844 239.726562 208.140625 241.644531 209.410156 242.515625 C 209.078125 231.722656 209.125 221.085938 209.441406 210.289062 C 204.789062 206.050781 200.058594 201.726562 196.8125 196.332031 Z M 196.8125 196.347656 "/>
<path style=" stroke:none;fill-rule:nonzero;fill:rgb(23.137255%,9.803922%,32.941176%);fill-opacity:1;" d="M 143.183594 291.445312 C 137.457031 292.277344 131.734375 293.273438 125.953125 293.445312 C 121.257812 293.585938 116.550781 293.1875 111.859375 293.511719 C 94.195312 294.722656 78.949219 305.789062 64.871094 316.53125 C 59.710938 320.460938 54.519531 324.453125 50.347656 329.421875 C 76.957031 320.792969 104.800781 314.800781 132.75 316.070312 C 141.636719 316.476562 150.460938 317.605469 159.316406 318.453125 C 171.386719 319.613281 183.527344 320.234375 195.648438 319.753906 C 201.050781 319.542969 206.726562 319.011719 211.199219 315.972656 C 215.671875 312.929688 218.332031 306.570312 215.566406 301.917969 C 212.777344 297.21875 205.351562 292.632812 200.609375 290.0625 C 196.570312 287.867188 192.578125 288.015625 188.09375 288.070312 C 173.042969 288.234375 158.089844 289.339844 143.191406 291.453125 Z M 143.183594 291.445312 "/>
<path style=" stroke:none;fill-rule:nonzero;fill:rgb(46.666667%,37.647059%,58.823529%);fill-opacity:1;" d="M 208.539062 231.691406 C 202.929688 227.167969 198.03125 221.617188 191.632812 218.304688 C 182.730469 213.695312 172.214844 214.019531 162.21875 213.246094 C 148.070312 212.140625 134.117188 208.597656 119.925781 208.523438 C 109.957031 208.472656 99.988281 210.140625 90.585938 213.441406 C 90.59375 213.457031 90.609375 213.46875 90.617188 213.484375 C 91.128906 213.515625 91.636719 213.554688 92.15625 213.589844 C 110.710938 208.246094 131.335938 210.492188 148.265625 219.777344 C 149.484375 220.445312 150.714844 221.160156 152.09375 221.402344 C 153.4375 221.632812 154.804688 221.386719 156.160156 221.207031 C 168.050781 219.597656 180.558594 223.210938 189.761719 230.925781 C 190.746094 231.75 191.753906 232.652344 193.007812 232.933594 C 193.925781 233.136719 194.878906 232.992188 195.8125 232.863281 C 200.675781 232.226562 205.636719 232.34375 210.472656 233.195312 C 209.816406 232.707031 209.171875 232.210938 208.53125 231.691406 Z M 208.539062 231.691406 "/>
<path style=" stroke:none;fill-rule:nonzero;fill:rgb(46.666667%,37.647059%,58.823529%);fill-opacity:1;" d="M 125.945312 293.445312 C 121.25 293.585938 116.542969 293.1875 111.851562 293.511719 C 95.042969 294.664062 80.421875 304.742188 66.921875 314.964844 C 71.6875 311.769531 76.792969 309.066406 82.121094 306.9375 C 86.445312 305.207031 90.953125 303.847656 95.59375 303.515625 C 99.34375 303.253906 103.132812 303.667969 106.859375 303.210938 C 112.03125 302.578125 116.882812 300.308594 122.039062 299.578125 C 125.339844 299.113281 128.691406 299.285156 132.003906 298.917969 C 135.800781 298.496094 139.46875 297.367188 143.125 296.253906 C 149.144531 294.414062 155.160156 292.566406 161.179688 290.722656 C 160.40625 290.273438 159.601562 289.917969 158.765625 289.625 C 153.566406 290.121094 148.371094 290.722656 143.183594 291.460938 C 137.457031 292.292969 131.734375 293.285156 125.953125 293.460938 Z M 125.945312 293.445312 "/>
<path style=" stroke:none;fill-rule:nonzero;fill:rgb(46.666667%,37.647059%,58.823529%);fill-opacity:1;" d="M 162.398438 290.390625 C 171.417969 287.167969 201.1875 287.289062 212.921875 298.644531 C 204.847656 286.304688 173.96875 280.65625 162.398438 290.390625 Z M 162.398438 290.390625 "/>
<path style=" stroke:none;fill-rule:nonzero;fill:rgb(23.137255%,9.803922%,32.941176%);fill-opacity:1;" d="M 211.019531 268.15625 C 222.316406 234.699219 224.761719 198.992188 227.121094 163.753906 C 227.382812 159.835938 227.234375 156.980469 227.390625 153.054688 C 227.984375 138.390625 217.378906 125.933594 212.296875 112.164062 C 209.996094 105.921875 208.792969 99.269531 205.839844 93.316406 C 204.207031 90.039062 202.058594 87.003906 200.878906 83.539062 C 200.230469 81.636719 199.894531 79.652344 199.375 77.710938 C 196.660156 67.570312 189.234375 59.484375 182.054688 51.824219 C 173.960938 43.191406 165.871094 34.554688 157.773438 25.925781 C 150.476562 18.136719 143.070312 10.269531 134.019531 4.617188 C 146.859375 27.519531 157.804688 50.777344 167.636719 75.125 C 169.945312 80.839844 172.171875 86.597656 173.921875 92.503906 C 176.238281 100.316406 177.71875 108.34375 179.34375 116.328125 C 184.613281 142.222656 191.488281 167.789062 199.910156 192.835938 C 207.976562 216.832031 207.214844 243.125 211.019531 268.148438 Z M 211.019531 268.15625 "/>
<path style=" stroke:none;fill-rule:nonzero;fill:rgb(23.137255%,9.803922%,32.941176%);fill-opacity:1;" d="M 211.019531 268.15625 C 222.316406 234.699219 224.761719 198.992188 227.121094 163.753906 C 227.382812 159.835938 227.234375 156.980469 227.390625 153.054688 C 227.984375 138.390625 217.378906 125.933594 212.296875 112.164062 C 209.996094 105.921875 208.792969 99.269531 205.839844 93.316406 C 204.207031 90.039062 202.058594 87.003906 200.878906 83.539062 C 200.230469 81.636719 199.894531 79.652344 199.375 77.710938 C 196.660156 67.570312 189.234375 59.484375 182.054688 51.824219 C 173.960938 43.191406 165.871094 34.554688 157.773438 25.925781 C 150.476562 18.136719 143.070312 10.269531 134.019531 4.617188 C 146.859375 27.519531 157.804688 50.777344 167.636719 75.125 C 169.945312 80.839844 172.171875 86.597656 173.921875 92.503906 C 176.238281 100.316406 177.71875 108.34375 179.34375 116.328125 C 184.613281 142.222656 191.488281 167.789062 199.910156 192.835938 C 207.976562 216.832031 207.214844 243.125 211.019531 268.148438 Z M 211.019531 268.15625 "/>
<path style=" stroke:none;fill-rule:nonzero;fill:rgb(46.666667%,37.647059%,58.823529%);fill-opacity:1;" d="M 223.632812 203.464844 C 223.460938 203.464844 223.308594 203.34375 223.265625 203.171875 C 221.949219 197.535156 220.714844 191.753906 219.523438 186.167969 C 215.140625 165.644531 210.605469 144.433594 201.121094 125.476562 C 200.644531 124.535156 200.164062 123.597656 199.683594 122.65625 C 197.976562 119.339844 196.203125 115.921875 195.03125 112.304688 C 194.074219 109.375 193.570312 106.292969 193.089844 103.316406 C 192.773438 101.375 192.453125 99.367188 192 97.421875 C 188.65625 82.964844 180.167969 70.316406 171.960938 58.085938 C 166.945312 50.613281 161.765625 42.890625 157.746094 34.773438 C 157.65625 34.585938 157.730469 34.359375 157.917969 34.269531 C 158.105469 34.179688 158.332031 34.253906 158.421875 34.441406 C 162.421875 42.515625 167.59375 50.222656 172.582031 57.671875 C 180.832031 69.960938 189.355469 82.671875 192.730469 97.261719 C 193.1875 99.234375 193.511719 101.246094 193.828125 103.203125 C 194.308594 106.148438 194.804688 109.199219 195.746094 112.078125 C 196.902344 115.636719 198.660156 119.03125 200.351562 122.316406 C 200.839844 123.257812 201.320312 124.199219 201.796875 125.144531 C 211.328125 144.191406 215.867188 165.449219 220.257812 186.019531 C 221.453125 191.601562 222.6875 197.375 223.996094 203.007812 C 224.039062 203.210938 223.917969 203.414062 223.714844 203.457031 C 223.6875 203.457031 223.65625 203.464844 223.632812 203.464844 Z M 223.632812 203.464844 "/>
<path style=" stroke:none;fill-rule:nonzero;fill:rgb(46.666667%,37.647059%,58.823529%);fill-opacity:1;" d="M 185.003906 79.027344 C 185.257812 79.078125 185.5 78.945312 185.582031 78.703125 C 186.136719 77.027344 186.820312 75.292969 187.535156 73.449219 C 188.992188 69.714844 190.476562 65.886719 191.128906 62.171875 C 190.859375 61.820312 190.582031 61.472656 190.292969 61.128906 C 189.761719 65.015625 188.175781 69.113281 186.617188 73.097656 C 185.957031 74.792969 185.324219 76.402344 184.792969 77.976562 C 178.460938 76.464844 173.085938 74.605469 167.40625 72.644531 C 167.097656 72.539062 166.789062 72.433594 166.480469 72.328125 C 166.644531 72.734375 166.8125 73.132812 166.976562 73.539062 C 167.011719 73.554688 167.042969 73.5625 167.082031 73.578125 C 172.921875 75.59375 178.433594 77.5 185.003906 79.035156 Z M 185.003906 79.027344 "/>
<path style=" stroke:none;fill-rule:nonzero;fill:rgb(46.666667%,37.647059%,58.823529%);fill-opacity:1;" d="M 179.144531 68.40625 C 173.433594 65.617188 167.554688 63.046875 161.617188 60.722656 C 161.796875 61.144531 161.976562 61.566406 162.15625 61.992188 C 168.003906 64.308594 173.777344 66.863281 179.394531 69.625 C 179.542969 69.699219 179.71875 69.691406 179.859375 69.601562 C 180.003906 69.519531 180.09375 69.359375 180.101562 69.195312 L 180.746094 50.433594 C 180.433594 50.09375 180.117188 49.753906 179.800781 49.417969 L 179.144531 68.398438 Z M 179.144531 68.40625 "/>
<path style=" stroke:none;fill-rule:nonzero;fill:rgb(46.666667%,37.647059%,58.823529%);fill-opacity:1;" d="M 190.796875 91.394531 C 190.941406 91.300781 191.03125 91.144531 191.039062 90.980469 C 191.078125 87.515625 192.453125 83.34375 193.664062 79.660156 C 193.984375 78.667969 194.300781 77.710938 194.578125 76.808594 C 194.976562 75.507812 195.4375 74.199219 195.886719 72.9375 C 196.144531 72.203125 196.40625 71.464844 196.660156 70.71875 C 196.457031 70.316406 196.242188 69.917969 196.023438 69.519531 C 195.683594 70.5625 195.324219 71.59375 194.960938 72.613281 C 194.511719 73.894531 194.046875 75.214844 193.640625 76.53125 C 193.367188 77.425781 193.054688 78.378906 192.730469 79.359375 C 191.585938 82.839844 190.292969 86.753906 190.082031 90.199219 C 185.210938 87.816406 179.605469 86.085938 173.410156 85.0625 C 172.824219 84.964844 172.230469 84.875 171.636719 84.785156 C 171.539062 84.769531 171.433594 84.753906 171.335938 84.738281 C 171.464844 85.085938 171.585938 85.4375 171.703125 85.792969 C 172.222656 85.867188 172.734375 85.949219 173.246094 86.03125 C 179.636719 87.09375 185.378906 88.90625 190.324219 91.414062 C 190.476562 91.492188 190.65625 91.484375 190.796875 91.398438 Z M 190.796875 91.394531 "/>
<path style=" stroke:none;fill-rule:nonzero;fill:rgb(46.666667%,37.647059%,58.823529%);fill-opacity:1;" d="M 173.882812 60.21875 C 174.003906 60.128906 174.070312 59.984375 174.070312 59.835938 C 174.109375 56.664062 174.328125 53.542969 174.546875 50.53125 C 174.695312 48.460938 174.839844 46.359375 174.929688 44.222656 C 174.613281 43.882812 174.296875 43.554688 173.988281 43.214844 C 173.90625 45.613281 173.742188 47.996094 173.570312 50.453125 C 173.367188 53.289062 173.164062 56.210938 173.101562 59.203125 C 167.585938 57.804688 162.722656 55.703125 158.074219 52.640625 C 158.316406 53.183594 158.5625 53.722656 158.804688 54.273438 C 163.332031 57.0625 168.089844 59 173.472656 60.308594 C 173.613281 60.347656 173.773438 60.308594 173.882812 60.21875 Z M 173.882812 60.21875 "/>
<path style=" stroke:none;fill-rule:nonzero;fill:rgb(46.666667%,37.647059%,58.823529%);fill-opacity:1;" d="M 221.996094 186.859375 C 213.800781 183.515625 205.003906 181.628906 196.15625 181.28125 C 196.261719 181.613281 196.359375 181.945312 196.464844 182.273438 C 205.238281 182.664062 213.953125 184.582031 222.054688 187.949219 C 222.105469 187.972656 222.160156 187.988281 222.21875 187.988281 C 222.414062 187.996094 222.605469 187.890625 222.695312 187.703125 C 223.664062 185.597656 224.738281 183.542969 225.886719 181.539062 C 225.941406 180.792969 226 180.058594 226.054688 179.3125 C 224.574219 181.75 223.21875 184.265625 222.003906 186.867188 Z M 221.996094 186.859375 "/>
<path style=" stroke:none;fill-rule:nonzero;fill:rgb(46.666667%,37.647059%,58.823529%);fill-opacity:1;" d="M 197.300781 117.054688 C 197.441406 116.996094 197.546875 116.875 197.585938 116.734375 C 199.773438 108.726562 202.789062 100.953125 206.269531 94.273438 C 206.125 93.957031 205.992188 93.640625 205.839844 93.332031 C 205.808594 93.273438 205.78125 93.21875 205.75 93.160156 C 202.1875 99.886719 199.074219 107.75 196.8125 115.875 C 191.894531 113.199219 186.183594 112.582031 181.710938 112.351562 C 180.628906 112.289062 179.550781 112.199219 178.476562 112.078125 C 178.546875 112.417969 178.613281 112.757812 178.679688 113.085938 C 179.671875 113.191406 180.65625 113.273438 181.65625 113.328125 C 186.191406 113.566406 192.015625 114.207031 196.871094 117.035156 C 197.007812 117.109375 197.164062 117.125 197.308594 117.0625 Z M 197.300781 117.054688 "/>
<path style=" stroke:none;fill-rule:nonzero;fill:rgb(46.666667%,37.647059%,58.823529%);fill-opacity:1;" d="M 213.46875 160.859375 C 213.605469 160.8125 213.71875 160.714844 213.777344 160.578125 C 216.964844 152.941406 220.226562 145.109375 224.421875 137.824219 C 224.273438 137.441406 224.113281 137.050781 223.957031 136.667969 C 219.648438 144.019531 216.328125 151.929688 213.101562 159.664062 C 205.335938 154.828125 196.414062 152.640625 187.542969 151.433594 C 187.632812 151.777344 187.722656 152.117188 187.8125 152.460938 C 196.632812 153.695312 205.457031 155.917969 213.070312 160.796875 C 213.191406 160.875 213.34375 160.894531 213.484375 160.851562 Z M 213.46875 160.859375 "/>
<path style=" stroke:none;fill-rule:nonzero;fill:rgb(46.666667%,37.647059%,58.823529%);fill-opacity:1;" d="M 193.773438 99.171875 C 196.375 94.8125 199.140625 90.5 202.027344 86.296875 C 201.863281 85.949219 201.707031 85.605469 201.554688 85.257812 C 198.617188 89.519531 195.796875 93.886719 193.144531 98.324219 C 186.902344 95.96875 180.484375 94.089844 173.96875 92.691406 C 174.070312 93.054688 174.171875 93.414062 174.273438 93.769531 C 180.703125 95.171875 187.03125 97.054688 193.179688 99.390625 C 193.40625 99.480469 193.65625 99.390625 193.773438 99.179688 Z M 193.773438 99.171875 "/>
<path style=" stroke:none;fill-rule:nonzero;fill:rgb(46.666667%,37.647059%,58.823529%);fill-opacity:1;" d="M 216.921875 173.816406 C 217.027344 173.976562 217.222656 174.058594 217.410156 174.027344 C 217.597656 173.996094 217.753906 173.855469 217.800781 173.667969 C 219.3125 167.730469 222.046875 162.121094 224.707031 156.65625 C 225.589844 154.851562 226.488281 153.023438 227.398438 151.199219 C 227.382812 150.539062 227.347656 149.882812 227.292969 149.230469 C 226.105469 151.574219 224.941406 153.925781 223.804688 156.265625 C 221.28125 161.445312 218.671875 166.789062 217.101562 172.464844 C 214.566406 169.621094 210.304688 168.945312 206.441406 168.539062 L 191.835938 167.015625 C 191.933594 167.351562 192.039062 167.691406 192.136719 168.035156 L 206.34375 169.523438 C 210.328125 169.9375 214.753906 170.652344 216.921875 173.832031 Z M 216.921875 173.816406 "/>
<path style=" stroke:none;fill-rule:nonzero;fill:rgb(46.666667%,37.647059%,58.823529%);fill-opacity:1;" d="M 184.152344 138 C 184.234375 138.335938 184.316406 138.675781 184.402344 139.019531 C 192.851562 140.066406 201.390625 141.996094 209.539062 146.183594 C 209.667969 146.253906 209.816406 146.261719 209.945312 146.199219 C 210.078125 146.148438 210.175781 146.035156 210.222656 145.898438 C 212.441406 139.253906 215.539062 132.570312 218.792969 126.007812 C 218.605469 125.648438 218.417969 125.289062 218.230469 124.933594 C 214.9375 131.554688 211.765625 138.3125 209.472656 145.058594 C 201.222656 140.921875 192.632812 139.027344 184.144531 138 Z M 184.152344 138 "/>
<path style=" stroke:none;fill-rule:nonzero;fill:rgb(46.666667%,37.647059%,58.823529%);fill-opacity:1;" d="M 204.214844 131.089844 C 204.886719 130.730469 209.117188 119.792969 212.070312 111.507812 C 211.90625 111.042969 211.742188 110.578125 211.582031 110.101562 C 208.734375 118.144531 204.503906 128.519531 203.707031 130.160156 C 201.960938 129.976562 191.691406 127.941406 181.304688 125.617188 C 181.378906 125.972656 181.460938 126.316406 181.535156 126.671875 C 192.472656 129.128906 203.667969 131.375 204.214844 131.089844 Z M 204.214844 131.089844 "/>
<path style=" stroke:none;fill-rule:nonzero;fill:rgb(23.137255%,9.803922%,32.941176%);fill-opacity:1;" d="M 177.734375 258.746094 C 162.925781 254.289062 147.46875 252.417969 132.050781 251.222656 C 107.824219 249.339844 82.496094 249.28125 60.433594 259.476562 C 55.042969 261.960938 49.949219 265.03125 44.617188 267.636719 C 35.125 272.285156 24.410156 275.855469 17.976562 284.242188 C 31.042969 282.378906 44.105469 280.515625 57.171875 278.652344 C 66.457031 277.328125 75.785156 275.996094 85.160156 276.15625 C 93.503906 276.296875 101.777344 277.613281 109.988281 279.078125 C 121.121094 281.070312 132.203125 283.347656 143.222656 285.914062 C 162.488281 290.390625 181.703125 295.796875 199.367188 304.703125 C 206.089844 308.09375 212.558594 311.972656 218.898438 316.039062 C 223.128906 318.753906 228.089844 321.671875 232.863281 320.109375 C 244.3125 316.355469 241.140625 299.730469 234.8125 293.210938 C 224.910156 283.003906 213.101562 274.492188 200.472656 267.984375 C 193.195312 264.234375 185.574219 261.136719 177.726562 258.777344 Z M 177.734375 258.746094 "/>
<path style=" stroke:none;fill-rule:nonzero;fill:rgb(46.666667%,37.647059%,58.823529%);fill-opacity:1;" d="M 202.253906 258.984375 C 194.59375 251.753906 185.234375 246.558594 175.671875 242.132812 C 166.335938 237.808594 156.722656 234.132812 147.109375 230.464844 C 141.574219 228.355469 136.050781 226.242188 130.515625 224.128906 C 117.558594 219.183594 104.335938 214.175781 90.488281 213.46875 C 99.921875 210.148438 109.925781 208.464844 119.933594 208.515625 C 134.125 208.597656 148.070312 212.132812 162.226562 213.238281 C 172.222656 214.019531 182.730469 213.6875 191.640625 218.296875 C 198.039062 221.609375 202.929688 227.160156 208.546875 231.683594 C 218.320312 239.5625 230.269531 244.320312 240.285156 251.882812 C 242.019531 253.191406 243.726562 254.632812 244.765625 256.542969 C 245.613281 258.113281 245.960938 259.917969 246.035156 261.699219 C 246.375 269.554688 241 277.464844 233.414062 279.515625 C 227.265625 281.183594 220.558594 278.597656 216.65625 273.695312 C 212.378906 268.328125 207.367188 263.804688 202.261719 258.980469 Z M 202.253906 258.984375 "/>
<path style=" stroke:none;fill-rule:nonzero;fill:rgb(46.666667%,37.647059%,58.823529%);fill-opacity:1;" d="M 142.71875 252.183594 C 139.167969 251.816406 135.605469 251.5 132.050781 251.222656 C 107.824219 249.339844 82.496094 249.28125 60.433594 259.476562 C 55.042969 261.960938 49.949219 265.03125 44.617188 267.636719 C 36.175781 271.765625 26.792969 275.050781 20.285156 281.621094 C 22.515625 281.28125 25.261719 279.742188 26.757812 279.148438 C 30.761719 277.566406 34.824219 276.101562 38.890625 274.683594 C 47.03125 271.824219 55.246094 269.21875 63.5 266.722656 C 72.613281 263.976562 81.761719 261.382812 90.917969 258.789062 C 95.480469 257.496094 100.050781 256.203125 104.703125 255.289062 C 116.640625 252.941406 128.910156 253.128906 141.054688 252.429688 C 141.613281 252.402344 142.183594 252.339844 142.710938 252.191406 Z M 142.71875 252.183594 "/>
<path style=" stroke:none;fill-rule:nonzero;fill:rgb(46.666667%,37.647059%,58.823529%);fill-opacity:1;" d="M 64.101562 277.335938 C 60.472656 272.449219 56.449219 267.910156 52.074219 263.738281 C 51.765625 263.902344 51.464844 264.058594 51.15625 264.226562 C 55.546875 268.382812 59.578125 272.90625 63.214844 277.785156 C 63.589844 277.734375 63.960938 277.679688 64.335938 277.636719 C 64.261719 277.53125 64.175781 277.433594 64.101562 277.328125 Z M 64.101562 277.335938 "/>
<path style=" stroke:none;fill-rule:nonzero;fill:rgb(46.666667%,37.647059%,58.823529%);fill-opacity:1;" d="M 27.199219 276.238281 C 26.832031 276.464844 26.472656 276.695312 26.109375 276.9375 C 29.710938 278.058594 33.386719 279.582031 37.117188 281.507812 C 37.671875 281.425781 38.226562 281.347656 38.792969 281.265625 C 34.867188 279.160156 30.996094 277.484375 27.199219 276.246094 Z M 27.199219 276.238281 "/>
<path style=" stroke:none;fill-rule:nonzero;fill:rgb(46.666667%,37.647059%,58.823529%);fill-opacity:1;" d="M 39.828125 269.878906 C 43.902344 272.894531 47.84375 276.078125 51.644531 279.433594 L 52.925781 279.253906 C 49.046875 275.800781 45.007812 272.523438 40.84375 269.417969 C 40.503906 269.578125 40.167969 269.726562 39.828125 269.886719 Z M 39.828125 269.878906 "/>
<path style=" stroke:none;fill-rule:nonzero;fill:rgb(46.666667%,37.647059%,58.823529%);fill-opacity:1;" d="M 91.058594 272.320312 C 88.390625 267.539062 85.625 262.601562 81.886719 258.484375 C 80.789062 257.273438 79.589844 256.113281 78.429688 254.988281 C 77.996094 254.566406 77.558594 254.136719 77.121094 253.710938 C 76.746094 253.800781 76.378906 253.898438 76.011719 253.988281 C 76.589844 254.558594 77.167969 255.128906 77.746094 255.6875 C 78.894531 256.796875 80.085938 257.949219 81.160156 259.128906 C 84.828125 263.164062 87.554688 268.058594 90.203125 272.789062 C 90.894531 274.027344 91.59375 275.277344 92.316406 276.523438 C 92.714844 276.5625 93.117188 276.597656 93.515625 276.636719 C 92.675781 275.199219 91.855469 273.75 91.050781 272.3125 Z M 91.058594 272.320312 "/>
<path style=" stroke:none;fill-rule:nonzero;fill:rgb(46.666667%,37.647059%,58.823529%);fill-opacity:1;" d="M 147.226562 285.828125 C 141.386719 274.816406 136.628906 263.226562 132.996094 251.296875 C 132.683594 251.273438 132.367188 251.242188 132.058594 251.222656 C 132.019531 251.222656 131.984375 251.222656 131.945312 251.214844 C 135.605469 263.339844 140.441406 275.109375 146.371094 286.296875 C 146.4375 286.429688 146.515625 286.558594 146.589844 286.6875 C 147.03125 286.792969 147.46875 286.898438 147.914062 287.003906 C 147.6875 286.632812 147.460938 286.242188 147.242188 285.828125 Z M 147.226562 285.828125 "/>
<path style=" stroke:none;fill-rule:nonzero;fill:rgb(46.666667%,37.647059%,58.823529%);fill-opacity:1;" d="M 61.402344 259.039062 C 66.289062 264.570312 70.84375 270.398438 75.015625 276.484375 C 75.402344 276.457031 75.777344 276.433594 76.160156 276.410156 C 71.933594 270.203125 67.3125 264.253906 62.34375 258.617188 C 62.027344 258.753906 61.71875 258.894531 61.402344 259.039062 Z M 61.402344 259.039062 "/>
<path style=" stroke:none;fill-rule:nonzero;fill:rgb(46.666667%,37.647059%,58.823529%);fill-opacity:1;" d="M 92.390625 251.117188 C 92.007812 251.152344 91.625 251.199219 91.238281 251.242188 C 91.953125 252.160156 92.652344 253.09375 93.320312 254.039062 C 98.613281 261.535156 102.507812 269.914062 105.957031 278.371094 C 106.34375 278.441406 106.71875 278.5 107.101562 278.5625 C 103.566406 269.855469 99.589844 261.21875 94.125 253.46875 C 93.5625 252.671875 92.984375 251.890625 92.390625 251.117188 Z M 92.390625 251.117188 "/>
<path style=" stroke:none;fill-rule:nonzero;fill:rgb(46.666667%,37.647059%,58.823529%);fill-opacity:1;" d="M 117.421875 250.378906 C 117.085938 250.371094 116.746094 250.355469 116.40625 250.347656 C 118.769531 262.691406 124.644531 274.375 133.140625 283.640625 C 133.695312 283.761719 134.261719 283.875 134.816406 283.996094 C 125.984375 274.765625 119.867188 262.917969 117.421875 250.378906 Z M 117.421875 250.378906 "/>
<path style=" stroke:none;fill-rule:nonzero;fill:rgb(46.666667%,37.647059%,58.823529%);fill-opacity:1;" d="M 153.542969 253.527344 C 153.195312 253.476562 152.851562 253.421875 152.503906 253.378906 C 155.054688 265.714844 157.820312 278.09375 160.78125 290.324219 C 161.144531 290.421875 161.503906 290.527344 161.863281 290.625 C 158.886719 278.351562 156.097656 265.917969 153.542969 253.527344 Z M 153.542969 253.527344 "/>
<path style=" stroke:none;fill-rule:nonzero;fill:rgb(46.666667%,37.647059%,58.823529%);fill-opacity:1;" d="M 103.167969 250.363281 C 102.824219 250.378906 102.484375 250.386719 102.140625 250.402344 C 106.3125 262.519531 111.039062 272.207031 116.761719 280.320312 C 117.226562 280.410156 117.691406 280.492188 118.160156 280.582031 C 112.265625 272.433594 107.417969 262.675781 103.164062 250.363281 Z M 103.167969 250.363281 "/>
<path style=" stroke:none;fill-rule:nonzero;fill:rgb(23.137255%,9.803922%,32.941176%);fill-opacity:1;" d="M 159.84375 238.789062 C 145.03125 234.328125 129.578125 232.457031 114.160156 231.261719 C 89.933594 229.382812 64.605469 229.324219 42.542969 239.515625 C 37.152344 242.003906 32.054688 245.070312 26.726562 247.679688 C 17.234375 252.324219 6.519531 255.898438 0.0859375 264.285156 C 13.152344 262.421875 26.214844 260.558594 39.28125 258.691406 C 48.5625 257.371094 57.894531 256.039062 67.265625 256.199219 C 75.613281 256.339844 83.886719 257.65625 92.097656 259.121094 C 103.230469 261.113281 114.308594 263.390625 125.332031 265.953125 C 144.597656 270.433594 163.8125 275.839844 181.476562 284.746094 C 188.195312 288.136719 194.667969 292.015625 201.007812 296.082031 C 205.238281 298.796875 210.199219 301.714844 214.972656 300.148438 C 226.421875 296.398438 223.25 279.769531 216.921875 273.253906 C 207.019531 263.046875 195.210938 254.535156 182.582031 248.027344 C 175.304688 244.273438 167.683594 241.179688 159.835938 238.816406 Z M 159.84375 238.789062 "/>
<path style=" stroke:none;fill-rule:nonzero;fill:rgb(46.666667%,37.647059%,58.823529%);fill-opacity:1;" d="M 124.828125 232.226562 C 121.277344 231.855469 117.714844 231.542969 114.160156 231.261719 C 89.933594 229.382812 64.605469 229.324219 42.542969 239.515625 C 37.152344 242.003906 32.054688 245.070312 26.726562 247.679688 C 18.285156 251.808594 8.902344 255.09375 2.394531 261.664062 C 4.625 261.324219 7.371094 259.78125 8.867188 259.1875 C 12.871094 257.609375 16.933594 256.144531 21 254.722656 C 29.140625 251.867188 37.355469 249.257812 45.609375 246.761719 C 54.722656 244.019531 63.871094 241.425781 73.027344 238.832031 C 77.589844 237.539062 82.160156 236.246094 86.8125 235.328125 C 98.75 232.984375 111.019531 233.171875 123.164062 232.472656 C 123.722656 232.441406 124.292969 232.382812 124.820312 232.234375 Z M 124.828125 232.226562 "/>
<path style=" stroke:none;fill-rule:nonzero;fill:rgb(46.666667%,37.647059%,58.823529%);fill-opacity:1;" d="M 46.203125 257.378906 C 42.574219 252.492188 38.550781 247.949219 34.175781 243.777344 C 33.867188 243.945312 33.566406 244.101562 33.257812 244.269531 C 37.648438 248.425781 41.679688 252.949219 45.316406 257.828125 C 45.691406 257.777344 46.0625 257.722656 46.4375 257.679688 C 46.363281 257.574219 46.277344 257.476562 46.203125 257.371094 Z M 46.203125 257.378906 "/>
<path style=" stroke:none;fill-rule:nonzero;fill:rgb(46.666667%,37.647059%,58.823529%);fill-opacity:1;" d="M 9.308594 256.28125 C 8.941406 256.503906 8.582031 256.738281 8.21875 256.980469 C 11.820312 258.097656 15.496094 259.625 19.222656 261.550781 C 19.78125 261.464844 20.335938 261.390625 20.902344 261.308594 C 16.976562 259.203125 13.105469 257.527344 9.308594 256.289062 Z M 9.308594 256.28125 "/>
<path style=" stroke:none;fill-rule:nonzero;fill:rgb(46.666667%,37.647059%,58.823529%);fill-opacity:1;" d="M 21.9375 249.921875 C 26.011719 252.933594 29.953125 256.121094 33.753906 259.476562 L 35.035156 259.292969 C 31.15625 255.84375 27.117188 252.566406 22.953125 249.460938 C 22.613281 249.621094 22.277344 249.769531 21.9375 249.929688 Z M 21.9375 249.921875 "/>
<path style=" stroke:none;fill-rule:nonzero;fill:rgb(46.666667%,37.647059%,58.823529%);fill-opacity:1;" d="M 73.167969 252.363281 C 70.5 247.582031 67.734375 242.644531 63.996094 238.523438 C 62.898438 237.3125 61.695312 236.15625 60.539062 235.027344 C 60.101562 234.609375 59.667969 234.179688 59.230469 233.75 C 58.855469 233.839844 58.488281 233.9375 58.117188 234.03125 C 58.699219 234.601562 59.277344 235.171875 59.855469 235.726562 C 61.003906 236.839844 62.191406 237.992188 63.269531 239.171875 C 66.9375 243.207031 69.664062 248.101562 72.3125 252.828125 C 73.003906 254.070312 73.703125 255.316406 74.421875 256.566406 C 74.820312 256.601562 75.226562 256.640625 75.625 256.679688 C 74.785156 255.242188 73.964844 253.792969 73.160156 252.355469 Z M 73.167969 252.363281 "/>
<path style=" stroke:none;fill-rule:nonzero;fill:rgb(46.666667%,37.647059%,58.823529%);fill-opacity:1;" d="M 129.335938 265.871094 C 123.496094 254.859375 118.738281 243.269531 115.105469 231.339844 C 114.792969 231.316406 114.476562 231.285156 114.167969 231.261719 C 114.128906 231.261719 114.09375 231.261719 114.054688 231.253906 C 117.714844 243.378906 122.550781 255.152344 128.480469 266.335938 C 128.546875 266.472656 128.621094 266.601562 128.699219 266.730469 C 129.140625 266.832031 129.578125 266.9375 130.019531 267.042969 C 129.796875 266.675781 129.570312 266.285156 129.351562 265.871094 Z M 129.335938 265.871094 "/>
<path style=" stroke:none;fill-rule:nonzero;fill:rgb(46.666667%,37.647059%,58.823529%);fill-opacity:1;" d="M 43.511719 239.082031 C 48.398438 244.613281 52.953125 250.4375 57.125 256.527344 C 57.511719 256.496094 57.886719 256.476562 58.269531 256.453125 C 54.042969 250.242188 49.421875 244.296875 44.453125 238.660156 C 44.136719 238.796875 43.828125 238.9375 43.511719 239.082031 Z M 43.511719 239.082031 "/>
<path style=" stroke:none;fill-rule:nonzero;fill:rgb(46.666667%,37.647059%,58.823529%);fill-opacity:1;" d="M 74.492188 231.15625 C 74.109375 231.195312 73.722656 231.242188 73.339844 231.285156 C 74.054688 232.203125 74.753906 233.136719 75.421875 234.082031 C 80.714844 241.578125 84.609375 249.957031 88.058594 258.414062 C 88.441406 258.484375 88.820312 258.542969 89.203125 258.601562 C 85.667969 249.898438 81.691406 241.261719 76.226562 233.511719 C 75.664062 232.714844 75.085938 231.933594 74.492188 231.15625 Z M 74.492188 231.15625 "/>
<path style=" stroke:none;fill-rule:nonzero;fill:rgb(46.666667%,37.647059%,58.823529%);fill-opacity:1;" d="M 99.523438 230.421875 C 99.183594 230.414062 98.847656 230.398438 98.507812 230.390625 C 100.871094 242.734375 106.746094 254.414062 115.242188 263.683594 C 115.796875 263.804688 116.363281 263.917969 116.917969 264.039062 C 108.085938 254.804688 101.96875 242.960938 99.523438 230.421875 Z M 99.523438 230.421875 "/>
<path style=" stroke:none;fill-rule:nonzero;fill:rgb(46.666667%,37.647059%,58.823529%);fill-opacity:1;" d="M 135.652344 233.570312 C 135.304688 233.519531 134.960938 233.464844 134.613281 233.421875 C 137.164062 245.757812 139.929688 258.136719 142.890625 270.367188 C 143.25 270.464844 143.613281 270.570312 143.972656 270.667969 C 140.996094 258.390625 138.207031 245.960938 135.652344 233.570312 Z M 135.652344 233.570312 "/>
<path style=" stroke:none;fill-rule:nonzero;fill:rgb(46.666667%,37.647059%,58.823529%);fill-opacity:1;" d="M 85.277344 230.40625 C 84.933594 230.421875 84.59375 230.429688 84.25 230.445312 C 88.421875 242.5625 93.148438 252.25 98.871094 260.363281 C 99.335938 260.453125 99.800781 260.535156 100.269531 260.625 C 94.375 252.476562 89.527344 242.71875 85.269531 230.40625 Z M 85.277344 230.40625 "/>
</g>
</svg>
