<?xml version="1.0" encoding="UTF-8"?>
<svg xmlns="http://www.w3.org/2000/svg" xmlns:xlink="http://www.w3.org/1999/xlink" width="520px" height="287px" viewBox="0 0 519 287" version="1.1">
<g id="surface1">
<path style=" stroke:none;fill-rule:nonzero;fill:rgb(25.882353%,50.196078%,42.745098%);fill-opacity:1;" d="M 225.425781 224.429688 C 208.15625 232.496094 190.179688 239.074219 171.789062 244.050781 C 166.917969 245.367188 161.941406 246.582031 156.90625 246.378906 C 156.308594 246.351562 155.648438 246.277344 155.261719 245.816406 C 154.410156 244.785156 155.796875 243.425781 156.980469 242.808594 C 173.917969 234.117188 190.179688 224.089844 205.546875 212.859375 C 205.8125 212.664062 206.117188 212.371094 205.996094 212.058594 C 205.875 211.746094 205.269531 212.113281 205.5625 212.261719 C 186 219.546875 165.726562 226.546875 144.855469 226.894531 C 144.265625 226.90625 143.605469 226.878906 143.230469 226.4375 C 142.382812 225.460938 143.828125 224.164062 145.019531 223.683594 C 166.15625 215.285156 187.292969 206.878906 208.429688 198.480469 C 197.488281 199.097656 186.511719 199.316406 175.574219 199.933594 C 164.796875 200.542969 153.664062 201.09375 143.558594 197.292969 C 142.273438 196.804688 140.804688 195.96875 140.796875 194.589844 C 140.785156 192.933594 142.808594 192.160156 144.433594 191.859375 C 164 188.167969 183.859375 186.015625 203.765625 185.445312 C 203.664062 185.464844 204.121094 185.042969 204.019531 185.058594 C 201 185.59375 198.507812 184.160156 195.660156 183.019531 C 191.839844 181.492188 187.726562 180.921875 183.703125 180.066406 C 172.761719 177.738281 162.308594 173.148438 153.175781 166.679688 C 150.285156 164.628906 147.4375 162.285156 145.867188 159.101562 C 166.195312 158.28125 186.714844 162.789062 204.828125 172.0625 C 197.003906 164.960938 186.863281 160.847656 178.945312 153.847656 C 174.128906 149.589844 170.273438 144.375 166.449219 139.203125 C 163.859375 135.691406 161.261719 132.1875 158.671875 128.671875 C 156.917969 126.296875 155.117188 123.824219 154.480469 120.933594 C 156.328125 119.941406 158.476562 121.46875 160.03125 122.875 C 171.449219 133.234375 183.792969 142.5625 196.882812 150.703125 C 201.136719 153.351562 205.527344 155.898438 210.324219 157.351562 C 196.921875 149.996094 187.332031 137.402344 178.144531 125.167969 C 174.984375 120.964844 171.835938 116.757812 168.675781 112.554688 C 166.40625 109.539062 164.007812 105.960938 164.863281 102.28125 C 179.992188 107.773438 188.664062 123.363281 201.0625 133.628906 C 206.683594 138.285156 213.253906 141.980469 217.597656 147.851562 C 207.28125 124.570312 189.875 104.121094 184.925781 79.136719 C 184.722656 78.105469 184.546875 77.003906 184.933594 76.027344 C 185.328125 75.050781 186.503906 74.316406 187.449219 74.777344 C 187.816406 74.960938 188.09375 75.292969 188.359375 75.613281 C 194.292969 82.925781 199.777344 90.605469 204.757812 98.601562 C 207.429688 102.898438 209.972656 107.304688 211.984375 111.949219 C 213.90625 116.363281 215.339844 120.980469 217.285156 125.386719 C 220.4375 132.554688 224.875 139.066406 229.28125 145.53125 C 229.390625 139.371094 228.308594 133.253906 227.234375 127.179688 C 224.277344 110.523438 221.316406 93.871094 218.359375 77.214844 C 217.875 74.464844 217.386719 71.613281 218.085938 68.917969 C 218.78125 66.210938 221.023438 63.699219 223.808594 63.628906 C 234.785156 89.550781 234.492188 118.773438 241.703125 145.992188 C 242.492188 135.644531 244.722656 124.0625 245.511719 113.714844 C 246.589844 99.605469 247.773438 85.097656 254.066406 72.421875 C 255.105469 70.324219 256.5625 68.078125 258.871094 67.664062 C 262.222656 75.695312 262.140625 84.691406 261.828125 93.394531 C 261.421875 104.765625 260.726562 116.152344 258.695312 127.335938 C 257.425781 134.339844 255.636719 141.449219 256.746094 148.46875 C 260.449219 139.269531 264.023438 130.804688 267.726562 121.605469 C 272.742188 109.144531 277.800781 96.578125 285.289062 85.429688 C 285.902344 84.507812 286.582031 83.5625 287.585938 83.101562 C 288.585938 82.640625 290 82.890625 290.449219 83.890625 C 290.699219 84.433594 290.617188 85.070312 290.515625 85.660156 C 288.972656 94.996094 284.398438 103.503906 280.613281 112.179688 C 274.796875 125.515625 270.765625 139.5625 266.75 153.554688 C 276.964844 135.195312 288.578125 118.894531 301.667969 102.464844 C 302.59375 101.296875 303.578125 100.101562 304.925781 99.464844 C 306.277344 98.832031 308.097656 98.960938 308.996094 100.144531 C 310.210938 101.746094 309.136719 104.019531 308.058594 105.710938 C 297.019531 123.015625 285.988281 140.316406 274.945312 157.621094 C 288.0625 143.371094 302.136719 131.46875 317.4375 119.609375 C 319.835938 117.753906 322.445312 115.847656 325.46875 115.636719 C 325.9375 115.601562 326.441406 115.617188 326.835938 115.875 C 327.773438 116.492188 327.507812 117.925781 327.019531 118.9375 C 325.816406 121.433594 323.933594 123.519531 322.085938 125.570312 C 309.96875 138.984375 297.863281 152.40625 285.746094 165.816406 C 301.457031 153.371094 318.980469 143.546875 337.324219 135.507812 C 339.464844 134.566406 342.523438 133.953125 343.644531 136.003906 C 344.648438 137.84375 342.976562 139.96875 341.433594 141.382812 C 326.910156 154.695312 311.523438 167.046875 295.394531 178.355469 C 305.074219 175.308594 314.703125 174.113281 324.722656 172.496094 C 328.242188 171.925781 331.933594 171.453125 335.304688 172.613281 C 335.894531 172.816406 336.5 173.101562 336.800781 173.636719 C 337.511719 174.914062 336.058594 176.285156 334.800781 177.019531 C 306.828125 193.382812 276.992188 206.539062 246.054688 216.152344 C 238.890625 218.378906 232.222656 221.273438 225.414062 224.449219 Z M 225.425781 224.429688 "/>
<path style=" stroke:none;fill-rule:nonzero;fill:rgb(39.215686%,61.960784%,53.72549%);fill-opacity:1;" d="M 319.734375 247.316406 C 302.179688 247.289062 284.625 245.734375 267.339844 242.691406 C 262.765625 241.878906 258.136719 240.953125 254.019531 238.808594 C 253.53125 238.550781 253.007812 238.226562 252.871094 237.695312 C 252.558594 236.507812 254.25 235.902344 255.480469 235.863281 C 272.996094 235.238281 290.46875 233.242188 307.683594 229.886719 C 307.976562 229.828125 308.34375 229.703125 308.371094 229.398438 C 308.398438 229.09375 307.746094 229.160156 307.941406 229.398438 C 288.777344 227.816406 269.140625 225.71875 251.585938 217.84375 C 251.097656 217.625 250.558594 217.339844 250.410156 216.824219 C 250.089844 215.683594 251.789062 215.15625 252.972656 215.230469 C 273.878906 216.492188 294.785156 217.761719 315.703125 219.019531 C 306.332031 215.25 297.09375 211.136719 287.730469 207.367188 C 278.507812 203.660156 269 199.757812 262.058594 192.640625 C 261.175781 191.730469 260.273438 190.449219 260.808594 189.300781 C 261.441406 187.910156 263.433594 188.058594 264.90625 188.445312 C 282.671875 193.027344 300.066406 199.003906 316.898438 206.316406 C 316.804688 206.289062 317.355469 206.125 317.265625 206.097656 C 314.535156 205.363281 313.019531 203.191406 311.089844 201.121094 C 308.5 198.351562 305.285156 196.265625 302.273438 193.984375 C 294.0625 187.753906 287.125 179.84375 282.035156 170.875 C 280.417969 168.03125 278.960938 164.960938 278.894531 161.695312 C 296.171875 168.960938 311.53125 180.765625 323.023438 195.582031 C 319.277344 186.597656 312.414062 179.199219 308.539062 170.257812 C 306.1875 164.824219 305 158.964844 303.835938 153.148438 C 303.042969 149.203125 302.246094 145.257812 301.457031 141.320312 C 300.921875 138.652344 300.378906 135.882812 300.988281 133.226562 C 302.914062 133.113281 304.109375 135.230469 304.855469 137.015625 C 310.328125 150.125 316.996094 162.734375 324.730469 174.648438 C 327.25 178.519531 329.914062 182.363281 333.347656 185.457031 C 325.042969 174.078125 321.957031 159.808594 319.066406 146.019531 C 318.074219 141.273438 317.082031 136.535156 316.089844 131.789062 C 315.371094 128.386719 314.773438 124.46875 316.925781 121.726562 C 327.394531 132.230469 328.542969 148.632812 334.882812 162.042969 C 337.757812 168.125 341.789062 173.78125 343.132812 180.378906 C 343.609375 156.921875 337.070312 133.050781 342.699219 110.273438 C 342.929688 109.335938 343.214844 108.34375 343.921875 107.6875 C 344.628906 107.035156 345.898438 106.878906 346.503906 107.632812 C 346.742188 107.929688 346.84375 108.316406 346.933594 108.683594 C 349.039062 117.101562 350.609375 125.65625 351.636719 134.273438 C 352.1875 138.910156 352.59375 143.574219 352.464844 148.238281 C 352.34375 152.671875 351.738281 157.085938 351.636719 161.519531 C 351.472656 168.730469 352.628906 175.898438 353.777344 183.019531 C 356.277344 177.921875 357.765625 172.394531 359.234375 166.902344 C 363.265625 151.851562 367.300781 136.804688 371.332031 121.746094 C 371.992188 119.261719 372.710938 116.695312 374.34375 114.71875 C 375.980469 112.738281 378.828125 111.515625 381.179688 112.546875 C 380.214844 138.46875 368.566406 162.726562 363.964844 188.25 C 368.667969 179.925781 375.042969 171.140625 379.746094 162.816406 C 386.148438 151.476562 392.808594 139.828125 402.996094 131.714844 C 404.6875 130.375 406.78125 129.078125 408.855469 129.628906 C 408.527344 137.640625 404.933594 145.109375 401.289062 152.246094 C 396.511719 161.574219 391.484375 170.800781 385.421875 179.339844 C 381.628906 184.683594 377.367188 189.90625 375.558594 196.199219 C 382.234375 189.972656 388.519531 184.316406 395.195312 178.097656 C 404.246094 169.660156 413.375 161.160156 423.96875 154.796875 C 424.839844 154.273438 425.777344 153.746094 426.785156 153.757812 C 427.796875 153.765625 428.882812 154.519531 428.871094 155.542969 C 428.871094 156.09375 428.550781 156.582031 428.238281 157.039062 C 423.304688 164.226562 416.167969 169.53125 409.628906 175.28125 C 399.570312 184.128906 390.722656 194.269531 381.914062 204.367188 C 397.605469 193.054688 413.652344 183.992188 430.984375 175.417969 C 432.214844 174.8125 433.5 174.195312 434.871094 174.195312 C 436.238281 174.195312 437.71875 175.015625 438.003906 176.359375 C 438.390625 178.171875 436.605469 179.640625 435.046875 180.636719 C 419.089844 190.746094 403.125 200.863281 387.167969 210.972656 C 403.675781 204.222656 420.054688 199.804688 437.453125 195.894531 C 440.179688 195.28125 443.09375 194.71875 445.699219 195.722656 C 446.105469 195.878906 446.519531 196.089844 446.746094 196.457031 C 447.289062 197.339844 446.507812 198.433594 445.710938 199.085938 C 443.734375 200.699219 441.347656 201.699219 439.003906 202.695312 C 423.664062 209.140625 408.324219 215.589844 392.984375 222.039062 C 410.941406 217.808594 429.394531 216.464844 447.839844 216.941406 C 449.992188 216.996094 452.78125 217.679688 452.921875 219.820312 C 453.039062 221.753906 450.816406 222.867188 448.972656 223.4375 C 431.664062 228.855469 414 233.132812 396.144531 236.261719 C 405.410156 237.511719 413.898438 240.28125 422.890625 242.847656 C 426.050781 243.746094 429.3125 244.804688 431.675781 247.085938 C 432.085938 247.480469 432.480469 247.960938 432.519531 248.53125 C 432.609375 249.875 430.867188 250.453125 429.523438 250.574219 C 399.808594 253.277344 369.789062 252.570312 340.230469 248.484375 C 333.375 247.539062 326.6875 247.34375 319.773438 247.335938 Z M 319.734375 247.316406 "/>
<path style=" stroke:none;fill-rule:nonzero;fill:rgb(39.215686%,61.960784%,53.72549%);fill-opacity:1;" d="M 52.75 191.507812 C 28.792969 191.460938 4.835938 189.347656 -18.761719 185.1875 C -25 184.085938 -31.320312 182.816406 -36.941406 179.882812 C -37.601562 179.53125 -38.320312 179.089844 -38.511719 178.363281 C -38.933594 176.746094 -36.628906 175.917969 -34.957031 175.859375 C -11.046875 175.015625 12.800781 172.28125 36.289062 167.703125 C 36.691406 167.617188 37.195312 167.445312 37.226562 167.03125 C 37.253906 166.617188 36.371094 166.707031 36.628906 167.03125 C 10.476562 164.867188 -16.328125 162.007812 -40.277344 151.265625 C -40.945312 150.960938 -41.683594 150.574219 -41.882812 149.867188 C -42.324219 148.300781 -40 147.59375 -38.382812 147.695312 C -9.851562 149.414062 18.6875 151.144531 47.21875 152.863281 C 34.433594 147.722656 21.828125 142.109375 9.042969 136.96875 C -3.542969 131.902344 -16.523438 126.582031 -25.992188 116.871094 C -27.195312 115.636719 -28.417969 113.890625 -27.699219 112.316406 C -26.835938 110.421875 -24.117188 110.625 -22.105469 111.148438 C 2.136719 117.402344 25.890625 125.5625 48.855469 135.535156 C 48.726562 135.496094 49.480469 135.265625 49.351562 135.230469 C 45.621094 134.21875 43.5625 131.265625 40.925781 128.433594 C 37.398438 124.652344 33.007812 121.808594 28.882812 118.683594 C 17.675781 110.183594 8.214844 99.382812 1.269531 87.148438 C -0.933594 83.265625 -2.925781 79.082031 -3.007812 74.621094 C 20.570312 84.546875 41.523438 100.644531 57.214844 120.871094 C 52.097656 108.609375 42.726562 98.507812 37.445312 86.3125 C 34.230469 78.886719 32.613281 70.894531 31.023438 62.964844 C 29.941406 57.582031 28.855469 52.203125 27.773438 46.8125 C 27.039062 43.167969 26.3125 39.398438 27.128906 35.773438 C 29.765625 35.625 31.390625 38.515625 32.410156 40.953125 C 39.886719 58.84375 48.984375 76.054688 59.546875 92.308594 C 62.980469 97.597656 66.621094 102.839844 71.304688 107.054688 C 59.96875 91.527344 55.753906 72.0625 51.8125 53.234375 C 50.460938 46.757812 49.101562 40.289062 47.75 33.816406 C 46.777344 29.160156 45.953125 23.816406 48.890625 20.082031 C 63.183594 34.414062 64.746094 56.792969 73.398438 75.109375 C 77.320312 83.40625 82.832031 91.132812 84.652344 100.128906 C 85.304688 68.117188 76.382812 35.535156 84.054688 4.453125 C 84.375 3.164062 84.761719 1.820312 85.726562 0.917969 C 86.691406 0.0195312 88.425781 -0.183594 89.253906 0.847656 C 89.574219 1.25 89.710938 1.773438 89.839844 2.28125 C 92.707031 13.769531 94.847656 25.445312 96.261719 37.207031 C 97.015625 43.527344 97.566406 49.894531 97.382812 56.257812 C 97.21875 62.3125 96.390625 68.335938 96.253906 74.390625 C 96.023438 84.234375 97.601562 94.011719 99.175781 103.734375 C 102.582031 96.769531 104.613281 89.226562 106.613281 81.738281 C 112.117188 61.199219 117.628906 40.660156 123.128906 20.117188 C 124.039062 16.730469 125.003906 13.226562 127.238281 10.523438 C 129.46875 7.820312 133.355469 6.152344 136.570312 7.5625 C 135.257812 42.929688 119.363281 76.046875 113.070312 110.871094 C 119.484375 99.511719 128.191406 87.527344 134.605469 76.164062 C 143.347656 60.683594 152.425781 44.796875 166.332031 33.722656 C 168.636719 31.890625 171.492188 30.117188 174.332031 30.871094 C 173.875 41.800781 168.988281 52 164 61.734375 C 157.484375 74.453125 150.625 87.046875 142.355469 98.703125 C 137.183594 105.988281 131.351562 113.125 128.890625 121.71875 C 138.003906 113.226562 146.582031 105.5 155.695312 97.007812 C 168.039062 85.503906 180.496094 73.902344 194.953125 65.210938 C 196.140625 64.492188 197.417969 63.773438 198.804688 63.792969 C 200.191406 63.8125 201.667969 64.839844 201.640625 66.222656 C 201.632812 66.976562 201.199219 67.648438 200.777344 68.265625 C 194.046875 78.070312 184.308594 85.308594 175.378906 93.164062 C 161.648438 105.242188 149.585938 119.078125 137.5625 132.855469 C 158.964844 117.414062 180.871094 105.058594 204.527344 93.347656 C 206.207031 92.519531 207.960938 91.683594 209.835938 91.683594 C 211.710938 91.683594 213.722656 92.796875 214.105469 94.628906 C 214.640625 97.101562 212.207031 99.105469 210.074219 100.460938 C 188.296875 114.257812 166.515625 128.054688 144.726562 141.863281 C 167.25 132.644531 189.609375 126.621094 213.34375 121.285156 C 217.066406 120.449219 221.042969 119.675781 224.597656 121.046875 C 225.148438 121.257812 225.71875 121.550781 226.03125 122.058594 C 226.765625 123.253906 225.707031 124.753906 224.617188 125.644531 C 221.914062 127.835938 218.664062 129.214844 215.457031 130.558594 C 194.523438 139.359375 173.589844 148.164062 152.652344 156.96875 C 177.160156 151.191406 202.347656 149.359375 227.519531 150.011719 C 230.449219 150.085938 234.269531 151.015625 234.445312 153.949219 C 234.601562 156.582031 231.570312 158.097656 229.050781 158.890625 C 205.4375 166.277344 181.332031 172.125 156.953125 176.386719 C 169.601562 178.085938 181.183594 181.867188 193.457031 185.382812 C 197.765625 186.613281 202.222656 188.050781 205.445312 191.167969 C 206.003906 191.710938 206.546875 192.355469 206.601562 193.136719 C 206.730469 194.96875 204.34375 195.757812 202.515625 195.921875 C 161.960938 199.613281 120.992188 198.644531 80.644531 193.070312 C 71.296875 191.773438 62.164062 191.515625 52.730469 191.5 Z M 52.75 191.507812 "/>
<path style=" stroke:none;fill-rule:nonzero;fill:rgb(56.470588%,65.098039%,35.294118%);fill-opacity:1;" d="M -256.886719 286.199219 L 510.039062 285.8125 C 511.921875 285.390625 514.769531 283.273438 514.914062 281.34375 C 515.0625 279.410156 514.605469 277.480469 514.769531 275.558594 C 514.988281 273.109375 516.203125 270.894531 517 268.574219 C 519.222656 262.144531 518.09375 254.648438 514.078125 249.15625 C 513.261719 248.042969 512.335938 247.003906 511.671875 245.789062 C 510.902344 244.390625 510.515625 242.828125 510.15625 241.273438 C 508.570312 234.300781 507.394531 226.804688 502.691406 221.414062 C 501.761719 220.355469 500.722656 219.398438 499.785156 218.351562 C 498.683594 217.109375 497.738281 215.738281 496.800781 214.367188 C 495.09375 211.863281 493.410156 209.335938 491.738281 206.804688 C 491.160156 205.933594 490.574219 205.058594 489.996094 204.183594 C 488.460938 201.875 486.871094 199.511719 484.585938 197.964844 C 483.410156 197.164062 482.085938 196.613281 480.917969 195.824219 C 478.210938 193.984375 476.382812 190.929688 473.386719 189.585938 C 469.425781 187.808594 464.632812 189.585938 460.5625 188.078125 C 457.605469 186.980469 455.445312 184.296875 452.5 183.175781 C 449.863281 182.171875 446.738281 182.59375 444.46875 184.257812 C 440.996094 180.523438 435.835938 178.425781 430.746094 178.703125 C 427.652344 178.867188 424.582031 179.851562 421.496094 179.503906 C 419.015625 179.21875 416.699219 178.078125 414.230469 177.726562 C 411.757812 177.371094 408.800781 178.113281 407.808594 180.414062 C 400.644531 176.054688 391.339844 180.929688 383.082031 179.476562 C 380.792969 179.070312 378.339844 178.207031 376.265625 179.238281 C 374.851562 179.9375 373.921875 181.417969 372.472656 182.050781 C 369.722656 183.265625 366.519531 180.992188 363.597656 181.703125 C 361.4375 182.226562 359.941406 184.25 357.855469 185.03125 C 355.632812 185.859375 353.171875 185.144531 350.820312 184.820312 C 348.46875 184.5 345.621094 184.820312 344.445312 186.890625 C 342.425781 185.484375 339.980469 184.691406 337.519531 184.65625 C 336.324219 184.636719 335.140625 184.792969 333.945312 184.746094 C 332.253906 184.691406 330.601562 184.25 328.949219 183.863281 C 320.230469 181.820312 311.175781 181.289062 302.28125 182.289062 C 298.433594 179.347656 293.160156 180.292969 288.320312 180.339844 C 286.59375 180.359375 284.875 180.378906 283.148438 180.394531 C 280.886719 180.421875 278.621094 180.441406 276.386719 180.835938 C 274.285156 181.214844 272.1875 181.914062 270.058594 181.738281 C 265.851562 181.398438 261.855469 177.699219 257.914062 179.191406 C 256.4375 179.753906 255.222656 181.003906 253.660156 181.234375 C 252.265625 181.433594 250.90625 180.78125 249.546875 180.386719 C 244.273438 178.867188 238.734375 181.296875 233.257812 181.472656 C 229.347656 181.59375 225.480469 180.5625 221.566406 180.570312 C 217.652344 180.578125 213.328125 182.003906 211.582031 185.511719 C 208.15625 182.050781 202.746094 181.527344 197.902344 182.035156 C 193.0625 182.539062 188.230469 183.855469 183.390625 183.273438 C 180.027344 182.871094 176.792969 181.554688 173.414062 181.433594 C 170.035156 181.316406 166.175781 182.90625 165.292969 186.183594 C 160.066406 183.101562 153.234375 180.351562 148.289062 183.882812 C 147.363281 184.542969 146.5625 185.410156 145.535156 185.90625 C 141.757812 187.765625 135.851562 184.554688 133.675781 188.160156 C 126.484375 183.964844 115.304688 186.15625 107.277344 183.972656 C 103.445312 182.933594 99.910156 180.929688 96.042969 180.066406 C 92.164062 179.191406 87.542969 179.769531 85.164062 182.945312 C 80.886719 179.328125 73.628906 180.128906 70.238281 184.589844 C 65.160156 181.121094 58.332031 180.378906 52.621094 182.660156 C 51.09375 183.265625 49.625 184.085938 48 184.296875 C 46.042969 184.554688 44.097656 183.929688 42.128906 183.789062 C 37.621094 183.496094 33.367188 185.824219 28.894531 186.496094 C 26.515625 186.855469 24.089844 186.734375 21.671875 186.78125 C 13.984375 186.925781 6.332031 188.757812 -0.585938 192.125 C -11.046875 189.578125 -21.519531 187.027344 -31.980469 184.480469 C -36.363281 183.414062 -41.011719 182.355469 -45.300781 183.746094 C -45.804688 183.910156 -46.394531 184.25 -46.339844 184.773438 C -46.285156 185.300781 -45.191406 185.023438 -45.566406 184.644531 C -50.207031 179.953125 -58.804688 180.515625 -65.390625 180.617188 C -70.773438 180.699219 -76.164062 180.792969 -81.546875 180.875 C -85.71875 180.9375 -90.257812 181.140625 -93.417969 183.863281 C -98.164062 178.4375 -106.496094 176.515625 -113.128906 179.320312 C -114.296875 179.808594 -115.472656 180.441406 -116.730469 180.378906 C -117.804688 180.324219 -118.789062 179.769531 -119.761719 179.300781 C -126.667969 176.035156 -135.523438 177.480469 -141.042969 182.769531 C -142.128906 183.816406 -143.140625 185.015625 -144.507812 185.640625 C -146.511719 186.539062 -148.824219 186.027344 -151.019531 186.15625 C -154.667969 186.355469 -158.148438 188.527344 -159.957031 191.710938 C -166.058594 189.503906 -172.792969 189.0625 -179.128906 190.460938 C -178.375 188.785156 -179.277344 186.726562 -180.738281 185.613281 C -182.199219 184.5 -184.082031 184.140625 -185.910156 183.890625 C -190.289062 183.304688 -194.746094 183.210938 -199.15625 183.632812 C -201.605469 183.875 -204.132812 184.296875 -206.210938 185.628906 C -208.285156 186.964844 -209.808594 189.421875 -209.386719 191.859375 C -216.625 189.667969 -225.167969 195.152344 -226.207031 202.65625 C -229.992188 201.691406 -233.996094 204.0625 -236.109375 207.359375 C -238.222656 210.640625 -238.835938 214.652344 -239.277344 218.535156 C -246.359375 219.582031 -251.585938 227.503906 -249.785156 234.4375 C -254.617188 238.257812 -258.027344 243.921875 -258.15625 250.085938 C -258.183594 251.226562 -258.117188 252.402344 -258.550781 253.453125 C -258.945312 254.417969 -259.707031 255.171875 -260.324219 256.007812 C -263.519531 260.371094 -261.867188 267.433594 -257.0625 269.917969 C -261.785156 274.242188 -261.726562 282.023438 -256.878906 286.199219 Z M -256.886719 286.199219 "/>
<path style=" stroke:none;fill-rule:nonzero;fill:rgb(30.588235%,45.098039%,29.019608%);fill-opacity:1;" d="M 402.765625 235.773438 C 405.476562 236.527344 408.34375 236.398438 411.152344 236.1875 C 412.878906 236.058594 414.671875 235.882812 416.175781 235.027344 C 417.691406 234.179688 418.859375 232.46875 418.539062 230.757812 C 421.449219 233.417969 426.417969 233.378906 429.304688 230.683594 C 431.546875 233.621094 435.667969 234.960938 439.214844 233.90625 C 440.042969 233.65625 440.867188 233.289062 441.730469 233.371094 C 442.558594 233.445312 443.285156 233.921875 444 234.347656 C 448.0625 236.738281 453.003906 237.335938 457.585938 236.40625 C 460.5625 235.800781 467.800781 233.425781 467.902344 229.839844 C 466.855469 230.050781 459.371094 230.261719 459.644531 227.816406 C 459.433594 229.730469 457.46875 231.054688 455.558594 231.199219 C 453.644531 231.347656 451.78125 230.621094 450 229.894531 C 449.511719 229.703125 449.007812 229.488281 448.6875 229.066406 C 447.398438 227.382812 450.421875 224.707031 449.109375 223.03125 C 442.625 225.285156 435.714844 226.316406 428.855469 226.058594 C 425.464844 225.929688 421.632812 225.222656 419.816406 222.351562 C 417.777344 223.492188 416.792969 225.835938 415.296875 227.632812 C 413.796875 229.425781 410.847656 230.613281 409.242188 228.917969 C 406.210938 232.535156 400.332031 233.324219 396.457031 230.628906 C 397.503906 233.242188 400.074219 235.007812 402.785156 235.761719 Z M 402.765625 235.773438 "/>
<path style=" stroke:none;fill-rule:nonzero;fill:rgb(30.588235%,45.098039%,29.019608%);fill-opacity:1;" d="M 516.992188 268.574219 C 518.066406 265.449219 518.34375 262.082031 517.890625 258.804688 C 517.535156 258.871094 517.148438 258.960938 516.726562 259.144531 C 512.425781 260.96875 510.773438 264.582031 505.253906 264.234375 C 505.050781 265.945312 503.011719 266.929688 501.320312 266.644531 C 499.621094 266.359375 498.226562 265.207031 496.910156 264.09375 C 492.097656 265.191406 486.84375 264.132812 482.828125 261.261719 C 481.175781 264.351562 477.558594 266 474.058594 266.175781 C 470.558594 266.347656 467.132812 265.28125 463.824219 264.105469 C 458.046875 267.691406 449.660156 266.164062 445.507812 260.773438 C 439.960938 263.109375 432.859375 260.726562 429.835938 255.523438 C 419.832031 259.726562 407.25 256.550781 400.414062 248.125 C 400.480469 249.066406 399.121094 249.3125 398.199219 249.109375 C 393.5625 248.050781 389.65625 244.246094 388.472656 239.625 C 385.816406 240.132812 383.042969 237.648438 383.246094 234.953125 C 383.308594 237.457031 380.5 239.027344 378.019531 239.324219 C 372.074219 240.023438 365.894531 236.324219 363.691406 230.757812 C 365.140625 237.34375 370.460938 242.917969 376.964844 244.667969 C 378.128906 248.199219 380.710938 251.246094 384 252.972656 C 383.988281 253.386719 384.035156 253.792969 384.101562 254.199219 C 380.378906 255.429688 376.457031 257.433594 372.113281 256.414062 C 373.003906 260.296875 369.191406 264.464844 365.25 263.921875 C 363.875 267.167969 359.867188 268.722656 356.40625 268.113281 C 352.933594 267.507812 349.992188 265.164062 347.722656 262.46875 C 342.25 267.746094 332.640625 267.875 327.027344 262.753906 C 321.148438 266.910156 311.992188 265.246094 307.949219 259.273438 C 304.203125 263.257812 296.511719 261.996094 294.226562 257.03125 C 292.058594 259.015625 288.457031 258.566406 286.097656 256.820312 C 283.734375 255.070312 282.320312 252.347656 281 249.726562 C 280.546875 252.613281 278.417969 255.179688 275.660156 256.15625 C 272.90625 257.132812 269.636719 256.460938 267.476562 254.492188 C 264.417969 255.972656 260.441406 255.265625 258.078125 252.808594 C 254.855469 254.316406 250.878906 254.078125 247.847656 252.210938 C 244.816406 250.332031 242.832031 246.875 242.738281 243.316406 C 239.578125 244.84375 235.628906 243.5 233.121094 241.042969 C 230.605469 238.585938 229.207031 235.246094 227.867188 231.992188 C 228.023438 238.402344 231.007812 244.6875 235.878906 248.851562 C 236.53125 249.414062 237.246094 249.976562 237.511719 250.792969 C 237.695312 251.347656 237.640625 251.933594 237.578125 252.515625 C 233.1875 251.925781 229.007812 249.691406 226.304688 246.167969 C 224.578125 249.09375 219.214844 247.554688 217.433594 250.453125 C 216.972656 251.199219 216.863281 252.101562 216.488281 252.890625 C 215.347656 255.238281 212.050781 255.796875 209.660156 254.757812 C 207.273438 253.71875 205.582031 251.566406 204.003906 249.488281 C 201.144531 250.71875 197.773438 250.1875 195 248.789062 C 192.21875 247.390625 189.921875 245.230469 187.652344 243.085938 C 185.945312 247.796875 180.292969 249.507812 175.398438 250.574219 C 172.734375 251.152344 170.007812 251.742188 167.304688 251.429688 C 164.59375 251.117188 161.859375 249.726562 160.636719 247.289062 C 158.164062 249.367188 153.941406 248.769531 152.148438 246.085938 C 145.671875 250.085938 137.46875 251.125 130.183594 248.953125 C 130.183594 248.835938 128.726562 248.863281 128.714844 249.066406 C 121.441406 251.246094 113.238281 250.207031 106.753906 246.222656 C 104.960938 248.90625 100.734375 249.507812 98.265625 247.425781 C 97.042969 249.875 94.304688 251.261719 91.605469 251.574219 C 88.894531 251.898438 86.175781 251.308594 83.511719 250.730469 C 78.617188 249.664062 72.96875 247.96875 71.257812 243.25 C 69 245.386719 66.691406 247.554688 63.917969 248.953125 C 61.144531 250.351562 57.773438 250.894531 54.917969 249.664062 C 53.335938 251.742188 51.644531 253.894531 49.257812 254.941406 C 46.871094 255.980469 43.570312 255.429688 42.433594 253.085938 C 42.046875 252.300781 41.9375 251.390625 41.476562 250.648438 C 39.695312 247.757812 34.332031 249.292969 32.605469 246.371094 C 29.902344 249.890625 25.722656 252.136719 21.332031 252.726562 C 21.257812 252.144531 21.214844 251.558594 21.398438 251.003906 C 21.664062 250.1875 22.378906 249.625 23.03125 249.066406 C 27.890625 244.886719 30.867188 238.605469 31.023438 232.195312 C 29.691406 235.441406 28.285156 238.789062 25.777344 241.246094 C 23.269531 243.703125 19.320312 245.042969 16.160156 243.527344 C 16.070312 247.085938 14.085938 250.546875 11.0625 252.421875 C 8.042969 254.296875 4.0625 254.539062 0.832031 253.039062 C -1.53125 255.496094 -5.507812 256.210938 -8.566406 254.730469 C -10.726562 256.699219 -13.988281 257.371094 -16.75 256.40625 C -19.507812 255.4375 -21.648438 252.871094 -22.097656 249.984375 C -23.421875 252.613281 -24.835938 255.328125 -27.195312 257.085938 C -29.554688 258.84375 -33.148438 259.292969 -35.324219 257.304688 C -37.613281 262.273438 -45.292969 263.535156 -49.039062 259.558594 C -53.070312 265.53125 -62.230469 267.203125 -68.117188 263.054688 C -73.730469 268.1875 -83.339844 268.058594 -88.8125 262.789062 C -91.082031 265.492188 -94.023438 267.828125 -97.484375 268.445312 C -100.957031 269.0625 -104.953125 267.507812 -106.339844 264.261719 C -110.28125 264.8125 -114.09375 260.644531 -113.210938 256.765625 C -117.558594 257.785156 -121.488281 255.789062 -125.199219 254.554688 C -125.144531 254.152344 -125.089844 253.746094 -125.109375 253.332031 C -121.820312 251.59375 -119.246094 248.550781 -118.082031 245.015625 C -111.578125 243.261719 -106.265625 237.6875 -104.816406 231.097656 C -107.011719 236.671875 -113.195312 240.371094 -119.136719 239.683594 C -121.617188 239.386719 -124.425781 237.816406 -124.371094 235.3125 C -124.171875 238.007812 -126.945312 240.492188 -129.597656 239.996094 C -130.773438 244.613281 -134.671875 248.429688 -139.316406 249.488281 C -140.238281 249.699219 -141.597656 249.449219 -141.53125 248.511719 C -148.355469 256.957031 -160.941406 260.128906 -170.945312 255.945312 C -173.96875 261.160156 -181.066406 263.542969 -186.617188 261.214844 C -190.757812 266.617188 -199.144531 268.152344 -204.921875 264.5625 C -208.222656 265.742188 -211.65625 266.808594 -215.148438 266.644531 C -218.648438 266.476562 -222.265625 264.832031 -223.917969 261.742188 C -227.933594 264.609375 -233.1875 265.675781 -238 264.59375 C -239.316406 265.703125 -240.710938 266.863281 -242.410156 267.140625 C -244.109375 267.425781 -246.140625 266.441406 -246.351562 264.730469 C -251.871094 265.078125 -253.535156 261.472656 -257.832031 259.652344 C -258.257812 259.476562 -258.632812 259.375 -259 259.3125 C -259.441406 262.585938 -259.164062 265.953125 -258.082031 269.082031 C -257.28125 271.398438 -256.0625 273.617188 -255.839844 276.0625 C -255.664062 277.984375 -256.125 279.925781 -255.976562 281.847656 C -255.832031 283.769531 -252.984375 285.886719 -251.101562 286.308594 L 510.074219 285.8125 C 511.957031 285.390625 514.804688 283.273438 514.953125 281.34375 C 515.101562 279.421875 514.640625 277.480469 514.804688 275.558594 C 515.027344 273.109375 516.238281 270.894531 517.039062 268.574219 Z M 516.992188 268.574219 "/>
<path style=" stroke:none;fill-rule:nonzero;fill:rgb(30.588235%,45.098039%,29.019608%);fill-opacity:1;" d="M 181.636719 224.253906 C 182.691406 224.292969 183.757812 224.136719 184.785156 224.375 C 186.347656 224.734375 187.550781 225.949219 188.890625 226.820312 C 193.621094 229.902344 200.777344 228.230469 203.652344 223.363281 C 204.269531 224.753906 206.050781 225.304688 207.53125 224.953125 C 209.007812 224.613281 210.222656 223.585938 211.304688 222.527344 C 212.214844 221.632812 213.226562 220.640625 214.503906 220.613281 C 215.253906 220.59375 215.960938 220.933594 216.6875 221.144531 C 219.398438 221.964844 222.550781 220.980469 224.320312 218.773438 C 225.984375 223.042969 230.375 226.09375 234.949219 226.167969 C 239.523438 226.242188 244.007812 223.316406 245.796875 219.105469 C 246.699219 221.625 250.648438 222.277344 252.300781 220.171875 C 253.128906 219.121094 253.46875 217.585938 254.679688 217.035156 C 255.542969 216.648438 256.546875 216.914062 257.484375 217.007812 C 262.058594 217.46875 266.347656 212.601562 265.273438 208.140625 C 262.570312 214.523438 253.082031 213.667969 247.765625 211.414062 C 246.164062 213.789062 242.070312 214.6875 240.277344 211.921875 C 235.703125 214.210938 229.53125 212.535156 226.746094 208.242188 C 222.605469 214.503906 213.316406 216.65625 206.839844 212.847656 C 204.914062 215.570312 199.859375 214.742188 198.90625 211.542969 C 198.160156 215.773438 192.511719 218.222656 188.917969 215.875 C 187.359375 218.875 183.847656 220.484375 180.46875 220.503906 C 177.097656 220.519531 173.855469 219.1875 170.925781 217.503906 C 173.882812 220.6875 177.316406 224.089844 181.652344 224.246094 Z M 181.636719 224.253906 "/>
<path style=" stroke:none;fill-rule:nonzero;fill:rgb(30.588235%,45.098039%,29.019608%);fill-opacity:1;" d="M 262.65625 230.015625 C 264.601562 230.125 266.511719 229.425781 268.46875 229.425781 C 271.878906 229.417969 274.890625 231.46875 278.023438 232.820312 C 281.15625 234.171875 285.277344 234.648438 287.558594 232.109375 C 287.851562 234.421875 291.296875 235.515625 292.867188 233.792969 C 292.40625 235.835938 295.320312 236.765625 297.414062 236.757812 C 305.792969 236.71875 315.480469 236.046875 320.378906 229.242188 C 322.941406 232.625 328.40625 233.289062 331.695312 230.613281 C 334.121094 234.421875 340.457031 234.722656 343.234375 231.171875 C 349.5625 233.125 361.164062 233.417969 365.949219 228.183594 C 364.140625 226.832031 362.019531 225.882812 360.28125 224.375 C 358.023438 226.4375 355.128906 227.632812 352.023438 227.492188 C 351.324219 227.464844 343.691406 225.019531 344.621094 224.007812 C 342.582031 226.222656 338.300781 225.488281 337.113281 222.710938 C 334.882812 225.738281 330.207031 226.582031 327.054688 224.550781 C 332.863281 221.652344 335.296875 213.519531 332.042969 207.898438 C 330.355469 211.433594 328.222656 214.753906 325.722656 217.761719 C 324.539062 219.1875 323.171875 220.605469 321.371094 221.046875 C 319.570312 221.488281 317.320312 220.484375 317.082031 218.644531 C 314.847656 221.9375 308.582031 220.28125 308.261719 216.316406 C 303.382812 218.957031 301.015625 226.085938 295.476562 226.34375 C 291.847656 226.507812 288.804688 223.417969 285.195312 223.042969 C 280.484375 222.542969 276.617188 226.648438 272.078125 228.007812 C 267.714844 229.324219 263.023438 228.007812 258.703125 226.554688 C 258.539062 228.503906 260.6875 229.914062 262.636719 230.023438 Z M 262.65625 230.015625 "/>
<path style=" stroke:none;fill-rule:nonzero;fill:rgb(30.588235%,45.098039%,29.019608%);fill-opacity:1;" d="M 1.34375 217.253906 C 2.289062 217.164062 3.28125 216.886719 4.148438 217.28125 C 5.359375 217.824219 5.699219 219.371094 6.527344 220.417969 C 8.1875 222.515625 12.128906 221.875 13.027344 219.34375 C 14.820312 223.554688 19.304688 226.472656 23.878906 226.398438 C 28.453125 226.324219 32.832031 223.261719 34.496094 218.992188 C 36.269531 221.203125 39.421875 222.175781 42.128906 221.359375 C 42.847656 221.136719 43.5625 220.804688 44.316406 220.816406 C 45.59375 220.84375 46.601562 221.835938 47.511719 222.730469 C 48.597656 223.785156 49.820312 224.808594 51.296875 225.148438 C 52.777344 225.488281 54.558594 224.9375 55.175781 223.546875 C 58.058594 228.402344 65.203125 230.070312 69.933594 226.988281 C 71.277344 226.113281 72.480469 224.898438 74.042969 224.539062 C 75.070312 224.300781 76.136719 224.457031 77.191406 224.421875 C 81.527344 224.253906 84.953125 220.84375 87.914062 217.660156 C 84.992188 219.34375 81.75 220.6875 78.378906 220.667969 C 75.007812 220.648438 71.488281 219.039062 69.925781 216.050781 C 66.335938 218.40625 60.683594 215.96875 59.933594 211.726562 C 58.976562 214.929688 53.925781 215.757812 51.996094 213.042969 C 45.519531 216.859375 36.242188 214.714844 32.089844 208.453125 C 29.304688 212.746094 23.132812 214.429688 18.558594 212.148438 C 16.769531 214.929688 12.679688 214.027344 11.074219 211.652344 C 5.753906 213.917969 -3.734375 214.773438 -6.445312 208.398438 C -7.511719 212.859375 -3.21875 217.714844 1.355469 217.253906 Z M 1.34375 217.253906 "/>
<path style=" stroke:none;fill-rule:nonzero;fill:rgb(30.588235%,45.098039%,29.019608%);fill-opacity:1;" d="M -84.414062 231.496094 C -81.632812 235.046875 -75.292969 234.734375 -72.875 230.925781 C -69.578125 233.601562 -64.113281 232.9375 -61.558594 229.542969 C -56.644531 236.34375 -46.964844 237.003906 -38.585938 237.03125 C -36.492188 237.03125 -33.578125 236.113281 -34.039062 234.070312 C -32.46875 235.789062 -29.023438 234.6875 -28.738281 232.378906 C -26.460938 234.917969 -22.335938 234.429688 -19.203125 233.078125 C -16.070312 231.726562 -13.058594 229.671875 -9.652344 229.671875 C -7.703125 229.671875 -5.785156 230.371094 -3.835938 230.253906 C -1.886719 230.144531 0.261719 228.726562 0.09375 226.777344 C -4.222656 228.238281 -8.90625 229.554688 -13.277344 228.246094 C -17.816406 226.886719 -21.691406 222.792969 -26.40625 223.289062 C -30.015625 223.675781 -33.054688 226.765625 -36.683594 226.601562 C -42.222656 226.351562 -44.601562 219.214844 -49.480469 216.582031 C -49.792969 220.546875 -56.058594 222.214844 -58.300781 218.921875 C -58.539062 220.761719 -60.789062 221.761719 -62.589844 221.320312 C -64.390625 220.890625 -65.757812 219.464844 -66.941406 218.046875 C -69.449219 215.039062 -71.582031 211.71875 -73.273438 208.183594 C -76.515625 213.804688 -74.070312 221.9375 -68.265625 224.824219 C -71.417969 226.867188 -76.09375 226.023438 -78.324219 223.003906 C -79.5 225.78125 -83.78125 226.519531 -85.828125 224.300781 C -84.902344 225.3125 -92.535156 227.761719 -93.222656 227.796875 C -96.328125 227.945312 -99.222656 226.75 -101.480469 224.6875 C -103.207031 226.195312 -105.339844 227.144531 -107.140625 228.496094 C -102.34375 233.722656 -90.742188 233.417969 -84.414062 231.46875 Z M -84.414062 231.496094 "/>
<path style=" stroke:none;fill-rule:nonzero;fill:rgb(100%,86.666667%,47.45098%);fill-opacity:1;" d="M 493.789062 215.386719 C 493.394531 212.636719 491.675781 211.164062 489.332031 209.683594 C 486.992188 208.195312 484.355469 207.210938 482.039062 205.691406 C 481.359375 205.25 480.671875 204.746094 479.871094 204.664062 C 478.917969 204.570312 477.980469 205.105469 477.023438 205.03125 C 476.34375 204.976562 475.730469 204.625 475.121094 204.320312 C 472.183594 202.859375 468.738281 202.4375 465.53125 203.136719 C 463.375 197.332031 457.796875 192.941406 451.644531 192.234375 C 449.164062 191.949219 446.621094 192.207031 444.195312 191.628906 C 443.277344 191.40625 442.339844 191.058594 441.410156 191.230469 C 440.519531 191.398438 439.757812 192.023438 438.875 192.207031 C 437.460938 192.511719 436.082031 191.683594 434.722656 191.175781 C 431.703125 190.046875 428.117188 190.550781 425.527344 192.472656 C 423.113281 188.765625 418.554688 186.585938 414.164062 187.019531 C 413.230469 187.109375 412.292969 187.3125 411.355469 187.195312 C 410.042969 187.027344 408.902344 186.253906 407.71875 185.667969 C 403.941406 183.808594 399.292969 183.835938 395.546875 185.75 C 391.925781 183.339844 387.039062 182.980469 383.109375 184.828125 C 379.753906 183.910156 376.339844 186.253906 375.117188 189.519531 C 369.347656 189.199219 363.5625 192.804688 361.300781 198.132812 C 357.984375 194.609375 352.710938 193.0625 348.019531 194.238281 C 341.449219 190.164062 334.203125 187.175781 326.679688 185.4375 C 327.339844 184.875 328.039062 184.351562 328.71875 183.816406 C 328.800781 183.835938 328.875 183.84375 328.957031 183.863281 C 330.609375 184.25 332.265625 184.691406 333.953125 184.746094 C 335.148438 184.785156 336.335938 184.636719 337.527344 184.65625 C 339.988281 184.691406 342.433594 185.484375 344.453125 186.890625 C 345.640625 184.828125 348.476562 184.5 350.828125 184.820312 C 353.179688 185.144531 355.644531 185.871094 357.867188 185.03125 C 359.949219 184.25 361.4375 182.226562 363.605469 181.703125 C 366.527344 180.992188 369.734375 183.265625 372.480469 182.050781 C 373.921875 181.417969 374.851562 179.9375 376.273438 179.238281 C 378.351562 178.207031 380.800781 179.082031 383.089844 179.476562 C 391.347656 180.929688 400.664062 176.054688 407.816406 180.414062 C 408.808594 178.125 411.769531 177.378906 414.238281 177.726562 C 416.710938 178.085938 419.023438 179.226562 421.503906 179.503906 C 424.589844 179.851562 427.660156 178.867188 430.753906 178.703125 C 435.84375 178.4375 441.007812 180.523438 444.480469 184.257812 C 446.746094 182.59375 449.871094 182.171875 452.507812 183.175781 C 455.457031 184.296875 457.613281 186.980469 460.574219 188.078125 C 464.640625 189.585938 469.4375 187.808594 473.394531 189.585938 C 476.382812 190.917969 478.21875 193.984375 480.929688 195.824219 C 482.105469 196.621094 483.425781 197.175781 484.59375 197.964844 C 486.878906 199.519531 488.46875 201.882812 490.003906 204.183594 C 490.582031 205.058594 491.171875 205.933594 491.75 206.804688 C 493.429688 209.335938 495.101562 211.855469 496.8125 214.367188 C 497.378906 215.203125 497.96875 216.023438 498.574219 216.824219 C 497.105469 215.941406 495.507812 215.351562 493.796875 215.386719 Z M 493.789062 215.386719 "/>
<path style=" stroke:none;fill-rule:nonzero;fill:rgb(100%,100%,100%);fill-opacity:1;" d="M 421.332031 207.84375 C 422.894531 207.84375 424.160156 206.578125 424.160156 205.011719 C 424.160156 203.445312 422.894531 202.179688 421.332031 202.179688 C 419.769531 202.179688 418.5 203.445312 418.5 205.011719 C 418.5 206.578125 419.769531 207.84375 421.332031 207.84375 Z M 421.332031 207.84375 "/>
<path style=" stroke:none;fill-rule:nonzero;fill:rgb(100%,100%,100%);fill-opacity:1;" d="M 425.152344 242.414062 C 426.714844 242.414062 427.980469 241.144531 427.980469 239.582031 C 427.980469 238.015625 426.714844 236.746094 425.152344 236.746094 C 423.589844 236.746094 422.324219 238.015625 422.324219 239.582031 C 422.324219 241.144531 423.589844 242.414062 425.152344 242.414062 Z M 425.152344 242.414062 "/>
<path style=" stroke:none;fill-rule:nonzero;fill:rgb(100%,100%,100%);fill-opacity:1;" d="M 470.714844 222.34375 C 472.277344 222.34375 473.542969 221.074219 473.542969 219.507812 C 473.542969 217.945312 472.277344 216.675781 470.714844 216.675781 C 469.152344 216.675781 467.882812 217.945312 467.882812 219.507812 C 467.882812 221.074219 469.152344 222.34375 470.714844 222.34375 Z M 470.714844 222.34375 "/>
<path style=" stroke:none;fill-rule:nonzero;fill:rgb(100%,100%,100%);fill-opacity:1;" d="M 393.597656 211.679688 C 395.160156 211.679688 396.429688 210.414062 396.429688 208.847656 C 396.429688 207.28125 395.160156 206.015625 393.597656 206.015625 C 392.035156 206.015625 390.769531 207.28125 390.769531 208.847656 C 390.769531 210.414062 392.035156 211.679688 393.597656 211.679688 Z M 393.597656 211.679688 "/>
<path style=" stroke:none;fill-rule:nonzero;fill:rgb(100%,100%,100%);fill-opacity:1;" d="M 345.832031 248.117188 C 347.394531 248.117188 348.660156 246.847656 348.660156 245.285156 C 348.660156 243.71875 347.394531 242.449219 345.832031 242.449219 C 344.269531 242.449219 343.003906 243.71875 343.003906 245.285156 C 343.003906 246.847656 344.269531 248.117188 345.832031 248.117188 Z M 345.832031 248.117188 "/>
<path style=" stroke:none;fill-rule:nonzero;fill:rgb(100%,100%,100%);fill-opacity:1;" d="M 353.0625 210.9375 C 354.625 210.9375 355.890625 209.667969 355.890625 208.101562 C 355.890625 206.539062 354.625 205.269531 353.0625 205.269531 C 351.5 205.269531 350.230469 206.539062 350.230469 208.101562 C 350.230469 209.667969 351.5 210.9375 353.0625 210.9375 Z M 353.0625 210.9375 "/>
<path style=" stroke:none;fill-rule:nonzero;fill:rgb(100%,100%,100%);fill-opacity:1;" d="M 277.332031 216.640625 C 278.894531 216.640625 280.164062 215.371094 280.164062 213.804688 C 280.164062 212.242188 278.894531 210.972656 277.332031 210.972656 C 275.769531 210.972656 274.503906 212.242188 274.503906 213.804688 C 274.503906 215.371094 275.769531 216.640625 277.332031 216.640625 Z M 277.332031 216.640625 "/>
<path style=" stroke:none;fill-rule:nonzero;fill:rgb(100%,100%,100%);fill-opacity:1;" d="M 175.683594 237.4375 C 177.246094 237.4375 178.511719 236.167969 178.511719 234.605469 C 178.511719 233.039062 177.246094 231.769531 175.683594 231.769531 C 174.121094 231.769531 172.855469 233.039062 172.855469 234.605469 C 172.855469 236.167969 174.121094 237.4375 175.683594 237.4375 Z M 175.683594 237.4375 "/>
<path style=" stroke:none;fill-rule:nonzero;fill:rgb(100%,100%,100%);fill-opacity:1;" d="M 312.320312 201.210938 C 313.886719 201.210938 315.152344 199.945312 315.152344 198.378906 C 315.152344 196.816406 313.886719 195.546875 312.320312 195.546875 C 310.757812 195.546875 309.492188 196.816406 309.492188 198.378906 C 309.492188 199.945312 310.757812 201.210938 312.320312 201.210938 Z M 312.320312 201.210938 "/>
<path style=" stroke:none;fill-rule:nonzero;fill:rgb(100%,100%,100%);fill-opacity:1;" d="M 281.496094 243.988281 C 283.058594 243.988281 284.324219 242.71875 284.324219 241.152344 C 284.324219 239.589844 283.058594 238.320312 281.496094 238.320312 C 279.933594 238.320312 278.664062 239.589844 278.664062 241.152344 C 278.664062 242.71875 279.933594 243.988281 281.496094 243.988281 Z M 281.496094 243.988281 "/>
<path style=" stroke:none;fill-rule:nonzero;fill:rgb(100%,100%,100%);fill-opacity:1;" d="M 258.601562 195.832031 C 260.164062 195.832031 261.433594 194.5625 261.433594 193 C 261.433594 191.433594 260.164062 190.164062 258.601562 190.164062 C 257.039062 190.164062 255.773438 191.433594 255.773438 193 C 255.773438 194.5625 257.039062 195.832031 258.601562 195.832031 Z M 258.601562 195.832031 "/>
<path style=" stroke:none;fill-rule:nonzero;fill:rgb(100%,100%,100%);fill-opacity:1;" d="M 175.65625 193.042969 C 177.21875 193.042969 178.484375 191.777344 178.484375 190.210938 C 178.484375 188.644531 177.21875 187.378906 175.65625 187.378906 C 174.09375 187.378906 172.824219 188.644531 172.824219 190.210938 C 172.824219 191.777344 174.09375 193.042969 175.65625 193.042969 Z M 175.65625 193.042969 "/>
<path style=" stroke:none;fill-rule:nonzero;fill:rgb(100%,100%,100%);fill-opacity:1;" d="M 495.746094 248.171875 C 497.308594 248.171875 498.574219 246.902344 498.574219 245.339844 C 498.574219 243.773438 497.308594 242.503906 495.746094 242.503906 C 494.183594 242.503906 492.914062 243.773438 492.914062 245.339844 C 492.914062 246.902344 494.183594 248.171875 495.746094 248.171875 Z M 495.746094 248.171875 "/>
<path style=" stroke:none;fill-rule:nonzero;fill:rgb(100%,100%,100%);fill-opacity:1;" d="M 450.816406 212.648438 C 451.394531 212.019531 452.003906 211.238281 451.800781 210.410156 C 451.761719 210.253906 451.691406 210.089844 451.5625 209.988281 C 451.148438 209.648438 450.558594 210.0625 450.191406 210.449219 C 449.449219 211.238281 448.703125 212.03125 447.960938 212.8125 C 448.328125 211.25 448.445312 209.621094 448.300781 208.011719 C 448.273438 207.753906 448.246094 207.484375 448.105469 207.257812 C 447.96875 207.027344 447.710938 206.859375 447.457031 206.914062 C 447.226562 206.960938 447.058594 207.171875 446.949219 207.375 C 446.03125 209.023438 446.757812 211.15625 446.039062 212.894531 C 445.941406 211.589844 445.488281 210.300781 444.753906 209.214844 C 444.617188 209.011719 444.460938 208.8125 444.230469 208.738281 C 443.871094 208.617188 443.476562 208.882812 443.332031 209.234375 C 443.183594 209.582031 443.21875 209.980469 443.292969 210.347656 C 443.523438 211.597656 444.054688 212.765625 444.578125 213.925781 C 446.398438 217.953125 448.859375 214.726562 450.808594 212.636719 Z M 450.816406 212.648438 "/>
<path style=" stroke:none;fill-rule:nonzero;fill:rgb(100%,100%,100%);fill-opacity:1;" d="M 382.347656 198.527344 C 382.429688 198.214844 382.492188 197.847656 382.28125 197.605469 C 382.171875 197.476562 381.996094 197.414062 381.824219 197.394531 C 380.902344 197.277344 380.152344 198.132812 379.753906 198.976562 C 379.359375 199.816406 379.074219 200.789062 378.324219 201.332031 C 378.25 198.976562 378.109375 196.410156 376.566406 194.625 C 376.355469 194.386719 376.097656 194.148438 375.777344 194.128906 C 375.125 194.113281 374.851562 194.949219 374.796875 195.609375 C 374.65625 197.292969 374.628906 198.996094 374.703125 200.6875 C 373.894531 199.445312 372.726562 198.433594 371.394531 197.800781 C 371.121094 197.671875 370.816406 197.550781 370.515625 197.589844 C 369.964844 197.644531 369.570312 198.195312 369.503906 198.746094 C 369.441406 199.300781 369.625 199.84375 369.824219 200.355469 C 370.570312 202.269531 371.542969 204.101562 372.699219 205.785156 C 374.160156 207.910156 378.066406 210.851562 380.003906 207.550781 C 380.5625 206.59375 380.425781 205.078125 380.675781 204.019531 C 381.113281 202.160156 381.878906 200.386719 382.347656 198.527344 Z M 382.347656 198.527344 "/>
<path style=" stroke:none;fill-rule:nonzero;fill:rgb(100%,100%,100%);fill-opacity:1;" d="M 331.722656 239.535156 C 331.769531 239.332031 331.804688 239.101562 331.6875 238.9375 C 331.59375 238.816406 331.429688 238.761719 331.273438 238.742188 C 330.695312 238.679688 330.144531 238.992188 329.648438 239.296875 C 328.453125 240.023438 327.257812 240.75 326.074219 241.476562 C 327.074219 239.527344 327.726562 237.390625 327.984375 235.210938 C 328.011719 234.960938 328.03125 234.695312 327.882812 234.503906 C 327.535156 234.042969 326.808594 234.464844 326.433594 234.90625 C 325.15625 236.425781 324.136719 238.15625 323.429688 240.011719 C 323.464844 238.523438 323.464844 236.902344 322.574219 235.71875 C 322.453125 235.550781 322.289062 235.394531 322.085938 235.40625 C 321.8125 235.421875 321.671875 235.746094 321.601562 236.011719 C 320.902344 238.640625 320.644531 241.382812 320.828125 244.089844 C 321.066406 247.582031 323.511719 249.644531 326.449219 247.316406 C 328.96875 245.328125 330.988281 242.707031 331.722656 239.535156 Z M 331.722656 239.535156 "/>
<path style=" stroke:none;fill-rule:nonzero;fill:rgb(100%,100%,100%);fill-opacity:1;" d="M 295.769531 190.9375 C 295.703125 190.339844 295.585938 189.722656 295.199219 189.253906 C 294.8125 188.792969 294.089844 188.566406 293.601562 188.914062 C 293.261719 189.152344 293.125 189.59375 293.011719 190 C 292.617188 191.445312 292.222656 192.878906 291.828125 194.324219 C 291.738281 191.921875 290.972656 189.539062 289.652344 187.535156 C 289.320312 187.027344 288.917969 186.523438 288.355469 186.3125 C 287.785156 186.097656 287.035156 186.3125 286.832031 186.871094 C 286.730469 187.167969 286.785156 187.480469 286.851562 187.78125 C 287.320312 190.136719 287.777344 192.492188 288.246094 194.847656 C 287.546875 193.6875 286.648438 192.648438 285.582031 191.8125 C 285.078125 191.40625 284.453125 191.03125 283.808594 191.167969 C 282.808594 191.378906 282.476562 192.667969 282.605469 193.6875 C 282.835938 195.480469 283.847656 197.074219 284.910156 198.527344 C 285.832031 199.777344 286.824219 200.984375 287.871094 202.125 C 288.621094 202.941406 289.449219 203.761719 290.515625 204.09375 C 293.125 204.917969 294.59375 202.730469 294.898438 200.613281 C 295.335938 197.449219 296.128906 194.167969 295.761719 190.929688 Z M 295.769531 190.9375 "/>
<path style=" stroke:none;fill-rule:nonzero;fill:rgb(100%,100%,100%);fill-opacity:1;" d="M 248.472656 194.929688 C 248.242188 194.828125 247.964844 194.921875 247.738281 195.023438 C 245.964844 195.792969 244.492188 197.101562 243.0625 198.390625 C 243.714844 196.613281 244.054688 194.71875 244.0625 192.8125 C 244.0625 192.566406 244.042969 192.300781 243.878906 192.125 C 243.703125 191.949219 243.417969 191.929688 243.171875 191.976562 C 242.140625 192.207031 241.636719 193.347656 241.289062 194.351562 C 240.820312 195.695312 240.359375 197.027344 239.890625 198.371094 C 239.753906 196.84375 239.523438 195.125 238.304688 194.195312 C 238.054688 194.011719 237.707031 193.863281 237.449219 194.039062 C 237.265625 194.15625 237.210938 194.398438 237.164062 194.609375 C 236.558594 197.652344 236.785156 204.488281 241.628906 203.667969 C 243.410156 203.367188 250.640625 195.867188 248.480469 194.921875 Z M 248.472656 194.929688 "/>
<path style=" stroke:none;fill-rule:nonzero;fill:rgb(100%,100%,100%);fill-opacity:1;" d="M 478.632812 248.605469 C 479.789062 247.289062 480.476562 245.496094 480.238281 243.757812 C 479.660156 243.804688 479.117188 244.058594 478.59375 244.316406 C 477.144531 245.015625 475.691406 245.726562 474.242188 246.425781 C 475.058594 244.960938 475.546875 243.316406 475.636719 241.640625 C 475.675781 240.921875 475.433594 239.976562 474.71875 239.957031 C 474.269531 239.949219 473.929688 240.34375 473.671875 240.722656 C 472.613281 242.238281 471.742188 243.886719 471.082031 245.613281 C 471.054688 244.832031 471.015625 244.042969 470.757812 243.304688 C 470.503906 242.570312 469.980469 241.890625 469.234375 241.632812 C 469.042969 241.566406 468.832031 241.53125 468.648438 241.59375 C 468.296875 241.714844 468.140625 242.121094 468.050781 242.476562 C 467.460938 244.722656 467.472656 247.253906 468.703125 249.230469 C 471.210938 253.257812 476.042969 251.539062 478.632812 248.59375 Z M 478.632812 248.605469 "/>
<path style=" stroke:none;fill-rule:nonzero;fill:rgb(100%,100%,100%);fill-opacity:1;" d="M 492.914062 221.0625 C 492.988281 219.5 492.21875 217.925781 490.941406 217.035156 C 490.710938 216.878906 490.425781 216.730469 490.167969 216.832031 C 489.847656 216.960938 489.785156 217.382812 489.792969 217.734375 C 489.8125 218.984375 490.152344 220.226562 490.757812 221.3125 C 489.820312 220.945312 489.058594 219.792969 488.09375 220.089844 C 487.421875 220.300781 487.164062 221.191406 487.40625 221.855469 C 487.644531 222.515625 488.222656 222.996094 488.78125 223.417969 C 490.976562 225.046875 494.769531 227.917969 495.140625 223.667969 C 495.222656 222.730469 495.617188 219.648438 495.277344 218.929688 C 494.449219 217.183594 492.980469 219.738281 492.914062 221.0625 Z M 492.914062 221.0625 "/>
</g>
</svg>
