<?xml version="1.0" encoding="UTF-8"?>
<svg xmlns="http://www.w3.org/2000/svg" xmlns:xlink="http://www.w3.org/1999/xlink" width="520px" height="232px" viewBox="0 0 519 232" version="1.1">
<g id="surface1">
<path style=" stroke:none;fill-rule:nonzero;fill:rgb(16.078431%,54.901961%,49.411765%);fill-opacity:1;" d="M 0.0117188 0 C 8.136719 9.09375 19.804688 14.292969 32.464844 16.71875 C 25.066406 20.371094 18.96875 26.140625 15.253906 32.976562 C 14.726562 33.925781 14.285156 35.140625 14.992188 35.996094 C 15.601562 36.726562 16.765625 36.816406 17.785156 36.804688 C 28.679688 36.734375 39.546875 34.222656 49.125 29.550781 C 46.773438 32.472656 45.25 35.933594 44.726562 39.519531 C 44.527344 40.921875 44.5625 42.546875 45.746094 43.472656 C 47.324219 44.707031 49.761719 43.894531 51.597656 43.007812 C 55.378906 41.183594 59.085938 39.230469 62.710938 37.164062 C 60.316406 44.925781 59.140625 52.988281 59.214844 61.046875 C 59.234375 62.917969 59.847656 65.332031 61.910156 65.535156 C 62.988281 65.640625 63.980469 65.027344 64.835938 64.425781 C 73.507812 58.347656 80.5 50.332031 85.011719 41.296875 C 92.519531 43.15625 99.753906 45.238281 107.539062 45.074219 C 100.511719 47.601562 95.011719 53.335938 93.222656 59.972656 C 99.789062 60.285156 106.441406 59.140625 112.421875 56.671875 C 104.707031 63.347656 100.074219 72.84375 99.832031 82.492188 C 109.402344 80.683594 118.390625 76.449219 125.496094 70.386719 C 123.039062 76.648438 121.96875 83.347656 122.359375 89.984375 C 129.289062 85.640625 135.257812 80.023438 139.765625 73.585938 C 138.523438 74.753906 139.070312 76.839844 140.429688 77.894531 C 141.789062 78.960938 143.667969 79.253906 145.453125 79.464844 C 151.273438 80.144531 157.160156 80.292969 163.003906 79.910156 C 163.078125 76.449219 163.15625 72.984375 163.246094 69.519531 C 171.144531 71.921875 180.53125 69.5625 185.929688 63.824219 C 193.316406 67.652344 204.035156 64.402344 207.367188 57.320312 C 210.660156 63.007812 214.4375 67.332031 219.75 71.589844 C 217.617188 74.746094 216.308594 78.359375 215.980469 82.042969 C 215.859375 83.441406 215.914062 84.960938 216.835938 86.082031 C 217.757812 87.210938 219.867188 87.601562 220.851562 86.511719 C 221.398438 89.703125 221.894531 93.183594 220.101562 95.984375 C 219.488281 96.925781 218.652344 97.738281 217.894531 98.582031 C 213.246094 103.796875 211.644531 110.679688 210.660156 117.316406 C 210.554688 118.003906 210.484375 118.792969 210.992188 119.324219 C 211.488281 119.847656 212.339844 119.90625 213.105469 119.90625 C 223.972656 119.933594 234.703125 114.769531 240.734375 106.609375 C 239.824219 108.996094 238.890625 111.527344 239.402344 114.011719 C 239.917969 116.496094 242.425781 118.851562 245.195312 118.441406 C 249.113281 117.867188 249.882812 113.128906 252.347656 110.3125 C 252.71875 119.0625 256.648438 127.652344 263.214844 134.097656 C 264.300781 135.160156 265.84375 136.261719 267.347656 135.757812 C 268.328125 135.421875 268.890625 134.535156 269.34375 133.6875 C 271.269531 130.121094 272.644531 126.316406 273.425781 122.417969 C 273.625 127.191406 278.167969 131.785156 282.292969 134.769531 C 282.691406 135.054688 283.160156 135.347656 283.667969 135.285156 C 284.199219 135.210938 284.566406 134.789062 284.871094 134.394531 C 286.003906 132.953125 287.125 131.515625 288.253906 130.074219 C 293.621094 133.617188 300.511719 135.210938 307.09375 134.449219 C 305.65625 140 306.707031 146.796875 310.574219 151.308594 C 311.445312 152.324219 312.699219 153.230469 314.117188 153.179688 C 315.542969 153.128906 316.863281 151.671875 316.175781 150.546875 C 320.207031 155.347656 327.042969 158.082031 333.6875 157.566406 C 327.855469 157.828125 322.078125 158.988281 316.671875 160.980469 C 313.832031 162.015625 310.714844 163.789062 310.566406 166.542969 C 317.847656 166.210938 325.136719 166.066406 332.425781 166.109375 C 324.640625 171.523438 320.328125 180.761719 321.484375 189.570312 C 321.765625 191.722656 322.59375 194.121094 324.78125 195.019531 C 327.414062 196.101562 330.386719 194.390625 332.539062 192.628906 C 335.371094 190.308594 337.949219 187.726562 340.21875 184.949219 C 338.765625 194.574219 346.890625 203.007812 354.429688 209.953125 C 357.679688 205.902344 359.828125 201.144531 360.640625 196.207031 C 363.476562 199.277344 368.222656 200.234375 372.648438 200.007812 C 372.714844 196.972656 372.796875 193.949219 372.863281 190.910156 C 376.765625 195.59375 383.695312 198.054688 390.089844 197.027344 C 391.011719 203.148438 391.980469 209.402344 395.035156 214.929688 C 398.089844 220.460938 403.683594 225.238281 410.476562 225.988281 C 411.589844 221.953125 412.707031 217.914062 413.828125 213.875 C 420.296875 223.050781 430.957031 229.730469 442.738281 231.992188 C 442.3125 229.226562 441.886719 226.453125 441.46875 223.6875 C 447.101562 229.269531 456.601562 231.363281 464.445312 228.753906 C 465.683594 224.574219 467.871094 220.628906 470.820312 217.21875 C 473.070312 221.726562 473.976562 226.765625 473.433594 231.695312 C 479.863281 230.511719 485.746094 227.089844 489.597656 222.292969 C 498.898438 225.363281 509.730469 224.359375 518.140625 219.640625 L 518.140625 0 Z M 0.0117188 0 "/>
<path style=" stroke:none;fill-rule:nonzero;fill:rgb(9.803922%,17.647059%,23.137255%);fill-opacity:1;" d="M 32.421875 0 C 36.96875 4.683594 42.386719 11 48.367188 14.074219 C 43.578125 16.40625 40.296875 21.070312 39.980469 25.972656 C 45.824219 26.171875 51.710938 24.105469 55.875 20.402344 C 54.699219 21.785156 56.265625 23.949219 58.179688 24.222656 C 60.089844 24.492188 61.933594 23.523438 63.511719 22.519531 C 61.394531 27.910156 63.121094 34.363281 67.710938 38.296875 C 71.199219 36.195312 73.746094 32.828125 74.632812 29.125 C 75.121094 31.722656 77.390625 33.980469 80.214844 34.667969 C 80.820312 33.707031 81.433594 32.75 82.042969 31.796875 C 84.726562 34.878906 88.773438 36.964844 93.078125 37.484375 C 88.921875 40.171875 85.53125 43.820312 83.339844 47.988281 C 94.597656 49.164062 106.335938 45.964844 114.992188 39.351562 C 115.160156 42.882812 115.8125 47.105469 119.363281 48.589844 C 122.25 49.792969 125.792969 48.398438 127.757812 46.15625 C 129.726562 43.914062 130.492188 41.015625 131.199219 38.230469 C 133.410156 41.160156 138.695312 41.605469 141.464844 39.097656 C 143.851562 45.160156 151.714844 47.601562 158.601562 49.261719 C 160.320312 43.75 158.542969 37.46875 154.109375 33.378906 C 158.671875 35.890625 164.203125 36.929688 169.496094 36.28125 C 167.632812 33.421875 165.316406 30.804688 162.636719 28.535156 C 164.785156 28.949219 167.128906 27.351562 167.277344 25.371094 C 171.875 26.3125 176.890625 25.496094 180.824219 23.15625 C 178.058594 20.773438 174.765625 18.882812 171.207031 17.628906 C 178.046875 15.570312 183.078125 6.523438 183.167969 0.0078125 L 32.421875 0.0078125 Z M 32.421875 0 "/>
<path style=" stroke:none;fill-rule:nonzero;fill:rgb(9.803922%,17.647059%,23.137255%);fill-opacity:1;" d="M 169.253906 17.898438 C 167.554688 20.96875 167.804688 24.683594 169.085938 27.917969 C 170.371094 31.152344 172.570312 34.011719 174.75 36.824219 C 177.8125 34.074219 179.914062 30.445312 180.667969 26.601562 C 184.265625 28.523438 188.566406 29.324219 192.703125 28.871094 C 190.605469 33.273438 189.621094 38.050781 189.429688 42.851562 C 195.675781 42.648438 201.777344 40.015625 205.878906 35.761719 C 209.023438 36.902344 212.480469 37.320312 215.851562 36.988281 C 215.515625 41.195312 215.8125 45.4375 216.738281 49.574219 C 220.777344 47.917969 224.296875 45.257812 226.804688 41.953125 C 226.804688 45.648438 230.078125 49.121094 234.109375 49.714844 C 228.746094 51.648438 224.042969 55.058594 220.796875 59.378906 C 225.070312 60.085938 229.476562 60.136719 233.769531 59.527344 C 232.179688 62.457031 231.289062 65.703125 231.175781 68.960938 C 233.164062 68.195312 234.867188 66.835938 235.945312 65.144531 C 234.527344 70.664062 237.359375 76.855469 242.664062 79.875 C 244.238281 77.503906 245.285156 74.847656 245.71875 72.113281 C 247.6875 76.175781 252.964844 77.859375 257.683594 79.117188 C 253.042969 80.269531 249.324219 84.035156 248.59375 88.335938 C 252.1875 88.636719 255.878906 88.023438 259.113281 86.554688 C 258.53125 88.386719 258.746094 90.417969 259.703125 92.117188 C 261.480469 90.4375 262.90625 88.464844 263.902344 86.320312 C 263.535156 91.96875 267.535156 97.640625 273.367188 99.722656 C 275.371094 96.402344 276.214844 92.519531 275.75 88.753906 C 279.601562 92.71875 285.339844 95.144531 291.171875 95.269531 C 291.828125 92.453125 291.339844 89.425781 289.824219 86.894531 C 298.507812 86.609375 307.101562 84.296875 314.539062 80.230469 C 310.890625 77.554688 306.796875 75.363281 302.445312 73.769531 C 306.75 74.449219 311.386719 73.21875 314.601562 70.53125 C 315.320312 69.929688 315.566406 68.433594 314.601562 68.550781 L 314.601562 0 L 163.914062 0 L 169.273438 17.898438 Z M 169.253906 17.898438 "/>
<path style=" stroke:none;fill-rule:nonzero;fill:rgb(9.803922%,17.647059%,23.137255%);fill-opacity:1;" d="M 311.761719 66.136719 C 317.925781 69.511719 325.761719 70.269531 332.582031 68.144531 C 332.582031 69.46875 332.589844 70.796875 332.601562 72.121094 C 335.328125 71.449219 338.058594 70.777344 340.785156 70.109375 C 337.949219 73.804688 336.554688 78.390625 336.882812 82.882812 C 345.414062 83.054688 353.976562 79.902344 359.941406 74.378906 C 359.941406 76.148438 359.957031 77.914062 359.957031 79.679688 C 362.859375 79.253906 365.640625 78.210938 368.011719 76.652344 C 366.839844 80.894531 369.449219 85.726562 373.875 87.496094 C 376.835938 83.277344 378.070312 78.078125 377.289062 73.128906 C 380.230469 74.320312 383.855469 74.011719 386.507812 72.355469 C 389.105469 73.308594 392.109375 73.308594 394.707031 72.355469 C 391.917969 74.859375 389.75 77.917969 388.390625 81.25 C 396.335938 80.683594 403.859375 76.523438 408.019531 70.386719 C 412.453125 72.050781 417.894531 71.238281 421.5 68.378906 C 420.863281 71.710938 422.898438 74.996094 425.171875 77.695312 C 426.542969 76.507812 427.664062 75.09375 428.457031 73.542969 C 430.558594 73.925781 432.695312 74.054688 434.832031 73.941406 C 431.425781 77.273438 428.933594 81.367188 427.644531 85.753906 C 435.199219 86.125 442.871094 83.003906 447.5625 77.652344 C 452.28125 79.296875 457.808594 78.941406 462.226562 76.699219 C 460.894531 80.039062 461.773438 83.84375 463.683594 86.957031 C 465.578125 90.070312 468.410156 92.625 471.195312 95.128906 C 472.746094 91.96875 473.746094 88.585938 474.128906 85.152344 C 476.769531 87.234375 480.859375 87.664062 483.964844 86.1875 C 482.691406 84.660156 481.417969 83.136719 480.148438 81.609375 C 483.214844 81.882812 486.332031 81.585938 489.265625 80.746094 C 490.511719 83.675781 493.566406 85.917969 497.007812 86.417969 C 496.972656 84.128906 496.945312 81.839844 496.914062 79.550781 C 500.097656 82.472656 504.738281 84.070312 509.269531 83.792969 C 508.308594 81.863281 507.8125 79.753906 507.820312 77.640625 C 510.558594 79.140625 515.273438 79.28125 518.148438 78 L 518.148438 0 L 278.085938 0 L 311.769531 66.136719 Z M 311.761719 66.136719 "/>
<path style=" stroke:none;fill-rule:nonzero;fill:rgb(9.803922%,17.647059%,23.137255%);fill-opacity:1;" d="M 404.855469 66.703125 C 398.867188 69.269531 394.347656 74.484375 393.023438 80.355469 C 397.265625 80.78125 401.636719 80.03125 405.398438 78.226562 C 404.125 80.300781 404.457031 83.09375 406.1875 84.878906 C 402.621094 86.304688 399.421875 88.464844 396.917969 91.167969 C 399.824219 91.808594 402.941406 91.691406 405.78125 90.839844 C 406.453125 92.964844 407.582031 94.972656 409.082031 96.714844 C 405.371094 96.242188 401.585938 96.21875 397.867188 96.644531 C 399.433594 98.886719 402.472656 100.207031 405.382812 99.910156 C 401.070312 103.40625 398.214844 108.332031 397.488281 113.53125 C 400.597656 112.546875 403.554688 111.148438 406.234375 109.414062 C 407.558594 111.96875 409.875 114.097656 412.675781 115.328125 C 410.308594 119.34375 409.429688 124.058594 410.222656 128.550781 C 412.496094 126.894531 414.769531 125.242188 417.050781 123.585938 C 414.800781 129.40625 415.761719 136.15625 419.558594 141.277344 C 415.308594 141.867188 411.320312 143.890625 408.550781 146.867188 C 413.394531 147.605469 418.300781 147.992188 423.214844 147.992188 C 422.898438 151.035156 423.910156 154.167969 425.992188 156.582031 C 428.214844 154.792969 430.433594 153.007812 432.652344 151.21875 C 434.175781 151.71875 435.800781 151.636719 437.324219 152.132812 C 436.851562 156.574219 439.464844 160.804688 442.53125 164.304688 C 442.695312 164.484375 442.875 164.683594 443.136719 164.710938 C 443.53125 164.757812 443.824219 164.40625 444.015625 164.09375 C 445.800781 161.160156 446.421875 157.671875 445.75 154.390625 C 448.503906 156.121094 452.394531 156.710938 455.441406 155.445312 C 457.269531 157.828125 459.78125 159.78125 462.65625 161.085938 C 463.332031 161.386719 464.167969 161.648438 464.804688 161.277344 C 465.265625 161.003906 465.441406 160.480469 465.5625 159.992188 C 465.945312 158.421875 466.058594 156.792969 465.875 155.195312 C 468.800781 157.613281 473.09375 158.589844 476.9375 157.722656 C 476.429688 160.925781 477.136719 164.273438 478.894531 167.082031 C 481.332031 165.800781 483.964844 164.824219 486.6875 164.167969 C 484.859375 168.96875 483.039062 173.765625 481.210938 178.558594 C 483.875 178.300781 486.539062 178.039062 489.207031 177.765625 C 483.691406 180.464844 479.6875 185.539062 478.667969 191.128906 C 482.941406 190.667969 487.097656 189.339844 490.746094 187.28125 C 490.6875 189.960938 491.730469 192.652344 493.628906 194.714844 C 494.566406 193.230469 495.507812 191.746094 496.449219 190.265625 C 499.992188 192.855469 504.863281 193.914062 509.332031 193.050781 C 511.511719 194.519531 515.414062 195.421875 518.140625 195.273438 L 518.140625 53.089844 L 404.855469 66.695312 Z M 404.855469 66.703125 "/>
<path style=" stroke:none;fill-rule:nonzero;fill:rgb(9.803922%,17.647059%,23.137255%);fill-opacity:1;" d="M 313.660156 93.730469 C 318.414062 95.816406 324.152344 94.28125 328.785156 92 C 328.46875 92.667969 328.164062 93.339844 327.855469 94.003906 C 329.1875 94.203125 330.625 93.515625 331.1875 92.398438 C 330.804688 96.167969 331.421875 100.015625 332.964844 103.527344 C 333.085938 103.804688 333.246094 104.101562 333.546875 104.226562 C 334.191406 104.46875 334.734375 103.738281 334.941406 103.136719 C 335.953125 100.1875 336.308594 97.066406 335.976562 93.996094 C 337.886719 96.84375 341.714844 98.550781 345.382812 98.171875 C 344.375 95.9375 343.171875 93.769531 341.804688 91.691406 C 340.964844 90.4375 340.054688 89.191406 338.765625 88.296875 C 331.421875 83.222656 319.03125 88.632812 313.660156 93.722656 Z M 313.660156 93.730469 "/>
<path style=" stroke:none;fill-rule:nonzero;fill:rgb(9.803922%,17.647059%,23.137255%);fill-opacity:1;" d="M 355.9375 87.023438 C 354.777344 87.925781 353.910156 89.128906 353.453125 90.445312 C 354.769531 90.558594 356.121094 90.226562 357.183594 89.511719 C 356.398438 92.9375 356.78125 96.585938 358.253906 99.820312 C 358.425781 100.207031 358.792969 100.667969 359.226562 100.527344 C 359.410156 100.472656 359.542969 100.316406 359.65625 100.167969 C 361.988281 97.125 363.113281 93.351562 362.789062 89.660156 C 364.773438 91.597656 367.527344 92.878906 370.429688 93.21875 C 370.582031 93.234375 370.75 93.253906 370.894531 93.203125 C 371.332031 93.035156 371.246094 92.460938 371.078125 92.058594 C 369.242188 87.644531 367.066406 85.386719 361.78125 84.628906 C 357.871094 84.070312 353.550781 84.785156 350.710938 87.539062 C 352.398438 87.90625 354.332031 87.609375 355.945312 87.023438 Z M 355.9375 87.023438 "/>
<path style=" stroke:none;fill-rule:nonzero;fill:rgb(9.803922%,17.647059%,23.137255%);fill-opacity:1;" d="M 379.1875 84.339844 C 378.613281 84.804688 378.097656 85.703125 378.734375 86.074219 C 378.9375 86.1875 379.179688 86.207031 379.414062 86.207031 C 382.171875 86.269531 384.941406 85.976562 387.625 85.363281 C 384.464844 86.546875 382.226562 89.503906 382.140625 92.589844 C 384.550781 91.875 386.875 90.914062 389.054688 89.738281 C 388.453125 93.171875 388.558594 96.714844 389.359375 100.117188 C 392.867188 97.949219 395.503906 94.65625 396.699219 90.96875 C 397.882812 87.324219 398.753906 79.824219 393.40625 79.507812 C 388.355469 79.210938 382.878906 81.332031 379.179688 84.320312 Z M 379.1875 84.339844 "/>
<path style=" stroke:none;fill-rule:nonzero;fill:rgb(9.803922%,17.647059%,23.137255%);fill-opacity:1;" d="M 374.789062 106.90625 C 377.425781 108.167969 379.859375 109.871094 381.570312 112.074219 C 383.289062 114.28125 384.246094 117.035156 383.863281 119.707031 C 381.527344 117.847656 379.203125 115.980469 376.871094 114.125 C 376.460938 116.042969 377.183594 118.078125 376.582031 119.953125 C 376.296875 120.867188 375.703125 121.675781 375.128906 122.46875 C 373.71875 124.417969 372.308594 126.359375 370.886719 128.308594 C 370.050781 122.644531 369.214844 116.882812 370.3125 111.253906 C 367.910156 115.398438 363.601562 118.605469 358.636719 119.953125 C 358.863281 119.890625 360.601562 114.34375 360.996094 113.6875 C 361.859375 112.234375 362.859375 110.820312 364.246094 109.734375 C 367.132812 107.46875 371.097656 105.113281 374.796875 106.894531 Z M 374.789062 106.90625 "/>
<path style=" stroke:none;fill-rule:nonzero;fill:rgb(9.803922%,17.647059%,23.137255%);fill-opacity:1;" d="M 338.414062 115.625 C 338.328125 115.78125 344.964844 114.761719 345.75 114.394531 C 347.445312 113.585938 350.9375 111.65625 350.085938 109.589844 C 348.046875 104.644531 339.46875 113.785156 338.414062 115.625 Z M 338.414062 115.625 "/>
<path style=" stroke:none;fill-rule:nonzero;fill:rgb(9.803922%,17.647059%,23.137255%);fill-opacity:1;" d="M 306.019531 97.726562 C 306.050781 95.398438 304.761719 93.097656 302.667969 91.726562 C 300.578125 90.355469 297.757812 89.972656 295.320312 90.714844 C 298.070312 93.601562 301.886719 96.945312 306.019531 97.726562 Z M 306.019531 97.726562 "/>
<path style=" stroke:none;fill-rule:nonzero;fill:rgb(9.803922%,17.647059%,23.137255%);fill-opacity:1;" d="M 317.867188 81.828125 C 317.675781 77.769531 320.789062 73.777344 325.085938 72.582031 C 326.15625 73.910156 325.339844 76 324.484375 77.441406 C 323.757812 78.679688 323.019531 79.925781 321.976562 80.964844 C 320.929688 82 319.40625 81.722656 317.867188 81.828125 Z M 317.867188 81.828125 "/>
<path style=" stroke:none;fill-rule:nonzero;fill:rgb(9.803922%,17.647059%,23.137255%);fill-opacity:1;" d="M 400.078125 129.421875 C 393.113281 128.507812 385.691406 131.382812 381.632812 136.582031 C 386.074219 136.960938 390.636719 135.972656 394.410156 133.808594 C 391.632812 136.414062 389.855469 139.871094 389.445312 143.472656 C 389.410156 143.761719 389.390625 144.082031 389.59375 144.3125 C 389.941406 144.726562 390.671875 144.566406 391.195312 144.335938 C 394.824219 142.773438 397.839844 140.074219 399.601562 136.800781 C 400.214844 138.226562 401.242188 139.90625 402.933594 139.839844 C 404.632812 139.757812 405.488281 137.953125 405.746094 136.425781 C 405.984375 135.050781 406.042969 133.59375 405.425781 132.328125 C 404.804688 131.054688 403.332031 130.03125 401.8125 130.21875 "/>
<path style=" stroke:none;fill-rule:nonzero;fill:rgb(9.803922%,17.647059%,23.137255%);fill-opacity:1;" d="M 430.730469 164.960938 C 426.089844 164.949219 421.699219 168.199219 420.804688 172.308594 C 424.566406 171.699219 428.117188 170.042969 430.84375 167.625 C 429.214844 169.867188 428.152344 172.449219 427.761719 175.109375 C 427.628906 175.996094 427.585938 176.957031 428.089844 177.722656 C 429.121094 179.3125 431.941406 179.128906 433.382812 177.839844 C 434.839844 176.546875 435.285156 174.621094 435.65625 172.816406 C 435.738281 174.464844 438.347656 175.289062 439.820312 174.304688 C 441.292969 173.320312 441.46875 171.269531 440.601562 169.804688 C 439.742188 168.335938 438.105469 167.386719 436.425781 166.734375 C 434.746094 166.078125 432.949219 165.652344 431.332031 164.886719 "/>
<path style=" stroke:none;fill-rule:nonzero;fill:rgb(9.803922%,17.647059%,23.137255%);fill-opacity:1;" d="M 414.855469 161.136719 C 412.453125 160.917969 410.109375 162.171875 408.585938 163.863281 C 407.0625 165.558594 406.199219 167.648438 405.351562 169.699219 C 408.59375 169.148438 411.640625 167.734375 414.019531 165.679688 C 415.109375 164.738281 416.121094 163.464844 415.855469 162.128906 C 415.59375 160.785156 413.320312 159.976562 412.53125 161.136719 "/>
<path style=" stroke:none;fill-rule:nonzero;fill:rgb(9.803922%,17.647059%,23.137255%);fill-opacity:1;" d="M 458.726562 166.824219 C 461.914062 169.296875 464.4375 172.480469 466.007812 176.003906 C 463.96875 176.945312 461.371094 176.058594 459.859375 174.507812 C 458.34375 172.953125 457.664062 170.902344 457.027344 168.925781 C 456.835938 168.324219 456.644531 167.640625 456.96875 167.082031 C 457.289062 166.523438 458.386719 166.386719 458.621094 166.976562 "/>
<path style=" stroke:none;fill-rule:nonzero;fill:rgb(9.803922%,17.647059%,23.137255%);fill-opacity:1;" d="M 451.230469 180.4375 C 446.335938 182.390625 442.433594 186.269531 440.75 190.859375 C 444.269531 189.925781 447.511719 188.136719 450.046875 185.730469 C 448 189.429688 446.988281 193.597656 447.132812 197.734375 C 447.144531 198.039062 447.171875 198.359375 447.378906 198.601562 C 448.050781 199.363281 449.320312 198.410156 449.785156 197.53125 C 451.332031 194.582031 452.308594 191.394531 452.648438 188.148438 C 452.554688 190.136719 453.886719 192.113281 455.878906 192.953125 C 456.472656 193.207031 457.246094 193.335938 457.734375 192.933594 C 458.175781 192.566406 458.167969 191.941406 458.117188 191.398438 C 457.871094 188.820312 457.507812 186.183594 456.175781 183.890625 C 454.84375 181.597656 452.34375 179.695312 449.476562 179.601562 "/>
<path style=" stroke:none;fill-rule:nonzero;fill:rgb(9.803922%,17.647059%,23.137255%);fill-opacity:1;" d="M 479.496094 194.917969 C 475.246094 195.917969 471.492188 198.542969 469.339844 202.007812 C 473.425781 202.660156 477.859375 201.089844 480.355469 198.097656 C 479.984375 199.398438 479.601562 200.699219 479.222656 201.996094 C 478.773438 203.558594 478.789062 205.828125 480.554688 206.089844 C 481.546875 206.238281 482.457031 205.511719 482.941406 204.71875 C 483.996094 202.980469 483.761719 200.792969 482.847656 198.996094 C 481.933594 197.199219 480.4375 195.710938 478.945312 194.253906 "/>
<path style=" stroke:none;fill-rule:nonzero;fill:rgb(9.803922%,17.647059%,23.137255%);fill-opacity:1;" d="M 471.769531 160.898438 C 469.644531 164.257812 469.570312 168.589844 471.570312 172.011719 C 471.902344 172.578125 472.449219 173.199219 473.15625 173.125 C 473.765625 173.070312 474.148438 172.523438 474.410156 172.027344 C 475.914062 169.117188 475.996094 165.636719 474.625 162.671875 C 473.894531 161.085938 472.109375 159.441406 470.351562 160.105469 "/>
<path style=" stroke:none;fill-rule:nonzero;fill:rgb(9.803922%,17.647059%,23.137255%);fill-opacity:1;" d="M 278.511719 94.109375 C 282.882812 94.859375 286.664062 97.972656 287.882812 101.84375 C 284.140625 102.464844 281.054688 99.34375 278.824219 96.558594 C 278.410156 96.039062 277.972656 95.433594 278.105469 94.804688 C 278.234375 94.175781 279.3125 93.785156 279.660156 94.351562 "/>
<path style=" stroke:none;fill-rule:nonzero;fill:rgb(9.803922%,17.647059%,23.137255%);fill-opacity:1;" d="M 311.394531 105.246094 C 305.863281 106.414062 300.820312 109.386719 297.417969 113.496094 C 300.789062 113.835938 304.277344 112.964844 306.988281 111.117188 C 304.6875 114.363281 303.460938 118.214844 303.503906 122.0625 C 306.535156 120.515625 308.824219 117.832031 309.707031 114.789062 C 309.699219 116.410156 312.257812 117.179688 313.769531 116.316406 C 315.289062 115.449219 315.84375 113.707031 316.042969 112.101562 C 316.242188 110.480469 316.15625 108.726562 315.105469 107.402344 C 314.0625 106.074219 311.777344 105.453125 310.386719 106.492188 "/>
<path style=" stroke:none;fill-rule:nonzero;fill:rgb(9.803922%,17.647059%,23.137255%);fill-opacity:1;" d="M 367.109375 141.292969 C 364.496094 141.398438 361.902344 141.886719 359.460938 142.75 C 358.210938 143.195312 356.78125 144.40625 357.589844 145.375 C 357.824219 145.652344 358.210938 145.8125 358.574219 145.929688 C 360.542969 146.570312 362.765625 146.578125 364.742188 145.960938 C 362.972656 148.59375 362.230469 151.773438 362.675781 154.832031 C 368.414062 153.082031 371.054688 145.882812 367.605469 141.390625 C 366.296875 141.363281 365 141.347656 363.695312 141.320312 "/>
<path style=" stroke:none;fill-rule:nonzero;fill:rgb(9.803922%,17.647059%,23.137255%);fill-opacity:1;" d="M 334.714844 141.046875 C 331.207031 141.277344 327.878906 143.113281 326.050781 145.832031 C 329.769531 147.660156 335.132812 144.886719 335.265625 141.054688 "/>
<path style=" stroke:none;fill-rule:nonzero;fill:rgb(9.803922%,17.647059%,23.137255%);fill-opacity:1;" d="M 390.367188 169.550781 C 389.8125 171.507812 389.625 173.546875 389.835938 175.5625 C 389.917969 176.3125 390.089844 177.132812 390.753906 177.585938 C 391.601562 178.1875 392.945312 177.851562 393.632812 177.105469 C 394.320312 176.355469 394.503906 175.316406 394.503906 174.339844 C 394.515625 172.832031 394.179688 171.332031 393.535156 169.945312 "/>
<path style=" stroke:none;fill-rule:nonzero;fill:rgb(9.803922%,17.647059%,23.137255%);fill-opacity:1;" d="M 422.1875 197.839844 C 418.941406 196.765625 415.117188 197.234375 412.304688 199.046875 C 411.722656 199.425781 411.121094 200.078125 411.460938 200.644531 C 411.675781 201.027344 412.210938 201.152344 412.667969 201.21875 C 414.8125 201.535156 417.03125 201.457031 419.148438 200.984375 C 420.117188 200.765625 421.175781 200.382812 421.550781 199.546875 C 421.925781 198.707031 420.960938 197.523438 420.082031 197.949219 "/>
<path style=" stroke:none;fill-rule:nonzero;fill:rgb(16.078431%,54.901961%,49.411765%);fill-opacity:1;" d="M 269.542969 43.558594 C 270.78125 43.632812 272.015625 43.652344 273.253906 43.601562 C 271.109375 45.277344 269.703125 47.699219 269.394531 50.253906 C 271.878906 49.6875 274.175781 48.484375 275.953125 46.828125 C 275.75 47.875 276.921875 48.875 278.09375 48.8125 C 282.988281 48.546875 279.132812 42.257812 276.859375 41.078125 C 275.546875 40.402344 274.183594 40.390625 272.714844 40.601562 C 271.597656 40.757812 266.503906 43.367188 269.542969 43.558594 Z M 269.542969 43.558594 "/>
<path style=" stroke:none;fill-rule:nonzero;fill:rgb(16.078431%,54.901961%,49.411765%);fill-opacity:1;" d="M 306.578125 37.425781 C 303.566406 37.800781 300.691406 39.066406 298.515625 40.984375 C 300.398438 41.847656 302.773438 41.761719 304.570312 40.765625 C 304.097656 40.941406 303.589844 41.152344 303.347656 41.5625 C 302.890625 42.355469 303.878906 43.335938 304.871094 43.285156 C 305.863281 43.234375 306.648438 42.511719 307.144531 41.734375 C 307.964844 40.445312 308.242188 38.890625 307.910156 37.433594 C 307.382812 37.503906 306.855469 37.585938 306.328125 37.652344 "/>
<path style=" stroke:none;fill-rule:nonzero;fill:rgb(16.078431%,54.901961%,49.411765%);fill-opacity:1;" d="M 284.171875 64.878906 C 280.757812 65.027344 277.449219 66.546875 275.308594 68.949219 C 275.003906 69.285156 274.714844 69.738281 274.933594 70.132812 C 275.148438 70.507812 275.71875 70.5625 276.1875 70.542969 C 278.539062 70.417969 280.832031 69.550781 282.570312 68.117188 C 282.214844 68.625 281.847656 69.152344 281.785156 69.75 C 281.726562 70.34375 282.101562 71.019531 282.746094 71.144531 C 283.457031 71.28125 284.101562 70.722656 284.53125 70.183594 C 285.480469 69 286.140625 67.242188 285.039062 66.171875 "/>
<path style=" stroke:none;fill-rule:nonzero;fill:rgb(16.078431%,54.901961%,49.411765%);fill-opacity:1;" d="M 245.277344 61.558594 C 246.433594 59.960938 248.183594 58.726562 250.167969 58.09375 C 250.476562 58 250.804688 57.914062 251.125 57.964844 C 251.832031 58.070312 252.242188 58.75 252.421875 59.378906 C 253.144531 61.882812 251.726562 64.761719 249.175781 65.945312 C 248.933594 66.058594 248.644531 66.15625 248.398438 66.039062 C 248.191406 65.933594 248.101562 65.710938 248.042969 65.511719 C 247.71875 64.308594 247.867188 63 248.453125 61.882812 C 247.09375 61.808594 245.71875 61.882812 244.378906 62.082031 C 244.410156 61.355469 244.875 60.667969 245.5625 60.292969 "/>
<path style=" stroke:none;fill-rule:nonzero;fill:rgb(16.078431%,54.901961%,49.411765%);fill-opacity:1;" d="M 319.675781 54.710938 C 319.695312 55.070312 320.257812 55.121094 320.648438 55.054688 C 323.734375 54.46875 326.671875 53.222656 329.125 51.441406 C 327.984375 54.042969 327.304688 56.796875 327.113281 59.585938 C 327.0625 60.328125 327.285156 61.324219 328.105469 61.355469 C 328.542969 61.375 328.90625 61.078125 329.195312 60.792969 C 330.960938 59.003906 331.839844 56.648438 332.460938 54.308594 C 332.441406 56.160156 333.097656 58 334.296875 59.488281 C 334.417969 59.636719 334.578125 59.796875 334.777344 59.789062 C 334.976562 59.78125 335.105469 59.59375 335.203125 59.4375 C 336.945312 56.492188 337.40625 49.164062 333.023438 47.578125 C 329.203125 46.199219 322.261719 52.644531 319.667969 54.71875 Z M 319.675781 54.710938 "/>
<path style=" stroke:none;fill-rule:nonzero;fill:rgb(16.078431%,54.901961%,49.411765%);fill-opacity:1;" d="M 370.496094 52.136719 C 368.273438 54.441406 366.488281 57.09375 365.261719 59.9375 C 365.089844 60.328125 364.949219 60.816406 365.242188 61.140625 C 365.628906 61.558594 366.371094 61.367188 366.898438 61.113281 C 370.28125 59.507812 373.136719 57.015625 375.015625 54.023438 C 372.605469 57.851562 377.679688 60.765625 378.789062 55.785156 C 379.378906 53.132812 377.410156 50.925781 374.859375 49.84375 C 371.785156 48.546875 368.207031 49.023438 365.539062 50.875 C 360.195312 54.589844 367.765625 54.003906 370.496094 52.136719 Z M 370.496094 52.136719 "/>
<path style=" stroke:none;fill-rule:nonzero;fill:rgb(16.078431%,54.901961%,49.411765%);fill-opacity:1;" d="M 242.199219 25.992188 C 244.792969 26.3125 247.460938 26.15625 249.984375 25.527344 C 247.488281 28.113281 244.867188 30.953125 244.589844 34.371094 C 244.550781 34.835938 244.621094 35.402344 245.085938 35.601562 C 245.511719 35.785156 246.007812 35.542969 246.398438 35.296875 C 249.089844 33.578125 251.300781 31.34375 253.488281 29.125 C 253.035156 31.449219 253.195312 33.875 253.984375 36.132812 C 254.09375 36.457031 254.269531 36.824219 254.628906 36.921875 C 255.117188 37.050781 255.550781 36.613281 255.8125 36.222656 C 257.84375 33.117188 258.660156 27.113281 255.308594 24.386719 C 251.863281 21.585938 245.480469 24.246094 242.191406 25.984375 Z M 242.199219 25.992188 "/>
<path style=" stroke:none;fill-rule:nonzero;fill:rgb(16.078431%,54.901961%,49.411765%);fill-opacity:1;" d="M 398.175781 39.902344 C 397.433594 40.207031 396.578125 40.6875 396.566406 41.429688 C 396.558594 43.644531 408.609375 39.125 409.558594 37.121094 C 406.007812 36.761719 401.390625 38.585938 398.171875 39.902344 Z M 398.175781 39.902344 "/>
<path style=" stroke:none;fill-rule:nonzero;fill:rgb(16.078431%,54.901961%,49.411765%);fill-opacity:1;" d="M 353.191406 27.097656 C 349.363281 27.300781 345.859375 29.976562 345 33.355469 C 346.015625 34.867188 348.222656 34.15625 349.902344 33.238281 C 351.914062 32.140625 352.558594 29.148438 353.183594 27.097656 Z M 353.191406 27.097656 "/>
<path style=" stroke:none;fill-rule:nonzero;fill:rgb(16.078431%,54.901961%,49.411765%);fill-opacity:1;" d="M 421.046875 101.207031 C 420.613281 101.546875 420.203125 102.183594 420.644531 102.507812 C 420.828125 102.636719 421.082031 102.644531 421.316406 102.636719 C 423.839844 102.585938 426.367188 102.234375 428.785156 101.582031 C 425.773438 105.480469 424.234375 110.285156 424.480469 115.039062 C 424.503906 115.617188 424.746094 116.347656 425.371094 116.359375 C 425.601562 116.359375 425.8125 116.261719 426.003906 116.15625 C 430.367188 113.898438 433.296875 109.519531 433.488281 104.984375 C 433.351562 107.183594 433.933594 109.425781 435.144531 111.335938 C 435.355469 111.65625 435.625 112.003906 436.042969 112.046875 C 436.300781 112.074219 436.554688 111.960938 436.773438 111.839844 C 437.882812 111.203125 438.515625 110.042969 438.714844 108.875 C 438.917969 107.707031 438.714844 106.507812 438.445312 105.351562 C 437.96875 103.289062 437.226562 101.207031 435.667969 99.648438 C 432.039062 96.019531 424.566406 98.46875 421.027344 101.207031 Z M 421.046875 101.207031 "/>
<path style=" stroke:none;fill-rule:nonzero;fill:rgb(16.078431%,54.901961%,49.411765%);fill-opacity:1;" d="M 440.953125 130.652344 C 440.515625 131.011719 440.09375 131.636719 440.507812 132.011719 C 440.726562 132.195312 441.058594 132.203125 441.351562 132.1875 C 443.765625 132.039062 446.140625 131.421875 448.261719 130.367188 C 446.847656 133.128906 446.203125 136.214844 446.421875 139.25 C 446.433594 139.4375 446.464844 139.644531 446.636719 139.738281 C 446.839844 139.851562 447.089844 139.738281 447.292969 139.628906 C 451.769531 137.011719 454.109375 131.71875 452.847656 127.035156 C 452.796875 126.851562 452.726562 126.648438 452.542969 126.550781 C 452.371094 126.464844 452.144531 126.507812 451.953125 126.550781 C 447.902344 127.582031 444.269531 128.0625 440.953125 130.644531 Z M 440.953125 130.652344 "/>
<path style=" stroke:none;fill-rule:nonzero;fill:rgb(16.078431%,54.901961%,49.411765%);fill-opacity:1;" d="M 458.265625 110.496094 C 456.390625 110.820312 454.476562 111.148438 452.847656 112.046875 C 451.222656 112.949219 449.933594 114.554688 450.0625 116.261719 C 453.84375 115.90625 457.429688 114.070312 459.730469 111.34375 "/>
<path style=" stroke:none;fill-rule:nonzero;fill:rgb(16.078431%,54.901961%,49.411765%);fill-opacity:1;" d="M 469.148438 139.199219 C 467.765625 137.386719 466.859375 135.265625 466.527344 133.078125 C 466.328125 131.734375 466.460938 130.207031 467.625 129.300781 C 469.085938 130.207031 469.570312 132.589844 469.804688 134.195312 C 469.917969 134.945312 469.019531 139.015625 469.148438 139.199219 Z M 469.148438 139.199219 "/>
</g>
</svg>
