<?xml version="1.0" encoding="UTF-8"?>
<svg xmlns="http://www.w3.org/2000/svg" xmlns:xlink="http://www.w3.org/1999/xlink" width="358px" height="403px" viewBox="0 0 215 365" version="1.1">
<g id="surface1">
<path style=" stroke:none;fill-rule:nonzero;fill:rgb(23.137255%,9.803922%,32.941176%);fill-opacity:1;" d="M 32.492188 142.769531 C 30.855469 144.835938 28.824219 146.554688 27.171875 148.605469 C 25.097656 151.175781 23.660156 154.195312 22.367188 157.226562 C 15.269531 173.9375 12.0625 192.269531 13.039062 210.394531 C 21.21875 205.863281 27.710938 198.878906 34.058594 192.023438 C 41.433594 184.054688 48.804688 176.085938 56.171875 168.117188 C 54.496094 172.5625 57.210938 177.308594 58.300781 181.9375 C 59.496094 187.019531 58.683594 192.324219 58.625 197.542969 C 58.5625 202.761719 59.480469 208.433594 63.277344 212.023438 C 64.625 195.441406 76.117188 181.695312 87.070312 169.167969 C 82.191406 162.949219 78.476562 155.816406 76.175781 148.253906 C 75.351562 145.527344 74.6875 142.703125 73.238281 140.253906 C 70.539062 135.703125 65.5625 133.097656 60.828125 130.714844 C 55.699219 128.140625 47.527344 121.027344 42.5 125.398438 C 37.613281 129.648438 36.492188 137.730469 32.472656 142.769531 Z M 32.492188 142.769531 "/>
<path style=" stroke:none;fill-rule:nonzero;fill:rgb(100%,78.431373%,46.666667%);fill-opacity:1;" d="M 11.664062 287.675781 L 11.664062 358.089844 C 11.664062 361.695312 52.210938 364.625 102.226562 364.625 C 152.238281 364.625 192.789062 361.703125 192.789062 358.089844 L 192.789062 287.675781 Z M 11.664062 287.675781 "/>
<path style=" stroke:none;fill-rule:nonzero;fill:rgb(61.960784%,43.529412%,37.647059%);fill-opacity:1;" d="M 102.226562 294.207031 C 152.242188 294.207031 192.789062 291.28125 192.789062 287.675781 C 192.789062 284.066406 152.242188 281.140625 102.226562 281.140625 C 52.210938 281.140625 11.664062 284.066406 11.664062 287.675781 C 11.664062 291.28125 52.210938 294.207031 102.226562 294.207031 Z M 102.226562 294.207031 "/>
<path style="fill:none;stroke-width:1;stroke-linecap:round;stroke-linejoin:round;stroke:rgb(100%,100%,100%);stroke-opacity:1;stroke-miterlimit:4;" d="M 256.443895 391.738677 C 256.443895 396.539384 202.501926 400.440283 135.974709 400.440283 C 69.442297 400.440283 15.505523 396.549786 15.505523 391.738677 " transform="matrix(0.751748,0,0,0.751029,0,0)"/>
<path style="fill:none;stroke-width:1;stroke-linecap:round;stroke-linejoin:round;stroke:rgb(100%,100%,100%);stroke-opacity:1;stroke-miterlimit:4;" d="M 256.443895 467.197667 C 256.443895 471.998373 202.501926 475.899272 135.974709 475.899272 C 69.442297 475.899272 15.505523 472.008776 15.505523 467.197667 " transform="matrix(0.751748,0,0,0.751029,0,0)"/>
<path style="fill:none;stroke-width:1;stroke-linecap:round;stroke-linejoin:round;stroke:rgb(100%,100%,100%);stroke-opacity:1;stroke-miterlimit:4;" d="M 23.803888 394.687757 L 23.803888 470.151948 " transform="matrix(0.751748,0,0,0.751029,0,0)"/>
<path style="fill:none;stroke-width:1;stroke-linecap:round;stroke-linejoin:round;stroke:rgb(100%,100%,100%);stroke-opacity:1;stroke-miterlimit:4;" d="M 32.762173 396.081678 L 32.762173 471.540668 " transform="matrix(0.751748,0,0,0.751029,0,0)"/>
<path style="fill:none;stroke-width:1;stroke-linecap:round;stroke-linejoin:round;stroke:rgb(100%,100%,100%);stroke-opacity:1;stroke-miterlimit:4;" d="M 41.736047 397.059503 L 41.736047 472.518493 " transform="matrix(0.751748,0,0,0.751029,0,0)"/>
<path style="fill:none;stroke-width:1;stroke-linecap:round;stroke-linejoin:round;stroke:rgb(100%,100%,100%);stroke-opacity:1;stroke-miterlimit:4;" d="M 50.486483 397.720056 L 50.486483 473.179045 " transform="matrix(0.751748,0,0,0.751029,0,0)"/>
<path style="fill:none;stroke-width:1;stroke-linecap:round;stroke-linejoin:round;stroke:rgb(100%,100%,100%);stroke-opacity:1;stroke-miterlimit:4;" d="M 59.663009 398.078938 C 59.663009 423.231935 59.663009 448.390133 59.663009 473.537928 " transform="matrix(0.751748,0,0,0.751029,0,0)"/>
<path style="fill:none;stroke-width:1;stroke-linecap:round;stroke-linejoin:round;stroke:rgb(100%,100%,100%);stroke-opacity:1;stroke-miterlimit:4;" d="M 68.642078 398.729088 L 68.642078 474.188078 " transform="matrix(0.751748,0,0,0.751029,0,0)"/>
<path style="fill:none;stroke-width:1;stroke-linecap:round;stroke-linejoin:round;stroke:rgb(100%,100%,100%);stroke-opacity:1;stroke-miterlimit:4;" d="M 77.615952 399.139983 L 77.615952 474.598973 " transform="matrix(0.751748,0,0,0.751029,0,0)"/>
<path style="fill:none;stroke-width:1;stroke-linecap:round;stroke-linejoin:round;stroke:rgb(100%,100%,100%);stroke-opacity:1;stroke-miterlimit:4;" d="M 86.595022 399.670505 L 86.595022 475.129495 " transform="matrix(0.751748,0,0,0.751029,0,0)"/>
<path style="fill:none;stroke-width:1;stroke-linecap:round;stroke-linejoin:round;stroke:rgb(100%,100%,100%);stroke-opacity:1;stroke-miterlimit:4;" d="M 95.574092 399.670505 L 95.574092 475.129495 " transform="matrix(0.751748,0,0,0.751029,0,0)"/>
<path style="fill:none;stroke-width:1;stroke-linecap:round;stroke-linejoin:round;stroke:rgb(100%,100%,100%);stroke-opacity:1;stroke-miterlimit:4;" d="M 104.542769 399.95137 C 104.542769 425.099165 104.542769 450.262564 104.542769 475.41036 " transform="matrix(0.751748,0,0,0.751029,0,0)"/>
<path style="fill:none;stroke-width:1;stroke-linecap:round;stroke-linejoin:round;stroke:rgb(100%,100%,100%);stroke-opacity:1;stroke-miterlimit:4;" d="M 113.521839 399.670505 L 113.521839 475.129495 " transform="matrix(0.751748,0,0,0.751029,0,0)"/>
<path style="fill:none;stroke-width:1;stroke-linecap:round;stroke-linejoin:round;stroke:rgb(100%,100%,100%);stroke-opacity:1;stroke-miterlimit:4;" d="M 122.506105 399.800535 C 122.506105 424.94833 122.506105 450.111729 122.506105 475.259525 " transform="matrix(0.751748,0,0,0.751029,0,0)"/>
<path style="fill:none;stroke-width:1;stroke-linecap:round;stroke-linejoin:round;stroke:rgb(100%,100%,100%);stroke-opacity:1;stroke-miterlimit:4;" d="M 131.495567 399.868151 L 131.495567 475.332342 " transform="matrix(0.751748,0,0,0.751029,0,0)"/>
<path style="fill:none;stroke-width:1;stroke-linecap:round;stroke-linejoin:round;stroke:rgb(100%,100%,100%);stroke-opacity:1;stroke-miterlimit:4;" d="M 140.474637 399.868151 L 140.474637 475.332342 " transform="matrix(0.751748,0,0,0.751029,0,0)"/>
<path style="fill:none;stroke-width:1;stroke-linecap:round;stroke-linejoin:round;stroke:rgb(100%,100%,100%);stroke-opacity:1;stroke-miterlimit:4;" d="M 149.453706 399.800535 C 149.453706 424.94833 149.453706 450.111729 149.453706 475.259525 " transform="matrix(0.751748,0,0,0.751029,0,0)"/>
<path style="fill:none;stroke-width:1;stroke-linecap:round;stroke-linejoin:round;stroke:rgb(100%,100%,100%);stroke-opacity:1;stroke-miterlimit:4;" d="M 158.432776 399.670505 L 158.432776 475.129495 " transform="matrix(0.751748,0,0,0.751029,0,0)"/>
<path style="fill:none;stroke-width:1;stroke-linecap:round;stroke-linejoin:round;stroke:rgb(100%,100%,100%);stroke-opacity:1;stroke-miterlimit:4;" d="M 167.411846 400.060595 L 167.411846 475.519585 " transform="matrix(0.751748,0,0,0.751029,0,0)"/>
<path style="fill:none;stroke-width:1;stroke-linecap:round;stroke-linejoin:round;stroke:rgb(100%,100%,100%);stroke-opacity:1;stroke-miterlimit:4;" d="M 176.396112 399.670505 L 176.396112 475.129495 " transform="matrix(0.751748,0,0,0.751029,0,0)"/>
<path style="fill:none;stroke-width:1;stroke-linecap:round;stroke-linejoin:round;stroke:rgb(100%,100%,100%);stroke-opacity:1;stroke-miterlimit:4;" d="M 185.364789 399.467658 C 185.364789 424.620655 185.364789 449.778853 185.364789 474.931849 " transform="matrix(0.751748,0,0,0.751029,0,0)"/>
<path style="fill:none;stroke-width:1;stroke-linecap:round;stroke-linejoin:round;stroke:rgb(100%,100%,100%);stroke-opacity:1;stroke-miterlimit:4;" d="M 194.343859 399.202397 L 194.343859 474.661387 " transform="matrix(0.751748,0,0,0.751029,0,0)"/>
<path style="fill:none;stroke-width:1;stroke-linecap:round;stroke-linejoin:round;stroke:rgb(100%,100%,100%);stroke-opacity:1;stroke-miterlimit:4;" d="M 203.322929 398.869521 L 203.322929 474.32851 " transform="matrix(0.751748,0,0,0.751029,0,0)"/>
<path style="fill:none;stroke-width:1;stroke-linecap:round;stroke-linejoin:round;stroke:rgb(100%,100%,100%);stroke-opacity:1;stroke-miterlimit:4;" d="M 212.291606 398.469028 L 212.291606 473.928018 " transform="matrix(0.751748,0,0,0.751029,0,0)"/>
<path style="fill:none;stroke-width:1;stroke-linecap:round;stroke-linejoin:round;stroke:rgb(100%,100%,100%);stroke-opacity:1;stroke-miterlimit:4;" d="M 221.26548 397.787671 L 221.26548 473.251862 " transform="matrix(0.751748,0,0,0.751029,0,0)"/>
<path style="fill:none;stroke-width:1;stroke-linecap:round;stroke-linejoin:round;stroke:rgb(100%,100%,100%);stroke-opacity:1;stroke-miterlimit:4;" d="M 230.234157 396.877461 C 230.234157 422.030458 230.234157 447.188656 230.234157 472.341652 " transform="matrix(0.751748,0,0,0.751029,0,0)"/>
<path style="fill:none;stroke-width:1;stroke-linecap:round;stroke-linejoin:round;stroke:rgb(100%,100%,100%);stroke-opacity:1;stroke-miterlimit:4;" d="M 239.192442 396.081678 L 239.192442 471.540668 " transform="matrix(0.751748,0,0,0.751029,0,0)"/>
<path style="fill:none;stroke-width:1;stroke-linecap:round;stroke-linejoin:round;stroke:rgb(100%,100%,100%);stroke-opacity:1;stroke-miterlimit:4;" d="M 248.155923 394.687757 L 248.155923 470.151948 " transform="matrix(0.751748,0,0,0.751029,0,0)"/>
<path style=" stroke:none;fill-rule:nonzero;fill:rgb(100%,78.431373%,46.666667%);fill-opacity:1;" d="M 80.273438 284.488281 C 80.273438 221.179688 59.585938 161.132812 39.230469 139.1875 L 165.703125 139.1875 C 145.347656 161.140625 124.65625 221.183594 124.65625 284.488281 C 124.65625 290.601562 80.273438 290.601562 80.273438 284.488281 Z M 80.273438 284.488281 "/>
<path style="fill:none;stroke-width:1;stroke-linecap:round;stroke-linejoin:round;stroke:rgb(100%,100%,100%);stroke-opacity:1;stroke-miterlimit:4;" d="M 112.84633 378.798095 C 112.84633 294.502269 90.965044 214.549443 69.442297 185.32911 " transform="matrix(0.751748,0,0,0.751029,0,0)"/>
<path style="fill:none;stroke-width:1;stroke-linecap:round;stroke-linejoin:round;stroke:rgb(100%,100%,100%);stroke-opacity:1;stroke-miterlimit:4;" d="M 203.172238 185.32911 C 181.654687 214.559846 159.773401 294.50747 159.773401 378.798095 " transform="matrix(0.751748,0,0,0.751029,0,0)"/>
<path style="fill:none;stroke-width:1;stroke-linecap:round;stroke-linejoin:round;stroke:rgb(100%,100%,100%);stroke-opacity:1;stroke-miterlimit:4;" d="M 120.453597 378.798095 C 120.453597 294.502269 105.675545 214.549443 91.131323 185.32911 " transform="matrix(0.751748,0,0,0.751029,0,0)"/>
<path style="fill:none;stroke-width:1;stroke-linecap:round;stroke-linejoin:round;stroke:rgb(100%,100%,100%);stroke-opacity:1;stroke-miterlimit:4;" d="M 181.47282 185.32911 C 166.933794 214.559846 152.155741 294.50747 152.155741 378.798095 " transform="matrix(0.751748,0,0,0.751029,0,0)"/>
<path style="fill:none;stroke-width:1;stroke-linecap:round;stroke-linejoin:round;stroke:rgb(100%,100%,100%);stroke-opacity:1;stroke-miterlimit:4;" d="M 128.564898 378.798095 C 128.564898 294.502269 121.342151 214.549443 114.244113 185.32911 " transform="matrix(0.751748,0,0,0.751029,0,0)"/>
<path style="fill:none;stroke-width:1;stroke-linecap:round;stroke-linejoin:round;stroke:rgb(100%,100%,100%);stroke-opacity:1;stroke-miterlimit:4;" d="M 158.375618 185.32911 C 151.272384 214.559846 144.054833 294.50747 144.054833 378.798095 " transform="matrix(0.751748,0,0,0.751029,0,0)"/>
<path style="fill:none;stroke-width:1;stroke-linecap:round;stroke-linejoin:round;stroke:rgb(100%,100%,100%);stroke-opacity:1;stroke-miterlimit:4;" d="M 136.302071 185.32911 L 136.302071 378.798095 " transform="matrix(0.751748,0,0,0.751029,0,0)"/>
<path style=" stroke:none;fill-rule:nonzero;fill:rgb(9.803922%,17.647059%,23.137255%);fill-opacity:1;" d="M 102.464844 147.015625 C 137.390625 147.015625 165.703125 143.511719 165.703125 139.1875 C 165.703125 134.867188 137.390625 131.363281 102.464844 131.363281 C 67.542969 131.363281 39.230469 134.867188 39.230469 139.1875 C 39.230469 143.511719 67.542969 147.015625 102.464844 147.015625 Z M 102.464844 147.015625 "/>
<path style=" stroke:none;fill-rule:nonzero;fill:rgb(61.960784%,43.529412%,37.647059%);fill-opacity:1;" d="M 131.117188 200.050781 C 128.28125 195.460938 124.273438 191.722656 120.042969 188.371094 C 116.5625 185.617188 112.847656 183.039062 110.089844 179.5625 C 106.140625 174.597656 104.300781 168.027344 99.59375 163.785156 C 95.664062 160.238281 89.933594 159.054688 84.832031 160.203125 C 82.839844 160.652344 79.28125 161.734375 78.003906 163.46875 C 76.433594 165.601562 78.003906 169.070312 79.664062 170.882812 C 81.355469 172.714844 83.808594 173.804688 85.230469 175.859375 C 86.941406 178.347656 86.746094 181.613281 86.816406 184.632812 C 86.980469 192.015625 89.535156 199.917969 95.707031 203.988281 C 97.910156 205.445312 100.503906 206.367188 102.347656 208.253906 C 105.40625 211.390625 105.714844 216.453125 108.683594 219.675781 C 110.316406 221.449219 112.578125 222.460938 114.621094 223.730469 C 116.667969 225 118.667969 226.726562 119.15625 229.085938 C 119.472656 230.617188 119.101562 232.210938 119.289062 233.765625 C 119.582031 236.175781 121.335938 238.363281 123.636719 239.164062 C 124.078125 235.363281 126.378906 231.851562 129.621094 229.824219 C 130.972656 222.265625 132.566406 214.9375 134.363281 207.914062 C 133.753906 205.152344 132.625 202.46875 131.136719 200.050781 Z M 131.117188 200.050781 "/>
<path style=" stroke:none;fill-rule:nonzero;fill:rgb(5.490196%,34.509804%,36.078431%);fill-opacity:1;" d="M 1.289062 110.519531 C -0.734375 106.058594 2.996094 101.296875 5.933594 97.378906 C 8.859375 93.480469 11.226562 89.164062 12.941406 84.601562 C 14.640625 80.074219 15.730469 75.261719 18.253906 71.128906 C 23.300781 62.882812 33.261719 58.679688 38.515625 50.566406 C 40.921875 46.855469 42.234375 42.464844 45.046875 39.046875 C 48.925781 34.328125 55.070312 32.144531 61.03125 30.808594 C 62.933594 30.378906 65.210938 30.125 66.554688 31.527344 C 68.253906 33.316406 67.132812 36.222656 67.398438 38.679688 C 67.707031 41.613281 70.171875 43.964844 72.929688 45.03125 C 75.6875 46.097656 78.726562 46.113281 81.679688 46.121094 C 80.148438 49.890625 82.410156 54.726562 86.28125 55.964844 C 84.523438 57.820312 83.539062 60.390625 83.613281 62.945312 C 88.199219 63.824219 92.03125 59.78125 95.789062 57.003906 C 99.632812 54.15625 104.480469 52.382812 109.210938 53.097656 C 113.9375 53.8125 118.351562 57.429688 119.085938 62.15625 C 119.246094 63.175781 119.246094 64.242188 119.671875 65.183594 C 120.667969 67.351562 123.476562 67.953125 125.859375 67.824219 C 129.996094 67.613281 133.941406 66.082031 138.007812 65.308594 C 142.074219 64.535156 146.667969 64.648438 149.871094 67.277344 C 151.5625 68.667969 152.683594 70.613281 153.765625 72.503906 C 156.1875 76.746094 158.660156 81.1875 158.992188 86.058594 C 159.179688 88.890625 158.628906 91.707031 158.402344 94.539062 C 158.019531 99.367188 158.613281 104.265625 160.125 108.867188 C 161.71875 113.707031 164.816406 117.875 166.636719 122.621094 C 167.371094 124.542969 168.117188 126.511719 168.222656 128.570312 C 168.355469 131.292969 167.351562 134 167.664062 136.710938 C 168.320312 142.371094 174.167969 145.746094 177.414062 150.429688 C 180.308594 154.613281 181.097656 159.886719 181.390625 164.964844 C 181.488281 166.714844 181.550781 168.492188 182.0625 170.175781 C 182.585938 171.894531 183.566406 173.433594 184.4375 175.003906 C 190.917969 186.691406 191.644531 201.394531 186.347656 213.660156 C 187.105469 208.636719 184.84375 203.273438 180.707031 200.300781 C 176.003906 196.914062 169.265625 196.5 165.589844 192.007812 C 164.167969 190.265625 163.386719 188.109375 162.34375 186.121094 C 159.816406 181.304688 155.75 177.503906 151.757812 173.8125 C 148.351562 170.648438 144.59375 167.328125 139.972656 166.855469 C 138.917969 166.75 137.84375 166.796875 136.8125 166.53125 C 135.421875 166.1875 134.234375 165.308594 133.046875 164.496094 C 122.417969 157.210938 109.261719 153.683594 96.40625 154.683594 C 93.664062 154.890625 90.859375 155.296875 88.199219 154.585938 C 85.535156 153.871094 83.042969 151.65625 83.046875 148.90625 C 76.027344 148.441406 68.9375 148.921875 62.042969 150.339844 C 60.976562 150.558594 59.878906 150.8125 58.992188 151.453125 C 58.023438 152.152344 57.414062 153.230469 56.664062 154.164062 C 53.902344 157.589844 48.851562 158.957031 44.746094 157.378906 C 44.117188 157.136719 43.5 156.824219 43.039062 156.320312 C 42.160156 155.34375 42.101562 153.910156 42.09375 152.59375 C 42.070312 149.183594 42.046875 145.773438 42.019531 142.371094 C 41.996094 139.644531 41.921875 136.71875 40.3125 134.515625 C 38.035156 131.390625 33.636719 130.875 30.328125 128.863281 C 26.742188 126.675781 24.480469 122.46875 24.628906 118.28125 C 24.847656 112.367188 29.382812 107.308594 29.789062 101.402344 C 30.050781 97.625 28.570312 93.917969 26.554688 90.710938 C 18.390625 98.015625 10.105469 104.015625 1.296875 110.527344 Z M 1.289062 110.519531 "/>
<path style=" stroke:none;fill-rule:nonzero;fill:rgb(23.137255%,9.803922%,32.941176%);fill-opacity:1;" d="M 160.117188 108.847656 C 158.605469 104.25 158.011719 99.347656 158.394531 94.515625 C 158.621094 91.691406 159.171875 88.871094 158.984375 86.039062 C 158.652344 81.164062 156.179688 76.734375 153.757812 72.480469 C 152.675781 70.582031 151.554688 68.636719 149.863281 67.253906 C 146.660156 64.625 142.070312 64.511719 138 65.285156 C 134.167969 66.015625 130.445312 67.398438 126.566406 67.742188 L 126.566406 115.710938 L 163.269531 115.710938 C 162.074219 113.480469 160.90625 111.242188 160.117188 108.839844 Z M 160.117188 108.847656 "/>
<path style=" stroke:none;fill-rule:nonzero;fill:rgb(23.137255%,9.803922%,32.941176%);fill-opacity:1;" d="M 181.378906 164.941406 C 181.085938 159.863281 180.300781 154.589844 177.402344 150.410156 C 177.175781 150.085938 176.933594 149.769531 176.6875 149.453125 C 176.65625 149.453125 176.625 149.441406 176.605469 149.433594 C 172.445312 148.441406 168.09375 148.28125 163.875 148.964844 C 162.3125 149.222656 160.734375 149.605469 159.417969 150.476562 C 157.011719 152.074219 155.894531 155.066406 155.5625 157.933594 C 155.230469 160.804688 155.53125 163.714844 155.222656 166.59375 C 154.914062 169.539062 153.992188 172.375 153.316406 175.261719 C 156.773438 178.503906 160.125 181.914062 162.320312 186.097656 C 162.507812 186.449219 162.671875 186.8125 162.855469 187.171875 C 165.148438 184.054688 166.289062 179.121094 166.425781 176.152344 C 166.515625 174.179688 166.320312 172.171875 166.761719 170.25 C 167.550781 166.839844 170.289062 163.339844 168.648438 160.246094 C 172.515625 159.640625 175.84375 162.6875 179 164.992188 C 179.796875 165.570312 180.632812 166.105469 181.476562 166.617188 C 181.4375 166.058594 181.398438 165.496094 181.371094 164.941406 Z M 181.378906 164.941406 "/>
<path style=" stroke:none;fill-rule:nonzero;fill:rgb(23.137255%,9.803922%,32.941176%);fill-opacity:1;" d="M 133.484375 115.980469 C 131.851562 114.539062 129.980469 113.351562 128.621094 111.65625 C 126.9375 109.558594 126.191406 106.886719 125.328125 104.339844 C 123.769531 99.75 121.695312 95.328125 119.171875 91.199219 C 116.839844 87.382812 114.089844 83.746094 112.675781 79.503906 C 109.929688 71.25 112.613281 61.816406 109.300781 53.773438 C 109.203125 53.535156 109.089844 53.292969 108.976562 53.058594 C 104.316406 52.429688 99.566406 54.1875 95.785156 56.980469 C 92.03125 59.757812 88.199219 63.800781 83.605469 62.921875 C 83.542969 60.796875 84.230469 58.664062 85.476562 56.933594 C 83.035156 58.160156 80.546875 59.210938 77.9375 59.699219 C 75.644531 60.128906 72.417969 59.316406 72.523438 56.988281 C 72.578125 55.867188 73.449219 54.996094 74.003906 54.023438 C 75.222656 51.894531 74.90625 49.265625 74.554688 46.839844 C 74.484375 46.375 74.417969 45.917969 74.351562 45.453125 C 73.871094 45.324219 73.386719 45.1875 72.921875 45 C 70.164062 43.941406 67.699219 41.585938 67.390625 38.648438 C 67.15625 36.410156 68.042969 33.796875 66.910156 32 C 63.128906 32.878906 59.511719 34.503906 56.367188 36.785156 C 55.429688 37.46875 54.453125 38.347656 54.414062 39.503906 C 54.332031 41.660156 57.1875 42.441406 59.339844 42.554688 C 61.488281 42.671875 64.34375 43.597656 64.121094 45.738281 C 64.03125 46.585938 63.421875 47.277344 62.839844 47.90625 C 59.59375 51.421875 56.285156 54.878906 52.917969 58.273438 C 51.503906 59.699219 50.007812 61.15625 48.121094 61.839844 C 45.371094 62.832031 42.207031 62.011719 39.46875 63.054688 C 36.757812 64.09375 35.011719 66.773438 33.960938 69.484375 C 32.90625 72.195312 32.34375 75.09375 31.003906 77.679688 C 28.886719 81.773438 25.058594 84.640625 21.691406 87.789062 C 18.480469 90.792969 10.4375 98.503906 9.484375 104.445312 C 15.316406 100.082031 20.96875 95.695312 26.554688 90.6875 C 28.570312 93.894531 30.050781 97.605469 29.789062 101.382812 C 29.425781 106.5625 25.886719 111.101562 24.886719 116.140625 C 30.824219 118.210938 37.085938 119.691406 42.664062 120.894531 C 53.78125 123.28125 65.285156 124.175781 75.976562 128.042969 C 84.792969 131.234375 92.769531 136.347656 101.164062 140.523438 C 109.5625 144.699219 118.800781 147.996094 128.144531 147.125 C 130.191406 146.929688 132.273438 146.527344 134.015625 145.445312 C 135.898438 144.28125 137.257812 142.425781 138.242188 140.449219 C 142.242188 132.457031 140.1875 121.898438 133.484375 115.980469 Z M 133.484375 115.980469 "/>
<path style=" stroke:none;fill-rule:nonzero;fill:rgb(29.019608%,64.705882%,52.156863%);fill-opacity:1;" d="M 117.386719 139.113281 C 119.011719 140.398438 121.53125 139.742188 123.003906 138.292969 C 124.476562 136.84375 125.191406 134.808594 125.972656 132.894531 C 127.417969 129.355469 129.429688 125.78125 132.8125 124.011719 C 137.511719 121.546875 143.25 123.265625 148.519531 122.613281 C 150.855469 122.328125 153.113281 121.5625 155.449219 121.277344 C 159.171875 120.816406 163.035156 121.605469 166.273438 123.492188 C 163.636719 126.511719 163.070312 130.820312 163.261719 134.824219 C 163.449219 138.828125 164.265625 142.824219 163.90625 146.820312 C 163.660156 149.574219 162.847656 152.277344 162.914062 155.042969 C 162.972656 157.40625 163.679688 159.765625 163.359375 162.109375 C 162.800781 166.089844 159.394531 169.246094 158.886719 173.230469 C 158.683594 174.785156 158.9375 176.355469 158.96875 177.925781 C 159.042969 182.417969 157.101562 186.910156 153.789062 189.941406 C 151.691406 191.867188 151.910156 195.117188 151.75 197.957031 C 151.570312 201.230469 149.925781 204.390625 147.351562 206.421875 C 145.652344 207.765625 143.558594 208.644531 142.179688 210.3125 C 140.796875 211.984375 140.332031 214.214844 139.511719 216.230469 C 137.566406 221.011719 133.324219 224.8125 128.347656 226.21875 C 127.335938 226.503906 126.273438 226.707031 125.402344 227.300781 C 124.410156 227.976562 123.769531 229.144531 123.742188 230.347656 C 123.785156 227.292969 122.867188 224.414062 122.914062 221.359375 C 122.929688 220.410156 122.9375 219.429688 122.574219 218.558594 C 121.914062 216.949219 120.199219 216.070312 118.605469 215.371094 C 114.945312 213.757812 111.027344 212.226562 108.480469 209.140625 C 106.730469 207.011719 105.773438 204.332031 104.074219 202.167969 C 101.488281 198.878906 97.285156 196.925781 95.445312 193.171875 C 92.695312 187.578125 96.1875 179.953125 92.332031 175.058594 C 90.617188 172.871094 87.753906 171.761719 86.230469 169.441406 C 84.792969 167.253906 84.835938 164.445312 84.929688 161.832031 C 85.035156 158.835938 85.144531 155.839844 85.25 152.847656 C 85.355469 150.003906 85.378906 146.917969 83.679688 144.632812 C 82.28125 142.753906 79.980469 141.808594 78.191406 140.308594 C 74.359375 137.09375 73.246094 131.078125 75.675781 126.707031 C 80.238281 124.121094 85.875 123.980469 91.023438 122.957031 C 93.128906 122.539062 95.203125 121.929688 97.339844 121.703125 C 102.023438 121.214844 106.886719 122.75 110.449219 125.820312 C 114.011719 128.890625 117.191406 134.410156 117.394531 139.113281 Z M 117.386719 139.113281 "/>
<path style=" stroke:none;fill-rule:nonzero;fill:rgb(100%,98.039216%,92.54902%);fill-opacity:1;" d="M 128.355469 146.449219 C 132.421875 144.28125 136.625 142.035156 141.152344 140.886719 C 145.5625 139.765625 150.210938 139.699219 154.707031 139.640625 L 163.449219 139.519531 C 163.410156 139.121094 163.367188 138.730469 163.328125 138.332031 L 154.691406 138.453125 C 150.128906 138.511719 145.40625 138.578125 140.859375 139.738281 C 136.195312 140.921875 131.925781 143.199219 127.800781 145.40625 C 126.597656 146.046875 125.371094 146.824219 124.679688 147.898438 C 124.355469 147.019531 123.980469 146.203125 123.558594 145.445312 C 124.050781 144.21875 124.832031 143.101562 125.597656 142.019531 C 127.988281 138.625 130.964844 134.402344 135.308594 132.738281 C 137.820312 131.777344 140.503906 131.738281 143.347656 131.699219 C 144.59375 131.683594 145.886719 131.664062 147.148438 131.558594 C 149.9375 131.324219 152.734375 130.65625 155.441406 130.019531 C 158.230469 129.355469 160.921875 128.71875 163.574219 128.515625 C 163.671875 128.109375 163.785156 127.703125 163.921875 127.308594 C 160.976562 127.480469 158.042969 128.179688 155.164062 128.863281 C 152.503906 129.5 149.75 130.152344 147.050781 130.378906 C 145.828125 130.476562 144.558594 130.5 143.324219 130.515625 C 140.503906 130.550781 137.589844 130.589844 134.882812 131.625 C 130.207031 133.414062 127.117188 137.804688 124.628906 141.328125 C 123.980469 142.246094 123.328125 143.183594 122.808594 144.21875 C 121.867188 142.882812 120.757812 141.792969 119.484375 141 L 119.3125 140.894531 C 118.898438 140.636719 118.5 140.398438 118.34375 140.066406 C 118.277344 139.933594 118.261719 139.789062 118.269531 139.640625 C 117.882812 139.527344 117.515625 139.367188 117.183594 139.105469 C 117.183594 139.066406 117.183594 139.03125 117.179688 138.992188 C 117.027344 139.503906 117.019531 140.035156 117.277344 140.570312 C 117.582031 141.222656 118.179688 141.582031 118.695312 141.898438 L 118.863281 141.996094 C 119.269531 142.253906 119.636719 142.539062 119.988281 142.832031 C 119.597656 142.695312 119.207031 142.574219 118.816406 142.457031 C 117.9375 142.183594 117.027344 141.90625 116.246094 141.507812 C 114.644531 140.699219 113.410156 139.351562 112.117188 137.941406 C 111.609375 137.386719 111.097656 136.824219 110.5625 136.296875 C 105.652344 131.46875 97.976562 128.953125 89.527344 129.371094 C 84.257812 129.636719 79.085938 130.941406 74.222656 132.464844 C 74.246094 132.871094 74.289062 133.269531 74.351562 133.667969 C 79.207031 132.136719 84.371094 130.820312 89.589844 130.558594 C 97.707031 130.136719 105.050781 132.550781 109.726562 137.136719 C 110.246094 137.648438 110.742188 138.1875 111.238281 138.738281 C 112.554688 140.171875 113.90625 141.660156 115.703125 142.566406 C 116.585938 143.011719 117.539062 143.304688 118.464844 143.589844 C 119.875 144.023438 121.199219 144.46875 122.160156 145.363281 C 122.53125 145.941406 122.847656 146.539062 123.117188 147.148438 C 120.816406 145.65625 117.757812 145.273438 114.921875 145.0625 L 101.5625 144.078125 C 99.113281 143.898438 96.585938 143.703125 94.078125 143.738281 C 90.605469 143.785156 87.144531 144.242188 83.777344 145.089844 C 83.996094 145.445312 84.183594 145.804688 84.335938 146.179688 C 87.523438 145.390625 90.800781 144.964844 94.09375 144.925781 C 96.550781 144.894531 99.054688 145.082031 101.488281 145.265625 L 114.839844 146.246094 C 118.253906 146.503906 122.019531 147.007812 123.996094 149.539062 C 124.175781 150.144531 124.320312 150.730469 124.433594 151.292969 L 124.050781 151.363281 C 120.703125 151.976562 117.351562 152.59375 114.011719 153.226562 C 110.894531 153.816406 107.78125 154.417969 104.660156 155.027344 L 101.300781 155.679688 C 98.566406 156.214844 95.730469 156.761719 93.054688 157.730469 C 90.703125 158.585938 88.515625 159.730469 85.964844 161.1875 C 85.550781 161.425781 85.136719 161.679688 84.726562 161.921875 C 84.710938 162.386719 84.695312 162.851562 84.695312 163.320312 C 85.320312 162.949219 85.929688 162.566406 86.550781 162.214844 C 89.046875 160.789062 91.183594 159.675781 93.460938 158.84375 C 96.054688 157.902344 98.835938 157.363281 101.601562 156.824219 L 104.886719 156.183594 C 108 155.574219 111.113281 154.976562 114.230469 154.382812 C 117.578125 153.75 120.921875 153.136719 124.265625 152.519531 L 124.644531 152.453125 C 124.6875 152.757812 124.734375 153.050781 124.761719 153.324219 C 124.832031 153.894531 124.859375 154.472656 124.90625 155.042969 C 123.296875 155.289062 121.75 155.824219 120.183594 156.417969 C 112.089844 159.480469 105.871094 162.558594 100.640625 166.121094 C 97.054688 168.554688 93.933594 171.234375 91.273438 174.109375 C 91.558594 174.382812 91.835938 174.675781 92.085938 174.980469 C 94.691406 172.144531 97.761719 169.507812 101.300781 167.105469 C 106.457031 163.605469 112.59375 160.5625 120.597656 157.527344 C 122.070312 156.972656 123.523438 156.46875 124.996094 156.230469 C 125.046875 157.128906 125.078125 158.023438 125.109375 158.910156 C 125.117188 159.1875 125.132812 159.472656 125.140625 159.757812 C 123.859375 160.433594 122.824219 161.433594 121.824219 162.433594 C 121.425781 162.832031 121.027344 163.230469 120.605469 163.605469 C 119.394531 164.699219 117.988281 165.625 116.628906 166.519531 L 115.605469 167.195312 C 110.914062 170.339844 106.632812 174.066406 102.851562 178.273438 C 101.683594 179.570312 100.195312 181.320312 99.082031 183.289062 C 98.015625 185.171875 97.277344 187.238281 96.566406 189.238281 C 96.105469 190.511719 95.664062 191.761719 95.144531 192.945312 C 95.175781 193.015625 95.195312 193.074219 95.226562 193.140625 C 95.414062 193.519531 95.640625 193.871094 95.867188 194.214844 C 96.574219 192.730469 97.136719 191.167969 97.683594 189.636719 C 98.375 187.683594 99.097656 185.667969 100.113281 183.875 C 101.164062 182.011719 102.535156 180.398438 103.738281 179.066406 C 107.449219 174.9375 111.667969 171.273438 116.277344 168.183594 L 117.289062 167.507812 C 118.6875 166.59375 120.132812 165.640625 121.410156 164.484375 C 121.839844 164.09375 122.253906 163.679688 122.664062 163.265625 C 123.492188 162.441406 124.289062 161.660156 125.199219 161.082031 C 125.28125 162.859375 125.441406 164.65625 125.761719 166.421875 C 125.746094 166.433594 125.734375 166.441406 125.71875 166.457031 C 124.492188 168.605469 122.972656 170.574219 121.652344 172.21875 C 120.628906 173.480469 119.582031 174.726562 118.53125 175.964844 C 116.222656 178.691406 113.839844 181.515625 111.804688 184.542969 C 108.59375 189.296875 105.96875 194.9375 103.699219 201.9375 C 103.75 202.003906 103.820312 202.0625 103.871094 202.132812 C 104.121094 202.449219 104.34375 202.777344 104.570312 203.109375 C 106.863281 195.839844 109.519531 190.046875 112.789062 185.195312 C 114.796875 182.230469 117.15625 179.429688 119.441406 176.722656 C 120.492188 175.476562 121.554688 174.222656 122.574219 172.953125 C 123.71875 171.542969 124.996094 169.882812 126.132812 168.066406 C 126.726562 170.402344 127.605469 172.652344 128.5 174.847656 C 127.183594 176.363281 126.09375 178.0625 125.054688 179.722656 L 117.296875 192.074219 C 116.570312 193.230469 115.816406 194.433594 115.277344 195.753906 C 114.703125 197.152344 114.402344 198.625 114.109375 200.042969 C 113.292969 204.03125 112.457031 208.109375 112 212.242188 C 112.367188 212.464844 112.742188 212.691406 113.125 212.894531 C 113.5625 208.636719 114.425781 204.414062 115.277344 200.285156 C 115.554688 198.917969 115.847656 197.503906 116.375 196.207031 C 116.871094 194.980469 117.597656 193.824219 118.296875 192.714844 L 126.054688 180.359375 C 126.964844 178.910156 127.914062 177.429688 128.996094 176.09375 C 129.875 178.234375 130.746094 180.425781 131.304688 182.664062 C 131.566406 183.730469 131.738281 184.820312 131.867188 185.917969 C 131.792969 185.960938 131.722656 186.007812 131.671875 186.074219 C 125.761719 194.417969 121.476562 204.097656 119.269531 214.082031 C 119.15625 214.578125 119.058594 215.09375 118.960938 215.613281 C 119.335938 215.785156 119.703125 215.980469 120.066406 216.183594 C 120.175781 215.554688 120.296875 214.9375 120.433594 214.335938 C 122.53125 204.867188 126.53125 195.65625 132.023438 187.652344 C 132.023438 187.660156 132.023438 187.667969 132.03125 187.675781 C 132.121094 189.46875 132.03125 191.273438 131.753906 193.03125 C 131.589844 194.066406 131.355469 195.125 131.128906 196.152344 C 130.703125 198.089844 130.25 200.105469 130.234375 202.15625 C 130.222656 203.542969 130.410156 204.925781 130.582031 206.261719 C 130.65625 206.855469 130.730469 207.433594 130.792969 208.011719 C 130.761719 208.027344 130.722656 208.027344 130.695312 208.050781 C 126.890625 210.566406 123.980469 214.335938 122.378906 218.59375 C 122.71875 219.457031 122.710938 220.410156 122.695312 221.34375 C 122.695312 221.425781 122.695312 221.515625 122.695312 221.597656 C 123.824219 216.753906 126.726562 212.324219 130.777344 209.433594 C 130.820312 209.53125 130.867188 209.621094 130.914062 209.71875 C 130.921875 210.121094 130.914062 210.527344 130.890625 210.933594 C 130.6875 213.824219 129.347656 216.664062 128.273438 218.941406 C 126.71875 222.238281 125.101562 225.527344 123.460938 228.792969 C 123.5 229.304688 123.53125 229.816406 123.515625 230.332031 C 123.546875 229.132812 124.175781 227.960938 125.175781 227.285156 C 125.34375 227.171875 125.515625 227.089844 125.6875 227 C 126.929688 224.488281 128.152344 221.964844 129.347656 219.441406 C 130.339844 217.339844 131.542969 214.785156 131.957031 212.058594 C 132.511719 213.40625 133.003906 214.777344 133.289062 216.199219 C 133.535156 217.453125 133.640625 218.757812 133.746094 220.035156 L 133.996094 223.144531 C 134.378906 222.84375 134.753906 222.539062 135.105469 222.199219 L 134.925781 219.929688 C 134.820312 218.625 134.714844 217.28125 134.453125 215.957031 C 133.988281 213.652344 133.0625 211.496094 132.09375 209.410156 C 132.046875 208.289062 131.914062 207.179688 131.769531 206.097656 C 131.597656 204.796875 131.421875 203.460938 131.429688 202.15625 C 131.445312 200.230469 131.882812 198.285156 132.296875 196.402344 C 132.527344 195.363281 132.761719 194.285156 132.933594 193.210938 C 133.046875 192.488281 133.121094 191.769531 133.183594 191.039062 C 134.039062 193.921875 134.664062 196.90625 135.265625 199.828125 C 136.316406 204.933594 137.40625 210.183594 139.78125 214.875 C 139.972656 214.351562 140.152344 213.816406 140.347656 213.292969 C 138.378906 208.996094 137.378906 204.234375 136.421875 199.585938 C 135.589844 195.53125 134.722656 191.355469 133.21875 187.441406 C 133.121094 185.730469 132.875 184.023438 132.46875 182.371094 C 132.152344 181.117188 131.753906 179.894531 131.304688 178.683594 C 131.859375 179.421875 132.445312 180.140625 133.023438 180.847656 C 133.695312 181.660156 134.386719 182.5 135.007812 183.347656 C 137.519531 186.757812 139.273438 190.746094 140.972656 194.597656 C 142.722656 198.570312 144.527344 202.679688 147.179688 206.226562 C 147.195312 206.246094 147.21875 206.269531 147.234375 206.292969 C 147.542969 206.042969 147.835938 205.78125 148.121094 205.496094 C 145.554688 202.058594 143.78125 198.023438 142.0625 194.117188 C 140.339844 190.207031 138.550781 186.15625 135.972656 182.644531 C 135.324219 181.765625 134.625 180.914062 133.949219 180.089844 C 132.414062 178.226562 130.972656 176.46875 130.039062 174.375 C 129.957031 174.195312 129.792969 174.066406 129.597656 174.027344 C 129.550781 174.019531 129.507812 174.027344 129.460938 174.035156 C 128.816406 172.457031 128.191406 170.859375 127.6875 169.230469 C 128.898438 170.191406 130.332031 170.890625 131.746094 171.566406 C 133.046875 172.1875 134.394531 172.839844 135.511719 173.675781 C 136.730469 174.589844 137.746094 175.792969 138.730469 176.957031 C 142.136719 180.992188 145.660156 185.152344 148.539062 189.671875 C 148.773438 190.039062 149.007812 190.410156 149.234375 190.777344 C 150 192.007812 150.796875 193.277344 151.734375 194.441406 C 151.789062 193.878906 151.878906 193.328125 152.007812 192.804688 C 151.382812 191.941406 150.796875 191.046875 150.238281 190.152344 C 150.007812 189.777344 149.773438 189.410156 149.539062 189.035156 C 146.617188 184.445312 143.066406 180.246094 139.640625 176.191406 C 138.617188 174.976562 137.550781 173.71875 136.234375 172.730469 C 135.023438 171.820312 133.625 171.144531 132.273438 170.5 C 130.222656 169.507812 128.273438 168.5625 127.078125 166.894531 C 127.078125 166.871094 127.0625 166.839844 127.054688 166.820312 C 126.640625 164.867188 126.492188 162.839844 126.394531 160.832031 C 130.183594 162.261719 133.808594 164.234375 137.300781 166.164062 L 144.5625 170.160156 C 145.960938 170.933594 147.414062 171.730469 148.683594 172.714844 C 149.730469 173.523438 150.683594 174.488281 151.617188 175.417969 C 153.804688 177.617188 156.148438 179.992188 158.089844 182.65625 C 158.230469 182.167969 158.367188 181.679688 158.464844 181.179688 C 156.601562 178.765625 154.464844 176.597656 152.457031 174.578125 C 151.503906 173.617188 150.519531 172.625 149.414062 171.773438 C 148.066406 170.730469 146.578125 169.914062 145.144531 169.125 L 137.882812 165.128906 C 134.199219 163.101562 130.394531 161.011719 126.347656 159.546875 C 126.34375 159.324219 126.328125 159.089844 126.320312 158.863281 C 126.289062 157.957031 126.25 157.023438 126.199219 156.09375 C 127.453125 156.027344 128.730469 156.140625 129.980469 156.25 C 137.015625 156.921875 144.285156 157.601562 151.007812 160.113281 C 155.097656 161.636719 158.667969 163.769531 161.605469 166.367188 C 161.800781 166 161.980469 165.632812 162.15625 165.265625 C 159.164062 162.671875 155.546875 160.539062 151.425781 159 C 144.5625 156.4375 137.210938 155.742188 130.101562 155.074219 C 128.800781 154.945312 127.453125 154.832031 126.109375 154.914062 C 126.0625 154.335938 126.035156 153.757812 125.964844 153.179688 C 125.929688 152.855469 125.867188 152.550781 125.816406 152.234375 L 132.085938 151.078125 C 135.851562 150.386719 139.746094 149.664062 143.625 149.363281 C 150.5625 148.832031 157.195312 149.726562 162.953125 151.910156 C 163.011719 151.511719 163.070312 151.113281 163.140625 150.714844 C 157.269531 148.53125 150.546875 147.644531 143.535156 148.191406 C 139.59375 148.5 135.671875 149.222656 131.875 149.921875 L 125.628906 151.070312 C 125.53125 150.582031 125.402344 150.117188 125.28125 149.65625 C 125.296875 149.613281 125.335938 149.582031 125.335938 149.53125 C 125.476562 148.164062 126.890625 147.230469 128.394531 146.429688 Z M 128.355469 146.449219 "/>
<path style=" stroke:none;fill-rule:nonzero;fill:rgb(5.490196%,34.509804%,36.078431%);fill-opacity:1;" d="M 155.441406 121.269531 C 153.105469 121.554688 150.847656 122.320312 148.511719 122.605469 C 143.242188 123.25 137.503906 121.539062 132.808594 124.003906 C 130.535156 125.195312 128.890625 127.203125 127.613281 129.460938 C 131.378906 131.378906 135.105469 133.269531 137.210938 136.824219 C 138.453125 138.910156 139.007812 141.441406 140.714844 143.175781 C 142.84375 145.339844 146.136719 145.675781 149.097656 146.308594 C 152.066406 146.9375 155.359375 148.425781 156.050781 151.378906 C 156.546875 153.519531 155.5625 156.125 157.027344 157.769531 C 157.148438 158.984375 158.328125 159.910156 159.5 160.246094 C 160.800781 160.621094 162.109375 160.996094 163.410156 161.375 C 163.523438 159.269531 162.960938 157.152344 162.90625 155.035156 C 162.839844 152.269531 163.652344 149.558594 163.898438 146.8125 C 164.261719 142.824219 163.449219 138.828125 163.253906 134.816406 C 163.066406 130.8125 163.628906 126.503906 166.265625 123.484375 C 163.027344 121.597656 159.164062 120.808594 155.441406 121.269531 Z M 155.441406 121.269531 "/>
<path style=" stroke:none;fill-rule:nonzero;fill:rgb(5.490196%,34.509804%,36.078431%);fill-opacity:1;" d="M 94.484375 136.753906 C 94.828125 135.125 95.804688 133.683594 96.160156 132.0625 C 96.902344 128.6875 94.917969 125.632812 93.234375 122.460938 C 92.492188 122.636719 91.753906 122.808594 91.007812 122.949219 C 85.859375 123.972656 80.222656 124.109375 75.660156 126.699219 C 73.230469 131.070312 74.34375 137.085938 78.175781 140.300781 C 79.972656 141.800781 82.265625 142.746094 83.664062 144.625 C 85.363281 146.910156 85.332031 149.996094 85.234375 152.84375 C 85.132812 155.839844 85.019531 158.835938 84.914062 161.824219 C 84.824219 164.4375 84.777344 167.246094 86.214844 169.433594 C 86.332031 169.621094 86.476562 169.785156 86.621094 169.957031 C 86.738281 169.898438 86.84375 169.816406 86.980469 169.769531 C 90.542969 168.554688 93.300781 165.257812 93.875 161.539062 C 94.191406 159.449219 93.875 157.296875 94.289062 155.230469 C 94.746094 152.96875 96.078125 150.917969 96.300781 148.621094 C 96.699219 144.601562 93.65625 140.707031 94.484375 136.753906 Z M 94.484375 136.753906 "/>
<path style=" stroke:none;fill-rule:nonzero;fill:rgb(5.490196%,34.509804%,36.078431%);fill-opacity:1;" d="M 31.605469 40.921875 C 33.875 40.375 36.199219 40.042969 38.410156 39.308594 C 40.507812 38.609375 42.460938 37.542969 44.410156 36.492188 C 47.519531 34.800781 50.632812 33.113281 53.746094 31.421875 C 55.144531 30.664062 56.558594 29.898438 58.089844 29.449219 C 59.976562 28.898438 61.96875 28.847656 63.886719 28.417969 C 68.570312 27.367188 72.507812 24.109375 77.171875 22.972656 C 80.652344 22.125 84.335938 22.507812 87.828125 21.710938 C 90.492188 21.105469 92.996094 19.796875 95.015625 17.964844 C 96.03125 17.039062 96.964844 15.914062 97.167969 14.554688 C 97.371094 13.195312 96.550781 11.625 95.195312 11.414062 C 94.054688 11.234375 93.007812 12 92.007812 12.578125 C 88.371094 14.691406 83.921875 14.621094 79.710938 14.496094 C 77.953125 14.441406 76.164062 14.382812 74.515625 13.757812 C 73.3125 13.300781 72.230469 12.558594 70.992188 12.210938 C 67.976562 11.355469 64.871094 12.976562 62.15625 14.546875 C 54.867188 18.753906 47.527344 22.988281 41.144531 28.472656 C 38.566406 30.6875 36.140625 33.105469 33.320312 35.003906 C 30.976562 36.589844 28.402344 37.800781 25.914062 39.144531 C 24.34375 39.992188 19.804688 41.847656 19.21875 43.695312 C 18.113281 47.164062 22.15625 44.730469 23.269531 44.136719 C 25.902344 42.726562 28.710938 41.652344 31.605469 40.953125 Z M 31.605469 40.921875 "/>
<path style="fill:none;stroke-width:3;stroke-linecap:butt;stroke-linejoin:miter;stroke:rgb(38.823529%,37.254902%,17.647059%);stroke-opacity:1;stroke-miterlimit:10;" d="M 95.615661 28.887457 L 97.995531 38.972581 C 98.665843 41.802033 99.336156 44.641888 100.562464 47.278896 C 101.944658 50.227975 103.976381 52.818172 105.535247 55.678831 C 108.985538 61.977483 110.024782 69.311173 112.851526 75.911494 C 116.374564 84.118985 122.615225 91.182213 124.636555 99.878617 " transform="matrix(0.751748,0,0,0.751029,0,0)"/>
<path style=" stroke:none;fill-rule:nonzero;fill:rgb(29.019608%,64.705882%,52.156863%);fill-opacity:1;" d="M 44.65625 208.621094 C 45.03125 204.21875 47.820312 200.097656 51.769531 198.105469 C 53.195312 197.386719 54.773438 196.914062 55.992188 195.875 C 58.457031 193.773438 58.773438 189.949219 61.136719 187.734375 C 63.644531 185.375 67.613281 185.5625 70.667969 183.957031 C 74.042969 182.175781 75.878906 178.421875 76.871094 174.742188 C 77.464844 172.535156 77.839844 169.65625 80.070312 169.152344 C 83.746094 168.328125 86.84375 165.347656 87.816406 161.710938 C 88.355469 159.667969 88.265625 157.5 88.914062 155.484375 C 89.613281 153.285156 91.160156 151.390625 91.632812 149.132812 C 92.460938 145.175781 89.859375 140.976562 91.113281 137.136719 C 91.632812 135.554688 92.761719 134.230469 93.296875 132.652344 C 95 127.585938 90.136719 122.582031 90.03125 117.242188 C 89.972656 114.015625 91.6875 110.980469 93.859375 108.582031 C 95.503906 106.757812 97.511719 105.078125 98.171875 102.703125 C 98.835938 100.324219 97.992188 97.597656 99.160156 95.410156 C 99.96875 93.894531 101.558594 93 102.925781 91.957031 C 104.292969 90.910156 106.066406 89.90625 105.429688 88.304688 C 103.789062 84.175781 98.976562 82.304688 94.574219 81.6875 C 89.234375 80.9375 83.742188 81.34375 78.574219 82.875 C 75.042969 83.925781 71.578125 85.558594 69.058594 88.246094 C 66.40625 91.085938 64.984375 94.878906 62.488281 97.851562 C 59.992188 100.824219 55.496094 102.882812 52.242188 100.757812 C 51.46875 100.253906 50.8125 99.496094 50.648438 98.59375 C 50.503906 97.828125 50.722656 97.046875 50.910156 96.289062 C 52.085938 91.511719 52.105469 86.449219 50.964844 81.667969 C 50.265625 78.722656 49.046875 75.765625 46.753906 73.796875 C 45.710938 72.894531 44.476562 72.234375 43.234375 71.640625 C 35.597656 67.960938 26.992188 66.308594 18.535156 66.902344 C 17.097656 69.753906 17.960938 73.488281 19.066406 76.484375 C 20.171875 79.480469 21.675781 82.425781 21.820312 85.617188 C 22.058594 90.898438 18.542969 95.636719 17.84375 100.878906 C 17.542969 103.125 17.75 105.480469 16.894531 107.578125 C 16.367188 108.863281 15.472656 109.957031 14.632812 111.054688 C 12.648438 113.628906 10.804688 116.460938 10.273438 119.667969 C 9.679688 123.207031 10.730469 126.832031 10.398438 130.402344 C 9.972656 135.050781 7.210938 139.414062 7.617188 144.0625 C 7.988281 148.269531 10.867188 151.820312 11.984375 155.898438 C 13.179688 160.269531 12.414062 165.347656 15.128906 168.972656 C 17.105469 171.609375 20.488281 172.8125 22.734375 175.214844 C 27.472656 180.277344 26.3125 189.574219 32.132812 193.351562 C 33.800781 194.433594 35.855469 194.878906 37.433594 196.09375 C 41.054688 198.871094 40.921875 206.023438 44.671875 208.628906 Z M 44.65625 208.621094 "/>
<path style=" stroke:none;fill-rule:nonzero;fill:rgb(29.019608%,64.705882%,52.156863%);fill-opacity:1;" d="M 196.585938 9.320312 C 191.480469 10.484375 187.851562 14.945312 185.089844 19.398438 C 182.332031 23.84375 179.875 28.734375 175.613281 31.777344 C 174.09375 32.863281 172.378906 33.675781 170.941406 34.878906 C 168.0625 37.289062 166.628906 40.960938 165.296875 44.46875 C 163.898438 48.164062 162.492188 51.886719 161.816406 55.777344 C 161.359375 58.4375 161.230469 61.195312 160.179688 63.671875 C 157.675781 69.546875 150.660156 72.390625 147.820312 78.105469 C 146.023438 81.71875 146.136719 86.054688 144.339844 89.664062 C 142.902344 92.550781 140.390625 94.71875 138.355469 97.214844 C 136.316406 99.707031 134.679688 102.949219 135.5 106.058594 C 129.898438 106.152344 125.550781 101.359375 120.351562 99.277344 C 117.304688 98.0625 113.894531 97.761719 111.058594 96.117188 C 106.300781 93.351562 104.261719 87.277344 104.820312 81.808594 C 105.382812 76.335938 108.066406 71.332031 110.894531 66.609375 C 111.839844 65.03125 112.570312 62.53125 110.902344 61.742188 C 110.203125 61.410156 109.375 61.605469 108.652344 61.871094 C 102.84375 63.972656 99.308594 69.769531 94.300781 73.390625 C 90.136719 76.402344 84.867188 77.867188 79.742188 77.417969 C 75.785156 77.070312 71.996094 75.652344 68.074219 75.027344 C 64.148438 74.40625 59.75 74.726562 56.796875 77.386719 C 56.300781 70.527344 56.0625 62.507812 60.746094 57.46875 C 63.238281 54.78125 66.832031 53.253906 69.117188 50.386719 C 71.683594 47.179688 72.191406 42.847656 73.71875 39.03125 C 75.394531 34.839844 78.410156 31.191406 82.214844 28.742188 C 87.363281 25.421875 93.738281 24.347656 98.761719 20.847656 C 103.585938 17.484375 106.757812 12.136719 111.609375 8.800781 C 121.785156 1.789062 135.730469 5.496094 147.730469 2.507812 C 151.351562 1.605469 154.945312 0.0664062 158.667969 0.429688 C 160.847656 0.636719 162.90625 1.503906 165.058594 1.90625 C 169.132812 2.679688 173.339844 1.824219 177.476562 2.140625 C 184.082031 2.644531 190.863281 5.964844 196.578125 9.320312 Z M 196.585938 9.320312 "/>
<path style=" stroke:none;fill-rule:nonzero;fill:rgb(100%,98.039216%,92.54902%);fill-opacity:1;" d="M 181.007812 8.792969 C 180.917969 8.785156 180.828125 8.765625 180.738281 8.765625 C 181.679688 6.910156 182.746094 5.144531 183.925781 3.453125 C 183.527344 3.335938 183.136719 3.207031 182.738281 3.09375 C 181.421875 5.007812 180.242188 7.023438 179.234375 9.140625 C 179.195312 9.214844 179.191406 9.304688 179.191406 9.386719 C 178.601562 9.589844 178.015625 9.800781 177.445312 10.011719 C 175.5 10.71875 173.492188 11.445312 171.445312 11.828125 C 169.671875 12.160156 167.816406 12.242188 166.027344 12.324219 C 165.476562 12.347656 164.914062 12.378906 164.351562 12.40625 L 163.359375 12.292969 C 166.449219 8.988281 169.484375 5.59375 172.453125 2.148438 C 171.914062 2.171875 171.371094 2.191406 170.832031 2.207031 C 167.847656 5.65625 164.785156 9.050781 161.679688 12.347656 C 161.589844 12.4375 161.554688 12.558594 161.539062 12.675781 C 158.277344 13.105469 155.109375 14.015625 152.148438 15.386719 C 153.976562 10.238281 156.238281 5.242188 158.90625 0.464844 C 158.824219 0.457031 158.742188 0.4375 158.660156 0.429688 C 158.304688 0.390625 157.945312 0.390625 157.59375 0.390625 C 154.847656 5.378906 152.523438 10.589844 150.683594 15.972656 C 150.667969 16.027344 150.675781 16.078125 150.667969 16.132812 C 149.128906 16.949219 147.640625 17.875 146.242188 18.941406 C 145.113281 19.796875 144.058594 20.742188 143.03125 21.71875 C 144.066406 15.375 145.316406 9.019531 146.738281 2.726562 C 146.308594 2.816406 145.886719 2.921875 145.457031 2.996094 C 143.960938 9.652344 142.664062 16.363281 141.601562 23.0625 C 141.601562 23.070312 141.601562 23.078125 141.601562 23.09375 C 140.1875 24.535156 138.84375 26.03125 137.527344 27.511719 C 134.753906 19.863281 132.4375 12.015625 130.597656 4.078125 C 130.199219 4.09375 129.792969 4.109375 129.394531 4.128906 C 131.296875 12.390625 133.714844 20.5625 136.625 28.507812 C 135.324219 29.949219 133.996094 31.386719 132.597656 32.753906 C 132.316406 32.4375 132.121094 32.023438 131.925781 31.582031 L 131.792969 31.28125 C 129.867188 27.1875 126.019531 24.648438 122.296875 22.199219 C 120.652344 21.117188 118.953125 20 117.449219 18.761719 C 115.847656 17.445312 114.390625 15.914062 112.976562 14.425781 L 109.335938 10.613281 C 109.042969 10.875 108.742188 11.136719 108.457031 11.40625 L 112.117188 15.246094 C 113.554688 16.753906 115.035156 18.308594 116.6875 19.675781 C 118.238281 20.953125 119.96875 22.085938 121.636719 23.191406 C 125.386719 25.664062 128.929688 27.992188 130.710938 31.785156 L 130.84375 32.070312 C 131.078125 32.585938 131.324219 33.121094 131.738281 33.578125 C 130.851562 34.40625 129.933594 35.207031 128.972656 35.945312 C 128.726562 36.132812 128.460938 36.3125 128.207031 36.5 C 121.546875 32.234375 114.125 30.371094 106.945312 28.578125 C 102.128906 27.375 97.144531 26.121094 92.324219 24.152344 C 91.804688 24.363281 91.289062 24.566406 90.769531 24.777344 C 91.046875 24.898438 91.304688 25.023438 91.597656 25.144531 C 96.582031 27.210938 101.699219 28.492188 106.652344 29.726562 C 113.90625 31.535156 120.777344 33.269531 127.152344 37.242188 C 126.785156 37.5 126.417969 37.746094 126.054688 37.996094 C 124.875 38.789062 123.671875 39.617188 122.539062 40.53125 C 117.597656 39.398438 112.53125 38.878906 107.464844 39 C 105.539062 39.046875 103.59375 39.1875 101.707031 39.324219 C 99.609375 39.472656 97.445312 39.632812 95.308594 39.660156 C 92.707031 39.691406 90.046875 39.535156 87.476562 39.375 C 83.800781 39.152344 79.996094 38.917969 76.253906 39.242188 C 75.335938 39.324219 74.417969 39.445312 73.507812 39.585938 C 73.351562 40.015625 73.191406 40.441406 73.058594 40.878906 C 74.148438 40.683594 75.246094 40.519531 76.359375 40.421875 C 80.019531 40.105469 83.769531 40.332031 87.410156 40.554688 C 90.003906 40.714844 92.6875 40.878906 95.332031 40.847656 C 97.496094 40.820312 99.683594 40.660156 101.796875 40.511719 C 103.667969 40.375 105.601562 40.234375 107.503906 40.1875 C 112.171875 40.074219 116.839844 40.53125 121.410156 41.507812 C 121.140625 41.75 120.867188 41.988281 120.621094 42.253906 C 119.757812 43.140625 118.996094 44.117188 118.328125 45.136719 L 107.578125 45.136719 C 104.878906 45.128906 102.089844 45.136719 99.363281 45.601562 C 96.175781 46.160156 93.128906 47.34375 90.183594 48.492188 C 88.296875 49.230469 86.347656 49.996094 84.394531 50.574219 C 80.589844 51.699219 76.5625 52.203125 72.660156 52.691406 C 70.554688 52.953125 68.375 53.226562 66.246094 53.59375 C 65.945312 53.644531 65.652344 53.707031 65.359375 53.765625 C 64.519531 54.375 63.667969 54.976562 62.847656 55.613281 C 64.066406 55.238281 65.300781 54.96875 66.449219 54.765625 C 68.554688 54.40625 70.710938 54.132812 72.808594 53.871094 C 76.757812 53.382812 80.847656 52.871094 84.738281 51.714844 C 86.738281 51.121094 88.71875 50.347656 90.617188 49.605469 C 93.503906 48.480469 96.496094 47.308594 99.570312 46.773438 C 102.203125 46.316406 104.925781 46.308594 107.585938 46.324219 L 117.605469 46.324219 C 117.199219 47.03125 116.824219 47.75 116.472656 48.480469 C 111.636719 48.375 106.832031 50.5 103.164062 52.398438 C 100.753906 53.644531 98.535156 55.261719 96.390625 56.824219 C 93.910156 58.625 91.347656 60.496094 88.527344 61.742188 C 85.378906 63.140625 81.839844 63.808594 78.417969 64.445312 C 73.578125 65.355469 68.578125 66.292969 64.570312 69.3125 C 62.375 70.972656 60.585938 73.195312 59.292969 75.816406 C 59.84375 75.574219 60.414062 75.394531 61 75.246094 C 62.148438 73.261719 63.585938 71.550781 65.285156 70.265625 C 69.074219 67.414062 73.71875 66.542969 78.636719 65.617188 C 82.125 64.964844 85.738281 64.28125 89.011719 62.832031 C 91.941406 61.53125 94.558594 59.625 97.082031 57.785156 C 99.195312 56.246094 101.375 54.660156 103.707031 53.449219 C 107.113281 51.6875 111.515625 49.71875 115.914062 49.652344 C 115.199219 51.273438 114.570312 52.941406 113.953125 54.585938 C 113.042969 57.011719 112.105469 59.480469 110.902344 61.757812 C 111.335938 61.96875 111.601562 62.289062 111.75 62.6875 C 113.089844 60.246094 114.089844 57.597656 115.066406 54.996094 C 115.402344 54.089844 115.75 53.179688 116.109375 52.277344 C 115.863281 57.078125 115.335938 62.320312 114.636719 66.863281 L 114.578125 67.261719 C 114.398438 68.417969 114.207031 69.621094 114.171875 70.820312 C 114.117188 72.234375 114.253906 73.636719 114.390625 74.996094 L 115.710938 88.457031 C 115.90625 90.417969 116.101562 92.4375 116.929688 94.320312 C 117.882812 96.492188 119.574219 98.191406 121.238281 99.683594 C 123.042969 100.519531 124.761719 101.636719 126.476562 102.710938 L 123.011719 99.667969 C 121.164062 98.046875 119.058594 96.207031 118.011719 93.839844 C 117.261719 92.136719 117.074219 90.207031 116.886719 88.335938 L 115.5625 74.878906 C 115.433594 73.554688 115.296875 72.1875 115.351562 70.859375 C 115.394531 69.726562 115.578125 68.5625 115.75 67.433594 L 115.808594 67.035156 C 116.667969 61.457031 117.269531 54.808594 117.417969 49.222656 C 117.757812 48.5 118.109375 47.796875 118.5 47.113281 C 119.449219 50.273438 120.171875 53.242188 120.078125 56.460938 C 120.066406 56.929688 120.042969 57.402344 120.019531 57.867188 C 119.960938 59.152344 119.890625 60.488281 120.027344 61.808594 C 120.320312 64.65625 121.523438 67.277344 122.679688 69.816406 C 123.0625 70.664062 123.457031 71.511719 123.808594 72.363281 C 124.449219 73.902344 125.003906 75.539062 125.546875 77.125 C 126.996094 81.375 128.492188 85.773438 131.730469 88.996094 C 132.988281 90.242188 134.460938 91.257812 135.875 92.234375 C 136.492188 92.65625 137.105469 93.082031 137.707031 93.527344 C 138.488281 94.105469 139.25 94.71875 139.972656 95.367188 C 140.234375 95.074219 140.503906 94.78125 140.769531 94.488281 C 140.015625 93.820312 139.226562 93.179688 138.414062 92.570312 C 137.804688 92.121094 137.175781 91.6875 136.542969 91.257812 C 135.167969 90.3125 133.746094 89.335938 132.566406 88.15625 C 129.523438 85.128906 128.070312 80.863281 126.664062 76.738281 C 126.125 75.140625 125.558594 73.480469 124.90625 71.910156 C 124.546875 71.046875 124.152344 70.183594 123.761719 69.328125 C 122.644531 66.878906 121.484375 64.339844 121.207031 61.691406 C 121.078125 60.457031 121.140625 59.171875 121.207031 57.925781 C 121.230469 57.445312 121.253906 56.972656 121.265625 56.492188 C 121.371094 52.753906 120.457031 49.410156 119.335938 45.761719 C 119.96875 44.804688 120.671875 43.898438 121.476562 43.078125 C 121.769531 42.777344 122.09375 42.492188 122.410156 42.207031 C 123.394531 48.882812 125.085938 54.71875 127.46875 59.550781 C 129.898438 64.46875 133.519531 68.472656 137.664062 72.820312 C 139.105469 74.335938 140.910156 76.230469 142.894531 77.753906 C 144.179688 78.738281 145.550781 79.578125 146.960938 80.328125 C 147.082031 79.945312 147.210938 79.570312 147.359375 79.195312 C 146.058594 78.496094 144.796875 77.714844 143.617188 76.816406 C 141.84375 75.449219 140.316406 73.894531 138.519531 72 C 134.445312 67.71875 130.882812 63.792969 128.53125 59.023438 C 126.117188 54.132812 124.417969 48.171875 123.46875 41.320312 C 124.523438 40.496094 125.636719 39.730469 126.734375 38.984375 C 127.078125 38.753906 127.425781 38.511719 127.777344 38.273438 C 128.753906 45.957031 134.605469 53.902344 143.648438 59.730469 C 147.894531 62.464844 152.847656 64.542969 158.816406 66.066406 C 159.058594 65.722656 159.289062 65.371094 159.5 65.007812 C 153.488281 63.507812 148.519531 61.464844 144.285156 58.738281 C 135.28125 52.941406 129.550781 45.023438 128.875 37.5 C 129.152344 37.304688 129.429688 37.109375 129.695312 36.90625 C 130.738281 36.109375 131.722656 35.230469 132.6875 34.335938 C 132.988281 34.511719 133.289062 34.652344 133.550781 34.78125 C 143.578125 39.429688 154.042969 43.140625 164.757812 45.894531 C 164.898438 45.519531 165.035156 45.152344 165.175781 44.777344 C 154.496094 42.042969 144.054688 38.339844 134.046875 33.707031 C 133.898438 33.636719 133.730469 33.554688 133.574219 33.480469 C 134.949219 32.121094 136.265625 30.710938 137.542969 29.289062 C 141.363281 28.847656 145.25 29.929688 149.007812 30.980469 C 149.78125 31.199219 150.546875 31.40625 151.316406 31.609375 C 157.878906 33.34375 164.621094 34.148438 171.355469 34.585938 C 171.859375 34.195312 172.386719 33.839844 172.933594 33.503906 C 165.761719 33.089844 158.578125 32.300781 151.625 30.460938 C 150.863281 30.257812 150.097656 30.046875 149.335938 29.832031 C 145.878906 28.863281 142.316406 27.878906 138.699219 28.011719 C 139.972656 26.585938 141.273438 25.152344 142.632812 23.777344 C 150.390625 23.800781 158.222656 24.21875 165.929688 25.023438 C 170.550781 25.503906 175.332031 26.152344 180.015625 27.351562 C 180.273438 27.015625 180.527344 26.667969 180.777344 26.316406 C 175.882812 25.015625 170.882812 24.347656 166.058594 23.84375 C 158.710938 23.078125 151.253906 22.667969 143.859375 22.597656 C 144.855469 21.652344 145.878906 20.726562 146.976562 19.902344 C 148.585938 18.679688 150.316406 17.632812 152.113281 16.746094 C 154.804688 16.636719 157.523438 16.980469 160.164062 17.339844 C 168.003906 18.398438 176.03125 19.480469 183.707031 21.695312 C 183.917969 21.34375 184.128906 21 184.339844 20.644531 C 176.492188 18.347656 168.3125 17.242188 160.320312 16.164062 C 158.515625 15.921875 156.675781 15.679688 154.816406 15.582031 C 157.335938 14.636719 159.984375 14.007812 162.6875 13.734375 C 163.230469 13.683594 163.777344 13.644531 164.328125 13.609375 L 171.851562 14.449219 C 176.671875 14.984375 181.828125 15.570312 186.828125 16.800781 C 187.082031 16.453125 187.339844 16.109375 187.609375 15.773438 C 182.390625 14.441406 177.003906 13.832031 171.988281 13.277344 L 170.824219 13.152344 C 171.109375 13.105469 171.394531 13.074219 171.671875 13.023438 C 173.808594 12.625 175.867188 11.875 177.851562 11.152344 C 178.933594 10.761719 180.046875 10.363281 181.152344 10.019531 C 182.144531 10.152344 183.144531 10.523438 184.113281 10.898438 L 184.738281 11.128906 C 185.992188 11.597656 187.300781 11.988281 188.570312 12.363281 C 189.136719 12.535156 189.691406 12.699219 190.246094 12.871094 C 190.59375 12.558594 190.941406 12.25 191.308594 11.964844 C 190.511719 11.699219 189.714844 11.460938 188.917969 11.226562 C 187.667969 10.851562 186.375 10.46875 185.160156 10.019531 L 184.542969 9.785156 C 184.195312 9.652344 183.84375 9.523438 183.480469 9.394531 C 187.585938 8.464844 191.839844 8.351562 195.976562 8.996094 C 195.089844 8.480469 194.171875 7.976562 193.238281 7.472656 C 189.136719 7.1875 184.976562 7.617188 181.007812 8.808594 Z M 181.007812 8.792969 "/>
<path style=" stroke:none;fill-rule:nonzero;fill:rgb(5.490196%,34.509804%,36.078431%);fill-opacity:1;" d="M 154.050781 56.558594 C 150.269531 57.4375 146.496094 59.070312 144.03125 62.066406 C 141.566406 65.0625 140.753906 69.644531 142.910156 72.863281 C 143.632812 73.945312 144.648438 74.839844 145.136719 76.042969 C 146.066406 78.339844 144.65625 81.105469 142.480469 82.296875 C 140.308594 83.492188 137.632812 83.386719 135.234375 82.734375 C 132.84375 82.078125 130.621094 80.914062 128.296875 80.050781 C 121.371094 77.476562 113.472656 77.640625 106.652344 80.496094 C 106.058594 80.742188 105.480469 81.019531 104.902344 81.304688 C 104.878906 81.472656 104.84375 81.636719 104.828125 81.800781 C 104.261719 87.277344 106.300781 93.34375 111.066406 96.109375 C 113.898438 97.753906 117.3125 98.054688 120.359375 99.269531 C 125.558594 101.351562 129.90625 106.144531 135.503906 106.054688 C 134.6875 102.9375 136.324219 99.699219 138.363281 97.207031 C 140.398438 94.710938 142.910156 92.542969 144.347656 89.65625 C 146.144531 86.046875 146.03125 81.710938 147.828125 78.097656 C 150.667969 72.382812 157.683594 69.539062 160.183594 63.664062 C 161.246094 61.1875 161.367188 58.429688 161.824219 55.769531 C 161.855469 55.605469 161.890625 55.449219 161.921875 55.285156 C 159.289062 55.652344 156.644531 55.945312 154.058594 56.546875 Z M 154.050781 56.558594 "/>
<path style=" stroke:none;fill-rule:nonzero;fill:rgb(29.019608%,64.705882%,52.156863%);fill-opacity:1;" d="M 20.667969 40.285156 C 23.707031 37.597656 27.050781 35.285156 30.074219 32.578125 C 35.296875 27.910156 39.5 22.140625 45.003906 17.792969 C 51.535156 12.640625 59.535156 9.769531 67.375 6.984375 C 69.652344 6.179688 71.96875 5.363281 74.382812 5.308594 C 76.816406 5.257812 79.191406 5.984375 81.484375 6.8125 C 82.726562 7.253906 83.988281 7.757812 84.929688 8.683594 C 85.867188 9.605469 86.402344 11.054688 85.890625 12.273438 C 85.234375 13.8125 83.347656 14.285156 81.742188 14.742188 C 75.5 16.53125 70.292969 20.847656 64.226562 23.152344 C 58.542969 25.316406 52.085938 25.722656 47.101562 29.207031 C 44.640625 30.925781 42.71875 33.277344 40.605469 35.402344 C 36.726562 39.308594 32.117188 42.5 27.050781 44.671875 C 25 45.550781 22.863281 46.261719 20.886719 47.316406 C 17.421875 49.164062 12.789062 55.296875 9.03125 55.605469 C 8.761719 53.390625 11.128906 50.753906 12.421875 49.117188 C 14.917969 45.96875 17.644531 42.953125 20.660156 40.285156 Z M 20.667969 40.285156 "/>
<path style=" stroke:none;fill-rule:nonzero;fill:rgb(100%,98.039216%,92.54902%);fill-opacity:1;" d="M 83.378906 90.4375 C 80.222656 92.285156 77.570312 94.757812 75.605469 96.695312 C 74.953125 97.347656 74.296875 98.007812 73.652344 98.675781 C 71.222656 101.164062 68.710938 103.730469 65.765625 105.585938 C 62.136719 107.871094 57.910156 109.035156 53.796875 110.136719 C 53.78125 110.136719 53.777344 110.117188 53.753906 110.117188 C 53.664062 110.085938 53.574219 110.085938 53.480469 110.09375 C 50.484375 108.375 48.136719 105.460938 46.421875 103.070312 C 45.550781 101.863281 44.46875 100.238281 43.875 98.453125 C 43.476562 97.257812 43.273438 95.957031 43.085938 94.695312 L 42.972656 93.96875 C 41.882812 87.066406 39.636719 80.457031 36.296875 74.3125 C 35.492188 72.835938 34.566406 71.28125 33.304688 69.964844 C 32.335938 68.960938 31.207031 68.164062 30.035156 67.472656 C 28.894531 67.285156 27.742188 67.132812 26.59375 67.023438 C 26.675781 67.058594 26.757812 67.097656 26.839844 67.132812 C 28.824219 68.074219 30.882812 69.164062 32.457031 70.792969 C 33.621094 72 34.492188 73.472656 35.261719 74.878906 C 38.53125 80.902344 40.734375 87.382812 41.808594 94.148438 L 41.921875 94.871094 C 42.117188 96.175781 42.328125 97.527344 42.761719 98.820312 C 43.410156 100.757812 44.550781 102.46875 45.476562 103.753906 C 47.242188 106.210938 49.671875 109.207031 52.820312 111.046875 C 52.632812 111.601562 52.453125 112.128906 52.285156 112.625 C 45.476562 110.808594 40.339844 107.945312 37.050781 104.078125 C 35.574219 102.351562 34.335938 100.351562 33.132812 98.414062 C 31.230469 95.351562 29.253906 92.171875 26.304688 89.941406 C 24.945312 88.914062 23.390625 88.132812 21.75 87.609375 C 21.707031 88.003906 21.636719 88.394531 21.554688 88.785156 C 23.007812 89.265625 24.382812 89.964844 25.59375 90.882812 C 28.367188 92.984375 30.191406 95.921875 32.132812 99.03125 C 33.359375 101.007812 34.628906 103.042969 36.15625 104.835938 C 39.597656 108.875 44.914062 111.859375 51.925781 113.742188 C 51.617188 114.703125 51.355469 115.582031 51.121094 116.433594 C 49.46875 116.085938 47.792969 115.761719 46.109375 115.441406 C 39.800781 114.230469 33.28125 112.976562 27.515625 110.355469 C 26.433594 109.867188 25.367188 109.34375 24.308594 108.816406 C 23.375 108.359375 22.441406 107.898438 21.503906 107.464844 C 20.164062 106.839844 18.796875 106.277344 17.414062 105.738281 C 17.347656 106.128906 17.253906 106.519531 17.136719 106.902344 C 18.4375 107.414062 19.734375 107.953125 21 108.539062 C 21.929688 108.972656 22.855469 109.425781 23.78125 109.875 C 24.855469 110.402344 25.929688 110.933594 27.027344 111.429688 C 32.921875 114.109375 39.515625 115.371094 45.882812 116.597656 C 47.542969 116.921875 49.199219 117.234375 50.835938 117.582031 C 50.671875 118.28125 50.535156 118.96875 50.414062 119.691406 L 50.386719 119.691406 C 37.671875 117.339844 24.707031 116.199219 11.753906 116.296875 C 11.609375 116.296875 11.476562 116.296875 11.332031 116.296875 C 11.160156 116.6875 11 117.085938 10.859375 117.492188 C 11.160156 117.492188 11.460938 117.484375 11.761719 117.484375 C 24.609375 117.371094 37.53125 118.519531 50.167969 120.855469 L 50.242188 120.871094 C 50.152344 121.597656 50.070312 122.371094 50.007812 123.214844 C 46.070312 123.679688 42.03125 124.023438 38.117188 124.355469 C 34.078125 124.691406 29.90625 125.046875 25.816406 125.535156 C 23.179688 125.851562 20.457031 126.171875 17.804688 126.742188 C 15.625 127.210938 13.453125 127.847656 11.347656 128.464844 C 11.054688 128.546875 10.761719 128.636719 10.46875 128.71875 C 10.46875 129.132812 10.453125 129.550781 10.429688 129.964844 C 10.851562 129.84375 11.273438 129.726562 11.683594 129.605469 C 13.765625 128.996094 15.917969 128.359375 18.050781 127.898438 C 20.652344 127.34375 23.34375 127.023438 25.976562 126.707031 C 30.027344 126.226562 34.191406 125.871094 38.214844 125.535156 C 42.0625 125.210938 46.03125 124.867188 49.925781 124.414062 C 49.890625 125.078125 49.851562 125.773438 49.820312 126.539062 C 49.804688 127.023438 49.769531 127.507812 49.738281 127.992188 C 45.191406 128.402344 40.65625 129.664062 36.734375 130.828125 C 34.042969 131.632812 31.261719 132.457031 28.621094 133.628906 C 27.285156 134.222656 25.976562 134.90625 24.714844 135.566406 C 23.832031 136.027344 22.953125 136.484375 22.066406 136.921875 C 17.773438 138.992188 13.128906 140.441406 8.632812 141.839844 C 8.300781 141.945312 7.972656 142.042969 7.640625 142.148438 C 7.609375 142.558594 7.59375 142.980469 7.609375 143.402344 C 8.070312 143.257812 8.535156 143.117188 8.984375 142.972656 C 13.527344 141.5625 18.21875 140.105469 22.585938 137.988281 C 23.488281 137.550781 24.375 137.085938 25.269531 136.621094 C 26.515625 135.964844 27.808594 135.289062 29.109375 134.71875 C 31.679688 133.585938 34.425781 132.765625 37.078125 131.972656 C 40.890625 130.835938 45.289062 129.605469 49.671875 129.191406 C 49.574219 130.421875 49.429688 131.664062 49.265625 132.894531 C 42.289062 136.761719 35.386719 140.976562 28.757812 145.421875 L 28.367188 145.683594 C 26.960938 146.632812 25.503906 147.605469 24 148.410156 C 21.847656 149.558594 19.527344 150.402344 17.128906 151.234375 C 15.152344 151.925781 13.113281 152.609375 11.039062 153.238281 C 11.195312 153.601562 11.355469 153.96875 11.488281 154.335938 C 13.585938 153.699219 15.609375 153.015625 17.511719 152.355469 C 19.953125 151.503906 22.328125 150.648438 24.554688 149.460938 C 26.109375 148.628906 27.601562 147.636719 29.027344 146.675781 L 29.417969 146.414062 C 35.777344 142.15625 42.386719 138.105469 49.070312 134.375 C 48.792969 136.265625 48.453125 138.160156 48.09375 140.035156 C 42.429688 144.738281 37.621094 148.140625 32.976562 150.695312 C 32.214844 151.105469 31.449219 151.503906 30.683594 151.902344 C 29.15625 152.691406 27.578125 153.503906 26.109375 154.472656 C 24.601562 155.464844 23.195312 156.628906 21.832031 157.746094 C 21.195312 158.273438 20.554688 158.804688 19.902344 159.316406 C 17.765625 160.992188 15.511719 162.476562 13.167969 163.792969 C 13.234375 164.203125 13.316406 164.609375 13.40625 165.015625 C 15.933594 163.625 18.34375 162.042969 20.632812 160.246094 C 21.292969 159.730469 21.9375 159.195312 22.585938 158.664062 C 23.921875 157.558594 25.300781 156.425781 26.757812 155.464844 C 28.179688 154.53125 29.726562 153.726562 31.222656 152.953125 C 31.996094 152.554688 32.777344 152.152344 33.546875 151.730469 C 37.945312 149.3125 42.492188 146.144531 47.730469 141.863281 C 47.40625 143.460938 47.070312 145.054688 46.730469 146.636719 C 46.710938 146.75 46.6875 146.855469 46.664062 146.96875 L 30.839844 162.949219 C 27.636719 166.1875 23.984375 169.875 19.804688 172.820312 C 20.148438 173.058594 20.496094 173.300781 20.832031 173.546875 C 24.9375 170.597656 28.523438 166.976562 31.679688 163.792969 L 46.207031 149.117188 C 45.714844 151.46875 45.242188 153.839844 44.828125 156.230469 C 44.632812 156.257812 44.453125 156.355469 44.371094 156.542969 C 43.027344 159.496094 41.25 162.230469 39.101562 164.664062 C 37.273438 166.726562 35.148438 168.597656 33.085938 170.410156 C 30.289062 172.863281 27.441406 175.359375 24.503906 177.738281 C 24.691406 178.089844 24.871094 178.460938 25.035156 178.835938 C 28.074219 176.386719 30.996094 173.824219 33.875 171.300781 C 35.960938 169.46875 38.117188 167.578125 39.988281 165.453125 C 41.6875 163.535156 43.136719 161.425781 44.355469 159.1875 C 43.90625 162.304688 43.621094 165.4375 43.589844 168.582031 C 41.898438 170.214844 40.160156 171.894531 38.816406 173.902344 C 38.53125 174.320312 38.265625 174.765625 38.003906 175.199219 C 37.351562 176.273438 36.742188 177.28125 35.875 178.078125 C 35.273438 178.632812 34.566406 179.058594 33.816406 179.511719 C 33.085938 179.953125 32.328125 180.414062 31.660156 181.003906 C 30.898438 181.679688 30.296875 182.484375 29.71875 183.265625 C 29.546875 183.5 29.382812 183.722656 29.207031 183.949219 C 28.660156 184.664062 28.050781 185.332031 27.410156 185.96875 C 27.546875 186.398438 27.691406 186.820312 27.839844 187.230469 C 28.675781 186.433594 29.441406 185.578125 30.148438 184.679688 C 30.328125 184.445312 30.5 184.210938 30.675781 183.980469 C 31.246094 183.214844 31.78125 182.492188 32.449219 181.898438 C 33.035156 181.375 33.71875 180.96875 34.433594 180.53125 C 35.199219 180.066406 35.988281 179.585938 36.679688 178.957031 C 37.664062 178.046875 38.355469 176.917969 39.019531 175.824219 C 39.273438 175.402344 39.53125 174.976562 39.808594 174.570312 C 40.867188 172.984375 42.230469 171.578125 43.605469 170.234375 C 43.648438 172.367188 43.800781 174.507812 43.964844 176.589844 C 44.039062 177.542969 44.117188 178.503906 44.175781 179.457031 C 44.25 180.652344 44.3125 181.855469 44.355469 183.054688 C 43.304688 183.882812 42.167969 184.648438 41.070312 185.390625 C 38.914062 186.839844 36.679688 188.335938 34.953125 190.378906 C 34.5 190.910156 34.085938 191.476562 33.671875 192.03125 C 33.28125 192.5625 32.890625 193.074219 32.476562 193.554688 C 32.832031 193.757812 33.191406 193.953125 33.5625 194.117188 C 33.9375 193.660156 34.28125 193.195312 34.628906 192.730469 C 35.027344 192.1875 35.417969 191.648438 35.855469 191.144531 C 37.476562 189.238281 39.542969 187.847656 41.734375 186.375 C 42.558594 185.820312 43.402344 185.257812 44.222656 184.65625 C 44.175781 185.722656 44.199219 186.796875 44.273438 187.855469 C 44.304688 188.253906 44.355469 188.679688 44.421875 189.117188 C 44.394531 191.265625 44.332031 193.414062 44.191406 195.554688 C 43.972656 195.71875 43.703125 195.851562 43.410156 195.996094 C 43.222656 196.085938 43.039062 196.175781 42.867188 196.265625 C 42.136719 196.671875 41.566406 197.242188 41.019531 197.789062 C 40.785156 198.023438 40.550781 198.257812 40.3125 198.472656 C 40.101562 198.664062 39.882812 198.835938 39.65625 199 C 39.832031 199.351562 39.996094 199.730469 40.152344 200.105469 C 40.484375 199.871094 40.800781 199.625 41.109375 199.351562 C 41.371094 199.121094 41.621094 198.871094 41.867188 198.625 C 42.386719 198.105469 42.875 197.617188 43.453125 197.296875 C 43.605469 197.210938 43.769531 197.128906 43.925781 197.054688 C 43.988281 197.023438 44.046875 196.996094 44.101562 196.964844 L 44.0625 197.492188 C 43.816406 200.976562 43.566406 204.535156 43.921875 207.953125 C 44.160156 208.191406 44.417969 208.425781 44.695312 208.621094 C 44.746094 207.988281 44.867188 207.367188 45.011719 206.757812 C 44.808594 203.753906 45.023438 200.636719 45.242188 197.582031 L 45.347656 196.0625 C 45.445312 195.9375 45.542969 195.800781 45.613281 195.644531 C 45.722656 195.386719 45.625 195.101562 45.410156 194.9375 C 45.460938 194.003906 45.507812 193.074219 45.542969 192.144531 C 45.625 192.277344 45.710938 192.40625 45.792969 192.535156 C 46.03125 192.910156 46.265625 193.261719 46.445312 193.636719 C 46.640625 194.035156 46.785156 194.464844 46.933594 194.914062 C 47.078125 195.335938 47.21875 195.753906 47.402344 196.160156 C 47.917969 197.304688 48.707031 198.25 49.46875 199.15625 L 49.722656 199.464844 C 50.039062 199.21875 50.355469 198.984375 50.6875 198.765625 L 50.371094 198.390625 C 49.65625 197.542969 48.917969 196.664062 48.476562 195.664062 C 48.308594 195.296875 48.183594 194.914062 48.054688 194.53125 C 47.898438 194.066406 47.738281 193.578125 47.507812 193.113281 C 47.296875 192.675781 47.03125 192.269531 46.785156 191.886719 C 46.527344 191.496094 46.296875 191.136719 46.109375 190.746094 C 45.851562 190.207031 45.703125 189.621094 45.605469 189.042969 C 45.640625 185.8125 45.574219 182.582031 45.363281 179.375 C 45.339844 179.082031 45.316406 178.78125 45.296875 178.488281 C 45.746094 179.757812 46.289062 180.996094 46.941406 182.246094 C 49.542969 187.230469 52.203125 192.066406 55.398438 196.328125 C 55.609375 196.183594 55.828125 196.054688 56.015625 195.890625 C 56.121094 195.800781 56.203125 195.6875 56.308594 195.589844 C 53.226562 191.488281 50.648438 186.789062 47.996094 181.695312 C 46.054688 177.980469 45.085938 174.335938 44.777344 169.6875 C 44.738281 166.683594 44.980469 163.671875 45.363281 160.675781 L 48.101562 170.722656 C 48.738281 173.089844 49.40625 175.53125 50.699219 177.714844 C 51.484375 179.03125 52.46875 180.203125 53.421875 181.335938 C 54.082031 182.125 54.769531 182.9375 55.371094 183.777344 C 56.363281 185.171875 57.171875 186.742188 57.957031 188.261719 C 58.359375 189.050781 58.78125 189.835938 59.21875 190.609375 C 59.429688 190.183594 59.652344 189.769531 59.894531 189.371094 C 59.59375 188.824219 59.292969 188.277344 59.007812 187.71875 C 58.203125 186.164062 57.367188 184.566406 56.332031 183.101562 C 55.707031 182.222656 55.007812 181.386719 54.324219 180.578125 C 53.363281 179.429688 52.445312 178.347656 51.714844 177.113281 C 50.496094 175.066406 49.859375 172.699219 49.234375 170.414062 L 45.785156 157.730469 C 46.226562 154.96875 46.777344 152.210938 47.339844 149.492188 C 47.6875 150.890625 48.09375 152.171875 48.589844 153.367188 L 51.777344 161.035156 C 52.949219 163.867188 54.167969 166.789062 55.746094 169.507812 C 57.578125 172.660156 59.894531 175.523438 62.140625 178.292969 C 64.097656 180.710938 66.007812 182.980469 68.007812 184.972656 C 68.441406 184.851562 68.871094 184.714844 69.285156 184.566406 C 67.164062 182.515625 65.140625 180.113281 63.066406 177.550781 C 60.847656 174.816406 58.5625 171.984375 56.773438 168.914062 C 55.234375 166.261719 54.039062 163.378906 52.875 160.585938 L 49.6875 152.910156 C 48.964844 151.167969 48.414062 149.214844 48.015625 146.9375 C 48.003906 146.863281 47.957031 146.804688 47.917969 146.734375 C 48.210938 145.363281 48.503906 143.972656 48.792969 142.574219 C 49.460938 144.371094 50.558594 145.984375 51.566406 147.457031 L 56.21875 154.230469 C 61.757812 162.289062 67.878906 171.175781 75.628906 178.265625 C 75.800781 177.882812 75.96875 177.5 76.117188 177.109375 C 68.609375 170.152344 62.617188 161.457031 57.195312 153.5625 L 52.542969 146.789062 C 51.195312 144.835938 49.679688 142.613281 49.398438 140.148438 C 49.394531 140.066406 49.355469 140 49.308594 139.933594 C 49.597656 138.4375 49.859375 136.933594 50.09375 135.425781 C 51.691406 137.972656 53.535156 140.652344 55.699219 142.84375 C 56.511719 143.671875 57.390625 144.4375 58.242188 145.179688 C 58.910156 145.765625 59.585938 146.359375 60.234375 146.976562 C 61.40625 148.101562 62.503906 149.347656 63.570312 150.550781 C 64.277344 151.347656 64.984375 152.152344 65.714844 152.925781 C 67.96875 155.304688 70.480469 157.460938 72.914062 159.546875 L 82.851562 168.074219 C 83.214844 167.871094 83.558594 167.652344 83.898438 167.40625 L 73.6875 158.648438 C 71.285156 156.582031 68.789062 154.441406 66.578125 152.105469 C 65.855469 151.339844 65.15625 150.550781 64.457031 149.761719 C 63.375 148.539062 62.261719 147.277344 61.050781 146.121094 C 60.398438 145.488281 59.707031 144.886719 59.023438 144.289062 C 58.1875 143.558594 57.324219 142.800781 56.542969 142.003906 C 54.121094 139.554688 52.085938 136.433594 50.355469 133.609375 C 50.535156 132.292969 50.6875 130.972656 50.796875 129.644531 L 56.796875 134.105469 C 60.941406 137.183594 65.226562 140.375 69.652344 143.25 C 74.523438 146.421875 78.742188 148.667969 82.914062 150.332031 C 83.371094 150.515625 83.832031 150.695312 84.289062 150.867188 C 85.304688 151.257812 86.355469 151.65625 87.347656 152.121094 C 88.191406 152.511719 89.003906 152.953125 89.792969 153.441406 C 89.972656 153.089844 90.152344 152.738281 90.332031 152.382812 C 89.527344 151.886719 88.703125 151.4375 87.84375 151.046875 C 86.816406 150.566406 85.738281 150.160156 84.710938 149.761719 C 84.257812 149.589844 83.800781 149.417969 83.347656 149.238281 C 79.246094 147.605469 75.101562 145.390625 70.292969 142.265625 C 65.894531 139.414062 61.625 136.238281 57.496094 133.164062 L 50.890625 128.253906 C 50.925781 127.703125 50.964844 127.15625 50.988281 126.609375 C 51.007812 125.941406 51.039062 125.332031 51.078125 124.746094 C 55 126.570312 59.105469 128.035156 63.308594 129.0625 C 65.773438 129.671875 68.3125 130.144531 70.78125 130.597656 C 76.101562 131.585938 81.605469 132.609375 86.476562 135.011719 C 88.023438 135.777344 89.519531 136.695312 90.988281 137.648438 C 91.023438 137.484375 91.0625 137.3125 91.121094 137.144531 C 91.199219 136.921875 91.304688 136.710938 91.394531 136.5 C 89.980469 135.582031 88.519531 134.695312 87.003906 133.945312 C 81.980469 131.46875 76.394531 130.429688 70.992188 129.425781 C 68.546875 128.972656 66.019531 128.5 63.585938 127.898438 C 59.308594 126.847656 55.136719 125.355469 51.160156 123.46875 C 51.21875 122.613281 51.292969 121.832031 51.386719 121.101562 L 51.429688 121.101562 C 56.144531 121.988281 60.601562 122.816406 65.390625 123.019531 C 74.507812 123.410156 83.679688 124.40625 92.6875 125.949219 C 92.527344 125.519531 92.355469 125.089844 92.183594 124.671875 C 83.355469 123.191406 74.375 122.222656 65.441406 121.839844 C 60.738281 121.636719 56.316406 120.816406 51.648438 119.945312 L 51.558594 119.933594 C 51.679688 119.210938 51.8125 118.519531 51.980469 117.820312 C 54.4375 118.28125 56.910156 118.488281 59.390625 118.488281 C 65.96875 118.488281 72.589844 117.136719 79.0625 115.824219 L 79.605469 115.710938 C 81.964844 115.230469 84.648438 114.683594 87.324219 114.488281 C 88.355469 114.410156 89.402344 114.390625 90.445312 114.382812 C 90.566406 113.976562 90.703125 113.585938 90.867188 113.195312 C 89.664062 113.195312 88.453125 113.21875 87.242188 113.308594 C 84.492188 113.511719 81.777344 114.066406 79.378906 114.554688 L 78.839844 114.667969 C 70.066406 116.453125 61.007812 118.292969 52.28125 116.6875 C 52.503906 115.847656 52.777344 114.96875 53.089844 113.984375 C 65.472656 113.398438 77.457031 109.027344 88.671875 104.589844 L 88.898438 104.5 C 90.617188 103.816406 92.394531 103.117188 94.183594 102.589844 C 95.535156 102.191406 96.941406 101.898438 98.371094 101.6875 C 98.421875 101.292969 98.445312 100.886719 98.453125 100.480469 C 96.878906 100.699219 95.339844 101.019531 93.851562 101.457031 C 92.007812 101.996094 90.207031 102.710938 88.460938 103.394531 L 88.234375 103.484375 C 77.253906 107.824219 65.53125 112.097656 53.488281 112.765625 C 53.640625 112.316406 53.804688 111.835938 53.976562 111.332031 C 58.21875 110.199219 62.585938 109.003906 66.40625 106.609375 C 69.472656 104.6875 72.035156 102.058594 74.507812 99.527344 C 75.15625 98.867188 75.800781 98.203125 76.449219 97.558594 C 78.359375 95.667969 80.9375 93.261719 83.988281 91.484375 C 89.625 88.179688 96.886719 87.023438 105.277344 88.011719 C 105.066406 87.554688 104.828125 87.121094 104.542969 86.714844 C 96.242188 85.835938 89.152344 87.082031 83.386719 90.453125 Z M 83.378906 90.4375 "/>
<path style=" stroke:none;fill-rule:nonzero;fill:rgb(29.019608%,64.705882%,52.156863%);fill-opacity:1;" d="M 198.90625 179.457031 C 199.148438 176.769531 201.214844 174.628906 203.328125 172.945312 C 205.441406 171.265625 207.792969 169.6875 209.035156 167.292969 C 211.371094 162.761719 208.921875 157.160156 210.109375 152.210938 C 210.859375 149.078125 213.019531 146.464844 214.027344 143.410156 C 214.628906 141.578125 214.800781 139.640625 214.832031 137.707031 C 214.933594 130.632812 211.28125 124.957031 209.6875 118.054688 C 208.855469 114.441406 209.523438 110.664062 209.289062 106.96875 C 208.945312 101.382812 206.464844 95.953125 202.457031 92.039062 C 199.894531 89.53125 196.621094 87.457031 195.367188 84.101562 C 193.953125 80.335938 195.496094 75.972656 194.15625 72.1875 C 193.277344 69.703125 191.277344 67.804688 189.269531 66.089844 C 187.261719 64.378906 185.144531 62.6875 183.859375 60.382812 C 182.574219 58.078125 181.925781 55.199219 183.683594 53.242188 C 179.40625 53.054688 175.347656 54.886719 171.230469 56.058594 C 167.5 57.125 163.621094 57.671875 159.929688 58.859375 C 156.238281 60.042969 152.609375 61.988281 150.398438 65.175781 C 148.1875 68.367188 147.757812 72.992188 150.179688 76.027344 C 150.984375 77.039062 152.074219 77.851562 152.660156 79.007812 C 153.78125 81.222656 152.601562 84.09375 150.539062 85.46875 C 148.480469 86.839844 145.796875 86.953125 143.355469 86.503906 C 140.910156 86.054688 138.601562 85.078125 136.21875 84.40625 C 129.109375 82.417969 121.246094 83.238281 114.691406 86.644531 C 109.449219 89.371094 105.164062 93.59375 100.96875 97.746094 C 99.925781 98.78125 101.128906 100.398438 102.171875 101.433594 C 103.21875 102.46875 104.570312 103.132812 105.847656 103.867188 C 108.414062 105.355469 110.796875 107.292969 112.253906 109.867188 C 113.570312 112.195312 114.042969 114.898438 115.089844 117.363281 C 116.386719 120.414062 118.582031 123.078125 121.335938 124.933594 C 126.9375 128.710938 134.804688 129.320312 138.796875 134.773438 C 140.234375 136.730469 141.039062 139.195312 142.902344 140.757812 C 145.234375 142.703125 148.539062 142.726562 151.554688 143.0625 C 154.570312 143.402344 157.996094 144.558594 158.96875 147.433594 C 159.675781 149.523438 158.945312 152.203125 160.5625 153.707031 C 160.800781 154.898438 162.066406 155.703125 163.261719 155.929688 C 167.726562 156.753906 172.183594 157.589844 176.648438 158.414062 C 178.828125 158.820312 181.136719 159.285156 182.769531 160.78125 C 185.121094 162.929688 185.496094 166.675781 187.925781 168.742188 C 189.050781 169.695312 190.503906 170.191406 191.675781 171.085938 C 194.023438 172.871094 194.902344 175.945312 195.707031 178.78125 C 195.96875 179.707031 196.34375 180.742188 197.238281 181.082031 C 198.132812 181.417969 199.621094 180.105469 198.90625 179.464844 Z M 198.90625 179.457031 "/>
<path style=" stroke:none;fill-rule:nonzero;fill:rgb(100%,98.039216%,92.54902%);fill-opacity:1;" d="M 204.6875 130.851562 C 198.914062 130.003906 193.042969 129.28125 187.234375 128.71875 C 187.1875 128.71875 187.144531 128.726562 187.097656 128.734375 C 186.550781 127.789062 186.066406 126.804688 185.699219 125.730469 C 184.773438 123.046875 183.820312 120.300781 182.4375 117.753906 C 191.773438 118.378906 201.179688 119.429688 210.410156 120.886719 C 210.28125 120.472656 210.160156 120.050781 210.042969 119.632812 C 200.683594 118.175781 191.15625 117.121094 181.707031 116.515625 C 181.429688 116.070312 181.136719 115.628906 180.820312 115.199219 C 179.398438 113.261719 177.640625 111.609375 175.933594 110.011719 C 175.835938 109.921875 175.730469 109.816406 175.632812 109.726562 C 176.363281 109.777344 177.113281 109.769531 177.875 109.742188 C 181.242188 109.628906 184.640625 109.378906 187.992188 108.988281 C 189.195312 108.847656 190.40625 108.6875 191.609375 108.53125 C 194.921875 108.09375 198.351562 107.652344 201.726562 107.605469 C 204.246094 107.585938 206.777344 107.796875 209.273438 108.214844 C 209.273438 107.808594 209.257812 107.414062 209.230469 107.007812 C 206.734375 106.601562 204.214844 106.398438 201.710938 106.421875 C 198.261719 106.464844 194.796875 106.917969 191.449219 107.351562 C 190.246094 107.511719 189.050781 107.667969 187.851562 107.800781 C 184.535156 108.1875 181.167969 108.433594 177.828125 108.546875 C 176.507812 108.589844 175.234375 108.578125 174.09375 108.238281 C 173.589844 107.742188 173.09375 107.246094 172.628906 106.730469 C 171.679688 105.683594 170.816406 104.558594 169.980469 103.410156 C 170.238281 103.257812 170.5 103.109375 170.769531 102.980469 C 172.054688 102.371094 173.492188 102.058594 174.882812 101.757812 L 184.023438 99.765625 C 186.277344 99.277344 188.617188 98.769531 190.941406 98.398438 C 196.132812 97.582031 201.480469 97.445312 206.742188 97.980469 C 206.523438 97.558594 206.304688 97.136719 206.066406 96.726562 C 200.953125 96.273438 195.78125 96.433594 190.75 97.226562 C 188.398438 97.605469 186.046875 98.113281 183.769531 98.609375 L 174.625 100.601562 C 173.167969 100.914062 171.664062 101.246094 170.257812 101.914062 C 169.921875 102.074219 169.605469 102.253906 169.289062 102.441406 C 168.867188 101.839844 168.453125 101.246094 168.046875 100.652344 C 167.433594 99.757812 166.792969 98.851562 166.148438 97.941406 C 166.839844 97.511719 167.523438 97.0625 168.175781 96.550781 C 168.988281 95.921875 169.746094 95.207031 170.476562 94.523438 C 170.867188 94.15625 171.257812 93.789062 171.664062 93.429688 C 175.84375 89.710938 181.414062 86.945312 187.765625 85.4375 C 190.15625 84.867188 192.675781 84.46875 195.382812 84.21875 C 195.359375 84.167969 195.335938 84.128906 195.316406 84.078125 C 195.1875 83.746094 195.097656 83.402344 195.015625 83.0625 C 192.351562 83.320312 189.863281 83.726562 187.496094 84.289062 C 180.957031 85.84375 175.207031 88.695312 170.882812 92.542969 C 170.476562 92.902344 170.070312 93.277344 169.671875 93.652344 C 168.957031 94.320312 168.222656 95.011719 167.453125 95.613281 C 166.824219 96.109375 166.140625 96.550781 165.449219 96.980469 C 165.289062 96.769531 165.148438 96.558594 164.980469 96.355469 C 164.246094 95.417969 163.507812 94.585938 162.765625 93.8125 C 162.953125 91.949219 164.125 90.191406 165.085938 88.773438 C 168.460938 83.777344 172.289062 78.105469 178.015625 75.183594 C 182.285156 73.007812 187.382812 72.542969 191.878906 72.128906 L 194.007812 71.933594 C 193.855469 71.535156 193.667969 71.160156 193.464844 70.792969 L 191.765625 70.949219 C 187.160156 71.371094 181.941406 71.851562 177.46875 74.125 C 171.46875 77.183594 167.550781 82.988281 164.09375 88.101562 C 163.199219 89.425781 162.132812 91.007812 161.71875 92.796875 C 161.082031 92.210938 160.441406 91.664062 159.785156 91.191406 L 159.839844 90.898438 C 160.183594 88.90625 160.546875 86.839844 160.417969 84.828125 C 160.34375 83.589844 160.101562 82.351562 159.871094 81.148438 C 159.472656 79.054688 159.089844 77.078125 159.5 75.125 C 160.164062 71.972656 162.710938 69.921875 164.167969 68.980469 C 166.460938 67.503906 169.144531 66.632812 171.738281 65.796875 C 174.402344 64.941406 177.152344 64.054688 179.589844 62.46875 C 179.949219 62.238281 180.308594 61.984375 180.664062 61.734375 C 181.285156 61.292969 181.875 60.878906 182.511719 60.539062 C 182.875 60.34375 183.257812 60.1875 183.640625 60.042969 C 183.460938 59.691406 183.292969 59.332031 183.152344 58.964844 C 182.746094 59.121094 182.347656 59.292969 181.957031 59.496094 C 181.25 59.871094 180.601562 60.332031 179.972656 60.773438 C 179.632812 61.011719 179.289062 61.253906 178.941406 61.488281 C 176.640625 62.980469 173.964844 63.84375 171.371094 64.679688 C 168.703125 65.542969 165.945312 66.429688 163.523438 68 C 160.742188 69.800781 158.898438 72.25 158.335938 74.894531 C 157.878906 77.078125 158.296875 79.261719 158.695312 81.382812 C 158.921875 82.546875 159.148438 83.746094 159.222656 84.910156 C 159.335938 86.722656 159.019531 88.628906 158.695312 90.492188 C 157.613281 89.832031 156.507812 89.328125 155.382812 88.972656 C 155.359375 88.90625 155.34375 88.839844 155.300781 88.785156 C 154.539062 87.863281 154.496094 86.640625 154.449219 85.332031 C 154.417969 84.445312 154.382812 83.535156 154.117188 82.671875 C 153.886719 81.90625 153.488281 81.253906 153.015625 80.652344 C 153.042969 81.261719 152.953125 81.882812 152.75 82.476562 C 152.832031 82.660156 152.921875 82.832031 152.984375 83.019531 C 153.203125 83.730469 153.230469 84.527344 153.261719 85.378906 C 153.300781 86.464844 153.34375 87.585938 153.804688 88.597656 C 151.886719 88.660156 150.074219 88.703125 148.179688 88.5625 C 145 88.3125 142.878906 87.621094 140.609375 86.105469 C 140.398438 85.960938 140.210938 85.796875 140.015625 85.640625 C 139.121094 85.355469 138.226562 85.0625 137.332031 84.777344 C 137.566406 84.992188 137.804688 85.203125 138.03125 85.429688 C 138.609375 86 139.203125 86.59375 139.941406 87.089844 C 142.398438 88.734375 144.675781 89.476562 148.074219 89.746094 C 149.03125 89.824219 149.984375 89.84375 150.925781 89.84375 C 151.945312 89.84375 152.960938 89.816406 153.953125 89.785156 C 154 89.808594 154.035156 89.839844 154.089844 89.84375 C 155.195312 90.09375 156.277344 90.523438 157.335938 91.101562 C 149.894531 92.023438 142.445312 93.375 135.175781 95.164062 L 134.453125 95.34375 C 132.199219 95.898438 129.867188 96.476562 127.542969 96.636719 C 126.742188 96.6875 125.929688 96.695312 125.125 96.703125 C 123.597656 96.710938 122.027344 96.726562 120.484375 97.054688 C 119.164062 97.339844 117.808594 97.875 116.246094 98.722656 C 113 100.488281 110.300781 102.847656 108.316406 105.578125 C 108.628906 105.820312 108.9375 106.074219 109.230469 106.339844 C 111.117188 103.722656 113.699219 101.464844 116.808594 99.765625 C 118.277344 98.96875 119.523438 98.476562 120.734375 98.210938 C 122.15625 97.902344 123.597656 97.898438 125.132812 97.882812 C 125.964844 97.882812 126.800781 97.867188 127.628906 97.8125 C 130.054688 97.648438 132.4375 97.0625 134.738281 96.492188 L 135.460938 96.3125 C 143.160156 94.417969 151.058594 93.007812 158.945312 92.089844 C 159.644531 92.585938 160.335938 93.15625 161.019531 93.804688 C 149.277344 96.453125 138.882812 102.515625 128.386719 109.035156 C 126.777344 110.035156 124.949219 111.167969 123.433594 112.625 C 121.785156 114.203125 120.539062 116.101562 119.328125 117.941406 L 117.222656 121.140625 C 117.480469 121.472656 117.742188 121.785156 118.011719 122.09375 L 120.3125 118.59375 C 121.484375 116.816406 122.695312 114.96875 124.246094 113.480469 C 125.679688 112.105469 127.445312 111.007812 129.003906 110.039062 C 139.625 103.4375 150.148438 97.3125 162.011719 94.792969 C 162.679688 95.5 163.351562 96.257812 164.019531 97.109375 C 164.148438 97.273438 164.273438 97.453125 164.402344 97.625 C 164.296875 97.6875 164.191406 97.753906 164.085938 97.820312 C 163.75 98.023438 163.402344 98.226562 163.066406 98.429688 C 158.945312 100.9375 155.15625 103.964844 151.804688 107.425781 C 149.855469 109.433594 148.050781 111.601562 146.300781 113.691406 L 139.761719 121.515625 C 138.195312 123.386719 136.574219 125.324219 135.355469 127.523438 C 134.777344 128.570312 134.308594 129.664062 133.925781 130.800781 C 134.28125 130.996094 134.632812 131.195312 134.972656 131.40625 C 135.339844 130.257812 135.8125 129.148438 136.394531 128.09375 C 137.558594 125.992188 139.144531 124.101562 140.671875 122.265625 L 147.210938 114.441406 C 148.945312 112.367188 150.734375 110.222656 152.652344 108.238281 C 155.9375 104.851562 159.652344 101.882812 163.679688 99.429688 C 164.011719 99.226562 164.351562 99.023438 164.6875 98.828125 C 164.824219 98.746094 164.964844 98.65625 165.109375 98.574219 C 165.769531 99.488281 166.425781 100.414062 167.054688 101.328125 C 167.460938 101.921875 167.875 102.523438 168.296875 103.117188 C 166.574219 104.414062 165.199219 106.105469 164.011719 107.675781 C 158.628906 114.734375 154.773438 121.90625 152.539062 128.988281 C 151.421875 132.554688 150.652344 136.257812 149.917969 139.835938 L 149.292969 142.84375 C 149.691406 142.882812 150.082031 142.929688 150.480469 142.964844 L 151.074219 140.074219 C 151.804688 136.523438 152.5625 132.855469 153.667969 129.34375 C 155.855469 122.386719 159.652344 115.335938 164.953125 108.386719 C 166.085938 106.902344 167.386719 105.285156 168.988281 104.078125 C 169.851562 105.265625 170.753906 106.4375 171.738281 107.53125 C 172.019531 107.839844 172.320312 108.125 172.605469 108.425781 C 172.605469 108.449219 172.582031 108.464844 172.582031 108.484375 C 171.628906 115.726562 169.851562 122.867188 167.296875 129.710938 C 166.808594 131.015625 166.289062 132.308594 165.777344 133.609375 C 164.757812 136.175781 163.695312 138.835938 162.882812 141.53125 C 161.613281 145.757812 160.921875 150.09375 160.816406 154.472656 C 161.09375 154.898438 161.515625 155.238281 161.988281 155.492188 C 162.011719 150.882812 162.6875 146.324219 164.027344 141.875 C 164.832031 139.226562 165.875 136.589844 166.890625 134.042969 C 167.410156 132.738281 167.929688 131.4375 168.425781 130.125 C 170.914062 123.460938 172.671875 116.515625 173.664062 109.476562 C 174.152344 109.949219 174.640625 110.417969 175.128906 110.875 C 176.792969 112.4375 178.519531 114.050781 179.875 115.898438 C 180.175781 116.3125 180.453125 116.730469 180.722656 117.160156 C 178.378906 124.167969 176.507812 131.421875 174.6875 138.453125 C 173.640625 142.492188 172.566406 146.675781 172.234375 150.933594 C 172.046875 153.316406 172.125 155.554688 172.445312 157.632812 L 173.695312 157.867188 C 173.332031 155.761719 173.234375 153.480469 173.421875 151.023438 C 173.746094 146.871094 174.808594 142.742188 175.84375 138.738281 C 177.566406 132.074219 179.347656 125.203125 181.519531 118.550781 C 182.789062 120.945312 183.699219 123.558594 184.585938 126.105469 C 185.0625 127.472656 185.707031 128.710938 186.429688 129.882812 C 185.917969 132.054688 185.113281 134.179688 184.316406 136.242188 C 183.511719 138.324219 182.683594 140.480469 182.152344 142.703125 C 181.316406 146.1875 181.234375 149.792969 181.160156 153.277344 L 181.007812 159.652344 C 181.421875 159.847656 181.8125 160.074219 182.183594 160.34375 L 182.347656 153.300781 C 182.429688 149.875 182.511719 146.339844 183.308594 142.972656 C 183.820312 140.832031 184.632812 138.714844 185.421875 136.671875 C 186.105469 134.90625 186.789062 133.097656 187.308594 131.226562 C 187.984375 132.1875 188.691406 133.113281 189.398438 134.027344 C 189.984375 134.789062 190.578125 135.574219 191.15625 136.378906 C 190.535156 142.84375 189.746094 149.386719 188.820312 155.832031 C 188.210938 160.042969 187.558594 164.625 188.152344 168.945312 C 188.570312 169.265625 189.03125 169.542969 189.496094 169.800781 C 188.652344 165.355469 189.351562 160.457031 190 155.996094 C 190.863281 150.011719 191.601562 143.933594 192.203125 137.910156 C 194.691406 141.90625 195.472656 146.765625 196.203125 151.476562 C 196.261719 151.867188 196.328125 152.261719 196.390625 152.652344 C 196.113281 152.945312 195.917969 153.351562 195.847656 153.714844 C 195.5625 155.132812 195.554688 156.566406 195.554688 157.964844 C 195.554688 159.046875 195.546875 160.15625 195.414062 161.222656 C 195.222656 162.671875 194.78125 164.121094 194.34375 165.519531 C 194.15625 166.128906 193.976562 166.726562 193.804688 167.335938 C 193.359375 168.953125 193.042969 170.609375 192.847656 172.292969 C 193.246094 172.789062 193.59375 173.324219 193.894531 173.894531 C 194.035156 171.78125 194.390625 169.679688 194.945312 167.652344 C 195.113281 167.050781 195.292969 166.464844 195.480469 165.863281 C 195.921875 164.414062 196.390625 162.921875 196.585938 161.367188 C 196.734375 160.222656 196.734375 159.074219 196.742188 157.957031 C 196.742188 157.019531 196.757812 156.109375 196.839844 155.222656 C 196.953125 155.839844 197.058594 156.460938 197.195312 157.070312 C 197.375 157.910156 197.578125 158.746094 197.789062 159.578125 C 198.433594 162.222656 199.105469 164.949219 198.953125 167.652344 C 198.832031 169.898438 198.140625 172.164062 197.480469 174.367188 C 196.921875 176.199219 196.367188 178.078125 196.113281 179.976562 C 196.359375 180.457031 196.683594 180.871094 197.1875 181.058594 C 197.328125 178.976562 197.953125 176.882812 198.605469 174.710938 C 199.292969 172.453125 200.003906 170.109375 200.132812 167.71875 C 200.292969 164.84375 199.601562 162.027344 198.929688 159.300781 C 198.726562 158.472656 198.523438 157.648438 198.34375 156.824219 C 198.203125 156.144531 198.074219 155.457031 197.953125 154.765625 C 198.863281 155.800781 200.125 156.671875 201.660156 157.296875 C 203.066406 157.859375 204.554688 158.1875 205.988281 158.503906 C 206.515625 158.617188 207.035156 158.738281 207.554688 158.859375 C 208.351562 159.054688 209.132812 159.285156 209.914062 159.535156 C 209.882812 159.113281 209.855469 158.691406 209.824219 158.273438 C 209.160156 158.070312 208.507812 157.867188 207.832031 157.699219 C 207.304688 157.574219 206.769531 157.453125 206.246094 157.339844 C 204.855469 157.03125 203.417969 156.71875 202.101562 156.183594 C 200.109375 155.378906 198.644531 154.125 197.984375 152.648438 C 197.929688 152.535156 197.839844 152.4375 197.734375 152.375 C 197.675781 152.339844 197.609375 152.339844 197.546875 152.324219 C 197.496094 151.976562 197.433594 151.625 197.382812 151.28125 C 196.675781 146.75 195.929688 142.09375 193.691406 138.070312 C 197.808594 140.683594 202.652344 141.980469 207.359375 143.230469 C 209.351562 143.753906 211.371094 144.296875 213.347656 144.933594 C 213.515625 144.574219 213.664062 144.203125 213.800781 143.828125 C 211.769531 143.167969 209.695312 142.621094 207.664062 142.078125 C 201.9375 140.5625 196.523438 139.128906 192.1875 135.53125 C 192.121094 135.476562 192.042969 135.457031 191.96875 135.433594 C 191.4375 134.695312 190.886719 133.984375 190.351562 133.285156 C 189.488281 132.167969 188.648438 131.078125 187.894531 129.941406 C 193.433594 130.492188 199.019531 131.183594 204.53125 131.992188 C 207.800781 132.472656 211.25 133.066406 214.53125 134.082031 C 214.460938 133.636719 214.386719 133.203125 214.296875 132.765625 C 211.125 131.84375 207.832031 131.28125 204.710938 130.8125 Z M 204.6875 130.851562 "/>
</g>
</svg>
