<?xml version="1.0" encoding="UTF-8"?>
<svg xmlns="http://www.w3.org/2000/svg" xmlns:xlink="http://www.w3.org/1999/xlink" width="340px" height="383px" viewBox="0 0 340 382" version="1.1">
<g id="surface1">
<path style=" stroke:none;fill-rule:nonzero;fill:rgb(9.803922%,17.647059%,23.137255%);fill-opacity:1;" d="M 90.917969 380.53125 L 184.496094 380.53125 C 189.503906 380.53125 192.957031 376.257812 194.839844 371.636719 C 196.71875 367.015625 197.503906 361.851562 200.488281 357.855469 C 205.296875 351.398438 214.253906 349.875 222.304688 349.34375 C 230.359375 348.816406 239.105469 348.539062 245.34375 343.433594 C 248.699219 340.695312 250.921875 336.835938 253.988281 333.785156 C 259.210938 328.601562 266.503906 326.097656 273.683594 324.417969 C 291.007812 320.363281 309.566406 320.019531 325.339844 311.824219 C 332.929688 307.882812 340.222656 300.808594 339.554688 292.324219 C 339.101562 286.5 334.816406 281.476562 329.613281 278.769531 C 324.417969 276.054688 318.414062 275.3125 312.546875 275.105469 C 309.15625 274.992188 305.730469 275.03125 302.414062 274.304688 C 299.027344 273.554688 295.859375 272.035156 292.714844 270.546875 C 283.503906 266.191406 273.125 262.003906 263.386719 265 C 256.742188 267.054688 251.550781 272.148438 245.453125 275.476562 C 221.03125 288.777344 187.496094 271.78125 164.039062 286.6875 C 150.296875 295.425781 144.410156 312.675781 131.761719 322.914062 C 126.726562 326.984375 120.820312 329.785156 115.128906 332.886719 C 109.34375 336.042969 103.675781 339.601562 99.25 344.460938 C 94.824219 349.320312 91.710938 355.652344 91.878906 362.210938 C 92.019531 367.960938 95.226562 376.667969 90.941406 380.519531 Z M 90.917969 380.53125 "/>
<path style=" stroke:none;fill-rule:nonzero;fill:rgb(5.490196%,34.509804%,36.078431%);fill-opacity:1;" d="M 324.777344 293.777344 C 319.386719 294.664062 314.566406 294.949219 309.679688 294.902344 C 304.816406 294.769531 300.011719 294.175781 295.253906 293.617188 C 290.492188 293.070312 285.773438 292.53125 281.1875 292.347656 C 276.601562 292.203125 272.128906 292.398438 267.929688 293.605469 C 263.714844 294.757812 259.65625 296.90625 255.675781 299.386719 C 251.683594 301.839844 247.824219 304.722656 243.738281 307.316406 C 239.734375 310 235.296875 312.234375 230.625 313.6875 C 225.953125 315.136719 221.136719 316.0625 216.339844 316.722656 C 211.550781 317.410156 206.777344 317.800781 202.140625 318.359375 C 197.5 318.832031 193.089844 319.59375 189.285156 321.269531 C 187.394531 322.101562 185.644531 323.308594 183.886719 324.8125 C 182.152344 326.304688 180.433594 328 178.601562 329.636719 C 176.765625 331.257812 174.746094 332.851562 172.425781 333.898438 C 170.128906 334.964844 167.667969 335.535156 165.246094 335.808594 C 160.382812 336.394531 155.597656 336 150.960938 336.679688 C 146.300781 337.246094 141.796875 338.863281 137.664062 341.109375 C 133.523438 343.339844 129.800781 346.335938 126.660156 349.828125 C 123.554688 353.355469 121.066406 357.421875 119.433594 361.796875 C 119.300781 362.144531 118.917969 362.324219 118.570312 362.195312 C 118.21875 362.0625 118.046875 361.683594 118.167969 361.332031 L 118.167969 361.3125 C 121.871094 352.359375 128.710938 344.875 137.121094 340.167969 C 141.347656 337.84375 145.945312 336.148438 150.746094 335.363281 C 155.539062 334.511719 160.382812 334.757812 164.988281 334.046875 C 167.289062 333.71875 169.519531 333.113281 171.527344 332.101562 C 173.511719 331.0625 175.199219 329.546875 176.691406 327.789062 C 178.199219 326.046875 179.527344 324.070312 181.113281 322.15625 C 182.664062 320.238281 184.578125 318.320312 186.910156 316.910156 C 191.570312 314.09375 196.863281 313.488281 201.667969 313.140625 C 206.539062 312.84375 211.304688 312.941406 216.035156 312.902344 C 220.746094 312.84375 225.460938 312.605469 229.988281 311.492188 C 234.535156 310.433594 238.738281 308.34375 242.5625 305.613281 C 246.398438 302.890625 249.855469 299.636719 253.617188 296.566406 C 257.339844 293.488281 261.535156 290.585938 266.46875 288.929688 C 271.417969 287.34375 276.660156 287.105469 281.558594 287.738281 C 286.484375 288.324219 291.152344 289.609375 295.777344 290.753906 C 300.398438 291.875 305.035156 292.90625 309.714844 293.027344 C 314.332031 293.25 319.242188 292.214844 322.511719 289.011719 C 323.625 287.925781 325.394531 287.945312 326.492188 289.042969 C 327.582031 290.136719 327.5625 291.914062 326.460938 293.003906 C 326.03125 293.429688 325.5 293.683594 324.941406 293.769531 L 324.769531 293.796875 Z M 324.777344 293.777344 "/>
<path style=" stroke:none;fill-rule:nonzero;fill:rgb(5.490196%,34.509804%,36.078431%);fill-opacity:1;" d="M 315.273438 298.554688 C 315.273438 298.554688 326.394531 299.175781 327.304688 307.058594 C 320.800781 309.1875 315.273438 298.554688 315.273438 298.554688 Z M 315.273438 298.554688 "/>
<path style=" stroke:none;fill-rule:nonzero;fill:rgb(5.490196%,34.509804%,36.078431%);fill-opacity:1;" d="M 300.058594 299.175781 C 300.058594 299.175781 309.242188 302.304688 307.355469 314.199219 C 300.3125 312.191406 300.058594 299.175781 300.058594 299.175781 Z M 300.058594 299.175781 "/>
<path style=" stroke:none;fill-rule:nonzero;fill:rgb(5.490196%,34.509804%,36.078431%);fill-opacity:1;" d="M 278.800781 297.925781 C 278.800781 297.925781 289.621094 303.308594 287.984375 317.328125 C 278.9375 313.820312 278.800781 297.925781 278.800781 297.925781 Z M 278.800781 297.925781 "/>
<path style=" stroke:none;fill-rule:nonzero;fill:rgb(5.490196%,34.509804%,36.078431%);fill-opacity:1;" d="M 258.933594 301.929688 C 258.933594 301.929688 270.121094 306.179688 267.480469 322.949219 C 258.296875 319.078125 258.933594 301.929688 258.933594 301.929688 Z M 258.933594 301.929688 "/>
<path style=" stroke:none;fill-rule:nonzero;fill:rgb(5.490196%,34.509804%,36.078431%);fill-opacity:1;" d="M 241.460938 311.84375 C 241.84375 311.945312 252.90625 321.078125 249.382812 335.601562 C 238.695312 326.59375 241.460938 311.84375 241.460938 311.84375 Z M 241.460938 311.84375 "/>
<path style=" stroke:none;fill-rule:nonzero;fill:rgb(5.490196%,34.509804%,36.078431%);fill-opacity:1;" d="M 225.609375 317.328125 C 225.609375 317.328125 237.175781 326.59375 228.507812 345.800781 C 220.710938 333.59375 225.609375 317.328125 225.609375 317.328125 Z M 225.609375 317.328125 "/>
<path style=" stroke:none;fill-rule:nonzero;fill:rgb(5.490196%,34.509804%,36.078431%);fill-opacity:1;" d="M 206.246094 321.199219 C 206.246094 321.199219 215.816406 331.71875 206.246094 348.984375 C 199.578125 339.097656 206.246094 321.199219 206.246094 321.199219 Z M 206.246094 321.199219 "/>
<path style=" stroke:none;fill-rule:nonzero;fill:rgb(5.490196%,34.509804%,36.078431%);fill-opacity:1;" d="M 185.75 327.59375 C 185.75 327.59375 198.828125 342.613281 190.910156 360.890625 C 178.960938 351.121094 185.75 327.59375 185.75 327.59375 Z M 185.75 327.59375 "/>
<path style=" stroke:none;fill-rule:nonzero;fill:rgb(5.490196%,34.509804%,36.078431%);fill-opacity:1;" d="M 313.003906 290.289062 C 313.003906 290.289062 320.394531 287.160156 321.28125 278.894531 C 315.265625 279.644531 313.003906 290.289062 313.003906 290.289062 Z M 313.003906 290.289062 "/>
<path style=" stroke:none;fill-rule:nonzero;fill:rgb(5.490196%,34.509804%,36.078431%);fill-opacity:1;" d="M 301.558594 289.164062 C 301.558594 289.164062 309.859375 287.417969 310.363281 277.269531 C 302.945312 278.152344 301.558594 289.164062 301.558594 289.164062 Z M 301.558594 289.164062 "/>
<path style=" stroke:none;fill-rule:nonzero;fill:rgb(5.490196%,34.509804%,36.078431%);fill-opacity:1;" d="M 286.347656 286.535156 C 286.347656 286.535156 288.097656 274.898438 295.148438 274.140625 C 293.761719 283.652344 286.347656 286.535156 286.347656 286.535156 Z M 286.347656 286.535156 "/>
<path style=" stroke:none;fill-rule:nonzero;fill:rgb(5.490196%,34.509804%,36.078431%);fill-opacity:1;" d="M 268.488281 286.535156 C 268.488281 286.535156 264.5 272.738281 274.777344 267.140625 C 276.535156 278.152344 268.488281 286.535156 268.488281 286.535156 Z M 268.488281 286.535156 "/>
<path style=" stroke:none;fill-rule:nonzero;fill:rgb(5.490196%,34.509804%,36.078431%);fill-opacity:1;" d="M 251.644531 294.921875 C 251.644531 294.921875 247.746094 280.023438 256.671875 271.011719 C 260.445312 281.148438 251.644531 294.921875 251.644531 294.921875 Z M 251.644531 294.921875 "/>
<path style=" stroke:none;fill-rule:nonzero;fill:rgb(5.490196%,34.509804%,36.078431%);fill-opacity:1;" d="M 237.054688 305.933594 C 237.054688 305.933594 229.761719 292.675781 239.191406 280.335938 C 243.722656 290.03125 237.054688 305.933594 237.054688 305.933594 Z M 237.054688 305.933594 "/>
<path style=" stroke:none;fill-rule:nonzero;fill:rgb(5.490196%,34.509804%,36.078431%);fill-opacity:1;" d="M 215.25 308.316406 C 215.25 308.316406 211.15625 294.054688 223.46875 282.972656 C 227.5 296.679688 215.25 308.316406 215.25 308.316406 Z M 215.25 308.316406 "/>
<path style=" stroke:none;fill-rule:nonzero;fill:rgb(5.490196%,34.509804%,36.078431%);fill-opacity:1;" d="M 198.457031 308.941406 C 198.457031 308.941406 194.933594 293.070312 204.238281 284.238281 C 209.902344 296.179688 198.457031 308.941406 198.457031 308.941406 Z M 198.457031 308.941406 "/>
<path style=" stroke:none;fill-rule:nonzero;fill:rgb(9.803922%,17.647059%,23.137255%);fill-opacity:1;" d="M -16.128906 324.082031 C -14.042969 311.113281 -11.894531 297.925781 -6.113281 286.128906 C 0.695312 272.234375 12.253906 260.832031 17.527344 246.292969 C 26.425781 221.703125 15.617188 193.203125 24.921875 168.765625 C 32.097656 149.933594 50.15625 136.632812 56.683594 117.566406 C 60.417969 106.65625 60.039062 94.746094 63.214844 83.671875 C 66.644531 71.734375 74.320312 61.046875 84.546875 53.933594 C 90.238281 49.972656 96.695312 47.089844 101.878906 42.496094 C 108.359375 36.765625 112.355469 28.851562 117.179688 21.695312 C 126.960938 7.175781 139.402344 -3.304688 155.988281 3.660156 C 162.128906 6.242188 168.03125 16.449219 168.320312 23.085938 C 168.816406 34.261719 156.089844 41.4375 152.585938 52.0625 C 147.816406 66.492188 161.164062 80.488281 162.953125 95.578125 C 164.6875 110.199219 155.445312 123.640625 146.480469 135.347656 C 137.511719 147.050781 127.875 160.027344 128.671875 174.730469 C 129.316406 186.6875 136.90625 197.558594 137.027344 209.539062 C 137.230469 228.386719 119.238281 243.34375 117.851562 262.148438 C 117.152344 271.710938 120.855469 280.960938 123.324219 290.234375 C 125.785156 299.507812 126.820312 310.09375 121.445312 318.046875 C 121.445312 318.046875 88.632812 344.269531 105.6875 380.179688 L 1.230469 380.179688 Z M -16.128906 324.082031 "/>
<path style=" stroke:none;fill-rule:nonzero;fill:rgb(5.490196%,34.509804%,36.078431%);fill-opacity:1;" d="M 136.839844 33.707031 C 136.839844 33.707031 144.882812 24.761719 157.714844 30.980469 C 150.417969 37.710938 136.839844 33.707031 136.839844 33.707031 Z M 136.839844 33.707031 "/>
<path style=" stroke:none;fill-rule:nonzero;fill:rgb(5.490196%,34.509804%,36.078431%);fill-opacity:1;" d="M 129.542969 52.976562 C 129.542969 52.976562 132.660156 42.96875 149.585938 46.222656 C 142.621094 52.722656 129.542969 52.976562 129.542969 52.976562 Z M 129.542969 52.976562 "/>
<path style=" stroke:none;fill-rule:nonzero;fill:rgb(5.490196%,34.509804%,36.078431%);fill-opacity:1;" d="M 127.535156 68.003906 C 127.535156 68.003906 137.847656 58.992188 147.277344 63.488281 C 139.097656 72.503906 127.535156 68.003906 127.535156 68.003906 Z M 127.535156 68.003906 "/>
<path style=" stroke:none;fill-rule:nonzero;fill:rgb(5.490196%,34.509804%,36.078431%);fill-opacity:1;" d="M 116.972656 87.019531 C 116.972656 87.019531 131.300781 74.503906 153.6875 81.007812 C 136.082031 92.523438 116.972656 87.019531 116.972656 87.019531 Z M 116.972656 87.019531 "/>
<path style=" stroke:none;fill-rule:nonzero;fill:rgb(5.490196%,34.509804%,36.078431%);fill-opacity:1;" d="M 107.40625 113.554688 C 107.40625 113.554688 124.511719 93.535156 154.683594 99.792969 C 142.613281 114.058594 107.40625 113.554688 107.40625 113.554688 Z M 107.40625 113.554688 "/>
<path style=" stroke:none;fill-rule:nonzero;fill:rgb(5.490196%,34.509804%,36.078431%);fill-opacity:1;" d="M 99.867188 140.460938 C 99.867188 140.460938 117.21875 122.066406 147.269531 124.070312 C 139.09375 140.335938 99.867188 140.460938 99.867188 140.460938 Z M 99.867188 140.460938 "/>
<path style=" stroke:none;fill-rule:nonzero;fill:rgb(5.490196%,34.509804%,36.078431%);fill-opacity:1;" d="M 90 164.871094 C 90 164.871094 105.652344 146.339844 129.535156 151.855469 C 118.972656 164.371094 90 164.871094 90 164.871094 Z M 90 164.871094 "/>
<path style=" stroke:none;fill-rule:nonzero;fill:rgb(5.490196%,34.509804%,36.078431%);fill-opacity:1;" d="M 73.558594 193.089844 C 73.558594 193.089844 91.054688 168.878906 122.621094 173.386719 C 108.667969 189.15625 94.785156 193.136719 73.558594 193.089844 Z M 73.558594 193.089844 "/>
<path style=" stroke:none;fill-rule:nonzero;fill:rgb(5.490196%,34.509804%,36.078431%);fill-opacity:1;" d="M 122.621094 195.578125 C 112.503906 213.511719 89.878906 220.828125 72.144531 219.324219 C 72.144531 219.324219 89.355469 192.285156 122.621094 195.578125 Z M 122.621094 195.578125 "/>
<path style=" stroke:none;fill-rule:nonzero;fill:rgb(5.490196%,34.509804%,36.078431%);fill-opacity:1;" d="M 148.3125 18.105469 C 143.21875 20.277344 138.570312 23.589844 134.714844 27.6875 C 132.78125 29.734375 131.035156 31.980469 129.574219 34.394531 C 128.101562 36.796875 126.785156 39.320312 125.820312 41.984375 C 124.863281 44.640625 124.113281 47.378906 123.683594 50.179688 C 123.238281 52.976562 123.15625 55.859375 122.898438 58.765625 C 122.671875 61.667969 122.25 64.617188 121.40625 67.480469 C 120.554688 70.335938 119.34375 73.070312 117.953125 75.675781 C 115.148438 80.902344 111.679688 85.6875 108.460938 90.433594 C 105.222656 95.179688 102.324219 99.839844 100.09375 104.957031 C 97.863281 110.03125 96.171875 115.363281 95.195312 120.863281 C 94.167969 126.339844 94.085938 132.113281 93.695312 137.929688 C 93.488281 140.839844 93.292969 143.773438 92.789062 146.679688 C 92.355469 149.601562 91.585938 152.496094 90.457031 155.265625 C 88.222656 160.902344 83.9375 165.296875 80.074219 169.539062 C 79.09375 170.609375 78.128906 171.667969 77.210938 172.746094 C 76.277344 173.8125 75.453125 174.957031 74.585938 176.0625 C 72.941406 178.351562 71.492188 180.75 70.179688 183.21875 C 67.605469 188.179688 65.613281 193.4375 64.429688 198.894531 C 63.832031 201.613281 63.433594 204.382812 63.285156 207.171875 C 63.09375 209.953125 63.132812 212.75 63.390625 215.53125 C 63.863281 221.078125 65.363281 226.613281 66.691406 232.253906 C 68.019531 237.878906 69.324219 243.742188 69.160156 249.734375 C 69.058594 252.710938 68.6875 255.710938 67.804688 258.574219 C 66.96875 261.457031 65.5625 264.175781 63.679688 266.511719 C 63.453125 266.796875 63.027344 266.84375 62.742188 266.617188 C 62.464844 266.398438 62.410156 266.015625 62.601562 265.730469 C 65.753906 261.042969 66.816406 255.320312 66.609375 249.742188 C 66.457031 244.125 65.066406 238.617188 63.492188 233.089844 C 61.921875 227.554688 60.203125 221.902344 59.5625 215.929688 C 59.21875 212.957031 59.09375 209.953125 59.285156 206.964844 C 59.421875 203.980469 59.816406 201.003906 60.425781 198.070312 C 61.601562 192.203125 63.78125 186.53125 66.816406 181.375 C 68.355469 178.804688 70.140625 176.394531 72.039062 174.097656 C 73.035156 172.988281 74.003906 171.855469 75.0625 170.804688 C 76.101562 169.757812 77.160156 168.746094 78.222656 167.753906 C 82.449219 163.824219 86.652344 159.8125 88.707031 154.5625 C 89.789062 151.988281 90.371094 149.207031 90.742188 146.410156 C 91.042969 143.601562 91.128906 140.746094 91.0625 137.878906 C 90.929688 132.152344 90.445312 126.316406 90.980469 120.316406 C 91.507812 114.355469 93 108.449219 95.394531 102.921875 C 96.554688 100.140625 98.023438 97.496094 99.640625 94.964844 C 101.3125 92.449219 103.132812 90.09375 105.046875 87.871094 C 108.84375 83.414062 112.871094 79.308594 115.964844 74.542969 C 116.726562 73.351562 117.4375 72.132812 118.074219 70.875 C 118.683594 69.609375 119.210938 68.304688 119.648438 66.96875 C 120.5625 64.3125 120.882812 61.5 121.140625 58.640625 C 121.378906 55.789062 121.519531 52.875 121.910156 49.953125 C 122.3125 47.027344 123.03125 44.148438 123.988281 41.359375 C 124.925781 38.566406 126.171875 35.859375 127.636719 33.289062 C 129.101562 30.714844 130.769531 28.242188 132.699219 25.96875 C 134.632812 23.710938 136.679688 21.511719 139.015625 19.609375 C 141.339844 17.699219 143.835938 15.984375 146.480469 14.46875 C 147.464844 13.898438 148.71875 14.230469 149.289062 15.210938 C 149.859375 16.199219 149.53125 17.445312 148.539062 18.011719 C 148.472656 18.050781 148.398438 18.085938 148.332031 18.113281 L 148.289062 18.132812 Z M 148.3125 18.105469 "/>
<path style=" stroke:none;fill-rule:nonzero;fill:rgb(5.490196%,34.509804%,36.078431%);fill-opacity:1;" d="M 128.660156 27.566406 C 128.660156 27.566406 134.199219 18.300781 127.535156 12.300781 C 124.144531 21.933594 128.660156 27.566406 128.660156 27.566406 Z M 128.660156 27.566406 "/>
<path style=" stroke:none;fill-rule:nonzero;fill:rgb(5.490196%,34.509804%,36.078431%);fill-opacity:1;" d="M 119.230469 46.964844 C 119.230469 46.964844 125.765625 32.824219 117.84375 26.8125 C 113.070312 33.574219 119.230469 46.964844 119.230469 46.964844 Z M 119.230469 46.964844 "/>
<path style=" stroke:none;fill-rule:nonzero;fill:rgb(5.490196%,34.509804%,36.078431%);fill-opacity:1;" d="M 116.03125 65.675781 C 116.03125 65.675781 121.75 45.964844 107.40625 40.328125 C 104.265625 52.347656 116.03125 65.675781 116.03125 65.675781 Z M 116.03125 65.675781 "/>
<path style=" stroke:none;fill-rule:nonzero;fill:rgb(5.490196%,34.509804%,36.078431%);fill-opacity:1;" d="M 105.027344 79.882812 C 105.027344 79.882812 111.558594 61.714844 99.238281 49.273438 C 95.847656 61.367188 105.027344 79.882812 105.027344 79.882812 Z M 105.027344 79.882812 "/>
<path style=" stroke:none;fill-rule:nonzero;fill:rgb(5.490196%,34.509804%,36.078431%);fill-opacity:1;" d="M 94.589844 98.03125 C 94.589844 98.03125 100.996094 68.746094 85.902344 58.484375 C 80.503906 75.878906 94.589844 98.03125 94.589844 98.03125 Z M 94.589844 98.03125 "/>
<path style=" stroke:none;fill-rule:nonzero;fill:rgb(5.490196%,34.509804%,36.078431%);fill-opacity:1;" d="M 89.550781 114.933594 C 89.550781 114.933594 89.675781 87.03125 67.546875 79.144531 C 66.292969 96.417969 89.550781 114.933594 89.550781 114.933594 Z M 89.550781 114.933594 "/>
<path style=" stroke:none;fill-rule:nonzero;fill:rgb(5.490196%,34.509804%,36.078431%);fill-opacity:1;" d="M 87.414062 132.832031 C 87.414062 132.832031 82.515625 108.214844 62.515625 106.070312 C 63.019531 121.316406 87.414062 132.832031 87.414062 132.832031 Z M 87.414062 132.832031 "/>
<path style=" stroke:none;fill-rule:nonzero;fill:rgb(5.490196%,34.509804%,36.078431%);fill-opacity:1;" d="M 84.273438 158.742188 C 84.273438 158.742188 81.128906 127.832031 58.238281 122.820312 C 57.488281 141.21875 84.273438 158.742188 84.273438 158.742188 Z M 84.273438 158.742188 "/>
<path style=" stroke:none;fill-rule:nonzero;fill:rgb(5.490196%,34.509804%,36.078431%);fill-opacity:1;" d="M 64.285156 176.886719 C 64.285156 176.886719 69.4375 149.847656 47.8125 137.589844 C 45.921875 160.617188 64.285156 176.886719 64.285156 176.886719 Z M 64.285156 176.886719 "/>
<path style=" stroke:none;fill-rule:nonzero;fill:rgb(5.490196%,34.509804%,36.078431%);fill-opacity:1;" d="M 57.613281 196.414062 C 57.613281 196.414062 60.882812 165.503906 33.09375 158.742188 C 32.84375 181.148438 57.613281 196.414062 57.613281 196.414062 Z M 57.613281 196.414062 "/>
<path style=" stroke:none;fill-rule:nonzero;fill:rgb(5.490196%,34.509804%,36.078431%);fill-opacity:1;" d="M 36.492188 327.800781 C 35.921875 314.066406 35.371094 300.121094 38.503906 286.726562 C 41.640625 273.328125 48.972656 260.324219 60.871094 253.335938 C 69.496094 248.28125 80.320312 246.398438 86.894531 238.882812 C 95.339844 229.238281 93.355469 214.519531 97.808594 202.527344 C 103.207031 187.972656 117.890625 178.585938 132.957031 174.605469 C 137.960938 173.285156 143.1875 172.402344 147.671875 169.835938 C 157.734375 164.085938 161.429688 151.816406 166.488281 141.4375 C 178.230469 117.359375 201.894531 99.40625 228.324219 94.53125 C 238.507812 92.648438 250.472656 93.203125 257.277344 100.996094 C 263.3125 107.914062 263.171875 118.484375 259.800781 127.007812 C 256.4375 135.539062 250.398438 142.703125 245.269531 150.3125 C 240.128906 157.921875 235.714844 166.636719 236.292969 175.777344 C 236.570312 180.058594 237.925781 184.195312 238.648438 188.417969 C 240.683594 200.367188 237.269531 213.121094 229.554688 222.476562 C 223.367188 229.980469 214.839844 235.117188 207.367188 241.347656 C 199.890625 247.582031 193.0625 255.765625 192.464844 265.445312 C 192.066406 271.824219 194.441406 278.101562 194.277344 284.496094 C 193.996094 295.375 186.417969 304.820312 177.71875 311.410156 C 169.007812 318 158.921875 322.621094 150.296875 329.3125 C 146.070312 332.59375 141.910156 338.246094 144.75 342.765625 C 152.484375 355.113281 138.34375 368.867188 132.507812 380.179688 C 128.792969 380.976562 126.539062 380.53125 122.734375 380.53125 L 20.101562 380.53125 C 17.148438 362.664062 25.273438 342.054688 36.492188 327.800781 Z M 36.492188 327.800781 "/>
<path style=" stroke:none;fill-rule:nonzero;fill:rgb(9.803922%,17.647059%,23.137255%);fill-opacity:1;" d="M 223.34375 125.335938 C 211.527344 128.671875 201.132812 137.816406 196.054688 149.394531 C 193.328125 155.140625 192.527344 161.523438 191.867188 168.046875 C 191.507812 171.308594 191.191406 174.605469 190.574219 177.90625 C 189.957031 181.199219 189.007812 184.484375 187.609375 187.558594 C 184.886719 193.738281 180.875 199.253906 176.414062 204.1875 C 171.980469 209.179688 167.105469 213.726562 162.292969 218.207031 C 152.699219 227.148438 142.785156 235.753906 137.058594 246.6875 C 135.632812 249.414062 134.511719 252.265625 133.65625 255.25 C 132.84375 258.234375 132.359375 261.425781 131.875 264.691406 C 131.394531 267.941406 130.921875 271.269531 130.066406 274.539062 C 129.839844 275.351562 129.613281 276.167969 129.347656 276.96875 C 129.078125 277.773438 128.699219 278.535156 128.398438 279.324219 C 128.054688 280.089844 127.824219 280.921875 127.382812 281.640625 L 126.167969 283.855469 C 125.796875 284.617188 125.28125 285.277344 124.804688 285.976562 C 124.320312 286.667969 123.867188 287.367188 123.363281 288.046875 L 121.75 289.980469 C 121.226562 290.640625 120.675781 291.273438 120.078125 291.851562 C 118.910156 293.050781 117.757812 294.269531 116.503906 295.363281 C 115.300781 296.527344 114.015625 297.585938 112.738281 298.65625 C 107.636719 302.929688 102.269531 306.8125 97.304688 310.980469 C 92.367188 315.15625 87.652344 319.492188 84.300781 324.546875 L 83.042969 326.449219 C 82.628906 327.085938 82.304688 327.773438 81.933594 328.433594 C 81.148438 329.730469 80.578125 331.15625 79.933594 332.53125 C 78.785156 335.355469 77.738281 338.238281 77.027344 341.273438 C 73.941406 353.335938 73.976562 366.386719 72.882812 379.570312 C 72.855469 379.933594 72.523438 380.222656 72.152344 380.179688 C 71.851562 380.15625 71.613281 379.933594 71.546875 379.652344 C 70.054688 373.179688 69.117188 366.617188 68.746094 359.921875 C 68.441406 353.242188 68.71875 346.398438 70.292969 339.65625 C 71.003906 336.28125 72.191406 332.972656 73.570312 329.75 C 75.0625 326.574219 76.820312 323.484375 79.011719 320.703125 C 79.515625 319.972656 80.132812 319.339844 80.710938 318.679688 L 82.476562 316.722656 C 83.761719 315.558594 84.996094 314.320312 86.324219 313.234375 C 87.660156 312.164062 88.964844 311.039062 90.363281 310.105469 C 91.730469 309.101562 93.113281 308.148438 94.519531 307.25 C 100.113281 303.570312 105.851562 300.367188 111.148438 296.605469 C 112.460938 295.652344 113.789062 294.703125 115.023438 293.664062 C 115.652344 293.152344 116.308594 292.664062 116.894531 292.121094 L 118.652344 290.472656 C 119.257812 289.929688 119.804688 289.34375 120.332031 288.738281 L 121.929688 286.933594 C 122.414062 286.304688 122.867188 285.636719 123.332031 284.988281 C 123.800781 284.332031 124.285156 283.691406 124.636719 282.972656 L 125.765625 280.863281 C 126.171875 280.171875 126.355469 279.378906 126.660156 278.65625 C 127.226562 277.167969 127.710938 275.652344 127.960938 274.078125 C 128.503906 270.929688 128.617188 267.714844 128.644531 264.433594 C 128.691406 261.15625 128.699219 257.796875 129.183594 254.355469 C 129.289062 253.5 129.488281 252.644531 129.65625 251.792969 C 129.820312 250.9375 130.023438 250.082031 130.273438 249.25 C 130.753906 247.570312 131.390625 245.945312 132.070312 244.328125 C 134.871094 237.878906 139.433594 232.53125 144.171875 227.757812 C 149.007812 223.03125 154.21875 218.90625 159.394531 214.859375 C 164.5625 210.804688 169.6875 206.769531 174.265625 202.191406 C 178.859375 197.648438 182.796875 192.4375 185.351562 186.585938 C 187.953125 180.746094 188.65625 174.316406 189.152344 167.789062 C 189.417969 164.523438 189.671875 161.210938 190.242188 157.894531 C 190.800781 154.574219 191.683594 151.257812 192.949219 148.109375 C 197.933594 135.441406 208.25 124.910156 221.296875 119.523438 C 222.875 118.871094 224.691406 119.617188 225.34375 121.1875 C 226 122.753906 225.246094 124.558594 223.671875 125.214844 C 223.558594 125.257812 223.445312 125.296875 223.332031 125.335938 Z M 223.34375 125.335938 "/>
<path style=" stroke:none;fill-rule:nonzero;fill:rgb(9.803922%,17.647059%,23.137255%);fill-opacity:1;" d="M 195.066406 117.691406 C 195.066406 117.691406 189.789062 125.949219 193.75 134.769531 C 200.917969 125.382812 195.066406 117.691406 195.066406 117.691406 Z M 195.066406 117.691406 "/>
<path style=" stroke:none;fill-rule:nonzero;fill:rgb(9.803922%,17.647059%,23.137255%);fill-opacity:1;" d="M 177.894531 137.589844 C 177.894531 137.589844 187.136719 144.914062 184.308594 162.375 C 172.238281 150.546875 177.894531 137.589844 177.894531 137.589844 Z M 177.894531 137.589844 "/>
<path style=" stroke:none;fill-rule:nonzero;fill:rgb(9.803922%,17.647059%,23.137255%);fill-opacity:1;" d="M 164.132812 163.691406 C 164.132812 163.691406 177.328125 175.855469 173.378906 191.285156 C 161.492188 187.53125 164.132812 163.691406 164.132812 163.691406 Z M 164.132812 163.691406 "/>
<path style=" stroke:none;fill-rule:nonzero;fill:rgb(9.803922%,17.647059%,23.137255%);fill-opacity:1;" d="M 142.222656 180.582031 C 142.222656 180.582031 160.925781 188.46875 153.195312 210.804688 C 136.03125 201.984375 142.222656 180.582031 142.222656 180.582031 Z M 142.222656 180.582031 "/>
<path style=" stroke:none;fill-rule:nonzero;fill:rgb(9.803922%,17.647059%,23.137255%);fill-opacity:1;" d="M 118.488281 193.726562 C 118.488281 193.726562 135.84375 204.617188 130.941406 231.269531 C 115.851562 222.820312 118.488281 193.726562 118.488281 193.726562 Z M 118.488281 193.726562 "/>
<path style=" stroke:none;fill-rule:nonzero;fill:rgb(9.803922%,17.647059%,23.137255%);fill-opacity:1;" d="M 100.570312 227.519531 C 100.570312 227.519531 123.199219 237.84375 123.960938 256.25 C 107.742188 250.992188 100.570312 227.519531 100.570312 227.519531 Z M 100.570312 227.519531 "/>
<path style=" stroke:none;fill-rule:nonzero;fill:rgb(9.803922%,17.647059%,23.137255%);fill-opacity:1;" d="M 115.660156 279.710938 C 115.660156 279.710938 106.621094 252.800781 82.753906 249.734375 C 81.707031 272.761719 115.660156 279.710938 115.660156 279.710938 Z M 115.660156 279.710938 "/>
<path style=" stroke:none;fill-rule:nonzero;fill:rgb(9.803922%,17.647059%,23.137255%);fill-opacity:1;" d="M 84.347656 303.183594 C 88.6875 285.535156 77.4375 263.347656 61.910156 262.4375 C 61.335938 288.539062 84.347656 303.183594 84.347656 303.183594 Z M 84.347656 303.183594 "/>
<path style=" stroke:none;fill-rule:nonzero;fill:rgb(9.803922%,17.647059%,23.137255%);fill-opacity:1;" d="M 45.117188 293.984375 C 66.046875 296.238281 73.21875 314.820312 71.898438 323.464844 C 56.429688 321.769531 45.117188 293.984375 45.117188 293.984375 Z M 45.117188 293.984375 "/>
<path style=" stroke:none;fill-rule:nonzero;fill:rgb(9.803922%,17.647059%,23.137255%);fill-opacity:1;" d="M 211.289062 142.847656 C 211.289062 142.847656 222.007812 133.53125 234.296875 140.964844 C 223.738281 147.722656 211.289062 142.847656 211.289062 142.847656 Z M 211.289062 142.847656 "/>
<path style=" stroke:none;fill-rule:nonzero;fill:rgb(9.803922%,17.647059%,23.137255%);fill-opacity:1;" d="M 203.367188 164.625 C 203.367188 164.625 215.25 154.304688 228.640625 162.375 C 224.109375 170.636719 203.367188 164.625 203.367188 164.625 Z M 203.367188 164.625 "/>
<path style=" stroke:none;fill-rule:nonzero;fill:rgb(9.803922%,17.647059%,23.137255%);fill-opacity:1;" d="M 196.382812 191.285156 C 196.382812 191.285156 213.546875 180.582031 230.71875 188.085938 C 218.078125 197.289062 196.382812 191.285156 196.382812 191.285156 Z M 196.382812 191.285156 "/>
<path style=" stroke:none;fill-rule:nonzero;fill:rgb(9.803922%,17.647059%,23.137255%);fill-opacity:1;" d="M 175.257812 215.503906 C 175.257812 215.503906 198.265625 206.492188 216.558594 218.699219 C 191.847656 229.210938 175.257812 215.503906 175.257812 215.503906 Z M 175.257812 215.503906 "/>
<path style=" stroke:none;fill-rule:nonzero;fill:rgb(9.803922%,17.647059%,23.137255%);fill-opacity:1;" d="M 154.511719 237.144531 C 154.511719 237.144531 176.957031 232.964844 191.292969 242.730469 C 179.035156 253.621094 154.511719 237.144531 154.511719 237.144531 Z M 154.511719 237.144531 "/>
<path style=" stroke:none;fill-rule:nonzero;fill:rgb(9.803922%,17.647059%,23.137255%);fill-opacity:1;" d="M 143.761719 262.4375 C 143.761719 262.4375 163.945312 254.234375 186.574219 264.71875 C 168.84375 274.632812 143.761719 262.4375 143.761719 262.4375 Z M 143.761719 262.4375 "/>
<path style=" stroke:none;fill-rule:nonzero;fill:rgb(9.803922%,17.647059%,23.137255%);fill-opacity:1;" d="M 130.5625 286.851562 C 130.5625 286.851562 160.363281 277.460938 183.566406 290.042969 C 163.195312 304.496094 130.5625 286.851562 130.5625 286.851562 Z M 130.5625 286.851562 "/>
<path style=" stroke:none;fill-rule:nonzero;fill:rgb(9.803922%,17.647059%,23.137255%);fill-opacity:1;" d="M 115.660156 305.433594 C 115.660156 305.433594 138.101562 299.050781 159.425781 315.757812 C 137.730469 324.207031 115.660156 305.433594 115.660156 305.433594 Z M 115.660156 305.433594 "/>
<path style=" stroke:none;fill-rule:nonzero;fill:rgb(9.803922%,17.647059%,23.137255%);fill-opacity:1;" d="M 102.269531 319.519531 C 102.269531 319.519531 126.980469 321.960938 137.542969 345.050781 C 109.058594 343.546875 102.269531 319.519531 102.269531 319.519531 Z M 102.269531 319.519531 "/>
<path style=" stroke:none;fill-rule:nonzero;fill:rgb(9.803922%,17.647059%,23.137255%);fill-opacity:1;" d="M 88.121094 339.039062 C 88.121094 339.039062 118.109375 342.414062 123.199219 369.640625 C 98.488281 370.957031 88.121094 339.039062 88.121094 339.039062 Z M 88.121094 339.039062 "/>
</g>
</svg>
