<?xml version="1.0" encoding="UTF-8"?>
<svg xmlns="http://www.w3.org/2000/svg" xmlns:xlink="http://www.w3.org/1999/xlink" width="320px" height="493px" viewBox="0 0 320 492" version="1.1">
<path style=" stroke:none;fill-rule:nonzero;fill:rgb(100%,80%,80%);fill-opacity:1;" d="M 179.898438 107.320312 C 168.636719 115.121094 157.15625 122.449219 152.683594 132.535156 C 139.976562 161.15625 132.351562 191.738281 125.554688 222.292969 C 97.085938 235.933594 69.035156 250.40625 41.671875 266.136719 C 46.425781 271 47.625 279.007812 52.816406 283.398438 C 84.628906 272.222656 124.824219 256.105469 157.527344 248.671875 C 163.433594 219.238281 168.597656 188.648438 172.992188 158.957031 C 175.1875 144.113281 182.15625 122.148438 179.90625 107.3125 Z M 179.898438 107.320312 "/>
<path style=" stroke:none;fill-rule:nonzero;fill:rgb(77.647059%,67.843137%,82.352941%);fill-opacity:1;" d="M 21.265625 179.707031 C 24.046875 177.621094 30.664062 173.300781 39.667969 173.300781 C 42.65625 173.300781 45.257812 173.78125 47.367188 174.371094 C 47.253906 173.847656 46.285156 168.890625 49.722656 165.183594 C 51.800781 162.9375 54.394531 162.359375 55.351562 162.199219 C 56.703125 161.289062 58.382812 160.417969 59.304688 161.023438 C 60.453125 161.78125 59.875 164.417969 59.558594 166.472656 C 59.199219 168.796875 59.304688 172.742188 61.382812 179.820312 C 62.132812 181.851562 65.75 192.175781 60.632812 203.636719 C 55.554688 215.03125 45.542969 219.277344 43.511719 220.082031 C 41.101562 220.222656 28.566406 220.738281 18.046875 211.324219 C 9.222656 203.425781 7.351562 193.492188 6.917969 190.601562 C 6.167969 188.980469 5.265625 186.65625 4.667969 183.765625 C 4.019531 180.636719 2.785156 174.570312 4.988281 172.730469 C 7.390625 170.722656 14.027344 173.621094 21.253906 179.707031 Z M 21.265625 179.707031 "/>
<path style=" stroke:none;fill-rule:nonzero;fill:rgb(77.647059%,67.843137%,82.352941%);fill-opacity:1;" d="M 12.0625 195.730469 C 12.035156 200.535156 11.84375 208.0625 10.886719 217.246094 C 9.253906 232.976562 7.117188 237.136719 6.707031 247.640625 C 6.289062 258.445312 8.796875 261.867188 10.773438 277.976562 C 12.839844 294.839844 13.753906 308.605469 14.199219 317.496094 C 11.644531 317.203125 9.167969 318.480469 8 320.699219 C 6.925781 322.71875 7.097656 325.195312 8.425781 327.109375 L 24.921875 327.109375 C 27.769531 307.457031 30.609375 287.804688 33.457031 268.152344 C 51.261719 240.699219 49.789062 212.195312 36.019531 201.085938 C 33.761719 199.265625 26.503906 194.136719 12.054688 195.746094 Z M 12.0625 195.730469 "/>
<path style=" stroke:none;fill-rule:nonzero;fill:rgb(77.647059%,67.843137%,82.352941%);fill-opacity:1;" d="M 33.816406 318.832031 C 31.339844 315.371094 26.476562 314.777344 23.402344 317.269531 C 20.570312 319.574219 19.964844 323.933594 22.261719 327.097656 C 27.683594 327.050781 33.105469 327.003906 38.527344 326.957031 C 52.21875 304.167969 56.371094 284.5625 57.785156 272.125 C 58.972656 261.640625 60.738281 246.171875 52.933594 241.507812 C 47.71875 238.398438 38.699219 240.367188 33.105469 245.496094 C 24.140625 253.707031 28.035156 266.304688 26.402344 311.714844 C 26.25 315.941406 26.089844 319.410156 25.972656 321.6875 L 33.816406 318.84375 Z M 33.816406 318.832031 "/>
<path style=" stroke:none;fill-rule:nonzero;fill:rgb(77.647059%,67.843137%,82.352941%);fill-opacity:1;" d="M 59.207031 190.949219 C 68.667969 218.0625 79.160156 238.664062 87.449219 253.042969 C 96.59375 268.894531 103.714844 278.773438 102.566406 292.632812 C 101.246094 308.539062 89.699219 320.40625 81.171875 327.375 C 65.816406 327.242188 50.453125 327.109375 35.097656 326.976562 C 36.285156 280.6875 37.484375 234.386719 38.667969 188.097656 L 59.207031 190.941406 Z M 59.207031 190.949219 "/>
<path style=" stroke:none;fill-rule:nonzero;fill:rgb(23.137255%,10.196078%,32.941176%);fill-opacity:1;" d="M 31.539062 186.535156 C 31.539062 188.191406 30.4375 189.539062 29.078125 189.539062 C 27.722656 189.539062 26.621094 188.191406 26.621094 186.535156 C 26.621094 184.875 27.722656 183.527344 29.078125 183.527344 C 30.4375 183.527344 31.539062 184.875 31.539062 186.535156 Z M 31.539062 186.535156 "/>
<path style=" stroke:none;fill-rule:nonzero;fill:rgb(23.137255%,10.196078%,32.941176%);fill-opacity:1;" d="M 51.042969 181.945312 C 51.042969 183.605469 49.941406 184.949219 48.582031 184.949219 C 47.226562 184.949219 46.125 183.605469 46.125 181.945312 C 46.125 180.285156 47.226562 178.941406 48.582031 178.941406 C 49.941406 178.941406 51.042969 180.285156 51.042969 181.945312 Z M 51.042969 181.945312 "/>
<path style=" stroke:none;fill-rule:nonzero;fill:rgb(23.137255%,10.196078%,32.941176%);fill-opacity:1;" d="M 44.289062 188.164062 C 44.234375 188.371094 43.578125 188.105469 43.054688 188.496094 C 41.992188 189.28125 42.808594 191.726562 42.363281 191.871094 C 42.078125 191.957031 41.785156 191.015625 40.863281 190.097656 C 39.390625 188.636719 37.871094 188.75 37.851562 188.15625 C 37.832031 187.519531 39.515625 186.75 41.070312 186.769531 C 42.839844 186.800781 44.386719 187.824219 44.289062 188.15625 Z M 44.289062 188.164062 "/>
<path style=" stroke:none;fill-rule:nonzero;fill:rgb(23.137255%,10.196078%,32.941176%);fill-opacity:1;" d="M 40.84375 195.234375 C 40.417969 195.234375 40.007812 194.988281 39.828125 194.582031 C 39.582031 194.023438 39.828125 193.367188 40.386719 193.121094 C 40.625 193.015625 40.949219 192.808594 41.136719 192.449219 C 41.527344 191.71875 41.023438 190.867188 41.023438 190.855469 C 40.710938 190.335938 40.871094 189.660156 41.386719 189.339844 C 41.898438 189.027344 42.5625 189.160156 42.894531 189.671875 C 43.3125 190.324219 43.902344 191.957031 43.105469 193.472656 C 42.714844 194.210938 42.089844 194.78125 41.28125 195.140625 C 41.128906 195.207031 40.988281 195.234375 40.835938 195.234375 Z M 40.84375 195.234375 "/>
<path style=" stroke:none;fill-rule:nonzero;fill:rgb(23.137255%,10.196078%,32.941176%);fill-opacity:1;" d="M 45.183594 193.730469 C 44.652344 193.699219 43.074219 193.492188 41.972656 192.070312 C 40.9375 190.734375 41.054688 189.246094 41.109375 188.816406 C 41.195312 188.210938 41.753906 187.785156 42.363281 187.878906 C 42.972656 187.964844 43.390625 188.523438 43.304688 189.132812 C 43.285156 189.28125 43.207031 190.039062 43.722656 190.703125 C 44.273438 191.414062 45.097656 191.5 45.257812 191.511719 C 45.867188 191.546875 46.332031 192.078125 46.292969 192.6875 C 46.257812 193.273438 45.773438 193.71875 45.191406 193.71875 Z M 45.183594 193.730469 "/>
<path style=" stroke:none;fill-rule:nonzero;fill:rgb(23.137255%,10.196078%,32.941176%);fill-opacity:1;" d="M 26.289062 315.675781 C 25.605469 315.636719 25.148438 315.109375 25.175781 314.5 L 28.425781 262.371094 C 28.472656 261.765625 28.878906 261.28125 29.601562 261.339844 C 30.210938 261.375 30.675781 261.90625 30.636719 262.515625 L 27.390625 314.644531 C 27.351562 315.230469 26.855469 315.675781 26.277344 315.675781 Z M 26.289062 315.675781 "/>
<path style=" stroke:none;fill-rule:nonzero;fill:rgb(23.137255%,10.196078%,32.941176%);fill-opacity:1;" d="M 19.402344 325.375 C 18.832031 325.375 18.347656 324.9375 18.300781 324.359375 C 18.207031 323.316406 18.128906 319.695312 20.867188 316.851562 C 23.382812 314.234375 27.199219 313.304688 30.855469 314.414062 C 31.445312 314.59375 31.765625 315.210938 31.59375 315.800781 C 31.414062 316.386719 30.808594 316.710938 30.210938 316.539062 C 27.398438 315.6875 24.371094 316.414062 22.480469 318.386719 C 20.390625 320.566406 20.457031 323.375 20.523438 324.179688 C 20.570312 324.785156 20.125 325.328125 19.515625 325.375 C 19.480469 325.375 19.449219 325.375 19.421875 325.375 Z M 19.402344 325.375 "/>
<path style=" stroke:none;fill-rule:nonzero;fill:rgb(23.137255%,10.196078%,32.941176%);fill-opacity:1;" d="M 38.527344 328.058594 C 38.394531 328.058594 38.25 328.039062 38.117188 327.980469 C 37.550781 327.753906 37.273438 327.117188 37.492188 326.550781 L 54.753906 282.972656 C 56.101562 280.707031 56.96875 278.429688 57.402344 276.058594 C 58.296875 271.261719 57.234375 267.167969 56.1875 264.570312 C 55.960938 264.003906 56.238281 263.359375 56.796875 263.128906 C 57.367188 262.902344 58.011719 263.175781 58.238281 263.746094 C 59.398438 266.609375 60.566406 271.148438 59.589844 276.46875 C 59.105469 279.101562 58.144531 281.625 56.738281 283.957031 L 39.5625 327.375 C 39.390625 327.808594 38.972656 328.074219 38.527344 328.074219 Z M 38.527344 328.058594 "/>
<path style=" stroke:none;fill-rule:nonzero;fill:rgb(23.137255%,10.196078%,32.941176%);fill-opacity:1;" d="M 73.613281 326.636719 C 69.796875 325.90625 63.234375 323.820312 59.671875 317.828125 C 54.042969 308.328125 60.359375 296.402344 65.96875 290.707031 C 71.742188 284.847656 78.960938 283.171875 82.738281 282.695312 C 83.382812 282.59375 83.90625 283.046875 83.972656 283.652344 C 84.046875 284.261719 83.621094 284.808594 83.015625 284.886719 C 79.519531 285.332031 72.855469 286.875 67.546875 292.25 C 62.410156 297.457031 56.578125 308.261719 61.574219 316.691406 C 64.6875 321.933594 70.585938 323.789062 73.820312 324.425781 C 74.421875 324.550781 74.808594 325.128906 74.695312 325.726562 C 74.589844 326.253906 74.125 326.617188 73.613281 326.617188 Z M 73.613281 326.636719 "/>
<path style=" stroke:none;fill-rule:nonzero;fill:rgb(23.137255%,10.196078%,32.941176%);fill-opacity:1;" d="M 78.722656 319.023438 C 76.773438 319.023438 74.941406 318.558594 73.355469 317.667969 C 67.480469 314.347656 67.648438 306.738281 67.660156 306.414062 C 67.839844 300.375 72.253906 295.550781 76.273438 293.625 C 78.292969 292.660156 80.050781 292.449219 81.597656 292.261719 C 83.335938 292.050781 84.582031 291.902344 85.632812 290.746094 C 86.773438 289.503906 87.25 287.578125 87.058594 285.027344 C 87.011719 284.421875 87.46875 283.890625 88.085938 283.84375 C 88.683594 283.777344 89.222656 284.261719 89.269531 284.867188 C 89.519531 288.050781 88.84375 290.535156 87.277344 292.242188 C 85.671875 293.996094 83.820312 294.222656 81.863281 294.460938 C 80.421875 294.632812 78.929688 294.820312 77.230469 295.625 C 73.792969 297.265625 70.023438 301.371094 69.871094 306.480469 C 69.871094 306.546875 69.71875 313.070312 74.449219 315.734375 C 76.425781 316.851562 78.503906 316.898438 79.910156 316.738281 C 80.5625 316.671875 81.066406 317.109375 81.132812 317.714844 C 81.199219 318.320312 80.761719 318.871094 80.15625 318.9375 C 79.671875 318.996094 79.1875 319.023438 78.722656 319.023438 Z M 78.722656 319.023438 "/>
<path style=" stroke:none;fill-rule:nonzero;fill:rgb(23.137255%,10.196078%,32.941176%);fill-opacity:1;" d="M 44.804688 316.824219 C 44.472656 316.824219 44.140625 316.671875 43.921875 316.386719 C 43.550781 315.902344 43.644531 315.203125 44.128906 314.832031 C 44.925781 314.234375 47.074219 312.871094 49.816406 313.335938 C 50.246094 313.402344 50.652344 313.515625 51.0625 313.65625 C 51.261719 308.785156 52.125 304.035156 53.652344 299.511719 C 55.675781 293.558594 59.882812 281.171875 71.316406 276.875 C 75.074219 275.464844 79.207031 275.09375 83.554688 275.765625 C 84.164062 275.859375 84.582031 276.429688 84.484375 277.027344 C 84.390625 277.632812 83.820312 278.050781 83.222656 277.945312 C 79.234375 277.320312 75.503906 277.652344 72.101562 278.933594 C 61.660156 282.855469 57.679688 294.574219 55.761719 300.207031 C 54.117188 305.058594 53.273438 310.195312 53.246094 315.457031 C 53.246094 315.875 53.007812 316.246094 52.636719 316.433594 C 52.277344 316.625 51.832031 316.585938 51.488281 316.347656 C 50.863281 315.902344 50.179688 315.621094 49.457031 315.496094 C 47.492188 315.183594 45.90625 316.234375 45.46875 316.578125 C 45.269531 316.730469 45.03125 316.804688 44.792969 316.804688 Z M 44.804688 316.824219 "/>
<path style=" stroke:none;fill-rule:nonzero;fill:rgb(23.137255%,10.196078%,32.941176%);fill-opacity:1;" d="M 18.464844 185.339844 C 17.894531 185.339844 17.410156 184.902344 17.363281 184.324219 C 17.257812 183.140625 16.90625 182.070312 16.316406 181.109375 C 14.046875 177.480469 9.1875 177.375 8.644531 177.375 C 8.035156 177.375 7.535156 176.882812 7.535156 176.265625 C 7.535156 175.652344 8.027344 175.15625 8.644531 175.15625 C 9.320312 175.15625 15.308594 175.289062 18.195312 179.945312 C 18.976562 181.195312 19.429688 182.597656 19.574219 184.136719 C 19.621094 184.742188 19.175781 185.28125 18.566406 185.328125 C 18.539062 185.328125 18.5 185.328125 18.472656 185.328125 Z M 18.464844 185.339844 "/>
<path style=" stroke:none;fill-rule:nonzero;fill:rgb(23.137255%,10.196078%,32.941176%);fill-opacity:1;" d="M 50.765625 176.171875 C 50.691406 176.171875 50.613281 176.171875 50.546875 176.152344 C 49.949219 176.03125 49.5625 175.441406 49.683594 174.84375 C 50.414062 171.253906 52.085938 168.105469 54.519531 165.746094 C 55.34375 164.9375 56.273438 164.207031 57.28125 163.582031 C 57.804688 163.261719 58.488281 163.421875 58.808594 163.941406 C 59.132812 164.464844 58.972656 165.148438 58.449219 165.46875 C 57.574219 166.007812 56.777344 166.636719 56.066406 167.328125 C 53.957031 169.375 52.503906 172.125 51.867188 175.28125 C 51.765625 175.800781 51.296875 176.171875 50.785156 176.171875 Z M 50.765625 176.171875 "/>
<path style=" stroke:none;fill-rule:nonzero;fill:rgb(23.137255%,10.196078%,32.941176%);fill-opacity:1;" d="M 20.316406 200.222656 C 19.898438 200.222656 19.488281 199.984375 19.308594 199.578125 C 19.050781 199.019531 19.308594 198.363281 19.847656 198.109375 L 32.175781 192.476562 C 32.726562 192.222656 33.390625 192.46875 33.644531 193.027344 C 33.902344 193.585938 33.644531 194.242188 33.09375 194.496094 L 20.769531 200.128906 C 20.617188 200.195312 20.464844 200.230469 20.304688 200.230469 Z M 20.316406 200.222656 "/>
<path style=" stroke:none;fill-rule:nonzero;fill:rgb(23.137255%,10.196078%,32.941176%);fill-opacity:1;" d="M 28.453125 202.394531 C 28.195312 202.394531 27.941406 202.308594 27.730469 202.128906 C 27.265625 201.730469 27.207031 201.027344 27.605469 200.5625 L 30.691406 196.941406 C 31.09375 196.476562 31.792969 196.421875 32.261719 196.820312 C 32.726562 197.21875 32.78125 197.917969 32.382812 198.382812 L 29.296875 202.003906 C 29.078125 202.261719 28.765625 202.394531 28.453125 202.394531 Z M 28.453125 202.394531 "/>
<path style=" stroke:none;fill-rule:nonzero;fill:rgb(23.137255%,10.196078%,32.941176%);fill-opacity:1;" d="M 33.53125 203.835938 C 33.324219 203.835938 33.113281 203.777344 32.933594 203.664062 C 32.421875 203.332031 32.269531 202.648438 32.601562 202.136719 L 35.660156 197.398438 C 35.992188 196.875 36.695312 196.734375 37.1875 197.066406 C 37.699219 197.398438 37.851562 198.078125 37.519531 198.589844 L 34.464844 203.332031 C 34.253906 203.664062 33.894531 203.84375 33.53125 203.84375 Z M 33.53125 203.835938 "/>
<path style=" stroke:none;fill-rule:nonzero;fill:rgb(23.137255%,10.196078%,32.941176%);fill-opacity:1;" d="M 67.925781 189.214844 C 67.878906 189.214844 47.578125 188.230469 47.578125 188.230469 C 46.960938 188.203125 46.492188 187.679688 46.523438 187.074219 C 46.550781 186.46875 47.101562 185.964844 47.679688 186.023438 L 67.984375 186.996094 C 68.601562 187.027344 69.074219 187.546875 69.035156 188.15625 C 69.007812 188.75 68.515625 189.207031 67.925781 189.207031 Z M 67.925781 189.214844 "/>
<path style=" stroke:none;fill-rule:nonzero;fill:rgb(23.137255%,10.196078%,32.941176%);fill-opacity:1;" d="M 75.257812 195.234375 C 75.066406 195.21875 52.351562 191.359375 52.351562 191.359375 C 51.753906 191.253906 51.347656 190.6875 51.449219 190.078125 C 51.546875 189.480469 52.097656 189.054688 52.734375 189.167969 L 75.445312 193.027344 C 76.042969 193.132812 76.453125 193.699219 76.347656 194.308594 C 76.253906 194.847656 75.789062 195.226562 75.257812 195.226562 Z M 75.257812 195.234375 "/>
<path style=" stroke:none;fill-rule:nonzero;fill:rgb(23.137255%,10.196078%,32.941176%);fill-opacity:1;" d="M 64.945312 197.40625 C 64.859375 197.40625 64.773438 197.40625 64.695312 197.378906 L 53.015625 194.648438 C 52.417969 194.507812 52.046875 193.910156 52.191406 193.320312 C 52.324219 192.722656 52.933594 192.34375 53.519531 192.496094 L 65.199219 195.234375 C 65.796875 195.378906 66.167969 195.976562 66.027344 196.5625 C 65.914062 197.074219 65.445312 197.417969 64.945312 197.417969 Z M 64.945312 197.40625 "/>
<path style=" stroke:none;fill-rule:nonzero;fill:rgb(30.588235%,46.27451%,59.607843%);fill-opacity:1;" d="M 161.742188 342.570312 L 134.386719 342.570312 C 129.722656 342.570312 125.507812 345.414062 123.816406 349.746094 C 122.761719 352.449219 122.183594 355.265625 122.707031 361.679688 C 123.324219 369.207031 119.675781 376.335938 116.417969 383.152344 C 113.164062 389.96875 111.472656 417.042969 108.328125 421.753906 C 106.105469 425.089844 102.832031 428.183594 102.765625 432.191406 C 102.6875 436.875 106.988281 440.335938 108.957031 444.582031 C 112.972656 453.265625 106.773438 463.230469 102.136719 471.210938 C 101.332031 472.613281 100.761719 474.160156 100.695312 475.78125 C 100.609375 477.867188 101.226562 479.523438 102.214844 480.964844 C 105.421875 485.628906 102.414062 491.941406 96.753906 491.941406 L 51.214844 491.941406 C 44.9375 483.488281 34.179688 477.714844 23.65625 478.511719 C 22.117188 471.617188 21.332031 462.800781 27.324219 459.066406 C 28.1875 458.527344 29.183594 458.121094 29.820312 457.3125 C 31.746094 454.886719 29.089844 451.558594 28.59375 448.507812 C 27.957031 444.574219 31.0625 441.160156 33.5625 438.058594 C 44.871094 424.039062 47.175781 405.109375 50.378906 387.390625 C 52.324219 376.640625 54.746094 365.976562 57.167969 355.320312 L 66.214844 315.535156 C 67.765625 308.707031 69.816406 301.996094 72.617188 295.589844 C 88.019531 260.351562 112.695312 255.78125 154.507812 255.78125 L 161.714844 342.550781 Z M 161.742188 342.570312 "/>
<path style=" stroke:none;fill-rule:nonzero;fill:rgb(23.137255%,9.803922%,32.941176%);fill-opacity:1;" d="M 89.765625 473.125 C 90.070312 471.96875 89.660156 470.792969 89.203125 469.855469 C 88.710938 468.925781 88.199219 468.035156 87.582031 467.183594 C 86.375 465.476562 84.914062 463.957031 83.335938 462.601562 C 80.136719 459.929688 76.453125 457.949219 72.691406 456.394531 C 68.941406 454.820312 65.085938 453.578125 61.164062 452.582031 C 57.242188 451.605469 53.246094 450.925781 49.230469 450.601562 C 48.972656 450.582031 48.753906 450.773438 48.734375 451.019531 C 48.714844 451.238281 48.859375 451.4375 49.066406 451.492188 C 52.914062 452.59375 56.691406 453.757812 60.433594 455.039062 C 64.164062 456.316406 67.859375 457.738281 71.457031 459.277344 C 75.027344 460.859375 78.492188 462.601562 81.609375 464.820312 C 83.175781 465.910156 84.636719 467.152344 85.984375 468.507812 C 87.230469 469.914062 88.855469 471.324219 88.988281 473.011719 L 88.988281 473.050781 C 89.003906 473.269531 89.195312 473.4375 89.421875 473.417969 C 89.59375 473.410156 89.738281 473.285156 89.785156 473.125 Z M 89.765625 473.125 "/>
<path style=" stroke:none;fill-rule:nonzero;fill:rgb(23.137255%,9.803922%,32.941176%);fill-opacity:1;" d="M 44.5 442.125 C 52.675781 443.605469 61.078125 444.523438 69.492188 443.511719 C 73.671875 442.96875 77.875 441.898438 81.695312 439.792969 C 82.679688 439.339844 83.527344 438.621094 84.464844 438.058594 C 85.378906 437.445312 86.175781 436.675781 87.050781 435.972656 C 87.828125 435.1875 88.550781 434.324219 89.253906 433.453125 C 89.566406 432.988281 89.8125 432.484375 90.089844 432.003906 C 90.371094 431.519531 90.5625 430.980469 90.316406 430.257812 C 90.105469 429.652344 89.472656 429.320312 88.863281 429.460938 L 88.710938 429.5 C 87.953125 429.691406 87.628906 430.039062 87.402344 430.46875 L 86.679688 431.71875 C 86.070312 432.457031 85.597656 433.300781 84.980469 434.050781 C 83.734375 435.527344 82.28125 436.882812 80.574219 437.898438 C 77.191406 439.984375 73.253906 441.21875 69.234375 441.9375 C 61.15625 443.332031 52.75 442.855469 44.566406 441.652344 C 44.433594 441.632812 44.320312 441.71875 44.289062 441.851562 C 44.273438 441.976562 44.355469 442.097656 44.480469 442.117188 Z M 44.5 442.125 "/>
<path style=" stroke:none;fill-rule:nonzero;fill:rgb(23.137255%,9.803922%,32.941176%);fill-opacity:1;" d="M 93.582031 425.632812 C 94.332031 423.40625 94.644531 421.15625 94.644531 418.976562 C 94.691406 416.804688 94.542969 414.703125 94.359375 412.636719 C 94.007812 408.539062 93.734375 404.398438 95.121094 400.691406 C 96.410156 396.871094 99.972656 394.527344 102.832031 391.335938 C 104.3125 389.75 105.433594 387.683594 106.136719 385.5625 C 106.894531 383.4375 107.125 381.21875 107.238281 379.066406 C 107.324219 374.746094 106.640625 370.628906 106.304688 366.554688 C 105.917969 362.496094 106.097656 358.390625 107.578125 354.714844 C 109.136719 351.046875 112.8125 348.53125 114.433594 344.296875 C 116.171875 340.277344 116.683594 335.714844 115.734375 331.507812 L 114.9375 332.398438 C 116.628906 332.398438 118.667969 332.125 120.074219 330.636719 C 120.789062 329.972656 121.203125 328.816406 121.414062 328.777344 C 121.632812 328.597656 122.25 328.617188 122.886719 328.851562 C 123.503906 329.0625 124.28125 329.5625 125.355469 329.773438 C 125.886719 329.878906 126.570312 329.867188 127.175781 329.621094 C 127.765625 329.382812 128.15625 329.070312 128.449219 328.910156 C 129.21875 328.359375 130.3125 328.871094 131.992188 329.527344 C 135.285156 330.757812 138.5625 331.367188 141.925781 331.945312 C 143.605469 332.21875 145.304688 332.425781 147.050781 332.539062 C 148.816406 332.664062 150.574219 332.730469 152.722656 332.378906 L 152.882812 332.351562 C 154.621094 332.066406 155.796875 330.4375 155.511719 328.703125 C 155.226562 326.964844 153.59375 325.792969 151.855469 326.074219 C 151.554688 326.121094 151.257812 326.21875 151.003906 326.339844 C 149.984375 326.824219 148.449219 327.109375 146.949219 327.316406 C 145.429688 327.496094 143.851562 327.574219 142.277344 327.59375 C 139.125 327.59375 135.875 327.347656 132.902344 326.703125 C 132.183594 326.539062 131.335938 326.21875 130.320312 326.09375 C 129.808594 326.039062 129.246094 326.007812 128.648438 326.140625 C 128.070312 326.253906 127.433594 326.585938 127.0625 326.882812 C 126.238281 327.515625 126.238281 327.601562 125.6875 327.59375 C 125.117188 327.5625 124.453125 327.25 123.511719 326.949219 C 122.640625 326.710938 121.40625 326.472656 120.273438 327.335938 C 119.742188 327.78125 119.535156 328.332031 119.371094 328.652344 C 119.230469 328.96875 119.050781 329.230469 118.839844 329.488281 C 117.984375 330.472656 116.496094 330.851562 114.976562 330.816406 C 114.546875 330.804688 114.1875 331.136719 114.179688 331.574219 L 114.179688 331.726562 C 114.300781 335.734375 113.578125 339.667969 111.964844 343.214844 C 110.304688 346.628906 107.957031 350.171875 106.191406 354.125 C 105.339844 356.117188 104.816406 358.222656 104.539062 360.34375 C 104.339844 362.46875 104.273438 364.582031 104.304688 366.675781 C 104.378906 370.859375 104.777344 374.992188 104.453125 378.945312 C 104.304688 380.90625 104.046875 382.859375 103.363281 384.621094 C 102.707031 386.40625 101.804688 388.007812 100.636719 389.617188 C 98.414062 392.890625 95.386719 396.101562 93.726562 400.160156 C 92.089844 404.246094 92.300781 408.636719 92.242188 412.730469 C 92.242188 416.824219 92.101562 420.988281 90.257812 424.183594 C 89.753906 425.054688 90.058594 426.183594 90.933594 426.683594 C 91.808594 427.1875 92.9375 426.882812 93.441406 426.011719 C 93.496094 425.90625 93.542969 425.804688 93.582031 425.6875 Z M 93.582031 425.632812 "/>
<path style=" stroke:none;fill-rule:nonzero;fill:rgb(23.137255%,9.803922%,32.941176%);fill-opacity:1;" d="M 122.390625 340.742188 C 120.636719 337.433594 118.46875 334.34375 116.078125 331.441406 C 113.664062 328.570312 111.027344 325.847656 108.023438 323.574219 C 105.035156 321.277344 101.871094 319.277344 98.832031 317.109375 C 95.777344 314.945312 92.738281 312.792969 89.898438 309.949219 L 89.871094 309.921875 C 88.871094 308.925781 87.25 308.925781 86.242188 309.921875 C 85.234375 310.917969 85.246094 312.539062 86.242188 313.542969 C 86.667969 313.96875 87.210938 314.214844 87.761719 314.273438 C 91.570312 314.710938 94.976562 316.273438 98.09375 318.21875 C 101.226562 320.160156 103.980469 322.652344 106.582031 325.222656 C 109.175781 327.820312 111.824219 330.3125 114.339844 332.976562 C 116.875 335.621094 119.285156 338.378906 121.699219 341.195312 C 121.851562 341.367188 122.105469 341.394531 122.289062 341.242188 C 122.4375 341.109375 122.476562 340.902344 122.382812 340.730469 Z M 122.390625 340.742188 "/>
<path style=" stroke:none;fill-rule:nonzero;fill:rgb(23.137255%,9.803922%,32.941176%);fill-opacity:1;" d="M 125.734375 336.609375 C 125.289062 335.042969 124.707031 333.527344 124.121094 332.019531 C 123.53125 330.503906 122.875 329.023438 122.203125 327.554688 C 120.824219 324.625 119.363281 321.722656 117.605469 318.996094 C 117.445312 318.738281 117.101562 318.664062 116.847656 318.832031 C 116.628906 318.964844 116.542969 319.230469 116.617188 319.457031 L 116.617188 319.488281 C 117.644531 322.585938 118.953125 325.527344 120.339844 328.4375 C 121.054688 329.878906 121.773438 331.316406 122.574219 332.722656 C 123.371094 334.132812 124.175781 335.535156 125.109375 336.882812 L 125.109375 336.902344 C 125.230469 337.054688 125.441406 337.089844 125.59375 336.988281 C 125.714844 336.902344 125.761719 336.75 125.726562 336.609375 Z M 125.734375 336.609375 "/>
<path style=" stroke:none;fill-rule:nonzero;fill:rgb(23.137255%,9.803922%,32.941176%);fill-opacity:1;" d="M 109.742188 287.371094 C 114.480469 289.636719 117.910156 293.769531 120.570312 298.242188 C 123.285156 302.738281 125.460938 307.570312 127.425781 312.472656 C 127.558594 312.804688 127.9375 312.972656 128.269531 312.84375 C 128.582031 312.71875 128.746094 312.378906 128.660156 312.054688 C 127.175781 306.871094 124.917969 301.929688 122.117188 297.296875 C 120.664062 295 119.011719 292.792969 117.015625 290.894531 C 115.023438 289.007812 112.660156 287.445312 110.046875 286.59375 C 109.828125 286.515625 109.59375 286.640625 109.515625 286.859375 C 109.449219 287.058594 109.554688 287.285156 109.734375 287.371094 Z M 109.742188 287.371094 "/>
<path style=" stroke:none;fill-rule:nonzero;fill:rgb(23.137255%,9.803922%,32.941176%);fill-opacity:1;" d="M 222.144531 1.714844 C 229.132812 4 234.707031 10.164062 236.28125 17.339844 C 237.695312 23.8125 236.082031 30.886719 238.722656 36.960938 C 241.3125 42.925781 247.335938 46.480469 252.765625 50.054688 C 258.199219 53.628906 263.808594 58.28125 264.636719 64.726562 C 265.15625 68.785156 263.667969 73.136719 265.320312 76.882812 C 266.078125 78.597656 267.417969 79.980469 268.746094 81.296875 C 274.738281 87.214844 281.5 93.167969 283.589844 101.320312 C 284.1875 103.671875 284.328125 106.304688 283.09375 108.402344 C 282.125 110.050781 280.425781 111.140625 278.6875 111.9375 C 269.242188 116.242188 258.160156 113.113281 248.585938 109.113281 C 243.308594 106.902344 238.039062 104.382812 233.851562 100.484375 C 229.664062 96.589844 226.632812 91.101562 226.898438 85.382812 C 227.070312 81.695312 228.429688 77.507812 226.074219 74.671875 C 225.257812 73.6875 224.109375 73.0625 223.027344 72.367188 C 219.769531 70.265625 216.835938 66.890625 217.101562 63.023438 C 217.28125 60.347656 218.953125 58.042969 220.292969 55.710938 C 221.886719 52.945312 223.074219 49.9375 223.804688 46.828125 C 224.46875 44.015625 224.746094 40.972656 223.613281 38.316406 C 221.941406 34.382812 217.6875 32.257812 213.683594 30.769531 C 209.664062 29.273438 205.316406 27.910156 202.609375 24.589844 C 199.363281 20.609375 196.960938 10.085938 200.976562 5.945312 C 205.933594 0.824219 215.742188 -0.378906 222.171875 1.726562 Z M 222.144531 1.714844 "/>
<path style=" stroke:none;fill-rule:nonzero;fill:rgb(66.27451%,38.823529%,65.490196%);fill-opacity:1;" d="M 238.742188 51.921875 C 241.257812 52.574219 243.648438 53.609375 245.730469 55.125 C 247.789062 56.640625 249.472656 58.71875 250.363281 61.105469 C 251.273438 63.515625 251.039062 66.140625 250.4375 68.691406 C 249.878906 71.25 249.003906 73.835938 249.054688 76.625 C 249.042969 79.441406 250.542969 82.113281 252.546875 83.941406 C 254.53125 85.847656 256.894531 87.183594 258.964844 88.757812 C 261.074219 90.304688 262.820312 92.230469 263.601562 94.644531 C 264.4375 97.042969 264.605469 99.660156 264.75 102.296875 C 264.777344 102.761719 265.175781 103.121094 265.640625 103.09375 C 266.105469 103.0625 266.46875 102.664062 266.4375 102.203125 C 266.4375 102.191406 266.4375 102.171875 266.4375 102.164062 C 266.183594 99.519531 265.917969 96.769531 264.882812 94.164062 C 263.902344 91.507812 261.816406 89.394531 259.640625 87.847656 C 257.445312 86.257812 255.121094 84.984375 253.222656 83.222656 C 252.28125 82.351562 251.425781 81.375 250.855469 80.246094 C 250.277344 79.128906 250.011719 77.875 249.984375 76.605469 C 249.9375 74.046875 250.78125 71.503906 251.359375 68.898438 C 251.976562 66.320312 252.261719 63.410156 251.265625 60.785156 C 250.355469 58.167969 248.636719 55.894531 246.535156 54.109375 C 244.464844 52.28125 242.035156 50.933594 239.59375 49.675781 C 238.996094 49.359375 238.265625 49.597656 237.960938 50.195312 C 237.648438 50.792969 237.886719 51.523438 238.484375 51.824219 C 238.558594 51.863281 238.65625 51.902344 238.742188 51.921875 Z M 238.742188 51.921875 "/>
<path style=" stroke:none;fill-rule:nonzero;fill:rgb(66.27451%,38.823529%,65.490196%);fill-opacity:1;" d="M 227.753906 59.722656 C 230.128906 60.59375 232.121094 61.085938 234.023438 62.113281 C 235.824219 63.105469 237.449219 64.585938 237.117188 66.519531 C 237.011719 67.402344 236.5 68.519531 236.148438 69.570312 C 235.808594 70.632812 235.292969 71.488281 234.734375 72.539062 C 233.6875 74.578125 232.824219 76.785156 232.683594 79.175781 C 232.625 80.359375 232.816406 81.59375 233.289062 82.710938 C 233.765625 83.828125 234.535156 84.785156 235.378906 85.59375 C 237.070312 87.214844 239.054688 88.351562 240.515625 89.945312 C 243.5 93.082031 244.769531 97.765625 243.746094 101.871094 C 243.632812 102.324219 243.90625 102.78125 244.363281 102.894531 C 244.816406 103.007812 245.273438 102.730469 245.386719 102.277344 C 245.386719 102.257812 245.398438 102.230469 245.40625 102.203125 C 246.167969 97.460938 244.589844 92.542969 241.304688 89.1875 C 239.632812 87.515625 237.667969 86.359375 236.109375 84.84375 C 234.507812 83.375 233.605469 81.363281 233.746094 79.230469 C 233.886719 77.097656 234.789062 75.050781 235.855469 73.136719 C 236.386719 72.226562 237.050781 71.144531 237.441406 70.066406 L 238.066406 68.519531 C 238.257812 68.007812 238.550781 67.382812 238.644531 66.746094 C 238.941406 65.46875 238.578125 63.988281 237.808594 62.9375 C 237.058594 61.863281 236.0625 61.078125 235.066406 60.425781 C 233.109375 59.085938 230.726562 58.273438 228.980469 57.34375 L 228.875 57.285156 C 228.21875 56.933594 227.402344 57.183594 227.050781 57.835938 C 226.699219 58.488281 226.949219 59.304688 227.601562 59.65625 C 227.660156 59.683594 227.714844 59.714844 227.773438 59.730469 Z M 227.753906 59.722656 "/>
<path style=" stroke:none;fill-rule:nonzero;fill:rgb(23.137255%,9.803922%,32.941176%);fill-opacity:1;" d="M 154.089844 39.121094 C 157.421875 24.800781 172.625 0.929688 198.746094 6.84375 C 224.867188 12.761719 231.019531 56.386719 210.957031 70.3125 L 154.089844 39.132812 Z M 154.089844 39.121094 "/>
<path style=" stroke:none;fill-rule:nonzero;fill:rgb(96.862745%,32.941176%,32.941176%);fill-opacity:1;" d="M 155.882812 33.417969 C 157.296875 29.785156 159.3125 25.917969 161.921875 22.269531 C 168.285156 13.347656 179.726562 9.402344 190.3125 12.265625 C 207.824219 17.007812 218.210938 28.949219 223.128906 50.261719 C 222.457031 53.132812 221.402344 55.855469 219.949219 58.339844 C 216.285156 48.347656 211.003906 38.582031 202.105469 31.007812 C 191.175781 21.707031 168.835938 16.304688 155.890625 33.417969 Z M 155.882812 33.417969 "/>
<path style=" stroke:none;fill-rule:nonzero;fill:rgb(96.862745%,32.941176%,32.941176%);fill-opacity:1;" d="M 263.960938 105.765625 C 268.566406 107.066406 261.1875 108.097656 261.585938 112.855469 C 261.730469 114.5625 261.910156 116.183594 262.136719 117.285156 C 266.722656 139.75 267.988281 150.511719 272.070312 171.5 C 271.109375 183.851562 267.523438 206.515625 273.589844 221.941406 C 251.171875 220.546875 233.566406 211.96875 212.648438 204.953125 C 206.777344 202.980469 201.136719 200.394531 195.507812 197.804688 C 183.78125 192.410156 172.054688 187.027344 160.328125 181.632812 C 161.21875 182.183594 161.960938 180.722656 161.988281 179.671875 C 162.1875 171.726562 159.710938 165.773438 160.328125 157.847656 C 161.570312 141.941406 167.953125 134.335938 170.933594 119.632812 C 171.40625 117.300781 172.242188 115 173.601562 113.035156 C 175.691406 110.042969 179.535156 107.113281 183.742188 105.246094 C 184.949219 104.714844 186.601562 102.914062 187.902344 102.78125 C 189.136719 102.65625 188.59375 105.613281 189.808594 105.839844 C 202.640625 108.25 215.503906 104.171875 227.316406 99.488281 C 233.128906 97.1875 235.398438 98.097656 241.332031 99.421875 C 242.234375 99.621094 258.824219 104.296875 263.96875 105.757812 Z M 263.960938 105.765625 "/>
<path style=" stroke:none;fill-rule:nonzero;fill:rgb(23.137255%,9.803922%,32.941176%);fill-opacity:1;" d="M 273.589844 221.941406 C 251.171875 220.546875 233.566406 211.96875 212.648438 204.953125 C 208.933594 203.710938 205.316406 202.203125 201.726562 200.621094 C 197.910156 195.632812 194.265625 190.515625 190.84375 185.246094 C 189.886719 183.773438 188.917969 181.953125 189.640625 180.351562 C 190.390625 178.664062 192.582031 178.230469 194.433594 178.304688 C 199.039062 178.484375 203.390625 180.4375 207.453125 182.609375 C 215.875 187.113281 223.746094 192.753906 232.703125 196.070312 C 239.492188 198.589844 246.792969 199.710938 254.027344 199.351562 C 258.253906 199.140625 262.679688 198.316406 265.9375 195.425781 C 267.226562 194.269531 268.738281 191.160156 270.492188 189.433594 C 269.78125 200.296875 269.867188 212.488281 273.589844 221.949219 Z M 273.589844 221.941406 "/>
<path style=" stroke:none;fill-rule:nonzero;fill:rgb(100%,80%,80%);fill-opacity:1;" d="M 222.058594 92.855469 C 224.753906 96.125 231.152344 97.839844 235.140625 98.515625 C 231.335938 115.433594 215.390625 132.269531 194.679688 129.09375 C 184.910156 127.597656 182.632812 117.851562 183.296875 108.980469 C 183.449219 106.96875 184.453125 105.082031 186.171875 104.03125 C 187.273438 103.347656 188.300781 102.542969 189.222656 101.632812 C 189.859375 100.996094 190.464844 100.285156 190.703125 99.414062 C 190.988281 98.351562 190.683594 97.234375 190.359375 96.191406 C 188.148438 88.871094 185.394531 81.726562 182.136719 74.804688 C 182.925781 76.464844 201.023438 63.835938 202.335938 62.679688 C 203.40625 61.730469 204.824219 59.597656 206.113281 59.058594 C 207.976562 58.28125 207.253906 60.585938 207.890625 62.167969 C 211.679688 71.5625 216.265625 85.820312 222.066406 92.863281 Z M 222.058594 92.855469 "/>
<path style=" stroke:none;fill-rule:nonzero;fill:rgb(23.137255%,9.803922%,32.941176%);fill-opacity:1;" d="M 187.378906 72.664062 C 193.078125 69.335938 201.441406 63.4375 202.324219 62.671875 C 203.398438 61.722656 204.8125 59.589844 206.105469 59.050781 C 207.964844 58.273438 207.246094 60.574219 207.878906 62.160156 C 208.554688 63.828125 210.863281 68.265625 211.070312 70.28125 C 212.105469 80.152344 205.515625 93.167969 196.921875 93.089844 C 190.53125 93.035156 188.148438 88.710938 188.148438 88.710938 L 187.398438 72.664062 Z M 187.378906 72.664062 "/>
<path style=" stroke:none;fill-rule:nonzero;fill:rgb(100%,80%,80%);fill-opacity:1;" d="M 204.605469 49.484375 C 204.605469 49.484375 197.132812 46.648438 195.050781 37.863281 C 192.972656 29.074219 177.058594 18.382812 161.464844 28.109375 C 145.875 37.832031 159.027344 58.984375 158.65625 65.601562 C 158.277344 72.21875 162.207031 78.996094 170.136719 85.660156 C 178.0625 92.324219 193.742188 92.3125 202.847656 75.839844 C 207.671875 67.117188 208.761719 56.765625 208.761719 56.765625 L 204.613281 49.476562 Z M 204.605469 49.484375 "/>
<path style=" stroke:none;fill-rule:nonzero;fill:rgb(30.588235%,46.27451%,59.607843%);fill-opacity:1;" d="M 158 341.851562 C 187.910156 343.101562 215.125 342.378906 246.023438 342.171875 C 257.882812 342.097656 271.652344 342.445312 283.171875 339.601562 C 294.6875 336.757812 305.816406 330.085938 311.25 319.554688 C 321.457031 299.761719 312.890625 274.808594 299.152344 259.488281 C 297.679688 250.703125 291.566406 244.320312 283.597656 240.300781 C 275.632812 236.285156 266.828125 234.027344 259.117188 229.542969 C 247.410156 222.726562 239.214844 211.390625 230.574219 200.972656 C 222.476562 191.207031 213.691406 181.992188 204.328125 173.433594 C 189.15625 159.554688 169.546875 147.070312 145.378906 152.046875 C 132.5625 154.691406 120.320312 169.335938 118.660156 183.660156 C 117.207031 196.175781 119.484375 208.601562 123.664062 220.488281 C 130.5 239.914062 137.339844 259.347656 144.175781 278.773438 C 146.796875 286.214844 149.453125 294.035156 148.21875 301.828125 C 147.6875 305.164062 146.464844 308.574219 147.363281 311.835938 C 148.066406 314.359375 149.976562 316.398438 150.765625 318.898438 C 152.199219 323.429688 149.699219 328.199219 149.367188 332.9375 C 149.035156 337.679688 154.023438 344.457031 158 341.859375 Z M 158 341.851562 "/>
<path style=" stroke:none;fill-rule:nonzero;fill:rgb(23.137255%,9.803922%,32.941176%);fill-opacity:1;" d="M 228.449219 328.371094 C 228.449219 323.640625 235.457031 320.453125 223.054688 312.898438 C 213.664062 307.183594 220.671875 294.5 207.273438 271.148438 C 220.898438 294.347656 266.203125 319.933594 293.824219 321.515625 C 300.539062 321.894531 302.617188 330.664062 296.835938 334.085938 C 292.648438 336.558594 288.003906 338.410156 283.160156 339.601562 C 271.644531 342.445312 257.882812 342.085938 246.015625 342.171875 C 242.386719 342.199219 238.808594 342.230469 235.273438 342.265625 C 237.042969 333.925781 228.921875 332.378906 228.4375 328.371094 Z M 228.449219 328.371094 "/>
<path style=" stroke:none;fill-rule:nonzero;fill:rgb(23.137255%,9.803922%,32.941176%);fill-opacity:1;" d="M 211.136719 342.570312 L 151.171875 342.570312 C 147.269531 342.570312 143.890625 339.867188 143.035156 336.058594 C 141.960938 331.28125 145.230469 326.617188 150.101562 325.980469 L 154.714844 325.382812 C 157.421875 325.03125 160.089844 324.371094 162.625 323.355469 C 168.796875 320.878906 182.746094 316.359375 195.488281 319.734375 C 204.042969 322 210.863281 327.773438 215.503906 332.949219 C 218.839844 336.65625 216.132812 342.5625 211.136719 342.5625 Z M 211.136719 342.570312 "/>
<path style=" stroke:none;fill-rule:nonzero;fill:rgb(100%,80%,80%);fill-opacity:1;" d="M 318.542969 232.710938 C 318.160156 217.210938 311.667969 202.621094 307.230469 187.765625 C 303.175781 174.191406 300.8125 160.140625 296.332031 146.699219 C 291.847656 133.257812 284.9375 120.117188 273.730469 111.425781 C 271.613281 109.785156 269.363281 108.324219 267.007812 107.054688 C 256.613281 101.441406 243.660156 107.925781 241.789062 119.578125 C 240.277344 129 239.765625 138.546875 239.824219 148.3125 C 239.9375 168.304688 255.445312 197.113281 267.273438 165.050781 C 271.558594 182.117188 277.007812 201 279.96875 218.832031 C 294.335938 221.484375 303.566406 227.960938 317.335938 232.832031 C 317.601562 232.925781 317.925781 233.011719 318.152344 232.851562 C 318.378906 232.691406 318.808594 232.613281 318.542969 232.710938 Z M 318.542969 232.710938 "/>
<path style=" stroke:none;fill-rule:nonzero;fill:rgb(23.137255%,9.803922%,32.941176%);fill-opacity:1;" d="M 177.835938 205.160156 L 192.308594 239.042969 L 206.589844 273 C 208.894531 278.640625 211.433594 284.394531 213.558594 289.9375 C 214.46875 292.734375 214.964844 295.691406 215.363281 298.707031 L 215.953125 303.277344 C 216.160156 304.785156 216.359375 306.414062 216.976562 308.0625 C 218.316406 311.46875 221.296875 313.542969 223.699219 315.316406 C 224.316406 315.769531 224.914062 316.214844 225.464844 316.671875 C 225.988281 317.117188 226.453125 317.554688 226.910156 318.035156 C 227.773438 319.011719 228.503906 320.113281 228.894531 321.175781 C 229.292969 322.226562 229.605469 323.195312 229.179688 324.359375 C 228.949219 324.964844 228.476562 325.609375 228.050781 326.417969 C 227.601562 327.203125 227.28125 328.386719 227.640625 329.460938 C 228.449219 331.554688 230.175781 332.351562 230.964844 333.433594 C 231.808594 334.457031 232.359375 335.726562 232.378906 337.042969 C 232.40625 338.808594 233.851562 340.210938 235.617188 340.179688 C 237.382812 340.152344 238.789062 338.710938 238.761719 336.949219 C 238.75 336.066406 238.371094 335.269531 237.78125 334.703125 L 237.402344 334.332031 C 235.957031 332.957031 234.515625 331.800781 232.9375 330.929688 C 232.121094 330.484375 231.4375 330.207031 230.839844 329.859375 C 230.234375 329.535156 229.777344 329.128906 229.578125 328.75 C 229.367188 328.371094 229.386719 327.90625 229.75 327.394531 C 230.089844 326.871094 230.667969 326.378906 231.277344 325.695312 C 231.886719 324.976562 232.398438 324.039062 232.617188 323.023438 C 232.84375 322.007812 232.769531 320.964844 232.492188 320.035156 C 231.941406 318.167969 230.859375 316.679688 229.625 315.4375 C 229.007812 314.824219 228.304688 314.253906 227.59375 313.789062 C 226.910156 313.335938 226.226562 312.9375 225.550781 312.539062 C 222.902344 311.003906 220.328125 309.5625 219.332031 307.117188 C 218.820312 305.902344 218.640625 304.453125 218.4375 302.925781 L 217.878906 298.355469 C 217.488281 295.292969 217.003906 292.167969 216.019531 289.113281 C 215.523438 287.558594 214.878906 286.136719 214.316406 284.734375 L 212.570312 280.476562 L 209.078125 271.957031 L 195.203125 237.839844 L 181.519531 203.636719 C 181.113281 202.621094 179.964844 202.128906 178.949219 202.535156 C 177.929688 202.941406 177.4375 204.089844 177.847656 205.105469 C 177.847656 205.113281 177.855469 205.132812 177.863281 205.140625 Z M 177.835938 205.160156 "/>
<path style=" stroke:none;fill-rule:nonzero;fill:rgb(23.137255%,9.803922%,32.941176%);fill-opacity:1;" d="M 291.992188 266.96875 C 290.691406 269.492188 287.660156 270.570312 284.890625 270.429688 C 283.472656 270.355469 282.191406 269.9375 280.929688 269.226562 C 279.675781 268.550781 278.519531 267.640625 277.472656 266.570312 C 273.265625 262.304688 271.082031 255.8125 265.957031 250.910156 C 264.691406 249.695312 263.238281 248.605469 261.550781 247.878906 C 260.714844 247.515625 259.792969 247.25 258.898438 247.109375 C 258.015625 246.976562 257.199219 246.929688 256.488281 246.804688 C 255.121094 246.558594 253.914062 245.839844 252.925781 244.683594 C 251.929688 243.554688 251.257812 242.09375 250.457031 240.652344 C 248.996094 237.695312 247.019531 235.097656 245.074219 232.480469 C 243.117188 229.867188 241.058594 227.335938 238.808594 224.917969 C 238.445312 224.527344 237.847656 224.507812 237.460938 224.871094 C 237.144531 225.164062 237.070312 225.628906 237.257812 225.988281 C 238.730469 228.9375 240.394531 231.75 242.148438 234.5 C 243.925781 237.242188 245.671875 240 247.921875 242.40625 C 248.996094 243.628906 250.097656 244.917969 251.339844 246.179688 C 252.546875 247.421875 254.191406 248.625 256.070312 248.949219 C 257.882812 249.300781 259.230469 249.367188 260.484375 250.113281 C 261.75 250.796875 262.867188 251.792969 263.867188 252.929688 C 267.835938 257.507812 269.828125 264.078125 275.042969 269.046875 C 276.316406 270.269531 277.777344 271.378906 279.429688 272.191406 C 281.070312 272.980469 283.007812 273.453125 284.871094 273.398438 C 286.730469 273.347656 288.59375 272.902344 290.207031 271.925781 C 291.820312 270.980469 293.1875 269.460938 293.769531 267.660156 C 293.929688 267.167969 293.652344 266.628906 293.160156 266.476562 C 292.714844 266.335938 292.238281 266.542969 292.03125 266.941406 Z M 291.992188 266.96875 "/>
<path style=" stroke:none;fill-rule:nonzero;fill:rgb(23.137255%,9.803922%,32.941176%);fill-opacity:1;" d="M 155.046875 277.179688 C 163.308594 281.246094 172.613281 283.398438 182.003906 283.320312 C 182.90625 283.320312 183.628906 282.582031 183.628906 281.691406 C 183.628906 280.789062 182.886719 280.070312 181.996094 280.070312 C 181.949219 280.070312 181.902344 280.070312 181.851562 280.070312 C 173.011719 280.867188 163.886719 279.578125 155.457031 276.257812 C 155.199219 276.15625 154.90625 276.289062 154.808594 276.542969 C 154.714844 276.789062 154.820312 277.066406 155.054688 277.179688 Z M 155.046875 277.179688 "/>
<path style=" stroke:none;fill-rule:nonzero;fill:rgb(23.137255%,9.803922%,32.941176%);fill-opacity:1;" d="M 137.347656 263.964844 C 139.742188 268.769531 141.707031 273.859375 143.546875 278.980469 L 149.007812 294.394531 C 149.816406 296.914062 150.480469 299.597656 149.996094 302.121094 C 149.757812 303.371094 149.082031 304.488281 148.164062 305.265625 C 147.261719 306.09375 145.960938 306.679688 144.894531 308.054688 C 143.765625 309.4375 143.71875 311.628906 144.421875 313.078125 C 145.058594 314.578125 146.027344 315.65625 146.917969 316.710938 C 147.839844 317.742188 148.761719 318.699219 149.5 319.753906 C 150.25 320.785156 150.773438 322 150.527344 323.394531 C 151.316406 322.199219 151.136719 320.5 150.59375 319.175781 C 150.050781 317.808594 149.234375 316.644531 148.515625 315.503906 C 147.765625 314.386719 147.0625 313.269531 146.691406 312.214844 C 146.339844 311.15625 146.453125 310.300781 146.9375 309.4375 C 147.441406 308.539062 148.503906 307.628906 149.453125 306.453125 C 150.402344 305.230469 150.917969 303.777344 151.191406 302.355469 C 151.714844 299.476562 151.105469 296.640625 150.316406 293.996094 C 148.570312 288.792969 146.949219 283.632812 145.378906 278.382812 C 143.757812 273.167969 142.144531 267.925781 140.148438 262.75 C 139.84375 261.964844 138.972656 261.574219 138.183594 261.878906 C 137.394531 262.183594 137.003906 263.054688 137.308594 263.839844 C 137.328125 263.886719 137.347656 263.9375 137.367188 263.972656 Z M 137.347656 263.964844 "/>
<path style=" stroke:none;fill-rule:nonzero;fill:rgb(100%,80%,80%);fill-opacity:1;" d="M 197.234375 213.058594 C 218.953125 225.152344 242.207031 234.378906 265.347656 243.476562 C 271.613281 245.941406 277.871094 248.539062 284.441406 250.058594 C 294.832031 252.445312 317.992188 250.816406 319.226562 237.230469 C 320.078125 227.828125 312.710938 221.183594 305.796875 217.957031 C 283.132812 207.390625 257.039062 208.367188 232.3125 204.554688 C 220.976562 202.808594 209.828125 200.023438 198.6875 197.234375 C 198.785156 202.648438 198.402344 205.710938 197.75 211.09375 C 197.652344 211.835938 197.578125 212.402344 197.226562 213.066406 Z M 197.234375 213.058594 "/>
<path style=" stroke:none;fill-rule:nonzero;fill:rgb(100%,80%,80%);fill-opacity:1;" d="M 208.328125 210.867188 C 205.820312 213.304688 202.355469 214.546875 198.886719 215.039062 C 195.421875 215.53125 191.757812 216.300781 188.414062 215.296875 C 184.730469 214.1875 183.203125 215.097656 181.367188 216.964844 C 180.5625 217.777344 179.746094 219.164062 179.082031 220.089844 C 178.414062 221.019531 177.457031 221.882812 176.308594 221.941406 C 176.175781 221.941406 176.03125 221.941406 175.929688 221.863281 C 175.691406 221.695312 175.777344 221.332031 175.878906 221.066406 C 177.542969 216.984375 179.375 211.304688 183.296875 209.273438 C 178.425781 210.8125 175.09375 211.863281 170.222656 213.410156 C 168.359375 213.996094 166.488281 214.933594 165.1875 212.980469 C 164.019531 211.246094 163.015625 209.039062 163.859375 207.132812 C 164.257812 206.242188 165.007812 205.558594 165.75 204.914062 C 170.410156 200.914062 173.859375 198.742188 181.929688 196.175781 C 176.933594 195.019531 168.160156 196.070312 162.09375 194.507812 C 161.714844 194.410156 161.277344 193.777344 161.164062 193.398438 C 160.933594 192.621094 162.046875 192.277344 162.84375 192.164062 C 172.242188 190.816406 184.796875 191.234375 193.761719 192.390625 C 194.511719 192.488281 195.269531 192.589844 195.984375 192.855469 C 197.027344 193.234375 197.917969 193.9375 198.8125 194.609375 C 202.722656 197.578125 206.863281 200.230469 211.195312 202.542969 C 210.539062 204.28125 209.914062 206.023438 209.246094 207.757812 C 208.8125 208.894531 208.421875 209.644531 208.328125 210.859375 Z M 208.328125 210.867188 "/>
<path style=" stroke:none;fill-rule:nonzero;fill:rgb(23.137255%,9.803922%,32.941176%);fill-opacity:1;" d="M 264.21875 152.625 C 265.5 157.628906 266.675781 162.40625 267.285156 165.050781 C 263.855469 174.324219 260.132812 178.484375 256.554688 179.253906 C 254 170.257812 256.078125 162.53125 257.847656 152.859375 C 258.472656 149.410156 263.351562 149.230469 264.21875 152.625 Z M 264.21875 152.625 "/>
<path style=" stroke:none;fill-rule:nonzero;fill:rgb(23.137255%,9.803922%,32.941176%);fill-opacity:1;" d="M 307.015625 218.519531 C 303.445312 215.410156 299.140625 213.179688 294.632812 211.683594 C 290.121094 210.214844 285.308594 209.457031 280.570312 209.996094 C 280.21875 210.035156 279.96875 210.347656 280.007812 210.699219 C 280.046875 210.992188 280.285156 211.21875 280.570312 211.257812 C 285.117188 211.855469 289.53125 212.773438 293.851562 214.109375 C 298.171875 215.445312 302.332031 217.238281 306.414062 219.371094 C 306.671875 219.511719 306.996094 219.410156 307.136719 219.152344 C 307.25 218.933594 307.195312 218.660156 307.015625 218.5 Z M 307.015625 218.519531 "/>
<path style=" stroke:none;fill-rule:nonzero;fill:rgb(23.137255%,9.803922%,32.941176%);fill-opacity:1;" d="M 183.457031 200.742188 C 176.960938 202.648438 171.304688 206.164062 165.730469 209.605469 C 165.53125 209.730469 165.472656 209.988281 165.597656 210.175781 C 165.710938 210.367188 165.96875 210.421875 166.15625 210.316406 C 171.84375 207.105469 177.636719 203.851562 183.867188 202.308594 L 183.886719 202.308594 C 184.320312 202.195312 184.578125 201.757812 184.472656 201.320312 C 184.371094 200.886719 183.921875 200.628906 183.496094 200.734375 C 183.484375 200.734375 183.476562 200.734375 183.46875 200.734375 Z M 183.457031 200.742188 "/>
<path style=" stroke:none;fill-rule:nonzero;fill:rgb(100%,80%,80%);fill-opacity:1;" d="M 208.914062 41.199219 C 209.578125 40.875 210.265625 40.554688 210.996094 40.449219 C 212.894531 40.183594 214.734375 41.558594 215.523438 43.304688 C 216.304688 45.046875 216.207031 47.058594 215.808594 48.933594 C 215.410156 50.8125 214.734375 52.601562 214.394531 54.488281 C 214.023438 56.488281 213.976562 58.707031 212.617188 60.226562 C 211.222656 61.78125 208.734375 62.046875 206.84375 61.136719 C 203.027344 59.296875 202.230469 53.761719 201.652344 49.96875 C 200.957031 45.417969 205.355469 42.925781 208.914062 41.199219 Z M 208.914062 41.199219 "/>
<path style=" stroke:none;fill-rule:nonzero;fill:rgb(23.137255%,9.803922%,32.941176%);fill-opacity:1;" d="M 180.925781 54.777344 C 182.539062 54.222656 183.261719 52.09375 182.546875 50.019531 C 181.832031 47.945312 179.945312 46.714844 178.332031 47.269531 C 176.722656 47.824219 175.996094 49.953125 176.710938 52.027344 C 177.429688 54.101562 179.316406 55.332031 180.925781 54.777344 Z M 180.925781 54.777344 "/>
<path style=" stroke:none;fill-rule:nonzero;fill:rgb(23.137255%,9.803922%,32.941176%);fill-opacity:1;" d="M 164.523438 60.988281 C 165.832031 60.507812 166.316406 58.554688 165.609375 56.621094 C 164.898438 54.691406 163.261719 53.515625 161.949219 53.992188 C 160.640625 54.472656 160.15625 56.429688 160.867188 58.359375 C 161.578125 60.292969 163.214844 61.46875 164.523438 60.988281 Z M 164.523438 60.988281 "/>
<path style=" stroke:none;fill-rule:nonzero;fill:rgb(23.137255%,9.803922%,32.941176%);fill-opacity:1;" d="M 168.644531 57.742188 C 168.722656 58.488281 168.789062 59.21875 168.664062 59.894531 C 168.558594 60.539062 168.292969 61.078125 167.847656 61.664062 C 167.429688 62.234375 166.90625 62.804688 166.441406 63.476562 C 165.984375 64.128906 165.453125 64.925781 165.378906 65.988281 C 165.253906 67.050781 165.976562 68.214844 166.90625 68.625 C 167.820312 69.078125 168.777344 69.070312 169.632812 68.925781 C 171.332031 68.558594 172.726562 67.601562 173.78125 66.425781 C 173.828125 66.367188 173.828125 66.292969 173.773438 66.246094 C 173.734375 66.207031 173.667969 66.207031 173.621094 66.226562 C 172.242188 66.917969 170.839844 67.515625 169.460938 67.5625 C 168.789062 67.609375 168.132812 67.476562 167.667969 67.222656 C 167.21875 66.9375 167.011719 66.566406 167.019531 66.074219 C 167.058594 65.03125 168.285156 63.875 169.089844 62.480469 C 169.519531 61.796875 169.917969 60.886719 169.90625 59.988281 C 169.90625 59.117188 169.707031 58.300781 169.433594 57.5625 C 169.355469 57.351562 169.121094 57.25 168.902344 57.324219 C 168.722656 57.390625 168.625 57.570312 168.636719 57.75 Z M 168.644531 57.742188 "/>
<path style="fill-rule:nonzero;fill:rgb(100%,92.54902%,90.196078%);fill-opacity:1;stroke-width:1;stroke-linecap:butt;stroke-linejoin:miter;stroke:rgb(100%,98.039216%,92.54902%);stroke-opacity:1;stroke-miterlimit:10;" d="M 221.534717 68.649486 C 223.299524 68.649486 224.735229 67.215511 224.735229 65.451886 C 224.735229 63.684142 223.299524 62.250167 221.534717 62.250167 C 219.765796 62.250167 218.334204 63.684142 218.334204 65.451886 C 218.334204 67.215511 219.765796 68.649486 221.534717 68.649486 Z M 221.534717 68.649486 " transform="matrix(0.949555,0,0,0.947977,0,0)"/>
<path style=" stroke:none;fill-rule:nonzero;fill:rgb(23.137255%,9.803922%,32.941176%);fill-opacity:1;" d="M 178.492188 132.234375 C 182.175781 138.121094 186.960938 143.25 192.46875 147.382812 C 195.214844 149.457031 198.15625 151.277344 201.242188 152.792969 C 204.347656 154.292969 207.527344 155.554688 210.757812 156.910156 C 211.328125 157.15625 211.992188 156.890625 212.238281 156.320312 C 212.484375 155.753906 212.21875 155.089844 211.648438 154.84375 C 211.554688 154.804688 211.441406 154.777344 211.347656 154.757812 C 208.003906 154.347656 204.804688 153.175781 201.8125 151.648438 C 198.8125 150.140625 195.953125 148.339844 193.296875 146.292969 C 187.996094 142.175781 183.523438 136.992188 180.351562 131.144531 C 180.066406 130.621094 179.414062 130.421875 178.890625 130.707031 C 178.367188 130.992188 178.167969 131.644531 178.453125 132.167969 C 178.464844 132.1875 178.472656 132.203125 178.492188 132.222656 Z M 178.492188 132.234375 "/>
<path style=" stroke:none;fill-rule:nonzero;fill:rgb(23.137255%,9.803922%,32.941176%);fill-opacity:1;" d="M 225.542969 122.382812 C 222.894531 125.835938 219.113281 128.507812 215.058594 130.421875 C 210.996094 132.355469 206.589844 133.65625 202.089844 134.148438 C 197.617188 134.652344 192.90625 134.222656 188.917969 132.109375 C 186.953125 131.046875 185.234375 129.511719 184.046875 127.625 C 182.851562 125.738281 182.214844 123.558594 181.9375 121.351562 C 181.902344 121.066406 181.644531 120.859375 181.359375 120.894531 C 181.074219 120.933594 180.867188 121.1875 180.902344 121.472656 C 180.902344 121.472656 180.902344 121.492188 180.902344 121.503906 C 181.292969 123.816406 182.109375 126.082031 183.410156 128.050781 C 184.691406 130.035156 186.554688 131.597656 188.605469 132.707031 C 192.753906 134.953125 197.585938 135.351562 202.183594 135.066406 C 206.816406 134.726562 211.375 133.558594 215.65625 131.710938 C 219.890625 129.804688 224.011719 127.371094 227.230469 123.738281 C 227.632812 123.292969 227.582031 122.613281 227.136719 122.222656 C 226.691406 121.824219 226.007812 121.871094 225.617188 122.316406 C 225.597656 122.335938 225.589844 122.355469 225.570312 122.375 L 225.570312 122.394531 Z M 225.542969 122.382812 "/>
<path style=" stroke:none;fill-rule:nonzero;fill:rgb(23.137255%,9.803922%,32.941176%);fill-opacity:1;" d="M 205.5625 298.109375 C 206.078125 299.097656 206.378906 300.175781 206.199219 301.164062 C 206.046875 302.148438 205.355469 303.058594 204.339844 303.628906 C 202.277344 304.820312 199.554688 304.871094 197.035156 304.613281 C 191.898438 304.074219 186.90625 302.261719 182.195312 300.042969 C 177.476562 297.789062 173.078125 294.886719 168.910156 291.722656 C 164.789062 288.496094 160.953125 284.90625 157.476562 281.019531 C 157.078125 280.574219 156.40625 280.535156 155.957031 280.921875 C 155.511719 281.320312 155.472656 281.996094 155.863281 282.441406 C 155.882812 282.460938 155.902344 282.476562 155.910156 282.496094 C 159.71875 286.230469 163.765625 289.710938 168.027344 292.886719 C 172.308594 296.042969 176.859375 298.832031 181.652344 301.152344 C 186.4375 303.449219 191.511719 305.363281 196.894531 305.96875 C 199.570312 306.234375 202.371094 306.253906 205.109375 305.117188 C 206.445312 304.527344 207.757812 303.429688 208.410156 301.894531 C 209.066406 300.367188 209.105469 298.71875 208.972656 297.164062 L 208.972656 297.105469 C 208.878906 296.109375 208.003906 295.378906 207.007812 295.464844 C 206.007812 295.550781 205.277344 296.421875 205.363281 297.417969 C 205.382812 297.664062 205.460938 297.890625 205.5625 298.101562 Z M 205.5625 298.109375 "/>
<path style=" stroke:none;fill-rule:nonzero;fill:rgb(23.137255%,9.803922%,32.941176%);fill-opacity:1;" d="M 68.78125 491.953125 L 8.816406 491.953125 C 4.914062 491.953125 1.53125 489.25 0.679688 485.441406 C -0.394531 480.664062 2.871094 476 7.742188 475.363281 L 12.355469 474.765625 C 15.0625 474.414062 17.730469 473.75 20.265625 472.738281 C 26.4375 470.261719 40.386719 465.742188 53.132812 469.117188 C 61.6875 471.382812 68.503906 477.15625 73.148438 482.332031 C 76.480469 486.039062 73.773438 491.941406 68.78125 491.941406 Z M 68.78125 491.953125 "/>
<path style="fill:none;stroke-width:1.6;stroke-linecap:round;stroke-linejoin:miter;stroke:rgb(23.137255%,9.803922%,32.941176%);stroke-opacity:1;stroke-miterlimit:10;" d="M 182.363403 79.589725 C 182.363403 79.589725 194.972107 80.529225 196.76571 68.48054 " transform="matrix(0.949555,0,0,0.947977,0,0)"/>
<path style="fill:none;stroke-width:1.6;stroke-linecap:round;stroke-linejoin:miter;stroke:rgb(23.137255%,9.803922%,32.941176%);stroke-opacity:1;stroke-miterlimit:10;" d="M 217.54436 56.188739 C 217.54436 56.188739 216.672241 48.260671 222.962195 47.609613 " transform="matrix(0.949555,0,0,0.947977,0,0)"/>
<path style="fill:none;stroke-width:1.6;stroke-linecap:round;stroke-linejoin:miter;stroke:rgb(23.137255%,9.803922%,32.941176%);stroke-opacity:1;stroke-miterlimit:10;" d="M 184.054163 41.288586 C 184.054163 41.288586 189.513135 36.830078 194.865149 41.910799 " transform="matrix(0.949555,0,0,0.947977,0,0)"/>
<path style="fill:none;stroke-width:1.8;stroke-linecap:round;stroke-linejoin:round;stroke:rgb(66.27451%,38.823529%,65.490196%);stroke-opacity:1;stroke-miterlimit:4;" d="M 226.014612 21.501381 C 226.014612 21.501381 232.012488 26.49969 234.015894 38.498928 " transform="matrix(0.949555,0,0,0.947977,0,0)"/>

</svg>
