<svg width="199" height="203" viewBox="0 0 199 203" fill="none" xmlns="http://www.w3.org/2000/svg">
<g clip-path="url(#clip0_1085_2793)">
<path d="M141.409 23.0104C141.179 24.0104 137.599 41.0704 149.659 52.6604C157.409 60.1204 166.939 60.8104 169.639 60.9104C181.069 57.3104 189.689 48.3204 191.999 37.2804C194.299 26.2604 189.439 17.4304 188.039 15.0804C188.169 14.4404 190.639 2.31044 186.929 0.490443C184.019 -0.929557 177.639 4.15044 171.549 13.4904H155.219C149.249 4.68044 142.989 -1.11956 140.159 0.170443C137.189 1.53044 137.549 10.9304 141.429 23.0004L141.409 23.0104Z" fill="#AE80C4"/>
<path d="M159.799 96.1109C159.109 107.681 156.599 117.651 153.709 125.721C151.429 132.341 148.839 137.591 146.709 141.481C147.549 147.111 148.079 153.131 148.379 159.521V159.901C149.069 176.041 147.539 190.341 145.339 202.291H123.649C121.439 200.311 120.449 197.421 121.289 195.061C122.429 191.711 126.919 189.581 131.259 191.251C130.959 188.971 130.499 185.391 129.809 180.981C128.819 174.211 127.979 168.571 127.219 163.701C123.949 143.911 122.269 138.051 121.739 125.801C121.209 113.851 120.829 104.491 124.329 92.6109C128.589 78.6109 135.969 68.5609 141.229 62.6209C144.199 56.3009 147.089 49.9809 150.059 43.6709C150.749 45.2709 151.579 47.0909 152.419 49.1509C156.449 59.5809 161.099 75.9409 159.799 96.1109Z" fill="#AE80C4"/>
<path d="M198.089 201.141C189.789 200.76 181.419 200.451 173.119 200.15C169.159 187.59 165.199 174.96 161.249 162.4C160.559 160.271 159.959 158.211 159.349 156.23C157.139 147.71 154.859 139.181 152.649 130.661C153.029 128.991 153.409 127.311 153.719 125.711C162.019 87.0405 159.279 70.5305 154.329 62.8405C153.719 61.9305 151.359 58.5005 151.509 54.0105C151.509 52.4105 151.819 50.8105 152.419 49.2205C155.079 41.5305 163.299 34.1505 172.889 34.1505C180.199 34.0705 185.529 38.4105 187.429 40.1605C184.459 61.4005 183.469 78.6705 183.089 90.4705C182.559 107.821 183.239 118.94 184.079 157.37C184.229 163.611 184.379 170.541 184.539 178.381C184.619 184.321 184.689 189.111 184.769 192.23C191.009 191.16 196.339 193.3 197.859 196.87C198.159 197.63 198.549 199.001 198.089 201.131V201.141Z" fill="#AE80C4"/>
<path d="M147.279 50.1309C127.329 54.8009 97.8485 65.5009 77.0285 91.8309C74.7485 94.7109 72.6985 97.6309 70.8485 100.551C69.7385 122.851 68.6286 145.161 67.5186 167.471C70.3086 167.921 74.8385 168.261 79.8885 166.681C86.8386 164.501 89.3386 159.461 95.2686 154.471C99.1986 151.161 105.339 147.171 114.769 144.641C117.389 145.311 139.539 150.601 158.379 135.761C173.619 123.751 176.279 106.771 176.769 103.101C166.939 85.4509 157.109 67.7909 147.279 50.1409V50.1309Z" fill="#AE80C4"/>
<path d="M87.4985 174.581C84.1485 183.261 79.8885 189.121 78.2085 191.321C78.8185 191.401 82.6185 191.781 85.1385 195.131C87.4185 198.251 86.9685 201.681 86.8085 202.281H66.5585C64.9585 194.141 63.6685 185.001 63.0585 175.031C62.8285 172.591 62.6785 170.081 62.5985 167.491C61.7585 140.391 66.0985 117.481 70.8185 100.511C74.4685 104.011 90.2285 119.691 91.9785 145.421C92.7385 156.991 90.4585 166.881 87.4885 174.571L87.4985 174.581Z" fill="#AE80C4"/>
<path d="M118.169 171.761C114.669 182.041 109.719 188.881 107.889 191.321C108.419 191.401 112.299 191.781 114.739 195.131C117.099 198.251 116.569 201.681 116.489 202.281H96.2386C94.6386 193.981 93.2686 184.771 92.6586 174.731C92.4286 172.371 92.3586 169.931 92.2786 167.501C91.3686 140.401 95.7086 117.491 100.499 100.521C104.149 104.021 119.909 119.701 121.659 145.431C122.349 155.631 120.669 164.531 118.159 171.761H118.169Z" fill="#AE80C4"/>
<path d="M70.8486 100.551C65.7286 143.071 49.5486 165.241 39.5686 175.891C30.5986 185.461 18.3286 194.581 14.1986 191.751C10.6586 189.321 14.6986 179.131 10.0786 176.531C7.74857 175.221 4.04857 176.301 2.14857 178.431C0.108568 180.711 0.508568 183.811 0.878568 186.681C1.14857 188.771 1.96857 195.151 6.58857 199.051C13.4986 204.881 24.6086 201.031 29.4186 199.371C33.5086 197.961 42.4986 194.191 52.9286 181.751C57.9386 175.771 81.1686 148.511 75.0886 114.701C73.9786 108.501 72.1486 103.611 70.8486 100.571V100.551Z" fill="#AE80C4"/>
<path d="M140.779 46.9606C140.899 58.4706 139.299 59.3306 140.959 63.4906C142.309 66.8906 144.829 69.4506 149.879 74.5506C154.669 79.3806 155.279 78.8906 156.899 81.5706C159.279 85.5206 159.099 88.5106 162.369 90.9706C163.339 91.6906 164.989 92.9306 166.649 92.5206C169.199 91.8806 169.589 87.9006 171.409 83.6006C173.749 78.0506 175.849 78.2206 180.449 71.7106C182.589 68.6806 182.669 67.4806 187.469 52.3306C192.309 37.0506 193.689 33.5006 191.929 31.9906C189.079 29.5406 182.799 36.5806 176.589 33.8906C170.789 31.3806 170.979 22.9606 167.549 22.8306C163.579 22.6806 163.059 33.9806 156.009 36.2706C149.969 38.2306 144.729 31.7706 141.499 34.2506C139.709 35.6206 140.699 38.0806 140.789 46.9706L140.779 46.9606Z" fill="white"/>
<path d="M171.909 28.15C171.809 28.55 170.589 28.1 169.549 28.91C168.309 29.88 168.499 31.77 168.059 31.78C167.629 31.78 167.759 29.96 166.509 28.97C165.429 28.12 164.169 28.56 164.069 28.15C163.939 27.62 165.849 26.25 167.989 26.25C170.139 26.25 172.039 27.63 171.909 28.15Z" fill="#3B1A54"/>
<path d="M157.079 24.5305C157.079 26.2005 156.249 27.5405 155.229 27.5405C154.209 27.5405 153.379 26.1905 153.379 24.5305C153.379 22.8705 154.209 21.5205 155.229 21.5205C156.249 21.5205 157.079 22.8705 157.079 24.5305Z" fill="#3B1A54"/>
<path d="M178.619 22.6204C178.619 24.2904 177.789 25.6304 176.769 25.6304C175.749 25.6304 174.919 24.2804 174.919 22.6204C174.919 20.9604 175.749 19.6104 176.769 19.6104C177.789 19.6104 178.619 20.9604 178.619 22.6204Z" fill="#3B1A54"/>
<path d="M163.469 36.52C162.839 36.52 162.319 36.01 162.319 35.38C162.319 34.75 162.829 34.22 163.459 34.22C163.939 34.22 164.659 34.12 165.359 33.68C166.889 32.73 167.079 30.84 167.099 30.62C167.149 29.99 167.699 29.47 168.339 29.57C168.969 29.62 169.449 30.18 169.399 30.81C169.359 31.35 169.019 34.11 166.589 35.63C165.439 36.36 164.259 36.52 163.479 36.53L163.469 36.52Z" fill="#3B1A54"/>
<path d="M172.149 36.8702C172.009 36.8702 171.879 36.8502 171.739 36.8002C171.159 36.5802 168.199 35.3302 167.199 32.1902C166.749 30.7902 166.859 29.5102 167.019 28.6902C167.139 28.0602 167.759 27.6702 168.369 27.7902C168.989 27.9202 169.399 28.5202 169.269 29.1402C169.159 29.7002 169.089 30.5602 169.389 31.4902C170.069 33.6202 172.139 34.4902 172.549 34.6402C173.149 34.8602 173.449 35.5302 173.219 36.1202C173.049 36.5802 172.609 36.8702 172.139 36.8702H172.149Z" fill="#3B1A54"/>
<path d="M145.339 202.281H123.649C121.439 200.301 120.449 197.411 121.289 195.051C122.429 191.701 126.919 189.571 131.259 191.241C130.959 188.961 130.499 185.381 129.809 180.971C128.819 174.201 127.979 168.561 127.219 163.691C130.259 160.571 134.369 159.351 135.209 159.051C135.669 158.901 143.809 156.611 148.379 159.891C149.069 176.031 147.539 190.331 145.339 202.281Z" fill="white"/>
<path d="M198.089 201.14C189.789 200.76 181.419 200.45 173.119 200.15C169.159 187.59 165.199 174.96 161.249 162.4C160.789 158.75 160.639 156.84 162.319 154.94C166.579 150.3 176.019 153.04 176.629 153.19C177.389 153.42 181.119 154.56 184.089 157.38C184.239 163.62 184.389 170.55 184.549 178.39C184.629 184.33 184.699 189.12 184.779 192.24C191.019 191.17 196.349 193.31 197.869 196.88C198.169 197.64 198.559 199.01 198.099 201.14H198.089Z" fill="white"/>
<path d="M85.1386 195.131C87.4186 198.251 86.9686 201.681 86.8086 202.281H66.5586C64.9586 194.141 63.6686 185.001 63.0586 175.031C68.9986 170.011 77.2186 167.571 82.8486 170.541C84.5186 171.381 86.1986 172.821 87.4886 174.571C84.1386 183.251 79.8786 189.111 78.1986 191.311C78.8086 191.391 82.6086 191.771 85.1286 195.121L85.1386 195.131Z" fill="white"/>
<path d="M114.209 168.64C115.579 169.33 116.869 170.39 118.169 171.76C114.669 182.04 109.719 188.88 107.889 191.32C108.419 191.4 112.299 191.78 114.739 195.13C117.099 198.25 116.569 201.68 116.489 202.28H96.2386C94.6386 193.98 93.2686 184.77 92.6586 174.73C98.5986 168.64 108.039 165.37 114.199 168.64H114.209Z" fill="white"/>
<path d="M124.129 146.46C123.679 146.46 123.239 146.19 123.059 145.74C122.269 143.79 121.569 141.79 120.999 139.8C119.609 134.99 118.839 129.97 118.689 124.88C118.669 124.25 119.169 123.71 119.809 123.7C120.479 123.69 120.979 124.18 120.989 124.82C121.119 129.71 121.869 134.53 123.209 139.16C123.759 141.08 124.429 143 125.189 144.88C125.429 145.47 125.149 146.14 124.559 146.38C124.419 146.44 124.269 146.47 124.129 146.47V146.46Z" fill="#3B1A54"/>
<path d="M150.529 140.87C150.129 140.87 149.729 140.65 149.519 140.28C149.209 139.72 149.409 139.02 149.969 138.71C154.469 136.23 158.589 133.13 162.199 129.51C168.619 123.06 173.419 114.88 176.059 105.86C176.239 105.25 176.869 104.89 177.489 105.08C178.099 105.26 178.449 105.9 178.269 106.51C175.519 115.9 170.519 124.42 163.829 131.14C160.069 134.91 155.779 138.14 151.079 140.73C150.899 140.83 150.709 140.87 150.519 140.87H150.529Z" fill="#3B1A54"/>
<path d="M93.6785 146.42C93.5485 146.42 93.4185 146.4 93.2885 146.35C92.6885 146.13 92.3785 145.47 92.5985 144.87C94.4585 139.74 95.2385 134.45 94.9085 129.16C94.1485 116.74 87.5285 107.99 83.6485 103.87C83.2085 103.41 83.2285 102.68 83.6985 102.24C84.1585 101.8 84.8885 101.83 85.3285 102.28C89.4185 106.62 96.4085 115.87 97.2185 129.01C97.5585 134.62 96.7385 140.22 94.7685 145.65C94.5985 146.12 94.1585 146.41 93.6885 146.41L93.6785 146.42Z" fill="#3B1A54"/>
<path d="M105.899 148.051C102.859 148.051 99.8085 147.811 96.7885 147.331C96.1585 147.231 95.7285 146.641 95.8285 146.011C95.9285 145.381 96.5285 144.961 97.1485 145.051C102.469 145.891 107.849 145.961 113.119 145.271C115.859 144.911 118.609 144.331 121.299 143.561C121.909 143.371 122.549 143.741 122.729 144.351C122.909 144.961 122.549 145.601 121.939 145.781C119.149 146.591 116.279 147.191 113.429 147.571C110.939 147.901 108.419 148.061 105.909 148.061L105.899 148.051Z" fill="#3B1A54"/>
<path d="M61.9286 167.031C61.7886 167.031 61.6386 167.001 61.4986 166.941C60.9086 166.711 60.6186 166.041 60.8586 165.441C63.8886 157.911 66.1086 150.031 67.4486 142.021C68.7786 134.071 69.2586 125.941 68.8586 117.891C68.8286 117.251 69.3186 116.711 69.9486 116.681C70.5586 116.681 71.1186 117.141 71.1586 117.771C71.5586 125.991 71.0786 134.281 69.7186 142.391C68.3486 150.571 66.0886 158.611 62.9886 166.301C62.8086 166.751 62.3786 167.021 61.9186 167.021L61.9286 167.031Z" fill="#3B1A54"/>
</g>
<defs>
<clipPath id="clip0_1085_2793">
<rect width="197.72" height="202.28" fill="white" transform="translate(0.578613)"/>
</clipPath>
</defs>
</svg>
