<?xml version="1.0" encoding="utf-8"?>
<!-- Generator: Adobe Illustrator 27.8.1, SVG Export Plug-In . SVG Version: 6.00 Build 0)  -->
<svg version="1.1" id="圖層_1" xmlns="http://www.w3.org/2000/svg" xmlns:xlink="http://www.w3.org/1999/xlink" x="0px" y="0px"
	 viewBox="0 0 122 198" style="enable-background:new 0 0 122 198;" xml:space="preserve">
<style type="text/css">
	.st0{fill:#FFC876;}
	.st1{fill:#3B1A54;}
	.st2{fill:#FFCCCC;}
</style>
<path class="st0" d="M69.7,135.8c0.1,3.9,0,8.1-0.4,12.6c-0.2,2.2-0.4,4.3-0.8,6.4c-1.3,8.6-3.4,16.3-6,23c-0.5,1.5-1.1,3-1.7,4.4
	c-0.7,1.5-1.3,3-1.9,4.3c-2,4.3-4,8-5.9,11H33.3c-0.1-1.1-0.1-3.8,1.5-6.3c3-4.8,9.1-4.9,9.5-4.9c0.7-3.1,1.3-6.2,1.8-9.1
	c2.8-17.5,1.6-32.3-1.8-44.8c-0.5-2.1-1.2-4.2-1.9-6.1c-1.3-3.6-2.4-6.2-3.6-8.8c-0.1-0.1-0.1-0.3-0.2-0.4c-1.3-2.8-2.6-5.5-3.9-9.3
	c-2-5.5-3.5-11-4.5-16.4c-0.1-0.5-0.2-0.9-0.2-1.3c-0.1-0.3-0.1-0.7-0.2-1c-1.5-9.3-1.7-18.4-1.1-27.3c0.2-2.3,0.4-4.5,0.7-6.8
	c0.1-1.2,0.3-2.4,0.5-3.5c0.1-0.9,0.3-1.8,0.4-2.7c0.5,1.1,1.1,2.1,1.6,3.1c0.1,0.3,0.3,0.6,0.4,0.8c1.4,2.7,2.7,5.3,4.1,7.9
	c1.1,2.2,2.2,4.4,3.4,6.7c9.7,18.9,19.4,37.8,29.1,56.8C69.3,127.7,69.6,131.6,69.7,135.8L69.7,135.8z"/>
<path class="st0" d="M121.1,183.2c-0.3,4.7-0.7,9.6-1.3,14.8c-1.8,0-3.5,0-5.3,0c-20.5-0.2-41.1-0.3-61.6-0.4h-1.4
	c-0.6-0.9-1.3-2.3-1.5-4.2c0-0.2,0-0.4,0-0.6c0-4.1,3.3-6.9,4.2-7.6c2.5-2.2,5.2-2.8,6.6-3c-1-1.2-2-2.6-2.9-4.2
	c-1.6-2.8-2.9-6.2-3-10.1c-0.1-8.4,5.7-12.6,10-23.8c1.7-4.5,3.6-11.1,3.9-19.9c-11-13.6-22.6-31.2-31.4-53.3
	c-0.2-0.4-0.3-0.8-0.5-1.3c-0.1-0.3-0.2-0.5-0.3-0.8c-0.5-1.2-0.9-2.4-1.4-3.6c-0.3-0.8-0.6-1.6-0.9-2.4c-1.2-3.4-2.2-6.7-3.1-9.9
	c0-0.1-0.1-0.3-0.1-0.4c-0.3-1.2-0.6-2.4-1-3.5c1-0.4,1.9-0.8,2.9-1.2c8.3-3.5,16.7-7,25-10.5c0.1,0.4,0.3,0.7,0.4,1.1
	C63.6,50.7,68.9,61,73.9,69c2.4,4.1,4.8,7.6,6.9,10.6c5.5,7.8,10.5,13.8,10.5,13.8c13.8,16.9,20.9,20.2,25.8,31.6
	c1.4,3.3,2.6,7.2,3.6,18.7c0.3,3.8,0.7,8,0.8,12.8C121.8,164.2,121.8,173.1,121.1,183.2L121.1,183.2z"/>
<path class="st0" d="M1.9,15.6c-1,2.6,6.3,8.3,11.7,11.4c3.5,2,9,4.5,16.4,5.6c-1.5,2.6-3.9,5.6-7.5,6.5c-6.7,1.6-13.4-5.4-15-3.8
	C6.7,36.1,8,39,9.5,41c2.2,2.8,5.7,4.1,12.6,6.7c2.9,1.1,3.7,1.3,5.2,2.2c2.7,1.5,3.5,2.7,6.3,3.2c4.2,0.8,10.6,0,19.8-7.9
	c1.1-0.8,2.9-2.2,4.2-4.6c0,0,2.3-4.2,1.3-9.6c-1.2-6.8-9.5-13-20.6-14.8c-3.8,1.1-7.6,2.3-11.4,3.4c-9.7-0.8-14.4-2.5-16.8-4
	c-0.6-0.4-2.9-1.9-5.5-1.4C4,14.2,2.3,14.5,1.9,15.6L1.9,15.6z"/>
<path class="st0" d="M44,21.5c0.5-3.6,2.7-20.4,6.7-20.5c3.2-0.1,7.4,10.5,7.3,20.2c0,4.2-0.9,7.8-1.7,10.2L44,21.5z"/>
<path class="st0" d="M35.6,18.7c0.2-2.5,0.6-6.2,1.2-10.6c0.8-6.7,1.1-8,1.6-8c1.2-0.1,2.8,7,3.5,10.5c0.8,4.4,1.1,8.1,1.2,10.7
	L35.6,18.7L35.6,18.7z"/>
<path class="st1" d="M34,24.1c-1.7,0.8-3.4,0.9-3.7,0.2c-0.4-0.7,0.8-2,2.5-2.8c1.7-0.8,3.4-0.9,3.7-0.2
	C36.8,22.1,35.7,23.3,34,24.1z"/>
<path class="st1" d="M2.1,17.9c0.4,0,0.6-0.5,1.4-1.1C4.5,16,5.7,16,6.3,16c2.5-0.1,4.1,1.5,4.5,1c0.3-0.4-0.5-1.6-0.9-2.1
	c-0.4-0.5-1.8-2.4-4.3-2.5c-1.5-0.1-3.9,0.5-4.5,2.2C0.6,16,1.4,17.9,2.1,17.9z"/>
<path class="st1" d="M70.2,189.6c-1.9-0.6-3.3-1.5-4.5-2.6c-2.6-2.6-4-6.8-3.9-12.1c0.1-10.3,5.5-22.1,13.3-29.4
	c4.8-4.5,10.8-7.6,17.8-9.3c0.3-0.1,0.7,0.1,0.8,0.5s-0.1,0.7-0.5,0.8c-6.8,1.6-12.6,4.6-17.2,9c-7.6,7.1-12.8,18.6-12.9,28.5
	c-0.1,4.9,1.2,8.8,3.6,11.2c1,1,2.3,1.8,3.8,2.3c0.3,0.1,0.5,0.5,0.4,0.8C70.7,189.4,70.4,189.6,70.2,189.6L70.2,189.6z"/>
<path class="st1" d="M49.4,196.6c-0.4,0-0.6-0.3-0.6-0.7c0.1-1.3,0.7-5.8,4.4-8.4c3.1-2.1,6.5-1.8,8.8-1.5c2.5,0.3,4,1,5.5,1.7
	c1.1,0.5,2.2,1,3.8,1.4c3.2,0.8,6.9,0.6,10.8-0.6c0.3-0.1,0.7,0.1,0.8,0.4c0.1,0.3-0.1,0.7-0.4,0.8c-4.1,1.3-8,1.5-11.5,0.6
	c-1.7-0.4-2.8-1-4-1.5c-1.4-0.7-2.8-1.3-5.1-1.6c-2.1-0.2-5.3-0.6-8,1.3c-3.2,2.2-3.8,6.3-3.9,7.4C50,196.3,49.7,196.6,49.4,196.6
	L49.4,196.6z"/>
<path class="st1" d="M56.5,182.6c-0.5-0.1-0.7-0.5-0.6-0.8c4.4-12.2,8.1-24.8,11.2-37.4c1.3-5.4,2.5-10.8,3.6-16.3
	c0.1-0.3,0.4-0.6,0.7-0.5c0.3,0.1,0.6,0.4,0.5,0.7c-1.1,5.5-2.3,11-3.6,16.4c-3,12.6-6.8,25.2-11.2,37.5
	C57,182.5,56.8,182.6,56.5,182.6L56.5,182.6z"/>
<path class="st1" d="M72,126.1c-0.4-0.1-0.7-0.4-0.6-0.7c0.1-0.9,0.1-1.9,0-2.8c-0.5-3.9-2.9-6.6-4.3-7.9c-0.3-0.2-0.3-0.6,0-0.9
	c0.2-0.3,0.6-0.3,0.9-0.1c1.5,1.4,4.2,4.4,4.7,8.7c0.1,1,0.1,2,0,3.1C72.6,125.8,72.3,126.1,72,126.1L72,126.1z"/>
<path class="st2" d="M19.8,39.2c0.9,0.5,2,1.5,3,2.8c4.2,5.8,0.5,13.5,2.8,14.5c1.7,0.8,4.7-2.3,6.1-4.5c2.1-3.3,1.5-6.9,1-10.7
	c-0.3-2.2-0.9-5.2-2.4-8.7C26.8,34.8,23.3,37,19.8,39.2L19.8,39.2z"/>
<path class="st1" d="M48.9,20.6c-0.1,0-0.2,0-0.3-0.1c-2.1-1.4-6.5-3.6-11.9-2.9c-2.1,0.3-4,0.9-5.9,1.9c-0.3,0.2-0.7,0.1-0.9-0.2
	c-0.2-0.3-0.1-0.7,0.2-0.9c2-1.1,4.2-1.8,6.4-2.1c5.8-0.7,10.5,1.6,12.7,3.1c0.3,0.2,0.4,0.6,0.2,0.9C49.3,20.5,49.1,20.6,48.9,20.6
	z"/>
<path class="st1" d="M55.5,27.2c-0.3,0-0.5-0.2-0.6-0.5c-0.9-3.2-1.5-6.5-1.8-9.7c-0.2-1.9-0.3-3.7-0.3-5.3
	c-0.1-3.2-0.2-5.6-1.2-6.1c-0.4-0.2-0.9,0-1.6,0.3c-0.3,0.2-0.7,0.1-0.8-0.2C48.9,5.5,49,5.1,49.3,5c1-0.6,1.9-0.7,2.7-0.4
	c1.8,0.7,1.9,3.3,2,7.2c0.1,1.6,0.1,3.3,0.3,5.2c0.3,3.1,0.9,6.3,1.8,9.4c0.1,0.3-0.1,0.7-0.4,0.8C55.6,27.2,55.6,27.2,55.5,27.2
	L55.5,27.2z"/>
<path class="st1" d="M28,51.5c-0.4-0.1-0.7-0.4-0.6-0.7c0.4-2.7,0.3-5.3-0.2-8c-0.4-1.7-0.9-3.3-1.7-4.9c-0.1-0.3,0-0.7,0.3-0.8
	c0.3-0.2,0.7,0,0.8,0.3c0.8,1.6,1.4,3.4,1.7,5.2c0.6,2.8,0.7,5.6,0.3,8.4C28.5,51.2,28.3,51.4,28,51.5L28,51.5z"/>
</svg>
