<svg width="844" height="191" viewBox="0 0 844 191" fill="none" xmlns="http://www.w3.org/2000/svg">
<path d="M95.3023 24.8036C85.9523 24.8036 79.0823 29.3036 76.1923 31.4736C68.6923 25.1436 61.8023 22.1236 59.3023 24.2136C57.0123 26.1336 58.3023 32.4436 58.9723 35.6936C59.5823 38.7036 60.5323 41.1236 61.3023 42.8036C61.625 44.9153 62.6762 50.6299 66.4344 56.6911C66.2632 60.6805 65.9588 65.3529 65.4223 70.5334C64.6177 78.322 63.6908 83.384 62.895 87.7297C62.0192 92.5121 61.3023 96.4269 61.0823 102.153C60.8293 108.772 61.6251 112.729 62.7405 118.276C63.5211 122.157 64.4583 126.818 65.3023 133.713H144.952V118.276C135.002 76.3132 127.684 75.7884 118.72 51.7889C121.468 41.7878 118.541 33.4194 117.862 31.5836C115.702 24.2136 115.602 20.1136 115.972 17.6936C116.008 17.4563 116.047 17.2116 116.086 16.963C116.403 14.9699 116.76 12.726 115.702 12.0236C114.732 11.3836 112.992 12.3036 111.592 13.2436C110.592 13.4136 107.902 14.0136 105.742 16.3536C102.172 20.2136 103.182 25.3736 103.302 25.9136C101.112 25.3036 98.4123 24.8036 95.3023 24.8036Z" fill="#F084D8"/>
<path d="M86.8722 38.5731C86.8722 40.3031 85.7322 41.7031 84.3222 41.7031C82.9122 41.7031 81.7722 40.3031 81.7722 38.5731C81.7722 36.8431 82.9122 35.4431 84.3222 35.4431C85.7322 35.4431 86.8722 36.8431 86.8722 38.5731Z" fill="#3B1A54"/>
<path d="M107.122 33.8031C107.122 35.5331 105.982 36.9331 104.572 36.9331C103.162 36.9331 102.022 35.5331 102.022 33.8031C102.022 32.0731 103.162 30.6731 104.572 30.6731C105.982 30.6731 107.122 32.0731 107.122 33.8031Z" fill="#3B1A54"/>
<path d="M100.122 40.2731C100.062 40.4931 99.3823 40.2131 98.8423 40.6231C97.7323 41.4431 98.5923 43.9931 98.1223 44.1331C97.8323 44.2231 97.5223 43.2431 96.5623 42.2931C95.0323 40.7731 93.4623 40.8931 93.4423 40.2731C93.4223 39.6131 95.1623 38.8131 96.7923 38.8331C98.6223 38.8631 100.232 39.9231 100.142 40.2731H100.122Z" fill="#3B1A54"/>
<path d="M96.5323 47.6233C96.0923 47.6233 95.6723 47.3733 95.4823 46.9433C95.2223 46.3633 95.4823 45.6833 96.0723 45.4233C96.3223 45.3133 96.6523 45.1033 96.8523 44.7233C97.2523 43.9633 96.7323 43.0733 96.7323 43.0633C96.4123 42.5233 96.5723 41.8133 97.1023 41.4833C97.6423 41.1533 98.3223 41.3033 98.6723 41.8233C99.1123 42.5033 99.7223 44.2033 98.8923 45.7833C98.4923 46.5433 97.8423 47.1433 97.0023 47.5133C96.8523 47.5833 96.6923 47.6133 96.5323 47.6133V47.6233Z" fill="#3B1A54"/>
<path d="M101.042 46.0633C100.492 46.0333 98.8523 45.8133 97.7023 44.3333C96.6223 42.9333 96.7423 41.3933 96.8023 40.9533C96.8923 40.3233 97.4723 39.8833 98.1023 39.9733C98.7323 40.0633 99.1723 40.6433 99.0823 41.2733C99.0623 41.4233 98.9823 42.2233 99.5223 42.9133C100.102 43.6533 100.952 43.7434 101.122 43.7534C101.752 43.7933 102.242 44.3433 102.192 44.9733C102.152 45.5833 101.652 46.0534 101.042 46.0534V46.0633Z" fill="#3B1A54"/>
<path d="M73.2823 37.3332C72.6923 37.3332 72.1823 36.8832 72.1323 36.2832C72.0223 35.0532 71.6623 33.9332 71.0523 32.9432C68.7023 29.1632 63.6423 29.0532 63.0823 29.0532C62.4523 29.0532 61.9323 28.5332 61.9323 27.9032C61.9323 27.2732 62.4523 26.7532 63.0823 26.7532C63.7823 26.7532 70.0023 26.8932 73.0123 31.7332C73.8223 33.0332 74.3023 34.4932 74.4423 36.0932C74.4923 36.7232 74.0323 37.2832 73.3923 37.3432C73.3623 37.3432 73.3223 37.3432 73.2923 37.3432L73.2823 37.3332Z" fill="#3B1A54"/>
<path d="M106.842 27.7931C106.762 27.7931 106.692 27.7931 106.612 27.7731C105.992 27.6431 105.582 27.0331 105.712 26.4131C106.472 22.6731 108.202 19.4031 110.732 16.9531C111.592 16.1131 112.562 15.3531 113.602 14.7031C114.142 14.3731 114.852 14.5331 115.192 15.0731C115.522 15.6131 115.362 16.3231 114.822 16.6531C113.922 17.2131 113.082 17.8631 112.342 18.5931C110.152 20.7231 108.642 23.5831 107.982 26.8631C107.872 27.4131 107.392 27.7831 106.852 27.7831L106.842 27.7931Z" fill="#3B1A54"/>
<path d="M75.2122 52.8133C74.7722 52.8133 74.3622 52.5633 74.1622 52.1433C73.8922 51.5633 74.1622 50.8832 74.7322 50.6132L87.5322 44.7532C88.1122 44.4932 88.7922 44.7432 89.0622 45.3232C89.3322 45.9032 89.0622 46.5833 88.4922 46.8533L75.6922 52.7133C75.5322 52.7833 75.3722 52.8133 75.2122 52.8133Z" fill="#3B1A54"/>
<path d="M83.6622 55.0734C83.3922 55.0734 83.1322 54.9834 82.9122 54.8034C82.4222 54.3934 82.3722 53.6634 82.7822 53.1834L85.9922 49.4134C86.4122 48.9234 87.1422 48.8734 87.6122 49.2834C88.1022 49.6934 88.1522 50.4234 87.7422 50.9034L84.5322 54.6734C84.3022 54.9434 83.9822 55.0734 83.6522 55.0734H83.6622Z" fill="#3B1A54"/>
<path d="M88.9422 56.5731C88.7222 56.5731 88.5122 56.5131 88.3222 56.3931C87.7822 56.0531 87.6322 55.3331 87.9722 54.8031L91.1422 49.8631C91.4922 49.3231 92.2122 49.1731 92.7322 49.5131C93.2722 49.8531 93.4222 50.5731 93.0822 51.1031L89.9122 56.0431C89.6922 56.3831 89.3222 56.5731 88.9422 56.5731Z" fill="#3B1A54"/>
<path d="M124.662 41.3631C124.612 41.3631 103.522 40.3431 103.522 40.3431C102.882 40.3131 102.392 39.7731 102.422 39.1331C102.452 38.5031 103.022 37.9831 103.632 38.0431L124.712 39.0631C125.352 39.0931 125.842 39.6331 125.812 40.2731C125.782 40.8931 125.272 41.3731 124.662 41.3731V41.3631Z" fill="#3B1A54"/>
<path d="M132.272 47.6231C132.082 47.6031 108.482 43.5931 108.482 43.5931C107.852 43.4831 107.432 42.8931 107.542 42.2631C107.642 41.6331 108.212 41.2031 108.872 41.3231L132.462 45.3431C133.092 45.4531 133.512 46.0431 133.402 46.6731C133.312 47.2331 132.822 47.6331 132.272 47.6331V47.6231Z" fill="#3B1A54"/>
<path d="M121.562 49.8831C121.472 49.8831 121.382 49.8831 121.302 49.8531L109.172 47.0031C108.552 46.8631 108.162 46.2331 108.312 45.6231C108.452 45.0031 109.082 44.6031 109.692 44.7631L121.822 47.6131C122.442 47.7531 122.832 48.3731 122.682 48.9931C122.562 49.5231 122.082 49.8831 121.562 49.8831Z" fill="#3B1A54"/>
<path d="M143.064 106.059H14.5955V190.102H143.064V106.059Z" fill="#FFC876"/>
<path d="M143.077 189.956L189.369 167.517V88.9939L143.077 111.433V189.956Z" fill="#FFC876"/>
<path d="M128.972 134.5H0.144409L14.249 106.059H143.077L128.972 134.5Z" fill="#FFC876"/>
<path d="M143.077 106.06L153.331 127.394L199.38 100.461L189.369 83.6208L143.077 106.06Z" fill="#FFC876"/>
<path d="M15.0191 106.298C31.7931 106.746 48.58 107.179 65.3541 107.627C73.6834 107.851 82.0384 108.284 90.3676 108.18C94.5002 108.135 98.5942 107.702 102.701 107.314C106.834 106.925 110.966 106.761 115.112 106.761C124.468 106.776 133.836 107.194 143.192 107.463C144.052 107.493 144.052 105.94 143.192 105.91C134.85 105.671 126.521 105.373 118.179 105.238C114.098 105.179 110.004 105.194 105.922 105.492C101.828 105.776 97.76 106.328 93.666 106.537C85.3495 106.94 76.9817 106.373 68.6781 106.164C60.2462 105.94 51.8271 105.716 43.3951 105.507C33.9364 105.253 24.4649 105.014 15.0062 104.761C14.1464 104.731 14.1464 106.283 15.0062 106.313L15.0191 106.298Z" fill="#3B1A54"/>
<path d="M143.539 107.358C158.953 99.7295 174.251 91.8019 189.741 84.3671C190.524 83.9938 190.178 82.486 189.382 82.8741C173.789 90.3538 158.375 98.3261 142.859 106.015C142.076 106.403 142.756 107.747 143.526 107.358H143.539Z" fill="#3B1A54"/>
<path d="M142.718 107.329C143.744 109.091 144.655 110.927 145.592 112.748C146.465 114.435 147.44 116.048 148.39 117.675C150.315 121.004 151.997 124.468 153.421 128.126C153.78 129.036 154.923 128.245 154.576 127.349C153.152 123.706 151.458 120.228 149.545 116.899C148.596 115.256 147.633 113.659 146.747 111.972C145.798 110.151 144.899 108.314 143.873 106.553C143.398 105.731 142.243 106.508 142.718 107.329Z" fill="#3B1A54"/>
<path d="M154.332 128.409C169.733 119.899 184.8 110.568 199.675 100.849C200.419 100.357 199.752 99.0278 199.008 99.5055C184.133 109.225 169.066 118.556 153.665 127.065C152.895 127.498 153.562 128.827 154.332 128.409Z" fill="#3B1A54"/>
<path d="M142.718 106.553C137.238 115.57 132.887 125.423 128.729 135.322C128.356 136.217 129.499 137.009 129.884 136.098C134.029 126.2 138.393 116.346 143.873 107.329C144.373 106.508 143.218 105.731 142.718 106.553Z" fill="#3B1A54"/>
<path d="M0.64491 135.082C17.3548 135.068 34.0647 135.127 50.7746 135.262C67.4845 135.396 84.1944 135.62 100.904 135.904C110.363 136.068 119.834 136.262 129.293 136.471C130.153 136.486 130.153 134.933 129.293 134.918C112.583 134.545 95.8734 134.231 79.1635 134.008C62.4536 133.784 45.7437 133.634 29.0338 133.56C19.5751 133.515 10.1036 133.5 0.64491 133.515C-0.21497 133.515 -0.21497 135.068 0.64491 135.068V135.082Z" fill="#3B1A54"/>
<path d="M31.5749 125.11C43.01 121.303 54.5478 117.988 66.2011 115.197C67.0353 115.003 66.6888 113.495 65.8418 113.704C54.2013 116.495 42.6507 119.795 31.2156 123.617C30.3942 123.886 30.7407 125.393 31.5749 125.11Z" fill="#3C3544"/>
<path d="M52.2891 123.542C56.3061 122.393 60.336 121.258 64.3531 120.108C65.1873 119.869 64.8279 118.377 63.9937 118.615C59.9767 119.765 55.9468 120.9 51.9297 122.049C51.0955 122.288 51.4549 123.781 52.2891 123.542Z" fill="#3C3544"/>
<path d="M142.471 107.416C142.426 131.77 142.044 156.124 142 180.496C142 181.776 143.529 181.776 143.529 180.496C143.574 156.143 143.956 131.789 144 107.416C144 106.136 142.471 106.136 142.471 107.416Z" fill="#3B1A54"/>
<path d="M62.211 165.45C61.979 165.45 61.776 165.373 61.602 165.218C61.4377 165.064 61.3555 164.856 61.3555 164.595V162.478C61.3555 161.762 61.486 161.231 61.747 160.883C62.0177 160.535 62.5058 160.317 63.2115 160.23V158.722C63.2115 157.92 63.4145 157.369 63.8205 157.069C64.2265 156.77 64.9177 156.62 65.894 156.62H68.7505C69.4465 156.62 69.9878 156.687 70.3745 156.823C70.7708 156.948 71.0463 157.166 71.201 157.475C71.3557 157.775 71.433 158.191 71.433 158.722V160.23C72.1483 160.317 72.6317 160.535 72.883 160.883C73.144 161.231 73.2745 161.762 73.2745 162.478V163.464C73.2745 164.16 73.1053 164.658 72.767 164.957C72.4287 165.257 71.9018 165.407 71.1865 165.407C70.9545 165.407 70.7563 165.334 70.592 165.189C70.4277 165.054 70.3358 164.88 70.3165 164.667C70.2972 164.455 70.3503 164.266 70.476 164.102C70.6017 163.947 70.7708 163.855 70.9835 163.826C71.2348 163.788 71.3943 163.73 71.462 163.652C71.5393 163.565 71.578 163.391 71.578 163.13V162.463C71.578 162.038 71.491 161.758 71.317 161.622C71.1527 161.487 70.8143 161.419 70.302 161.419H64.3425C63.8302 161.419 63.487 161.487 63.313 161.622C63.1487 161.758 63.0665 162.038 63.0665 162.463V164.595C63.0665 164.856 62.9843 165.064 62.82 165.218C62.6557 165.373 62.4527 165.45 62.211 165.45ZM63.5595 156.692C63.3662 156.76 63.168 156.774 62.965 156.736C62.762 156.697 62.617 156.576 62.53 156.373C62.4527 156.19 62.4527 156.011 62.53 155.837C62.6073 155.663 62.7523 155.542 62.965 155.474C63.3807 155.32 63.7528 155.146 64.0815 154.952C64.4198 154.749 64.7195 154.503 64.9805 154.213H63.3565C63.0278 154.213 62.8055 154.266 62.6895 154.372C62.5735 154.479 62.5155 154.701 62.5155 155.039C62.5155 155.252 62.4382 155.431 62.2835 155.576C62.1288 155.721 61.9403 155.793 61.718 155.793C61.5053 155.793 61.3217 155.726 61.167 155.59C61.0123 155.445 60.935 155.242 60.935 154.981C60.935 154.469 61.0075 154.068 61.1525 153.778C61.3072 153.478 61.5537 153.265 61.892 153.14C62.24 153.014 62.704 152.951 63.284 152.951H66.329V152.415C66.329 152.154 66.416 151.951 66.59 151.806C66.764 151.651 66.9718 151.574 67.2135 151.574C67.4648 151.574 67.6727 151.651 67.837 151.806C68.011 151.951 68.098 152.154 68.098 152.415V152.951H71.375C72.2547 152.951 72.8685 153.096 73.2165 153.386C73.5645 153.676 73.7385 154.208 73.7385 154.981C73.7385 155.242 73.6612 155.445 73.5065 155.59C73.3518 155.726 73.1633 155.793 72.941 155.793C72.5737 155.793 72.3272 155.634 72.2015 155.315V155.344C72.1048 155.576 71.9695 155.769 71.7955 155.924C71.6215 156.078 71.3798 156.194 71.0705 156.272C70.7612 156.339 70.3407 156.373 69.809 156.373C69.229 156.373 68.7795 156.325 68.4605 156.228C68.1415 156.122 67.9192 155.948 67.7935 155.706C67.6678 155.465 67.605 155.126 67.605 154.691V154.213H66.6045C66.2178 154.841 65.7877 155.349 65.314 155.735C64.85 156.112 64.2652 156.431 63.5595 156.692ZM66.1115 164.667C65.5122 164.667 65.0917 164.561 64.85 164.348C64.6083 164.145 64.4875 163.792 64.4875 163.29C64.4875 162.777 64.6083 162.42 64.85 162.217C65.0917 162.004 65.5122 161.898 66.1115 161.898H68.475C69.0743 161.898 69.4948 162.004 69.7365 162.217C69.9782 162.42 70.099 162.777 70.099 163.29C70.099 163.792 69.9782 164.145 69.7365 164.348C69.4948 164.561 69.0743 164.667 68.475 164.667H66.1115ZM64.8935 160.187H66.2275V159.955C66.2275 159.355 66.3677 158.935 66.648 158.693C66.9283 158.452 67.3972 158.331 68.0545 158.331H69.7365C69.6882 158.128 69.577 157.997 69.403 157.939C69.229 157.872 68.9438 157.838 68.5475 157.838H66.126C65.7877 157.838 65.5267 157.862 65.343 157.91C65.169 157.959 65.0482 158.055 64.9805 158.2C64.9225 158.336 64.8935 158.543 64.8935 158.824V160.187ZM66.5465 163.623H68.0545C68.2382 163.623 68.3638 163.599 68.4315 163.551C68.4992 163.502 68.533 163.415 68.533 163.29C68.533 163.154 68.4992 163.063 68.4315 163.014C68.3638 162.966 68.2382 162.942 68.0545 162.942H66.5465C66.3628 162.942 66.2372 162.966 66.1695 163.014C66.1018 163.063 66.068 163.154 66.068 163.29C66.068 163.415 66.1018 163.502 66.1695 163.551C66.2372 163.599 66.3628 163.623 66.5465 163.623ZM69.9685 155.068C70.2488 155.068 70.4518 155.034 70.5775 154.967C70.7128 154.899 70.8288 154.778 70.9255 154.604C71.0222 154.44 71.1672 154.343 71.3605 154.314C71.5635 154.276 71.7423 154.295 71.897 154.372C71.926 154.382 71.955 154.396 71.984 154.416C72.013 154.435 72.0372 154.454 72.0565 154.474C71.9502 154.3 71.6988 154.213 71.3025 154.213H69.0695V154.503C69.0695 154.744 69.1275 154.899 69.2435 154.967C69.3692 155.034 69.6108 155.068 69.9685 155.068ZM67.895 160.187H69.78V159.447H68.6055C68.3058 159.447 68.1125 159.486 68.0255 159.563C67.9385 159.631 67.895 159.795 67.895 160.056V160.187ZM77.581 165.45C77.349 165.45 77.146 165.373 76.972 165.218C76.8077 165.064 76.7255 164.856 76.7255 164.595V162.478C76.7255 161.762 76.856 161.231 77.117 160.883C77.3877 160.535 77.8758 160.317 78.5815 160.23V158.722C78.5815 157.92 78.7845 157.369 79.1905 157.069C79.5965 156.77 80.2877 156.62 81.264 156.62H84.1205C84.8165 156.62 85.3578 156.687 85.7445 156.823C86.1408 156.948 86.4163 157.166 86.571 157.475C86.7257 157.775 86.803 158.191 86.803 158.722V160.23C87.5183 160.317 88.0017 160.535 88.253 160.883C88.514 161.231 88.6445 161.762 88.6445 162.478V163.464C88.6445 164.16 88.4753 164.658 88.137 164.957C87.7987 165.257 87.2718 165.407 86.5565 165.407C86.3245 165.407 86.1263 165.334 85.962 165.189C85.7977 165.054 85.7058 164.88 85.6865 164.667C85.6672 164.455 85.7203 164.266 85.846 164.102C85.9717 163.947 86.1408 163.855 86.3535 163.826C86.6048 163.788 86.7643 163.73 86.832 163.652C86.9093 163.565 86.948 163.391 86.948 163.13V162.463C86.948 162.038 86.861 161.758 86.687 161.622C86.5227 161.487 86.1843 161.419 85.672 161.419H79.7125C79.2002 161.419 78.857 161.487 78.683 161.622C78.5187 161.758 78.4365 162.038 78.4365 162.463V164.595C78.4365 164.856 78.3543 165.064 78.19 165.218C78.0257 165.373 77.8227 165.45 77.581 165.45ZM78.9295 156.692C78.7362 156.76 78.538 156.774 78.335 156.736C78.132 156.697 77.987 156.576 77.9 156.373C77.8227 156.19 77.8227 156.011 77.9 155.837C77.9773 155.663 78.1223 155.542 78.335 155.474C78.7507 155.32 79.1228 155.146 79.4515 154.952C79.7898 154.749 80.0895 154.503 80.3505 154.213H78.7265C78.3978 154.213 78.1755 154.266 78.0595 154.372C77.9435 154.479 77.8855 154.701 77.8855 155.039C77.8855 155.252 77.8082 155.431 77.6535 155.576C77.4988 155.721 77.3103 155.793 77.088 155.793C76.8753 155.793 76.6917 155.726 76.537 155.59C76.3823 155.445 76.305 155.242 76.305 154.981C76.305 154.469 76.3775 154.068 76.5225 153.778C76.6772 153.478 76.9237 153.265 77.262 153.14C77.61 153.014 78.074 152.951 78.654 152.951H81.699V152.415C81.699 152.154 81.786 151.951 81.96 151.806C82.134 151.651 82.3418 151.574 82.5835 151.574C82.8348 151.574 83.0427 151.651 83.207 151.806C83.381 151.951 83.468 152.154 83.468 152.415V152.951H86.745C87.6247 152.951 88.2385 153.096 88.5865 153.386C88.9345 153.676 89.1085 154.208 89.1085 154.981C89.1085 155.242 89.0312 155.445 88.8765 155.59C88.7218 155.726 88.5333 155.793 88.311 155.793C87.9437 155.793 87.6972 155.634 87.5715 155.315V155.344C87.4748 155.576 87.3395 155.769 87.1655 155.924C86.9915 156.078 86.7498 156.194 86.4405 156.272C86.1312 156.339 85.7107 156.373 85.179 156.373C84.599 156.373 84.1495 156.325 83.8305 156.228C83.5115 156.122 83.2892 155.948 83.1635 155.706C83.0378 155.465 82.975 155.126 82.975 154.691V154.213H81.9745C81.5878 154.841 81.1577 155.349 80.684 155.735C80.22 156.112 79.6352 156.431 78.9295 156.692ZM81.4815 164.667C80.8822 164.667 80.4617 164.561 80.22 164.348C79.9783 164.145 79.8575 163.792 79.8575 163.29C79.8575 162.777 79.9783 162.42 80.22 162.217C80.4617 162.004 80.8822 161.898 81.4815 161.898H83.845C84.4443 161.898 84.8648 162.004 85.1065 162.217C85.3482 162.42 85.469 162.777 85.469 163.29C85.469 163.792 85.3482 164.145 85.1065 164.348C84.8648 164.561 84.4443 164.667 83.845 164.667H81.4815ZM80.2635 160.187H81.5975V159.955C81.5975 159.355 81.7377 158.935 82.018 158.693C82.2983 158.452 82.7672 158.331 83.4245 158.331H85.1065C85.0582 158.128 84.947 157.997 84.773 157.939C84.599 157.872 84.3138 157.838 83.9175 157.838H81.496C81.1577 157.838 80.8967 157.862 80.713 157.91C80.539 157.959 80.4182 158.055 80.3505 158.2C80.2925 158.336 80.2635 158.543 80.2635 158.824V160.187ZM81.9165 163.623H83.4245C83.6082 163.623 83.7338 163.599 83.8015 163.551C83.8692 163.502 83.903 163.415 83.903 163.29C83.903 163.154 83.8692 163.063 83.8015 163.014C83.7338 162.966 83.6082 162.942 83.4245 162.942H81.9165C81.7328 162.942 81.6072 162.966 81.5395 163.014C81.4718 163.063 81.438 163.154 81.438 163.29C81.438 163.415 81.4718 163.502 81.5395 163.551C81.6072 163.599 81.7328 163.623 81.9165 163.623ZM85.3385 155.068C85.6188 155.068 85.8218 155.034 85.9475 154.967C86.0828 154.899 86.1988 154.778 86.2955 154.604C86.3922 154.44 86.5372 154.343 86.7305 154.314C86.9335 154.276 87.1123 154.295 87.267 154.372C87.296 154.382 87.325 154.396 87.354 154.416C87.383 154.435 87.4072 154.454 87.4265 154.474C87.3202 154.3 87.0688 154.213 86.6725 154.213H84.4395V154.503C84.4395 154.744 84.4975 154.899 84.6135 154.967C84.7392 155.034 84.9808 155.068 85.3385 155.068ZM83.265 160.187H85.15V159.447H83.9755C83.6758 159.447 83.4825 159.486 83.3955 159.563C83.3085 159.631 83.265 159.795 83.265 160.056V160.187Z" fill="#584438"/>
<path d="M248.399 15.0907C248.449 16.3057 248.712 20.4827 251.174 24.9387C250.987 26.7514 250.881 28.3466 250.82 29.699C250.734 31.5572 250.667 34.5412 251.839 34.9758C252.264 35.1297 252.672 34.888 253.085 34.6427C253.504 34.3944 253.929 34.1423 254.385 34.2926C255.38 34.624 255.614 36.5645 255.8 38.1075C255.928 39.167 256.033 40.0392 256.346 40.0741C256.63 40.1047 256.898 39.4246 257.199 38.6636C257.571 37.723 257.992 36.6587 258.549 36.6596C258.887 36.6613 259.062 37.0451 259.311 37.5916C259.608 38.2429 260.01 39.1251 260.918 39.8665C261.629 40.4485 262.561 40.6985 264.425 41.1985L264.45 41.205C266.465 41.7427 267.906 42.1272 268.27 41.5976C268.48 41.2916 268.216 40.8491 267.903 40.3232C267.708 39.9946 267.493 39.6334 267.362 39.2527C267.094 38.4678 267.128 37.4283 267.838 36.0196C268.121 36.0527 268.356 36.0742 268.538 36.089C270.25 36.8681 272.883 38.3533 274.893 41.113C279.166 46.9921 278.187 49.9168 274.893 62.8984C273.759 67.367 268.538 76.3984 266.421 80.7153C262.5 93.3984 262.207 101.664 262.5 110.398C262.658 115.211 267.311 121.402 268.435 125.66L357.146 132.191C355.616 122.971 352.889 113.514 348.127 103.739C341.91 90.9816 335.971 85.3836 331.02 80.7153C328.07 77.9349 325.471 75.4844 323.371 72.0476C322.115 69.9891 320.824 67.0283 319.374 61.2918C316.916 51.5331 316.567 42.9444 316.571 35.6337C320.889 32.4394 321.968 24.4816 317.897 16.5219C316.341 14.2018 312.593 9.34077 305.914 6.53477C302.614 5.14834 299.588 4.67896 297.354 4.53189C293.339 3.87092 289.426 4.54196 286.321 6.60141C283.377 8.56107 281.838 11.3208 281.065 13.1501L277.639 13.3522C267.894 13.9271 258.144 14.5022 248.399 15.0835L248.399 15.0907Z" fill="#81E1D0"/>
<path d="M248.399 15.0906C247.339 16.2822 248.076 18.9772 248.963 19.1586C249.456 19.2602 249.728 18.5184 250.735 17.6495C253.105 15.6112 255.969 15.9381 255.955 15.4293C255.94 14.9493 253.362 14.687 252.185 14.6076C250.062 14.4731 248.993 14.4089 248.392 15.0901L248.399 15.0906Z" fill="#3B1A54"/>
<path d="M263.407 36.1103C263.921 36.1192 264.297 35.7478 264.302 35.2839C264.315 33.1374 264.703 31.0185 265.453 29.0061C266.166 27.1071 267.174 25.3385 268.466 23.765C268.753 23.4089 268.705 22.883 268.349 22.5956C267.993 22.301 267.467 22.3565 267.172 22.7121C265.769 24.4225 264.663 26.3434 263.886 28.4264C263.071 30.6227 262.647 32.9276 262.627 35.2766C262.623 35.7189 262.966 36.0851 263.399 36.117L263.407 36.1103Z" fill="#3B1A54"/>
<path d="M257.853 33.8948C258.398 33.8842 258.76 33.5045 258.75 33.0467C258.722 31.942 258.804 30.838 258.992 29.7564C259.419 27.3066 260.381 24.9906 261.843 22.8637C262.103 22.4839 262.011 21.962 261.631 21.7019C261.258 21.4423 260.737 21.5344 260.476 21.9143C258.869 24.2408 257.818 26.7825 257.351 29.476C257.148 30.6653 257.059 31.8775 257.085 33.0911C257.097 33.52 257.434 33.8712 257.853 33.9021L257.853 33.8948Z" fill="#3B1A54"/>
<path d="M252.968 30.5752C253.574 30.5255 253.909 30.1221 253.863 29.6617C253.716 28.1999 253.823 26.7495 254.18 25.3466C254.701 23.3028 255.756 21.3854 257.236 19.804C257.551 19.4717 257.532 18.9407 257.193 18.6255C256.86 18.3108 256.329 18.3298 256.015 18.6621C254.345 20.4472 253.148 22.6153 252.564 24.9302C252.164 26.5186 252.044 28.1566 252.204 29.8225C252.246 30.2319 252.579 30.5393 252.969 30.568L252.968 30.5752Z" fill="#3B1A54"/>
<path d="M305.891 39.6588C308.857 39.8771 311.925 39.3993 314.811 38.139C315.231 37.9523 315.426 37.4661 315.24 37.0388C315.054 36.6116 314.56 36.4229 314.148 36.6029C306.585 39.8912 297.718 37.3521 293.528 30.7029C289.962 25.0427 290.466 17.5057 294.785 11.9545C295.066 11.5907 295.003 11.0637 294.639 10.783C294.283 10.5028 293.749 10.5578 293.468 10.9289C288.716 17.0359 288.17 25.3388 292.113 31.5926C295.135 36.3784 300.336 39.2425 305.892 39.6516L305.891 39.6588Z" fill="#3B1A54"/>
<path d="M285.507 17.0682C284.658 17.0057 284.062 15.7113 284.175 14.177C284.288 12.6427 285.067 11.4496 285.916 11.5121C286.765 11.5746 287.361 12.869 287.248 14.4033C287.136 15.9376 286.356 17.1307 285.507 17.0682Z" fill="#3B1A54"/>
<path d="M347.064 106.059H218.595V190.102H347.064V106.059Z" fill="#FFC876"/>
<path d="M347.077 189.956L393.369 167.517V88.9939L347.077 111.433V189.956Z" fill="#FFC876"/>
<path d="M332.972 134.5H204.144L218.249 106.059H347.077L332.972 134.5Z" fill="#FFC876"/>
<path d="M347.077 106.06L357.331 127.394L403.38 100.461L393.369 83.6208L347.077 106.06Z" fill="#FFC876"/>
<path d="M219.019 106.298C235.793 106.746 252.58 107.179 269.354 107.627C277.683 107.851 286.038 108.284 294.368 108.18C298.5 108.135 302.594 107.702 306.701 107.314C310.834 106.925 314.966 106.761 319.112 106.761C328.468 106.776 337.836 107.194 347.192 107.463C348.052 107.493 348.052 105.94 347.192 105.91C338.85 105.671 330.521 105.373 322.179 105.238C318.098 105.179 314.004 105.194 309.922 105.492C305.828 105.776 301.76 106.328 297.666 106.537C289.35 106.94 280.982 106.373 272.678 106.164C264.246 105.94 255.827 105.716 247.395 105.507C237.936 105.253 228.465 105.014 219.006 104.761C218.146 104.731 218.146 106.283 219.006 106.313L219.019 106.298Z" fill="#3B1A54"/>
<path d="M347.539 107.358C362.953 99.7295 378.251 91.8019 393.741 84.3671C394.524 83.9938 394.178 82.486 393.382 82.8741C377.789 90.3538 362.375 98.3261 346.859 106.015C346.076 106.403 346.756 107.747 347.526 107.358H347.539Z" fill="#3B1A54"/>
<path d="M346.718 107.329C347.744 109.091 348.655 110.927 349.592 112.748C350.465 114.435 351.44 116.048 352.39 117.675C354.315 121.004 355.997 124.468 357.421 128.126C357.78 129.036 358.923 128.245 358.576 127.349C357.152 123.706 355.458 120.228 353.545 116.899C352.596 115.256 351.633 113.659 350.747 111.972C349.798 110.151 348.899 108.314 347.873 106.553C347.398 105.731 346.243 106.508 346.718 107.329Z" fill="#3B1A54"/>
<path d="M358.332 128.409C373.733 119.899 388.8 110.568 403.675 100.849C404.419 100.357 403.752 99.0278 403.008 99.5055C388.133 109.225 373.066 118.556 357.665 127.065C356.895 127.498 357.562 128.827 358.332 128.409Z" fill="#3B1A54"/>
<path d="M346.718 106.553C341.238 115.57 336.887 125.423 332.729 135.322C332.356 136.217 333.499 137.009 333.884 136.098C338.029 126.2 342.393 116.346 347.873 107.329C348.373 106.508 347.218 105.731 346.718 106.553Z" fill="#3B1A54"/>
<path d="M204.645 135.082C221.355 135.068 238.065 135.127 254.775 135.262C271.485 135.396 288.194 135.62 304.904 135.904C314.363 136.068 323.834 136.262 333.293 136.471C334.153 136.486 334.153 134.933 333.293 134.918C316.583 134.545 299.873 134.231 283.163 134.008C266.454 133.784 249.744 133.634 233.034 133.56C223.575 133.515 214.104 133.5 204.645 133.515C203.785 133.515 203.785 135.068 204.645 135.068V135.082Z" fill="#3B1A54"/>
<path d="M235.575 125.11C247.01 121.303 258.548 117.988 270.201 115.197C271.035 115.003 270.689 113.495 269.842 113.704C258.201 116.495 246.651 119.795 235.216 123.617C234.394 123.886 234.741 125.393 235.575 125.11Z" fill="#3C3544"/>
<path d="M256.289 123.542C260.306 122.393 264.336 121.258 268.353 120.108C269.187 119.869 268.828 118.377 267.994 118.615C263.977 119.765 259.947 120.9 255.93 122.049C255.096 122.288 255.455 123.781 256.289 123.542Z" fill="#3C3544"/>
<path d="M346.471 107.416C346.426 131.77 346.044 156.124 346 180.496C346 181.776 347.529 181.776 347.529 180.496C347.574 156.143 347.956 131.789 348 107.416C348 106.136 346.471 106.136 346.471 107.416Z" fill="#3B1A54"/>
<path d="M269.531 165.363C269.241 165.363 269.009 165.281 268.835 165.117C268.671 164.962 268.584 164.749 268.574 164.478C268.565 164.237 268.632 164.034 268.777 163.869C268.922 163.695 269.14 163.604 269.43 163.594C269.855 163.565 270.126 163.502 270.242 163.405C270.358 163.299 270.416 163.082 270.416 162.753V160.781H265.399C265.157 160.781 264.959 160.704 264.804 160.549C264.659 160.385 264.587 160.196 264.587 159.983C264.587 159.761 264.659 159.573 264.804 159.418C264.959 159.254 265.157 159.171 265.399 159.171H270.416V157.721H268.067C267.825 157.721 267.632 157.644 267.487 157.489C267.352 157.335 267.284 157.151 267.284 156.938C267.284 156.716 267.352 156.528 267.487 156.373C267.632 156.218 267.825 156.141 268.067 156.141H274.607C274.848 156.141 275.037 156.218 275.172 156.373C275.317 156.528 275.389 156.716 275.389 156.938C275.389 157.151 275.317 157.335 275.172 157.489C275.037 157.644 274.848 157.721 274.607 157.721H272.156V159.171H277.26C277.511 159.171 277.71 159.254 277.855 159.418C277.999 159.573 278.072 159.761 278.072 159.983C278.072 160.196 277.999 160.385 277.855 160.549C277.71 160.704 277.511 160.781 277.26 160.781H272.156V163.057C272.156 163.647 272.074 164.106 271.909 164.435C271.755 164.773 271.484 165.01 271.097 165.146C270.72 165.291 270.198 165.363 269.531 165.363ZM265.979 157.315C265.728 157.315 265.515 157.238 265.341 157.083C265.167 156.929 265.08 156.716 265.08 156.445V155.691C265.08 154.889 265.268 154.324 265.645 153.995C266.032 153.657 266.694 153.487 267.632 153.487H270.3V152.516C270.3 152.226 270.392 151.999 270.576 151.834C270.769 151.67 271.001 151.588 271.271 151.588C271.542 151.588 271.769 151.67 271.953 151.834C272.146 151.999 272.243 152.226 272.243 152.516V153.487H275.013C275.95 153.487 276.608 153.657 276.985 153.995C277.371 154.324 277.565 154.889 277.565 155.691V156.445C277.565 156.716 277.478 156.929 277.304 157.083C277.13 157.238 276.917 157.315 276.665 157.315C276.424 157.315 276.216 157.248 276.042 157.112C275.868 156.967 275.781 156.76 275.781 156.489V155.778C275.781 155.498 275.709 155.3 275.564 155.184C275.419 155.068 275.162 155.01 274.795 155.01H267.849C267.482 155.01 267.226 155.068 267.081 155.184C266.936 155.3 266.863 155.498 266.863 155.778V156.489C266.863 156.76 266.776 156.967 266.602 157.112C266.438 157.248 266.23 157.315 265.979 157.315ZM284.481 163.014C284.278 163.014 284.104 162.951 283.959 162.825C283.824 162.69 283.756 162.511 283.756 162.289V155.256C283.756 155.034 283.824 154.86 283.959 154.734C284.104 154.599 284.278 154.531 284.481 154.531C284.674 154.531 284.843 154.599 284.988 154.734C285.133 154.86 285.206 155.034 285.206 155.256V155.459C285.438 155.169 285.675 154.826 285.916 154.43C286.158 154.024 286.38 153.613 286.583 153.197C286.786 152.782 286.941 152.414 287.047 152.095C287.115 151.902 287.25 151.767 287.453 151.689C287.656 151.612 287.85 151.612 288.034 151.689C288.227 151.757 288.362 151.878 288.44 152.052C288.527 152.216 288.536 152.395 288.468 152.588C288.43 152.695 288.386 152.806 288.338 152.922C288.29 153.028 288.241 153.139 288.193 153.255H292.601C292.794 153.255 292.959 153.323 293.094 153.458C293.229 153.594 293.297 153.758 293.297 153.951C293.297 154.145 293.229 154.309 293.094 154.444C292.959 154.58 292.794 154.647 292.601 154.647H291.745C291.359 155.372 290.9 156.015 290.368 156.576C291.132 157.001 291.949 157.315 292.819 157.518C293.041 157.576 293.205 157.697 293.311 157.881C293.418 158.055 293.437 158.253 293.369 158.475C293.302 158.717 293.162 158.877 292.949 158.954C292.736 159.031 292.514 159.036 292.282 158.968C291.741 158.814 291.209 158.62 290.687 158.388C290.175 158.156 289.687 157.886 289.222 157.576C288.816 157.866 288.372 158.127 287.888 158.359C287.415 158.591 286.898 158.79 286.337 158.954C286.086 159.022 285.868 159.026 285.684 158.968C285.501 158.901 285.37 158.765 285.293 158.562C285.225 158.359 285.235 158.166 285.322 157.982C285.419 157.799 285.593 157.673 285.844 157.605C286.269 157.489 286.666 157.349 287.033 157.185C287.4 157.021 287.739 156.842 288.048 156.648C287.661 156.3 287.308 155.919 286.989 155.503C286.893 155.648 286.796 155.788 286.7 155.923C286.603 156.059 286.506 156.18 286.409 156.286C286.284 156.45 286.115 156.552 285.902 156.59C285.689 156.629 285.496 156.59 285.322 156.474C285.303 156.455 285.283 156.436 285.264 156.416C285.245 156.397 285.225 156.373 285.206 156.344V162.289C285.206 162.511 285.133 162.69 284.988 162.825C284.843 162.951 284.674 163.014 284.481 163.014ZM282.407 165.32C282.195 165.32 282.011 165.247 281.856 165.102C281.702 164.967 281.624 164.783 281.624 164.551V157.953C281.547 158.079 281.47 158.205 281.392 158.33C281.315 158.446 281.238 158.558 281.16 158.664C281.035 158.848 280.856 158.964 280.624 159.012C280.402 159.051 280.194 159.007 280 158.881C279.836 158.765 279.735 158.601 279.696 158.388C279.657 158.166 279.701 157.968 279.826 157.794C280.078 157.456 280.334 157.054 280.595 156.59C280.866 156.117 281.122 155.629 281.363 155.126C281.615 154.614 281.837 154.121 282.03 153.647C282.224 153.164 282.374 152.743 282.48 152.385C282.548 152.163 282.683 152.004 282.886 151.907C283.089 151.801 283.297 151.781 283.509 151.849C283.732 151.907 283.891 152.033 283.988 152.226C284.094 152.41 284.114 152.613 284.046 152.835C283.94 153.164 283.809 153.516 283.654 153.893C283.509 154.261 283.35 154.638 283.176 155.024V164.551C283.176 164.783 283.099 164.967 282.944 165.102C282.799 165.247 282.62 165.32 282.407 165.32ZM286.148 165.276C285.887 165.315 285.66 165.286 285.467 165.189C285.283 165.092 285.167 164.918 285.119 164.667C285.071 164.445 285.109 164.251 285.235 164.087C285.37 163.923 285.564 163.821 285.815 163.782C286.588 163.657 287.366 163.459 288.149 163.188C288.942 162.917 289.687 162.603 290.383 162.245C291.078 161.878 291.663 161.496 292.137 161.1C292.301 160.965 292.49 160.907 292.702 160.926C292.925 160.936 293.099 161.023 293.224 161.187C293.341 161.342 293.389 161.52 293.369 161.723C293.36 161.926 293.278 162.096 293.123 162.231C292.591 162.695 291.949 163.125 291.195 163.522C290.45 163.918 289.643 164.266 288.773 164.566C287.903 164.865 287.028 165.102 286.148 165.276ZM286.641 163.014C286.11 163.149 285.776 162.995 285.641 162.55C285.573 162.347 285.593 162.163 285.699 161.999C285.815 161.835 285.979 161.728 286.192 161.68C286.714 161.564 287.25 161.4 287.801 161.187C288.352 160.965 288.879 160.718 289.382 160.447C289.885 160.167 290.315 159.892 290.672 159.621C290.837 159.486 291.016 159.432 291.209 159.461C291.412 159.481 291.567 159.568 291.673 159.722C291.808 159.896 291.861 160.075 291.832 160.259C291.804 160.443 291.712 160.592 291.557 160.708C291.17 161.018 290.706 161.322 290.165 161.622C289.633 161.912 289.063 162.178 288.454 162.419C287.845 162.661 287.241 162.859 286.641 163.014ZM286.554 160.998C286.322 161.066 286.11 161.076 285.916 161.027C285.733 160.969 285.602 160.824 285.525 160.592C285.457 160.37 285.477 160.186 285.583 160.041C285.689 159.887 285.834 159.78 286.018 159.722C286.53 159.568 287.067 159.365 287.627 159.113C288.198 158.862 288.686 158.601 289.092 158.33C289.285 158.214 289.474 158.176 289.658 158.214C289.851 158.253 289.996 158.355 290.092 158.519C290.189 158.683 290.223 158.852 290.194 159.026C290.165 159.191 290.068 159.326 289.904 159.432C289.459 159.722 288.933 160.008 288.323 160.288C287.714 160.568 287.125 160.805 286.554 160.998ZM289.194 155.764C289.368 155.59 289.532 155.411 289.686 155.227C289.841 155.034 289.986 154.841 290.122 154.647H288.091C288.401 155.044 288.768 155.416 289.194 155.764Z" fill="#584438"/>
<path d="M503.302 24.8036C493.952 24.8036 487.082 29.3036 484.192 31.4736C476.692 25.1436 469.802 22.1236 467.302 24.2136C465.012 26.1336 466.302 32.4436 466.972 35.6936C467.582 38.7036 468.532 41.1236 469.302 42.8036C469.625 44.9153 470.676 50.6299 474.434 56.6911C474.263 60.6805 473.959 65.3529 473.422 70.5334C472.618 78.322 471.691 83.384 470.895 87.7297C470.019 92.5121 469.302 96.4269 469.082 102.153C468.829 108.772 469.625 112.729 470.741 118.276C471.521 122.157 472.458 126.818 473.302 133.713H552.952V118.276C543.002 76.3132 535.684 75.7884 526.72 51.7889C529.468 41.7878 526.541 33.4194 525.862 31.5836C523.702 24.2136 523.602 20.1136 523.972 17.6936C524.008 17.4563 524.047 17.2116 524.086 16.963C524.403 14.9699 524.76 12.726 523.702 12.0236C522.732 11.3836 520.992 12.3036 519.592 13.2436C518.592 13.4136 515.902 14.0136 513.742 16.3536C510.172 20.2136 511.182 25.3736 511.302 25.9136C509.112 25.3036 506.412 24.8036 503.302 24.8036Z" fill="#FFE999"/>
<path d="M494.872 38.5731C494.872 40.3031 493.732 41.7031 492.322 41.7031C490.912 41.7031 489.772 40.3031 489.772 38.5731C489.772 36.8431 490.912 35.4431 492.322 35.4431C493.732 35.4431 494.872 36.8431 494.872 38.5731Z" fill="#3B1A54"/>
<path d="M515.122 33.8031C515.122 35.5331 513.982 36.9331 512.572 36.9331C511.162 36.9331 510.022 35.5331 510.022 33.8031C510.022 32.0731 511.162 30.6731 512.572 30.6731C513.982 30.6731 515.122 32.0731 515.122 33.8031Z" fill="#3B1A54"/>
<path d="M508.122 40.2731C508.062 40.4931 507.382 40.2131 506.842 40.6231C505.732 41.4431 506.592 43.9931 506.122 44.1331C505.832 44.2231 505.522 43.2431 504.562 42.2931C503.032 40.7731 501.462 40.8931 501.442 40.2731C501.422 39.6131 503.162 38.8131 504.792 38.8331C506.622 38.8631 508.232 39.9231 508.142 40.2731H508.122Z" fill="#3B1A54"/>
<path d="M504.532 47.6233C504.092 47.6233 503.672 47.3733 503.482 46.9433C503.222 46.3633 503.482 45.6833 504.072 45.4233C504.322 45.3133 504.652 45.1033 504.852 44.7233C505.252 43.9633 504.732 43.0733 504.732 43.0633C504.412 42.5233 504.572 41.8133 505.102 41.4833C505.642 41.1533 506.322 41.3033 506.672 41.8233C507.112 42.5033 507.722 44.2033 506.892 45.7833C506.492 46.5433 505.842 47.1433 505.002 47.5133C504.852 47.5833 504.692 47.6133 504.532 47.6133V47.6233Z" fill="#3B1A54"/>
<path d="M509.042 46.0633C508.492 46.0333 506.852 45.8133 505.702 44.3333C504.622 42.9333 504.742 41.3933 504.802 40.9533C504.892 40.3233 505.472 39.8833 506.102 39.9733C506.732 40.0633 507.172 40.6433 507.082 41.2733C507.062 41.4233 506.982 42.2233 507.522 42.9133C508.102 43.6533 508.952 43.7434 509.122 43.7534C509.752 43.7933 510.242 44.3433 510.192 44.9733C510.152 45.5833 509.652 46.0534 509.042 46.0534V46.0633Z" fill="#3B1A54"/>
<path d="M481.282 37.3332C480.692 37.3332 480.182 36.8832 480.132 36.2832C480.022 35.0532 479.662 33.9332 479.052 32.9432C476.702 29.1632 471.642 29.0532 471.082 29.0532C470.452 29.0532 469.932 28.5332 469.932 27.9032C469.932 27.2732 470.452 26.7532 471.082 26.7532C471.782 26.7532 478.002 26.8932 481.012 31.7332C481.822 33.0332 482.302 34.4932 482.442 36.0932C482.492 36.7232 482.032 37.2832 481.392 37.3432C481.362 37.3432 481.322 37.3432 481.292 37.3432L481.282 37.3332Z" fill="#3B1A54"/>
<path d="M514.842 27.7931C514.762 27.7931 514.692 27.7931 514.612 27.7731C513.992 27.6431 513.582 27.0331 513.712 26.4131C514.472 22.6731 516.202 19.4031 518.732 16.9531C519.592 16.1131 520.562 15.3531 521.602 14.7031C522.142 14.3731 522.852 14.5331 523.192 15.0731C523.522 15.6131 523.362 16.3231 522.822 16.6531C521.922 17.2131 521.082 17.8631 520.342 18.5931C518.152 20.7231 516.642 23.5831 515.982 26.8631C515.872 27.4131 515.392 27.7831 514.852 27.7831L514.842 27.7931Z" fill="#3B1A54"/>
<path d="M483.212 52.8133C482.772 52.8133 482.362 52.5633 482.162 52.1433C481.892 51.5633 482.162 50.8832 482.732 50.6132L495.532 44.7532C496.112 44.4932 496.792 44.7432 497.062 45.3232C497.332 45.9032 497.062 46.5833 496.492 46.8533L483.692 52.7133C483.532 52.7833 483.372 52.8133 483.212 52.8133Z" fill="#3B1A54"/>
<path d="M491.662 55.0734C491.392 55.0734 491.132 54.9834 490.912 54.8034C490.422 54.3934 490.372 53.6634 490.782 53.1834L493.992 49.4134C494.412 48.9234 495.142 48.8734 495.612 49.2834C496.102 49.6934 496.152 50.4234 495.742 50.9034L492.532 54.6734C492.302 54.9434 491.982 55.0734 491.652 55.0734H491.662Z" fill="#3B1A54"/>
<path d="M496.942 56.5731C496.722 56.5731 496.512 56.5131 496.322 56.3931C495.782 56.0531 495.632 55.3331 495.972 54.8031L499.142 49.8631C499.492 49.3231 500.212 49.1731 500.732 49.5131C501.272 49.8531 501.422 50.5731 501.082 51.1031L497.912 56.0431C497.692 56.3831 497.322 56.5731 496.942 56.5731Z" fill="#3B1A54"/>
<path d="M532.662 41.3631C532.612 41.3631 511.522 40.3431 511.522 40.3431C510.882 40.3131 510.392 39.7731 510.422 39.1331C510.452 38.5031 511.022 37.9831 511.632 38.0431L532.712 39.0631C533.352 39.0931 533.842 39.6331 533.812 40.2731C533.782 40.8931 533.272 41.3731 532.662 41.3731V41.3631Z" fill="#3B1A54"/>
<path d="M540.272 47.6231C540.082 47.6031 516.482 43.5931 516.482 43.5931C515.852 43.4831 515.432 42.8931 515.542 42.2631C515.642 41.6331 516.212 41.2031 516.872 41.3231L540.462 45.3431C541.092 45.4531 541.512 46.0431 541.402 46.6731C541.312 47.2331 540.822 47.6331 540.272 47.6331V47.6231Z" fill="#3B1A54"/>
<path d="M529.562 49.8831C529.472 49.8831 529.382 49.8831 529.302 49.8531L517.172 47.0031C516.552 46.8631 516.162 46.2331 516.312 45.6231C516.452 45.0031 517.082 44.6031 517.692 44.7631L529.822 47.6131C530.442 47.7531 530.832 48.3731 530.682 48.9931C530.562 49.5231 530.082 49.8831 529.562 49.8831Z" fill="#3B1A54"/>
<path d="M551.064 106.059H422.595V190.102H551.064V106.059Z" fill="#FFC876"/>
<path d="M551.077 189.956L597.369 167.517V88.9939L551.077 111.433V189.956Z" fill="#FFC876"/>
<path d="M536.972 134.5H408.144L422.249 106.059H551.077L536.972 134.5Z" fill="#FFC876"/>
<path d="M551.077 106.06L561.331 127.394L607.38 100.461L597.369 83.6208L551.077 106.06Z" fill="#FFC876"/>
<path d="M423.019 106.298C439.793 106.746 456.58 107.179 473.354 107.627C481.683 107.851 490.038 108.284 498.368 108.18C502.5 108.135 506.594 107.702 510.701 107.314C514.834 106.925 518.966 106.761 523.112 106.761C532.468 106.776 541.836 107.194 551.192 107.463C552.052 107.493 552.052 105.94 551.192 105.91C542.85 105.671 534.521 105.373 526.179 105.238C522.098 105.179 518.004 105.194 513.922 105.492C509.828 105.776 505.76 106.328 501.666 106.537C493.35 106.94 484.982 106.373 476.678 106.164C468.246 105.94 459.827 105.716 451.395 105.507C441.936 105.253 432.465 105.014 423.006 104.761C422.146 104.731 422.146 106.283 423.006 106.313L423.019 106.298Z" fill="#3B1A54"/>
<path d="M551.539 107.358C566.953 99.7295 582.251 91.8019 597.741 84.3671C598.524 83.9938 598.178 82.486 597.382 82.8741C581.789 90.3538 566.375 98.3261 550.859 106.015C550.076 106.403 550.756 107.747 551.526 107.358H551.539Z" fill="#3B1A54"/>
<path d="M550.718 107.329C551.744 109.091 552.655 110.927 553.592 112.748C554.465 114.435 555.44 116.048 556.39 117.675C558.315 121.004 559.997 124.468 561.421 128.126C561.78 129.036 562.923 128.245 562.576 127.349C561.152 123.706 559.458 120.228 557.545 116.899C556.596 115.256 555.633 113.659 554.747 111.972C553.798 110.151 552.899 108.314 551.873 106.553C551.398 105.731 550.243 106.508 550.718 107.329Z" fill="#3B1A54"/>
<path d="M562.332 128.409C577.733 119.899 592.8 110.568 607.675 100.849C608.419 100.357 607.752 99.0278 607.008 99.5055C592.133 109.225 577.066 118.556 561.665 127.065C560.895 127.498 561.562 128.827 562.332 128.409Z" fill="#3B1A54"/>
<path d="M550.718 106.553C545.238 115.57 540.887 125.423 536.729 135.322C536.356 136.217 537.499 137.009 537.884 136.098C542.029 126.2 546.393 116.346 551.873 107.329C552.373 106.508 551.218 105.731 550.718 106.553Z" fill="#3B1A54"/>
<path d="M408.645 135.082C425.355 135.068 442.065 135.127 458.775 135.262C475.485 135.396 492.194 135.62 508.904 135.904C518.363 136.068 527.834 136.262 537.293 136.471C538.153 136.486 538.153 134.933 537.293 134.918C520.583 134.545 503.873 134.231 487.163 134.008C470.454 133.784 453.744 133.634 437.034 133.56C427.575 133.515 418.104 133.5 408.645 133.515C407.785 133.515 407.785 135.068 408.645 135.068V135.082Z" fill="#3B1A54"/>
<path d="M439.575 125.11C451.01 121.303 462.548 117.988 474.201 115.197C475.035 115.003 474.689 113.495 473.842 113.704C462.201 116.495 450.651 119.795 439.216 123.617C438.394 123.886 438.741 125.393 439.575 125.11Z" fill="#3C3544"/>
<path d="M460.289 123.542C464.306 122.393 468.336 121.258 472.353 120.108C473.187 119.869 472.828 118.377 471.994 118.615C467.977 119.765 463.947 120.9 459.93 122.049C459.096 122.288 459.455 123.781 460.289 123.542Z" fill="#3C3544"/>
<path d="M550.471 107.416C550.426 131.77 550.044 156.124 550 180.496C550 181.776 551.529 181.776 551.529 180.496C551.574 156.143 551.956 131.789 552 107.416C552 106.136 550.471 106.136 550.471 107.416Z" fill="#3B1A54"/>
<path d="M469.863 165.218C469.641 165.218 469.452 165.146 469.297 165.001C469.143 164.856 469.065 164.662 469.065 164.421V154.285C469.065 153.754 469.128 153.343 469.254 153.053C469.38 152.753 469.612 152.545 469.95 152.429C470.288 152.313 470.776 152.255 471.414 152.255C472.072 152.255 472.579 152.333 472.937 152.487C473.295 152.632 473.522 152.85 473.618 153.14C473.676 152.985 473.773 152.864 473.908 152.777C474.044 152.681 474.194 152.632 474.358 152.632H481.391C481.613 152.632 481.796 152.71 481.941 152.864C482.096 153.009 482.174 153.188 482.174 153.401C482.174 153.613 482.096 153.797 481.941 153.952C481.796 154.106 481.613 154.184 481.391 154.184H480.825V162.753C480.825 163.633 480.627 164.247 480.231 164.595C479.834 164.952 479.196 165.131 478.316 165.131C478.036 165.131 477.809 165.049 477.635 164.885C477.461 164.73 477.364 164.517 477.345 164.247C477.335 163.995 477.413 163.778 477.577 163.594C477.751 163.411 478.002 163.304 478.331 163.275C478.669 163.256 478.892 163.203 478.998 163.116C479.104 163.029 479.158 162.855 479.158 162.594V154.184H474.358C474.203 154.184 474.063 154.145 473.938 154.068C473.821 153.99 473.73 153.889 473.662 153.763C473.633 153.986 473.56 154.227 473.444 154.488C473.319 154.817 473.183 155.136 473.038 155.445C472.903 155.755 472.773 156.04 472.647 156.301C472.521 156.581 472.463 156.789 472.473 156.924C472.492 157.06 472.594 157.238 472.777 157.461C473.058 157.809 473.266 158.195 473.401 158.621C473.536 159.046 473.604 159.496 473.604 159.969C473.604 160.772 473.411 161.361 473.024 161.738C472.647 162.106 472.091 162.323 471.356 162.391C471.057 162.41 470.83 162.362 470.675 162.246V164.421C470.675 164.662 470.593 164.856 470.428 165.001C470.274 165.146 470.085 165.218 469.863 165.218ZM476.084 161.419C475.552 161.419 475.126 161.356 474.808 161.231C474.498 161.105 474.276 160.883 474.141 160.564C474.005 160.235 473.938 159.771 473.938 159.172V157.736C473.938 157.185 474.005 156.76 474.141 156.46C474.276 156.161 474.498 155.953 474.808 155.837C475.126 155.711 475.552 155.648 476.084 155.648C476.615 155.648 477.036 155.711 477.345 155.837C477.654 155.953 477.877 156.17 478.012 156.489C478.147 156.799 478.215 157.243 478.215 157.823V159.244C478.215 159.815 478.147 160.259 478.012 160.578C477.877 160.897 477.654 161.12 477.345 161.245C477.036 161.361 476.615 161.419 476.084 161.419ZM470.675 160.912C470.723 160.873 470.776 160.844 470.834 160.825C470.902 160.796 470.97 160.776 471.037 160.767C471.385 160.709 471.622 160.598 471.748 160.433C471.883 160.269 471.951 159.964 471.951 159.52C471.951 159.201 471.888 158.891 471.762 158.592C471.637 158.292 471.472 158.012 471.269 157.751C471.105 157.528 470.994 157.35 470.936 157.214C470.878 157.069 470.863 156.915 470.892 156.75C470.931 156.586 470.999 156.368 471.095 156.098C471.153 155.943 471.221 155.759 471.298 155.547C471.385 155.334 471.468 155.121 471.545 154.909C471.632 154.686 471.704 154.503 471.762 154.358C471.849 154.126 471.859 153.966 471.791 153.879C471.724 153.792 471.555 153.749 471.284 153.749C471.042 153.749 470.878 153.787 470.791 153.865C470.714 153.942 470.675 154.092 470.675 154.314V160.912ZM476.084 159.911C476.306 159.911 476.461 159.873 476.548 159.795C476.635 159.718 476.678 159.558 476.678 159.317V157.751C476.678 157.509 476.635 157.35 476.548 157.272C476.461 157.195 476.306 157.156 476.084 157.156C475.861 157.156 475.707 157.195 475.619 157.272C475.532 157.35 475.489 157.509 475.489 157.751V159.317C475.489 159.558 475.532 159.718 475.619 159.795C475.707 159.873 475.861 159.911 476.084 159.911ZM492.338 164.812C492.164 164.957 491.966 165.025 491.743 165.015C491.521 165.015 491.333 164.933 491.178 164.769C491.033 164.614 490.97 164.435 490.989 164.232C491.009 164.029 491.096 163.86 491.25 163.725C491.792 163.261 492.27 162.792 492.686 162.318C493.102 161.845 493.469 161.352 493.788 160.839C493.392 159.902 493.087 158.891 492.874 157.809C492.662 156.716 492.526 155.498 492.468 154.155H492.207C492.005 154.155 491.83 154.082 491.685 153.937C491.54 153.792 491.468 153.623 491.468 153.43C491.468 153.227 491.54 153.053 491.685 152.908C491.83 152.763 492.005 152.69 492.207 152.69H494.614C495.243 152.69 495.731 152.758 496.079 152.893C496.437 153.019 496.678 153.251 496.804 153.589C496.939 153.918 496.978 154.392 496.92 155.01C496.823 156.151 496.654 157.209 496.413 158.186C496.171 159.152 495.847 160.051 495.441 160.883C495.982 161.878 496.659 162.782 497.471 163.594C497.635 163.759 497.713 163.957 497.703 164.189C497.693 164.421 497.606 164.614 497.442 164.769C497.258 164.923 497.046 164.996 496.804 164.986C496.562 164.977 496.364 164.88 496.21 164.696C495.572 163.942 495.021 163.174 494.556 162.391C493.948 163.27 493.208 164.078 492.338 164.812ZM487.669 165.189C487.05 165.189 486.567 165.122 486.219 164.986C485.881 164.861 485.644 164.653 485.508 164.363C485.373 164.082 485.305 163.705 485.305 163.232V161.709C485.305 161.458 485.32 161.236 485.349 161.042C485.388 160.839 485.45 160.665 485.537 160.52C485.412 160.617 485.281 160.714 485.146 160.81C485.02 160.897 484.899 160.979 484.783 161.057C484.6 161.182 484.406 161.231 484.203 161.202C484 161.173 483.846 161.076 483.739 160.912C483.643 160.738 483.609 160.559 483.638 160.375C483.677 160.182 483.788 160.037 483.971 159.94C484.455 159.65 484.957 159.312 485.479 158.925C486.001 158.529 486.441 158.176 486.799 157.867C487.224 157.499 487.601 157.321 487.93 157.33C488.268 157.33 488.665 157.524 489.119 157.91C489.322 158.075 489.568 158.273 489.858 158.505C490.158 158.727 490.467 158.945 490.786 159.157C491.115 159.37 491.415 159.549 491.685 159.694C491.869 159.79 491.99 159.935 492.048 160.129C492.116 160.322 492.096 160.506 491.99 160.68C491.874 160.883 491.71 161.004 491.497 161.042C491.294 161.071 491.101 161.028 490.917 160.912C490.83 160.854 490.733 160.791 490.627 160.723C490.53 160.646 490.429 160.573 490.322 160.506C490.419 160.651 490.482 160.825 490.511 161.028C490.55 161.231 490.569 161.458 490.569 161.709V163.232C490.569 163.705 490.501 164.082 490.366 164.363C490.231 164.653 489.989 164.861 489.641 164.986C489.303 165.122 488.824 165.189 488.205 165.189H487.669ZM484.74 156.852C484.547 156.852 484.382 156.789 484.247 156.663C484.112 156.538 484.044 156.368 484.044 156.156V155.779C484.044 155.363 484.102 155.034 484.218 154.793C484.344 154.551 484.561 154.377 484.87 154.271C485.189 154.164 485.634 154.111 486.204 154.111H487.089V152.299C487.089 152.076 487.161 151.898 487.306 151.762C487.451 151.627 487.625 151.559 487.828 151.559C488.041 151.559 488.22 151.627 488.365 151.762C488.51 151.898 488.582 152.076 488.582 152.299V152.429H490.728C490.893 152.429 491.033 152.487 491.149 152.603C491.265 152.719 491.323 152.859 491.323 153.024C491.323 153.178 491.265 153.319 491.149 153.444C491.033 153.56 490.893 153.618 490.728 153.618H488.582V154.111H489.597C490.177 154.111 490.622 154.164 490.931 154.271C491.25 154.377 491.468 154.551 491.584 154.793C491.71 155.034 491.773 155.363 491.773 155.779V156.141C491.773 156.354 491.705 156.523 491.57 156.649C491.434 156.774 491.27 156.837 491.076 156.837C490.883 156.837 490.719 156.774 490.583 156.649C490.448 156.523 490.38 156.354 490.38 156.141V155.808C490.38 155.518 490.327 155.334 490.221 155.257C490.115 155.17 489.907 155.126 489.597 155.126H486.204C485.905 155.126 485.702 155.17 485.595 155.257C485.489 155.334 485.436 155.518 485.436 155.808V156.156C485.436 156.368 485.368 156.538 485.233 156.663C485.098 156.789 484.933 156.852 484.74 156.852ZM484.972 158.708C484.817 158.804 484.653 158.838 484.479 158.809C484.305 158.771 484.165 158.674 484.058 158.519C483.962 158.374 483.933 158.22 483.971 158.055C484.01 157.891 484.107 157.76 484.261 157.664C484.387 157.586 484.537 157.485 484.711 157.359C484.895 157.234 485.073 157.108 485.247 156.982C485.431 156.847 485.581 156.736 485.697 156.649C485.774 156.591 485.866 156.552 485.972 156.533C485.818 156.426 485.74 156.281 485.74 156.098C485.74 155.933 485.794 155.798 485.9 155.692C486.016 155.585 486.151 155.532 486.306 155.532H489.51C489.675 155.532 489.81 155.585 489.916 155.692C490.023 155.798 490.076 155.933 490.076 156.098C490.076 156.281 489.999 156.426 489.844 156.533C489.95 156.552 490.042 156.591 490.119 156.649C490.322 156.794 490.574 156.958 490.873 157.142C491.173 157.325 491.415 157.466 491.598 157.562C491.753 157.64 491.855 157.765 491.903 157.939C491.951 158.104 491.932 158.268 491.845 158.432C491.748 158.587 491.613 158.688 491.439 158.737C491.265 158.785 491.101 158.761 490.946 158.664C490.704 158.519 490.443 158.355 490.163 158.171C489.883 157.978 489.617 157.775 489.365 157.562C489.249 157.456 489.187 157.325 489.177 157.171C489.177 157.006 489.225 156.866 489.322 156.75C489.351 156.721 489.394 156.687 489.452 156.649H486.451C486.48 156.668 486.504 156.692 486.523 156.721C486.63 156.847 486.673 156.992 486.654 157.156C486.644 157.311 486.586 157.441 486.48 157.548C486.296 157.722 486.055 157.925 485.755 158.157C485.465 158.379 485.204 158.563 484.972 158.708ZM494.658 159.041C494.88 158.452 495.054 157.828 495.18 157.171C495.306 156.504 495.393 155.788 495.441 155.025C495.47 154.657 495.422 154.421 495.296 154.314C495.17 154.208 494.929 154.155 494.571 154.155H493.889C493.918 155.092 493.996 155.967 494.122 156.779C494.247 157.591 494.426 158.345 494.658 159.041ZM486.306 159.926C486.47 159.868 486.664 159.829 486.886 159.81C487.118 159.781 487.379 159.766 487.669 159.766H488.205C488.495 159.766 488.752 159.781 488.974 159.81C489.206 159.829 489.409 159.868 489.583 159.926C489.351 159.752 489.129 159.578 488.916 159.404C488.703 159.23 488.515 159.075 488.35 158.94C488.147 158.766 487.993 158.684 487.886 158.693C487.78 158.693 487.63 158.785 487.437 158.969C487.282 159.104 487.108 159.259 486.915 159.433C486.722 159.597 486.519 159.761 486.306 159.926ZM486.813 162.724H489.061V162.231H486.813V162.724ZM487.669 164.116H488.205C488.515 164.116 488.727 164.082 488.843 164.015C488.969 163.957 489.037 163.817 489.046 163.594H486.828C486.847 163.817 486.915 163.957 487.031 164.015C487.147 164.082 487.36 164.116 487.669 164.116ZM486.828 161.347H489.046C489.037 161.124 488.969 160.984 488.843 160.926C488.727 160.868 488.515 160.839 488.205 160.839H487.669C487.36 160.839 487.147 160.868 487.031 160.926C486.915 160.984 486.847 161.124 486.828 161.347Z" fill="#584438"/>
<path d="M707.302 24.8036C697.952 24.8036 691.082 29.3036 688.192 31.4736C680.692 25.1436 673.802 22.1236 671.302 24.2136C669.012 26.1336 670.302 32.4436 670.972 35.6936C671.582 38.7036 672.532 41.1236 673.302 42.8036C673.625 44.9153 674.676 50.6299 678.434 56.6911C678.263 60.6805 677.959 65.3529 677.422 70.5334C676.618 78.322 675.691 83.384 674.895 87.7297C674.019 92.5121 673.302 96.4269 673.082 102.153C672.829 108.772 673.625 112.729 674.741 118.276C675.521 122.157 676.458 126.818 677.302 133.713H756.952V118.276C747.002 76.3132 739.684 75.7884 730.72 51.7889C733.468 41.7878 730.541 33.4194 729.862 31.5836C727.702 24.2136 727.602 20.1136 727.972 17.6936C728.008 17.4563 728.047 17.2116 728.086 16.963C728.403 14.9699 728.76 12.726 727.702 12.0236C726.732 11.3836 724.992 12.3036 723.592 13.2436C722.592 13.4136 719.902 14.0136 717.742 16.3536C714.172 20.2136 715.182 25.3736 715.302 25.9136C713.112 25.3036 710.412 24.8036 707.302 24.8036Z" fill="#90D7F5"/>
<path d="M698.872 38.5731C698.872 40.3031 697.732 41.7031 696.322 41.7031C694.912 41.7031 693.772 40.3031 693.772 38.5731C693.772 36.8431 694.912 35.4431 696.322 35.4431C697.732 35.4431 698.872 36.8431 698.872 38.5731Z" fill="#3B1A54"/>
<path d="M719.122 33.8031C719.122 35.5331 717.982 36.9331 716.572 36.9331C715.162 36.9331 714.022 35.5331 714.022 33.8031C714.022 32.0731 715.162 30.6731 716.572 30.6731C717.982 30.6731 719.122 32.0731 719.122 33.8031Z" fill="#3B1A54"/>
<path d="M712.122 40.2731C712.062 40.4931 711.382 40.2131 710.842 40.6231C709.732 41.4431 710.592 43.9931 710.122 44.1331C709.832 44.2231 709.522 43.2431 708.562 42.2931C707.032 40.7731 705.462 40.8931 705.442 40.2731C705.422 39.6131 707.162 38.8131 708.792 38.8331C710.622 38.8631 712.232 39.9231 712.142 40.2731H712.122Z" fill="#3B1A54"/>
<path d="M708.532 47.6233C708.092 47.6233 707.672 47.3733 707.482 46.9433C707.222 46.3633 707.482 45.6833 708.072 45.4233C708.322 45.3133 708.652 45.1033 708.852 44.7233C709.252 43.9633 708.732 43.0733 708.732 43.0633C708.412 42.5233 708.572 41.8133 709.102 41.4833C709.642 41.1533 710.322 41.3033 710.672 41.8233C711.112 42.5033 711.722 44.2033 710.892 45.7833C710.492 46.5433 709.842 47.1433 709.002 47.5133C708.852 47.5833 708.692 47.6133 708.532 47.6133V47.6233Z" fill="#3B1A54"/>
<path d="M713.042 46.0633C712.492 46.0333 710.852 45.8133 709.702 44.3333C708.622 42.9333 708.742 41.3933 708.802 40.9533C708.892 40.3233 709.472 39.8833 710.102 39.9733C710.732 40.0633 711.172 40.6433 711.082 41.2733C711.062 41.4233 710.982 42.2233 711.522 42.9133C712.102 43.6533 712.952 43.7434 713.122 43.7534C713.752 43.7933 714.242 44.3433 714.192 44.9733C714.152 45.5833 713.652 46.0534 713.042 46.0534V46.0633Z" fill="#3B1A54"/>
<path d="M685.282 37.3332C684.692 37.3332 684.182 36.8832 684.132 36.2832C684.022 35.0532 683.662 33.9332 683.052 32.9432C680.702 29.1632 675.642 29.0532 675.082 29.0532C674.452 29.0532 673.932 28.5332 673.932 27.9032C673.932 27.2732 674.452 26.7532 675.082 26.7532C675.782 26.7532 682.002 26.8932 685.012 31.7332C685.822 33.0332 686.302 34.4932 686.442 36.0932C686.492 36.7232 686.032 37.2832 685.392 37.3432C685.362 37.3432 685.322 37.3432 685.292 37.3432L685.282 37.3332Z" fill="#3B1A54"/>
<path d="M718.842 27.7931C718.762 27.7931 718.692 27.7931 718.612 27.7731C717.992 27.6431 717.582 27.0331 717.712 26.4131C718.472 22.6731 720.202 19.4031 722.732 16.9531C723.592 16.1131 724.562 15.3531 725.602 14.7031C726.142 14.3731 726.852 14.5331 727.192 15.0731C727.522 15.6131 727.362 16.3231 726.822 16.6531C725.922 17.2131 725.082 17.8631 724.342 18.5931C722.152 20.7231 720.642 23.5831 719.982 26.8631C719.872 27.4131 719.392 27.7831 718.852 27.7831L718.842 27.7931Z" fill="#3B1A54"/>
<path d="M687.212 52.8133C686.772 52.8133 686.362 52.5633 686.162 52.1433C685.892 51.5633 686.162 50.8832 686.732 50.6132L699.532 44.7532C700.112 44.4932 700.792 44.7432 701.062 45.3232C701.332 45.9032 701.062 46.5833 700.492 46.8533L687.692 52.7133C687.532 52.7833 687.372 52.8133 687.212 52.8133Z" fill="#3B1A54"/>
<path d="M695.662 55.0734C695.392 55.0734 695.132 54.9834 694.912 54.8034C694.422 54.3934 694.372 53.6634 694.782 53.1834L697.992 49.4134C698.412 48.9234 699.142 48.8734 699.612 49.2834C700.102 49.6934 700.152 50.4234 699.742 50.9034L696.532 54.6734C696.302 54.9434 695.982 55.0734 695.652 55.0734H695.662Z" fill="#3B1A54"/>
<path d="M700.942 56.5731C700.722 56.5731 700.512 56.5131 700.322 56.3931C699.782 56.0531 699.632 55.3331 699.972 54.8031L703.142 49.8631C703.492 49.3231 704.212 49.1731 704.732 49.5131C705.272 49.8531 705.422 50.5731 705.082 51.1031L701.912 56.0431C701.692 56.3831 701.322 56.5731 700.942 56.5731Z" fill="#3B1A54"/>
<path d="M736.662 41.3631C736.612 41.3631 715.522 40.3431 715.522 40.3431C714.882 40.3131 714.392 39.7731 714.422 39.1331C714.452 38.5031 715.022 37.9831 715.632 38.0431L736.712 39.0631C737.352 39.0931 737.842 39.6331 737.812 40.2731C737.782 40.8931 737.272 41.3731 736.662 41.3731V41.3631Z" fill="#3B1A54"/>
<path d="M744.272 47.6231C744.082 47.6031 720.482 43.5931 720.482 43.5931C719.852 43.4831 719.432 42.8931 719.542 42.2631C719.642 41.6331 720.212 41.2031 720.872 41.3231L744.462 45.3431C745.092 45.4531 745.512 46.0431 745.402 46.6731C745.312 47.2331 744.822 47.6331 744.272 47.6331V47.6231Z" fill="#3B1A54"/>
<path d="M733.562 49.8831C733.472 49.8831 733.382 49.8831 733.302 49.8531L721.172 47.0031C720.552 46.8631 720.162 46.2331 720.312 45.6231C720.452 45.0031 721.082 44.6031 721.692 44.7631L733.822 47.6131C734.442 47.7531 734.832 48.3731 734.682 48.9931C734.562 49.5231 734.082 49.8831 733.562 49.8831Z" fill="#3B1A54"/>
<path d="M755.064 106.059H626.595V190.102H755.064V106.059Z" fill="#FFC876"/>
<path d="M755.077 189.956L801.369 167.517V88.9939L755.077 111.433V189.956Z" fill="#FFC876"/>
<path d="M740.972 134.5H612.144L626.249 106.059H755.077L740.972 134.5Z" fill="#FFC876"/>
<path d="M755.077 106.06L765.331 127.394L811.38 100.461L801.369 83.6208L755.077 106.06Z" fill="#FFC876"/>
<path d="M627.019 106.298C643.793 106.746 660.58 107.179 677.354 107.627C685.683 107.851 694.038 108.284 702.368 108.18C706.5 108.135 710.594 107.702 714.701 107.314C718.834 106.925 722.966 106.761 727.112 106.761C736.468 106.776 745.836 107.194 755.192 107.463C756.052 107.493 756.052 105.94 755.192 105.91C746.85 105.671 738.521 105.373 730.179 105.238C726.098 105.179 722.004 105.194 717.922 105.492C713.828 105.776 709.76 106.328 705.666 106.537C697.35 106.94 688.982 106.373 680.678 106.164C672.246 105.94 663.827 105.716 655.395 105.507C645.936 105.253 636.465 105.014 627.006 104.761C626.146 104.731 626.146 106.283 627.006 106.313L627.019 106.298Z" fill="#3B1A54"/>
<path d="M755.539 107.358C770.953 99.7295 786.251 91.8019 801.741 84.3671C802.524 83.9938 802.178 82.486 801.382 82.8741C785.789 90.3538 770.375 98.3261 754.859 106.015C754.076 106.403 754.756 107.747 755.526 107.358H755.539Z" fill="#3B1A54"/>
<path d="M754.718 107.329C755.744 109.091 756.655 110.927 757.592 112.748C758.465 114.435 759.44 116.048 760.39 117.675C762.315 121.004 763.997 124.468 765.421 128.126C765.78 129.036 766.923 128.245 766.576 127.349C765.152 123.706 763.458 120.228 761.545 116.899C760.596 115.256 759.633 113.659 758.747 111.972C757.798 110.151 756.899 108.314 755.873 106.553C755.398 105.731 754.243 106.508 754.718 107.329Z" fill="#3B1A54"/>
<path d="M766.332 128.409C781.733 119.899 796.8 110.568 811.675 100.849C812.419 100.357 811.752 99.0278 811.008 99.5055C796.133 109.225 781.066 118.556 765.665 127.065C764.895 127.498 765.562 128.827 766.332 128.409Z" fill="#3B1A54"/>
<path d="M754.718 106.553C749.238 115.57 744.887 125.423 740.729 135.322C740.356 136.217 741.499 137.009 741.884 136.098C746.029 126.2 750.393 116.346 755.873 107.329C756.373 106.508 755.218 105.731 754.718 106.553Z" fill="#3B1A54"/>
<path d="M612.645 135.082C629.355 135.068 646.065 135.127 662.775 135.262C679.485 135.396 696.194 135.62 712.904 135.904C722.363 136.068 731.834 136.262 741.293 136.471C742.153 136.486 742.153 134.933 741.293 134.918C724.583 134.545 707.873 134.231 691.163 134.008C674.454 133.784 657.744 133.634 641.034 133.56C631.575 133.515 622.104 133.5 612.645 133.515C611.785 133.515 611.785 135.068 612.645 135.068V135.082Z" fill="#3B1A54"/>
<path d="M643.575 125.11C655.01 121.303 666.548 117.988 678.201 115.197C679.035 115.003 678.689 113.495 677.842 113.704C666.201 116.495 654.651 119.795 643.216 123.617C642.394 123.886 642.741 125.393 643.575 125.11Z" fill="#3C3544"/>
<path d="M664.289 123.542C668.306 122.393 672.336 121.258 676.353 120.108C677.187 119.869 676.828 118.377 675.994 118.615C671.977 119.765 667.947 120.9 663.93 122.049C663.096 122.288 663.455 123.781 664.289 123.542Z" fill="#3C3544"/>
<path d="M754.471 107.416C754.426 131.77 754.044 156.124 754 180.496C754 181.776 755.529 181.776 755.529 180.496C755.574 156.143 755.956 131.789 756 107.416C756 106.136 754.471 106.136 754.471 107.416Z" fill="#3B1A54"/>
<path d="M673.703 165.262C673.433 165.3 673.201 165.262 673.007 165.146C672.814 165.039 672.693 164.851 672.645 164.58C672.606 164.339 672.659 164.131 672.804 163.957C672.959 163.783 673.172 163.676 673.442 163.638C674.535 163.493 675.448 163.246 676.183 162.898C676.918 162.55 677.473 162.081 677.85 161.492H673.877C673.684 161.492 673.515 161.424 673.37 161.289C673.235 161.144 673.167 160.979 673.167 160.796C673.167 160.602 673.235 160.438 673.37 160.303C673.515 160.158 673.684 160.085 673.877 160.085H678.387C678.406 159.95 678.421 159.815 678.43 159.679C678.45 159.544 678.459 159.404 678.459 159.259H673.399C673.215 159.259 673.056 159.191 672.92 159.056C672.785 158.92 672.717 158.756 672.717 158.563C672.717 158.369 672.785 158.21 672.92 158.084C673.056 157.949 673.215 157.881 673.399 157.881H678.459V157.098H674.936C674.752 157.098 674.593 157.031 674.457 156.895C674.322 156.76 674.254 156.596 674.254 156.402C674.254 156.209 674.322 156.049 674.457 155.924C674.593 155.788 674.752 155.721 674.936 155.721H678.459V154.967H673.848C673.665 154.967 673.5 154.899 673.355 154.764C673.22 154.628 673.152 154.464 673.152 154.271C673.152 154.077 673.22 153.918 673.355 153.792C673.5 153.657 673.665 153.589 673.848 153.589H676.545L676.038 152.893C675.912 152.729 675.864 152.54 675.893 152.328C675.932 152.105 676.043 151.931 676.226 151.806C676.42 151.67 676.628 151.612 676.85 151.632C677.072 151.651 677.261 151.753 677.415 151.936C677.502 152.043 677.604 152.183 677.72 152.357C677.846 152.521 677.962 152.685 678.068 152.85C678.174 153.004 678.256 153.125 678.314 153.212C678.401 153.338 678.45 153.464 678.459 153.589H680.2C680.296 153.444 680.402 153.275 680.518 153.082C680.644 152.879 680.765 152.681 680.881 152.487C681.007 152.294 681.103 152.134 681.171 152.009C681.297 151.806 681.471 151.685 681.693 151.646C681.925 151.608 682.143 151.651 682.346 151.777C682.539 151.902 682.664 152.067 682.722 152.27C682.79 152.473 682.771 152.671 682.664 152.864C682.606 152.942 682.534 153.048 682.447 153.183C682.36 153.309 682.263 153.444 682.157 153.589H684.753C684.946 153.589 685.11 153.657 685.246 153.792C685.381 153.918 685.449 154.077 685.449 154.271C685.449 154.464 685.381 154.628 685.246 154.764C685.11 154.899 684.946 154.967 684.753 154.967H680.185V155.721H683.549C683.742 155.721 683.907 155.788 684.042 155.924C684.177 156.049 684.245 156.209 684.245 156.402C684.245 156.596 684.177 156.76 684.042 156.895C683.907 157.031 683.742 157.098 683.549 157.098H680.185V157.881H685.275C685.468 157.881 685.632 157.949 685.768 158.084C685.903 158.21 685.971 158.369 685.971 158.563C685.971 158.756 685.903 158.92 685.768 159.056C685.632 159.191 685.468 159.259 685.275 159.259H680.185C680.175 159.404 680.166 159.544 680.156 159.679C680.156 159.815 680.146 159.95 680.127 160.085H684.782C684.975 160.085 685.139 160.158 685.275 160.303C685.42 160.438 685.492 160.602 685.492 160.796C685.492 160.979 685.42 161.144 685.275 161.289C685.139 161.424 684.975 161.492 684.782 161.492H680.867C681.794 162.574 683.283 163.251 685.332 163.522C685.623 163.56 685.835 163.681 685.971 163.884C686.116 164.087 686.154 164.319 686.087 164.58C686.019 164.822 685.888 164.991 685.695 165.088C685.502 165.194 685.265 165.228 684.985 165.189C683.834 165.035 682.766 164.696 681.78 164.174C680.794 163.652 680.011 162.966 679.431 162.115C678.938 162.937 678.213 163.614 677.256 164.145C676.299 164.677 675.115 165.049 673.703 165.262ZM689.073 165.262C688.803 165.3 688.571 165.262 688.377 165.146C688.184 165.039 688.063 164.851 688.015 164.58C687.976 164.339 688.029 164.131 688.174 163.957C688.329 163.783 688.542 163.676 688.812 163.638C689.905 163.493 690.818 163.246 691.553 162.898C692.288 162.55 692.843 162.081 693.22 161.492H689.247C689.054 161.492 688.885 161.424 688.74 161.289C688.605 161.144 688.537 160.979 688.537 160.796C688.537 160.602 688.605 160.438 688.74 160.303C688.885 160.158 689.054 160.085 689.247 160.085H693.757C693.776 159.95 693.791 159.815 693.8 159.679C693.82 159.544 693.829 159.404 693.829 159.259H688.769C688.585 159.259 688.426 159.191 688.29 159.056C688.155 158.92 688.087 158.756 688.087 158.563C688.087 158.369 688.155 158.21 688.29 158.084C688.426 157.949 688.585 157.881 688.769 157.881H693.829V157.098H690.306C690.122 157.098 689.963 157.031 689.827 156.895C689.692 156.76 689.624 156.596 689.624 156.402C689.624 156.209 689.692 156.049 689.827 155.924C689.963 155.788 690.122 155.721 690.306 155.721H693.829V154.967H689.218C689.035 154.967 688.87 154.899 688.725 154.764C688.59 154.628 688.522 154.464 688.522 154.271C688.522 154.077 688.59 153.918 688.725 153.792C688.87 153.657 689.035 153.589 689.218 153.589H691.915L691.408 152.893C691.282 152.729 691.234 152.54 691.263 152.328C691.302 152.105 691.413 151.931 691.596 151.806C691.79 151.67 691.998 151.612 692.22 151.632C692.442 151.651 692.631 151.753 692.785 151.936C692.872 152.043 692.974 152.183 693.09 152.357C693.216 152.521 693.332 152.685 693.438 152.85C693.544 153.004 693.626 153.125 693.684 153.212C693.771 153.338 693.82 153.464 693.829 153.589H695.57C695.666 153.444 695.772 153.275 695.888 153.082C696.014 152.879 696.135 152.681 696.251 152.487C696.377 152.294 696.473 152.134 696.541 152.009C696.667 151.806 696.841 151.685 697.063 151.646C697.295 151.608 697.512 151.651 697.716 151.777C697.909 151.902 698.034 152.067 698.092 152.27C698.16 152.473 698.141 152.671 698.034 152.864C697.976 152.942 697.904 153.048 697.817 153.183C697.73 153.309 697.633 153.444 697.527 153.589H700.123C700.316 153.589 700.48 153.657 700.616 153.792C700.751 153.918 700.819 154.077 700.819 154.271C700.819 154.464 700.751 154.628 700.616 154.764C700.48 154.899 700.316 154.967 700.123 154.967H695.555V155.721H698.919C699.112 155.721 699.277 155.788 699.412 155.924C699.547 156.049 699.615 156.209 699.615 156.402C699.615 156.596 699.547 156.76 699.412 156.895C699.277 157.031 699.112 157.098 698.919 157.098H695.555V157.881H700.645C700.838 157.881 701.002 157.949 701.138 158.084C701.273 158.21 701.341 158.369 701.341 158.563C701.341 158.756 701.273 158.92 701.138 159.056C701.002 159.191 700.838 159.259 700.645 159.259H695.555C695.545 159.404 695.536 159.544 695.526 159.679C695.526 159.815 695.516 159.95 695.497 160.085H700.151C700.345 160.085 700.509 160.158 700.645 160.303C700.79 160.438 700.862 160.602 700.862 160.796C700.862 160.979 700.79 161.144 700.645 161.289C700.509 161.424 700.345 161.492 700.151 161.492H696.237C697.164 162.574 698.653 163.251 700.702 163.522C700.993 163.56 701.205 163.681 701.341 163.884C701.486 164.087 701.524 164.319 701.457 164.58C701.389 164.822 701.258 164.991 701.065 165.088C700.872 165.194 700.635 165.228 700.354 165.189C699.204 165.035 698.136 164.696 697.15 164.174C696.164 163.652 695.381 162.966 694.801 162.115C694.308 162.937 693.583 163.614 692.626 164.145C691.669 164.677 690.485 165.049 689.073 165.262Z" fill="#584438"/>
</svg>
