<svg width="1438" height="263" viewBox="0 0 1438 263" fill="none" xmlns="http://www.w3.org/2000/svg">
<g clip-path="url(#clip0_1085_3437)">
<path d="M307.001 174.842C307.791 178.98 310.062 193.544 302.559 208.932C295.786 222.814 285.098 229.082 281.372 231.04C280.122 235.583 278.865 240.132 277.614 244.675C281.451 250.325 284.966 252.546 287.526 253.519C288.579 253.916 290.56 254.519 291.969 256.464C293.272 258.267 293.509 260.439 293.509 261.993H270.072C263.589 252.844 257.106 243.688 250.623 234.54C253.953 228.642 257.29 222.743 260.627 216.852C262.819 200.272 265.01 183.685 267.202 167.105L307.014 174.842H307.001Z" fill="#FFE382"/>
<path d="M391.22 99.7847C396.222 104.526 398.795 110.672 400.105 113.788C401.691 117.571 402.56 120.936 403.067 123.37C409.727 121.482 415.486 123.143 416.737 126.316C418.362 130.432 412.255 136.721 409.444 139.091C407.516 140.717 405.686 141.731 403.975 142.533C395.597 146.458 387.653 146.501 385.296 146.466C376.51 146.331 355.482 146.004 349.525 133.441C345.543 125.038 352.816 120.68 352.033 101.013C351.434 86.058 346.794 77.6829 349.979 75.4613C353.211 73.2114 361.05 79.6773 364.558 83.3255C367.559 86.4484 369.487 89.6849 370.711 92.169C374.272 92.1548 383.677 92.6446 391.213 99.7847H391.22Z" fill="#FFE382"/>
<path d="M377.662 95.9805C380.176 89.8624 382.499 84.9296 384.27 81.3595C386.099 77.6617 386.784 76.5474 387.685 76.5687C390.246 76.6254 392.424 85.7174 392.813 92.5382C393.234 99.9694 391.588 105.995 390.305 109.615L377.662 95.9805Z" fill="#FFE382"/>
<path d="M390.305 139.468C390.647 146.864 391.18 175.751 371.85 199.535C356.693 218.187 337.843 223.205 325.719 226.435C316.018 229.018 288.461 234.803 260.107 220.906C249.326 215.618 236.018 208.712 232.083 194.006C228.463 180.478 233.939 164.423 243.357 154.941C259.159 139.035 278.727 148.993 314.781 140.568C334.664 135.919 349.821 127.956 358.865 122.512L390.305 139.461V139.468Z" fill="#FFE382"/>
<path d="M381.762 167.106C383.184 185.914 382.69 209.847 376.122 236.201C374.45 242.901 372.535 249.168 370.481 254.995C373.114 251.489 377.635 251.56 379.623 253.98C381.189 255.889 381.242 259.346 379.366 261.993H356.778C354.633 257.962 343.74 236.534 350.486 209.663C357.489 181.776 378.175 169.192 381.755 167.099L381.762 167.106Z" fill="#FFE382"/>
<path d="M345.734 184.239C344.102 199.96 341.173 217.491 336.164 236.2C334.401 242.772 332.505 249.039 330.524 254.994C333.13 252.233 337.112 252.446 339.047 254.81C340.522 256.613 340.712 259.558 339.409 261.993H316.821C314.722 244.547 312.629 227.108 310.529 209.662L345.728 184.231L345.734 184.239Z" fill="#FFE382"/>
<path d="M272.922 174.842C280.03 186.404 280.602 201.203 274.376 212.985C265.715 229.38 248.629 230.941 247.293 231.041C246.042 235.583 244.785 240.133 243.535 244.675C247.372 250.325 250.886 252.546 253.447 253.519C254.5 253.916 256.481 254.52 257.889 256.464C259.192 258.267 259.429 260.439 259.429 261.993H235.992C229.509 252.845 223.026 243.689 216.543 234.54C221.328 229.997 226.113 225.448 230.898 220.905C231.642 202.97 232.379 185.034 233.116 167.099L272.928 174.835L272.922 174.842Z" fill="#FFE382"/>
<path d="M257.257 156.296C244.759 158.247 233.195 149.95 230.371 138.119C226.508 121.922 240.889 107.003 250.189 107.408C261.127 107.883 265.254 129.573 273.198 128.047C278.22 127.082 282.156 117.33 280.714 109.374C279.214 101.069 272.25 96.9173 268.413 94.6319C253.131 85.5257 235.979 91.516 231.28 93.1556C229.147 93.9008 212.509 99.9905 201.662 117.479C198.681 122.284 195.996 126.614 195.508 132.959C194.706 143.477 200.57 151.441 207.586 160.966C217.03 173.791 222.309 180.96 230.141 180.619C241.883 180.115 249.004 163.187 249.504 161.945L257.251 156.296H257.257Z" fill="#FFE382"/>
<path d="M381.249 146.799C378.945 146.799 376.655 146.458 374.47 145.791C367.723 143.733 363.485 139.041 361.55 136.422C361.287 136.074 361.346 135.556 361.668 135.272C361.997 134.989 362.478 135.045 362.735 135.4C364.551 137.856 368.54 142.278 374.878 144.208C378.168 145.209 381.716 145.422 385.138 144.804C385.553 144.741 385.941 145.032 386.014 145.479C386.08 145.926 385.803 146.345 385.389 146.423C384.02 146.664 382.624 146.792 381.242 146.792L381.249 146.799Z" fill="#3B1A54"/>
<path d="M400.217 125.215C400.368 126.479 402.968 125.932 406.002 128.7C407.832 130.368 408.299 131.852 409.477 131.752C410.26 131.688 410.886 130.808 412.116 129.048C413.499 127.061 414.196 126.067 414.117 125.215C413.92 123.008 410.26 121.262 407.167 121.283C403.593 121.312 400.039 123.697 400.217 125.215Z" fill="#3B1A54"/>
<path d="M400.664 140.341C400.276 140.341 399.94 140.021 399.908 139.595C399.875 139.148 400.184 138.751 400.599 138.708C401.382 138.637 405.39 138.091 407.615 134.364C408.793 132.391 409.003 130.361 408.977 128.999C408.97 128.552 409.3 128.168 409.714 128.161C410.208 128.161 410.484 128.509 410.491 128.963C410.524 130.553 410.28 132.938 408.891 135.252C406.279 139.624 401.632 140.255 400.73 140.341C400.704 140.341 400.684 140.341 400.664 140.341Z" fill="#3B1A54"/>
<path d="M378.656 118.508C378.656 120.418 379.419 121.965 380.367 121.965C381.314 121.965 382.078 120.418 382.078 118.508C382.078 116.599 381.314 115.052 380.367 115.052C379.419 115.052 378.656 116.599 378.656 118.508Z" fill="#3B1A54"/>
<path d="M399.197 116.336C399.197 118.246 399.96 119.793 400.908 119.793C401.856 119.793 402.619 118.246 402.619 116.336C402.619 114.427 401.856 112.88 400.908 112.88C399.96 112.88 399.197 114.427 399.197 116.336Z" fill="#3B1A54"/>
<path d="M346.675 217.427C346.412 217.427 346.155 217.278 346.017 217.008C345.813 216.618 345.938 216.114 346.307 215.894C350.223 213.509 354.027 210.84 357.621 207.966C365.716 201.486 372.989 193.771 379.228 185.034C379.485 184.672 379.959 184.608 380.294 184.885C380.623 185.161 380.689 185.672 380.432 186.034C374.108 194.892 366.736 202.714 358.529 209.286C354.883 212.203 351.026 214.907 347.057 217.328C346.939 217.399 346.814 217.434 346.682 217.434L346.675 217.427Z" fill="#3B1A54"/>
<path d="M279.918 228.251C276.12 228.251 271.967 227.456 267.946 225.135C266.643 224.383 265.399 223.482 264.24 222.467C263.918 222.183 263.865 221.665 264.128 221.317C264.392 220.962 264.872 220.919 265.195 221.196C266.281 222.147 267.446 222.985 268.663 223.687C275.561 227.683 282.952 226.86 287.934 225.462C288.349 225.355 288.757 225.611 288.862 226.051C288.968 226.484 288.724 226.931 288.316 227.045C285.947 227.712 283.051 228.251 279.918 228.251Z" fill="#3B1A54"/>
<path d="M244.897 231.119C244.542 231.119 244.226 230.849 244.153 230.459C244.074 230.011 244.338 229.586 244.752 229.5C268.584 224.433 285.966 206.632 287.026 186.219C287.612 174.941 282.88 165.551 278.806 159.667C278.555 159.305 278.621 158.794 278.957 158.525C279.293 158.255 279.766 158.333 280.017 158.688C284.242 164.792 289.152 174.537 288.54 186.304C287.441 207.462 269.552 225.888 245.042 231.097C244.996 231.104 244.943 231.112 244.897 231.112V231.119Z" fill="#3B1A54"/>
<path d="M313.01 231.119C312.721 231.119 312.451 230.941 312.319 230.643L308.39 221.367C308.219 220.955 308.39 220.472 308.765 220.281C309.153 220.089 309.594 220.281 309.772 220.685L313.701 229.962C313.872 230.374 313.701 230.856 313.326 231.048C313.227 231.098 313.116 231.119 313.01 231.119Z" fill="#3B1A54"/>
<path d="M389.449 100.303C389.298 100.303 389.147 100.254 389.008 100.154C386.6 98.3088 383.987 96.8254 381.242 95.7395C377.3 94.1781 373.147 93.447 368.882 93.5748C368.454 93.6741 368.112 93.227 368.105 92.7798C368.092 92.3327 368.421 91.9494 368.842 91.9423C373.278 91.8004 377.642 92.574 381.769 94.2064C384.645 95.3421 387.376 96.8964 389.89 98.8199C390.233 99.0825 390.312 99.5935 390.068 99.9626C389.923 100.19 389.686 100.31 389.449 100.31V100.303Z" fill="#3B1A54"/>
<path d="M199.622 142.74L191.737 142.491C191.323 142.477 190.987 142.101 191 141.654C191.013 141.207 191.375 140.823 191.783 140.859L199.642 141.107C200.056 141.121 200.392 141.498 200.379 141.945C200.366 142.392 200.03 142.74 199.622 142.74Z" fill="#3B1A54"/>
<path d="M202.353 123.327C202.136 123.327 201.919 123.228 201.768 123.029L197.667 117.621C197.404 117.273 197.45 116.755 197.773 116.471C198.095 116.187 198.576 116.237 198.839 116.585L202.939 121.993C203.202 122.341 203.156 122.859 202.834 123.143C202.696 123.271 202.524 123.327 202.353 123.327Z" fill="#3B1A54"/>
<path d="M205.657 110.921C205.427 110.921 205.197 110.807 205.052 110.594L201.406 105.314C201.155 104.952 201.228 104.441 201.564 104.171C201.899 103.894 202.373 103.98 202.623 104.334L206.269 109.615C206.52 109.977 206.447 110.488 206.111 110.758C205.973 110.871 205.815 110.921 205.657 110.921Z" fill="#3B1A54"/>
</g>
<g clip-path="url(#clip1_1085_3437)">
<path d="M252.538 145.082C257.094 149.831 262.063 156.189 266.144 164.46C267.087 166.373 267.915 168.253 268.644 170.084C293.286 173.316 302.328 177.085 302.527 180.919C302.75 185.133 292.266 189.041 291.223 189.421C279.358 193.742 272.54 188.349 258.321 191.342C253.359 192.389 249.486 194.03 247.1 195.185C242.829 199.448 236.149 205.36 227.037 210.539C206.33 222.314 189.097 221.193 153.587 220.409C81.7404 218.818 66.4399 221.49 56.3316 207.249C49.5365 197.675 52.6887 192.051 42.3886 179.459C33.5151 168.608 24.6953 165.095 11.1895 150.211C10.5299 149.485 4.23333 142.393 0.989174 131.286C0.199225 128.598 -0.375981 126.586 0.291258 126.099C2.5614 124.425 13.2372 144.958 34.2207 158.242C36.1381 159.455 45.326 165.169 58.0266 168.847C80.3752 175.32 99.3953 171.362 106.996 169.943C128.186 165.977 161.364 162.819 217.512 163.363C219.13 160.329 223.019 153.987 230.435 149.469C240.106 143.581 249.486 144.603 252.538 145.082Z" fill="#AE80C4"/>
<path d="M187.801 215.585C184.695 223.468 181.596 231.351 178.49 239.235C179.679 243.712 180.868 248.19 182.064 252.667C182.478 252.56 186.558 251.579 189.588 253.929C190.815 254.877 192.448 256.823 191.881 258.06C191.244 259.454 187.594 260.485 173.007 258.06C170.414 256.007 160.582 247.753 161.656 237.165C161.778 235.961 162.047 234.658 162.545 233.265C160.636 227.756 158.718 222.24 156.809 216.731L187.793 215.585H187.801Z" fill="#AE80C4"/>
<path d="M212.665 214.324C209.559 222.207 206.46 230.091 203.354 237.974C204.543 242.452 205.732 246.929 206.928 251.407C207.342 251.3 211.422 250.318 214.452 252.668C215.679 253.617 217.313 255.563 216.745 256.8C216.108 258.193 212.458 259.224 197.871 256.8C195.278 254.746 185.446 246.492 186.52 235.904C186.643 234.7 186.911 233.397 187.41 232.004C185.5 226.495 183.583 220.979 181.673 215.47L212.657 214.324H212.665Z" fill="#AE80C4"/>
<path d="M87.3162 216.287C84.6165 229.398 77.7601 238.221 73.6416 242.715C74.8304 247.193 76.0191 251.67 77.2155 256.148C77.6297 256.041 81.7098 255.06 84.7392 257.41C85.9663 258.358 87.5999 260.304 87.0324 261.541C86.3958 262.935 82.7452 263.965 68.158 261.541C65.5657 259.488 55.7335 251.233 56.8072 240.645C56.93 239.442 57.1984 238.139 57.6969 236.745C55.7412 233.092 53.2333 227.468 51.9602 220.212C49.4216 205.765 51.5 183.352 61.6773 179.946C71.0263 176.821 85.859 190.171 88.0754 204.355C88.7887 208.931 88.0524 212.691 87.3085 216.287H87.3162Z" fill="#AE80C4"/>
<path d="M118.132 217.804C115.026 225.687 111.927 233.57 108.821 241.453C110.01 245.931 111.199 250.409 112.395 254.886C112.809 254.779 116.889 253.798 119.919 256.148C121.146 257.096 122.78 259.042 122.212 260.279C121.575 261.673 117.925 262.703 103.338 260.279C100.745 258.226 90.9131 249.972 91.9868 239.384C92.1095 238.18 92.378 236.877 92.8765 235.483C90.9668 229.975 89.0495 224.458 87.1398 218.95L118.124 217.804H118.132Z" fill="#AE80C4"/>
<path d="M293.708 174.924C293.339 175.608 297.159 177.34 298.639 181.768C299.276 183.681 299.038 184.794 299.713 185.058C301.101 185.603 304.598 181.834 303.923 179.344C303.601 178.165 301.722 177.422 297.972 175.988C295.74 175.138 293.961 174.47 293.715 174.924H293.708Z" fill="#3B1A54"/>
<path d="M255.13 167.47C255.13 169.894 256.411 171.857 257.999 171.857C259.586 171.857 260.867 169.894 260.867 167.47C260.867 165.046 259.579 163.083 257.999 163.083C256.419 163.083 255.13 165.046 255.13 167.47Z" fill="#3B1A54"/>
<path d="M228.464 185.512C227.129 185.512 225.749 185.281 224.345 184.729C216.668 181.694 215.004 171.626 214.935 171.205C214.851 170.686 215.173 170.199 215.656 170.109C216.162 170.001 216.592 170.372 216.676 170.884C216.737 171.271 218.225 180.292 224.951 182.948C230.535 185.158 235.78 181.406 238.603 179.394C248.082 172.64 250.168 160.37 250.628 155.406C250.674 154.886 251.127 154.499 251.595 154.556C252.078 154.606 252.438 155.076 252.385 155.595C251.902 160.823 249.685 173.77 239.577 180.977C237.337 182.577 233.211 185.52 228.449 185.52L228.464 185.512Z" fill="#3B1A54"/>
<path d="M285.118 190.088C281.268 190.088 277.448 189.511 273.713 188.357C268.483 186.749 263.659 184.085 259.395 180.449C259.011 180.119 258.95 179.525 259.249 179.113C259.556 178.7 260.108 178.635 260.491 178.956C264.579 182.436 269.188 184.984 274.204 186.526C279.136 188.043 284.236 188.53 289.328 187.936C289.835 187.903 290.249 188.266 290.302 188.785C290.348 189.305 290.003 189.775 289.512 189.833C288.048 189.998 286.583 190.08 285.118 190.08V190.088Z" fill="#3B1A54"/>
<path d="M186.627 224.994C185.109 224.994 183.59 224.912 182.079 224.738C181.596 224.681 181.243 224.219 181.289 223.691C181.343 223.172 181.796 222.776 182.263 222.842C184.817 223.13 187.417 223.172 189.971 222.949C195.785 222.438 201.414 220.64 206.721 217.581C207.151 217.342 207.688 217.507 207.918 217.968C208.148 218.43 207.987 219.007 207.557 219.255C202.043 222.429 196.176 224.31 190.117 224.837C188.959 224.936 187.793 224.986 186.635 224.986L186.627 224.994Z" fill="#3B1A54"/>
<path d="M105.063 221.918C102.885 221.918 100.699 221.786 98.5365 221.531C95.4534 221.168 92.3703 220.533 89.3715 219.642C88.9037 219.502 88.6276 218.974 88.7503 218.471C88.8807 217.977 89.3562 217.68 89.8394 217.803C92.7461 218.661 95.7371 219.279 98.7282 219.634C102.931 220.129 107.203 220.129 111.398 219.634C111.866 219.527 112.318 219.956 112.372 220.475C112.426 220.995 112.081 221.465 111.59 221.522C109.427 221.786 107.241 221.91 105.063 221.91V221.918Z" fill="#3B1A54"/>
<path d="M86.6029 220.244C86.3344 220.244 86.0737 220.112 85.905 219.873C85.6059 219.453 85.6825 218.859 86.066 218.537C89.4789 215.725 94.2033 210.778 97.3477 203.158C100.83 194.715 100.799 186.873 100.155 181.785C100.086 181.265 100.431 180.787 100.914 180.713C101.397 180.663 101.842 181.01 101.911 181.529C102.578 186.856 102.617 195.069 98.966 203.925C95.6681 211.908 90.7213 217.094 87.1474 220.038C86.9863 220.17 86.7946 220.236 86.6105 220.236L86.6029 220.244Z" fill="#3B1A54"/>
</g>
<path d="M1354.5 120.068C1361.78 136.572 1369.93 159.609 1374.04 188.003C1377.56 212.352 1377.1 233.57 1375.55 249.93C1372.01 249.324 1368.66 250.934 1367.32 253.703C1366.04 256.363 1367.12 259.05 1367.32 259.53H1389.95C1389.83 249.676 1390.66 236.701 1394.39 222.007C1397.24 210.841 1401.05 201.467 1404.67 194.074C1403.3 190.989 1401.93 187.903 1400.56 184.818C1402.45 170.603 1404.35 156.388 1406.25 142.173C1405.35 135.975 1404.23 129.451 1402.82 122.638C1401.41 115.797 1399.84 109.337 1398.2 103.274C1383.63 108.875 1369.07 114.467 1354.5 120.068Z" fill="#CF9A70"/>
<path d="M1252.54 61.8867C1253.09 70.4102 1254.55 82.9331 1258.83 97.4828C1263.12 112.069 1271.61 133.369 1276.69 132.437C1279.99 131.83 1278.3 122.583 1284.53 103.391C1288.22 92.0538 1290.39 90.398 1290.44 84.7609C1290.49 77.676 1287.15 68.8268 1275.27 58.5479L1252.53 61.8867H1252.54Z" fill="#CF9A70"/>
<path d="M1273.19 117.489C1271.48 162.378 1269.76 207.276 1268.05 252.165C1264.52 251.558 1261.17 253.169 1259.83 255.938C1258.54 258.598 1259.63 261.285 1259.83 261.765H1282.46C1282.64 251.739 1283.77 239.18 1287.24 225.101C1290.01 213.8 1293.64 204.154 1297.18 196.318C1295.81 193.233 1294.44 190.147 1293.06 187.062C1299.46 174.729 1305.86 162.387 1312.25 150.054C1315.57 145.485 1318.88 140.915 1322.19 136.346L1273.18 117.498L1273.19 117.489Z" fill="#CF9A70"/>
<path d="M1251.94 32.842C1248.77 40.3249 1243.79 55.5533 1249.88 70.5373C1253.17 78.6175 1259.95 87.2767 1263.76 86.1276C1268.35 84.7432 1266.21 69.913 1270.28 68.9901C1274.58 68.0128 1279.12 84.1189 1285.02 83.8927C1288.34 83.766 1292.56 78.4456 1297.02 57.3358C1294.79 49.7985 1292.56 42.2613 1290.33 34.715C1287.43 32.7605 1282.46 30.0098 1275.76 28.8878C1264.26 26.9605 1255.19 31.1409 1251.95 32.8329L1251.94 32.842Z" fill="#CF9A70"/>
<path d="M1251.31 40.3614C1250.98 36.2535 1250.87 30.2997 1252.08 23.3325C1254.3 10.6739 1260.05 -0.464625 1261.78 0.0149362C1263.09 0.367821 1261.38 7.0093 1261.91 21.0885C1262.09 25.7484 1262.44 29.612 1262.74 32.2722L1251.3 40.3705L1251.31 40.3614Z" fill="#CF9A70"/>
<path d="M1290.47 40.3614C1290.81 36.2535 1290.92 30.2997 1289.71 23.3325C1287.5 10.6739 1281.74 -0.464625 1280.01 0.0149362C1278.7 0.367821 1280.41 7.0093 1279.88 21.0885C1279.7 25.7484 1279.35 29.612 1279.05 32.2722L1290.48 40.3705L1290.47 40.3614Z" fill="#CF9A70"/>
<path d="M1261.28 97.7364C1263.82 104.731 1268.16 114.829 1275.54 125.75C1284.8 139.458 1295.37 155.094 1314.73 162.242C1340.67 171.824 1365.77 160.034 1374.75 155.818C1387.9 149.638 1397.06 141.603 1402.64 135.902C1395.87 139.73 1378.42 148.38 1355.22 146.57C1350.28 146.181 1334.73 144.516 1318.21 134.364C1294.93 120.059 1285.43 98.5508 1282.36 90.543C1276.64 87.5118 1270.15 87.6837 1265.78 91.0587C1262.96 93.2303 1261.77 96.1529 1261.28 97.7454L1261.28 97.7364Z" fill="#CF9A70"/>
<path d="M1303.68 117.489C1301.97 162.378 1300.25 207.276 1298.54 252.165C1295 251.558 1291.65 253.169 1290.31 255.938C1289.03 258.598 1290.11 261.285 1290.31 261.765H1312.94C1312.82 251.911 1313.65 238.936 1317.38 224.241C1320.23 213.076 1324.04 203.702 1327.66 196.309C1326.3 193.224 1324.92 190.138 1323.56 187.053C1329.95 174.72 1336.35 162.378 1342.75 150.045C1346.06 145.476 1349.37 140.906 1352.68 136.337L1303.68 117.489Z" fill="#CF9A70"/>
<path d="M1385.41 120.919C1392.69 137.423 1400.84 160.46 1404.95 188.854C1408.47 213.203 1408.01 234.421 1406.46 250.78C1402.92 250.174 1399.57 251.785 1398.23 254.554C1396.95 257.214 1398.03 259.901 1398.23 260.381H1420.86C1420.73 250.527 1421.57 237.552 1425.3 222.857C1428.15 211.692 1431.96 202.317 1435.58 194.925C1434.22 191.84 1432.84 188.754 1431.47 185.669C1433.37 171.454 1435.27 157.239 1437.16 143.024C1436.26 136.826 1435.14 130.302 1433.73 123.488C1432.32 116.648 1430.75 110.187 1429.1 104.125C1414.54 109.726 1399.98 115.318 1385.41 120.919Z" fill="#CF9A70"/>
<path d="M1275.93 67.0262C1278.65 80.8611 1284.78 102.631 1300.08 124.854C1308.07 136.445 1316.91 149.294 1330.15 155.7C1356.44 168.413 1395.41 153.492 1428.59 121.778C1430.62 113.67 1432.05 102.496 1426.02 95.818C1419.3 88.3893 1407.59 91.2667 1378.47 93.2483C1330.92 96.4876 1321.23 91.6106 1317.81 89.6471C1309.94 85.1319 1300.12 75.8846 1293.9 54.6934L1275.92 67.0262H1275.93Z" fill="#CF9A70"/>
<path d="M1415.05 93.5841C1417.48 89.9105 1419.97 84.6805 1419.77 78.5096C1419.11 57.9337 1389.08 41.8548 1378.64 47.9262C1374.53 50.315 1372.23 56.8479 1371.1 56.3231C1370.46 56.0245 1370.84 53.7171 1371.36 52.1246C1373.48 45.6279 1380.77 42.7506 1382.41 42.0991C1393.86 37.5749 1405.49 43.402 1408.37 44.8407C1411.13 46.2251 1419.37 50.505 1424.55 60.1777C1429.11 68.6831 1428.74 76.5732 1428.5 81.8484C1427.99 92.5164 1424.25 100.741 1421.48 105.582L1415.05 93.5841Z" fill="#CF9A70"/>
<path d="M1276.36 48.9393C1276.27 49.5907 1273.19 48.6588 1270.83 50.5137C1267.91 52.8029 1268.18 57.689 1267.68 57.6438C1267.24 57.5985 1268.14 53.7982 1266.14 51.4095C1264.3 49.2017 1261.06 49.7808 1261 48.9393C1260.94 48.0163 1264.73 46.5867 1268.69 46.5957C1272.8 46.5957 1276.47 48.2244 1276.37 48.9393H1276.36Z" fill="#3B1A54"/>
<path d="M1262.29 40.687C1262.29 42.3881 1261.46 43.7725 1260.43 43.7725C1259.39 43.7725 1258.56 42.3881 1258.56 40.687C1258.56 38.986 1259.39 37.6016 1260.43 37.6016C1261.46 37.6016 1262.29 38.986 1262.29 40.687Z" fill="#3B1A54"/>
<path d="M1280.9 41.23C1280.9 42.9311 1280.07 44.3155 1279.04 44.3155C1278.01 44.3155 1277.17 42.9311 1277.17 41.23C1277.17 39.5289 1278.01 38.1445 1279.04 38.1445C1280.07 38.1445 1280.9 39.5289 1280.9 41.23Z" fill="#3B1A54"/>
<path d="M1264.3 86.6068C1260.46 86.6068 1255.96 82.9604 1254.93 82.0827C1254.49 81.7117 1254.44 81.0512 1254.82 80.6168C1255.2 80.1825 1255.86 80.1282 1256.28 80.4992C1258.5 82.3903 1263.31 85.6025 1265.68 84.1819C1267.03 83.3856 1267.36 81.1507 1267.55 76.7442C1267.84 69.976 1267.68 63.0088 1267.1 56.0325C1267.06 55.4625 1267.48 54.9558 1268.05 54.9105C1268.63 54.8653 1269.13 55.2906 1269.18 55.8606C1269.76 62.9183 1269.91 69.976 1269.62 76.8346C1269.42 81.4402 1269.11 84.5619 1266.73 85.9734C1265.98 86.4168 1265.15 86.5978 1264.29 86.6068H1264.3Z" fill="#3B1A54"/>
<path d="M1281.13 83.9105C1280.79 83.9105 1280.46 83.8743 1280.12 83.8109C1276.85 83.1595 1275.04 79.4225 1272.53 74.2468C1269.76 68.5373 1267.94 62.4297 1267.11 56.0868C1267.04 55.5168 1267.44 54.992 1268.01 54.9196C1268.56 54.8291 1269.1 55.2453 1269.18 55.8154C1269.98 61.9411 1271.74 67.8406 1274.4 73.342C1276.65 77.9748 1278.27 81.3226 1280.53 81.766C1284.36 82.5351 1290.26 75.6584 1295.13 64.6285C1295.37 64.1037 1295.99 63.8594 1296.51 64.0946C1297.03 64.3299 1297.27 64.9452 1297.04 65.47C1291.88 77.1514 1286.01 83.9014 1281.13 83.9014V83.9105Z" fill="#3B1A54"/>
<path d="M1306.63 163.935C1306.43 163.935 1306.22 163.881 1306.04 163.754C1301.91 160.949 1297.9 157.9 1294.13 154.688C1286.11 147.874 1278.82 140.129 1272.47 131.642C1272.12 131.18 1272.22 130.529 1272.68 130.185C1273.14 129.841 1273.79 129.931 1274.13 130.393C1280.39 138.754 1287.57 146.39 1295.48 153.095C1299.21 156.253 1303.15 159.257 1307.21 162.026C1307.69 162.352 1307.81 162.994 1307.49 163.474C1307.3 163.772 1306.97 163.926 1306.64 163.926L1306.63 163.935Z" fill="#3B1A54"/>
<path d="M1339.01 166.956C1338.49 166.956 1338.03 166.558 1337.98 166.033C1337.92 165.463 1338.32 164.947 1338.9 164.884C1345.23 164.178 1351.47 162.758 1357.43 160.658C1368.61 156.713 1378.74 150.479 1387.55 142.118C1387.97 141.72 1388.63 141.747 1389.03 142.164C1389.43 142.58 1389.41 143.24 1388.99 143.638C1379.96 152.198 1369.58 158.586 1358.13 162.631C1352.01 164.784 1345.62 166.25 1339.14 166.965C1339.1 166.965 1339.06 166.965 1339.02 166.965L1339.01 166.956Z" fill="#3B1A54"/>
<path d="M1402.57 166.848C1402.24 166.848 1401.9 166.685 1401.71 166.377C1395.33 156.777 1390.67 146.29 1387.85 135.215C1385.82 127.198 1384.77 118.928 1384.73 110.631C1384.73 110.052 1385.19 109.59 1385.77 109.581C1386.35 109.581 1386.81 110.043 1386.82 110.622C1386.85 118.747 1387.88 126.854 1389.87 134.699C1392.63 145.539 1397.19 155.809 1403.43 165.219C1403.75 165.699 1403.62 166.341 1403.14 166.667C1402.96 166.785 1402.76 166.839 1402.57 166.839L1402.57 166.848Z" fill="#3B1A54"/>
<path d="M1332.5 166.16C1332.29 166.16 1332.09 166.097 1331.91 165.98C1331.44 165.654 1331.31 165.002 1331.64 164.532C1332.97 162.595 1334.21 160.605 1335.36 158.605C1337.83 154.289 1339.94 149.729 1341.63 145.06C1341.82 144.517 1342.42 144.245 1342.96 144.435C1343.51 144.635 1343.79 145.232 1343.59 145.775C1341.86 150.552 1339.71 155.221 1337.17 159.646C1336 161.691 1334.72 163.736 1333.35 165.717C1333.16 166.007 1332.83 166.17 1332.5 166.17V166.16Z" fill="#3B1A54"/>
<path d="M1289.7 191.442C1289.48 191.442 1289.26 191.379 1289.08 191.243C1288.62 190.899 1288.51 190.248 1288.86 189.786L1291.4 186.311C1291.75 185.841 1292.4 185.741 1292.85 186.085C1293.32 186.429 1293.42 187.081 1293.08 187.542L1290.54 191.017C1290.33 191.297 1290.01 191.442 1289.7 191.442Z" fill="#3B1A54"/>
<path d="M1321.18 190.663C1320.86 190.663 1320.53 190.509 1320.33 190.22C1320 189.749 1320.12 189.098 1320.58 188.763L1323.25 186.872C1323.72 186.546 1324.37 186.646 1324.7 187.116C1325.04 187.587 1324.92 188.238 1324.46 188.573L1321.79 190.464C1321.61 190.591 1321.39 190.654 1321.18 190.654V190.663Z" fill="#3B1A54"/>
<path d="M1397.31 187.479C1396.93 187.479 1396.56 187.271 1396.38 186.9C1396.12 186.384 1396.33 185.76 1396.85 185.497L1400.1 183.868C1400.61 183.615 1401.24 183.823 1401.5 184.339C1401.75 184.855 1401.54 185.479 1401.03 185.741L1397.78 187.37C1397.63 187.443 1397.47 187.479 1397.32 187.479H1397.31Z" fill="#3B1A54"/>
<path d="M1427.29 188.908C1426.9 188.908 1426.53 188.682 1426.34 188.302C1426.1 187.777 1426.34 187.162 1426.86 186.918L1432.9 184.176C1433.42 183.941 1434.04 184.167 1434.28 184.692C1434.52 185.216 1434.28 185.832 1433.76 186.076L1427.73 188.818C1427.58 188.881 1427.45 188.908 1427.29 188.908Z" fill="#3B1A54"/>
<path d="M1416.44 92.3439C1416.32 92.3439 1415.21 92.2082 1415.21 92.2082C1414.64 92.1448 1414.23 91.6291 1414.29 91.05C1414.36 90.4799 1414.81 90.0637 1415.44 90.1361L1416.55 90.2628C1417.12 90.3261 1417.53 90.8419 1417.47 91.421C1417.41 91.9548 1416.96 92.3439 1416.44 92.3439Z" fill="#3B1A54"/>
<defs>
<clipPath id="clip0_1085_3437">
<rect width="226" height="187" fill="white" transform="translate(191 75)"/>
</clipPath>
<clipPath id="clip1_1085_3437">
<rect width="304" height="137" fill="white" transform="translate(0 126)"/>
</clipPath>
</defs>
</svg>
