<svg width="2000" height="563" viewBox="0 0 2000 563" fill="none" xmlns="http://www.w3.org/2000/svg">
<path d="M0 555.45V0H2000V290.809C1910.71 290.809 1913.36 344.592 1817.46 344.592C1721.56 344.592 1712.96 344.592 1646.83 366.01C1530.42 424.552 1473.77 400.174 1446.43 402.659C1401.28 406.752 1220.57 434.728 1177.25 424.552C1111.11 409.017 1049.1 456.146 988.757 466.389C928.413 476.632 876.323 441.867 797.619 454.832C726.482 466.55 708.585 491.553 636.243 498.245C508.876 498.245 460.979 558.163 349.206 550.24C282.407 550.24 231.482 534.655 153.439 541.154C95.2382 546 84.6562 553.203 64.7091 558.163C44.762 563.122 14.0079 566.987 0 555.45Z" fill="#FFE382"/>
</svg>
