<svg width="190" height="126" viewBox="0 0 190 126" fill="none" xmlns="http://www.w3.org/2000/svg">
<g clip-path="url(#clip0_952_17430)">
<path d="M158.619 67.957C158.619 67.957 173.842 74.3597 176.773 90.7147C179.705 107.07 169.649 115.318 161.409 114.343C153.17 113.363 154.704 100.226 154.426 96.4476C154.149 92.6747 143.881 81.0018 138.508 81.0018L158.619 67.957Z" fill="#CF9A70"/>
<path d="M160.845 56.3823C155.238 37.9149 143.463 6.02696 97.4262 6.03784C49.6815 6.04873 41.502 36.2217 41.502 36.2217L58.4973 39.227L51.001 89.713C51.001 89.713 142.593 96.6328 154.531 89.713C166.468 82.7932 163.265 64.342 160.85 56.3823H160.845Z" fill="#CF9A70"/>
<path d="M123.107 88.4226C122.944 88.4226 122.78 88.3573 122.655 88.2267C112.17 77.3324 114.818 58.8159 123.428 47.2085C129.122 39.5318 136.04 36.7497 141.929 39.7714C142.239 39.9293 142.359 40.3104 142.201 40.6207C142.044 40.931 141.663 41.0508 141.353 40.8929C136.056 38.1762 129.731 40.8167 124.434 47.9598C116.135 59.148 113.535 76.9458 123.558 87.361C123.797 87.6114 123.792 88.0089 123.542 88.2484C123.422 88.3682 123.265 88.4226 123.107 88.4226Z" fill="#3B1A54"/>
<path d="M35.5526 74.0931C35.5526 74.0931 20.3301 80.4957 17.3988 96.8507C14.4674 113.206 24.5232 121.454 32.7626 120.479C41.0019 119.499 39.4683 106.362 39.7456 102.584C40.023 98.8107 48.4092 90.2793 53.7825 90.2793C59.1557 90.2793 35.5526 74.0876 35.5526 74.0876V74.0931Z" fill="#3B1A54"/>
<path d="M28.4504 120.806C28.3851 120.806 28.3253 120.795 28.26 120.779C24.9099 119.712 23.4415 114.97 23.3817 114.768C23.2783 114.436 23.4687 114.088 23.8004 113.984C24.1322 113.886 24.4857 114.071 24.5836 114.403C24.5999 114.447 25.9269 118.715 28.6407 119.581C28.9725 119.685 29.1519 120.038 29.0486 120.37C28.9616 120.637 28.7169 120.811 28.4504 120.811V120.806Z" fill="white"/>
<path d="M35.3195 120.806C35.2543 120.806 35.1944 120.795 35.1292 120.779C31.779 119.712 30.3106 114.97 30.2508 114.768C30.1475 114.436 30.3378 114.088 30.6696 113.984C31.0013 113.886 31.3494 114.071 31.4527 114.403C31.469 114.447 32.796 118.715 35.5099 119.581C35.8416 119.685 36.0211 120.038 35.9178 120.37C35.8307 120.637 35.586 120.811 35.3195 120.811V120.806Z" fill="white"/>
<path d="M94.5486 74.093C94.5486 74.093 79.3262 80.4956 76.3949 96.8507C73.4635 113.206 83.5193 121.454 91.7587 120.479C99.998 119.499 98.4644 106.362 98.7417 102.584C99.0191 98.8106 109.287 87.1378 114.66 87.1378L94.5486 74.093Z" fill="#CF9A70"/>
<path d="M87.1574 120.806C87.0921 120.806 87.0323 120.795 86.9671 120.779C83.6169 119.712 82.1485 114.97 82.0887 114.768C81.9854 114.436 82.1757 114.088 82.5075 113.984C82.8392 113.886 83.1927 114.071 83.2906 114.403C83.3069 114.447 84.6339 118.715 87.3478 119.581C87.6795 119.685 87.859 120.038 87.7556 120.37C87.6686 120.637 87.4239 120.811 87.1574 120.811V120.806Z" fill="#3B1A54"/>
<path d="M94.0265 120.806C93.9613 120.806 93.9015 120.795 93.8362 120.779C90.4861 119.712 89.0177 114.97 88.9578 114.768C88.8545 114.436 89.0449 114.088 89.3766 113.984C89.7084 113.886 90.0564 114.071 90.1598 114.403C90.1761 114.447 91.5031 118.715 94.2169 119.581C94.5486 119.685 94.7281 120.038 94.6248 120.37C94.5378 120.637 94.293 120.811 94.0265 120.811V120.806Z" fill="#3B1A54"/>
<path d="M57.257 33.3144C57.257 33.3144 41.9693 0.196018 35.008 1.93823C28.0413 3.68044 30.5593 20.7269 30.1732 25.567C29.787 30.4071 19.6442 45.7113 30.0372 51.3245C40.4302 56.9431 57.2624 33.3144 57.2624 33.3144H57.257Z" fill="#CF9A70"/>
<path d="M54.3748 34.3488C54.3748 34.3488 42.7799 9.22284 37.4937 10.5458C32.2074 11.8688 34.1163 24.7993 33.8227 28.4743C33.529 32.1493 25.8335 43.7567 33.7193 48.0197C41.6052 52.2827 54.3748 34.3542 54.3748 34.3542V34.3488Z" fill="#FFCCCC"/>
<path d="M74.3121 33.3144C74.3121 33.3144 89.5943 0.196018 96.5611 1.93823C103.528 3.68044 101.01 20.7269 101.396 25.567C101.782 30.4071 111.925 45.7113 101.532 51.3245C91.1388 56.9431 74.3066 33.3144 74.3066 33.3144H74.3121Z" fill="#3B1A54"/>
<path d="M77.1934 34.3488C77.1934 34.3488 88.7883 9.22284 94.0745 10.5458C99.3607 11.8688 97.4518 24.7993 97.7455 28.4743C98.0392 32.1493 105.735 43.7567 97.8488 48.0197C89.963 52.2827 77.1934 34.3542 77.1934 34.3542V34.3488Z" fill="#FFCCCC"/>
<path d="M106.023 71.0224C106.023 88.2213 88.0054 91.8582 65.7782 91.8582C43.551 91.8582 25.5332 88.2213 25.5332 71.0224C25.5332 53.8235 43.5564 29.5796 65.7837 29.5796C88.0109 29.5796 106.029 53.8235 106.029 71.0224H106.023Z" fill="#CF9A70"/>
<path d="M71.7566 30.1675C68.0421 34.2943 65.7852 39.7551 65.7852 45.7439C65.7852 58.6036 76.1999 69.0242 89.0403 69.0242C95.1368 69.0242 100.684 66.6723 104.834 62.834C100.94 48.7384 87.9199 33.3252 71.7621 30.1675H71.7566Z" fill="#3B1A54"/>
<path d="M48.675 61.2334C49.333 61.2334 49.8715 60.6944 49.8715 60.0356V58.1192C49.8715 57.4604 49.333 56.9214 48.675 56.9214C48.0169 56.9214 47.4785 57.4604 47.4785 58.1192V60.0356C47.4785 60.6944 48.0169 61.2334 48.675 61.2334Z" fill="#3B1A54"/>
<path d="M81.6652 61.2334C82.3233 61.2334 82.8617 60.6944 82.8617 60.0356V58.1192C82.8617 57.4604 82.3233 56.9214 81.6652 56.9214C81.0072 56.9214 80.4688 57.4604 80.4688 58.1192V60.0356C80.4688 60.6944 81.0072 61.2334 81.6652 61.2334Z" fill="#A3A3A3"/>
<path d="M73.5501 61.8432C72.4406 61.5546 71.5541 60.4167 71.2822 58.925C71.2659 58.827 71.2441 58.729 71.2278 58.631C70.6078 55.3044 71.032 51.8799 72.408 48.7875C72.8485 47.802 73.2836 46.7077 73.7132 45.4936C76.2149 38.356 74.4964 33.0313 73.251 30.4942C70.8308 29.9008 68.3345 29.5796 65.7839 29.5796C63.2332 29.5796 60.7369 29.9008 58.3168 30.4942C57.0714 33.0368 55.3474 38.356 57.8545 45.4936C58.1591 46.3647 58.4691 47.1705 58.7845 47.9218C60.0462 50.938 60.3889 54.2591 59.758 57.4659C59.6383 58.0702 59.535 58.631 59.4426 59.1319C59.1815 60.6018 58.3222 61.7452 57.2291 62.0609C47.9347 64.7559 41.3105 74.3272 41.3105 82.4884C41.3105 85.2705 42.0828 87.7313 43.4642 89.8438C49.849 91.3573 57.5282 91.8582 65.7839 91.8582C74.0395 91.8582 81.7187 91.3573 88.1035 89.8438C89.4849 87.7313 90.2572 85.2705 90.2572 82.4884C90.2572 74.0931 83.2578 64.3639 73.5501 61.8432Z" fill="white"/>
<path d="M73.1694 66.8464C73.1694 69.1984 69.8628 73.2872 65.7839 73.2872C61.7051 73.2872 58.3984 69.1984 58.3984 66.8464C58.3984 64.4944 61.7051 64.7721 65.7839 64.7721C69.8628 64.7721 73.1694 64.4944 73.1694 66.8464Z" fill="#3B1A54"/>
<path d="M74.7474 64.3419C74.655 64.3419 74.5625 64.3202 74.4755 64.2712C66.8398 60.1879 57.1538 64.2548 57.0559 64.2929C56.7622 64.4236 56.4251 64.282 56.2945 63.988C56.1694 63.694 56.3054 63.3511 56.5991 63.2258C57.0124 63.0462 66.8888 58.8975 75.0248 63.2476C75.3076 63.4001 75.4164 63.7485 75.2641 64.0316C75.1607 64.2276 74.9595 64.3419 74.7529 64.3419H74.7474Z" fill="#3B1A54"/>
<path d="M106.808 91.8199C106.639 91.8199 106.471 91.7546 106.346 91.6185C106.106 91.3626 106.123 90.9651 106.378 90.731C112.665 84.8565 116.037 81.7804 116.037 81.7804C116.293 81.5463 116.69 81.5626 116.923 81.824C117.157 82.0799 117.141 82.4773 116.88 82.7114C116.88 82.7114 113.508 85.7875 107.232 91.6566C107.112 91.7709 106.955 91.8254 106.802 91.8254L106.808 91.8199Z" fill="#3B1A54"/>
<path d="M151.631 76.7227C151.511 76.7227 151.386 76.69 151.277 76.6138C150.989 76.4178 150.913 76.0258 151.109 75.7372C151.261 75.5086 154.899 70.1894 160.071 69.8192C162.878 69.6123 165.553 70.9135 168.033 73.6629C168.267 73.9188 168.245 74.3217 167.99 74.5503C167.729 74.7845 167.337 74.7627 167.103 74.5068C164.895 72.0568 162.551 70.9026 160.164 71.0714C155.595 71.398 152.186 76.3851 152.153 76.4341C152.033 76.6138 151.832 76.7118 151.631 76.7118V76.7227Z" fill="#3B1A54"/>
<path d="M108.259 6.6748C107.857 8.80357 107.645 10.9922 107.645 13.2299C107.645 32.7209 123.574 48.6675 143.044 48.6675C148.064 48.6675 152.849 47.6059 157.184 45.7003C150.788 29.5522 138.301 10.3824 108.259 6.6748Z" fill="#3B1A54"/>
<path d="M47.4788 31.2182C47.2341 31.2182 47.0057 31.0766 46.9024 30.8371C44.5203 25.3436 40.3979 20.7812 40.3598 20.7377C40.126 20.4818 40.1423 20.0843 40.4033 19.8502C40.6589 19.6161 41.056 19.6325 41.2898 19.8938C41.4638 20.0843 45.5917 24.6522 48.0608 30.3416C48.1967 30.6574 48.0499 31.0331 47.7345 31.1692C47.6529 31.2018 47.5659 31.2236 47.4843 31.2236L47.4788 31.2182Z" fill="#3B1A54"/>
<path d="M82.8618 31.2182C82.7965 31.2182 82.7367 31.2073 82.6714 31.191C82.3397 31.0875 82.1602 30.7282 82.2635 30.4015C83.3132 27.0968 89.475 17.8413 89.7361 17.4547C89.9319 17.1662 90.3234 17.0899 90.6062 17.2805C90.8945 17.4765 90.9706 17.863 90.7803 18.1516C90.715 18.2442 84.4553 27.6466 83.46 30.7826C83.373 31.0494 83.1283 31.2236 82.8618 31.2236V31.2182Z" fill="#3B1A54"/>
<path d="M32.9076 50.2246C32.8042 50.2246 32.6955 50.1974 32.5976 50.143C32.293 49.9687 32.1897 49.5876 32.3637 49.2827C32.4507 49.1357 40.9783 34.4576 56.7228 30.2654C57.0546 30.1783 57.4026 30.3798 57.4897 30.7119C57.5767 31.044 57.3754 31.3924 57.0437 31.4795C41.7995 35.5356 33.533 49.7564 33.4514 49.9034C33.3372 50.1049 33.1251 50.2192 32.9076 50.2192V50.2246Z" fill="#3B1A54"/>
<path d="M4.61652 40.8657C4.29565 40.8657 4.02372 40.6207 3.99109 40.2941C3.95846 39.9456 4.21407 39.6407 4.56213 39.6135L15.8634 38.59C16.2114 38.5682 16.516 38.8132 16.5486 39.1616C16.5813 39.5101 16.3256 39.815 15.9776 39.8422L4.67634 40.8657C4.67634 40.8657 4.63827 40.8657 4.61652 40.8657Z" fill="#3B1A54"/>
<path d="M14.1406 21.6306C14.0536 21.6306 13.9666 21.6143 13.885 21.5762L0.370295 15.473C0.0548609 15.3314 -0.0865405 14.9558 0.0548609 14.64C0.196262 14.3242 0.576959 14.1827 0.886954 14.3242L14.3962 20.4274C14.7117 20.5689 14.8531 20.9446 14.7117 21.2604C14.6083 21.4945 14.3799 21.6306 14.1406 21.6306Z" fill="#3B1A54"/>
<path d="M24.7132 12.1956C24.4685 12.1956 24.2401 12.054 24.1368 11.8145L19.4433 0.876636C19.3074 0.555416 19.4542 0.185196 19.7696 0.0490857C20.0851 -0.0870246 20.4603 0.0599745 20.5963 0.37575L25.2897 11.3136C25.4257 11.6348 25.2788 12.005 24.9634 12.1411C24.8818 12.1792 24.8003 12.1956 24.7132 12.1956Z" fill="#3B1A54"/>
<path d="M60.6728 82.7878C60.6728 82.7878 59.4165 95.1466 65.785 95.1466C72.1535 95.1466 71.8707 83.3431 71.8707 83.3431L65.785 78.7861L60.6728 82.7878Z" fill="#FFCCCC"/>
<path d="M58.5834 83.9201C58.4747 83.9201 58.3659 83.9201 58.2571 83.9092C54.8852 83.637 50.752 80.1798 50.5779 80.0328C50.3332 79.8259 50.3006 79.4557 50.5072 79.2161C50.7139 78.9711 51.0837 78.9384 51.323 79.1453C51.3665 79.178 55.3475 82.5154 58.3496 82.755C61.145 82.951 64.3102 79.0147 65.2946 77.4684C65.4686 77.1962 65.8221 77.12 66.094 77.2888C66.3659 77.463 66.4421 77.8223 66.2735 78.0891C66.1158 78.3341 62.5209 83.9201 58.5834 83.9201Z" fill="#3B1A54"/>
<path d="M72.9848 83.92C69.0473 83.92 65.447 78.3341 65.2948 78.0891C65.1207 77.8168 65.2023 77.4575 65.4742 77.2887C65.7461 77.1145 66.1051 77.1962 66.2737 77.4684C67.2581 79.0146 70.3961 82.9727 73.2187 82.7549C76.2153 82.5154 80.2017 79.178 80.2452 79.1453C80.49 78.9384 80.8544 78.9711 81.061 79.2161C81.2677 79.4611 81.235 79.8258 80.9903 80.0327C80.8163 80.1797 76.683 83.6424 73.3111 83.9091C73.2024 83.92 73.0936 83.92 72.9848 83.92Z" fill="#3B1A54"/>
<path d="M65.785 88.0361C65.4642 88.0361 65.2031 87.7748 65.2031 87.4535V69.0242C65.2031 68.703 65.4642 68.4417 65.785 68.4417C66.1059 68.4417 66.367 68.703 66.367 69.0242V87.4535C66.367 87.7748 66.1059 88.0361 65.785 88.0361Z" fill="#3B1A54"/>
<path d="M79.033 91.9235C78.7121 91.9235 78.4402 91.6785 78.4075 91.3573C78.3695 91.0089 78.6251 90.704 78.9677 90.6713C96.9964 88.8964 105.393 82.6571 105.393 71.0279C105.393 57.1719 93.1894 37.67 75.6774 31.8499C75.3456 31.741 75.1716 31.3817 75.2804 31.055C75.3891 30.7284 75.7481 30.5487 76.0744 30.6576C94.0976 36.6464 106.655 56.7417 106.655 71.0279C106.655 83.4357 97.8992 90.0724 79.0928 91.9235C79.071 91.9235 79.0493 91.9235 79.0275 91.9235H79.033Z" fill="#3B1A54"/>
</g>
<defs>
<clipPath id="clip0_952_17430">
<rect width="190" height="126" fill="white"/>
</clipPath>
</defs>
</svg>
