<svg width="423" height="339" viewBox="0 0 423 339" fill="none" xmlns="http://www.w3.org/2000/svg">
<g clip-path="url(#clip0_952_17573)">
<path d="M164.482 280.934C164.482 280.934 167.209 255.379 149.763 248.181C132.317 240.983 125.341 266.92 125.027 264.561C124.712 262.202 135.431 216.803 120.903 204.498C106.374 192.193 97.6019 219.477 97.6019 219.477C97.6019 219.477 99.8048 208.814 89.0854 209.518C78.366 210.228 83.552 241.124 83.552 241.124C83.552 241.124 71.6852 226.045 60.4938 229.979C49.3089 233.913 70.0593 271.035 70.0593 271.035C70.0593 271.035 52.3641 261.793 48.2664 274.929C44.1754 288.065 58.6449 299.317 58.6449 299.317C58.6449 299.317 37.2979 304.927 35.7703 322.654C34.4787 337.593 34.7541 338.088 34.7541 338.088L187.094 338.216C187.33 338.457 192.778 313.928 184.688 306.308C176.598 298.688 181.974 292.703 175.995 284.875C170.022 277.047 164.482 280.934 164.482 280.934Z" fill="#A3A3A3"/>
<path d="M367.338 72.9647C363.882 71.001 360.742 64.0845 361.68 62.1879C361.68 62.1879 369.403 48.0333 371.101 47.7317C372.799 47.4234 376.785 52.2421 377.991 53.8104C379.198 55.3786 382.509 57.1748 381.807 59.3395C381.106 61.5043 379.893 74.9149 379.893 74.9149L374.504 89.0159L361.037 86.563L367.331 72.9714L367.338 72.9647Z" fill="#FFCCCC"/>
<path d="M366.657 44.823H356.455L360.808 70.0895H366.657H372.505L376.851 44.823H366.657Z" fill="#3B1A54"/>
<path d="M378.281 44.6756L376.746 41.3782C376.537 40.9292 376.058 40.6343 375.527 40.6343H357.524C356.993 40.6343 356.514 40.9225 356.304 41.3782L354.77 44.6756C354.396 45.4798 355.039 46.3779 355.99 46.3779H377.068C378.018 46.3779 378.667 45.4798 378.287 44.6756H378.281Z" fill="#FFC876"/>
<path d="M100.54 244.576C98.2386 235.997 93.0723 228.484 87.0799 222.144C84.0837 218.974 80.4254 216.796 76.3015 215.549C74.4723 215 72.6169 214.571 70.755 214.162C60.6781 226.179 55.9117 258.603 62.4351 270.486C69.0897 282.603 57.0328 304.083 53.1909 309.592C49.3555 315.101 64.0086 337.606 64.0086 337.606L75.659 337.807C77.1079 337.834 77.9406 336.132 77.0555 334.959C68.5783 323.793 65.7919 317.138 73.2857 303.828C80.4057 291.181 85.6179 280.371 88.1683 268.328C89.8007 260.634 94.9605 254.454 101.74 251.378C101.53 249.093 101.143 246.821 100.54 244.582V244.576Z" fill="#3B1A54"/>
<path d="M143.141 225.937C136.539 228.377 129.045 244.006 132.756 258.683C136.467 273.361 148.026 299.002 150.982 308.975C152.589 314.384 158.66 337.867 162.771 338.008L168.73 338.216C170.533 338.276 171.576 335.85 170.605 333.826C169.025 330.529 167.065 325.904 166.101 321.548C164.718 315.288 156.3 243.027 155.598 218.163C155.598 218.163 149.743 223.498 143.135 225.937H143.141Z" fill="#3B1A54"/>
<path d="M183.075 151.029C181.725 148.335 169.281 153.341 165.754 153.08C162.226 152.825 163.295 145.634 157.637 145.942C151.973 146.257 134.14 147.337 132.225 151.552C131.366 153.449 129.622 164.882 128.147 176.222C126.607 188.044 117.375 197.266 105.777 198.567C85.1779 200.885 54.7833 204.98 44.2672 211.521C44.2868 211.468 24.6182 219.564 23.6544 244.696C22.9005 264.414 15.0199 275.532 1.78949 266.431C0.897842 265.814 -0.505186 266.585 0.189772 267.429C3.10073 270.975 6.3985 274.212 14.4889 273.367C26.4408 272.128 28.4142 264.695 29.9222 255.721C30.0402 261.719 30.9843 266.987 32.8987 270.479C39.5532 282.596 27.4964 304.076 23.6544 309.585C19.8191 315.094 34.4722 337.599 34.4722 337.599L46.1226 337.8C47.5715 337.827 48.4041 336.125 47.519 334.952C39.0419 323.786 36.2555 317.131 43.7492 303.821C50.8693 291.175 56.0814 280.364 58.6318 268.321C60.8347 257.913 69.5086 250.266 79.8805 249.341C82.857 249.073 85.9909 248.912 89.1378 248.925C103.673 248.986 119.231 269.862 136.664 258.583C146.387 252.29 150.274 238.778 153.382 228.156C157.48 214.135 159.873 198.895 158.725 184.251C158.45 180.773 157.637 176.443 159.047 173.092C160.666 169.245 165.583 175.827 175.903 176.014C186.222 176.202 184.426 153.724 183.075 151.029Z" fill="#3B1A54"/>
<path d="M59.825 266.706C59.766 266.706 59.707 266.706 59.648 266.686C59.2022 266.585 58.9203 266.136 59.0186 265.687C60.2184 260.01 63.5227 255.353 68.5579 252.223C75.4288 247.954 85.0336 246.774 93.6354 249.153C96.1399 249.85 98.4804 250.815 100.585 252.022C100.847 252.169 101.103 252.323 101.359 252.484C101.745 252.725 101.87 253.241 101.634 253.637C101.398 254.032 100.893 254.16 100.506 253.918C100.264 253.771 100.028 253.63 99.7785 253.489C97.792 252.35 95.576 251.439 93.2027 250.782C85.1516 248.55 75.809 249.683 69.4102 253.664C64.7618 256.552 61.7263 260.835 60.6183 266.049C60.5331 266.444 60.1922 266.712 59.8185 266.712L59.825 266.706Z" fill="white"/>
<path d="M149.901 147.115C149.41 145.594 147.672 145.333 146.322 145.038C144.624 144.669 142.886 144.542 141.155 144.669C139.765 144.77 130.036 148.898 128.515 151.157C127.053 153.328 128.036 155.258 130.469 155.821C132.285 156.237 133.97 156.243 134.861 158.214C135.635 159.929 135.661 162.041 135.891 163.89C136.127 165.787 136.33 167.697 136.612 169.587C136.796 170.827 137.064 172.154 137.779 173.206C139.097 175.15 141.477 175.042 143.089 173.528C145.319 171.43 145.187 167.704 145.948 164.929C146.807 161.813 148.098 158.844 149.023 155.747C149.777 153.227 150.754 149.729 149.901 147.122V147.115Z" fill="#3B1A54"/>
<path d="M160.633 153.643C160.987 153.569 161.223 153.214 161.151 152.852L160.948 151.793C160.876 151.431 160.528 151.19 160.168 151.264C159.814 151.337 159.578 151.693 159.65 152.061L159.853 153.12C159.925 153.482 160.273 153.723 160.633 153.65V153.643Z" fill="white"/>
<path d="M181.522 158.542C180.374 158.542 179.358 158.254 178.473 157.678C176.139 156.15 175.739 153.174 175.726 153.046C175.667 152.591 175.982 152.169 176.434 152.108C176.893 152.061 177.293 152.37 177.358 152.832C177.358 152.859 177.686 155.171 179.371 156.27C180.473 156.987 181.961 157.048 183.803 156.458C184.242 156.31 184.701 156.565 184.832 157.007C184.97 157.45 184.728 157.926 184.295 158.06C183.298 158.381 182.374 158.542 181.522 158.542Z" fill="white"/>
<path d="M140.643 178.789C139.693 178.789 138.84 178.454 138.119 177.784C136.1 175.921 135.13 171.504 135.071 163.891C135.051 161.082 134.408 159.045 133.169 157.825C131.95 156.626 130.566 156.666 130.507 156.659C130.048 156.646 129.675 156.317 129.655 155.855C129.635 155.392 129.983 155.004 130.435 154.984C130.534 154.984 132.54 154.903 134.277 156.585C135.87 158.127 136.696 160.586 136.716 163.884C136.769 170.794 137.614 175.049 139.221 176.537C139.699 176.98 140.237 177.147 140.899 177.093C140.958 177.093 141.266 177.026 141.837 176.316C145.521 171.685 149.894 153.502 149.396 148.945C149.343 148.483 149.671 148.067 150.124 148.02C150.583 147.98 150.982 148.302 151.028 148.764C151.612 154.132 146.819 172.717 143.108 177.382C142.413 178.253 141.745 178.709 141.056 178.776C140.919 178.789 140.781 178.796 140.643 178.796V178.789Z" fill="white"/>
<path d="M128.941 244.355C122.182 246.305 110.269 242.646 112.938 257.557C115.606 272.469 120.425 298.352 122.674 308.513C123.893 314.028 128.292 337.894 132.383 338.337L138.317 338.987C140.113 339.181 141.319 336.835 140.5 334.744C139.156 331.34 137.523 326.581 136.874 322.165C135.937 315.818 138.481 263.134 139.949 254.126C139.949 254.126 135.714 242.404 128.954 244.348L128.941 244.355Z" fill="#3B1A54"/>
<path d="M114.334 265.09C113.967 265.09 113.633 264.836 113.541 264.46C113.475 264.192 106.867 237.854 106.047 235.387C105.903 234.945 106.132 234.469 106.558 234.322C106.991 234.167 107.457 234.409 107.601 234.844C108.447 237.371 114.859 262.952 115.127 264.045C115.239 264.494 114.977 264.95 114.537 265.064C114.472 265.084 114.4 265.09 114.334 265.09Z" fill="white"/>
<path d="M138.447 276.819C138.001 276.819 137.634 276.45 137.627 275.995C137.614 274.896 137.286 249.093 142.499 242.505C147.468 236.238 156.417 217.158 156.503 216.964C156.699 216.548 157.191 216.367 157.598 216.568C158.004 216.769 158.181 217.272 157.984 217.687C157.617 218.478 148.858 237.137 143.771 243.557C138.932 249.669 139.26 275.7 139.266 275.961C139.273 276.424 138.912 276.806 138.46 276.812H138.447V276.819Z" fill="white"/>
<path d="M28.9587 262.289C28.5064 262.289 28.1392 261.914 28.1392 261.451C28.0737 236.741 33.9415 225.971 34.1906 225.522C34.4135 225.12 34.9118 224.979 35.3117 225.207C35.7051 225.435 35.8428 225.951 35.6199 226.353C35.5608 226.46 29.7193 237.244 29.7848 261.438C29.7848 261.9 29.4242 262.316 28.9653 262.282L28.9587 262.289Z" fill="white"/>
<path fill-rule="evenodd" clip-rule="evenodd" d="M365.016 337.867C365.016 337.867 386.894 321.159 383.905 311.964C380.915 302.769 366.118 308.968 366.118 308.968C366.118 308.968 380.915 284.412 372.694 273.14C364.472 261.874 341.67 284.68 341.67 284.68C341.67 284.68 371.054 227.687 350.776 214.524C330.498 201.361 326.662 252.947 326.662 250.406C326.662 247.866 328.013 230.093 317.746 231.413C307.479 232.733 310.554 265.158 310.554 265.158C310.554 265.158 296.137 241.158 285.365 252.075C274.593 262.993 276.665 278.736 276.665 278.736C276.665 278.736 263.205 264.012 250.814 271.343C238.422 278.675 240.055 292.595 240.055 292.595C240.055 292.595 230.837 321.273 211.339 310.624C191.834 299.968 158.188 338.095 158.188 338.095L365.029 337.874L365.016 337.867Z" fill="#A3A3A3"/>
<path d="M369.297 56.8797C369.173 56.8797 369.048 56.8462 368.937 56.7792C368.609 56.5781 368.504 56.1358 368.707 55.8007L370.537 52.7245C370.74 52.3894 371.166 52.2822 371.494 52.4899C371.822 52.691 371.926 53.1333 371.723 53.4684L369.894 56.5446C369.763 56.7658 369.533 56.8864 369.297 56.8864V56.8797Z" fill="#3B1A54"/>
<path d="M314.455 314.491H292.145V328.102H314.455V314.491Z" fill="#FFC876"/>
<path fill-rule="evenodd" clip-rule="evenodd" d="M238.613 313.419L232.811 331.896L211.844 322.868L218.085 306.683L238.613 313.419Z" fill="#FFC876"/>
<path fill-rule="evenodd" clip-rule="evenodd" d="M323.994 134.542L317.3 314.491H290.8L284.631 222.573L272.889 155.305L294.229 126.962L323.994 134.542Z" fill="white"/>
<path fill-rule="evenodd" clip-rule="evenodd" d="M304.641 156.304L240.744 314.491L215.883 307.434L239.361 226.453L250.454 149.461L287.713 133.751L304.641 156.304Z" fill="white"/>
<path d="M282.39 214.31C282.318 214.31 282.252 214.303 282.18 214.283C281.741 214.162 281.479 213.706 281.597 213.257L291.556 174.647C291.634 174.339 291.883 174.098 292.198 174.037L300.715 172.362C301.167 172.268 301.593 172.576 301.678 173.025C301.764 173.481 301.475 173.923 301.029 174.011L293.024 175.585L283.196 213.68C283.098 214.055 282.764 214.303 282.403 214.303L282.39 214.31Z" fill="#3B1A54"/>
<path d="M238.705 226.782C238.396 226.782 238.095 226.601 237.957 226.293C237.767 225.87 237.944 225.374 238.357 225.18L248.264 220.482C248.677 220.288 249.162 220.469 249.358 220.891C249.549 221.313 249.372 221.809 248.958 222.01L239.052 226.701C238.941 226.755 238.823 226.775 238.705 226.775V226.782Z" fill="#3B1A54"/>
<path d="M319.707 229.148H305.861C305.408 229.148 305.041 228.772 305.041 228.31C305.041 227.847 305.408 227.472 305.861 227.472H319.707C320.16 227.472 320.527 227.847 320.527 228.31C320.527 228.772 320.16 229.148 319.707 229.148Z" fill="#3B1A54"/>
<path fill-rule="evenodd" clip-rule="evenodd" d="M238.698 186.389C238.698 186.389 242.533 101.843 247.864 71.1884C251.168 52.195 278.684 52.1012 284.9 51.5985C288.604 51.2969 303.565 51.6588 303.565 51.6588C303.565 51.6588 317.746 53.4416 326.295 60.2039C333.029 65.532 344.076 92.2528 346.777 97.4937L361.043 72.2272L376.7 84.9208C376.7 84.9208 362.545 143.644 341.722 134.549C336.287 132.177 329.816 125.307 324.611 118.987L323.47 147.37H267.414L264.11 186.51L238.691 186.376L238.698 186.389Z" fill="#AE80C4"/>
<path fill-rule="evenodd" clip-rule="evenodd" d="M270.64 8.10268C275.498 1.67548 282.284 6.99686 281.95 8.60533C282.1 4.95275 286.132 2.4328 291.141 2.88184C296.177 3.33087 296.753 9.42298 296.753 9.42298C296.753 9.42298 302.962 9.76478 303.992 14.9253C305.021 20.0858 302.608 34.2404 302.608 34.2404L301.664 36.4588C301.664 36.4588 297.514 38.0539 296.799 38.4091C296.085 38.7643 275.216 22.4919 275.216 22.4919C275.216 22.4919 265.448 14.9789 270.64 8.10939V8.10268Z" fill="#584438"/>
<path d="M275.401 23.8391C275.25 22.626 275.126 21.4063 275.06 20.1798C275.001 19.1276 274.706 17.5861 275.335 16.6613C276.043 15.6224 278.935 15.6895 281.649 16.2189C284.881 16.8489 290.598 14.4563 290.598 14.4563C290.598 14.4563 292.408 30.3199 295.607 25.91C296.564 24.583 298.374 23.9999 299.665 25.7693C301.167 27.8268 298.682 30.4405 298.682 30.4405C299.757 36.7739 302.609 34.2004 302.609 34.2004L304.825 48.623C305.002 51.3776 301.98 54.9497 296.689 55.6802C290.087 56.5917 286.074 51.4982 286.074 51.4982L285.137 43.8579C281.42 44.3606 278.266 42.4639 277.774 39.1933C277.02 34.1534 276.083 29.1202 275.434 24.0535C275.427 23.9798 275.414 23.9128 275.407 23.8391H275.401Z" fill="#FFCCCC"/>
<path fill-rule="evenodd" clip-rule="evenodd" d="M304.64 328.102C304.64 323.639 307.787 321.742 312.062 322.299C315.359 322.727 316.795 325.978 316.867 327.405V328.102L332.976 334.637C335.107 335.347 334.608 338.564 332.366 338.564H292.563L292.15 328.102H304.647H304.64Z" fill="#3B1A54"/>
<path fill-rule="evenodd" clip-rule="evenodd" d="M224.549 328.103C227.591 323.498 229.139 322.145 233.413 322.708C236.711 323.136 236.704 325.978 236.77 327.406V328.103L252.879 334.637C255.009 335.348 254.511 338.564 252.269 338.564H220.766L209.018 329.356L213.404 319.29L224.543 328.103H224.549Z" fill="#3B1A54"/>
<path d="M295.463 29.5557C294.978 29.5356 294.624 29.1536 294.643 28.6912C294.643 28.604 294.729 26.6202 296.309 25.7892C297.253 25.2865 297.967 25.4005 298.4 25.5814C299.305 25.9634 299.62 26.8816 299.652 26.9889C299.79 27.4312 299.554 27.907 299.128 28.0478C298.695 28.1885 298.236 27.9539 298.092 27.5183C298.066 27.4379 297.948 27.2033 297.764 27.1363C297.548 27.0492 297.227 27.1899 297.056 27.2837C296.335 27.6658 296.282 28.7448 296.282 28.7582C296.263 29.2072 295.896 29.5624 295.463 29.5624V29.5557Z" fill="#3B1A54"/>
<path d="M282.671 24.0736C282.442 24.0736 282.213 23.9798 282.055 23.7854C281.754 23.4369 281.793 22.9075 282.134 22.5992C283.956 20.9639 286.415 22.177 286.52 22.2306C286.926 22.4383 287.097 22.941 286.894 23.3565C286.697 23.772 286.205 23.9396 285.799 23.7385C285.786 23.7318 284.212 22.9745 283.222 23.8659C283.065 24.0066 282.875 24.0736 282.678 24.0736H282.671Z" fill="#584438"/>
<path d="M275.57 24.9583C275.321 24.9583 275.072 24.8443 274.914 24.6232C274.645 24.2546 274.718 23.7251 275.078 23.4436C276.698 22.2038 278.605 23.2962 278.684 23.3431C279.077 23.571 279.215 24.087 278.986 24.4891C278.763 24.8912 278.258 25.032 277.871 24.8041C277.838 24.784 276.809 24.2211 276.068 24.7907C275.917 24.9047 275.747 24.9583 275.576 24.9583H275.57Z" fill="#584438"/>
<path d="M280.055 33.1548C279.99 33.1548 279.917 33.1481 279.852 33.128L277.721 32.5717C277.315 32.4645 277.046 32.0624 277.111 31.6334L278.193 24.2746C278.259 23.8122 278.672 23.4905 279.131 23.5709C279.583 23.638 279.891 24.0669 279.819 24.5293L278.849 31.1375L280.258 31.5061C280.698 31.62 280.966 32.0758 280.855 32.5315C280.757 32.9135 280.429 33.1682 280.062 33.1682L280.055 33.1548Z" fill="#3B1A54"/>
<path d="M284.978 44.2533C283.864 44.2533 282.834 44.0455 281.93 43.6702C282.146 42.5376 282.323 41.6462 282.356 41.5926C282.448 41.4518 295.973 42.2494 295.973 42.2494L284.913 50.8212L284.978 44.2466V44.2533Z" fill="#3B1A54"/>
<path d="M291.948 44.7424C293.023 44.4408 294.072 44.0253 294.944 43.3283C296.124 42.3766 297.14 40.7011 296.93 39.1127L294.983 19.9718L290.597 14.4829C290.61 14.751 291.967 30.8894 291.967 30.8894C291.967 30.8894 292.341 35.2792 287.594 33.0809C284.644 31.7137 277.085 33.0943 276.967 34.0996C277.419 38.7039 277.983 43.2747 279.157 44.1392C282.389 46.5117 287.686 45.7745 291.299 44.9099C291.515 44.8563 291.731 44.8027 291.948 44.7424Z" fill="#584438"/>
<path d="M281.844 37.3167C280.802 37.3167 279.884 36.6398 279.438 36.1305C279.136 35.782 279.163 35.2525 279.503 34.9442C279.838 34.6359 280.356 34.6627 280.664 35.0046C280.762 35.1118 281.615 36.0166 282.401 35.4268C282.893 35.0582 282.67 34.2137 282.664 34.207C282.532 33.7647 282.775 33.2955 283.214 33.1615C283.654 33.0275 284.106 33.2821 284.237 33.7245C284.453 34.455 284.519 35.9227 283.378 36.7806C282.867 37.1693 282.342 37.3234 281.851 37.3234L281.844 37.3167Z" fill="#3B1A54"/>
<path d="M289.757 16.3127C289.534 16.3127 289.312 16.2189 289.154 16.0446C288.846 15.7028 288.866 15.1734 289.2 14.8584L292.714 11.5543C293.049 11.2393 293.566 11.2594 293.875 11.6012C294.183 11.943 294.163 12.4725 293.829 12.7875L290.315 16.0915C290.157 16.239 289.961 16.3127 289.757 16.3127Z" fill="#FFC876"/>
<path d="M337.749 115.174C337.618 115.174 337.481 115.14 337.356 115.073C336.956 114.852 336.812 114.343 337.028 113.934L346.056 97.0984C346.272 96.6896 346.777 96.5421 347.171 96.7633C347.571 96.9844 347.715 97.4938 347.498 97.9026L338.471 114.738C338.32 115.019 338.038 115.174 337.749 115.174Z" fill="#3B1A54"/>
<path fill-rule="evenodd" clip-rule="evenodd" d="M307.977 52.7515L304.247 44.8967L298.871 55.1776L285.253 46.1835L277.963 52.2153L287.987 66.524L296.753 59.5339L302.68 65.7734L307.977 52.7515Z" fill="#AE80C4"/>
<path d="M293.272 69.1378C293.069 69.1378 292.865 69.0574 292.715 68.9099L280.605 57.3959C280.271 57.0809 280.251 56.5448 280.566 56.2097C280.874 55.8679 281.392 55.8477 281.726 56.1694L292.983 66.8792L298.124 54.8491C298.242 54.5744 298.491 54.3867 298.779 54.3532C299.081 54.3264 299.356 54.4403 299.533 54.6749L306.332 63.7963L307.571 54.3532C307.63 53.8908 308.043 53.5624 308.495 53.6361C308.948 53.6964 309.263 54.1186 309.197 54.5811L307.689 66.0415C307.643 66.3766 307.407 66.6514 307.086 66.7385C306.765 66.8323 306.424 66.705 306.22 66.4369L299.061 56.8329L294.013 68.6418C293.908 68.8898 293.685 69.0708 293.429 69.1311C293.377 69.1445 293.318 69.1512 293.259 69.1512L293.272 69.1378Z" fill="#3B1A54"/>
<path d="M300.858 147.155C300.478 147.155 300.13 146.881 300.051 146.485C300.025 146.338 297.232 131.694 301.166 110.301C305.29 87.8764 298.15 57.8783 298.078 57.5767C297.966 57.1276 298.235 56.6719 298.681 56.558C299.114 56.444 299.566 56.7188 299.678 57.1745C299.75 57.4761 306.975 87.8295 302.785 110.616C298.917 131.667 301.638 146.016 301.671 146.157C301.763 146.613 301.474 147.055 301.028 147.149C300.976 147.162 300.917 147.169 300.864 147.169L300.858 147.155Z" fill="#3B1A54"/>
<path d="M311.583 330.1C311.203 330.1 310.862 329.832 310.783 329.436C310.685 328.981 310.967 328.538 311.413 328.438L316.697 327.278C317.143 327.184 317.575 327.466 317.674 327.922C317.772 328.377 317.49 328.82 317.044 328.92L311.76 330.08C311.701 330.093 311.642 330.1 311.583 330.1Z" fill="white"/>
<path d="M316.861 332.74C316.493 332.74 316.166 332.492 316.067 332.11C315.949 331.661 316.212 331.206 316.651 331.085L322.276 329.57C322.715 329.456 323.168 329.718 323.279 330.167C323.397 330.616 323.135 331.072 322.696 331.192L317.07 332.707C316.998 332.727 316.933 332.734 316.861 332.734V332.74Z" fill="white"/>
<path d="M231.63 330.1C231.25 330.1 230.909 329.832 230.83 329.436C230.732 328.981 231.014 328.538 231.46 328.438L236.744 327.278C237.19 327.184 237.622 327.466 237.721 327.922C237.819 328.377 237.537 328.82 237.091 328.92L231.807 330.08C231.748 330.093 231.689 330.1 231.63 330.1Z" fill="white"/>
<path d="M236.909 332.74C236.542 332.74 236.215 332.492 236.116 332.11C235.998 331.661 236.26 331.206 236.7 331.085L242.325 329.57C242.764 329.456 243.217 329.718 243.328 330.167C243.439 330.616 243.184 331.072 242.744 331.192L237.119 332.707C237.047 332.727 236.982 332.734 236.909 332.734V332.74Z" fill="white"/>
<path d="M295.836 315.034C295.404 315.034 295.037 314.685 295.017 314.236L293.358 279.694C293.339 279.232 293.686 278.836 294.138 278.816C294.578 278.809 294.978 279.151 294.997 279.614L296.656 314.156C296.676 314.618 296.328 315.013 295.876 315.034H295.836Z" fill="#3B1A54"/>
<path d="M220.773 309.659C220.675 309.659 220.57 309.639 220.471 309.598C220.052 309.431 219.842 308.941 220.013 308.506L226.824 290.973C226.995 290.545 227.473 290.33 227.893 290.504C228.313 290.672 228.522 291.161 228.352 291.597L221.54 309.122C221.409 309.451 221.101 309.652 220.773 309.652V309.659Z" fill="#3B1A54"/>
<path fill-rule="evenodd" clip-rule="evenodd" d="M307.178 87.6285C307.178 88.7879 307.846 89.7329 308.673 89.7329C309.499 89.7329 310.167 88.7946 310.167 87.6285C310.167 86.4623 309.499 85.5308 308.673 85.5308C307.846 85.5308 307.178 86.469 307.178 87.6285Z" fill="white"/>
<path fill-rule="evenodd" clip-rule="evenodd" d="M305.244 135.856C305.244 137.015 305.913 137.954 306.739 137.954C307.565 137.954 308.234 137.015 308.234 135.856C308.234 134.697 307.565 133.758 306.739 133.758C305.913 133.758 305.244 134.697 305.244 135.856Z" fill="white"/>
<path fill-rule="evenodd" clip-rule="evenodd" d="M306.738 110.455C306.738 111.615 307.407 112.56 308.233 112.56C309.059 112.56 309.728 111.622 309.728 110.455C309.728 109.289 309.059 108.358 308.233 108.358C307.407 108.358 306.738 109.296 306.738 110.455Z" fill="white"/>
<path d="M284.369 27.4714C284.73 27.4312 284.992 27.0961 284.953 26.7275L284.835 25.6552C284.795 25.2865 284.468 25.0185 284.107 25.0587C283.746 25.0989 283.484 25.434 283.523 25.8026L283.641 26.8749C283.681 27.2435 284.009 27.5116 284.369 27.4714Z" fill="#3B1A54"/>
<path d="M276.861 28.3493C277.222 28.3091 277.484 27.974 277.445 27.6054L277.327 26.5331C277.288 26.1645 276.96 25.8964 276.599 25.9366C276.239 25.9768 275.976 26.3119 276.016 26.6805L276.134 27.7528C276.173 28.1215 276.501 28.3895 276.861 28.3493Z" fill="#3B1A54"/>
<path d="M160.994 285.94C156.293 287.462 151.002 298.466 153.257 306.522C155.513 314.578 156.391 316.307 158.233 321.769C159.23 324.731 162.934 337.613 165.819 337.593L170.002 337.559C171.267 337.546 172.061 336.172 171.425 335.073C170.395 333.283 169.123 330.763 168.553 328.371C167.733 324.926 167.465 303.942 168.264 298.875C168.264 298.875 165.694 284.419 160.994 285.94Z" fill="white"/>
<path d="M134.14 286.731C134.14 286.731 122.207 291.657 124.482 304.512C125.217 308.674 121.794 315.134 119.729 318.626C118.306 321.032 118.051 323.947 118.995 326.581L122.371 335.977C122.627 336.681 123.296 337.15 124.05 337.15H131.019C132.363 337.15 130.088 333.632 129.445 332.459C127.38 328.686 127.419 323.766 130.153 319.591C134.035 313.666 139.149 313.432 140.329 307.514C141.509 301.59 134.133 286.731 134.133 286.731H134.14Z" fill="#584438"/>
<path d="M153.429 285.002C153.429 285.002 122.359 285.002 116.996 285.84C113.377 286.47 110.8 289.137 108.932 292.616L119.022 313.331L150.124 313.204L156.562 279.895L153.422 285.002H153.429Z" fill="#CF9A70"/>
<path d="M181.731 265.988C181.731 265.988 179.423 267.315 176.762 267.403C174.1 267.49 168.573 262.329 162.738 267.403C156.903 272.476 158.66 276.075 155.277 280.639L160.194 289.01C158.365 287.173 156.647 285.853 155.572 285.981C150.622 286.557 142.886 296.281 143.207 304.592C143.535 312.902 143.987 314.759 144.512 320.456C144.794 323.545 145.41 336.855 148.229 337.391L152.327 337.552C153.566 337.787 154.661 337.217 154.3 336.024C153.71 334.074 153.061 331.366 153.061 328.913C153.061 325.388 155.106 316.515 157.073 311.723C157.073 311.723 165.708 306.629 168.271 298.882L169.871 289.68C169.871 289.68 186.675 276.685 187.888 275.438C189.107 274.192 186.963 263.918 181.738 265.995L181.731 265.988Z" fill="#CF9A70"/>
<path d="M108.938 292.615C109.062 292.488 106.059 283.963 105.922 283.259C104.669 277 104.86 270.11 108.269 264.561C108.656 263.931 109.16 263.267 109.888 263.167C111.908 262.892 110.872 267.262 110.845 268.368C110.741 272.57 110.813 276.919 111.953 280.994C112.078 281.45 114.478 287.14 114.891 286.731L108.951 292.615H108.938Z" fill="#CF9A70"/>
<path d="M173.065 271.39C173.334 271.142 173.36 270.713 173.117 270.439L172.416 269.634C172.173 269.36 171.754 269.333 171.485 269.581C171.216 269.829 171.19 270.258 171.432 270.532L172.134 271.337C172.376 271.611 172.796 271.638 173.065 271.39Z" fill="#3B1A54"/>
<path d="M179.837 281.879C179.523 282.127 179.201 282.375 178.887 282.616C179.201 282.368 179.516 282.127 179.837 281.879Z" fill="white"/>
<path d="M179.837 281.879C183.581 278.964 187.298 276.028 187.875 275.438C188.105 275.204 188.216 274.654 188.21 273.924C188.19 271.377 186.741 266.672 183.948 265.841C183.548 265.72 183.122 265.68 182.67 265.741C182.368 265.781 182.053 265.861 181.725 265.989C181.725 265.989 181.398 266.176 180.853 266.411C180.67 266.491 180.467 266.578 180.237 266.659C179.326 267.001 178.087 267.356 176.756 267.396C176.756 267.396 180.336 275.371 179.837 281.872V281.879Z" fill="white"/>
<path d="M178.527 282.904C178.284 283.092 178.041 283.28 177.799 283.467C178.041 283.28 178.277 283.092 178.527 282.904Z" fill="white"/>
<path d="M143.483 306.623H123.008C122.804 308.365 120.182 314.209 120.32 313.224L143.509 313.211L143.483 306.623Z" fill="white"/>
<path d="M143.503 314.049C143.077 314.049 142.723 313.714 142.683 313.278C142.296 308.392 141.601 300.343 141.385 299.566C141.26 299.117 141.516 298.654 141.955 298.527C142.401 298.393 142.847 298.661 142.972 299.11C143.293 300.276 144.152 311.006 144.322 313.144C144.362 313.606 144.021 314.015 143.568 314.049C143.549 314.049 143.522 314.049 143.503 314.049Z" fill="#3B1A54"/>
<path d="M181.731 265.989C181.731 265.989 181.508 266.116 181.121 266.297C181.121 266.297 183.049 270.64 187.094 269.172C186.038 266.84 184.242 264.99 181.731 265.989Z" fill="#3B1A54"/>
<path d="M183.619 276.37C182.164 276.37 180.859 275.767 180.774 275.733C180.361 275.539 180.184 275.043 180.367 274.621C180.557 274.199 181.043 274.011 181.456 274.205C182.091 274.5 183.96 275.09 184.976 274.299C185.337 274.024 185.855 274.091 186.13 274.46C186.405 274.828 186.333 275.358 185.973 275.639C185.258 276.196 184.412 276.37 183.619 276.37Z" fill="#3B1A54"/>
<path d="M115.199 286.336C115.199 286.336 104.912 291.657 107.187 304.511C107.922 308.673 104.499 315.134 102.434 318.626C101.011 321.032 100.756 323.947 101.7 326.581L105.083 336.004C105.332 336.694 105.988 337.15 106.722 337.15H113.776C115.094 337.15 113.619 334.168 112.99 333.022C110.924 329.255 110.105 323.786 112.852 319.591C116.733 313.666 121.847 313.432 123.027 307.514C124.207 301.589 115.192 286.336 115.192 286.336H115.199Z" fill="#CF9A70"/>
<path d="M159.093 269.474C159.093 269.474 150.996 278.36 149.717 281.691C148.439 285.015 154.051 300.182 159.283 299.338C164.515 298.5 169.084 293.829 166.16 287.107C163.236 280.384 162.495 278.267 163.053 274.963C163.61 271.658 160.974 267.349 159.093 269.474Z" fill="#584438"/>
<path d="M120.32 314.048C120.189 314.048 120.064 314.022 119.94 313.955C119.54 313.74 119.382 313.231 119.592 312.822C124.555 303.091 120.549 297.28 120.379 297.039C120.11 296.663 120.189 296.141 120.556 295.866C120.923 295.591 121.434 295.672 121.703 296.04C121.9 296.315 126.515 302.89 121.054 313.599C120.91 313.888 120.621 314.048 120.326 314.048H120.32Z" fill="#3B1A54"/>
<path d="M105.607 271.719C106.597 272.831 108.02 274.091 110.839 273.233C110.78 271.605 110.793 269.976 110.832 268.368C110.859 267.262 111.901 262.892 109.875 263.167C109.154 263.267 108.649 263.931 108.256 264.561C106.892 266.773 106.046 269.199 105.601 271.719H105.607Z" fill="white"/>
<path d="M111.22 327.546C110.44 327.258 109.607 327.097 108.729 327.097C106.368 327.097 104.27 328.25 102.939 330.039L105.083 336.011C105.332 336.701 105.988 337.157 106.722 337.157H113.777C115.095 337.157 113.62 334.174 112.99 333.028C112.112 331.433 111.463 329.53 111.213 327.546H111.22Z" fill="white"/>
<path d="M149.535 327.097C147.928 327.097 146.44 327.633 145.24 328.538C145.765 332.801 146.65 337.09 148.23 337.391L152.327 337.552C153.567 337.787 154.662 337.217 154.301 336.024C153.711 334.074 153.062 331.366 153.062 328.913C153.062 328.652 153.075 328.364 153.095 328.056C152.046 327.452 150.833 327.104 149.541 327.104L149.535 327.097Z" fill="white"/>
<path d="M191.355 306.603C191.047 306.603 190.739 306.603 190.424 306.589C178.905 306.321 169.281 300.966 165.904 292.944C165.727 292.515 165.917 292.019 166.337 291.838C166.75 291.65 167.235 291.852 167.419 292.28C170.493 299.586 179.757 304.659 190.464 304.907C206.69 305.229 221.16 295.404 229.185 278.488C238.586 258.663 240.94 221.253 241.523 204.257C237.229 221.487 224.438 258.703 193.519 262.276C185.061 263.254 177.967 261.103 172.414 255.882C162.016 246.104 157.178 226.018 158.037 196.187C158.069 195.001 158.096 194.19 158.076 193.842C158.05 193.379 158.397 192.984 158.85 192.957C159.322 192.923 159.689 193.285 159.715 193.748C159.735 194.123 159.715 194.981 159.676 196.234C158.83 225.555 163.491 245.206 173.522 254.642C178.708 259.521 185.376 261.518 193.329 260.607C232.246 256.11 241.635 195.953 241.727 195.343C241.792 194.907 242.192 194.599 242.599 194.632C243.025 194.666 243.359 195.028 243.359 195.47C243.359 196.04 243.176 252.826 230.66 279.225C222.497 296.429 207.857 306.603 191.355 306.603Z" fill="#3B1A54"/>
<path d="M126.148 177.951C126.148 177.951 144.374 186.932 160.404 182.87C160.404 182.87 160.679 191.275 160.404 194.773C160.404 194.773 133.956 197.434 122.45 187.394C122.45 187.394 125.328 179.191 126.148 177.951Z" fill="#F75454"/>
<path d="M143.246 188.192C143.246 189.184 142.459 189.995 141.482 189.995C140.505 189.995 139.719 189.19 139.719 188.192C139.719 187.193 140.505 186.389 141.482 186.389C142.459 186.389 143.246 187.193 143.246 188.192Z" fill="#FFC876"/>
<path d="M131.36 185.203C131.36 186.195 130.574 187.006 129.597 187.006C128.62 187.006 127.833 186.201 127.833 185.203C127.833 184.204 128.62 183.4 129.597 183.4C130.574 183.4 131.36 184.204 131.36 185.203Z" fill="#FFC876"/>
<path d="M156.301 189.197C156.301 190.189 155.514 191 154.537 191C153.56 191 152.773 190.196 152.773 189.197C152.773 188.199 153.56 187.394 154.537 187.394C155.514 187.394 156.301 188.199 156.301 189.197Z" fill="#FFC876"/>
<path d="M273.806 92.7622C273.747 92.7622 273.682 92.7555 273.623 92.742C273.183 92.6415 272.901 92.1858 273.006 91.7367C273.465 89.706 275.766 79.5257 275.95 78.9561C276.094 78.5137 276.56 78.2791 276.992 78.4266C277.419 78.574 277.655 79.0499 277.51 79.4855C277.36 79.9815 275.688 87.3067 274.606 92.1121C274.521 92.5008 274.18 92.7622 273.806 92.7622Z" fill="#3B1A54"/>
<path d="M382.234 55.3182C382.247 54.4269 372.806 47.7182 372.806 47.7182C372.177 47.678 371.455 47.5573 370.826 48.4487C369.495 50.3252 372.977 53.5288 372.977 53.5288C372.977 53.5288 372.229 53.006 371.115 52.6374C370.531 52.4431 369.626 52.8854 369.305 53.5489C368.033 56.1761 371.993 59.6008 371.993 59.6008C371.993 59.6008 368.807 57.8181 368.177 58.5419C365.824 61.2428 369.875 64.0308 371.783 65.4516C368.663 63.3472 367.397 64.7546 367.122 65.264C365.988 67.3818 370.177 70.1698 371.783 71.1014C373.186 71.9123 376.55 73.5878 377.979 72.9042C380.313 71.785 380.274 66.3296 380.47 64.2788C380.857 60.2107 382.175 61.0283 382.247 55.3249L382.234 55.3182ZM373.357 61.9666C373.39 62.0135 373.416 62.047 373.422 62.0671C373.422 62.0671 373.396 62.0336 373.357 61.9666Z" fill="#FFCCCC"/>
<path d="M376.701 69.2048C376.563 69.2048 376.419 69.1713 376.294 69.0909C374.137 67.8309 367.738 63.8767 367.738 63.8767L368.591 62.4358C368.591 62.4358 374.963 66.3699 377.114 67.6298C377.507 67.8577 377.645 68.3738 377.415 68.7759C377.264 69.044 376.989 69.1981 376.701 69.1981V69.2048Z" fill="#3B1A54"/>
<path d="M378.214 64.6072C378.037 64.6072 377.86 64.5469 377.709 64.4263C376.024 63.0725 368.851 58.2604 368.779 58.2135C368.399 57.9588 368.294 57.4361 368.543 57.0474C368.792 56.6587 369.304 56.5514 369.684 56.8061C369.979 57.0072 376.981 61.7053 378.725 63.106C379.079 63.3942 379.145 63.9236 378.863 64.2855C378.699 64.5 378.456 64.6072 378.214 64.6072Z" fill="#3B1A54"/>
<path d="M379.172 59.6075C378.916 59.6075 378.667 59.4869 378.51 59.2657C377.533 57.8918 372.177 54.0248 370.197 52.6508C369.823 52.3895 369.725 51.8667 369.98 51.4847C370.236 51.1027 370.747 51.0022 371.121 51.2635C371.875 51.7863 378.51 56.4241 379.834 58.2738C380.103 58.6491 380.024 59.1719 379.657 59.4467C379.513 59.5539 379.343 59.6075 379.172 59.6075Z" fill="#3B1A54"/>
<path d="M373.723 72.9378C373.605 72.9378 373.487 72.911 373.376 72.8574L367.822 70.1833C367.409 69.9823 367.239 69.4863 367.429 69.0641C367.626 68.6419 368.111 68.4609 368.524 68.662L374.077 71.3361C374.49 71.5371 374.661 72.0331 374.47 72.4553C374.333 72.7569 374.031 72.9378 373.723 72.9378Z" fill="#3B1A54"/>
<path d="M360.474 9.44982C356.842 9.61737 352.718 12.64 353.367 16.688C353.747 19.0739 355.681 20.8164 357.327 22.5455C360.29 25.6686 359.641 28.1484 359.943 32.0757C360.093 33.9992 361.26 35.8557 362.998 36.5996C365.076 37.4842 368.564 36.3181 368.636 33.6105C368.662 32.498 367.876 31.5731 367.325 30.6147C366.269 28.7784 366.02 26.5533 366.23 24.4355C366.558 21.1716 368.413 18.0686 367.627 14.7377C366.918 11.7218 363.968 9.51684 360.939 9.44312C360.782 9.44312 360.625 9.44312 360.467 9.44312L360.474 9.44982Z" fill="#A3A3A3"/>
<path d="M368.165 8.17643C370.004 8.17643 371.495 6.34607 371.495 4.08821C371.495 1.83036 370.004 0 368.165 0C366.325 0 364.834 1.83036 364.834 4.08821C364.834 6.34607 366.325 8.17643 368.165 8.17643Z" fill="#A3A3A3"/>
<path d="M422.18 338.705H14.7121C14.2597 338.705 13.8926 338.33 13.8926 337.868C13.8926 337.405 14.2597 337.03 14.7121 337.03H422.18C422.633 337.03 423 337.405 423 337.868C423 338.33 422.633 338.705 422.18 338.705Z" fill="#3B1A54"/>
<path d="M198.613 290.317C198.233 288.199 196.705 284.278 194.588 285.639C193.408 286.396 193.119 289.955 193.965 291C194.063 290.866 194.103 290.679 194.207 290.551C194.68 291.523 195.414 292.354 196.358 292.87C196.797 293.111 197.322 293.286 197.787 293.112C198.515 292.837 198.725 291.885 198.705 291.087C198.705 290.88 198.666 290.618 198.613 290.317Z" fill="#A3A3A3"/>
<path d="M212.658 274.299C212.429 272.818 212.002 271.37 211.334 270.016C210.494 268.321 209.131 266.819 207.367 266.21C204.915 265.358 202.489 266.444 201.925 269.038C201.65 270.304 201.827 271.631 202.096 272.898C202.83 276.37 204.266 279.687 206.285 282.583C207.013 283.621 207.846 284.64 208.967 285.203C209.498 285.471 210.14 285.625 210.665 285.35C211.196 285.082 211.458 284.466 211.648 283.896C212.684 280.874 213.143 277.502 212.651 274.299H212.658Z" fill="#A3A3A3"/>
<path d="M366.106 252.685C364.663 250.313 361.759 252.008 360.448 253.65C359.412 254.95 358.841 256.579 358.441 258.207C358.264 258.938 358.153 259.809 358.664 260.345C358.959 260.647 359.385 260.761 359.799 260.808C363.155 261.19 366.44 257.745 366.519 254.394C366.538 253.724 366.381 253.147 366.099 252.685H366.106Z" fill="#A3A3A3"/>
<path d="M262.844 186.523C262.844 186.523 265.867 192.18 265.775 193.895C265.683 195.611 263.526 200.999 263.854 204.002C264.182 207.004 261.894 210.295 259.743 210.262C257.593 210.235 256.183 209.444 256.183 209.444C256.183 209.444 254.669 210.851 252.02 210.201C249.371 209.551 249.404 207.594 249.404 207.594C249.404 207.594 248.335 208.606 246.047 208.217C243.956 207.862 242.828 205.054 242.828 205.054C242.828 205.054 241.786 205.805 240.75 204.317C239.707 202.829 238.711 198.218 238.711 198.218L240.632 186.289L262.851 186.53L262.844 186.523Z" fill="#FFCCCC"/>
<path d="M242.935 206.87C242.522 206.87 242.168 206.555 242.122 206.133L241.728 202.769C241.676 202.306 241.997 201.891 242.449 201.83C242.895 201.784 243.308 202.105 243.361 202.561L243.754 205.925C243.807 206.388 243.485 206.803 243.033 206.864C243 206.864 242.967 206.864 242.935 206.864V206.87Z" fill="#3B1A54"/>
<path d="M248.729 209.196C248.303 209.196 247.942 208.854 247.909 208.418L247.608 204.062C247.575 203.6 247.916 203.198 248.368 203.164C248.807 203.104 249.214 203.479 249.247 203.942L249.548 208.298C249.581 208.76 249.24 209.162 248.788 209.196C248.768 209.196 248.748 209.196 248.729 209.196Z" fill="#3B1A54"/>
<path d="M255.357 209.484C255.357 209.484 255.174 205.564 255.174 205.047C255.174 204.585 255.541 204.21 255.993 204.21C256.446 204.21 256.813 204.585 256.813 205.047C256.813 205.557 256.996 209.404 256.996 209.404L255.357 209.484Z" fill="#3B1A54"/>
<path d="M263.849 205.885C263.396 205.885 263.029 205.51 263.029 205.047V198.486C263.029 198.024 263.396 197.648 263.849 197.648C264.301 197.648 264.668 198.024 264.668 198.486V205.047C264.668 205.51 264.301 205.885 263.849 205.885Z" fill="#3B1A54"/>
<path d="M190.93 146.774C190.779 146.774 190.628 146.733 190.491 146.64C190.11 146.392 189.999 145.869 190.242 145.48L199.945 129.978C200.187 129.59 200.699 129.476 201.079 129.724C201.459 129.972 201.571 130.494 201.328 130.883L191.625 146.385C191.468 146.633 191.205 146.774 190.93 146.774Z" fill="#3B1A54"/>
<path d="M203.414 157.188C202.987 157.188 202.627 156.853 202.594 156.411C202.561 155.949 202.902 155.546 203.354 155.513L217.077 154.488C217.555 154.454 217.922 154.803 217.955 155.265C217.988 155.727 217.647 156.13 217.195 156.163L203.473 157.188C203.473 157.188 203.433 157.188 203.414 157.188Z" fill="#3B1A54"/>
<path d="M204.528 179.841C204.345 179.841 204.161 179.781 204.01 179.654L192.95 170.405C192.596 170.11 192.55 169.58 192.832 169.225C193.12 168.863 193.638 168.81 193.986 169.105L205.046 178.353C205.4 178.648 205.446 179.178 205.164 179.533C205 179.734 204.764 179.841 204.528 179.841Z" fill="#3B1A54"/>
<path d="M268.122 166.94C266.725 166.94 265.735 166.779 265.637 166.759C265.191 166.685 264.89 166.249 264.962 165.794C265.034 165.338 265.46 165.03 265.906 165.103C265.958 165.11 271.321 165.968 274.626 163.448C276.048 162.362 276.894 160.774 277.143 158.73C278.212 150.044 278.028 147.484 278.028 147.457C277.989 146.995 278.33 146.586 278.776 146.552C279.228 146.512 279.622 146.854 279.667 147.316C279.674 147.424 279.884 149.997 278.776 158.944C278.468 161.464 277.399 163.435 275.603 164.802C273.275 166.578 270.233 166.94 268.122 166.94Z" fill="#3B1A54"/>
<path d="M322.52 166.947C321.576 166.947 318.96 166.799 317.144 165.285C314.528 163.093 315.695 149.924 315.951 147.31C315.997 146.847 316.397 146.532 316.849 146.559C317.302 146.606 317.629 147.022 317.583 147.477C316.875 154.588 316.902 162.919 318.18 163.984C319.885 165.405 322.75 165.264 322.776 165.264C323.215 165.177 323.615 165.593 323.641 166.055C323.668 166.518 323.32 166.913 322.868 166.94C322.842 166.94 322.717 166.947 322.514 166.947H322.52Z" fill="#3B1A54"/>
<path d="M325.018 105.918V119.483C330.145 125.669 336.432 132.25 341.729 134.563C346.299 136.56 350.547 135.286 354.396 132.089C340.123 130.809 325.018 105.918 325.018 105.918Z" fill="#934291"/>
<path d="M324.611 120.086C324.12 120.066 323.766 119.671 323.792 119.208C323.805 118.927 325.011 91.1 323.182 73.5676C323.136 73.1052 323.457 72.6897 323.91 72.6428C324.362 72.5891 324.769 72.9309 324.815 73.3867C326.657 91.0464 325.444 119 325.431 119.275C325.411 119.724 325.051 120.079 324.611 120.079V120.086Z" fill="#3B1A54"/>
<path fill-rule="evenodd" clip-rule="evenodd" d="M272.318 77.6023L267.781 147.39H275.085C274.259 137.156 272.318 77.6023 272.318 77.6023Z" fill="#934291"/>
<path d="M267.427 148.228C267.395 148.228 267.355 148.228 267.323 148.221C266.87 148.161 266.556 147.739 266.615 147.283C266.654 146.968 270.614 115.663 270.614 74.2044C270.614 73.742 270.981 73.3667 271.433 73.3667C271.886 73.3667 272.253 73.742 272.253 74.2044C272.253 115.784 268.28 147.189 268.24 147.504C268.188 147.926 267.834 148.235 267.427 148.235V148.228Z" fill="#3B1A54"/>
</g>
<defs>
<clipPath id="clip0_952_17573">
<rect width="423" height="339" fill="white"/>
</clipPath>
</defs>
</svg>
