<?xml version="1.0" encoding="UTF-8"?>
<svg xmlns="http://www.w3.org/2000/svg" xmlns:xlink="http://www.w3.org/1999/xlink" width="48px" height="px" viewBox="0 0 48 45" version="1.1">
<defs>
<clipPath id="clip1">
  <path d="M 8 0.175781 L 22 0.175781 L 22 18 L 8 18 Z M 8 0.175781 "/>
</clipPath>
<clipPath id="clip2">
  <path d="M 6 19 L 42 19 L 42 44.292969 L 6 44.292969 Z M 6 19 "/>
</clipPath>
<clipPath id="clip3">
  <path d="M 26 0.175781 L 40 0.175781 L 40 18 L 26 18 Z M 26 0.175781 "/>
</clipPath>
</defs>
<g id="surface1">
<g clip-path="url(#clip1)" clip-rule="nonzero">
<path style=" stroke:none;fill-rule:nonzero;fill:rgb(68.235294%,50.196078%,76.862745%);fill-opacity:1;" d="M 16.464844 17.277344 C 19.550781 16.652344 21.910156 13.914062 21.652344 10.058594 C 21.398438 6.199219 19.296875 0.855469 16.464844 0.230469 C 13.15625 -0.484375 8.296875 5.335938 9.046875 10.316406 C 9.792969 15.292969 13.375 17.902344 16.464844 17.277344 Z M 16.464844 17.277344 "/>
</g>
<path style=" stroke:none;fill-rule:nonzero;fill:rgb(68.235294%,50.196078%,76.862745%);fill-opacity:1;" d="M 9.648438 21.5 C 9.71875 18.011719 7.785156 14.539062 5.574219 14.152344 C 3.617188 13.839844 0 17.277344 0 20.507812 C 0 23.742188 2.851562 26.972656 5.574219 26.605469 C 8.296875 26.238281 9.609375 23.796875 9.648438 21.5 Z M 9.648438 21.5 "/>
<g clip-path="url(#clip2)" clip-rule="nonzero">
<path style=" stroke:none;fill-rule:nonzero;fill:rgb(68.235294%,50.196078%,76.862745%);fill-opacity:1;" d="M 24.007812 19.386719 C 18.4375 19.386719 9.042969 25.359375 6.816406 32.941406 C 4.585938 40.527344 10.195312 43.613281 12.882812 44.128906 C 17.339844 44.992188 20.683594 41.757812 24.007812 41.757812 C 27.351562 41.757812 30.695312 44.992188 35.136719 44.128906 C 37.824219 43.597656 43.433594 40.527344 41.203125 32.941406 C 38.972656 25.359375 29.5625 19.386719 24.007812 19.386719 Z M 24.007812 19.386719 "/>
</g>
<g clip-path="url(#clip3)" clip-rule="nonzero">
<path style=" stroke:none;fill-rule:nonzero;fill:rgb(68.235294%,50.196078%,76.862745%);fill-opacity:1;" d="M 31.554688 17.277344 C 34.644531 17.902344 38.242188 15.292969 38.972656 10.316406 C 39.703125 5.335938 34.84375 -0.484375 31.554688 0.230469 C 28.707031 0.855469 26.605469 6.199219 26.367188 10.058594 C 26.128906 13.914062 28.46875 16.652344 31.554688 17.277344 Z M 31.554688 17.277344 "/>
</g>
<path style=" stroke:none;fill-rule:nonzero;fill:rgb(68.235294%,50.196078%,76.862745%);fill-opacity:1;" d="M 42.445312 14.171875 C 40.214844 14.539062 38.28125 18.027344 38.371094 21.519531 C 38.425781 23.816406 39.722656 26.238281 42.445312 26.625 C 45.167969 26.992188 48.019531 23.757812 48.019531 20.527344 C 48.019531 17.292969 44.402344 13.859375 42.445312 14.191406 Z M 42.445312 14.171875 "/>
<path style=" stroke:none;fill-rule:nonzero;fill:rgb(100%,100%,100%);fill-opacity:1;" d="M 22.269531 39.070312 C 21.585938 39.070312 21.242188 38.878906 21.242188 38.488281 C 21.242188 37.640625 21.457031 36.820312 21.886719 36.019531 C 22.328125 35.21875 23.0625 34.324219 24.085938 33.335938 C 24.445312 32.984375 24.789062 32.628906 25.117188 32.277344 C 25.441406 31.914062 25.710938 31.558594 25.917969 31.21875 C 26.128906 30.867188 26.238281 30.53125 26.25 30.214844 C 26.261719 29.601562 26.121094 29.148438 25.832031 28.855469 C 25.550781 28.558594 25.152344 28.414062 24.628906 28.414062 C 23.917969 28.414062 23.464844 28.777344 23.265625 29.507812 C 23.171875 29.824219 23.050781 30.070312 22.898438 30.25 C 22.757812 30.414062 22.539062 30.496094 22.234375 30.496094 C 21.945312 30.496094 21.710938 30.394531 21.539062 30.195312 C 21.363281 29.996094 21.316406 29.726562 21.398438 29.382812 C 21.585938 28.511719 21.960938 27.835938 22.53125 27.355469 C 23.101562 26.859375 23.800781 26.613281 24.628906 26.613281 C 25.300781 26.613281 25.902344 26.753906 26.425781 27.035156 C 26.960938 27.320312 27.378906 27.730469 27.683594 28.273438 C 27.984375 28.8125 28.125 29.476562 28.101562 30.265625 C 28.089844 30.820312 27.960938 31.332031 27.714844 31.800781 C 27.472656 32.273438 27.148438 32.730469 26.738281 33.179688 C 26.34375 33.613281 25.890625 34.078125 25.378906 34.570312 C 24.84375 35.101562 24.367188 35.605469 23.945312 36.089844 C 23.539062 36.570312 23.300781 36.988281 23.230469 37.34375 L 26.863281 37.34375 C 27.546875 37.34375 27.890625 37.628906 27.890625 38.207031 C 27.890625 38.785156 27.546875 39.070312 26.863281 39.070312 Z M 22.269531 39.070312 "/>
</g>
</svg>
