<?xml version="1.0" encoding="UTF-8"?>
<svg xmlns="http://www.w3.org/2000/svg" xmlns:xlink="http://www.w3.org/1999/xlink" width="48px" height="px" viewBox="0 0 48 44" version="1.1">
<defs>
<clipPath id="clip1">
  <path d="M 9 0.171875 L 22 0.171875 L 22 17 L 9 17 Z M 9 0.171875 "/>
</clipPath>
<clipPath id="clip2">
  <path d="M 0.429688 13 L 10 13 L 10 27 L 0.429688 27 Z M 0.429688 13 "/>
</clipPath>
<clipPath id="clip3">
  <path d="M 6 18 L 42 18 L 42 43.308594 L 6 43.308594 Z M 6 18 "/>
</clipPath>
<clipPath id="clip4">
  <path d="M 26 0.171875 L 39 0.171875 L 39 17 L 26 17 Z M 26 0.171875 "/>
</clipPath>
<clipPath id="clip5">
  <path d="M 38 13 L 47.570312 13 L 47.570312 27 L 38 27 Z M 38 13 "/>
</clipPath>
</defs>
<g id="surface1">
<g clip-path="url(#clip1)" clip-rule="nonzero">
<path style=" stroke:none;fill-rule:nonzero;fill:rgb(68.235294%,50.196078%,76.862745%);fill-opacity:1;" d="M 16.597656 16.890625 C 19.628906 16.28125 21.945312 13.605469 21.695312 9.835938 C 21.441406 6.0625 19.378906 0.835938 16.597656 0.226562 C 13.351562 -0.472656 8.578125 5.21875 9.3125 10.085938 C 10.046875 14.953125 13.566406 17.503906 16.597656 16.890625 Z M 16.597656 16.890625 "/>
</g>
<g clip-path="url(#clip2)" clip-rule="nonzero">
<path style=" stroke:none;fill-rule:nonzero;fill:rgb(68.235294%,50.196078%,76.862745%);fill-opacity:1;" d="M 9.902344 21.023438 C 9.976562 17.609375 8.074219 14.214844 5.902344 13.839844 C 3.980469 13.535156 0.429688 16.890625 0.429688 20.054688 C 0.429688 23.214844 3.226562 26.375 5.902344 26.015625 C 8.574219 25.65625 9.867188 23.269531 9.902344 21.023438 Z M 9.902344 21.023438 "/>
</g>
<g clip-path="url(#clip3)" clip-rule="nonzero">
<path style=" stroke:none;fill-rule:nonzero;fill:rgb(68.235294%,50.196078%,76.862745%);fill-opacity:1;" d="M 24.007812 18.957031 C 18.535156 18.957031 9.3125 24.792969 7.121094 32.210938 C 4.933594 39.628906 10.441406 42.644531 13.082031 43.148438 C 17.457031 43.992188 20.742188 40.832031 24.007812 40.832031 C 27.292969 40.832031 30.578125 43.992188 34.9375 43.148438 C 37.574219 42.628906 43.085938 39.628906 40.894531 32.210938 C 38.707031 24.792969 29.464844 18.957031 24.007812 18.957031 Z M 24.007812 18.957031 "/>
</g>
<g clip-path="url(#clip4)" clip-rule="nonzero">
<path style=" stroke:none;fill-rule:nonzero;fill:rgb(68.235294%,50.196078%,76.862745%);fill-opacity:1;" d="M 31.417969 16.890625 C 34.453125 17.503906 37.988281 14.953125 38.707031 10.085938 C 39.421875 5.21875 34.648438 -0.472656 31.417969 0.226562 C 28.621094 0.835938 26.554688 6.0625 26.324219 9.835938 C 26.089844 13.605469 28.386719 16.28125 31.417969 16.890625 Z M 31.417969 16.890625 "/>
</g>
<g clip-path="url(#clip5)" clip-rule="nonzero">
<path style=" stroke:none;fill-rule:nonzero;fill:rgb(68.235294%,50.196078%,76.862745%);fill-opacity:1;" d="M 42.117188 13.855469 C 39.925781 14.214844 38.023438 17.628906 38.113281 21.039062 C 38.167969 23.285156 39.441406 25.65625 42.117188 26.035156 C 44.789062 26.390625 47.589844 23.230469 47.589844 20.070312 C 47.589844 16.910156 44.035156 13.550781 42.117188 13.875 Z M 42.117188 13.855469 "/>
</g>
<path style=" stroke:none;fill-rule:nonzero;fill:rgb(100%,100%,100%);fill-opacity:1;" d="M 24.246094 38.375 C 22.945312 38.375 21.964844 37.851562 21.316406 36.804688 C 21.132812 36.507812 21.085938 36.242188 21.179688 36.011719 C 21.269531 35.78125 21.445312 35.625 21.710938 35.546875 C 21.996094 35.453125 22.230469 35.453125 22.414062 35.546875 C 22.59375 35.636719 22.796875 35.800781 23.011719 36.03125 C 23.136719 36.203125 23.296875 36.347656 23.492188 36.460938 C 23.699219 36.5625 23.9375 36.617188 24.210938 36.617188 C 24.796875 36.617188 25.257812 36.472656 25.601562 36.183594 C 25.945312 35.898438 26.113281 35.414062 26.113281 34.734375 C 26.113281 34.125 25.945312 33.636719 25.601562 33.269531 C 25.257812 32.902344 24.765625 32.714844 24.125 32.714844 C 23.554688 32.714844 23.269531 32.433594 23.269531 31.871094 C 23.269531 31.308594 23.554688 31.027344 24.125 31.027344 C 24.699219 31.027344 25.121094 30.859375 25.394531 30.523438 C 25.667969 30.179688 25.804688 29.761719 25.804688 29.265625 C 25.804688 28.691406 25.640625 28.289062 25.308594 28.058594 C 24.988281 27.816406 24.625 27.695312 24.210938 27.695312 C 23.984375 27.695312 23.777344 27.753906 23.59375 27.867188 C 23.421875 27.984375 23.273438 28.121094 23.148438 28.28125 C 22.933594 28.511719 22.726562 28.671875 22.53125 28.765625 C 22.347656 28.855469 22.121094 28.847656 21.847656 28.730469 C 21.582031 28.628906 21.414062 28.460938 21.332031 28.230469 C 21.253906 27.988281 21.316406 27.730469 21.519531 27.453125 C 21.851562 26.960938 22.253906 26.585938 22.722656 26.332031 C 23.199219 26.066406 23.710938 25.933594 24.246094 25.933594 C 24.945312 25.933594 25.550781 26.074219 26.0625 26.347656 C 26.589844 26.613281 26.996094 26.988281 27.28125 27.472656 C 27.578125 27.953125 27.726562 28.523438 27.726562 29.179688 C 27.726562 29.777344 27.566406 30.316406 27.246094 30.800781 C 26.9375 31.273438 26.542969 31.617188 26.0625 31.835938 C 26.636719 32.054688 27.097656 32.429688 27.453125 32.957031 C 27.816406 33.488281 28 34.101562 28 34.804688 C 28 35.898438 27.667969 36.765625 27.007812 37.410156 C 26.355469 38.054688 25.433594 38.375 24.246094 38.375 Z M 24.246094 38.375 "/>
</g>
</svg>
