<?xml version="1.0" encoding="UTF-8"?>
<svg xmlns="http://www.w3.org/2000/svg" xmlns:xlink="http://www.w3.org/1999/xlink" width="48px" height="px" viewBox="0 0 48 44" version="1.1">
<defs>
<clipPath id="clip1">
  <path d="M 9 0.605469 L 22 0.605469 L 22 18 L 9 18 Z M 9 0.605469 "/>
</clipPath>
<clipPath id="clip2">
  <path d="M 0.429688 14 L 10 14 L 10 27 L 0.429688 27 Z M 0.429688 14 "/>
</clipPath>
<clipPath id="clip3">
  <path d="M 6 19 L 42 19 L 42 43.742188 L 6 43.742188 Z M 6 19 "/>
</clipPath>
<clipPath id="clip4">
  <path d="M 26 0.605469 L 39 0.605469 L 39 18 L 26 18 Z M 26 0.605469 "/>
</clipPath>
<clipPath id="clip5">
  <path d="M 38 14 L 47.570312 14 L 47.570312 27 L 38 27 Z M 38 14 "/>
</clipPath>
</defs>
<g id="surface1">
<g clip-path="url(#clip1)" clip-rule="nonzero">
<path style=" stroke:none;fill-rule:nonzero;fill:rgb(63.921569%,63.921569%,63.921569%);fill-opacity:1;" d="M 16.597656 17.324219 C 19.628906 16.714844 21.945312 14.039062 21.695312 10.265625 C 21.441406 6.496094 19.378906 1.269531 16.597656 0.65625 C 13.351562 -0.0429688 8.578125 5.652344 9.3125 10.515625 C 10.046875 15.382812 13.566406 17.933594 16.597656 17.324219 Z M 16.597656 17.324219 "/>
</g>
<g clip-path="url(#clip2)" clip-rule="nonzero">
<path style=" stroke:none;fill-rule:nonzero;fill:rgb(63.921569%,63.921569%,63.921569%);fill-opacity:1;" d="M 9.902344 21.453125 C 9.976562 18.042969 8.074219 14.648438 5.902344 14.269531 C 3.980469 13.964844 0.429688 17.324219 0.429688 20.484375 C 0.429688 23.644531 3.226562 26.804688 5.902344 26.445312 C 8.574219 26.085938 9.867188 23.699219 9.902344 21.453125 Z M 9.902344 21.453125 "/>
</g>
<g clip-path="url(#clip3)" clip-rule="nonzero">
<path style=" stroke:none;fill-rule:nonzero;fill:rgb(63.921569%,63.921569%,63.921569%);fill-opacity:1;" d="M 24.007812 19.390625 C 18.535156 19.390625 9.3125 25.226562 7.121094 32.640625 C 4.933594 40.058594 10.441406 43.078125 13.082031 43.578125 C 17.457031 44.421875 20.742188 41.261719 24.007812 41.261719 C 27.292969 41.261719 30.578125 44.421875 34.9375 43.578125 C 37.574219 43.058594 43.085938 40.058594 40.894531 32.640625 C 38.707031 25.226562 29.464844 19.390625 24.007812 19.390625 Z M 24.007812 19.390625 "/>
</g>
<g clip-path="url(#clip4)" clip-rule="nonzero">
<path style=" stroke:none;fill-rule:nonzero;fill:rgb(63.921569%,63.921569%,63.921569%);fill-opacity:1;" d="M 31.417969 17.324219 C 34.453125 17.933594 37.988281 15.382812 38.707031 10.515625 C 39.421875 5.652344 34.648438 -0.0429688 31.417969 0.65625 C 28.621094 1.269531 26.554688 6.496094 26.324219 10.265625 C 26.089844 14.039062 28.386719 16.714844 31.417969 17.324219 Z M 31.417969 17.324219 "/>
</g>
<g clip-path="url(#clip5)" clip-rule="nonzero">
<path style=" stroke:none;fill-rule:nonzero;fill:rgb(63.921569%,63.921569%,63.921569%);fill-opacity:1;" d="M 42.117188 14.289062 C 39.925781 14.648438 38.023438 18.058594 38.113281 21.472656 C 38.167969 23.71875 39.441406 26.085938 42.117188 26.464844 C 44.789062 26.824219 47.589844 23.664062 47.589844 20.503906 C 47.589844 17.339844 44.035156 13.984375 42.117188 14.304688 Z M 42.117188 14.289062 "/>
</g>
<path style=" stroke:none;fill-rule:nonzero;fill:rgb(100%,100%,100%);fill-opacity:1;" d="M 24.246094 38.808594 C 22.945312 38.808594 21.964844 38.285156 21.316406 37.238281 C 21.132812 36.9375 21.085938 36.671875 21.179688 36.445312 C 21.269531 36.214844 21.445312 36.058594 21.710938 35.976562 C 21.996094 35.886719 22.230469 35.886719 22.414062 35.976562 C 22.59375 36.070312 22.796875 36.230469 23.011719 36.460938 C 23.136719 36.632812 23.296875 36.777344 23.492188 36.890625 C 23.699219 36.996094 23.9375 37.046875 24.210938 37.046875 C 24.796875 37.046875 25.257812 36.902344 25.601562 36.617188 C 25.945312 36.328125 26.113281 35.84375 26.113281 35.167969 C 26.113281 34.558594 25.945312 34.066406 25.601562 33.699219 C 25.257812 33.332031 24.765625 33.148438 24.125 33.148438 C 23.554688 33.148438 23.269531 32.867188 23.269531 32.300781 C 23.269531 31.738281 23.554688 31.457031 24.125 31.457031 C 24.699219 31.457031 25.121094 31.289062 25.394531 30.957031 C 25.667969 30.613281 25.804688 30.191406 25.804688 29.695312 C 25.804688 29.121094 25.640625 28.71875 25.308594 28.488281 C 24.988281 28.246094 24.625 28.125 24.210938 28.125 C 23.984375 28.125 23.777344 28.183594 23.59375 28.300781 C 23.421875 28.414062 23.273438 28.550781 23.148438 28.714844 C 22.933594 28.945312 22.726562 29.105469 22.53125 29.195312 C 22.347656 29.289062 22.121094 29.277344 21.847656 29.160156 C 21.582031 29.058594 21.414062 28.890625 21.332031 28.660156 C 21.253906 28.421875 21.316406 28.160156 21.519531 27.886719 C 21.851562 27.390625 22.253906 27.015625 22.722656 26.761719 C 23.199219 26.5 23.710938 26.367188 24.246094 26.367188 C 24.945312 26.367188 25.550781 26.503906 26.0625 26.78125 C 26.589844 27.046875 26.996094 27.417969 27.28125 27.902344 C 27.578125 28.386719 27.726562 28.953125 27.726562 29.609375 C 27.726562 30.207031 27.566406 30.75 27.246094 31.234375 C 26.9375 31.703125 26.542969 32.050781 26.0625 32.269531 C 26.636719 32.488281 27.097656 32.859375 27.453125 33.390625 C 27.816406 33.917969 28 34.535156 28 35.234375 C 28 36.328125 27.667969 37.195312 27.007812 37.839844 C 26.355469 38.484375 25.433594 38.808594 24.246094 38.808594 Z M 24.246094 38.808594 "/>
</g>
</svg>
