<?xml version="1.0" encoding="UTF-8"?>
<svg xmlns="http://www.w3.org/2000/svg" xmlns:xlink="http://www.w3.org/1999/xlink" width="48px" height="45px" viewBox="0 0 48 45" version="1.1">
<defs>
<clipPath id="clip1">
  <path d="M 8 0.617188 L 22 0.617188 L 22 18 L 8 18 Z M 8 0.617188 "/>
</clipPath>
<clipPath id="clip2">
  <path d="M 6 19 L 42 19 L 42 44.734375 L 6 44.734375 Z M 6 19 "/>
</clipPath>
<clipPath id="clip3">
  <path d="M 26 0.617188 L 40 0.617188 L 40 18 L 26 18 Z M 26 0.617188 "/>
</clipPath>
</defs>
<g id="surface1">
<g clip-path="url(#clip1)" clip-rule="nonzero">
<path style=" stroke:none;fill-rule:nonzero;fill:rgb(63.921569%,63.921569%,63.921569%);fill-opacity:1;" d="M 16.464844 17.71875 C 19.550781 17.09375 21.910156 14.355469 21.652344 10.5 C 21.398438 6.640625 19.296875 1.296875 16.464844 0.671875 C 13.15625 -0.0429688 8.296875 5.777344 9.046875 10.757812 C 9.792969 15.734375 13.375 18.34375 16.464844 17.71875 Z M 16.464844 17.71875 "/>
</g>
<path style=" stroke:none;fill-rule:nonzero;fill:rgb(63.921569%,63.921569%,63.921569%);fill-opacity:1;" d="M 9.648438 21.941406 C 9.71875 18.453125 7.785156 14.980469 5.574219 14.59375 C 3.617188 14.28125 0 17.71875 0 20.949219 C 0 24.183594 2.851562 27.414062 5.574219 27.046875 C 8.296875 26.679688 9.609375 24.238281 9.648438 21.941406 Z M 9.648438 21.941406 "/>
<g clip-path="url(#clip2)" clip-rule="nonzero">
<path style=" stroke:none;fill-rule:nonzero;fill:rgb(63.921569%,63.921569%,63.921569%);fill-opacity:1;" d="M 24.007812 19.828125 C 18.4375 19.828125 9.042969 25.796875 6.816406 33.382812 C 4.585938 40.96875 10.195312 44.054688 12.882812 44.570312 C 17.339844 45.433594 20.683594 42.199219 24.007812 42.199219 C 27.351562 42.199219 30.695312 45.433594 35.136719 44.570312 C 37.824219 44.039062 43.433594 40.96875 41.203125 33.382812 C 38.972656 25.796875 29.5625 19.828125 24.007812 19.828125 Z M 24.007812 19.828125 "/>
</g>
<g clip-path="url(#clip3)" clip-rule="nonzero">
<path style=" stroke:none;fill-rule:nonzero;fill:rgb(63.921569%,63.921569%,63.921569%);fill-opacity:1;" d="M 31.554688 17.71875 C 34.644531 18.34375 38.242188 15.734375 38.972656 10.757812 C 39.703125 5.777344 34.84375 -0.0429688 31.554688 0.671875 C 28.707031 1.296875 26.605469 6.640625 26.367188 10.5 C 26.128906 14.355469 28.46875 17.09375 31.554688 17.71875 Z M 31.554688 17.71875 "/>
</g>
<path style=" stroke:none;fill-rule:nonzero;fill:rgb(63.921569%,63.921569%,63.921569%);fill-opacity:1;" d="M 42.445312 14.613281 C 40.214844 14.980469 38.28125 18.46875 38.371094 21.960938 C 38.425781 24.257812 39.722656 26.679688 42.445312 27.066406 C 45.167969 27.433594 48.019531 24.199219 48.019531 20.96875 C 48.019531 17.734375 44.402344 14.300781 42.445312 14.632812 Z M 42.445312 14.613281 "/>
<path style=" stroke:none;fill-rule:nonzero;fill:rgb(100%,100%,100%);fill-opacity:1;" d="M 25.203125 39.511719 C 24.574219 39.511719 24.261719 39.167969 24.261719 38.472656 L 24.261719 29.558594 L 23.003906 30.390625 C 22.421875 30.789062 21.96875 30.71875 21.644531 30.179688 C 21.304688 29.636719 21.425781 29.183594 22.007812 28.820312 L 24.105469 27.496094 C 24.3125 27.367188 24.515625 27.277344 24.714844 27.230469 C 24.914062 27.171875 25.140625 27.140625 25.394531 27.140625 C 25.882812 27.140625 26.128906 27.488281 26.128906 28.183594 L 26.128906 38.472656 C 26.128906 39.167969 25.820312 39.511719 25.203125 39.511719 Z M 25.203125 39.511719 "/>
</g>
</svg>
