<?xml version="1.0" encoding="UTF-8"?>
<svg xmlns="http://www.w3.org/2000/svg" xmlns:xlink="http://www.w3.org/1999/xlink" width="48px" height="45px" viewBox="0 0 48 45" version="1.1">
<defs>
<clipPath id="clip1">
  <path d="M 8 0.617188 L 22 0.617188 L 22 18 L 8 18 Z M 8 0.617188 "/>
</clipPath>
<clipPath id="clip2">
  <path d="M 6 19 L 42 19 L 42 44.734375 L 6 44.734375 Z M 6 19 "/>
</clipPath>
<clipPath id="clip3">
  <path d="M 26 0.617188 L 40 0.617188 L 40 18 L 26 18 Z M 26 0.617188 "/>
</clipPath>
</defs>
<g id="surface1">
<g clip-path="url(#clip1)" clip-rule="nonzero">
<path style=" stroke:none;fill-rule:nonzero;fill:rgb(63.921569%,63.921569%,63.921569%);fill-opacity:1;" d="M 16.464844 17.71875 C 19.550781 17.09375 21.910156 14.355469 21.652344 10.5 C 21.398438 6.640625 19.296875 1.296875 16.464844 0.671875 C 13.15625 -0.0429688 8.296875 5.777344 9.046875 10.757812 C 9.792969 15.734375 13.375 18.34375 16.464844 17.71875 Z M 16.464844 17.71875 "/>
</g>
<path style=" stroke:none;fill-rule:nonzero;fill:rgb(63.921569%,63.921569%,63.921569%);fill-opacity:1;" d="M 9.648438 21.941406 C 9.71875 18.453125 7.785156 14.980469 5.574219 14.59375 C 3.617188 14.28125 0 17.71875 0 20.949219 C 0 24.183594 2.851562 27.414062 5.574219 27.046875 C 8.296875 26.679688 9.609375 24.238281 9.648438 21.941406 Z M 9.648438 21.941406 "/>
<g clip-path="url(#clip2)" clip-rule="nonzero">
<path style=" stroke:none;fill-rule:nonzero;fill:rgb(63.921569%,63.921569%,63.921569%);fill-opacity:1;" d="M 24.007812 19.828125 C 18.4375 19.828125 9.042969 25.796875 6.816406 33.382812 C 4.585938 40.96875 10.195312 44.054688 12.882812 44.570312 C 17.339844 45.433594 20.683594 42.199219 24.007812 42.199219 C 27.351562 42.199219 30.695312 45.433594 35.136719 44.570312 C 37.824219 44.039062 43.433594 40.96875 41.203125 33.382812 C 38.972656 25.796875 29.5625 19.828125 24.007812 19.828125 Z M 24.007812 19.828125 "/>
</g>
<g clip-path="url(#clip3)" clip-rule="nonzero">
<path style=" stroke:none;fill-rule:nonzero;fill:rgb(63.921569%,63.921569%,63.921569%);fill-opacity:1;" d="M 31.554688 17.71875 C 34.644531 18.34375 38.242188 15.734375 38.972656 10.757812 C 39.703125 5.777344 34.84375 -0.0429688 31.554688 0.671875 C 28.707031 1.296875 26.605469 6.640625 26.367188 10.5 C 26.128906 14.355469 28.46875 17.09375 31.554688 17.71875 Z M 31.554688 17.71875 "/>
</g>
<path style=" stroke:none;fill-rule:nonzero;fill:rgb(63.921569%,63.921569%,63.921569%);fill-opacity:1;" d="M 42.445312 14.613281 C 40.214844 14.980469 38.28125 18.46875 38.371094 21.960938 C 38.425781 24.257812 39.722656 26.679688 42.445312 27.066406 C 45.167969 27.433594 48.019531 24.199219 48.019531 20.96875 C 48.019531 17.734375 44.402344 14.300781 42.445312 14.632812 Z M 42.445312 14.613281 "/>
<path style=" stroke:none;fill-rule:nonzero;fill:rgb(100%,100%,100%);fill-opacity:1;" d="M 22.269531 39.511719 C 21.585938 39.511719 21.242188 39.320312 21.242188 38.929688 C 21.242188 38.082031 21.457031 37.261719 21.886719 36.460938 C 22.328125 35.660156 23.0625 34.765625 24.085938 33.777344 C 24.445312 33.425781 24.789062 33.070312 25.117188 32.71875 C 25.441406 32.355469 25.710938 32 25.917969 31.660156 C 26.128906 31.308594 26.238281 30.972656 26.25 30.652344 C 26.261719 30.042969 26.121094 29.589844 25.832031 29.296875 C 25.550781 29 25.152344 28.855469 24.628906 28.855469 C 23.917969 28.855469 23.464844 29.21875 23.265625 29.949219 C 23.171875 30.265625 23.050781 30.511719 22.898438 30.691406 C 22.757812 30.855469 22.539062 30.9375 22.234375 30.9375 C 21.945312 30.9375 21.710938 30.835938 21.539062 30.636719 C 21.363281 30.4375 21.316406 30.167969 21.398438 29.824219 C 21.585938 28.953125 21.960938 28.277344 22.53125 27.796875 C 23.101562 27.300781 23.800781 27.054688 24.628906 27.054688 C 25.300781 27.054688 25.902344 27.195312 26.425781 27.476562 C 26.960938 27.761719 27.378906 28.171875 27.683594 28.714844 C 27.984375 29.253906 28.125 29.917969 28.101562 30.707031 C 28.089844 31.261719 27.960938 31.773438 27.714844 32.242188 C 27.472656 32.714844 27.148438 33.171875 26.738281 33.617188 C 26.34375 34.054688 25.890625 34.519531 25.378906 35.011719 C 24.84375 35.542969 24.367188 36.046875 23.945312 36.53125 C 23.539062 37.011719 23.300781 37.429688 23.230469 37.785156 L 26.863281 37.785156 C 27.546875 37.785156 27.890625 38.070312 27.890625 38.648438 C 27.890625 39.226562 27.546875 39.511719 26.863281 39.511719 Z M 22.269531 39.511719 "/>
</g>
</svg>
