<?xml version="1.0" encoding="UTF-8"?>
<svg xmlns="http://www.w3.org/2000/svg" xmlns:xlink="http://www.w3.org/1999/xlink" width="48px" height="px" viewBox="0 0 48 45" version="1.1">
<defs>
<clipPath id="clip1">
  <path d="M 8 0.175781 L 22 0.175781 L 22 18 L 8 18 Z M 8 0.175781 "/>
</clipPath>
<clipPath id="clip2">
  <path d="M 6 19 L 42 19 L 42 44.292969 L 6 44.292969 Z M 6 19 "/>
</clipPath>
<clipPath id="clip3">
  <path d="M 26 0.175781 L 40 0.175781 L 40 18 L 26 18 Z M 26 0.175781 "/>
</clipPath>
</defs>
<g id="surface1">
<g clip-path="url(#clip1)" clip-rule="nonzero">
<path style=" stroke:none;fill-rule:nonzero;fill:rgb(68.235294%,50.196078%,76.862745%);fill-opacity:1;" d="M 16.464844 17.277344 C 19.550781 16.652344 21.910156 13.914062 21.652344 10.058594 C 21.398438 6.199219 19.296875 0.855469 16.464844 0.230469 C 13.15625 -0.484375 8.296875 5.335938 9.046875 10.316406 C 9.792969 15.292969 13.375 17.902344 16.464844 17.277344 Z M 16.464844 17.277344 "/>
</g>
<path style=" stroke:none;fill-rule:nonzero;fill:rgb(68.235294%,50.196078%,76.862745%);fill-opacity:1;" d="M 9.648438 21.5 C 9.71875 18.011719 7.785156 14.539062 5.574219 14.152344 C 3.617188 13.839844 0 17.277344 0 20.507812 C 0 23.742188 2.851562 26.972656 5.574219 26.605469 C 8.296875 26.238281 9.609375 23.796875 9.648438 21.5 Z M 9.648438 21.5 "/>
<g clip-path="url(#clip2)" clip-rule="nonzero">
<path style=" stroke:none;fill-rule:nonzero;fill:rgb(68.235294%,50.196078%,76.862745%);fill-opacity:1;" d="M 24.007812 19.386719 C 18.4375 19.386719 9.042969 25.359375 6.816406 32.941406 C 4.585938 40.527344 10.195312 43.613281 12.882812 44.128906 C 17.339844 44.992188 20.683594 41.757812 24.007812 41.757812 C 27.351562 41.757812 30.695312 44.992188 35.136719 44.128906 C 37.824219 43.597656 43.433594 40.527344 41.203125 32.941406 C 38.972656 25.359375 29.5625 19.386719 24.007812 19.386719 Z M 24.007812 19.386719 "/>
</g>
<g clip-path="url(#clip3)" clip-rule="nonzero">
<path style=" stroke:none;fill-rule:nonzero;fill:rgb(68.235294%,50.196078%,76.862745%);fill-opacity:1;" d="M 31.554688 17.277344 C 34.644531 17.902344 38.242188 15.292969 38.972656 10.316406 C 39.703125 5.335938 34.84375 -0.484375 31.554688 0.230469 C 28.707031 0.855469 26.605469 6.199219 26.367188 10.058594 C 26.128906 13.914062 28.46875 16.652344 31.554688 17.277344 Z M 31.554688 17.277344 "/>
</g>
<path style=" stroke:none;fill-rule:nonzero;fill:rgb(68.235294%,50.196078%,76.862745%);fill-opacity:1;" d="M 42.445312 14.171875 C 40.214844 14.539062 38.28125 18.027344 38.371094 21.519531 C 38.425781 23.816406 39.722656 26.238281 42.445312 26.625 C 45.167969 26.992188 48.019531 23.757812 48.019531 20.527344 C 48.019531 17.292969 44.402344 13.859375 42.445312 14.191406 Z M 42.445312 14.171875 "/>
<path style=" stroke:none;fill-rule:nonzero;fill:rgb(100%,100%,100%);fill-opacity:1;" d="M 25.203125 39.070312 C 24.574219 39.070312 24.261719 38.726562 24.261719 38.03125 L 24.261719 29.117188 L 23.003906 29.949219 C 22.421875 30.347656 21.96875 30.277344 21.644531 29.738281 C 21.304688 29.195312 21.425781 28.742188 22.007812 28.378906 L 24.105469 27.054688 C 24.3125 26.925781 24.515625 26.835938 24.714844 26.789062 C 24.914062 26.730469 25.140625 26.703125 25.394531 26.703125 C 25.882812 26.703125 26.128906 27.046875 26.128906 27.742188 L 26.128906 38.03125 C 26.128906 38.726562 25.820312 39.070312 25.203125 39.070312 Z M 25.203125 39.070312 "/>
</g>
</svg>
