<?xml version="1.0" encoding="utf-8"?>
<!-- Generator: Adobe Illustrator 27.8.1, SVG Export Plug-In . SVG Version: 6.00 Build 0)  -->
<svg version="1.1" id="圖層_1" xmlns="http://www.w3.org/2000/svg" xmlns:xlink="http://www.w3.org/1999/xlink" x="0px" y="0px"
	 viewBox="0 0 326 131" style="enable-background:new 0 0 326 131;" xml:space="preserve">
<style type="text/css">
	.st0{clip-path:url(#SVGID_00000177443387206633623980000002262175358456046220_);}
	.st1{fill:#FFC876;}
	.st2{fill:#C6ADD2;}
	.st3{fill:#FFE382;}
	.st4{fill:#FFFFFF;}
</style>
<g>
	<defs>
		<rect id="SVGID_1_" width="325.4" height="130.7"/>
	</defs>
	<clipPath id="SVGID_00000096031384429836907570000002497382733935564190_">
		<use xlink:href="#SVGID_1_"  style="overflow:visible;"/>
	</clipPath>
	<g style="clip-path:url(#SVGID_00000096031384429836907570000002497382733935564190_);">
		<path class="st1" d="M96.9,82.9c-0.2-1.7-2.1-13-4.1-18c-2.5-6.1-6.6-8.9-9-11.2c-2.1-2-8.4-7-13.1-10.7c0,0,0,0.1,0,0.1
			c-0.2,0.7,0.7,2,0.8,2.7c0.2,1.1,0,2.2-0.5,3.2c-1.4,2.9-4.5,2.8-6.9,4.2c-1.6,1-2.8,2.6-3.3,4.5c-1,4.3,0.1,6.9,2.6,9.5
			c2.5,2.7,3.7,6.4,4.2,10.2c1,6.9-1.2,17.2-9.3,21.2l0.4,1.7c2-0.4,3.5-1.3,5.6-2.2C71.7,94.5,79,84,79,84c0.7,0.8,1.5,1.4,2.8,2
			c2.4,1.1,6.9,2.2,10.6,2.2C96.6,88.2,97.2,85.7,96.9,82.9z"/>
		<path class="st2" d="M30.7,109.9c0,0-12.4-6.3-8.1-27.4C25,70.6,24.9,59,17.2,54.7c0,0,5.5-6,16.7-3.4c0,0-0.5-5.5-4.3-10.9
			c0,0,9-1.6,16.5,2.9c5.3,3.1,4.5,3,4.5,3s-1.7,3.6,0.5,8.3c2.2,4.7,3.9,9.4,3.9,9.4s-6.8,4.2-9.6,12.5S41.6,92.8,42.1,97
			c0,0-4.5,0.6-3,5.4C39.1,102.4,31,104.2,30.7,109.9L30.7,109.9z"/>
		<path class="st3" d="M9.5,28.9c1-4.4,7-6.4,10.5-5.7s8.8,4.2,8.3,10.5c-0.4,6.4-6.5,9-10.4,7.9C14,40.5,7.7,37.5,9.5,28.9
			L9.5,28.9z"/>
		<path class="st4" d="M48.8,130.7c-5.5,0-11.1-0.8-16.4-2.3c-27.3-7.8-31.5-26.6-32.2-40c-0.8-13.8,3.5-25.8,7.2-33.5
			c4.1-8.4,6.1-14.5,6.2-18.9c0-0.8,0-1.9-0.1-3.2c-0.3-7.1-0.7-18.9,7.4-26.4C26,1.7,33-0.6,40.2,0.2c5.2,0.6,12.4,3.3,17.1,9.2
			c4.6,5.9,4.8,13.1,3.6,17.4c-1.6,5.6-5,8.3-9.1,7.3c-4-1-4.5-4.7-4.3-6.6c0.1-1,1-1.6,2-1.5s1.6,1,1.5,2c-0.1,0.5-0.1,2.3,1.7,2.8
			c2.8,0.7,4.3-2.7,4.9-4.8c1.1-3.9,0.6-9.8-2.9-14.3c-4-5.1-10.2-7.4-14.7-7.9C33.7,3,27.5,5,23.2,9c-6.9,6.4-6.5,17.2-6.2,23.7
			c0,1.3,0.1,2.5,0.1,3.4c-0.1,4.9-2.3,11.5-6.6,20.3c-3.5,7.2-7.6,18.6-6.8,31.7C5.1,114,21.3,121.6,33.3,125
			c10.7,3.1,22,2.9,32-0.4c10.8-3.6,19.4-10.6,24.9-20.3c0.5-0.8,1.5-1.1,2.4-0.7c0.8,0.5,1.1,1.5,0.7,2.4
			c-5.9,10.4-15.2,18-26.8,21.9C60.8,129.8,54.8,130.7,48.8,130.7L48.8,130.7z"/>
		<path class="st4" d="M29.4,31.6c-0.2,0-0.5,0-0.7,0c-1.9-0.2-3.4-1-4.5-2.2c-1.8-2.2-1.6-5-1.5-5.4c0.1-1.1,1.1-1.9,2.1-1.7
			c1.1,0.1,1.8,1,1.7,2.1c-0.1,0.7-0.1,3.1,2.5,3.4c0.4,0,2.6,0.1,3-2.9c0.2-1.1,1.1-1.8,2.2-1.6c1.1,0.1,1.8,1.1,1.7,2.2
			C35.6,28,33.6,31.6,29.4,31.6L29.4,31.6z"/>
		<path class="st4" d="M41.5,36.1c-1,0-1.8-0.7-1.9-1.7c-1-7.5,1.9-12.7,2-12.9c0.5-0.9,1.7-1.3,2.6-0.7c0.9,0.5,1.3,1.7,0.7,2.6
			c0,0.1-2.4,4.4-1.5,10.5c0.1,1.1-0.6,2-1.7,2.2C41.6,36.1,41.5,36.1,41.5,36.1z"/>
		<path class="st4" d="M60.4,127.6c-2.7,0-5.6-0.3-8.7-1c-10.2-2.4-17.5-6.4-20.6-11.3c-1.5-2.5-2-5.1-1.4-7.9
			c0.9-3.6,4.1-6,7.3-6.5c0-1.3,0.3-2.9,1.8-4.1c2-1.8,4.9-2,7.9-0.7l0.1,0.1c1.7,0.8,4.2,1.9,8.4,2.3c6.5,0.7,16.5-4.9,21.7-15.5
			c0.4-0.9,1.5-1.2,2.3-0.8s1.2,1.5,0.8,2.3c-6.2,12.4-17.6,18.2-25.2,17.4c-4.8-0.5-7.6-1.8-9.5-2.6l-0.1,0c-1-0.5-2.9-1-4.1,0.1
			c-1.1,1-0.4,2.4-0.3,2.4c0.3,0.6,0.3,1.3-0.1,1.8c-0.4,0.5-1,0.8-1.7,0.7c-2.2-0.3-5.2,1.3-5.8,3.8c-0.4,1.8-0.1,3.5,0.9,5.2
			c2.5,4.1,9.2,7.6,18.4,9.8c13.9,3.2,22.9-2.8,25.3-4.7c0.8-0.6,1.8-0.5,2.5,0.3c0.6,0.8,0.5,1.8-0.3,2.5
			C77.7,122.9,70.9,127.6,60.4,127.6L60.4,127.6z"/>
		<path class="st4" d="M43.3,107.5c-0.2,0-0.4,0-0.5-0.1c-4-1.3-5.1-3.9-5.2-4.2c-0.3-0.9,0.1-1.9,1-2.3c0.9-0.3,1.9,0.1,2.2,0.9
			c0,0.1,0.7,1.4,3.1,2.2c0.9,0.3,1.4,1.3,1.1,2.2C44.7,107,44.1,107.5,43.3,107.5L43.3,107.5z"/>
		<path class="st4" d="M42.1,98.8c-0.8,0-1.6-0.6-1.7-1.5c-0.1-0.8-2.8-20.5,12.4-33.8c-1.6-3.2-5.5-11.9-3.9-17.7
			c0.8-3.2,2.1-4.8,5.1-6.5c2.2-1.2,4.6-2,7.1-2.2c3.3-0.3,5.6,0.5,9,3.3c2.8,2.2,12,9.5,14.8,12.1c0.4,0.4,0.8,0.8,1.3,1.2
			c2.5,2.2,5.9,5.1,8.2,10.6c2.2,5.3,4,16.9,4.2,18.4c0.3,2.4-0.1,4.2-1.2,5.4c-1.1,1.2-2.8,1.9-5,1.8c-4.1,0-8.8-1.2-11.3-2.3
			c-2.8-1.2-4.1-2.7-5.1-5.6c-1.2-3.7-0.9-11.8-0.5-14.4c0.2-0.9,1.1-1.6,2-1.4c1,0.1,1.6,1,1.4,2c-0.4,2.6-0.6,9.9,0.4,12.7
			c0.7,2,1.3,2.7,3.2,3.6c2.2,1,6.4,2,9.9,2c0.8,0,1.9-0.1,2.4-0.6c0.4-0.5,0.5-1.4,0.3-2.7c-0.3-2.3-2.2-13-4-17.5
			c-1.9-4.7-4.9-7.3-7.2-9.3c-0.5-0.4-1-0.9-1.4-1.2c-2.2-2-8.9-7.5-14.6-11.9c-3.1-2.4-4.5-2.7-6.6-2.6c-2,0.2-3.9,0.8-5.6,1.8
			c-2.3,1.3-2.8,2.2-3.4,4.4c-1.3,4.8,2.6,13.5,4.3,16.4c0.4,0.7,0.2,1.7-0.4,2.2c-14.8,12-12.3,31.3-12.2,31.5
			c0.1,0.9-0.5,1.8-1.5,2C42.3,98.8,42.2,98.8,42.1,98.8L42.1,98.8z"/>
		<path class="st4" d="M53.8,41.4c0,0,0.5,3,4,4.2c3.5,1.2,8,0.8,11.1-3.9C69,41.7,62.8,33.4,53.8,41.4L53.8,41.4z"/>
		<path class="st4" d="M69,57.6c1.2,1,2.9,0.5,3.8-1c0.7-1.2,1.1-2.8,0.4-3.5c-0.5-0.5-1.9-1-3.5,0.5C67.9,55.1,68,56.8,69,57.6
			L69,57.6z"/>
		<path class="st3" d="M90.8,47.7c-3.3,0-7.2-2.9-8.9-4.2c-2.5-2-5.1-5.1-5.2-7.8c0-1.3,0.5-2.4,1.4-3.2c3.4-3,10.1,2,10.9,2.5
			c8.1,6.2,5.7,10.3,5.2,11c-0.7,0.9-1.6,1.4-2.7,1.5C91.2,47.6,91,47.6,90.8,47.7L90.8,47.7z M80.4,35.1c-0.1,0.1-0.2,0.2-0.2,0.5
			c0,1.2,1.7,3.4,3.9,5.2c3.2,2.5,5.8,3.5,6.9,3.4c0.3,0,0.3-0.1,0.4-0.2c0.7-0.9-1.5-3.9-4.5-6.2C83.9,35.5,80.9,34.7,80.4,35.1
			L80.4,35.1z"/>
		<path class="st4" d="M30.9,112.1c-0.3,0-0.6-0.1-0.8-0.2c-0.6-0.3-13.4-7.3-8.9-29.4c3.7-18.4-1.4-24.3-4.8-26.3
			c-0.5-0.3-0.8-0.7-0.9-1.2c-0.1-0.5,0.1-1.1,0.4-1.5c0.2-0.3,5.4-5.8,15.7-4.4c-0.5-2-1.5-4.9-3.5-7.7c-0.3-0.5-0.4-1.1-0.2-1.7
			c0.2-0.6,0.7-0.9,1.3-1.1C29.7,38.6,39,37,47,41.8c0.8,0.5,1.1,1.6,0.6,2.4c-0.5,0.8-1.6,1.1-2.4,0.6c-4.5-2.7-9.7-3-12.7-2.9
			c2.6,4.8,3,9.1,3.1,9.3c0.1,0.6-0.2,1.1-0.6,1.5c-0.4,0.4-1,0.5-1.6,0.4c-6.8-1.6-11.2,0.2-13.3,1.6c5.7,4.9,7.3,14.9,4.5,28.6
			c-3.9,19.4,6.7,25.4,7.1,25.6c0.8,0.5,1.2,1.5,0.7,2.4C32.1,111.7,31.5,112.1,30.9,112.1L30.9,112.1z"/>
		<path class="st4" d="M36.6,69.4c-0.7,0-1.4-0.5-1.7-1.2c-0.3-0.9,0.2-1.9,1.1-2.2c0.1,0,2.3-0.8,2.8-2.9c0.6-2.3-0.1-3.7-0.2-3.8
			c-0.4-0.8-0.2-1.8,0.6-2.3c0.8-0.5,1.8-0.3,2.3,0.5c0.2,0.2,1.9,2.4,5.6,1c0.9-0.3,1.9,0.1,2.2,1c0.3,0.9-0.1,1.9-1,2.2
			c-2.3,0.9-4.3,0.8-5.9,0.3c0,0.6-0.1,1.2-0.3,1.9c-1,4-5,5.3-5.1,5.4C37,69.4,36.8,69.4,36.6,69.4L36.6,69.4z"/>
		<path class="st4" d="M29.5,62.8c-0.6,0-1.2-0.3-1.5-0.8c-0.5-0.8-0.3-1.9,0.6-2.4c0.2-0.1,2-1.2,4.8-1.1c1,0,1.7,0.8,1.7,1.8
			s-0.8,1.7-1.8,1.7c-1.7-0.1-2.8,0.6-2.8,0.6C30.1,62.7,29.8,62.8,29.5,62.8z"/>
		<path class="st4" d="M42.1,54.4c-0.9,0-1.7-0.7-1.7-1.6c0-0.2-0.1-1.9,0.8-3.8c0.4-0.9,1.5-1.2,2.3-0.8c0.9,0.4,1.2,1.5,0.8,2.3
			c-0.5,1-0.4,2-0.4,2c0,1-0.7,1.8-1.6,1.8C42.1,54.4,42.1,54.4,42.1,54.4z"/>
		<path class="st4" d="M261.4,66.8l0.2,2.4c0.1,1.3,0.1,2.1,0.2,2.4s0.3,0.5,0.7,0.4c0.8,0,3-0.1,4.1-0.4c0.6-0.2,1-0.3,1.4-0.5
			c0.4-0.2,0.6-0.3,0.6-0.4c0-0.5,0.6-1.4,1.3-1.9c0.4-0.3,0.6-0.5,0.8-0.5c0.4,0,1.5,0.8,2.6,1.6c0.6,0.4,1.1,0.8,1.5,1.2
			s0.6,0.7,0.6,0.8c0.1,1.4-3.7,2-9.6,2.6l-4,0.4l-0.3,6.5c0.1,3.2,0.1,5.1-0.1,5.6c-0.1,0.5-0.6,0.7-1.3,0.5
			c-0.7-0.2-1.5-0.8-2.5-1.8l-1.8-2l0.2-9.1l-1.5,0.1c-3,0.1-5-0.1-5.8-0.2c-1.6-0.3-3.1-1.3-3.1-2.2c0-0.3,0.3-0.4,0.9-0.5
			c0.6-0.1,2-0.1,4.3,0l5.2,0.1l-0.1-2c0-1.3,0-1.2,0.1-1.5c0.1-0.6,0.1-1.3-0.5-1.3c-0.3-0.1-0.6,0-1-0.1l-1.9,0.1
			c-3.2,0.1-3.6,0.1-5.1-1c-0.8-0.5-1.1-1-0.8-1.3c0.2-0.3,1.8-0.5,4.8-0.8l4.5-0.4c0,0,0.2-8.3-0.2-10.4c-0.4-2-0.2-2.7,0.5-3.1
			c0.8-0.4,1.6,0,3,1.7c0,0,2,1.8,2.3,4.2c0.3,2.4,0,7.7,0,7.7l0.9,0.1c1.7,0.2,3.2-0.4,3.5-1.6s0.9-1.2,1.8-1c0.9,0.4,2,1.2,2.9,2
			c0.5,0.4,0.8,0.8,1.1,1.1c0.3,0.3,0.3,0.6,0.2,0.7c-0.6,0.7-3.9,1.3-7,1.6L261.4,66.8L261.4,66.8z"/>
		<path class="st4" d="M188.9,50.6c0,2.7-0.2,3.7-2.4,6.4l-1.7,1.9l-0.1,23.8l-1.7,0.2c-2.1,0.5-3.4-0.1-3.7-1.1
			c-0.3-0.9-0.9-11.9-0.6-15.8c0.1-1.9,0.1-2.9-0.1-2.9c-0.1,0-0.2,0.1-0.6,0.3c-0.8,0.3-6.2,1.2-6.7,0.7c-0.2-0.2,2.5-1.7,4.4-4
			c3.9-4.5,6.9-9.3,7.3-11c0.2-0.8,0.4-1.3,0.6-1.3c0.5-0.2,4.5,0.3,4.9,0.6C188.8,48.5,188.9,49.3,188.9,50.6z"/>
		<path class="st4" d="M210.9,63.9c0-0.2,0.3-0.6,0.8-1.6c1.1-1.8,1.5-5,1.2-5.3c-0.2-0.2-1.4-0.2-5.7,0.1l-6.5,0.3l-1,1.8
			c-1.5,2.8-4.2,5.3-5.7,5.6c-1.5,0.3-3,0.1-4.3-0.2c-0.6-0.2-1.1-0.3-1.1-0.5c-0.2-0.3,0.1-0.5,0.4-0.7c0.2-0.1,0.4-0.1,0.5-0.1
			c2.4-0.7,6-9.5,5.9-13.6c-0.1-1,0-1.5,0.3-1.7c0.5-0.6,5.8,0.2,6.6,0.9c0.9,0.7,0.9,3.3-0.3,5.6c-0.5,0.9-0.6,1.4-0.4,1.5
			c0.1,0.1,2.5-0.1,7.1-0.4s6.8-0.4,8.4-0.2l2.2,0.3l-0.1,2.3c-0.6,3.7-3.1,5.3-5.8,6C212.7,64.1,210.9,64.3,210.9,63.9L210.9,63.9z
			"/>
		<path class="st4" d="M192.4,68c0.1,0.1,0.2,0,0.4,0c0.2-0.1,0.4-0.1,0.5,0c0.2,0.1,0.1,0.3-0.1,0.5c-0.4,0.5-0.5,0.6-0.2,1.2
			c0.6,1.7,1.7,2.6,2.8,3.3c1.7,1.1,2.9-0.5,3.6-1.8c0.2-0.4,0.5-1.5,0.6-1.8c0-0.3,0.1-0.5,0-0.7c-0.1-0.2-0.1-0.2-0.2-0.2
			c-0.2,0-0.2-0.1-0.2-0.3c0.2-0.4,1.1-0.8,1.4-0.7c0.2,0,0.3,0.3,0.4,0.7c0.6,3.2-2.3,7.1-4.8,7.8c-1.2,0.4-2.3,0.3-3.3-0.4
			c-1.4-0.9-2-2.6-2-5c0-0.7,0-1.1,0-1.3c-0.1-0.5-0.1-0.6,0.6-1.1C192.1,68,192.3,68,192.4,68z"/>
		<path class="st4" d="M219.5,69.4c-0.5,1.5-1.7,3.5-3.6,4.3c-1.5,0.6-2.5,0.7-3.5,0.1c-1.5-0.8-1.9-2.3-1.6-4.5
			c0.1-0.9,0.2-1.1,0.9-1.6c0.3-0.3,0.6-0.4,0.7-0.3c0.1,0.1,0.5,0.6,1,1.5c0.5,0.9,1.1,1.6,2.5,2.9c0.8-0.1,2.1-2.4,2.1-2.6
			c-0.1-0.4,1.2-1.4,1.4-0.7C219.5,68.7,219.6,69,219.5,69.4L219.5,69.4z"/>
		<path class="st4" d="M209.2,63.1c0,0.1-0.1,0.2-0.2,0.2c-0.2,0-0.3,5-0.3,9.3v0c0,3.8-0.2,6-0.4,6.8c-0.4,1.4-4.1,3.1-6.4,2.1
			c-0.6-0.3-0.9-0.5-0.9-0.7s0.3-0.4,0.9-0.5l1.1-0.2c0.5,0,0.6,0.1,0.5,0.2c-0.1,0.2-0.1,0.3,0.1,0.3c0.4,0,0.5-2.7,0.5-8l-0.1-7.7
			l0.8-0.7c0.6-0.4,1.5-0.8,2.7-1.2C208.6,62.9,209.3,62.9,209.2,63.1L209.2,63.1z"/>
		<path class="st4" d="M193.3,80.8c-0.2-0.9-0.3-1.9,0.3-2.4c0.8-0.5,1.5,0.7,2.2,2c1.1,2,3.5,4.2,7.1,4.7c3.3,0.4,5.9-0.7,7.4-2.8
			c1.2-1.7,2.4-1.6,3.1-1.1c1,0.6,1.2,2.3,1.1,3c-0.6,2.6-2.6,5.2-7.7,5.6C200.4,90.2,194.3,85.6,193.3,80.8L193.3,80.8z"/>
		<path class="st4" d="M127.6,57.4h1.6c2.1-0.1,4.8,1.5,5,2.9c0.1,0.7,0.1,2,0,4.1c0,2.7-0.3,6.5-0.2,9.2l0.3,4.7l-1.2,0.3
			c-0.7,0.2-1.6,0.3-2.6,0.2l-1.3-0.2l-0.5-3.2c-0.3-2-0.1-5.9-0.1-9c-0.2-3.2-0.4-5.5-0.6-6.8L127.6,57.4L127.6,57.4z"/>
		<path class="st4" d="M131.8,52.8c-0.8,0.7-2.5,2.2-4.2,3.2c-1.4,0.9-3.8,2-4.4,2.4c-0.6,0.4-1.2,0.8-1.8,0.8c-0.6,0-0.7,0-1.6,0.1
			c-0.9,0.1-0.8-0.8,0.2-1.4s2.7-2.2,5.5-5.5c2.6-3.1,4.4-6.6,5.6-10c0.2-0.5-0.1-1,0-1.4c0.1-0.4,0.5-0.6,1.2-0.6
			c1.4,0,5,0.9,5.5,1.1c0.3,0.2,0.4,0.5,0.5,0.9c0.2,0.9-1.6,4-2.7,5.3C134.2,49.4,132.6,52.1,131.8,52.8L131.8,52.8z"/>
		<path class="st4" d="M154.7,61.2l0,2.6c0,1.2,0.1,2,0.1,2.3c0,0.3,0.3,0.4,0.7,0.4c0.8,0,3.2,0,4.3-0.3c0.6-0.2,1.1-0.3,1.5-0.4
			c0.4-0.2,0.6-0.3,0.6-0.3c0-0.4,0.7-1.3,1.4-1.8c0.4-0.3,0.6-0.4,0.9-0.5c0.4,0,1.6,0.7,2.7,1.6c0.6,0.4,1.1,0.8,1.5,1.2
			c0.4,0.4,0.7,0.6,0.7,0.8c0,1.3-4,1.8-10.2,2.2l-4.2,0.3l0.1,7.2c0,3-0.1,4.8-0.2,5.3c-0.2,0.5-0.6,0.7-1.4,0.4
			c-0.7-0.2-1.6-0.8-2.6-1.8l-1.9-1.9l-0.1-9.7l-1.6,0c-3.2,0-5.3-0.2-6.1-0.3c-1.7-0.3-3.3-1.3-3.2-2.1c0-0.3,0.3-0.4,0.9-0.4
			c0.6-0.1,2.1,0,4.6,0.1l5.5,0.2l0-1.9c0-1.2,0.1-2,0.1-2.2c0.2-0.6,0.2-0.7-0.4-0.7c-0.3,0-0.7,0-1.1-0.1l-2,0
			c-3.4,0-3.8,0-5.4-1.1c-0.8-0.5-1.1-1-0.8-1.2c0.3-0.3,1.9-0.4,5-0.6l4.7-0.3c0,0,0.3-15.4-0.1-17.4c-0.3-1.9-0.2-2.6,0.6-2.9
			c0.8-0.3,1.7,0,3.1,1.6c0,0,2.1,1.8,2.3,4c0.2,2.3,0,14.8,0,14.8l0.9,0.1c1.7,0.2,3.4-0.3,3.8-1.5c0.4-1.2,1-1.2,1.9-0.9
			c0.9,0.4,2.1,1.2,3.1,2c0.5,0.4,0.8,0.8,1.1,1.1c0.3,0.3,0.3,0.5,0.2,0.6c-0.7,0.7-4.1,1.1-7.4,1.3L154.7,61.2L154.7,61.2z"/>
		<path class="st4" d="M146.4,53.7c0,2.4-2.1,3.4-4.6,1.5c-2.5-2-3.3-5.3-2-6.6c1.3-1.3,2-1.2,4,0.4c1,0.8,1.6,1.5,2,2
			C146.2,51.5,146.4,52.4,146.4,53.7L146.4,53.7z"/>
		<path class="st4" d="M163.1,51.8c-1.4,0.6-3.1,0.7-4.1,0.7c-1.1,0-2-0.9-0.8-1.6c1.2-0.6,1.2-1.4,2-2.7c0.1-0.2,0-0.4,0.3-0.6
			c0.6-0.4,0.6-0.5-0.2-1.6c-0.8-1-0.7-2.7,0.7-3.8c0.7-0.5,1.4-0.7,1.9-0.7c1.2,0.1,3.5,1.9,4.1,2.7c0.3,0.4,0.5,1,0.4,1.8
			C166.5,49.7,164.6,51.2,163.1,51.8z"/>
		<path class="st4" d="M252.5,60.5c-0.6,2.1-3,2.3-5.1-0.1c-2-2.5-2.1-5.6-0.4-6.3c1.7-0.7,2.4-0.4,4,1.5c0.8,1,1.3,1.8,1.6,2.4
			S252.8,59.4,252.5,60.5L252.5,60.5z"/>
		<path class="st4" d="M266.4,49.1c1,0,3.1,1.4,3.6,2.2c0.3,0.4,0.5,0.9,0.5,1.7c0,2.3-1.1,3.3-2.3,3.8c-0.8,0.3-3,0.3-3.3-1
			c0-0.2-0.1-0.3,0.2-0.6c0.4-0.5,0.4-0.6-0.4-1.5s-0.8-2.5,0.2-3.7C265.4,49.4,265.9,49.1,266.4,49.1L266.4,49.1z"/>
		<path class="st4" d="M244.3,51c0.2,1.6-1.4,5.7-3.3,7.7c-1,1-1.3,1.6-1.2,1.8c0.1,0.2,0.4,0.2,0.8,0.4c0.4,0.1,0.8,0.8,1.2,2
			c0.8,2.5,1.3,12.5,1.3,14.1c0,1.6-0.5,3.5-1.3,3.8c-0.7,0.4-3.6-0.1-4.5-0.9c-0.9-0.8-1.4-3.3-1.1-3.7c0.4-0.3,1-8.3,0.8-10.8
			l-0.1-1.2c0-0.3-0.1-0.5-0.2-0.7c-0.1-0.2-0.2-0.2-0.2-0.1c0,0.1-0.3,0.1-0.7,0.3l-1.3,0.5c-0.4,0.2-0.8,0.4-0.9,0.6
			c-0.5,1.4-6.7,0.6-6.6,0c0.1-0.1,0.3-0.2,0.6-0.2c0.5-0.1,5.9-5.7,9.5-12.9c0.7-1.6,1-2.8,0.9-3.6c-0.2-1.6-0.2-1.9,1.6-1.2
			c0.9,0.4,1.5,0.7,1.9,1.1c0.4,0.4,0.9,0.8,1.6,1.2C243.9,49.6,244.2,50.2,244.3,51L244.3,51z"/>
		<path class="st4" d="M281.4,58.5c-3.9,1.7-5.1,1.1-6.5-1c-1.4-2.1-1.6-4.7-1.2-6.7c0.4-2.1,1.5-3.1,4.4-3.8c3-0.4,8.1-0.5,7.4,7
			c-0.1,1.3-0.4,2.2-0.7,2.7C284.6,57.1,283.4,57.7,281.4,58.5L281.4,58.5z"/>
		<path class="st4" d="M290,42.5c-0.3,1.8-0.9,2.5-2.5,3.2c-1.2,0.5-2.3-0.2-2.5-1c-0.4-1.5-0.1-3.4,1.1-4.4
			c0.6-0.5,1.4-0.8,2.2-0.9C289.4,39.5,290.2,40.3,290,42.5L290,42.5z"/>
		<path class="st4" d="M273.5,44.1c0.1,2.2-0.4,2.6-1.5,2.9c-1.2,0.3-2.3-0.1-3.1-0.7c-0.9-0.6-1.1-1.3-0.9-2.8
			c0.3-1.5,1.1-3.9,4.3-2.2c0.5,0.3,0.9,0.6,1,0.8C273.4,42.3,273.5,43,273.5,44.1L273.5,44.1z"/>
		<path class="st4" d="M277,41.5c-0.7-1.1,0.4-3.4,1.9-3.9c1.4-0.5,2.2,0,3.4,2c0.3,0.6-0.4,2.5-1.2,3.3
			C279.5,44.3,278.8,44.3,277,41.5L277,41.5z"/>
		<path class="st4" d="M224,90.7c-1.4,0-2-0.2-2-0.6c0.1-0.2,0.4-0.5,1-0.7c1.2-0.5,3.2-2.7,3.6-4.3c0.4-1.5,0.4-1.4-1.9-2
			c-2.3-0.7-3.5-3.4-1.7-5.3c0.3-0.3,0.6-0.5,1.1-0.7l3,0c2.1,0,3.2,3.1,3.1,6.1c-0.2,3.1-0.8,5.1-2.8,6.4
			C226.5,90.4,225.3,90.7,224,90.7L224,90.7z"/>
		<path class="st4" d="M291.1,62.4c-1.2,0.1-2.7,1.4-2.7,1.6l-0.1-0.3c0.2,0,0.5,0.6,0.6,1.1l-0.2,6.6l2-0.4c5.8-1.3,5.9-0.2,5.9,4
			c0,2.1-0.9,5.9-1.2,7c-0.6,2.2-1.1,3.9-3.3,5.9c-2.1,2.1-2.3,2.2-4.3,2.1c-2.1,0-2.6-0.8-0.8-2s4.4-10,4.5-13.7l0-1.7L289,73
			c-0.5,0.1-0.9,0.3-0.9,0.5c0,0.1,0,0.3-0.1,0.5c0,1.5-2.8,7.1-4.4,8.9c-1.6,1.8-1.8,2-3.2,1.9c-2.4,0-3.5-0.4-3.5-1.1
			c0-0.5,0.2-0.7,0.6-0.7c0.8,0,2.6-2.3,3.6-4.4c1-2.1,2.1-5.9,2.7-9c0.3-1.6,0.2-3.2,0.2-3.8l-0.1-1.4l-1.6,0.1
			c-1.8,0.4-4.2,0-4.4-0.6c-0.1-0.1,0.2-0.3,0.7-0.6c1.1-0.5,2.9-1,4-1.1c2-0.2,3.8-0.7,5.4-1.6c1.1-0.7,2.3-1.4,3-1.5
			c0.6,0,3.7,0,3.6,0.7c0,0.6-0.8,1.4-1.9,2C292.2,62.2,291.7,62.4,291.1,62.4L291.1,62.4z"/>
		<path class="st4" d="M306.5,84.9c0.8,0,1.5-0.1,3.1-1c0,0-0.1,1.6-1.6,1.8c-1.6,1.7-6.8,5.3-7,0.3c-0.3-7.2,0.6-5.7,0.2-16.8
			c0-0.6,0.2-1.1,0.6-1.5c2.8-2.4,5.5-2.7,8.4-6.3c1.3-1.5,2.2-1.9,3.1-2c2.1-0.1,3.5,1.2,4.6,1.8c-3.8,2.2-5.8,6.5-12.6,8.5
			C304.9,70.2,306,77,306.5,84.9L306.5,84.9z"/>
		<path class="st4" d="M304.1,54.4l6.7-0.4c0.6-0.1,0.9-0.4,0.9-0.7c-0.1-0.8,0.9-2.6,1.5-2.7c0.4-0.1,3.1,0.1,3.6,0.5
			c0.4,0.3,1,2.4,0.2,3.5c-0.4,0.6-1,0.9-1.8,1.2c-0.8,0.3-3.1,0.2-6.6,0.7c-3.5,0.5-3.8,0.2-4.2,0.5c-0.4,0.3-0.9,1.3-1.6,3
			c-0.6,1.7-1,3.3-1.6,4.2c-0.5,1.2-1.3,2.4-3,2.5c-1.4,0.1-1.9-0.5-2.3-0.8c-1.3-1.1-0.3-2.3,1-4.1c0.6-0.9,1.1-2.2,1.8-4
			c0.8-2.2,0.9-2.6,0.9-4.5c0-2.3-0.4-4.4,2.1-3.2c1.7,0.8,1.8,1,2.2,3L304.1,54.4L304.1,54.4z"/>
		<path class="st4" d="M325.4,84.5c-1.4,1.8-4.3,3.8-6.7,2.2c-2.3-0.7-6.4-4.5-7.4-7.9c-0.9-2.5-1.8-4.2-2.7-6.7
			c1.5-0.1,3.7-0.3,5.5,2.2c1.4-1.8,1.9-4.5,1.7-7.1c1,0.7,2.2,0.6,4.3,0.6c0.7,0,1.5,5.6-3.7,8.1l-1.5,0.1
			C317.5,80.1,320.8,83,325.4,84.5L325.4,84.5z"/>
	</g>
</g>
</svg>
