<svg width="172" height="221" viewBox="0 0 172 221" fill="none" xmlns="http://www.w3.org/2000/svg">
<g clip-path="url(#clip0_951_7545)">
<path d="M65.27 123.311C63.6827 122.711 62.1662 122.111 60.7609 121.481C44.6154 114.439 38.1349 106.023 35.3143 99.1884C35.3143 99.1884 28.7732 83.3067 20.574 74.5697C19.098 72.9877 17.9556 72.2123 16.6514 71.8917C13.1432 70.9405 10.8685 73.6185 6.46058 73.2669C4.45882 73.1222 2.88167 72.4191 1.88079 71.8917C1.43595 71.1886 -0.939877 67.487 0.435071 64.4989C1.85046 61.397 6.38981 61.0868 9.93839 60.8386C12.6276 60.6318 17.4096 60.7352 23.1925 63.3408C25.3965 64.8194 28.6721 67.3216 32.0387 71.0542C37.5182 77.1443 38.4484 81.3732 41.6835 85.2816C43.3416 87.2875 45.8185 89.4692 49.5996 91.2372C50.2163 91.5164 50.9038 91.8059 51.6317 92.0851C51.7328 92.1161 51.8743 92.1575 52.0058 92.2299C52.6629 92.478 53.3807 92.6848 54.1389 92.9019C56.6866 93.6464 59.6488 94.2047 63.157 94.5253C63.8445 104.141 64.5724 113.716 65.2598 123.332L65.27 123.311Z" fill="#BFCCC6"/>
<path d="M92.1322 140.423C92.2333 144.507 92.1323 148.84 91.7177 153.42C91.5155 155.674 91.2729 157.897 90.9292 160.037C89.6553 168.95 87.4514 176.912 84.9037 183.808C84.3577 185.39 83.7714 186.91 83.185 188.316C82.5278 189.867 81.9111 191.377 81.2237 192.794C79.1916 197.229 77.1291 201.034 75.2689 204.209H55.3625C55.2917 203.082 55.221 200.331 56.8385 197.653C59.9018 192.649 65.9981 192.618 66.4126 192.618C67.1405 189.381 67.7168 186.249 68.2425 183.178C71.1036 165.042 69.8904 149.76 66.3823 136.897C65.8263 134.716 65.1792 132.596 64.4513 130.559C63.1775 126.826 61.9744 124.149 60.7713 121.471C60.7005 121.326 60.6298 121.191 60.5994 121.088C59.2952 118.162 57.981 115.422 56.606 111.441C54.5739 105.775 53.0574 100.098 52.0566 94.4633C51.9555 93.967 51.8847 93.5431 51.8139 93.1295C51.7431 92.778 51.6724 92.3851 51.642 92.0749C50.1256 82.5003 49.8829 73.0189 50.5704 63.8269C50.7423 61.4694 50.9849 59.143 51.2579 56.8166C51.3994 55.5862 51.5713 54.3558 51.7431 53.1564C51.8847 52.2051 52.0566 51.3262 52.188 50.406C52.744 51.502 53.2596 52.5567 53.8056 53.6423C53.9471 53.9215 54.119 54.242 54.2504 54.5212C55.6254 57.2715 57.0003 59.9805 58.3854 62.7309C59.5177 65.016 60.6601 67.3114 61.8328 69.6378C71.6496 89.1797 81.4259 108.732 91.2426 128.315C91.6874 132.017 92.0312 136.029 92.1424 140.433L92.1322 140.423Z" fill="#BFCCC6"/>
<path d="M144.127 189.412C143.854 194.241 143.44 199.349 142.853 204.694C141.064 204.694 139.305 204.663 137.515 204.663C116.75 204.488 95.9839 204.343 75.2586 204.208H73.8129C73.2265 203.329 72.4683 201.851 72.3368 199.907C72.3368 199.7 72.3065 199.483 72.3065 199.276C72.3368 195.047 75.6428 192.132 76.5122 191.387C79.0296 189.164 81.7492 188.533 83.1949 188.327C82.2345 187.127 81.1931 185.69 80.2327 183.994C78.6151 181.11 77.3008 177.553 77.2402 173.531C77.1391 164.835 82.9523 160.503 87.3298 148.912C89.0485 144.3 90.9795 137.435 91.2525 128.305C80.1619 114.284 68.4243 96.0141 59.5377 73.1531C59.3658 72.6981 59.194 72.2742 59.0221 71.8193C58.921 71.5401 58.8199 71.292 58.7087 71.0128C58.2234 69.7824 57.7786 68.5106 57.3337 67.2491C57.0203 66.4013 56.7474 65.5534 56.4744 64.7159C55.2713 61.2315 54.2401 57.809 53.31 54.4693C53.2797 54.3246 53.2089 54.1901 53.1685 54.0454C52.8247 52.815 52.5113 51.6156 52.208 50.4162C53.2089 49.9922 54.1693 49.5683 55.1702 49.1444C63.5716 45.5152 72.0437 41.9273 80.445 38.3291C80.5865 38.7117 80.718 39.0736 80.8898 39.4251C85.9145 52.4221 91.3536 63.0202 96.3479 71.3643C98.8248 75.5933 101.17 79.2225 103.304 82.314C108.844 90.41 113.878 96.6138 113.878 96.6138C127.82 114.046 135.018 117.531 139.912 129.297C141.327 132.71 142.53 136.763 143.592 148.664C143.935 152.572 144.249 156.977 144.451 161.909C144.764 169.829 144.764 179.021 144.137 189.412H144.127Z" fill="#BFCCC6"/>
<path d="M23.5866 16.0885C22.5655 18.7355 29.9559 24.6394 35.4658 27.8551C39.0144 29.9333 44.5243 32.4872 52.0865 33.6349C50.5599 36.2819 48.1234 39.4458 44.4737 40.3351C37.6596 41.9997 30.9466 34.7103 29.3189 36.3956C28.4495 37.2952 29.7638 40.3454 31.2803 42.3409C33.5247 45.2878 37.0328 46.6216 44.0592 49.2892C47.0214 50.4162 47.7594 50.6851 49.3265 51.5846C52.0157 53.1252 52.8447 54.3453 55.6957 54.9036C59.9115 55.7308 66.3718 54.914 75.683 46.6939C76.7951 45.9081 78.6149 44.3985 79.9393 41.917C79.9393 41.917 82.2444 37.595 81.2536 31.9496C80.0101 24.8876 71.6997 18.508 60.4474 16.6159C56.5955 17.7946 52.7335 18.963 48.8816 20.1417C39.0447 19.2835 34.3335 17.5774 31.8869 16.0162C31.2803 15.6336 28.9449 14.062 26.2961 14.5686C25.74 14.672 24.0011 15.0132 23.5967 16.0782L23.5866 16.0885Z" fill="#BFCCC6"/>
<path d="M66.1797 22.2408C66.6346 18.5392 68.879 1.1892 72.9331 1.00309C76.1986 0.847993 80.4448 11.8391 80.3437 21.8996C80.3032 26.2836 79.4338 29.9128 78.625 32.4563L66.1797 22.2408Z" fill="#BFCCC6"/>
<path d="M57.6371 19.2939C57.8898 16.6676 58.274 12.873 58.7997 8.30283C59.6085 1.41662 59.8916 0.0517804 60.3971 8.21271e-05C61.6002 -0.113654 63.238 7.24819 63.8951 10.805C64.7443 15.3855 64.987 19.2319 65.0577 21.8581L57.627 19.2836L57.6371 19.2939Z" fill="#BFCCC6"/>
<path d="M56.0797 24.9498C54.361 25.7977 52.6827 25.9011 52.3289 25.1669C51.975 24.4328 53.0973 23.1507 54.8159 22.3029C56.5346 21.455 58.2129 21.3516 58.5667 22.0857C58.9105 22.8198 57.7984 24.102 56.0797 24.9498Z" fill="black"/>
<path d="M23.7788 18.539C24.1933 18.5804 24.345 17.9704 25.1639 17.3603C26.2153 16.5745 27.388 16.5331 28.0351 16.5125C30.603 16.4091 32.1599 18.0738 32.5643 17.5981C32.8878 17.2259 32.0993 15.9851 31.6848 15.4268C31.2905 14.8995 29.8346 12.9453 27.3375 12.8212C25.7705 12.7488 23.4148 13.3795 22.8082 15.1373C22.3028 16.5848 23.0812 18.4667 23.7788 18.539Z" fill="black"/>
<path d="M92.5971 196.04C90.7066 195.409 89.2609 194.52 88.0881 193.342C85.4191 190.643 84.0441 186.331 84.1149 180.862C84.2463 170.253 89.6551 158.021 97.5611 150.432C102.414 145.779 108.47 142.553 115.547 140.847C115.88 140.754 116.234 140.981 116.315 141.333C116.396 141.685 116.184 142.036 115.84 142.119C108.985 143.773 103.132 146.885 98.4407 151.383C90.7672 158.745 85.5202 170.594 85.3888 180.882C85.3281 185.99 86.5716 189.981 88.9879 192.421C90.0191 193.455 91.3031 194.251 92.8094 194.779C93.133 194.893 93.3149 195.265 93.2037 195.606C93.1127 195.875 92.8701 196.04 92.6072 196.04H92.5971Z" fill="black"/>
<path d="M71.5882 203.267C71.1939 203.236 70.9311 202.926 70.9513 202.564C71.0524 201.21 71.6893 196.567 75.3997 193.91C78.5135 191.687 82.0014 192.09 84.3065 192.349C86.8744 192.649 88.401 193.383 89.877 194.096C90.9588 194.623 92.081 195.161 93.6683 195.564C96.954 196.402 100.644 196.195 104.567 194.944C104.9 194.83 105.254 195.027 105.355 195.368C105.456 195.709 105.274 196.071 104.941 196.185C100.776 197.498 96.8832 197.725 93.3549 196.816C91.6463 196.381 90.4735 195.813 89.3311 195.265C87.8854 194.561 86.5206 193.9 84.1649 193.631C82.0419 193.383 78.8471 193.021 76.1175 194.965C72.8621 197.291 72.306 201.437 72.215 202.647C72.1847 202.988 71.9117 203.247 71.5781 203.247L71.5882 203.267Z" fill="black"/>
<path d="M78.7868 188.844C78.2408 188.689 78.069 188.316 78.1903 187.975C82.6083 175.319 86.4096 162.323 89.473 149.336C90.7771 143.794 92.0004 138.117 93.0721 132.441C93.1327 132.089 93.4765 131.841 93.8202 131.934C94.164 132.007 94.3864 132.337 94.3257 132.699C93.244 138.386 92.0308 144.094 90.7064 149.646C87.6329 162.674 83.8215 175.723 79.3934 188.42C79.3024 188.689 79.0597 188.854 78.7969 188.854L78.7868 188.844Z" fill="black"/>
<path d="M94.427 130.363C94.0024 130.311 93.7497 129.99 93.8002 129.639C93.9114 128.677 93.9114 127.716 93.8002 126.775C93.315 122.753 90.8481 119.951 89.4125 118.637C89.1497 118.4 89.1396 117.986 89.3721 117.728C89.6147 117.459 90.009 117.448 90.2719 117.676C91.8288 119.113 94.5281 122.184 95.064 126.62C95.1853 127.654 95.1853 128.729 95.064 129.794C95.0235 130.125 94.7506 130.363 94.4372 130.363H94.427Z" fill="black"/>
<path d="M41.724 40.5627C42.5833 41.1314 43.7662 42.062 44.7772 43.4992C48.9829 49.5065 45.2422 57.4474 47.5574 58.4917C49.2761 59.2672 52.3091 56.0825 53.7042 53.7975C55.797 50.375 55.251 46.6734 54.7658 42.7444C54.4928 40.511 53.8761 37.3471 52.3495 33.7385C48.8009 36.0133 45.2624 38.288 41.7139 40.5627H41.724Z" fill="#FFCCCC"/>
<path d="M71.1437 21.2688C71.0223 21.2688 70.901 21.2378 70.7999 21.1654C68.6566 19.7282 64.2588 17.4121 58.7792 18.1463C56.7067 18.4151 54.6948 19.0872 52.8144 20.1521C52.5111 20.3279 52.1168 20.2142 51.955 19.8937C51.7832 19.5835 51.8944 19.1906 52.1977 19.0148C54.2298 17.8774 56.3933 17.1536 58.6175 16.8538C64.4711 16.099 69.2127 18.5392 71.4874 20.0798C71.7806 20.2762 71.8615 20.6795 71.6694 20.9793C71.5481 21.1654 71.3459 21.2688 71.1437 21.2688Z" fill="black"/>
<path d="M77.7858 28.1032C77.5128 28.1032 77.2601 27.9171 77.1792 27.6275C76.2592 24.3085 75.6324 20.9481 75.319 17.6498C75.1269 15.6646 75.0561 13.8241 74.9854 12.2008C74.8539 8.93344 74.7528 6.35886 73.7418 5.93493C73.3577 5.77984 72.8117 5.89358 72.1344 6.27614C71.8412 6.45192 71.4469 6.33818 71.275 6.01765C71.1032 5.70746 71.2144 5.31455 71.5278 5.13878C72.559 4.54942 73.479 4.415 74.2271 4.73553C75.9964 5.46965 76.1076 8.12694 76.2592 12.1491C76.3199 13.7517 76.3906 15.5715 76.5827 17.5257C76.8961 20.7517 77.5027 24.0293 78.4025 27.276C78.4935 27.6172 78.3014 27.9791 77.9678 28.0722C77.9071 28.0928 77.8465 28.0928 77.7959 28.0928L77.7858 28.1032Z" fill="black"/>
<path d="M49.9327 53.1977C49.4879 53.1357 49.2553 52.8048 49.3059 52.4533C49.7103 49.6926 49.6294 46.9216 49.0733 44.2229C48.7094 42.4755 48.1432 40.7798 47.3951 39.1771C47.2435 38.8566 47.385 38.4637 47.6984 38.3086C48.0219 38.1535 48.396 38.2879 48.5476 38.6188C49.3362 40.3145 49.9327 42.1136 50.3068 43.9541C50.9032 46.8078 50.9841 49.7339 50.5696 52.6394C50.5191 52.9599 50.2562 53.1874 49.9428 53.1874L49.9327 53.1977Z" fill="black"/>
<path d="M60.5886 121.729C60.3864 121.729 60.1944 121.625 60.073 121.45C56.9592 116.838 54.6339 111.761 53.168 106.354C51.7829 101.267 51.1965 96.0037 51.4189 90.6995C51.4291 90.3376 51.702 90.1308 52.0862 90.0791C52.4299 90.0894 52.7029 90.3996 52.6928 90.7512C52.4704 95.921 53.0466 101.049 54.3913 106.002C55.8269 111.275 58.0915 116.218 61.1245 120.716C61.3267 121.005 61.2559 121.408 60.9627 121.615C60.8515 121.687 60.7201 121.729 60.5987 121.729H60.5886Z" fill="black"/>
<path d="M57.6364 81.1974C57.3533 81.1974 57.1006 81.0009 57.0197 80.7114L55.6751 75.4382C55.5841 75.097 55.7863 74.7351 56.13 74.6524C56.4536 74.5696 56.8175 74.7661 56.8984 75.1176L58.243 80.3909C58.334 80.7321 58.1318 81.094 57.7881 81.187C57.7375 81.1974 57.687 81.2077 57.6263 81.2077L57.6364 81.1974Z" fill="black"/>
<path d="M61.3568 80.8148C61.1748 80.8148 60.9928 80.732 60.8614 80.5769L59.0517 78.3125C58.8293 78.0334 58.8698 77.6301 59.1427 77.4027C59.4157 77.1752 59.81 77.2165 60.0324 77.4957L61.8421 79.7601C62.0645 80.0393 62.0241 80.4425 61.7511 80.67C61.6298 80.7734 61.4882 80.8148 61.3467 80.8148H61.3568Z" fill="black"/>
<path d="M71.8307 72.905C71.588 72.905 71.3454 72.7603 71.2544 72.5121L68.0597 64.9745C67.9181 64.6436 68.0597 64.2611 68.3832 64.1163C68.7067 63.9716 69.0808 64.1267 69.2122 64.4575L72.4069 71.9951C72.5485 72.326 72.4069 72.7086 72.0834 72.8533C72.0025 72.8844 71.9115 72.905 71.8307 72.905Z" fill="black"/>
<path d="M74.8031 69.1311C74.5503 69.1311 74.3077 68.976 74.2167 68.7278L73.327 66.4634C73.1956 66.1326 73.3574 65.75 73.6809 65.6156C74.0044 65.4915 74.3785 65.6466 74.5099 65.9775L75.3996 68.2418C75.531 68.5727 75.3692 68.9553 75.0457 69.0897C74.9649 69.1207 74.884 69.1311 74.8132 69.1311H74.8031Z" fill="black"/>
<path d="M84.7415 68.004C84.5899 68.004 84.4382 67.9523 84.3169 67.8386L79.0193 62.9375C78.7666 62.6997 78.7463 62.2861 78.9789 62.0173C79.2114 61.7485 79.6158 61.7381 79.8787 61.976L85.1763 66.877C85.429 67.1148 85.4492 67.5284 85.2167 67.7972C85.0954 67.9419 84.9235 68.0143 84.7415 68.0143V68.004Z" fill="black"/>
<path d="M126.627 169.095C126.526 169.095 126.435 169.074 126.344 169.023L123.725 167.658C123.412 167.492 123.291 167.11 123.452 166.789C123.604 166.469 123.988 166.345 124.302 166.51L126.92 167.875C127.234 168.04 127.355 168.423 127.193 168.743C127.082 168.971 126.86 169.095 126.627 169.095Z" fill="black"/>
<path d="M130.883 166.055C130.63 166.055 130.398 165.91 130.297 165.662L129.478 163.656C129.346 163.325 129.498 162.943 129.822 162.808C130.135 162.664 130.519 162.819 130.651 163.16L131.47 165.166C131.601 165.497 131.459 165.879 131.126 166.014C131.045 166.045 130.964 166.065 130.883 166.065V166.055Z" fill="black"/>
<path d="M140.517 188.658C142.873 188.234 144.966 189.898 145.785 190.529C158.068 200.062 172.273 201.82 172 206.948C171.646 213.38 148.858 218.539 129.407 218.343C110.309 218.146 91.1709 212.739 91.4035 209.626C91.5652 207.341 102.009 204.798 111.714 205.77C117.507 206.349 122.198 208.779 130.549 207.951C134.492 207.558 136.858 206.731 137.434 205.108C138.212 202.864 134.826 201.22 134.654 197.229C134.482 193.393 137.373 189.226 140.517 188.658Z" fill="#BFCCC6"/>
<path d="M138.172 201.737C137.93 201.737 137.707 201.592 137.596 201.365C136.312 198.542 136.555 195.316 138.233 192.928C139.972 190.446 142.54 189.805 143.571 189.65C143.925 189.598 144.238 189.847 144.299 190.188C144.35 190.539 144.107 190.87 143.763 190.932C143.086 191.036 140.761 191.553 139.264 193.683C137.859 195.689 137.657 198.429 138.749 200.817C138.9 201.138 138.749 201.53 138.445 201.675C138.364 201.717 138.263 201.737 138.182 201.737H138.172Z" fill="black"/>
<path d="M104.759 215.303C104.567 215.303 104.375 215.21 104.243 215.044C104.031 214.755 104.092 214.352 104.375 214.134L107.236 211.953C107.519 211.736 107.913 211.808 108.125 212.087C108.338 212.377 108.277 212.78 107.994 212.997L105.133 215.179C105.022 215.272 104.89 215.303 104.759 215.303Z" fill="black"/>
<path d="M113.353 219.004C113.11 219.004 112.878 218.86 112.776 218.622C112.635 218.291 112.776 217.908 113.1 217.764L118.671 215.241C119.004 215.096 119.368 215.241 119.51 215.572C119.651 215.903 119.51 216.285 119.186 216.43L113.616 218.953C113.535 218.994 113.444 219.004 113.363 219.004H113.353Z" fill="black"/>
<path d="M121.38 221C121.198 221 121.016 220.917 120.885 220.762C120.662 220.483 120.703 220.08 120.976 219.852L124.908 216.585C125.192 216.368 125.586 216.399 125.798 216.678C126.021 216.957 125.98 217.36 125.707 217.588L121.774 220.855C121.653 220.948 121.512 221 121.37 221H121.38Z" fill="black"/>
</g>
<defs>
<clipPath id="clip0_951_7545">
<rect width="172" height="221" fill="white"/>
</clipPath>
</defs>
</svg>
