<svg width="125" height="143" viewBox="0 0 125 143" fill="none" xmlns="http://www.w3.org/2000/svg">
<g clip-path="url(#clip0_952_12554)">
<path d="M98.4671 126.601L119.792 38.8953L115.177 37.7612C109.385 28.8121 94.6537 19.9964 76.2284 15.4584C57.8031 10.9205 40.6909 11.8911 31.445 17.1338L26.8301 15.9997L5.50964 103.701C2.66169 115.417 21.1591 130.045 46.8303 136.369C72.5015 142.693 95.6192 138.318 98.4671 126.601Z" fill="#FFE382"/>
<path d="M119.782 38.8873C122.63 27.1706 104.129 12.5478 78.4591 6.22628C52.7895 -0.0952202 29.6717 4.27842 26.8241 15.9951C23.9764 27.7117 42.4773 42.3345 68.147 48.656C93.8166 54.9775 116.934 50.6039 119.782 38.8873Z" fill="#D1C8BE"/>
<path d="M64.0387 11.8748C58.3116 7.13314 40.679 11.5007 36.7797 12.3341C32.8805 13.1675 34.5599 18.8381 34.5599 18.8381C34.8686 22.2977 49.7941 27.4636 58.8069 28.1433C67.8148 28.8231 69.7657 16.6165 64.0387 11.8748ZM62.1938 24.7052C60.3146 25.6086 49.207 23.6005 47.4623 22.4003C45.7175 21.2002 46.8455 13.9176 48.0409 12.678C49.2361 11.4334 59.5352 12.0519 59.5352 12.0519C66.6236 12.2616 64.0682 23.8069 62.194 24.7101L62.1938 24.7052Z" fill="#F0EDF0"/>
<path d="M27.3342 81.2251C25.2298 77.651 27.0457 73.0496 31.0155 71.9163C37.2396 70.1353 47.1413 68.4161 57.7063 70.9525C75.2916 75.1808 87.9083 89.5411 87.9083 89.5411C87.9083 89.5411 75.953 102.581 52.2524 97.8974C38.0004 95.0819 30.8094 87.124 27.3342 81.2251Z" fill="#80C7A7"/>
<path d="M83.2914 87.4573C83.2914 87.4573 93.8776 76.1843 96.1692 77.0638C98.4608 77.9432 91.8475 88.8298 91.8475 88.8298C91.8475 88.8298 97.6991 100.473 94.3266 101.427C90.9543 102.385 80.5082 90.3001 83.2914 87.4573Z" fill="#80C7A7"/>
<path d="M35.3922 76.4993C35.1834 77.3495 34.3353 77.8664 33.49 77.661C32.6446 77.4555 32.1299 76.5973 32.3338 75.7473C32.5378 74.8974 33.3908 74.3802 34.2361 74.5856C35.0814 74.7911 35.5962 75.6493 35.3922 76.4993Z" fill="white"/>
<path d="M39.1403 90.7625C38.9614 90.7208 38.8647 90.6459 38.8237 90.6081C38.6957 90.4949 38.6873 90.3024 38.7997 90.1738C38.9122 90.0451 39.1037 90.0368 39.2316 90.1499C39.2316 90.1499 39.2468 90.1592 39.2865 90.1673C39.4904 90.2178 40.2951 90.2816 42.2374 88.9103C42.9485 88.4092 43.2925 87.9489 43.2419 87.5801C43.1719 87.1032 42.4341 86.7693 42.1595 86.6774C42.0497 86.6427 41.9718 86.5471 41.9521 86.4342C41.9324 86.3213 41.9814 86.2053 42.0719 86.1371C42.0956 86.1162 44.6257 84.2344 44.6474 82.3683C44.673 80.4772 43.4428 79.121 43.4275 79.1068C43.3189 78.9879 43.3208 78.8047 43.4288 78.6862C43.4522 78.6604 45.9703 75.9431 45.2778 74.1675C44.6021 72.4407 43.9737 72.2455 43.9686 72.2408C43.8048 72.2084 43.6997 72.0546 43.7268 71.8852C43.754 71.7208 43.9213 71.6096 44.0849 71.637C44.2386 71.665 45.0459 71.9018 45.8434 73.9399C46.5633 75.7786 44.6663 78.1868 44.0531 78.9013C44.4338 79.3943 45.2768 80.6735 45.2526 82.3715C45.2327 84.0545 43.6097 85.6394 42.8318 86.3017C43.2348 86.5167 43.7484 86.8999 43.8377 87.4798C43.9339 88.1039 43.5095 88.7508 42.5837 89.4048C40.6175 90.7919 39.6073 90.8657 39.1399 90.7526L39.1403 90.7625Z" fill="white"/>
<path d="M70.8083 96.4234C70.6791 96.3944 70.5855 96.2798 70.5746 96.1417C70.5672 95.9738 70.6938 95.8298 70.8605 95.8175C70.8801 95.8167 72.7005 95.7074 73.7852 94.7497C74.5006 94.1197 74.8491 93.5405 74.7947 93.0828C74.7469 92.6643 74.3685 92.4483 74.3633 92.4436C74.2625 92.3886 74.204 92.2873 74.204 92.1735C74.2039 92.0597 74.2683 91.958 74.3693 91.9041C74.3836 91.8935 75.9363 91.0638 75.8737 89.6317C75.8083 88.1355 74.5433 86.9935 74.5279 86.9793C74.4615 86.9229 74.4232 86.8355 74.4243 86.7464C74.4204 86.6575 74.4609 86.5716 74.5273 86.5143C75.1766 85.9516 76.7249 84.2315 76.1183 83.0706C75.3614 81.6244 74.7287 81.4442 74.724 81.4494C74.5605 81.4219 74.45 81.2585 74.482 81.0889C74.5141 80.9242 74.6717 80.8134 74.8403 80.8456C74.9345 80.8613 75.7602 81.0677 76.6615 82.7797C77.456 84.2985 75.8185 86.1165 75.1721 86.7483C75.5953 87.1998 76.4286 88.2568 76.4822 89.5952C76.5402 90.9236 75.5799 91.8017 75.0265 92.1969C75.1919 92.3777 75.3611 92.6474 75.4012 93.0018C75.4801 93.6811 75.0694 94.4165 74.1885 95.1971C72.9427 96.2955 70.9801 96.4159 70.8966 96.4195C70.8672 96.4208 70.8377 96.4221 70.8078 96.4135L70.8083 96.4234Z" fill="white"/>
<path d="M45.2524 94.6512C45.148 94.6261 45.0608 94.5458 45.0313 94.4333C44.9898 94.2718 45.0856 94.0994 45.2461 94.0578C45.2461 94.0578 45.7847 93.8858 46.4685 92.9852C47.115 92.1307 46.8845 91.4728 46.8734 91.4436C46.8285 91.317 46.8664 91.1718 46.9759 91.0879C46.9949 91.0722 48.8892 89.614 49.4495 87.5759C50.01 85.5427 49.5266 84.5001 49.5212 84.4905C49.4672 84.379 49.4861 84.2496 49.5608 84.1573C49.8881 83.767 50.7526 82.611 50.7937 81.976C50.8465 81.1573 50.3496 79.2446 50.3439 79.225C50.3146 79.1175 50.3489 79.0022 50.4291 78.9245C50.4291 78.9245 51.0087 78.34 51.6716 76.624C52.3215 74.9481 50.8333 71.8517 50.8171 71.8177C50.7416 71.6677 50.8024 71.482 50.9565 71.406C51.1057 71.3302 51.2904 71.3914 51.366 71.5464C51.431 71.6821 52.9842 74.9141 52.242 76.8415C51.6982 78.2456 51.2026 78.95 50.9735 79.2222C51.0986 79.7214 51.4499 81.2299 51.4003 82.0088C51.3475 82.8275 50.4734 83.9887 50.1375 84.4091C50.2744 84.8385 50.5204 85.9657 50.0319 87.7335C49.5098 89.6314 47.9964 91.0235 47.4981 91.4411C47.5627 91.7945 47.5748 92.5212 46.9516 93.345C46.1425 94.4193 45.4725 94.6218 45.3995 94.6398C45.3459 94.6521 45.2968 94.6542 45.2471 94.6415L45.2524 94.6512Z" fill="white"/>
<path d="M58.4835 95.9429C58.3741 95.918 58.2866 95.8278 58.2568 95.7104C58.22 95.5438 58.3212 95.3811 58.4868 95.3441C58.4868 95.3441 59.0168 95.2022 59.6704 94.3969C60.2774 93.653 60.0404 93.0697 60.0344 93.0452C59.9792 92.9091 60.0216 92.7538 60.1409 92.6695C60.1602 92.6587 62.0028 91.371 62.513 89.5379C63.0147 87.7349 62.5245 86.7619 62.5192 86.7522C62.46 86.6361 62.4785 86.4967 62.5628 86.399C63.0043 85.9196 63.7105 84.9685 63.7327 84.4629C63.7599 83.8482 63.3788 82.445 63.2295 81.9567C63.1949 81.8395 63.2288 81.7143 63.3189 81.6362C63.3189 81.6362 63.8769 81.122 64.4983 79.5809C64.9998 78.337 63.9829 76.0066 63.5498 75.2141C63.4694 75.0643 63.5204 74.879 63.6694 74.7983C63.8183 74.7176 64.0026 74.7689 64.0829 74.9187C64.1524 75.0443 65.7742 78.0458 65.0643 79.8134C64.5677 81.0572 64.0936 81.6914 63.864 81.9537C64.0033 82.4375 64.3773 83.7916 64.3392 84.4958C64.303 85.2444 63.4773 86.2749 63.1402 86.6657C63.2913 87.0846 63.5382 88.1177 63.0957 89.7004C62.6196 91.4133 61.1682 92.6493 60.659 93.0426C60.7282 93.3859 60.7374 94.0485 60.1398 94.7821C59.3508 95.7516 58.6893 95.924 58.616 95.9371C58.5674 95.9492 58.523 95.9461 58.4783 95.9382L58.4835 95.9429Z" fill="white"/>
<path d="M65.1361 96.7455C65.0216 96.7159 64.9289 96.621 64.9088 96.4981C64.8818 96.3311 64.993 96.1729 65.1591 96.1458C65.1591 96.1458 65.6759 96.0391 66.296 95.3689C66.8409 94.781 66.6084 94.3014 66.5977 94.2821C66.5274 94.1367 66.5737 93.9566 66.7128 93.8763C66.732 93.8655 68.5014 92.8136 68.9454 91.2654C69.3808 89.7473 68.8872 88.9228 68.8661 88.8891C68.7917 88.7637 68.8094 88.6046 68.9133 88.5061C69.3572 88.081 69.9823 87.3016 69.9898 86.9105C70.0015 86.3905 69.5791 85.1671 69.4177 84.7388C69.3679 84.6123 69.4058 84.4672 69.5202 84.383C69.5202 84.383 70.0478 83.9592 70.6059 82.6584C71.0475 81.6199 69.9746 79.5839 69.5259 78.8861C69.436 78.7416 69.4722 78.557 69.6156 78.4617C69.7592 78.3713 69.9429 78.4078 70.0377 78.5521C70.1116 78.6676 71.8279 81.3533 71.1674 82.901C70.7301 83.9245 70.2965 84.4728 70.0611 84.7156C70.2292 85.1832 70.6131 86.3143 70.6055 86.9281C70.5947 87.5816 69.8449 88.4357 69.4967 88.7972C69.6617 89.1957 69.913 90.105 69.5336 91.4425C69.1154 92.9055 67.763 93.9293 67.2325 94.284C67.3058 94.6123 67.3063 95.1862 66.7428 95.7995C65.9819 96.6244 65.3282 96.7519 65.2599 96.7648C65.2159 96.7717 65.1764 96.7685 65.1367 96.7603L65.1361 96.7455Z" fill="white"/>
<path d="M51.6675 96.2309C51.583 96.2098 51.5067 96.1538 51.4687 96.0714C51.3933 95.9213 51.454 95.7356 51.6032 95.6598C51.6224 95.649 53.3743 94.7611 53.5928 93.5691C53.8313 92.2723 53.6802 91.0668 53.6798 91.0569C53.6659 90.9635 53.7011 90.868 53.767 90.8008C54.319 90.2621 55.7629 88.6306 55.8502 87.5879C55.957 86.3166 55.4027 85.3415 55.3974 85.3318C55.3282 85.2111 55.346 85.057 55.445 84.9587C55.4591 84.9432 56.9537 83.4579 57.1297 82.3074C57.3049 81.1371 56.9006 80.1059 56.8953 80.0962C56.8513 79.9893 56.8753 79.8645 56.9502 79.7772C56.9643 79.7617 58.4693 78.0633 58.598 76.2815C58.7265 74.4948 57.843 72.965 57.8326 72.9506C57.7475 72.8059 57.7933 72.6159 57.9421 72.5303C58.0859 72.4448 58.2749 72.491 58.3599 72.6357C58.4022 72.7031 59.3494 74.3389 59.205 76.3242C59.0826 78.0265 57.9106 79.5769 57.5227 80.044C57.6476 80.4245 57.885 81.3541 57.729 82.3999C57.5615 83.5204 56.4462 84.7912 56.0278 85.235C56.2073 85.6279 56.5467 86.5283 56.4525 87.6357C56.3427 88.9516 54.7311 90.6844 54.293 91.1291C54.3292 91.5084 54.3895 92.5497 54.1879 93.6767C53.9136 95.1679 51.9549 96.1639 51.8729 96.2021C51.8055 96.2347 51.732 96.2429 51.6673 96.2259L51.6675 96.2309Z" fill="white"/>
</g>
<defs>
<clipPath id="clip0_952_12554">
<rect width="117.814" height="136.544" fill="white" transform="translate(0.816406 5.66357) rotate(-2.50273)"/>
</clipPath>
</defs>
</svg>
