<svg width="167" height="171" viewBox="0 0 167 171" fill="none" xmlns="http://www.w3.org/2000/svg">
<g clip-path="url(#clip0_952_7775)">
<path d="M118.949 19.4518C118.755 20.2972 115.731 34.719 125.918 44.5168C132.463 50.8232 140.513 51.4065 142.793 51.491C152.447 48.4477 159.728 40.8479 161.679 31.5151C163.622 22.1992 159.517 14.7347 158.334 12.7481C158.444 12.207 160.53 1.95278 157.397 0.41422C154.939 -0.786195 149.55 3.50825 144.406 11.4039H130.614C125.571 3.95629 120.284 -0.946814 117.894 0.143704C115.385 1.2934 115.689 9.23981 118.966 19.4433L118.949 19.4518Z" fill="#CF9A70"/>
<path d="M134.482 81.2478C133.899 91.0287 131.779 99.4569 129.338 106.279C127.412 111.875 125.224 116.313 123.425 119.602C124.135 124.361 124.583 129.45 124.836 134.852V135.174C125.419 148.818 124.126 160.906 122.268 171.008H103.948C102.082 169.335 101.245 166.892 101.955 164.896C102.918 162.065 106.71 160.264 110.376 161.676C110.123 159.748 109.734 156.722 109.151 152.994C108.315 147.271 107.606 142.503 106.964 138.386C104.202 121.656 102.783 116.702 102.335 106.347C101.887 96.2446 101.566 88.332 104.523 78.2891C108.121 66.454 114.354 57.9581 118.797 52.9366C121.305 47.5939 123.746 42.2512 126.255 36.917C126.838 38.2696 127.539 39.8081 128.248 41.5496C131.652 50.3667 135.58 64.1969 134.482 81.2478Z" fill="#CF9A70"/>
<path d="M166.823 170.036C159.813 169.715 152.743 169.453 145.733 169.199C142.388 158.582 139.043 147.905 135.707 137.287C135.124 135.486 134.618 133.745 134.102 132.071C132.236 124.868 130.31 117.658 128.443 110.455C128.764 109.043 129.085 107.623 129.347 106.271C136.357 73.5803 134.043 59.6234 129.862 53.1225C129.347 52.3533 127.354 49.4537 127.48 45.658C127.48 44.3054 127.742 42.9528 128.249 41.6087C130.496 35.1079 137.439 28.8691 145.539 28.8691C151.713 28.8015 156.215 32.4703 157.819 33.9497C155.311 51.9052 154.475 66.5046 154.154 76.4799C153.706 91.147 154.28 100.547 154.99 133.035C155.117 138.31 155.243 144.168 155.378 150.796C155.446 155.817 155.505 159.867 155.573 162.504C160.843 161.6 165.345 163.409 166.629 166.427C166.882 167.069 167.212 168.227 166.823 170.028V170.036Z" fill="#CF9A70"/>
<path d="M123.908 42.3779C107.057 46.3258 82.1576 55.3712 64.5725 77.6296C62.6467 80.0642 60.9152 82.5327 59.3526 85.0011C58.4151 103.853 57.4776 122.713 56.54 141.573C58.8966 141.953 62.7227 142.241 66.9881 140.905C72.8583 139.062 74.9698 134.801 79.9785 130.583C83.2979 127.785 88.4839 124.412 96.4487 122.273C98.6617 122.84 117.37 127.312 133.283 114.766C146.155 104.614 148.402 90.2593 148.816 87.1568C140.513 72.2361 132.21 57.307 123.908 42.3864V42.3779Z" fill="#CF9A70"/>
<path d="M73.4157 147.583C70.5862 154.921 66.9881 159.875 65.5691 161.735C66.0844 161.802 69.2939 162.124 71.4224 164.956C73.3482 167.593 72.9681 170.493 72.8329 171H55.7292C54.3778 164.119 53.2882 156.392 52.773 147.964C52.5787 145.901 52.4521 143.779 52.3845 141.59C51.675 118.68 55.3407 99.3131 59.3273 84.9673C62.4102 87.9261 75.7216 101.181 77.1997 122.933C77.8416 132.713 75.9158 141.074 73.4073 147.575L73.4157 147.583Z" fill="#CF9A70"/>
<path d="M99.3198 145.199C96.3636 153.89 92.1827 159.672 90.637 161.735C91.0846 161.802 94.3618 162.124 96.4227 164.956C98.416 167.593 97.9684 170.493 97.9008 171H80.7971C79.4457 163.983 78.2885 156.198 77.7733 147.71C77.579 145.715 77.5199 143.652 77.4523 141.598C76.6837 118.689 80.3494 99.3216 84.3952 84.9758C87.4781 87.9346 100.789 101.19 102.268 122.941C102.85 131.564 101.431 139.088 99.3113 145.199H99.3198Z" fill="#CF9A70"/>
<path d="M59.3523 85.0012C55.0278 120.946 41.3617 139.688 32.9324 148.691C25.356 156.781 14.9924 164.491 11.5041 162.098C8.51413 160.044 11.9264 151.43 8.02425 149.232C6.05626 148.124 2.93113 149.037 1.32634 150.838C-0.396704 152.766 -0.0588528 155.386 0.25366 157.812C0.48171 159.579 1.17431 164.973 5.07649 168.269C10.9129 173.198 20.2967 169.943 24.3594 168.54C27.8139 167.348 35.4071 164.161 44.2166 153.645C48.4482 148.589 68.0689 125.545 62.9336 96.9631C61.996 91.7219 60.4504 87.588 59.3523 85.0181V85.0012Z" fill="#CF9A70"/>
<path d="M118.417 39.6982C118.519 49.4283 117.167 50.1553 118.569 53.672C119.71 56.5463 121.838 58.7104 126.103 63.0218C130.149 67.1049 130.664 66.6906 132.033 68.9562C134.043 72.2954 133.891 74.823 136.653 76.9026C137.472 77.5113 138.866 78.5595 140.268 78.2129C142.422 77.6719 142.751 74.3074 144.288 70.6723C146.265 65.9805 148.038 66.1242 151.924 60.6209C153.731 58.0595 153.799 57.045 157.853 44.2378C161.941 31.3207 163.107 28.3196 161.62 27.0431C159.213 24.972 153.909 30.9233 148.664 28.6493C143.765 26.5274 143.925 19.4095 141.028 19.2996C137.675 19.1728 137.236 28.7254 131.281 30.6613C126.179 32.3182 121.754 26.8571 119.025 28.9536C117.514 30.1118 118.35 32.1914 118.426 39.7067L118.417 39.6982Z" fill="white"/>
<path d="M144.71 23.7969C144.626 24.135 143.595 23.7546 142.717 24.4393C141.67 25.2593 141.83 26.8571 141.458 26.8655C141.095 26.8655 141.205 25.327 140.149 24.4901C139.237 23.7715 138.173 24.1435 138.088 23.7969C137.979 23.3488 139.592 22.1907 141.399 22.1907C143.215 22.1907 144.82 23.3573 144.71 23.7969Z" fill="#3B1A54"/>
<path d="M132.185 20.7367C132.185 22.1484 131.484 23.2812 130.622 23.2812C129.761 23.2812 129.06 22.14 129.06 20.7367C129.06 19.3334 129.761 18.1921 130.622 18.1921C131.484 18.1921 132.185 19.3334 132.185 20.7367Z" fill="#3B1A54"/>
<path d="M150.378 19.1222C150.378 20.5339 149.677 21.6667 148.815 21.6667C147.954 21.6667 147.253 20.5255 147.253 19.1222C147.253 17.7189 147.954 16.5776 148.815 16.5776C149.677 16.5776 150.378 17.7189 150.378 19.1222Z" fill="#3B1A54"/>
<path d="M137.582 30.8726C137.05 30.8726 136.61 30.4414 136.61 29.9088C136.61 29.3763 137.041 28.9282 137.573 28.9282C137.979 28.9282 138.587 28.8437 139.178 28.4717C140.47 27.6686 140.631 26.0709 140.648 25.8849C140.69 25.3523 141.154 24.9127 141.695 24.9973C142.227 25.0395 142.633 25.513 142.59 26.0455C142.557 26.502 142.269 28.8352 140.217 30.1202C139.246 30.7373 138.249 30.8726 137.59 30.881L137.582 30.8726Z" fill="#3B1A54"/>
<path d="M144.914 31.1686C144.795 31.1686 144.686 31.1516 144.567 31.1094C144.077 30.9234 141.577 29.8667 140.733 27.2123C140.353 26.0287 140.446 24.9467 140.581 24.2535C140.682 23.7209 141.206 23.3912 141.721 23.4927C142.245 23.6026 142.591 24.1098 142.481 24.6339C142.388 25.1073 142.329 25.8343 142.582 26.6205C143.157 28.4211 144.905 29.1566 145.252 29.2834C145.758 29.4694 146.012 30.0358 145.817 30.5345C145.674 30.9234 145.302 31.1686 144.905 31.1686H144.914Z" fill="#3B1A54"/>
<path d="M122.268 171H103.948C102.082 169.326 101.245 166.883 101.955 164.888C102.918 162.056 106.71 160.255 110.376 161.667C110.123 159.74 109.734 156.713 109.151 152.985C108.315 147.262 107.606 142.494 106.964 138.377C109.531 135.74 113.003 134.709 113.712 134.455C114.101 134.328 120.976 132.392 124.836 135.165C125.419 148.809 124.126 160.898 122.268 171Z" fill="white"/>
<path d="M166.822 170.036C159.812 169.715 152.742 169.453 145.732 169.199C142.387 158.582 139.043 147.905 135.706 137.287C135.318 134.201 135.191 132.587 136.61 130.98C140.208 127.058 148.182 129.374 148.697 129.501C149.339 129.695 152.489 130.659 154.998 133.043C155.124 138.318 155.251 144.177 155.386 150.804C155.454 155.826 155.513 159.875 155.58 162.512C160.851 161.608 165.353 163.417 166.637 166.435C166.89 167.077 167.219 168.236 166.831 170.036H166.822Z" fill="white"/>
<path d="M71.4219 164.956C73.3476 167.593 72.9675 170.493 72.8324 171H55.7287C54.3773 164.119 53.2877 156.392 52.7725 147.964C57.7896 143.72 64.7324 141.657 69.4877 144.168C70.8982 144.878 72.3172 146.096 73.4067 147.575C70.5772 154.913 66.9791 159.866 65.5601 161.726C66.0754 161.794 69.285 162.115 71.4134 164.947L71.4219 164.956Z" fill="white"/>
<path d="M95.9752 142.562C97.1323 143.145 98.2219 144.041 99.3199 145.199C96.3637 153.89 92.1828 159.672 90.6371 161.735C91.0848 161.802 94.3619 162.124 96.4228 164.956C98.4162 167.593 97.9685 170.493 97.9009 171H80.7972C79.4458 163.983 78.2887 156.198 77.7734 147.71C82.7905 142.562 90.7638 139.798 95.9667 142.562H95.9752Z" fill="white"/>
<path d="M104.354 123.812C103.974 123.812 103.602 123.584 103.45 123.203C102.783 121.555 102.192 119.864 101.71 118.182C100.536 114.116 99.886 109.872 99.7593 105.569C99.7424 105.036 100.165 104.58 100.705 104.571C101.271 104.563 101.693 104.977 101.702 105.518C101.812 109.652 102.445 113.727 103.577 117.641C104.042 119.264 104.607 120.887 105.249 122.476C105.452 122.975 105.216 123.541 104.717 123.744C104.599 123.795 104.472 123.82 104.354 123.82V123.812Z" fill="#3B1A54"/>
<path d="M126.652 119.086C126.314 119.086 125.976 118.9 125.799 118.587C125.537 118.114 125.706 117.522 126.179 117.26C129.98 115.164 133.46 112.543 136.509 109.483C141.931 104.03 145.986 97.1152 148.215 89.49C148.367 88.9743 148.9 88.67 149.423 88.8306C149.938 88.9828 150.234 89.5238 150.082 90.0395C147.759 97.9774 143.536 105.18 137.886 110.861C134.71 114.048 131.086 116.778 127.117 118.968C126.965 119.052 126.804 119.086 126.644 119.086H126.652Z" fill="#3B1A54"/>
<path d="M78.6356 123.778C78.5258 123.778 78.416 123.761 78.3062 123.719C77.7995 123.533 77.5376 122.975 77.7234 122.468C79.2945 118.131 79.9533 113.659 79.6745 109.187C79.0326 98.6877 73.4412 91.2908 70.164 87.8079C69.7924 87.4191 69.8093 86.8019 70.2063 86.43C70.5948 86.058 71.2114 86.0834 71.583 86.4638C75.0375 90.1327 80.9415 97.9523 81.6256 109.06C81.9128 113.803 81.2202 118.537 79.5563 123.127C79.4127 123.524 79.0411 123.77 78.6441 123.77L78.6356 123.778Z" fill="#3B1A54"/>
<path d="M88.9571 125.156C86.3894 125.156 83.8133 124.953 81.2625 124.547C80.7304 124.463 80.3672 123.964 80.4517 123.431C80.5361 122.899 81.0429 122.544 81.5666 122.62C86.06 123.33 90.6041 123.389 95.0553 122.806C97.3696 122.501 99.6923 122.011 101.964 121.36C102.48 121.2 103.02 121.512 103.172 122.028C103.324 122.544 103.02 123.085 102.505 123.237C100.148 123.922 97.7243 124.429 95.3171 124.75C93.214 125.029 91.0855 125.164 88.9655 125.164L88.9571 125.156Z" fill="#3B1A54"/>
<path d="M51.8178 141.201C51.6996 141.201 51.5729 141.176 51.4546 141.125C50.9563 140.93 50.7113 140.364 50.9141 139.857C53.4733 133.491 55.3484 126.83 56.4802 120.058C57.6035 113.338 58.0089 106.465 57.6711 99.6599C57.6457 99.1188 58.0596 98.6623 58.5917 98.637C59.107 98.637 59.58 99.0258 59.6137 99.5584C59.9516 106.507 59.5462 113.515 58.3975 120.371C57.2403 127.286 55.3315 134.083 52.7131 140.584C52.5611 140.964 52.1979 141.193 51.8094 141.193L51.8178 141.201Z" fill="#3B1A54"/>
</g>
<defs>
<clipPath id="clip0_952_7775">
<rect width="167" height="171" fill="white"/>
</clipPath>
</defs>
</svg>
