<svg width="212" height="137" viewBox="0 0 212 137" fill="none" xmlns="http://www.w3.org/2000/svg">
<path d="M105.569 29.3272V26.218C105.569 17.848 98.6372 11.038 90.1172 11.038H71.7466C63.2266 11.038 56.2945 17.848 56.2945 26.218V29.3272H45.0586V26.218C45.0586 11.7588 57.0282 0 71.7466 0H90.1172C104.836 0 116.805 11.7642 116.805 26.218V29.3272H105.569Z" fill="#3B1A54"/>
<path d="M35.815 26.772H127.616C155.333 26.772 151.319 48.8803 151.319 76.1096C151.319 114.651 155.333 136.759 127.616 136.759H35.815C8.09759 136.759 10.5256 114.651 10.5256 76.1096C10.5256 48.8803 8.09757 26.772 35.815 26.772Z" fill="white"/>
<path d="M87.269 53.0759H74.582V99.1377H87.269V53.0759Z" fill="#F75454"/>
<path d="M104.368 82.3385V69.875H57.4807V82.3385H104.368Z" fill="#F75454"/>
<path d="M10.9201 115.6C10.5368 115.6 10.2192 115.293 10.2192 114.911L9.83594 51.1396C9.83594 37.3259 21.2744 26.0889 35.3357 26.0889H126.521C126.904 26.0889 127.222 26.3955 127.222 26.7774C127.222 27.1593 126.909 27.4659 126.521 27.4659H35.3357C22.0465 27.4659 11.2322 38.0898 11.2322 51.145L11.6155 114.917C11.6155 115.293 11.3034 115.605 10.9146 115.605L10.9201 115.6Z" fill="#3B1A54"/>
<path d="M16.8593 53.2618C16.6786 53.2618 16.5034 53.1972 16.3665 53.0628C16.0927 52.7938 16.0927 52.3581 16.3665 52.0945L32.9247 35.8279C33.1984 35.559 33.642 35.559 33.9103 35.8279C34.184 36.0969 34.184 36.5326 33.9103 36.7962L17.3521 53.0628C17.2152 53.1972 17.0345 53.2618 16.8593 53.2618Z" fill="#3B1A54"/>
<path d="M34.3742 114.551C34.1935 114.551 34.0183 114.481 33.8814 114.352L17.8489 98.6021C17.5751 98.3331 17.5751 97.8974 17.8489 97.6338C18.1227 97.3649 18.5662 97.3649 18.8345 97.6338L34.867 113.384C35.1408 113.653 35.1408 114.089 34.867 114.352C34.7301 114.487 34.5494 114.551 34.3742 114.551Z" fill="#3B1A54"/>
<path d="M142.661 75.5243V76.2273C142.661 76.5445 142.4 76.8014 142.076 76.8014H123.884C123.56 76.8014 123.299 76.5445 123.299 76.2273V75.5243C123.299 75.2081 123.56 74.9502 123.884 74.9502H142.076C142.4 74.9502 142.661 75.2081 142.661 75.5243Z" fill="#3B1A54"/>
<path d="M146.002 86.8036V120.951H146C146.001 120.961 146.002 120.971 146.002 120.98V120.982C145.987 122.303 119.958 122.303 119.958 120.981C119.958 120.972 119.959 120.961 119.96 120.951H119.957V86.8015C119.957 85.3863 120.507 84.0253 121.492 82.9938L122.608 81.8242C123.454 80.94 123.927 79.7714 123.928 78.5578L123.932 76.8008H142.121V78.5496C142.121 78.5783 142.121 78.6059 142.122 78.6345C142.143 79.885 142.638 81.0843 143.513 81.9971L144.465 82.9918C145.452 84.0243 146.002 85.3863 146.002 86.8026V86.8036Z" fill="#80C7A7"/>
<path d="M119.96 116.467H146.005V89.8913H119.96V116.467Z" fill="#FFFAEC"/>
<path d="M123.399 107.483H142.034V96.7323H123.399V107.483Z" fill="#80C7A7"/>
<path d="M123.399 110.321H142.034V108.351H123.399V110.321Z" fill="#80C7A7"/>
<path d="M123.399 113.156H142.034V111.186H123.399V113.156Z" fill="#80C7A7"/>
<g style="mix-blend-mode:screen">
<path d="M122.835 120.056C122.405 120.056 122.056 119.711 122.056 119.287C122.056 118.698 122.027 117.529 121.991 116.048C121.882 111.606 121.701 104.172 121.883 97.4411C122.19 86.1469 123.362 83.7943 124.218 83.0063C124.533 82.7167 125.027 82.7331 125.32 83.0442C125.613 83.3553 125.597 83.8414 125.282 84.132C124.826 84.5515 123.736 86.6913 123.443 97.483C123.262 104.175 123.443 111.584 123.551 116.012C123.589 117.561 123.616 118.682 123.616 119.289C123.616 119.713 123.267 120.058 122.836 120.058L122.835 120.056Z" fill="white"/>
</g>
<path d="M143.543 61.0343H122.41L122.421 61.0262L123.851 59.9507L124.897 59.1627C126.55 58.1251 127.55 56.3302 127.55 54.4043V43.4724C127.55 43.4724 128.464 40.4424 132.976 40.4424C133.833 40.4424 134.568 40.556 135.194 40.7402C137.801 41.5025 138.536 43.4724 138.536 43.4724V54.4688C138.536 56.3834 139.524 58.1691 141.161 59.2098L142.149 59.9681L143.529 61.0251L143.542 61.0343H143.543Z" fill="#80C7A7"/>
<path d="M143.543 61.1963V73.8945C143.543 74.4768 143.061 74.9495 142.468 74.9495H123.485C122.891 74.9495 122.41 74.4768 122.41 73.8945V61.1871C122.41 61.1359 122.413 61.0848 122.419 61.0346C122.421 61.0316 122.421 61.0285 122.421 61.0265C122.493 60.4954 122.921 60.0666 123.476 59.997C123.592 59.9827 123.719 59.9663 123.851 59.951C125.783 59.7156 129.39 59.339 132.976 59.2981C133.825 59.2889 134.808 59.3237 135.825 59.383C138.144 59.5202 140.643 59.7903 142.15 59.9684C142.263 59.9806 142.37 59.9939 142.471 60.0062C143.025 60.0727 143.454 60.4974 143.53 61.0265C143.531 61.0295 143.531 61.0326 143.532 61.0357C143.538 61.0879 143.543 61.1421 143.543 61.1974V61.1963Z" fill="#3F9896"/>
<g style="mix-blend-mode:screen">
<path d="M128.825 43.4687C128.708 45.9471 128.417 53.7477 129.137 55.9929C131.224 55.8711 130.172 45.8182 130.271 44.8501C130.396 43.6129 135.352 43.0235 134.899 42.4679C133.778 41.0956 128.9 41.904 128.826 43.4676L128.825 43.4687Z" fill="white"/>
</g>
<g style="mix-blend-mode:multiply">
<path d="M146.002 86.5024V119.622H146C146.001 119.63 146.002 120.635 146.002 120.951V120.982C145.987 122.303 119.958 122.303 119.958 120.981C119.958 120.971 119.959 120.961 119.96 120.951H119.957V119.631C124.627 121.489 139.439 120.471 139.439 119.389C139.439 119.38 139.438 119.37 139.437 119.361L139.709 86.5024C139.709 85.1281 139.16 83.8071 138.172 82.8063L137.221 81.8403C136.327 80.9357 135.829 79.7404 135.829 78.4971V76.8015H142.12V78.4971C142.12 78.5432 142.121 78.5882 142.122 78.6342C142.157 79.8264 142.65 80.9684 143.513 81.8403L144.464 82.8063C145.452 83.806 146.002 85.1281 146.002 86.5024Z" fill="#C6ADD2"/>
</g>
<g style="mix-blend-mode:multiply">
<path d="M143.54 61.034C143.547 61.0862 143.551 61.1404 143.551 61.1956V73.8938C143.551 74.4761 143.07 74.9489 142.477 74.9489H142.081C142.405 74.9489 142.666 75.2067 142.666 75.5229V76.2259C142.666 76.5432 142.405 76.8 142.081 76.8H135.834C135.828 76.3549 135.861 75.7225 135.912 74.9478C136.126 71.7234 136.662 66.0349 136.075 61.0329C136.009 60.4722 135.929 59.9196 135.833 59.3813C134.838 53.8064 136.5 44.7685 135.202 40.7388C137.809 41.5011 138.544 43.471 138.544 43.471V54.4674C138.544 56.382 139.533 58.1677 141.169 59.2084L142.157 59.9667C142.27 59.9789 142.377 59.9922 142.479 60.0045C143.032 60.071 143.462 60.4957 143.537 61.0248L143.55 61.034H143.539H143.54Z" fill="#C6ADD2"/>
</g>
<path d="M194.118 23.6843H170.709C170.709 28.9949 166.346 31.9632 160.965 31.9632C156.801 31.9632 153.427 36.6314 153.427 40.74V111.916C153.427 116.442 157.143 120.109 161.729 120.109H203.098C207.684 120.109 211.4 116.442 211.4 111.916V40.74C211.4 36.6314 208.025 31.9632 203.862 31.9632C198.481 31.9632 194.118 28.9949 194.118 23.6843Z" fill="#AE80C4"/>
<path d="M211.4 53.8223H153.427V92.2931H211.4V53.8223Z" fill="#F0E1F7"/>
<g style="mix-blend-mode:multiply">
<path d="M211.393 40.7385V111.915C211.393 116.44 207.676 120.109 203.09 120.109H161.72C158.829 120.109 156.283 118.65 154.797 116.437C155.611 116.807 156.5 117.01 157.428 117.01H193.056C197.004 117.01 200.206 113.341 200.206 108.815V37.6388C200.206 33.5302 189.296 28.1207 187.778 26.7144C186.913 25.9148 186.236 24.8978 185.815 23.6829H194.109C194.109 26.3381 195.199 28.4078 196.963 29.8141C198.726 31.2205 201.161 31.9617 203.853 31.9617C208.015 31.9617 211.391 36.6299 211.391 40.7385H211.393Z" fill="#AE80C4" fill-opacity="0.5"/>
</g>
<path d="M201.39 18.0928H163.455C161.357 18.0928 159.656 19.771 159.656 21.8413V28.2078C159.656 30.278 161.357 31.9563 163.455 31.9563H201.39C203.488 31.9563 205.188 30.278 205.188 28.2078V21.8413C205.188 19.771 203.488 18.0928 201.39 18.0928Z" fill="#3B1A54"/>
<g style="mix-blend-mode:screen">
<path d="M158.772 101.714C157.967 101.714 157.312 101.07 157.312 100.273V42.039C157.312 41.2442 157.965 40.5986 158.772 40.5986C159.579 40.5986 160.232 41.2426 160.232 42.039V100.273C160.232 101.068 159.579 101.714 158.772 101.714Z" fill="#AE80C4"/>
</g>
<path d="M188.341 122.16C188.371 124.028 187.804 125.737 186.865 126.982C185.926 128.229 184.616 129.015 183.16 129.037L163.068 129.358C160.157 129.404 157.725 126.385 157.664 122.649C157.634 120.78 158.201 119.072 159.14 117.826C160.079 116.58 161.39 115.794 162.845 115.771L182.937 115.45C185.849 115.404 188.28 118.423 188.341 122.16Z" fill="white"/>
<path d="M172.197 129.212L163.068 129.358C160.157 129.404 157.725 126.385 157.664 122.649C157.634 120.78 158.201 119.071 159.14 117.826C160.079 116.579 161.39 115.793 162.845 115.771L171.974 115.625C173.962 115.594 174.184 129.18 172.197 129.213V129.212Z" fill="#FFE382"/>
<g style="mix-blend-mode:multiply">
<path d="M163.067 129.359L183.16 129.038C184.616 129.015 185.927 128.229 186.865 126.983C187.804 125.737 188.373 124.029 188.342 122.16C188.328 121.32 188.195 120.517 187.964 119.778C187.711 120.7 187.304 121.53 186.785 122.22C185.847 123.466 184.536 124.252 183.08 124.276L162.988 124.597C160.73 124.633 158.762 122.826 157.962 120.27C157.757 121.013 157.651 121.816 157.664 122.651C157.726 126.388 160.158 129.407 163.068 129.36L163.067 129.359Z" fill="#E3E3E3"/>
</g>
<path d="M146.215 128.503C147.806 129.517 149.574 129.945 151.143 129.818C152.711 129.692 154.081 129.01 154.87 127.803L165.778 111.147C167.359 108.734 166.049 105.1 162.868 103.072C161.277 102.058 159.508 101.629 157.94 101.756C156.372 101.883 155.002 102.565 154.212 103.771L143.305 120.426C141.724 122.839 143.034 126.473 146.215 128.501V128.503Z" fill="white"/>
<path d="M160.818 118.716L165.774 111.149C167.355 108.735 166.045 105.102 162.864 103.073C161.273 102.059 159.504 101.63 157.936 101.758C156.368 101.884 154.998 102.566 154.208 103.773L149.253 111.34C148.174 112.987 159.74 120.363 160.818 118.716Z" fill="#FFE382"/>
<g style="mix-blend-mode:multiply">
<path d="M165.783 111.149L154.875 127.805C154.085 129.011 152.717 129.693 151.147 129.819C149.579 129.947 147.809 129.518 146.218 128.504C145.504 128.048 144.884 127.512 144.37 126.927C145.297 127.201 146.226 127.301 147.094 127.231C148.662 127.105 150.032 126.423 150.822 125.216L161.729 108.561C162.955 106.689 162.443 104.084 160.667 102.063C161.415 102.285 162.161 102.621 162.871 103.073C166.052 105.102 167.361 108.736 165.781 111.149H165.783Z" fill="#E3E3E3"/>
</g>
</svg>
