<svg width="226" height="196" viewBox="0 0 226 196" fill="none" xmlns="http://www.w3.org/2000/svg">
<path d="M72.2732 175.724C71.9578 175.416 69.7653 172.338 68.9244 171.039C68.7291 169.702 68.6766 163.591 68.5114 161.743C68.7066 161.758 71.3872 159.558 71.252 158.132C71.1018 156.54 69.8179 155.106 68.2636 154.753C66.8971 154.438 64.3892 155.331 64.5619 157.051C64.2916 160.302 66.8746 161.15 67.4978 161.466C67.3251 163.973 67.3025 166.481 67.5503 168.989C65.1026 165.46 62.2568 162.029 59.0808 159.799C59.8917 154.858 59.0432 149.73 56.5053 145.397C55.0487 142.912 53.104 140.705 51.0091 138.737C48.2235 136.124 44.3791 134.675 41.7962 131.987C41.7962 131.987 44.1314 145.863 47.758 150.593C49.5525 152.928 50.5811 154.73 58.3074 160.347C61.7613 164.326 68.181 172.616 68.2036 172.676C64.7797 170.686 60.8227 169.447 57.0384 168.479C55.1914 164.814 52.218 162.75 48.246 161.27C43.1778 159.378 31.9977 156.39 32.1553 156.78C35.2714 164.514 42.3594 169.102 45.1976 169.988C48.0508 170.881 52.5559 171.557 57.564 169.627C57.564 169.627 57.564 169.612 57.5565 169.605C60.207 170.633 62.85 171.7 65.478 172.773C67.4152 173.569 68.8793 174.568 70.2609 175.724C70.2609 175.724 76.4329 181.986 79.8192 183.683L81.4861 182.519C81.4861 182.519 77.7168 180.545 72.2882 175.747L72.2732 175.724Z" fill="#C2B075"/>
<path d="M52.3457 178.787C52.3457 178.787 60.2821 180.289 67.5053 180.86C74.338 181.4 78.6929 181.821 78.6929 181.821L78.1073 183.803C78.1073 183.803 71.5523 183.277 67.2875 182.767C60.3197 181.933 53.4194 180.882 46.5266 179.898C44.4017 180.304 37.4038 183.352 34.2878 184.524C34.4079 185.042 34.3779 185.68 34.0099 186.408C33.199 188.038 32.0878 188.608 30.3083 187.52C29.0694 186.761 28.6789 185.064 30.0079 183.195C30.8714 182.279 32.2229 182.286 33.3417 183.037C33.4243 183.09 33.5744 183.225 33.7321 183.42C36.5403 182.331 39.2358 180.289 42.1341 179.185C40.8877 178.945 34.1151 177.173 32.0352 176.399C24.4892 176.129 19.496 175.806 13.5118 177.143C13.5118 177.533 13.4067 177.969 13.1739 178.442C12.363 180.071 11.2517 180.642 9.47222 179.553C8.23332 178.795 7.84288 177.098 9.17188 175.228C10.0354 174.312 11.3869 174.32 12.5056 175.07C12.6708 175.183 13.0913 175.581 13.3316 176.197C17.9643 174.77 22.965 174.537 27.8229 174.725C26.7943 174.282 17.5288 171.098 17.3711 171.091C13.3391 170.948 8.87905 170.595 4.95962 169.244C4.91457 169.357 4.89205 169.469 4.83198 169.589C4.02106 171.219 2.90981 171.789 1.1303 170.701C-0.108602 169.942 -0.499043 168.245 0.829958 166.376C1.69343 165.46 3.04496 165.467 4.16372 166.218C4.38147 166.368 5.06474 167.036 5.14734 168.073C8.49612 169.124 11.8749 169.296 15.3138 169.709C12.5807 168.914 8.00807 165.918 4.2313 162.276C3.48796 163.14 2.51186 163.297 1.13781 162.456C-0.101094 161.698 -0.491535 160.001 0.837466 158.131C1.70094 157.215 3.05247 157.223 4.17123 157.974C4.47157 158.176 5.64289 159.348 4.92208 161.112C6.88179 162.666 8.84902 164.206 10.8763 165.617C9.53229 162.674 9.1869 159.701 9.15686 156.517C8.84902 156.427 8.51864 156.292 8.15824 156.074C6.91934 155.316 6.52889 153.619 7.8579 151.749C8.72137 150.833 10.0729 150.841 11.1917 151.591C11.507 151.802 12.7985 153.071 11.8524 154.963C11.4545 155.774 10.9739 156.314 10.3807 156.532C11.0115 161.142 13.1288 166.984 13.1364 167.006C25.18 172.901 25.7506 172.397 31.8925 174.643C30.5185 173.314 25.6455 169.184 23.6107 163.372C23.1301 163.38 22.582 163.207 21.9438 162.817C20.7049 162.058 20.3145 160.361 21.6435 158.492C22.5069 157.576 23.8585 157.583 24.9772 158.334C25.2926 158.544 26.584 159.813 25.638 161.705C25.4052 162.171 25.1499 162.531 24.8646 162.817C27.6277 167.562 33.9574 175.311 35.0161 175.821C35.2338 175.926 46.4965 178.322 50.3484 178.855" fill="#C2B075"/>
<path d="M182.16 109.664C183.136 113.651 181.972 123.187 181.995 123.292C182.881 126.498 182.978 129.321 182.385 132.227C182.768 132.002 185.614 129.516 186.74 128.45C187.243 127.196 188.722 121.265 189.308 119.508C189.113 119.47 187.025 116.714 187.483 115.355C188.001 113.846 189.578 112.75 191.177 112.765C192.582 112.78 194.812 114.229 194.241 115.866C193.745 119.087 191.035 119.32 190.359 119.47C189.939 121.948 189.383 124.388 188.549 126.776C191.756 123.915 195.315 121.242 198.934 119.808C199.294 114.815 201.314 110.024 204.798 106.405C206.795 104.325 209.198 102.636 211.698 101.209C215.017 99.3173 219.094 98.8067 222.233 96.7944C222.233 96.7944 216.729 109.747 212.096 113.501C209.806 115.355 208.387 116.865 199.564 120.521C195.277 123.585 187.1 130.155 187.07 130.2C190.862 129.066 195.007 128.781 198.911 128.72C201.562 125.589 204.933 124.275 209.145 123.757C214.514 123.097 226.084 122.796 225.837 123.142C221.001 129.937 213.042 132.738 210.076 132.94C207.088 133.143 202.553 132.753 198.138 129.704C198.138 129.704 198.145 129.689 198.153 129.689C195.337 130.072 192.521 130.492 189.706 130.928C187.641 131.251 185.982 131.882 184.367 132.677C183.616 133.413 177.993 139.908 176.588 141.83C178.421 141.282 182.137 140.163 182.137 140.163C186.71 135.005 201.396 133.128 199.73 134.87C196.974 137.753 186.507 144.714 182.67 140.847C180.26 141.905 177.722 142.551 175.342 143.557C173.427 146.283 169.185 152.77 168.892 153.228C169.343 152.868 173.698 148.565 181.101 147.274C181.965 145.982 182.971 146.095 183.842 146.23C186.019 146.568 185.621 148.55 185.088 149.136C182.287 152.222 180.335 150.15 180.478 148.498C177.955 149.451 175.335 150.15 172.954 151.366C172.969 151.366 172.984 151.366 172.999 151.366C175.725 151.576 178.511 152.357 180.568 154.167C180.703 153.994 182.73 152.237 184.307 152.477C186.762 152.86 186.41 156.322 185.539 157.125C181.627 160.699 180.373 157.17 180.147 154.985C177.294 152.823 171.866 152.132 171.843 152.154C170.852 152.868 169.005 154.107 167.946 154.67C164.522 159.836 160.888 164.986 156.578 169.379C159.146 168.613 161.782 167.952 164.417 167.75C166.069 167.622 167.698 167.629 169.32 167.524C169.335 167.509 169.343 167.487 169.358 167.472C179.029 157.32 204.024 157.44 205.864 158.004C206.615 158.236 194.218 168.913 186.717 169.92C181.987 170.55 169.335 168.711 169.335 168.711C165.303 168.943 159.987 169.574 154.551 171.339C152.344 173.351 149.963 175.153 147.343 176.662C148.822 176.73 150.324 176.7 151.78 176.902C154.153 177.225 156.481 177.781 158.778 178.449C158.823 178.464 158.853 178.494 158.898 178.509C161.939 177.586 165.018 177.053 168.307 177.661C171.197 178.194 174.006 179.207 176.866 179.891C179.862 180.612 186.928 181.963 186.207 183.195C184.517 186.055 174.051 188.916 168.404 187.835C164.672 187.121 163.178 185.079 156.811 179.192C154.589 178.592 152.344 178.119 150.046 177.901C148.589 177.758 147.118 177.818 145.691 177.556C144.903 177.954 132.656 184.141 128.376 184.396C127.896 184.426 127.566 183.758 128.084 183.517C132.994 181.31 138.175 180.409 142.823 177.511C144.062 176.039 145.203 173.989 145.744 173.103C148.071 169.266 148.83 165.129 148.83 160.804C144.7 157.861 144.039 151.238 144.017 146.606C144.002 144.06 144.152 141.41 145.023 138.992C146.262 135.568 147.741 130.477 148.754 129.006C149.28 128.247 153.793 134.082 154.859 137.16C155.91 140.186 155.647 143.512 155.062 146.598C154.356 150.315 153.35 156.697 150.091 159.333C150.737 165.016 149.408 170.047 146.667 174.109C146.329 174.612 145.796 175.461 145.15 176.354C151.698 172.382 161.496 163.733 165.491 153.971C166.384 151.794 166.88 149.406 167.18 147.056C166.918 147.199 161.181 137.333 160.903 131.378C160.648 125.875 164.763 114.665 165.146 115.378C169.478 123.487 171.595 134.675 168.209 147.071C167.548 149.481 167.383 151.396 166.67 154.002C168.179 151.794 180.778 133.293 181.296 132.933C181.574 131.829 181.792 130.703 181.814 129.569C181.844 127.617 181.244 125.74 181.101 123.802C180.868 124.08 171.956 114.567 170.169 108.793C168.509 103.417 170.507 98.3937 172.519 93.4006C172.729 92.875 180.756 103.83 182.182 109.656L182.16 109.664Z" fill="#C2B075"/>
<path d="M103.629 109.449C103.576 110.17 102.142 111.01 99.3262 111.987C96.4579 112.963 93.0191 113.759 89.0245 114.367C84.9249 115.035 81.4635 115.313 78.6478 115.215C75.8321 115.118 74.3905 114.705 74.3455 113.984V195.278H103.636V109.449H103.629Z" fill="#934291"/>
<path d="M103.629 109.449V109.374C103.629 108.653 102.194 108.248 99.3262 108.143C96.4579 108.038 93.0191 108.293 89.0245 108.908C84.9249 109.524 81.4635 110.343 78.6478 111.371C75.8321 112.347 74.3905 113.188 74.3455 113.909V113.984C74.398 114.705 75.8847 116.59 78.7004 116.695C81.5161 116.8 84.8949 116.409 88.9945 115.741C92.989 115.126 97.2839 114.382 100.152 113.406C102.968 112.43 103.591 110.162 103.644 109.442L103.629 109.449Z" fill="#C6ADD2"/>
<path d="M90.7665 76.7269C89.0321 73.6934 87.3877 73.9037 85.841 77.3801C84.1666 80.849 82.74 84.4756 81.5687 88.2524C80.3898 92.0292 79.5264 95.6558 78.9632 99.1247C78.4076 102.534 78.7154 105.537 79.8943 108.142C81.0731 110.748 83.9188 112.047 88.4464 112.047C92.974 112.047 95.9174 110.748 97.0887 108.142C98.3276 105.537 98.6354 102.534 98.0197 99.1247C97.5242 95.6558 96.6232 91.8114 95.3242 87.5992C94.0252 83.3268 92.501 79.7002 90.7665 76.7269ZM87.2376 93.4558C88.041 91.7213 88.8819 91.5937 89.7454 93.0803C90.6164 94.6271 91.3597 96.4592 91.9754 98.5615C92.6587 100.671 93.1242 102.624 93.372 104.418C93.6798 106.093 93.5297 107.579 92.9065 108.878C92.2833 110.177 90.8642 110.83 88.6341 110.83C86.2765 110.83 84.8198 110.177 84.2642 108.878C83.641 107.579 83.4908 106.093 83.7987 104.418C84.0465 102.624 84.4819 100.792 85.0976 98.937C85.6533 97.0148 86.3666 95.1902 87.2376 93.4558Z" fill="#FFE382"/>
<path d="M89.7454 93.0883C88.8744 91.6016 88.041 91.7217 87.2376 93.4637C86.3666 95.1982 85.6608 97.0302 85.0976 98.9449C84.4744 100.807 84.0464 102.632 83.7987 104.426C83.4908 106.1 83.641 107.587 84.2642 108.886C84.8198 110.185 86.2765 110.838 88.6341 110.838C90.8641 110.838 92.2908 110.185 92.9064 108.886C93.5221 107.587 93.6798 106.1 93.372 104.426C93.1242 102.632 92.6587 100.679 91.9754 98.5695C91.3522 96.4596 90.6089 94.635 89.7454 93.0883Z" fill="#FFFAEC"/>
<path d="M137.229 68.2021C137.124 68.923 135.69 69.7639 132.927 70.74C130.209 71.7161 126.777 72.512 122.625 73.1202C118.833 73.7885 115.372 74.0663 112.248 73.9687C109.478 73.9161 108.044 73.5106 107.946 72.7373V195.756H137.237V68.2021H137.229Z" fill="#934291"/>
<path d="M137.229 68.2025V68.1274C137.229 67.4066 135.795 67.0012 132.927 66.896C129.901 66.7909 126.469 67.0462 122.625 67.6619C118.676 68.2776 115.222 69.096 112.248 70.1247C109.478 71.1008 108.044 71.9417 107.946 72.6626V72.7376C108.051 73.5035 109.53 75.696 112.301 75.7485C115.424 75.8537 119.329 76.0714 123.121 75.4032C127.273 74.7875 131.29 73.6987 134.008 72.7226C136.778 71.7465 137.131 68.9158 137.237 68.2025H137.229Z" fill="#C6ADD2"/>
<path d="M128.917 46.856C127.618 42.5837 126.094 38.9571 124.36 35.9837C122.625 32.9503 120.981 33.1605 119.434 36.637C117.76 40.1059 116.333 43.7325 115.162 47.5092C113.983 51.286 113.119 54.9126 112.556 58.3815C112.001 61.7904 112.308 64.7938 113.487 67.3992C114.666 70.0046 117.549 71.3036 122.13 71.3036C126.71 71.3036 129.533 70.0046 130.772 67.3992C131.951 64.7938 132.228 61.7904 131.605 58.3815C131.11 54.9126 130.209 51.0683 128.91 46.856M120.823 52.7126C121.626 50.9781 122.467 50.8505 123.331 52.3372C124.202 53.8839 124.945 55.716 125.561 57.8184C126.244 59.9283 126.71 61.8805 126.957 63.675C127.265 65.3494 127.115 66.8361 126.492 68.135C125.869 69.434 124.45 70.0872 122.22 70.0872C119.862 70.0872 118.405 69.434 117.85 68.135C117.226 66.8361 117.076 65.3494 117.384 63.675C117.632 61.8805 118.067 60.0484 118.683 58.1938C119.239 56.2716 119.952 54.4471 120.823 52.7126Z" fill="#FFE382"/>
<path d="M123.346 52.3441C122.475 50.8574 121.641 50.9776 120.838 52.7196C119.967 54.454 119.261 56.2861 118.698 58.2007C118.075 60.0628 117.647 61.8874 117.399 63.6819C117.091 65.3563 117.241 66.843 117.865 68.142C118.42 69.4409 119.877 70.0942 122.235 70.0942C124.465 70.0942 125.891 69.4409 126.507 68.142C127.13 66.843 127.28 65.3563 126.972 63.6819C126.725 61.8874 126.259 59.9352 125.576 57.8253C124.953 55.7154 124.209 53.8909 123.346 52.3441Z" fill="#FFFAEC"/>
<path style="mix-blend-mode:screen" opacity="0.5" d="M165.782 64.2855C171.474 40.1668 156.537 16 132.418 10.3074C108.299 4.6149 84.1325 19.5523 78.4399 43.671C72.7474 67.7897 87.6848 91.9565 111.803 97.649C135.922 103.342 160.089 88.4042 165.782 64.2855Z" fill="url(#paint0_radial_903_363)"/>
<path style="mix-blend-mode:screen" opacity="0.5" d="M88.987 134.851C107.283 134.851 122.114 120.019 122.114 101.723C122.114 83.4274 107.283 68.5957 88.987 68.5957C70.6913 68.5957 55.8596 83.4274 55.8596 101.723C55.8596 120.019 70.6913 134.851 88.987 134.851Z" fill="url(#paint1_radial_903_363)"/>
<defs>
<radialGradient id="paint0_radial_903_363" cx="0" cy="0" r="1" gradientUnits="userSpaceOnUse" gradientTransform="translate(122.109 53.9845) scale(44.8707)">
<stop stop-color="#FFFF12" stop-opacity="0.6"/>
<stop offset="1" stop-color="#C2B075" stop-opacity="0"/>
</radialGradient>
<radialGradient id="paint1_radial_903_363" cx="0" cy="0" r="1" gradientUnits="userSpaceOnUse" gradientTransform="translate(88.987 101.723) scale(33.1274)">
<stop stop-color="#FFFF12" stop-opacity="0.6"/>
<stop offset="1" stop-color="#C2B075" stop-opacity="0"/>
</radialGradient>
</defs>
</svg>
