<svg width="108" height="143" viewBox="0 0 108 143" fill="none" xmlns="http://www.w3.org/2000/svg">
<g clip-path="url(#clip0_952_12484)">
<path d="M91.4518 0.00011063C91.4518 0.00011063 90.8753 6.36217 91.4518 9.25563C92.0284 12.1491 104.133 38.7582 106.147 46.8564C108.165 54.9545 109.03 126.687 106.147 129.867C103.264 133.046 98.6553 133.918 85.9745 135.071C73.2936 136.229 37.8491 144.038 27.4745 142.88C17.0999 141.723 2.98112 134.493 0.963142 131.599C-1.05482 128.706 0.674866 55.5297 0.963142 46.8528C1.25143 38.176 13.0674 10.4095 13.0674 8.96275C13.0674 7.51603 12.2026 -0.00341797 12.2026 -0.00341797H91.4518V0.00011063Z" fill="#FFC876"/>
<path d="M27.766 140.587C28.2442 140.587 28.6379 140.198 28.645 139.719C28.6485 139.472 29.0071 114.627 29.1864 89.8559C29.5485 39.4604 28.8559 38.483 28.4832 37.9608C27.3371 36.3482 17.5391 16.2105 13.8618 8.5852C13.6508 8.14765 13.1235 7.96417 12.6875 8.17588C12.2516 8.3876 12.0688 8.91689 12.2797 9.35444C12.8141 10.4659 25.277 36.2882 26.9961 38.8994C27.9418 42.3362 27.4532 100.943 26.8907 139.694C26.8836 140.181 27.2703 140.583 27.7555 140.59H27.7696L27.766 140.587Z" fill="#3B1A54"/>
<path d="M40.6264 71.5001L44.6553 76.0061L42.3947 81.6166L47.7209 84.4606L47.5205 90.5086L53.49 91.3555L55.3533 97.1142L61.2561 95.8615L64.9721 100.629L70.0873 97.4176L75.2061 100.629L78.9221 95.8615L84.8248 97.1142L86.6881 91.3555L92.6576 90.5086L92.4572 84.4606L97.7834 81.6166L95.5229 76.0061L99.5518 71.5001L95.5229 66.9976L97.7834 61.3836L92.4572 58.5395L92.6576 52.4915L86.6846 51.6446L84.8248 45.886L78.9221 47.1386L75.2061 42.375L70.0873 45.5825L64.9721 42.375L61.2561 47.1386L55.3533 45.8895L53.49 51.6446L47.5205 52.4915L47.7209 58.543L42.3947 61.3836L44.6553 66.9976L40.6264 71.5001Z" fill="#FFE382"/>
<path d="M23.2275 123.572L22.1447 136.158L4.42246 129.867V117.721L23.2275 123.572Z" fill="#FFE382"/>
<path d="M80.5539 67.9748L59.6324 67.4738C59.6324 67.4738 60.7996 61.6233 54.4539 62.7807C48.1082 63.9416 54.0461 71.4223 54.0461 71.4223C54.0461 71.4223 48.3332 73.2148 50.2176 78.4653C52.1019 83.7124 59.1965 76.0094 59.1965 76.0094L80.7508 75.8754C80.7508 75.8754 83.4332 81.941 87.9121 78.9876C92.391 76.0341 85.9609 71.7998 85.9609 71.7998C85.9609 71.7998 93.7269 66.5634 88.4887 64.1922C83.2504 61.8209 80.5574 67.9748 80.5574 67.9748H80.5539Z" fill="white"/>
<path d="M17.4268 9.49535H21.6455C21.9373 9.49535 22.1729 9.25893 22.1729 8.96606C22.1729 8.67318 21.9373 8.43677 21.6455 8.43677H17.4268C17.135 8.43677 16.8994 8.67318 16.8994 8.96606C16.8994 9.25893 17.135 9.49535 17.4268 9.49535ZM25.8643 9.49535H30.083C30.3748 9.49535 30.6104 9.25893 30.6104 8.96606C30.6104 8.67318 30.3748 8.43677 30.083 8.43677H25.8643C25.5725 8.43677 25.3369 8.67318 25.3369 8.96606C25.3369 9.25893 25.5725 9.49535 25.8643 9.49535ZM34.3018 9.49535H38.5205C38.8123 9.49535 39.0479 9.25893 39.0479 8.96606C39.0479 8.67318 38.8123 8.43677 38.5205 8.43677H34.3018C34.01 8.43677 33.7744 8.67318 33.7744 8.96606C33.7744 9.25893 34.01 9.49535 34.3018 9.49535ZM42.7393 9.49535H46.958C47.2498 9.49535 47.4854 9.25893 47.4854 8.96606C47.4854 8.67318 47.2498 8.43677 46.958 8.43677H42.7393C42.4475 8.43677 42.2119 8.67318 42.2119 8.96606C42.2119 9.25893 42.4475 9.49535 42.7393 9.49535ZM51.1768 9.49535H55.3955C55.6873 9.49535 55.9229 9.25893 55.9229 8.96606C55.9229 8.67318 55.6873 8.43677 55.3955 8.43677H51.1768C50.885 8.43677 50.6494 8.67318 50.6494 8.96606C50.6494 9.25893 50.885 9.49535 51.1768 9.49535ZM59.6143 9.49535H63.833C64.1248 9.49535 64.3604 9.25893 64.3604 8.96606C64.3604 8.67318 64.1248 8.43677 63.833 8.43677H59.6143C59.3225 8.43677 59.0869 8.67318 59.0869 8.96606C59.0869 9.25893 59.3225 9.49535 59.6143 9.49535ZM68.0518 9.49535H72.2705C72.5623 9.49535 72.7979 9.25893 72.7979 8.96606C72.7979 8.67318 72.5623 8.43677 72.2705 8.43677H68.0518C67.76 8.43677 67.5244 8.67318 67.5244 8.96606C67.5244 9.25893 67.76 9.49535 68.0518 9.49535ZM76.4893 9.49535H80.708C80.9998 9.49535 81.2354 9.25893 81.2354 8.96606C81.2354 8.67318 80.9998 8.43677 80.708 8.43677H76.4893C76.1975 8.43677 75.9619 8.67318 75.9619 8.96606C75.9619 9.25893 76.1975 9.49535 76.4893 9.49535ZM84.9268 9.49535H89.1455C89.4373 9.49535 89.6729 9.25893 89.6729 8.96606C89.6729 8.67318 89.4373 8.43677 89.1455 8.43677H84.9268C84.635 8.43677 84.3994 8.67318 84.3994 8.96606C84.3994 9.25893 84.635 9.49535 84.9268 9.49535Z" fill="#3B1A54"/>
</g>
<defs>
<clipPath id="clip0_952_12484">
<rect width="108" height="143" fill="white" transform="matrix(-1 0 0 1 108 0)"/>
</clipPath>
</defs>
</svg>
