<svg width="102" height="153" viewBox="0 0 102 153" fill="none" xmlns="http://www.w3.org/2000/svg">
<g clip-path="url(#clip0_1026_13021)">
<path d="M59.3605 152.231H14.5451C8.88724 152.231 4.41465 147.459 4.79395 141.837L10.9102 51.3882H62.9955L69.1117 141.837C69.491 147.459 65.0184 152.231 59.3605 152.231Z" fill="#3F9896"/>
<path d="M6.03223 123.549H67.874L65.2294 84.4897H8.67152L6.03223 123.549Z" fill="#FFE382"/>
<path d="M44.8466 6.26074H29.0635V31.2208H44.8466V6.26074Z" fill="#3B1A54"/>
<path d="M53.4546 45.5773H20.4502L22.0359 32.8164C22.3098 30.6223 24.18 28.9688 26.4031 28.9688H47.507C49.7301 28.9688 51.6002 30.617 51.8742 32.8164L53.4599 45.5773H53.4546Z" fill="#FFE382"/>
<path d="M62.1049 68.2854H11.8423C9.39265 68.2854 7.52249 66.1122 7.89125 63.7028L10.3567 47.6612C10.5411 46.4644 11.5736 45.5825 12.7853 45.5825H61.3252C62.5474 45.5825 63.5852 46.4801 63.759 47.6822L66.0612 63.7396C66.4036 66.1385 64.5387 68.2854 62.1049 68.2854Z" fill="#FFE382"/>
<path d="M43.9672 6.26072H3.09757C1.46974 6.26072 0.147461 4.94316 0.147461 3.32115C0.147461 1.69915 1.46974 0.381592 3.09757 0.381592H43.9672C45.595 0.381592 46.9173 1.69915 46.9173 3.32115C46.9173 4.94316 45.595 6.26072 43.9672 6.26072Z" fill="#3F9896"/>
<path d="M94.4776 132.573H59.3765L52.1013 61.955C51.9696 60.6637 52.9864 59.5352 54.2929 59.5352H99.1293C100.431 59.5352 101.447 60.6532 101.321 61.9393L94.4723 132.573H94.4776Z" fill="#FFCCCC"/>
<path d="M97.4277 70.5269H55.9839C55.594 70.5269 55.2832 70.2119 55.2832 69.8288C55.2832 69.4456 55.5993 69.1306 55.9839 69.1306H97.4277C97.8175 69.1306 98.1283 69.4456 98.1283 69.8288C98.1283 70.2119 97.8123 70.5269 97.4277 70.5269Z" fill="#3B1A54"/>
<path d="M59.3764 132.573H94.4774V139.643C94.4774 146.588 88.8196 152.231 81.8446 152.231H72.0039C65.0343 152.231 59.3711 146.593 59.3711 139.643V132.573H59.3764Z" fill="#3B1A54"/>
<path d="M35.2433 94.033C35.7754 96.0539 35.2802 100.81 33.252 101.345C31.2238 101.875 28.437 97.9804 27.9049 95.9647C27.3729 93.9438 28.5792 91.8808 30.6075 91.3454C32.6357 90.8152 34.706 92.0173 35.2433 94.0383V94.033Z" fill="white"/>
<path d="M38.6625 94.033C38.1304 96.0539 38.6256 100.81 40.6538 101.345C42.682 101.875 45.4688 97.9804 46.0009 95.9647C46.533 93.9438 45.3266 91.8808 43.2984 91.3454C41.2702 90.8152 39.1999 92.0173 38.6625 94.0383V94.033Z" fill="white"/>
<path d="M47.0803 100.804C45.9582 102.29 44.7676 106.384 46.2585 107.502C47.7494 108.62 51.3632 106.337 52.4853 104.852C53.6074 103.366 53.3072 101.256 51.811 100.138C50.3202 99.0197 48.2024 99.3189 47.0803 100.81V100.804Z" fill="white"/>
<path d="M26.8248 100.804C27.9469 102.29 29.1374 106.384 27.6466 107.502C26.1557 108.62 22.5418 106.337 21.4197 104.852C20.2976 103.366 20.5979 101.256 22.094 100.138C23.5849 99.0197 25.7027 99.3189 26.8248 100.81V100.804Z" fill="white"/>
<path d="M45.4628 110.148C44.6674 109.613 44.1248 108.799 43.893 107.875C43.1502 104.946 40.3634 102.768 37.0129 102.71C33.536 102.768 30.7492 104.946 30.0064 107.875C29.7746 108.799 29.2267 109.613 28.4365 110.148C25.9921 111.791 24.3327 115.66 26.777 118.074C27.7674 119.051 29.2425 119.376 30.6333 119.381C32.751 119.387 34.8319 118.778 36.9497 118.778C39.0622 118.778 41.1483 119.387 43.2661 119.381C44.6568 119.381 46.1319 119.056 47.1223 118.074C49.5667 115.66 47.9072 111.786 45.4628 110.148Z" fill="white"/>
<path d="M78.4455 115.439C86.3739 114.48 92.021 107.299 91.0587 99.3987C90.0965 91.4987 82.8893 85.8718 74.961 86.8306C67.0326 87.7894 61.3855 94.9708 62.3478 102.871C63.31 110.771 70.5172 116.398 78.4455 115.439Z" fill="white"/>
<path d="M76.7133 70.5268C76.3235 70.5268 76.0127 70.2119 76.0127 69.8287V62.5585C76.0127 62.1701 76.3288 61.8604 76.7133 61.8604C77.0979 61.8604 77.414 62.1753 77.414 62.5585V69.8287C77.414 70.2171 77.0979 70.5268 76.7133 70.5268Z" fill="#3B1A54"/>
<path d="M68.2846 70.5268C67.8948 70.5268 67.584 70.2119 67.584 69.8287V62.5585C67.584 62.1701 67.9001 61.8604 68.2846 61.8604C68.6692 61.8604 68.9853 62.1753 68.9853 62.5585V69.8287C68.9853 70.2171 68.6692 70.5268 68.2846 70.5268Z" fill="#3B1A54"/>
<path d="M59.8559 70.5268C59.4661 70.5268 59.1553 70.2119 59.1553 69.8287V62.5585C59.1553 62.1701 59.4713 61.8604 59.8559 61.8604C60.2405 61.8604 60.5566 62.1753 60.5566 62.5585V69.8287C60.5566 70.2171 60.2405 70.5268 59.8559 70.5268Z" fill="#3B1A54"/>
<path d="M93.6391 70.5268C93.2493 70.5268 92.9385 70.2119 92.9385 69.8287V62.5585C92.9385 62.1701 93.2546 61.8604 93.6391 61.8604C94.0237 61.8604 94.3398 62.1753 94.3398 62.5585V69.8287C94.3398 70.2171 94.0237 70.5268 93.6391 70.5268Z" fill="#3B1A54"/>
<path d="M85.2104 70.5268C84.8206 70.5268 84.5098 70.2119 84.5098 69.8287V62.5585C84.5098 62.1701 84.8258 61.8604 85.2104 61.8604C85.595 61.8604 85.9111 62.1753 85.9111 62.5585V69.8287C85.9111 70.2171 85.595 70.5268 85.2104 70.5268Z" fill="#3B1A54"/>
<path d="M54.1024 45.6824H19.0434C18.6536 45.6824 18.3428 45.3675 18.3428 44.9843C18.3428 44.6011 18.6589 44.2861 19.0434 44.2861H54.1024C54.4922 44.2861 54.803 44.6011 54.803 44.9843C54.803 45.3675 54.4869 45.6824 54.1024 45.6824Z" fill="#3B1A54"/>
<path d="M11.9533 135.623C11.5213 135.596 11.2263 135.266 11.2526 134.882L14.7927 75.2566C14.8138 74.8681 15.1404 74.5952 15.5355 74.6004C15.9254 74.6214 16.2204 74.9521 16.194 75.3405L12.6539 134.966C12.6328 135.339 12.322 135.628 11.9533 135.628V135.623Z" fill="white"/>
<path d="M76.7085 109.471C76.3186 109.471 76.0078 109.156 76.0078 108.773V93.172C76.0078 92.7836 76.3239 92.4739 76.7085 92.4739C77.093 92.4739 77.4091 92.7888 77.4091 93.172V108.773C77.4091 109.161 77.093 109.471 76.7085 109.471Z" fill="#3B1A54"/>
<path d="M84.6103 101.828H68.9536C68.5638 101.828 68.2529 101.513 68.2529 101.13C68.2529 100.747 68.569 100.432 68.9536 100.432H84.6103C85.0001 100.432 85.3109 100.747 85.3109 101.13C85.3109 101.513 84.9948 101.828 84.6103 101.828Z" fill="#3B1A54"/>
</g>
<defs>
<clipPath id="clip0_1026_13021">
<rect width="102" height="153" fill="white"/>
</clipPath>
</defs>
</svg>
