<?xml version="1.0" encoding="utf-8"?>
<!-- Generator: Adobe Illustrator 27.8.1, SVG Export Plug-In . SVG Version: 6.00 Build 0)  -->
<svg version="1.1" id="圖層_1" xmlns="http://www.w3.org/2000/svg" xmlns:xlink="http://www.w3.org/1999/xlink" x="0px" y="0px"
	 viewBox="0 0 180 180" style="enable-background:new 0 0 180 180;" xml:space="preserve">
<style type="text/css">
	.st0{fill:#D9D9D9;}
	.st1{fill:#999999;}
	.st2{fill:#3B1A54;}
</style>
<circle class="st0" cx="90" cy="90" r="90"/>
<path class="st1" d="M112.7,59.2c-2.6-8.7-2.7-13.6-2.2-16.4c0-0.2,0.1-0.6,0.1-0.8c0.4-2.4,0.8-4.9-0.5-5.8
	c-1.2-0.7-3.2,0.4-4.8,1.4c-1.2,0.2-4.4,0.9-7,3.7c-4.2,4.6-3.1,10.6-2.8,11.3c-2.6-0.7-5.8-1.3-9.4-1.3c-11,0-19.1,5.3-22.5,7.9
	c-8.8-7.4-17-11.1-19.9-8.6c-2.7,2.2-1.2,9.7-0.4,13.6c0.7,3.5,1.9,6.4,2.7,8.4c0.4,2.5,1.6,9.2,6,16.4c-0.2,4.7-0.6,10.3-1.2,16.3
	c-0.9,9.2-2,15.2-2.9,20.3c-1.1,5.7-1.9,10.3-2.1,17c-0.4,7.8,0.6,12.5,2,19c0.5,2.6,1.1,5.5,1.7,8.9c9.7,4.9,20.5,8.1,31.8,9.2
	h17.5c17.2-1.7,32.9-8.1,45.9-18v-0.1c-11.7-49.5-20.4-50.1-30.9-78.4C116.9,71.3,113.5,61.4,112.7,59.2z"/>
<g>
	<path class="st2" d="M76.1,67.6c0,2-1.3,3.7-3.1,3.7c-1.6,0-2.9-1.6-2.9-3.7c0-2,1.3-3.7,2.9-3.7C74.7,63.8,76.1,65.5,76.1,67.6z"
		/>
	<path class="st2" d="M99.9,62c0,2-1.3,3.7-3.1,3.7c-1.6,0-2.9-1.6-2.9-3.7s1.3-3.7,2.9-3.7C98.6,58.3,99.9,60,99.9,62z"/>
	<path class="st2" d="M91.7,69.6c-0.1,0.2-0.8-0.1-1.5,0.5c-1.3,0.9-0.2,4-0.8,4.1c-0.4,0.1-0.7-1.1-1.9-2.1
		c-1.8-1.8-3.7-1.6-3.7-2.4c0-0.8,2-1.8,3.9-1.6C89.9,68,91.8,69.1,91.7,69.6L91.7,69.6z"/>
	<path class="st2" d="M87.5,78.2c-0.5,0-1.1-0.2-1.3-0.8c-0.4-0.7,0-1.5,0.7-1.8c0.2-0.1,0.7-0.4,0.9-0.8c0.5-0.9-0.1-1.9-0.1-2
		c-0.4-0.6-0.2-1.5,0.5-1.9c0.6-0.4,1.4-0.2,1.9,0.4c0.5,0.8,1.2,2.8,0.2,4.7c-0.5,0.9-1.3,1.6-2.2,2C87.9,78.2,87.7,78.2,87.5,78.2
		L87.5,78.2z"/>
	<path class="st2" d="M92.8,76.5c-0.7,0-2.6-0.2-3.9-2c-1.3-1.6-1.2-3.4-1.1-4c0.1-0.7,0.8-1.3,1.5-1.2c0.7,0.1,1.3,0.8,1.2,1.5
		c0,0.1-0.1,1.2,0.5,1.9c0.7,0.8,1.6,0.9,1.9,0.9c0.7,0,1.3,0.7,1.3,1.4C94.2,75.9,93.6,76.5,92.8,76.5L92.8,76.5z"/>
	<path class="st2" d="M60.1,66.1c-0.7,0-1.3-0.5-1.4-1.2c-0.1-1.4-0.6-2.8-1.3-3.9c-2.7-4.5-8.7-4.6-9.4-4.6c-0.7,0-1.3-0.6-1.3-1.3
		s0.6-1.4,1.3-1.4c0.8,0,8.1,0.1,11.7,5.9c0.9,1.5,1.5,3.3,1.6,5.2c0.1,0.7-0.5,1.4-1.2,1.4C60.2,66.1,60.1,66.1,60.1,66.1
		L60.1,66.1z"/>
	<path class="st2" d="M99.6,54.9c-0.1,0-0.2,0-0.2,0c-0.7-0.1-1.2-0.8-1.1-1.6c0.9-4.4,2.9-8.2,5.9-11.2c1.1-0.9,2.1-1.9,3.4-2.6
		c0.6-0.4,1.4-0.2,1.9,0.5c0.4,0.6,0.2,1.4-0.5,1.9c-1.1,0.7-2,1.4-2.9,2.2c-2.6,2.5-4.4,5.9-5.2,9.8
		C100.9,54.4,100.3,54.9,99.6,54.9L99.6,54.9z"/>
	<path class="st2" d="M62.4,84.4c-0.5,0-0.9-0.2-1.2-0.8c-0.4-0.7,0-1.5,0.7-1.8l15.1-7c0.7-0.4,1.5,0,1.8,0.7
		c0.4,0.7,0,1.5-0.7,1.8l-15.1,7C62.7,84.4,62.6,84.4,62.4,84.4z"/>
	<path class="st2" d="M72.4,87.1c-0.4,0-0.6-0.1-0.9-0.4c-0.6-0.5-0.6-1.3-0.1-1.9l3.8-4.5c0.5-0.6,1.3-0.6,1.9-0.1
		c0.6,0.5,0.6,1.3,0.1,1.9l-3.8,4.5C73.1,86.8,72.7,87.1,72.4,87.1L72.4,87.1z"/>
	<path class="st2" d="M78.5,88.8c-0.2,0-0.5-0.1-0.7-0.2c-0.6-0.4-0.8-1.3-0.4-1.9l3.8-5.8c0.5-0.6,1.3-0.8,1.9-0.4
		c0.6,0.4,0.8,1.3,0.4,1.9l-3.8,5.7C79.4,88.6,79,88.8,78.5,88.8z"/>
	<path class="st2" d="M120.7,70.9c-0.1,0-24.9-1.2-24.9-1.2c-0.7,0-1.3-0.7-1.3-1.4c0-0.7,0.7-1.3,1.4-1.3l24.9,1.2
		c0.7,0,1.3,0.7,1.3,1.4C122,70.3,121.4,70.9,120.7,70.9L120.7,70.9z"/>
	<path class="st2" d="M129.6,78.2c-0.2,0-28-4.7-28-4.7c-0.7-0.1-1.3-0.8-1.1-1.5c0.1-0.7,0.8-1.3,1.5-1.1l27.8,4.7
		c0.7,0.1,1.2,0.8,1.1,1.5C130.8,77.8,130.2,78.2,129.6,78.2L129.6,78.2z"/>
	<path class="st2" d="M117,80.9c-0.1,0-0.2,0-0.4,0l-14.3-3.4c-0.7-0.1-1.2-0.9-1.1-1.6c0.1-0.7,0.9-1.2,1.6-1.1l14.3,3.3
		c0.7,0.1,1.2,0.9,1.1,1.6C118.2,80.5,117.6,80.9,117,80.9z"/>
</g>
</svg>
