<?xml version="1.0" encoding="utf-8"?>
<!-- Generator: Adobe Illustrator 27.8.1, SVG Export Plug-In . SVG Version: 6.00 Build 0)  -->
<svg version="1.1" id="圖層_1" xmlns="http://www.w3.org/2000/svg" xmlns:xlink="http://www.w3.org/1999/xlink" x="0px" y="0px"
	 viewBox="0 0 180 180" style="enable-background:new 0 0 180 180;" xml:space="preserve">
<style type="text/css">
	.st0{fill:#D9D9D9;}
	.st1{fill:#999999;}
	.st2{fill:#3B1A54;}
</style>
<circle class="st0" cx="90" cy="90" r="90"/>
<circle class="st0" cx="90" cy="90" r="90"/>
<path class="st1" d="M144.7,128.1c-3.5-3.4-6.7-6.3-9.2-10.6c-1.6-2.6-3-6.1-4.9-13.1c-3-11.9-3.4-22.3-3.4-31.3
	c5.2-3.9,6.6-13.6,1.6-23.2c-1.9-2.8-6.4-8.8-14.6-12.2c-4-1.7-7.7-2.3-10.5-2.4c-4.9-0.9-9.6,0-13.4,2.6c-3.5,2.4-5.5,5.7-6.4,7.9
	L79.7,46c-11.8,0.9-23.7,1.6-35.5,2.3c0,1.5,0.4,6.6,3.4,11.9c-0.2,2.2-0.4,4.1-0.5,5.8c-0.1,2.3-0.2,5.8,1.2,6.4
	c0.5,0.2,1-0.1,1.5-0.4s1-0.6,1.6-0.5c1.2,0.4,1.5,2.8,1.7,4.6c0.1,1.3,0.2,2.3,0.6,2.4c0.4,0,0.7-0.7,1.1-1.7
	c0.5-1.1,1-2.4,1.6-2.4c0.4,0,0.6,0.5,1,1.1c0.4,0.9,0.9,1.8,1.9,2.8c0.9,0.7,1.9,1,4.3,1.6c2.4,0.6,4.3,1.1,4.6,0.5
	c0.2-0.4-0.1-0.9-0.5-1.6c-0.2-0.4-0.5-0.9-0.6-1.3c-0.4-1-0.2-2.2,0.6-3.9c0.4,0,0.6,0.1,0.9,0.1c2.1,1,5.2,2.8,7.8,6.1
	c5.2,7.2,4,10.7,0,26.5C75,112,68.5,122.9,66,128.1c-4.7,15.5-5.1,25.4-4.7,36.1c0.1,3,1.7,6.5,3.3,9.9c9.3,3.2,19.3,5,29.7,5
	c26.8,0,50.8-11.7,67.3-30.3C155.5,138.4,149.7,132.9,144.7,128.1z"/>
<g>
	<path class="st2" d="M40,49.2c-1.3,1.5-0.4,4.7,0.7,5c0.6,0.1,1-0.7,2.2-1.8c2.9-2.4,6.3-2.1,6.3-2.7s-3.2-0.9-4.6-1
		C42,48.4,40.7,48.3,40,49.2L40,49.2z"/>
	<path class="st2" d="M58.2,74.7c0.6,0,1.1-0.5,1.1-1c0-2.6,0.5-5.2,1.5-7.7c0.9-2.3,2.1-4.5,3.7-6.3c0.4-0.5,0.2-1.1-0.1-1.5
		c-0.5-0.4-1.1-0.2-1.5,0.1c-1.7,2.1-3,4.4-4,6.9c-1,2.7-1.5,5.5-1.6,8.4C57.2,74.2,57.7,74.7,58.2,74.7L58.2,74.7z"/>
	<path class="st2" d="M51.5,72c0.6,0,1.1-0.5,1.1-1c0-1.3,0.1-2.7,0.2-4c0.5-2.9,1.7-5.8,3.5-8.4c0.4-0.5,0.2-1.1-0.2-1.5
		S55,57,54.7,57.4c-1.9,2.8-3.3,6-3.8,9.2c-0.2,1.5-0.4,2.9-0.4,4.4C50.5,71.6,50.9,72,51.5,72L51.5,72z"/>
	<path class="st2" d="M45.6,68c0.7,0,1.1-0.6,1.1-1.1c-0.1-1.8,0-3.5,0.4-5.2c0.6-2.4,1.9-4.9,3.8-6.7c0.4-0.4,0.4-1.1,0-1.5
		s-1.1-0.4-1.5,0c-2.1,2.2-3.5,4.9-4.3,7.7c-0.5,1.9-0.6,3.9-0.5,6C44.6,67.5,45.1,67.9,45.6,68L45.6,68z"/>
	<path class="st2" d="M109.9,79.1c3.7,0.2,7.3-0.4,10.8-1.8c0.5-0.2,0.7-0.9,0.5-1.3s-0.9-0.7-1.3-0.5c-9.2,4-20,0.9-25.1-7.2
		c-4.3-7.1-3.7-16.2,1.6-22.9c0.4-0.5,0.2-1.1-0.1-1.5c-0.5-0.4-1.1-0.2-1.5,0.1c-5.8,7.4-6.4,17.5-1.7,25.2
		C96.8,75.1,103.1,78.5,109.9,79.1L109.9,79.1z"/>
	<path class="st2" d="M85.1,51.6c-1-0.1-1.7-1.7-1.6-3.5c0.1-1.8,1.1-3.3,2.1-3.3s1.7,1.7,1.6,3.5C87,50.1,86.2,51.6,85.1,51.6z"/>
</g>
</svg>
