<svg width="1513" height="410" viewBox="0 0 1513 410" fill="none" xmlns="http://www.w3.org/2000/svg">
<path d="M1651.55 210.813C1614.95 200.972 1577.04 183.396 1538.93 182.058C1507.42 180.951 1478.22 189.231 1447.28 192.009C1418.87 194.561 1388.44 201.925 1362.44 213.862C1339.62 224.344 1317.64 237.045 1294.84 248.103C1278.92 255.828 1260.43 250.284 1243.92 256.227C1222.42 263.977 1201.25 272.079 1180.39 281.266C1161.94 289.398 1136.83 280.534 1118.83 275.307C1109.41 272.573 1105.58 274.285 1095.85 275.52C1084.64 276.946 1076.57 270.494 1065.83 270.933C1036.29 272.153 1013.31 295.542 983.992 300.417C959.572 304.473 940.08 299.411 920.019 313.128C906.21 322.574 896.145 325.124 878.536 324.732C845.928 323.999 817.918 338.373 785.995 342.658C859.062 337.421 930.785 339.731 1003.72 333.238C1030.38 330.861 1055.77 324.87 1082.75 325.713C1114.39 326.701 1144.67 336.89 1176.76 338.143C1213.74 339.583 1248.77 327.492 1285.97 328.183C1306.83 328.572 1327.73 331.601 1348.6 332.633C1375.43 333.965 1396.23 326.498 1421.75 322.594C1449.27 318.388 1477.92 324.007 1505.71 321.627C1537.34 318.916 1565.81 318.959 1597.52 322.06C1620.42 324.301 1642.54 324.561 1664.96 318.621" fill="#DBD0A2"/>
<path d="M290.528 285C249.028 309.5 253.7 328.885 258.028 353C265.028 392 312.528 393 332.028 389C350.871 385.135 395.528 353 388.528 343.5C381.528 334 344.028 325 337.528 303.5C331.028 282 332.028 260.5 290.528 285Z" fill="#DBD0A2"/>
<path d="M415.028 51.5C396.028 52 372.028 66 352.028 82C328.528 103.5 344.528 120 366.028 116.5C387.528 113 406.528 114.5 423.528 120C440.528 125.5 447.528 135 469.528 141C491.528 147 502.028 117 500.028 105.5C498.028 94 488.528 82 480.028 77.5C471.528 73 460.028 67 452.028 60.5C444.028 54 434.028 51 415.028 51.5Z" fill="#584438"/>
<path d="M255.028 153.5C243.528 181 264.028 220.5 255.028 248C238.528 276.5 243.028 286 255.028 303.5C267.028 321 306.028 302.5 332.028 292C358.028 281.5 363.528 248 362.528 232.5C361.528 217 353.528 184 374.528 187.5C395.528 191 434.028 167.5 429.028 153.5C424.028 139.5 416.028 136.5 388.528 131C361.028 125.5 344.028 103.5 318.528 100C293.028 96.5 266.528 126 255.028 153.5Z" fill="#C6ADD2"/>
<path d="M139.376 334.331C138.652 334.367 138.033 333.803 138.002 333.08C137.965 332.357 138.528 331.736 139.252 331.705C159.024 330.703 190.367 329.571 218.388 329.261C239.158 329.034 255.728 329.297 258.563 330.475C260.469 331.271 261.874 334.129 263.801 338.036C270.366 351.364 283.517 378.071 334.962 362.423C341.708 360.371 349.575 355.25 357.854 348.051C355.788 345.219 353.206 343.085 350.949 341.219C346.837 337.824 343.655 335.194 345.324 330.744C345.737 329.643 346.259 328.408 346.853 327.008C350.68 317.985 357.441 302.058 346.346 295.055C343.707 293.386 341.398 292.001 339.399 290.802C333.361 287.18 329.926 285.118 328.785 282.322C326.512 285.288 324.807 287.329 323.857 288.172C315.427 295.593 308.997 297.572 301.616 299.846C296.595 301.391 291.115 303.076 284.224 306.807C278.961 309.66 273.822 312.693 269.106 315.484C257.262 322.486 247.975 327.974 244.561 325.318C238.579 320.662 238.455 298.016 241.079 271.764C244.561 236.923 252.737 195.435 258.321 181.984C272.339 148.228 285.04 130.176 297.928 119.572C297.902 119.531 297.881 119.495 297.86 119.458C297.731 119.226 297.638 118.968 297.597 118.688C297.354 117.21 298.651 115.138 301.187 112.859C303.454 110.823 306.786 108.477 310.913 106.157C318.929 101.645 330.045 97.1594 342.333 95.1336C349.146 94.0122 355.137 91.8934 360.597 89.9658C367.25 87.6145 373.143 85.537 379.047 85.7231C379.114 85.7231 379.176 85.7282 379.244 85.7334C381.511 84.3846 383.82 82.9221 386.18 81.3304C387.534 80.4157 388.489 79.7646 389.481 79.0928C408.422 66.1888 439.305 45.1507 465.048 52.3029C470.792 53.8997 475.012 57.109 477.904 61.331C479.516 63.6875 480.709 66.3593 481.515 69.2378C484.738 71.5581 487.522 74.5038 489.795 78.1367L489.872 78.2659C489.888 78.2918 489.903 78.3228 489.919 78.3486C503.389 100.157 499.257 114.968 495.368 128.91C493.137 136.905 490.993 144.6 492.517 153.085C493.095 156.32 494.34 159.359 495.296 161.685C496.52 164.672 497.362 166.734 495.869 167.762C495.456 168.046 494.97 168.181 494.428 168.17C493.178 168.15 491.427 167.25 489.619 165.746C487.945 164.356 486.148 162.413 484.609 160.181C482.341 156.879 480.621 152.899 480.683 149.013C480.73 146.037 481.747 142.305 482.749 138.636C483.896 134.44 485.017 130.326 484.505 128.053C484.382 127.505 484.263 126.916 484.149 126.28C483.849 127.081 483.534 127.856 483.209 128.611C476.737 143.608 467.099 141.938 456.598 140.125C455.224 139.887 453.84 139.649 452.481 139.453C450.162 139.117 447.822 139.07 445.73 139.199C443.23 139.355 441.092 139.758 439.749 140.223C439.227 140.404 438.762 140.719 438.359 141.137C437.683 141.84 437.171 142.817 436.846 143.944C438.767 144.538 440.777 145.173 442.838 145.83C443.132 143.995 444.114 143.029 446.381 143.272C448.127 143.458 448.742 144.931 448.525 146.962C448.499 147.184 448.468 147.416 448.421 147.654C453.597 149.37 458.829 151.189 463.473 152.961C472.352 156.351 479.211 159.705 479.96 162.176C481.009 165.633 478.343 175.033 475.208 181.519C474.268 183.462 473.281 185.167 472.326 186.407C471.19 187.885 470.007 188.774 468.839 188.795C468.173 188.805 467.574 188.573 467.057 188.056C466.618 187.617 466.262 186.971 465.983 186.17C465.828 186.428 465.673 186.676 465.518 186.924C462.884 191.069 459.893 193.771 457.176 192.821C455.973 192.397 455.183 191.389 454.718 189.984C452.517 192.578 450.276 194.076 448.339 193.503C445.73 192.728 445.023 188.263 445.415 182.728C444.924 183.105 444.454 183.379 444.01 183.534C442.791 183.958 441.763 183.705 441.02 182.588C439.733 180.656 440.673 175.999 441.825 170.31C442.466 167.137 443.179 163.612 443.612 160.098C443.783 158.698 443.793 157.297 443.716 155.943C441.768 157.545 439.532 157.979 437.414 155.933C436.076 154.641 435.136 153.054 434.553 151.365C433.928 149.556 433.711 147.618 433.85 145.794C428.313 144.093 423.747 142.76 421.324 142.073C420.111 141.727 418.551 141.091 416.743 140.233C415.901 140.652 414.956 141.081 413.933 141.541C409.47 143.561 403.308 146.352 398.897 150.951C394.574 155.457 392.379 161.54 390.705 166.17C390.23 167.493 389.791 168.708 389.342 169.767C391.816 171.297 393.407 172.914 393.644 174.775C394.646 182.593 390.793 186.847 380.318 198.397C377.296 201.73 373.712 205.683 369.605 210.422C362.586 218.525 355.52 229.497 349.399 240.277C342.818 251.868 337.343 263.196 334.162 270.524C334.988 269.356 335.845 268.141 336.729 266.886C344.404 255.935 353.903 241.827 362.896 227.972C370.835 215.745 378.51 204.96 384.755 196.919C391.676 188.004 397.007 182.33 399.181 181.606C402.993 180.335 414.801 185.436 429.439 191.756C448.101 199.813 471.468 209.9 487.191 211.161C484.33 203.136 482.672 195.632 481.959 189.317C480.797 179.012 482.264 171.627 485.151 169.912C485.203 169.881 485.265 169.85 485.337 169.808C487.878 168.501 494.516 173.219 499.996 180.134C502.558 183.369 504.939 187.084 506.571 190.841C508.24 194.681 509.123 198.578 508.642 202.076C507.935 207.244 504.386 211.461 496.277 213.311C494.676 213.678 492.914 213.864 491.029 213.895C492.346 217.213 493.875 220.608 495.636 224.024C496.654 225.998 497.749 227.988 498.937 229.987C501.644 234.556 504.614 239.687 507.718 245.062C523.482 272.343 542.852 305.856 555.76 312.579C556.503 312.967 557.764 313.954 559.504 315.318C564.489 319.225 573.621 326.393 584.261 330.145C597.097 334.672 607.747 339.54 614.602 343.917C617.789 345.953 620.185 347.906 621.632 349.694C623.341 351.808 623.827 353.787 622.897 355.55C622.67 355.979 622.36 356.376 621.967 356.749C615.81 362.521 603.827 361.188 589.282 359.565C577.133 358.211 563.141 356.645 549.603 358.904C534.438 361.431 525.961 360.578 521.277 357.999C516.23 355.219 515.43 350.656 515.61 346.015C515.801 341.188 515.042 332.46 512.651 324.486C510.998 318.967 508.575 313.851 505.166 310.765C502.527 308.378 498.746 305.417 494.34 301.965C483.157 293.21 467.977 281.335 456.577 267.087C448.762 257.32 442.791 246.349 440.152 236.452C439.31 237.76 438.401 239.104 437.414 240.483C434.062 245.186 429.739 252.902 424.599 262.08C417.414 274.906 408.634 290.58 398.536 305.102C388.066 320.16 376.346 334.253 365.024 345.069C363.774 346.263 362.529 347.415 361.294 348.527C362.281 350.216 363.092 352.129 363.634 354.32C363.794 354.966 363.856 356.216 363.929 357.772C364.104 361.467 364.373 367.141 365.711 367.56C367.854 368.231 439.847 368.314 521.566 368.19C603.393 368.071 1332.23 367.73 1373.31 367.58C1374.03 367.58 1374.62 368.169 1374.62 368.893C1374.62 369.616 1374.03 370.206 1373.31 370.206C1332.23 370.361 603.398 370.696 521.566 370.815C439.625 370.934 367.358 370.831 364.931 370.071C361.837 369.105 361.511 362.314 361.305 357.896C361.238 356.49 361.186 355.358 361.083 354.95C360.659 353.229 360.029 351.694 359.27 350.315C350.825 357.612 342.741 362.826 335.711 364.96C282.127 381.259 268.321 353.219 261.43 339.224C259.757 335.829 258.538 333.349 257.541 332.935C255.061 331.902 238.853 331.69 218.394 331.917C190.455 332.227 159.148 333.359 139.36 334.362L139.376 334.331ZM359.838 346.284C360.964 345.271 362.09 344.222 363.226 343.137C374.409 332.455 386.005 318.502 396.387 303.567C406.418 289.138 415.162 273.531 422.316 260.762C427.492 251.527 431.836 243.77 435.286 238.928C436.82 236.778 438.163 234.726 439.336 232.788C437.817 224.67 438.788 217.461 443.106 212.453C444.17 211.218 445.224 210.608 446.164 210.567H446.2C447.311 210.536 448.132 211.14 448.597 212.334C448.907 213.14 449.031 214.262 448.922 215.662C448.633 219.342 446.691 225.471 442.115 233.259C442.249 233.91 442.404 234.566 442.574 235.233C445.048 244.922 450.911 255.765 458.638 265.423C469.836 279.417 484.883 291.195 495.967 299.872C500.404 303.344 504.216 306.326 506.938 308.796C510.75 312.254 513.41 317.794 515.182 323.711C517.656 331.969 518.441 341.054 518.245 346.093C518.095 349.86 518.699 353.544 522.547 355.663C526.757 357.984 534.68 358.697 549.174 356.283C563.074 353.968 577.257 355.55 589.576 356.924C603.466 358.475 614.907 359.751 620.175 354.811C620.356 354.64 620.49 354.475 620.578 354.304C620.96 353.581 620.593 352.568 619.591 351.328C618.326 349.762 616.146 347.999 613.202 346.118C606.528 341.855 596.059 337.08 583.399 332.615C572.366 328.724 563.006 321.38 557.898 317.375C556.286 316.109 555.119 315.194 554.556 314.9C540.977 307.825 521.395 273.939 505.456 246.359C502.387 241.052 499.459 235.982 496.685 231.305C495.487 229.279 494.361 227.243 493.312 225.207C491.329 221.357 489.635 217.538 488.199 213.812C471.866 212.903 447.667 202.459 428.406 194.144C414.269 188.04 402.864 183.115 400.013 184.066C398.334 184.624 393.463 189.978 386.842 198.505C380.612 206.531 372.973 217.254 365.106 229.373C356.062 243.305 346.548 257.444 338.888 268.369C335.98 272.518 333.33 276.214 331.062 279.278C330.856 282.622 333.805 284.394 340.732 288.549C342.751 289.763 345.086 291.164 347.731 292.833C360.721 301.034 353.402 318.274 349.254 328.041C348.655 329.452 348.123 330.703 347.767 331.664C346.754 334.362 349.306 336.47 352.601 339.194C354.952 341.137 357.622 343.343 359.827 346.294L359.838 346.284ZM441.459 229.068C444.656 223.073 446.066 218.391 446.298 215.456C446.376 214.453 446.319 213.724 446.149 213.28C446.128 213.223 446.381 213.187 446.278 213.192H446.273C446.061 213.202 445.668 213.518 445.1 214.174C441.918 217.864 440.859 223.073 441.464 229.068H441.459ZM484.593 188.991C485.316 195.394 487.036 203.058 490.053 211.254C492.119 211.27 494.02 211.104 495.719 210.717C502.537 209.161 505.492 205.792 506.055 201.699C506.463 198.707 505.667 195.286 504.18 191.854C502.656 188.34 500.399 184.826 497.956 181.746C493.204 175.751 488.038 171.359 486.561 172.118C486.551 172.118 486.535 172.134 486.51 172.149C484.464 173.364 483.55 179.751 484.593 188.996V188.991ZM322.111 286.187C323.206 285.226 325.458 282.42 328.521 278.301C328.593 277.919 328.686 277.521 328.8 277.107C329.926 273.009 337.343 256.188 347.131 238.943C353.325 228.034 360.483 216.913 367.632 208.665C371.862 203.787 375.401 199.88 378.386 196.588C388.262 185.694 391.898 181.684 391.051 175.069C390.922 174.067 389.884 173.054 388.2 172.02C387.782 172.677 387.332 173.188 386.821 173.529C384.915 174.8 381.051 174.527 376.33 173.302C370.075 171.679 362.054 168.408 355.241 164.997C348.314 161.53 342.56 157.855 341 155.519C340.974 155.483 340.954 155.447 340.933 155.411C340.479 154.682 340.313 153.979 340.489 153.313C340.918 151.664 342.927 151.483 346.011 152.284C350.293 153.395 357.421 156.31 364.92 159.38C366.3 159.943 367.689 160.512 370.101 161.488C372.152 162.32 374.109 163.08 376.005 163.814C380.153 165.421 384.006 166.914 387.043 168.46C387.415 167.535 387.807 166.449 388.236 165.261C389.992 160.398 392.296 154.01 397.002 149.106C401.764 144.14 408.195 141.23 412.854 139.122L413.757 138.714C406.919 135.112 397.921 129.406 390.788 124.327C387.234 121.8 384.13 119.412 381.966 117.51C379.388 115.247 378.045 113.355 378.551 112.177C378.629 112.001 378.732 111.836 378.861 111.696C379.011 111.536 379.192 111.402 379.398 111.309C381.279 110.425 389.533 114.451 398.128 119.546C406.464 124.492 415.312 130.414 418.742 133.598C419.563 134.362 420.131 135.029 420.384 135.567C420.942 136.755 420.539 137.696 419.475 138.574C420.452 138.993 421.314 139.313 422.042 139.52C424.434 140.197 428.902 141.499 434.33 143.163C434.775 141.649 435.493 140.311 436.464 139.308C437.156 138.59 437.972 138.047 438.897 137.727C440.425 137.2 442.817 136.74 445.58 136.569C447.838 136.43 450.353 136.481 452.858 136.843C454.294 137.05 455.678 137.293 457.047 137.525C466.484 139.158 475.146 140.657 480.792 127.567C481.742 125.365 482.584 122.947 483.323 120.415C482.558 113.521 482.16 104.772 482.336 97.5315C482.429 93.6298 482.687 90.1467 483.147 87.599C483.7 84.5138 484.697 82.581 486.246 82.4157C486.453 82.395 486.659 82.4002 486.861 82.4415C487.016 82.4725 487.16 82.5139 487.3 82.5759C489.051 83.3304 489.939 87.4698 489.929 93.2422C489.919 98.5754 489.273 105.474 487.956 112.327C487.413 115.143 486.763 117.955 485.993 120.657C486.303 123.308 486.664 125.65 487.073 127.463C487.729 130.368 486.52 134.797 485.285 139.313C484.325 142.827 483.354 146.393 483.312 149.039C483.261 152.31 484.774 155.762 486.773 158.672C488.173 160.708 489.8 162.465 491.298 163.71C492.62 164.811 493.751 165.478 494.412 165.524C494.454 165.256 493.555 164.341 492.868 162.672C491.871 160.238 490.569 157.054 489.934 153.54C488.302 144.46 490.528 136.486 492.837 128.202C496.577 114.792 500.554 100.544 487.677 79.7077C487.661 79.6871 487.651 79.6664 487.636 79.6457L487.558 79.5165C486.07 77.1394 484.335 75.0825 482.383 73.3255C482.522 74.2609 482.63 75.2118 482.703 76.173C483.111 81.6405 482.429 87.5163 480.843 93.2319C477.775 104.286 471.303 114.776 462.801 120.595C450.637 128.921 435.906 118.709 419.801 107.547C409.078 100.115 397.73 92.25 386.397 89.418C384.889 90.3121 383.381 91.2268 381.883 92.1518L380.834 92.8081C377.771 94.7202 374.708 96.5393 371.671 98.2498C355.458 107.371 338.387 114.492 324.849 118.518C313.449 121.908 304.384 123.024 300.112 121.278C287.323 131.608 274.725 149.354 260.754 182.997C255.242 196.268 247.154 237.398 243.693 272.022C241.152 297.469 241.022 319.235 246.172 323.241C248.176 324.796 256.781 319.711 267.758 313.22C272.484 310.424 277.639 307.38 282.969 304.492C290.071 300.642 295.686 298.916 300.836 297.334C307.922 295.154 314.09 293.257 322.106 286.198L322.111 286.187ZM300.35 117.66C311.879 108.999 323.63 105.852 336.682 102.358C347.875 99.3609 360.039 96.1051 373.867 88.7462C369.987 89.4335 365.907 90.8702 361.475 92.436C355.917 94.3998 349.822 96.5548 342.756 97.7175C330.815 99.6865 320.004 104.053 312.199 108.441C308.227 110.678 305.056 112.901 302.933 114.807C301.585 116.017 300.696 116.999 300.345 117.66H300.35ZM337.364 104.901C324.838 108.255 313.532 111.283 302.447 119.469C306.269 120.28 314.136 118.957 324.11 115.991C337.467 112.022 354.337 104.978 370.385 95.9501C373.505 94.1931 376.537 92.3998 379.45 90.5756L380.509 89.9193C381.191 89.4956 381.873 89.077 382.56 88.6635C381.682 88.5395 380.798 88.4465 379.92 88.3896C363.836 97.8208 349.993 101.526 337.369 104.906L337.364 104.901ZM387.658 83.5009C386.284 84.4311 384.93 85.3096 383.588 86.152C384.388 86.2812 385.184 86.431 385.979 86.6119C405.896 74.9172 426.51 66.3438 444.423 63.4447C457.429 61.3414 469.036 62.2147 477.987 67.0208C477.372 65.517 476.623 64.101 475.73 62.7987C473.178 59.0676 469.444 56.2356 464.346 54.8196C439.775 47.993 409.517 68.6073 390.963 81.2477C389.662 82.1366 388.412 82.9893 387.653 83.4957L387.658 83.5009ZM480.084 76.3693C479.939 74.4676 479.66 72.6227 479.227 70.8605C470.539 65.0312 458.53 63.8271 444.837 66.0441C427.926 68.7778 408.51 76.7001 389.564 87.5731C400.473 90.9477 411.159 98.3532 421.299 105.381C436.629 116.006 450.653 125.727 461.324 118.42C469.299 112.957 475.399 103.03 478.312 92.5342C479.821 87.1132 480.466 81.5423 480.079 76.3693H480.084ZM484.965 97.5883C484.857 102.193 484.975 107.407 485.28 112.337C485.311 112.167 485.347 112.001 485.378 111.831C486.67 105.118 487.305 98.3997 487.31 93.237C487.315 88.8961 487.021 85.8212 486.427 85.1184C486.256 85.4285 486.019 86.4827 485.735 88.0537C485.301 90.4619 485.053 93.8055 484.965 97.5832V97.5883ZM436.464 146.569C436.433 147.866 436.624 149.215 437.058 150.481C437.512 151.804 438.235 153.029 439.248 154.01C440.291 155.018 441.557 154.465 442.667 153.318C442.915 153.065 443.153 152.786 443.38 152.486C443.313 151.969 443.241 151.473 443.168 150.992C443.044 150.129 442.925 149.328 442.848 148.589C440.653 147.881 438.509 147.204 436.459 146.569H436.464ZM447.233 151.163C446.908 151.845 446.536 152.517 446.118 153.158C446.386 155.385 446.546 157.855 446.236 160.393C445.808 163.886 445.069 167.519 444.408 170.801C443.406 175.772 442.579 179.865 443.173 181.017C443.866 180.764 444.826 179.829 445.901 178.48C445.999 177.834 446.107 177.183 446.226 176.532C446.903 172.78 447.879 168.951 448.938 165.783C450.038 162.501 451.262 159.871 452.404 158.646C453.411 157.566 454.465 157.271 455.534 157.969C457.848 159.478 456.314 165.4 453.463 171.178C452.089 173.963 450.446 176.744 448.855 178.935C448.7 179.152 448.54 179.364 448.385 179.565C447.507 185.41 447.424 190.443 449.093 190.94C450.394 191.327 452.269 189.42 454.217 186.5C454.165 184.345 454.48 181.849 455.033 179.296C455.441 177.405 455.973 175.472 456.577 173.643C457.176 171.824 457.843 170.098 458.524 168.609C460.162 165.044 462.104 162.827 463.819 163.426C465.224 163.917 465.529 165.767 465.007 168.377C464.687 170.005 464.072 172.031 463.266 174.217C462.471 176.361 461.469 178.697 460.343 180.981C459.242 183.214 458.018 185.379 456.748 187.265C456.83 188.883 457.223 190.009 458.054 190.299C459.346 190.753 461.319 188.604 463.307 185.477C463.974 184.423 464.63 183.271 465.25 182.061C465.017 178.945 465.275 175.219 465.864 172.01C466.2 170.186 466.634 168.511 467.13 167.209C467.703 165.705 468.421 164.584 469.263 164.082C469.955 163.669 470.673 163.612 471.417 163.969C473.023 164.749 473.101 167.684 472.155 171.447C471.572 173.772 470.627 176.506 469.475 179.224C468.963 180.428 468.411 181.627 467.832 182.785C467.997 184.325 468.338 185.524 468.901 186.118C469.191 186.025 469.666 185.534 470.26 184.764C471.097 183.679 471.985 182.128 472.853 180.34C475.776 174.294 478.328 165.777 477.46 162.904C476.995 161.364 470.74 158.517 462.548 155.39C457.956 153.638 452.791 151.84 447.678 150.145C447.543 150.481 447.399 150.812 447.238 151.147L447.233 151.163ZM445.901 146.806C445.906 146.76 445.911 146.713 445.916 146.667C445.968 146.192 446.185 145.881 446.112 145.876C445.642 145.825 445.456 146.052 445.415 146.465C445.41 146.522 445.405 146.579 445.4 146.641L445.901 146.806ZM449.728 172.651C450.208 171.788 450.673 170.904 451.107 170.02C453.194 165.788 454.743 161.679 454.31 160.465C453.432 161.421 452.409 163.7 451.433 166.62C450.818 168.449 450.234 170.511 449.728 172.651ZM454.243 160.32C454.206 160.263 454.16 160.212 454.108 160.181C453.974 160.093 454.134 160.217 454.243 160.32ZM457.362 181.074C457.574 180.666 457.781 180.253 457.987 179.834C459.051 177.669 460.017 175.421 460.797 173.317C461.562 171.25 462.135 169.364 462.424 167.891C462.667 166.651 463.044 165.958 462.956 165.927C462.781 165.865 461.965 167.436 460.916 169.721C460.286 171.095 459.656 172.728 459.082 174.475C458.514 176.211 458.003 178.056 457.61 179.87C457.522 180.273 457.44 180.676 457.362 181.079V181.074ZM467.951 175.984C468.643 174.16 469.206 172.392 469.604 170.821C470.126 168.749 470.43 167.173 470.373 166.589C470.136 166.899 469.872 167.442 469.599 168.16C469.149 169.333 468.757 170.842 468.457 172.496C468.251 173.617 468.08 174.8 467.956 175.984H467.951ZM392.332 122.177C400.085 127.696 410.023 133.954 416.805 137.318C417.595 136.946 418.039 136.719 418.019 136.683C417.915 136.461 417.549 136.057 416.965 135.52C413.67 132.461 405.013 126.673 396.805 121.81C390.38 117.996 384.362 114.735 381.769 113.867C382.239 114.255 382.906 114.813 383.717 115.526C385.809 117.366 388.84 119.691 392.332 122.177ZM385.375 171.338C385.555 171.219 385.736 171.023 385.912 170.77C383.045 169.354 379.218 167.87 375.07 166.263C373.112 165.504 371.088 164.718 369.135 163.927C368.092 163.504 366 162.651 363.944 161.809C356.537 158.78 349.502 155.902 345.365 154.827C344.115 154.501 343.361 153.995 343.123 153.943C343.154 153.979 343.18 154.016 343.206 154.052C344.518 156.016 349.874 159.364 356.429 162.646C363.092 165.979 370.922 169.178 377.007 170.754C381.036 171.798 384.156 172.144 385.375 171.333V171.338Z" fill="#3B1A54"/>
<g opacity="0.5">
<g clip-path="url(#clip0_950_19934)">
<path d="M1075.48 161.217C1067.16 159.602 1059.95 162.59 1057.16 163.964C1053.58 165.725 1050.53 166.695 1048.9 168.269C1038.82 166.362 1029.21 165.632 1019.13 163.738C1018.84 166.352 1018.72 171.034 1021.19 175.623C1025.44 183.507 1030 185.796 1033.04 187.82C1036.05 189.825 1037.05 191.329 1037.05 191.329C1035.55 192.833 1034.04 192.127 1032.04 191.329C1030.03 190.531 1028.03 189.324 1026.69 190.03C1025.6 191.417 1028.32 195.299 1029.89 197.113C1035.31 203.356 1043.51 203.85 1045.46 203.97C1048.24 204.143 1050.56 203.823 1052.11 203.516C1049.87 217.082 1048.31 233.543 1048.9 252.205C1049.75 279.338 1054.89 302.069 1060.13 318.956C1056.69 341.74 1053.26 364.524 1049.82 387.308C1048.68 387.161 1045.28 386.881 1041.8 388.909C1037.19 391.603 1036.03 396.312 1035.84 397.139H1068.14C1073.57 378.317 1078.98 359.495 1084.4 340.673C1086.44 337.152 1086.35 332.923 1084.17 329.935C1082.05 327.013 1078.77 326.4 1077.98 326.28C1083.53 312.874 1087.12 301.335 1089.44 292.904C1098.39 260.276 1092.2 259.769 1099.06 204.437C1099.87 197.807 1101.14 188.336 1096.31 178.611C1094.41 174.796 1087.97 163.658 1075.47 161.243L1075.48 161.217Z" fill="#FFE382"/>
<path d="M1099.07 204.423C1122.05 230.862 1145.04 257.301 1168.01 283.753C1171.93 285.554 1188.82 293.825 1195.96 313.02C1204.02 334.737 1190.77 356.2 1182.67 369.713C1174.67 383.066 1165.35 392.084 1159.08 397.379H1077.09C1077.5 394.872 1078.5 391.137 1081.22 387.548C1088.41 378.024 1101.01 378.344 1102.52 378.411C1091.37 368.806 1080.23 359.202 1069.08 349.611C1079.08 301.228 1089.09 252.832 1099.09 204.45L1099.07 204.423Z" fill="#FFE382"/>
<path d="M1018.84 163.297C1017.13 164.378 1018.22 169.38 1019.15 169.46C1019.76 169.514 1019.71 167.273 1021.55 166.045C1023.56 164.725 1026.14 165.725 1026.2 165.338C1026.3 164.898 1022.8 163.911 1022.11 163.724C1020.27 163.217 1019.35 162.977 1018.84 163.297Z" fill="#3B1A54"/>
<path d="M1053.09 175.017C1052.54 176.802 1053.14 178.578 1054.44 178.978C1055.74 179.379 1057.24 178.247 1057.79 176.462C1058.34 174.677 1057.74 172.902 1056.43 172.501C1055.13 172.1 1053.64 173.232 1053.09 175.017Z" fill="#3B1A54"/>
<path d="M1078.7 361.323C1079.08 361.323 1079.41 361.083 1079.52 360.696L1088.78 326.253C1089.1 323.652 1087.71 321.251 1085.51 320.45C1082.86 319.463 1080.55 321.304 1080.45 321.384C1080.09 321.678 1080.04 322.198 1080.33 322.558C1080.63 322.918 1081.15 322.972 1081.51 322.678C1081.52 322.678 1083.18 321.398 1084.92 322.024C1086.4 322.571 1087.32 324.212 1087.12 325.946L1077.89 360.269C1077.77 360.709 1078.04 361.176 1078.49 361.296C1078.56 361.309 1078.64 361.323 1078.7 361.323Z" fill="#3B1A54"/>
<path d="M1081.46 318.343C1081.78 318.343 1082.09 318.156 1082.22 317.849L1101.44 275.283C1101.63 274.856 1101.44 274.362 1101.02 274.176C1100.61 273.989 1100.12 274.176 1099.91 274.589L1080.7 317.156C1080.51 317.582 1080.7 318.076 1081.11 318.263C1081.22 318.316 1081.34 318.343 1081.46 318.343Z" fill="#3B1A54"/>
<path d="M1059.42 317.449C1059.89 317.449 1060.26 317.076 1060.26 316.609V280.432C1060.26 279.965 1059.89 279.591 1059.42 279.591C1058.95 279.591 1058.58 279.965 1058.58 280.432V316.609C1058.58 317.076 1058.95 317.449 1059.42 317.449Z" fill="#3B1A54"/>
<path d="M1109.38 374.876C1109.83 374.876 1110.21 374.515 1110.22 374.062C1110.5 364.431 1112.17 354.973 1115.22 345.956C1119 334.764 1122.25 325.093 1131.43 317.996C1143.17 308.938 1157.59 309.485 1165.15 310.619C1165.58 310.713 1166.03 310.366 1166.11 309.912C1166.18 309.459 1165.86 309.032 1165.41 308.965C1157.57 307.791 1142.63 307.218 1130.42 316.675C1120.83 324.079 1117.34 334.444 1113.64 345.422C1110.54 354.6 1108.84 364.217 1108.56 374.009C1108.56 374.475 1108.92 374.862 1109.38 374.862H1109.4L1109.38 374.876Z" fill="#3B1A54"/>
<path d="M1129.44 383.106C1135.86 383.106 1142.31 382.466 1148.59 381.199C1149.05 381.105 1149.34 380.665 1149.25 380.211C1149.17 379.758 1148.71 379.451 1148.26 379.558C1142.07 380.798 1135.73 381.425 1129.43 381.425H1129.03C1120.97 381.385 1112.91 380.332 1105.1 378.277C1104.66 378.157 1104.19 378.424 1104.07 378.878C1103.95 379.331 1104.22 379.785 1104.67 379.905C1112.63 381.986 1120.82 383.066 1129.03 383.106H1129.45H1129.44Z" fill="#3B1A54"/>
<path d="M1095 174.556C1103.43 181.413 1102.37 193.858 1101.64 202.662C1101.06 209.532 1100.34 218.176 1095.21 220.244C1089.42 222.578 1081.85 215.802 1079.29 213.507C1072.01 206.958 1070.02 198.861 1069.27 195.619C1068.25 191.19 1066.9 185.348 1069.79 179.305C1070.48 177.851 1072.61 173.436 1077.38 171.301C1083.38 168.62 1090.67 171.034 1095 174.569V174.556Z" fill="#FFE382"/>
<path d="M1089.28 220.07C1090.01 220.07 1090.73 219.99 1091.44 219.844C1096.25 218.777 1100.42 213.788 1102.05 207.118C1102.16 206.664 1101.89 206.211 1101.44 206.104C1101 205.997 1100.54 206.264 1100.44 206.718C1098.95 212.774 1095.29 217.283 1091.08 218.216C1088.33 218.83 1085 217.963 1082.02 215.802C1077.53 212.574 1074.57 207.158 1073.91 200.942C1073.87 200.488 1073.54 200.155 1072.98 200.195C1072.53 200.248 1072.2 200.661 1072.25 201.115C1072.96 207.798 1076.16 213.654 1081.04 217.162C1083.69 219.07 1086.6 220.07 1089.3 220.07H1089.28Z" fill="#3B1A54"/>
<path d="M1077.57 176.53C1077.85 176.53 1078.13 176.384 1078.28 176.13C1078.72 175.423 1079.51 174.423 1080.8 173.756C1083.53 172.328 1086.4 173.462 1086.95 173.702C1087.38 173.889 1087.87 173.702 1088.06 173.275C1088.25 172.849 1088.06 172.355 1087.63 172.168C1086.68 171.755 1083.36 170.514 1080.01 172.275C1078.38 173.129 1077.39 174.369 1076.85 175.263C1076.61 175.65 1076.73 176.17 1077.13 176.41C1077.26 176.49 1077.42 176.53 1077.57 176.53Z" fill="#3B1A54"/>
<path d="M1156.06 289.076C1156.17 289.076 1156.29 289.049 1156.38 289.009C1156.81 288.836 1157.01 288.342 1156.83 287.915L1152.4 277.604C1152.21 277.177 1151.72 276.99 1151.31 277.164C1150.88 277.35 1150.68 277.844 1150.86 278.257L1155.29 288.569C1155.42 288.889 1155.73 289.076 1156.06 289.076Z" fill="#3B1A54"/>
<path d="M1145.52 290.023C1146.15 289.903 1146.44 289.463 1146.33 289.009L1145.28 284.047C1145.18 283.593 1144.72 283.313 1144.29 283.407C1143.83 283.5 1143.55 283.94 1143.65 284.394L1144.7 289.356C1144.78 289.756 1145.13 290.023 1145.52 290.023Z" fill="#3B1A54"/>
<path d="M1131.59 290.023C1132.1 289.996 1132.46 289.596 1132.43 289.143L1132.22 285.234C1132.19 284.781 1131.78 284.474 1131.34 284.447C1130.88 284.474 1130.52 284.874 1130.55 285.327L1130.76 289.236C1130.79 289.676 1131.15 290.023 1131.6 290.023H1131.59Z" fill="#3B1A54"/>
<path d="M1078.73 242.761C1079.2 242.761 1079.57 242.388 1079.57 241.921V234.344C1079.57 233.877 1079.2 233.503 1078.73 233.503C1078.26 233.503 1077.89 233.877 1077.89 234.344V241.921C1077.89 242.388 1078.26 242.761 1078.73 242.761Z" fill="#3B1A54"/>
<path d="M1069.07 247.537C1069.47 247.537 1069.83 247.243 1069.9 246.83L1071.25 238.266C1071.31 237.812 1071.01 237.385 1070.55 237.305C1070.03 237.238 1069.67 237.559 1069.59 237.999L1068.24 246.563C1068.17 247.016 1068.48 247.443 1068.93 247.523C1068.97 247.523 1069.03 247.523 1069.07 247.523V247.537Z" fill="#3B1A54"/>
</g>
<path d="M1190.76 339.791C1188.19 350.012 1193.6 360.262 1202.47 363.535C1214.61 368.014 1227.31 357.25 1227.78 349.499C1228.35 340.383 1212 335.253 1213.85 328.78C1215.02 324.687 1222.86 322.187 1228.86 324.008C1235.12 325.906 1237.73 332.012 1239.16 335.376C1244.88 348.777 1238.81 362.542 1237.15 366.314C1236.4 368.025 1230.3 381.357 1215.92 388.985C1211.97 391.083 1208.41 392.971 1203.49 392.877C1195.32 392.717 1189.69 387.224 1182.95 380.652C1173.88 371.805 1168.81 366.861 1169.74 360.387C1171.12 350.681 1184.75 346.1 1185.75 345.782L1190.75 339.797L1190.76 339.791Z" fill="#FFE382"/>
<path d="M1196.31 388.694L1195.83 395.258C1195.8 395.604 1196.07 395.912 1196.41 395.936C1196.76 395.96 1197.08 395.69 1197.09 395.348L1197.56 388.806C1197.59 388.461 1197.33 388.153 1196.98 388.129C1196.64 388.104 1196.34 388.356 1196.31 388.694Z" fill="#3B1A54"/>
<path d="M1211.48 387.952C1211.46 388.133 1211.52 388.321 1211.66 388.462L1215.47 392.29C1215.72 392.536 1216.12 392.538 1216.37 392.293C1216.61 392.048 1216.62 391.645 1216.37 391.399L1212.56 387.571C1212.31 387.325 1211.91 387.323 1211.66 387.568C1211.55 387.673 1211.49 387.81 1211.48 387.952Z" fill="#3B1A54"/>
<path d="M1221.31 386.185C1221.29 386.376 1221.36 386.576 1221.51 386.713L1225.26 390.154C1225.52 390.391 1225.92 390.371 1226.16 390.113C1226.4 389.856 1226.37 389.456 1226.12 389.221L1222.36 385.78C1222.11 385.543 1221.71 385.563 1221.47 385.821C1221.37 385.927 1221.32 386.054 1221.31 386.185Z" fill="#3B1A54"/>
</g>
<ellipse cx="1092.56" cy="149.563" rx="21.0367" ry="8.88081" transform="rotate(23.6123 1092.56 149.563)" stroke="#FFE382" stroke-width="5"/>
<path d="M673.44 168.52C672.8 168.52 672.253 168.307 671.8 167.88C671.347 167.453 671.12 166.893 671.12 166.2V157.68H661.92C661.333 157.68 660.813 157.467 660.36 157.04C659.933 156.613 659.72 156.093 659.72 155.48C659.72 154.867 659.933 154.347 660.36 153.92C660.813 153.493 661.333 153.28 661.92 153.28H671.12V148.8H663.36C662.773 148.8 662.253 148.587 661.8 148.16C661.373 147.733 661.16 147.213 661.16 146.6C661.16 145.987 661.373 145.467 661.8 145.04C662.253 144.613 662.773 144.4 663.36 144.4H671.12V133.56C671.12 132.867 671.347 132.307 671.8 131.88C672.253 131.453 672.8 131.24 673.44 131.24C674.08 131.24 674.627 131.453 675.08 131.88C675.533 132.307 675.76 132.867 675.76 133.56V144.4H683.48C684.093 144.4 684.6 144.613 685 145.04C685.427 145.467 685.64 145.987 685.64 146.6C685.64 147.213 685.427 147.733 685 148.16C684.6 148.587 684.093 148.8 683.48 148.8H675.76V153.28H684.64C685.253 153.28 685.773 153.493 686.2 153.92C686.627 154.347 686.84 154.867 686.84 155.48C686.84 156.093 686.627 156.613 686.2 157.04C685.773 157.467 685.253 157.68 684.64 157.68H675.76V166.2C675.76 166.893 675.533 167.453 675.08 167.88C674.627 168.307 674.08 168.52 673.44 168.52ZM656.8 168.6C656.187 168.6 655.653 168.387 655.2 167.96C654.773 167.56 654.56 167.027 654.56 166.36V148.04C654.027 148.893 653.493 149.667 652.96 150.36C652.587 150.893 652.067 151.227 651.4 151.36C650.76 151.467 650.173 151.347 649.64 151C649.133 150.653 648.813 150.173 648.68 149.56C648.547 148.92 648.653 148.36 649 147.88C649.747 146.867 650.507 145.72 651.28 144.44C652.053 143.16 652.787 141.827 653.48 140.44C654.2 139.053 654.84 137.707 655.4 136.4C655.987 135.067 656.453 133.88 656.8 132.84C657.013 132.147 657.427 131.68 658.04 131.44C658.653 131.173 659.253 131.147 659.84 131.36C660.453 131.573 660.893 131.96 661.16 132.52C661.453 133.053 661.493 133.627 661.28 134.24C660.96 135.093 660.613 135.987 660.24 136.92C659.867 137.853 659.453 138.8 659 139.76V166.36C659 167.027 658.787 167.56 658.36 167.96C657.933 168.387 657.413 168.6 656.8 168.6ZM677.8 143.24C677.293 142.947 676.96 142.52 676.8 141.96C676.64 141.4 676.72 140.867 677.04 140.36C677.333 139.88 677.68 139.28 678.08 138.56C678.507 137.813 678.92 137.067 679.32 136.32C679.72 135.573 680.04 134.973 680.28 134.52C680.573 133.933 681.027 133.56 681.64 133.4C682.28 133.213 682.893 133.28 683.48 133.6C684.04 133.893 684.4 134.333 684.56 134.92C684.72 135.48 684.653 136.053 684.36 136.64C684.093 137.173 683.747 137.813 683.32 138.56C682.893 139.307 682.467 140.04 682.04 140.76C681.613 141.453 681.24 142.04 680.92 142.52C680.573 143.027 680.107 143.36 679.52 143.52C678.933 143.653 678.36 143.56 677.8 143.24ZM668.44 143.36C667.853 143.627 667.28 143.667 666.72 143.48C666.16 143.293 665.747 142.92 665.48 142.36C665.267 141.88 664.973 141.293 664.6 140.6C664.253 139.907 663.893 139.227 663.52 138.56C663.173 137.893 662.88 137.36 662.64 136.96C662.347 136.427 662.28 135.867 662.44 135.28C662.627 134.693 662.987 134.267 663.52 134C664.133 133.707 664.72 133.64 665.28 133.8C665.867 133.933 666.32 134.28 666.64 134.84C666.907 135.24 667.227 135.8 667.6 136.52C668 137.24 668.387 137.96 668.76 138.68C669.133 139.373 669.413 139.933 669.6 140.36C669.893 140.947 669.92 141.533 669.68 142.12C669.44 142.68 669.027 143.093 668.44 143.36ZM701.36 168.4C700.773 168.4 700.267 168.227 699.84 167.88C699.44 167.533 699.213 167.04 699.16 166.4C699.133 165.787 699.293 165.267 699.64 164.84C700.013 164.387 700.52 164.147 701.16 164.12C701.933 164.067 702.48 163.933 702.8 163.72C703.12 163.48 703.373 162.867 703.56 161.88C703.72 161.187 703.853 160.28 703.96 159.16C704.093 158.04 704.2 156.867 704.28 155.64C704.36 154.413 704.413 153.333 704.44 152.4C704.467 151.76 704.373 151.347 704.16 151.16C703.947 150.947 703.52 150.84 702.88 150.84H702.2C701.907 153.747 701.347 156.627 700.52 159.48C699.693 162.333 698.613 164.827 697.28 166.96C696.933 167.52 696.427 167.88 695.76 168.04C695.093 168.227 694.467 168.12 693.88 167.72C693.373 167.373 693.067 166.907 692.96 166.32C692.88 165.76 693.013 165.227 693.36 164.72C694.827 162.56 695.96 159.893 696.76 156.72C697.587 153.52 698 149.96 698 146.04V142.44H695.4C694.813 142.44 694.32 142.24 693.92 141.84C693.52 141.44 693.32 140.96 693.32 140.4C693.32 139.84 693.52 139.36 693.92 138.96C694.32 138.56 694.813 138.36 695.4 138.36H699.84V133.36C699.84 132.667 700.053 132.12 700.48 131.72C700.933 131.32 701.467 131.12 702.08 131.12C702.693 131.12 703.213 131.32 703.64 131.72C704.067 132.12 704.28 132.667 704.28 133.36V138.36H707.96C708.493 138.36 708.947 138.533 709.32 138.88C709.72 139.227 709.933 139.667 709.96 140.2C710.707 139 711.413 137.72 712.08 136.36C712.747 135 713.267 133.773 713.64 132.68C713.853 132.067 714.253 131.667 714.84 131.48C715.427 131.267 716.013 131.28 716.6 131.52C717.213 131.76 717.6 132.133 717.76 132.64C717.92 133.147 717.893 133.707 717.68 134.32C717.547 134.693 717.4 135.08 717.24 135.48C717.08 135.853 716.907 136.24 716.72 136.64H728.6C729.16 136.64 729.627 136.84 730 137.24C730.4 137.613 730.6 138.08 730.6 138.64C730.6 139.173 730.4 139.64 730 140.04C729.627 140.44 729.16 140.64 728.6 140.64H714.72C713.893 142.107 713.053 143.413 712.2 144.56C711.827 145.067 711.333 145.387 710.72 145.52C710.107 145.653 709.533 145.547 709 145.2C708.493 144.827 708.2 144.387 708.12 143.88C708.067 143.347 708.187 142.84 708.48 142.36C708.4 142.387 708.307 142.413 708.2 142.44C708.12 142.44 708.04 142.44 707.96 142.44H702.44V146.72H702.8C704.32 146.72 705.507 146.867 706.36 147.16C707.24 147.453 707.853 147.987 708.2 148.76C708.573 149.533 708.747 150.653 708.72 152.12C708.667 154.387 708.573 156.347 708.44 158C708.307 159.627 708.133 161.173 707.92 162.64C707.627 164.88 706.96 166.4 705.92 167.2C704.88 168 703.36 168.4 701.36 168.4ZM714.28 168.44C713.667 168.44 713.133 168.227 712.68 167.8C712.253 167.4 712.04 166.867 712.04 166.2V150.16C711.907 150.187 711.773 150.213 711.64 150.24C711.533 150.267 711.413 150.293 711.28 150.32C710.587 150.48 709.973 150.44 709.44 150.2C708.933 149.933 708.6 149.44 708.44 148.72C708.28 148.08 708.373 147.52 708.72 147.04C709.067 146.56 709.627 146.253 710.4 146.12C711.893 145.853 713.427 145.48 715 145C716.573 144.52 718.107 143.973 719.6 143.36C721.12 142.72 722.493 142.053 723.72 141.36C724.253 141.04 724.813 140.933 725.4 141.04C725.987 141.12 726.427 141.413 726.72 141.92C727.04 142.427 727.133 142.973 727 143.56C726.867 144.147 726.533 144.587 726 144.88C725.413 145.227 724.773 145.573 724.08 145.92C723.413 146.24 722.707 146.56 721.96 146.88C722.04 147.627 722.133 148.373 722.24 149.12C722.347 149.84 722.48 150.547 722.64 151.24C723.36 150.76 724.12 150.253 724.92 149.72C725.72 149.16 726.307 148.733 726.68 148.44C727.187 148.067 727.733 147.92 728.32 148C728.907 148.08 729.387 148.373 729.76 148.88C730.133 149.36 730.293 149.893 730.24 150.48C730.187 151.067 729.907 151.533 729.4 151.88C729.027 152.147 728.507 152.493 727.84 152.92C727.2 153.32 726.533 153.733 725.84 154.16C725.147 154.587 724.52 154.973 723.96 155.32C724.627 156.867 725.453 158.333 726.44 159.72C727.453 161.08 728.627 162.387 729.96 163.64C730.493 164.12 730.747 164.68 730.72 165.32C730.693 165.987 730.453 166.533 730 166.96C729.493 167.467 728.893 167.72 728.2 167.72C727.533 167.72 726.947 167.467 726.44 166.96C724.04 164.667 722.133 161.947 720.72 158.8C719.333 155.653 718.413 152.187 717.96 148.4L716.52 148.88V166.2C716.52 166.867 716.293 167.4 715.84 167.8C715.413 168.227 714.893 168.44 714.28 168.44ZM767.48 162.16C766.013 162.16 765.213 161.48 765.08 160.12C765.027 159.507 765.173 158.987 765.52 158.56C765.867 158.133 766.32 157.88 766.88 157.8C767.573 157.72 768 157.587 768.16 157.4C768.347 157.213 768.44 156.813 768.44 156.2V150.88C768.44 149.707 768.2 148.907 767.72 148.48C767.267 148.027 766.427 147.8 765.2 147.8H756.64C755.413 147.8 754.573 148.027 754.12 148.48C753.667 148.907 753.44 149.707 753.44 150.88V159.84C753.44 160.507 753.213 161.053 752.76 161.48C752.333 161.88 751.813 162.08 751.2 162.08C750.587 162.08 750.053 161.88 749.6 161.48C749.173 161.053 748.96 160.507 748.96 159.84V150.32C748.96 148.667 749.187 147.387 749.64 146.48C750.12 145.573 750.893 144.947 751.96 144.6V137.88C751.96 135.88 752.48 134.44 753.52 133.56C754.56 132.68 756.187 132.24 758.4 132.24H763.4C765.613 132.24 767.24 132.68 768.28 133.56C769.32 134.44 769.84 135.88 769.84 137.88V144.6C770.933 144.947 771.707 145.573 772.16 146.48C772.613 147.387 772.84 148.667 772.84 150.32V156.6C772.84 158.547 772.413 159.947 771.56 160.8C770.733 161.653 769.373 162.107 767.48 162.16ZM760.92 167.52C756.813 167.52 753.507 167.253 751 166.72C748.493 166.213 746.493 165.28 745 163.92C744.627 164.187 744.173 164.507 743.64 164.88C743.133 165.227 742.653 165.56 742.2 165.88C741.747 166.2 741.4 166.44 741.16 166.6C740.627 166.973 740.013 167.093 739.32 166.96C738.653 166.853 738.16 166.507 737.84 165.92C737.52 165.36 737.427 164.773 737.56 164.16C737.72 163.52 738.093 163.053 738.68 162.76C739.053 162.547 739.587 162.267 740.28 161.92C740.973 161.573 741.613 161.227 742.2 160.88V152C742.2 151.387 742.093 150.96 741.88 150.72C741.693 150.48 741.293 150.36 740.68 150.36H739.4C738.787 150.36 738.293 150.16 737.92 149.76C737.573 149.333 737.4 148.84 737.4 148.28C737.4 147.72 737.573 147.24 737.92 146.84C738.293 146.413 738.787 146.2 739.4 146.2H742.36C745.107 146.2 746.48 147.56 746.48 150.28V160.2C747.387 161.053 748.413 161.72 749.56 162.2C750.707 162.68 752.173 163.013 753.96 163.2C755.773 163.387 758.093 163.48 760.92 163.48C763.373 163.48 765.533 163.453 767.4 163.4C769.267 163.347 770.88 163.267 772.24 163.16C772.96 163.107 773.56 163.28 774.04 163.68C774.52 164.08 774.76 164.587 774.76 165.2C774.76 165.84 774.56 166.373 774.16 166.8C773.787 167.227 773.187 167.453 772.36 167.48C771.56 167.48 770.64 167.48 769.6 167.48C768.56 167.48 767.493 167.48 766.4 167.48C765.307 167.507 764.28 167.52 763.32 167.52C762.36 167.52 761.56 167.52 760.92 167.52ZM760.92 158.76C759.56 158.76 758.48 158.627 757.68 158.36C756.907 158.093 756.36 157.613 756.04 156.92C755.72 156.227 755.56 155.267 755.56 154.04C755.56 152.787 755.72 151.827 756.04 151.16C756.36 150.493 756.907 150.027 757.68 149.76C758.48 149.493 759.56 149.36 760.92 149.36C762.28 149.36 763.347 149.493 764.12 149.76C764.92 150.027 765.48 150.493 765.8 151.16C766.12 151.827 766.28 152.787 766.28 154.04C766.28 155.267 766.12 156.227 765.8 156.92C765.48 157.613 764.92 158.093 764.12 158.36C763.347 158.627 762.28 158.76 760.92 158.76ZM746.68 140.2C746.253 140.627 745.72 140.84 745.08 140.84C744.44 140.813 743.907 140.573 743.48 140.12C743.16 139.773 742.76 139.36 742.28 138.88C741.8 138.4 741.32 137.92 740.84 137.44C740.36 136.96 739.947 136.56 739.6 136.24C739.173 135.867 738.96 135.4 738.96 134.84C738.96 134.28 739.16 133.787 739.56 133.36C739.96 132.907 740.453 132.653 741.04 132.6C741.627 132.52 742.16 132.68 742.64 133.08C743.013 133.373 743.453 133.773 743.96 134.28C744.493 134.76 745.013 135.253 745.52 135.76C746.027 136.24 746.44 136.64 746.76 136.96C747.213 137.413 747.427 137.96 747.4 138.6C747.4 139.213 747.16 139.747 746.68 140.2ZM756.16 144.16H758.64V141.92C758.64 140.4 759 139.32 759.72 138.68C760.44 138.013 761.56 137.68 763.08 137.68H765.6C765.52 136.907 765.28 136.4 764.88 136.16C764.48 135.893 763.84 135.76 762.96 135.76H758.84C757.853 135.76 757.16 135.933 756.76 136.28C756.36 136.627 756.16 137.32 756.16 138.36V144.16ZM760.92 155.64C761.613 155.64 762.053 155.547 762.24 155.36C762.453 155.147 762.56 154.707 762.56 154.04C762.56 153.373 762.453 152.947 762.24 152.76C762.053 152.573 761.613 152.48 760.92 152.48C760.227 152.48 759.773 152.573 759.56 152.76C759.373 152.947 759.28 153.373 759.28 154.04C759.28 154.707 759.373 155.147 759.56 155.36C759.773 155.547 760.227 155.64 760.92 155.64ZM762.64 144.16H765.64V141.12H764.4C763.68 141.12 763.2 141.24 762.96 141.48C762.747 141.693 762.64 142.16 762.64 142.88V144.16ZM798.44 166.76C796.333 166.76 794.587 166.613 793.2 166.32C791.813 166.027 790.72 165.533 789.92 164.84C789.147 164.147 788.6 163.2 788.28 162C787.96 160.8 787.8 159.307 787.8 157.52V146.64H783.4C782.813 146.64 782.293 146.427 781.84 146C781.413 145.547 781.2 145.013 781.2 144.4C781.2 143.787 781.413 143.267 781.84 142.84C782.293 142.387 782.813 142.16 783.4 142.16H787.8V135.64C787.8 134.893 788.027 134.307 788.48 133.88C788.96 133.453 789.533 133.24 790.2 133.24C790.867 133.24 791.427 133.453 791.88 133.88C792.36 134.307 792.6 134.893 792.6 135.64V142.16H797.64V134.56C797.64 133.867 797.867 133.307 798.32 132.88C798.773 132.453 799.32 132.24 799.96 132.24C800.6 132.24 801.147 132.453 801.6 132.88C802.053 133.307 802.28 133.867 802.28 134.56V142.16H807.44V135.56C807.44 134.867 807.667 134.307 808.12 133.88C808.6 133.453 809.16 133.24 809.8 133.24C810.44 133.24 811 133.453 811.48 133.88C811.96 134.307 812.2 134.867 812.2 135.56V142.16H816.64C817.253 142.16 817.773 142.387 818.2 142.84C818.653 143.267 818.88 143.787 818.88 144.4C818.88 145.013 818.653 145.547 818.2 146C817.773 146.427 817.253 146.64 816.64 146.64H812.2V151.68C812.2 153.493 811.973 154.88 811.52 155.84C811.093 156.773 810.347 157.413 809.28 157.76C808.213 158.08 806.747 158.24 804.88 158.24C803.013 158.24 801.547 158.08 800.48 157.76C799.44 157.413 798.707 156.773 798.28 155.84C797.853 154.88 797.64 153.493 797.64 151.68V146.64H792.6V157.52C792.6 158.8 792.76 159.787 793.08 160.48C793.427 161.147 794.013 161.613 794.84 161.88C795.693 162.12 796.893 162.24 798.44 162.24H814.44C815.053 162.24 815.587 162.467 816.04 162.92C816.493 163.373 816.72 163.907 816.72 164.52C816.72 165.133 816.493 165.653 816.04 166.08C815.587 166.533 815.053 166.76 814.44 166.76H798.44ZM804.88 153.84C805.893 153.84 806.573 153.693 806.92 153.4C807.267 153.107 807.44 152.48 807.44 151.52V146.64H802.28V151.52C802.28 152.48 802.453 153.107 802.8 153.4C803.173 153.693 803.867 153.84 804.88 153.84ZM837.76 168.08C837.013 168.08 836.387 167.867 835.88 167.44C835.373 167.013 835.093 166.387 835.04 165.56C835.013 164.76 835.267 164.133 835.8 163.68C836.36 163.227 836.973 163 837.64 163C839.587 163 841.12 162.773 842.24 162.32C843.36 161.867 844.16 161.107 844.64 160.04C845.147 158.973 845.4 157.533 845.4 155.72C845.4 153.427 844.853 151.347 843.76 149.48C842.667 147.613 841.267 145.947 839.56 144.48C839.053 144.027 838.787 143.453 838.76 142.76C838.733 142.04 838.947 141.467 839.4 141.04C839.96 140.507 840.56 140.253 841.2 140.28C841.84 140.28 842.453 140.52 843.04 141C843.413 141.267 843.76 141.56 844.08 141.88C844.4 142.173 844.72 142.48 845.04 142.8C845.627 142.507 846.28 142.173 847 141.8C847.747 141.427 848.48 141.053 849.2 140.68C849.92 140.307 850.573 139.973 851.16 139.68C851.747 139.387 852.173 139.16 852.44 139C852.947 138.707 853.173 138.387 853.12 138.04C853.067 137.667 852.72 137.48 852.08 137.48H829C828.387 137.48 827.853 137.267 827.4 136.84C826.973 136.413 826.76 135.893 826.76 135.28C826.76 134.64 826.973 134.107 827.4 133.68C827.853 133.253 828.387 133.04 829 133.04H853.76C855.387 133.04 856.68 133.373 857.64 134.04C858.6 134.707 859.187 135.547 859.4 136.56C859.613 137.573 859.44 138.6 858.88 139.64C858.32 140.68 857.333 141.573 855.92 142.32C854.667 142.987 853.307 143.693 851.84 144.44C850.4 145.187 849.067 145.867 847.84 146.48C848.613 147.787 849.213 149.253 849.64 150.88C850.093 152.48 850.32 154.227 850.32 156.12C850.32 160.333 849.32 163.373 847.32 165.24C845.32 167.133 842.133 168.08 837.76 168.08ZM634.24 232.4C633.573 232.4 633.013 232.2 632.56 231.8C632.107 231.4 631.853 230.853 631.8 230.16C631.747 229.547 631.907 229 632.28 228.52C632.653 228.04 633.187 227.76 633.88 227.68C634.973 227.547 635.68 227.36 636 227.12C636.32 226.853 636.48 226.267 636.48 225.36V220.68C634.293 221.293 632.4 221.813 630.8 222.24C630.107 222.427 629.48 222.373 628.92 222.08C628.387 221.787 628.013 221.28 627.8 220.56C627.613 219.867 627.68 219.267 628 218.76C628.347 218.253 628.867 217.92 629.56 217.76C630.493 217.547 631.56 217.293 632.76 217C633.96 216.707 635.2 216.387 636.48 216.04V210.4H629.72C629.08 210.4 628.56 210.2 628.16 209.8C627.787 209.373 627.6 208.867 627.6 208.28C627.6 207.693 627.787 207.2 628.16 206.8C628.56 206.373 629.08 206.16 629.72 206.16H636.48V202.2C635.6 202.387 634.733 202.573 633.88 202.76C633.053 202.947 632.253 203.107 631.48 203.24C629.907 203.533 628.973 203 628.68 201.64C628.573 201.027 628.68 200.493 629 200.04C629.347 199.587 629.867 199.307 630.56 199.2C631.813 199.013 633.173 198.747 634.64 198.4C636.107 198.053 637.533 197.667 638.92 197.24C640.307 196.813 641.507 196.4 642.52 196C643.187 195.707 643.787 195.653 644.32 195.84C644.88 196.027 645.267 196.387 645.48 196.92C645.72 197.453 645.76 198.013 645.6 198.6C645.44 199.16 645.067 199.547 644.48 199.76C643.973 199.947 643.427 200.147 642.84 200.36C642.28 200.547 641.68 200.747 641.04 200.96V206.16H647.88C647.773 204.8 647.693 203.387 647.64 201.92C647.587 200.427 647.56 198.867 647.56 197.24C647.56 196.547 647.773 196 648.2 195.6C648.653 195.2 649.187 195 649.8 195C650.413 195 650.933 195.213 651.36 195.64C651.813 196.04 652.04 196.587 652.04 197.28C652.013 198.907 652.013 200.467 652.04 201.96C652.067 203.427 652.133 204.827 652.24 206.16H662.24C662.907 206.16 663.427 206.373 663.8 206.8C664.173 207.2 664.36 207.693 664.36 208.28C664.36 208.867 664.173 209.373 663.8 209.8C663.427 210.2 662.907 210.4 662.24 210.4H652.68C653.053 212.96 653.573 215.28 654.24 217.36C655.093 216.027 655.853 214.64 656.52 213.2C656.813 212.507 657.267 212.067 657.88 211.88C658.493 211.667 659.093 211.707 659.68 212C660.213 212.267 660.587 212.667 660.8 213.2C661.013 213.733 660.973 214.307 660.68 214.92C660.093 216.147 659.427 217.36 658.68 218.56C657.933 219.733 657.12 220.88 656.24 222C657.013 223.413 657.947 224.72 659.04 225.92C659.653 226.64 660.107 226.533 660.4 225.6C660.507 225.307 660.6 225.013 660.68 224.72C660.787 224.427 660.867 224.147 660.92 223.88C661.053 223.347 661.36 222.947 661.84 222.68C662.32 222.387 662.893 222.333 663.56 222.52C664.12 222.653 664.547 222.947 664.84 223.4C665.16 223.827 665.253 224.36 665.12 225C664.987 225.72 664.8 226.467 664.56 227.24C664.32 228.013 664.053 228.787 663.76 229.56C663.173 231.107 662.28 231.973 661.08 232.16C659.88 232.373 658.627 231.907 657.32 230.76C655.72 229.32 654.307 227.587 653.08 225.56C651.053 227.587 648.92 229.32 646.68 230.76C646.067 231.16 645.427 231.333 644.76 231.28C644.12 231.227 643.6 230.907 643.2 230.32C642.853 229.787 642.733 229.213 642.84 228.6C642.973 227.987 643.32 227.52 643.88 227.2C645.24 226.4 646.52 225.52 647.72 224.56C648.92 223.573 650.027 222.533 651.04 221.44C650.453 219.893 649.92 218.213 649.44 216.4C648.987 214.56 648.613 212.56 648.32 210.4H641.04V214.8C641.733 214.587 642.373 214.4 642.96 214.24C643.547 214.053 644.067 213.893 644.52 213.76C645.08 213.573 645.6 213.627 646.08 213.92C646.56 214.187 646.867 214.587 647 215.12C647.133 215.707 647.093 216.24 646.88 216.72C646.667 217.173 646.24 217.52 645.6 217.76C645.013 217.973 644.333 218.213 643.56 218.48C642.787 218.72 641.947 218.987 641.04 219.28V226.16C641.04 228.32 640.507 229.893 639.44 230.88C638.4 231.893 636.667 232.4 634.24 232.4ZM661 203.72C660.573 204.12 660.053 204.32 659.44 204.32C658.853 204.293 658.36 204.067 657.96 203.64C657.72 203.373 657.373 203.027 656.92 202.6C656.493 202.147 656.067 201.707 655.64 201.28C655.213 200.853 654.853 200.507 654.56 200.24C654.16 199.867 653.96 199.427 653.96 198.92C653.987 198.387 654.187 197.92 654.56 197.52C654.933 197.147 655.4 196.92 655.96 196.84C656.547 196.76 657.093 196.933 657.6 197.36C657.867 197.6 658.227 197.933 658.68 198.36C659.133 198.76 659.587 199.173 660.04 199.6C660.493 200.027 660.84 200.36 661.08 200.6C661.533 201.027 661.747 201.547 661.72 202.16C661.72 202.747 661.48 203.267 661 203.72ZM690.16 223.72C689.573 224.04 688.973 224.16 688.36 224.08C687.773 223.973 687.293 223.627 686.92 223.04C686.6 222.48 686.533 221.933 686.72 221.4C686.933 220.84 687.347 220.387 687.96 220.04C689.8 219.027 691.533 217.867 693.16 216.56C692.627 216.027 692 215.427 691.28 214.76C690.56 214.093 689.853 213.44 689.16 212.8C688.467 212.16 687.893 211.653 687.44 211.28C687.013 210.907 686.787 210.44 686.76 209.88C686.76 209.293 686.96 208.787 687.36 208.36C687.76 207.933 688.253 207.72 688.84 207.72C689.427 207.693 689.96 207.867 690.44 208.24C690.573 208.373 690.733 208.52 690.92 208.68C691.107 208.813 691.293 208.973 691.48 209.16C691.907 208.627 692.387 208.04 692.92 207.4C693.453 206.733 693.96 206.107 694.44 205.52H688.84C688.28 205.52 687.8 205.333 687.4 204.96C687 204.56 686.8 204.08 686.8 203.52C686.8 202.96 687 202.48 687.4 202.08C687.8 201.68 688.28 201.48 688.84 201.48H694.8V197.72C694.8 197 695.027 196.427 695.48 196C695.96 195.547 696.533 195.32 697.2 195.32C697.867 195.32 698.427 195.547 698.88 196C699.36 196.427 699.6 197 699.6 197.72V201.48H706.6C707.16 201.48 707.627 201.68 708 202.08C708.4 202.48 708.6 202.96 708.6 203.52C708.6 204.08 708.4 204.56 708 204.96C707.627 205.333 707.16 205.52 706.6 205.52H699.92C699.867 205.68 699.8 205.8 699.72 205.88C699.32 206.413 698.813 207.04 698.2 207.76C697.587 208.48 696.947 209.213 696.28 209.96C695.64 210.68 695.04 211.32 694.48 211.88C694.853 212.2 695.187 212.52 695.48 212.84C695.8 213.133 696.093 213.413 696.36 213.68C697.88 212.16 699.253 210.507 700.48 208.72C700.827 208.24 701.293 207.947 701.88 207.84C702.493 207.733 703.053 207.867 703.56 208.24C704.013 208.587 704.293 209.04 704.4 209.6C704.507 210.133 704.387 210.64 704.04 211.12C702.173 213.733 700.12 216.08 697.88 218.16C695.64 220.213 693.067 222.067 690.16 223.72ZM689.76 231.36C689.067 231.627 688.413 231.693 687.8 231.56C687.187 231.427 686.733 231.067 686.44 230.48C686.173 229.92 686.133 229.36 686.32 228.8C686.507 228.213 686.933 227.787 687.6 227.52C689.733 226.693 691.76 225.64 693.68 224.36C695.627 223.053 697.427 221.6 699.08 220C700.733 218.4 702.2 216.72 703.48 214.96C703.827 214.48 704.293 214.2 704.88 214.12C705.493 214.04 706.04 214.187 706.52 214.56C707 214.907 707.28 215.373 707.36 215.96C707.44 216.547 707.307 217.08 706.96 217.56C705.44 219.613 703.8 221.48 702.04 223.16C702.867 223.827 703.76 224.6 704.72 225.48C705.707 226.36 706.52 227.107 707.16 227.72C707.613 228.147 707.84 228.667 707.84 229.28C707.84 229.893 707.613 230.44 707.16 230.92C706.707 231.373 706.147 231.587 705.48 231.56C704.84 231.533 704.293 231.293 703.84 230.84C703.44 230.413 702.933 229.907 702.32 229.32C701.733 228.733 701.133 228.147 700.52 227.56C699.907 226.947 699.347 226.4 698.84 225.92C696.04 228.16 693.013 229.973 689.76 231.36ZM679.36 231.88C677.76 231.88 676.52 231.68 675.64 231.28C674.76 230.907 674.133 230.28 673.76 229.4C673.413 228.52 673.24 227.36 673.24 225.92C673.24 224.427 673.413 223.253 673.76 222.4C674.133 221.547 674.76 220.933 675.64 220.56C676.52 220.187 677.76 220 679.36 220C680.987 220 682.24 220.187 683.12 220.56C684 220.933 684.613 221.547 684.96 222.4C685.333 223.253 685.52 224.427 685.52 225.92C685.52 227.36 685.333 228.52 684.96 229.4C684.613 230.28 684 230.907 683.12 231.28C682.24 231.68 680.987 231.88 679.36 231.88ZM673.04 206.72C672.533 206.72 672.093 206.533 671.72 206.16C671.373 205.787 671.2 205.347 671.2 204.84C671.2 204.333 671.373 203.893 671.72 203.52C672.093 203.147 672.533 202.96 673.04 202.96H685.04C685.573 202.96 686.013 203.147 686.36 203.52C686.733 203.893 686.92 204.333 686.92 204.84C686.92 205.347 686.733 205.787 686.36 206.16C686.013 206.533 685.573 206.72 685.04 206.72H673.04ZM675.08 201.08C674.547 201.08 674.093 200.893 673.72 200.52C673.347 200.12 673.16 199.667 673.16 199.16C673.16 198.627 673.347 198.173 673.72 197.8C674.093 197.427 674.547 197.24 675.08 197.24H683.52C684.053 197.24 684.493 197.427 684.84 197.8C685.213 198.173 685.4 198.627 685.4 199.16C685.4 199.667 685.213 200.12 684.84 200.52C684.493 200.893 684.053 201.08 683.52 201.08H675.08ZM675 218.08C674.493 218.08 674.053 217.893 673.68 217.52C673.333 217.12 673.16 216.667 673.16 216.16C673.16 215.653 673.333 215.213 673.68 214.84C674.053 214.467 674.493 214.28 675 214.28H683.56C684.067 214.28 684.493 214.467 684.84 214.84C685.213 215.213 685.4 215.653 685.4 216.16C685.4 216.667 685.213 217.12 684.84 217.52C684.493 217.893 684.067 218.08 683.56 218.08H675ZM675 212.4C674.493 212.4 674.053 212.213 673.68 211.84C673.333 211.467 673.16 211.027 673.16 210.52C673.16 209.987 673.333 209.533 673.68 209.16C674.053 208.787 674.493 208.6 675 208.6H683.56C684.067 208.6 684.493 208.787 684.84 209.16C685.213 209.533 685.4 209.987 685.4 210.52C685.4 211.027 685.213 211.467 684.84 211.84C684.493 212.213 684.067 212.4 683.56 212.4H675ZM679.36 228.12C680.133 228.12 680.64 227.987 680.88 227.72C681.147 227.453 681.28 226.853 681.28 225.92C681.28 225.013 681.147 224.427 680.88 224.16C680.64 223.893 680.133 223.76 679.36 223.76C678.613 223.76 678.107 223.893 677.84 224.16C677.6 224.427 677.48 225.013 677.48 225.92C677.48 226.853 677.6 227.453 677.84 227.72C678.107 227.987 678.613 228.12 679.36 228.12ZM738.76 224.64C738.333 225.04 737.827 225.227 737.24 225.2C736.68 225.147 736.187 224.893 735.76 224.44C735.333 223.933 734.813 223.36 734.2 222.72C733.613 222.053 733.093 221.493 732.64 221.04C732.32 220.747 732.147 220.373 732.12 219.92C732.12 219.467 732.227 219.067 732.44 218.72C732.333 218.747 732.227 218.773 732.12 218.8C732.013 218.8 731.893 218.8 731.76 218.8C731.093 218.8 730.533 218.6 730.08 218.2C729.627 217.8 729.4 217.227 729.4 216.48V203.4H725.28C724.533 204.707 723.747 205.973 722.92 207.2C722.12 208.4 721.293 209.493 720.44 210.48C720.013 210.987 719.453 211.32 718.76 211.48C718.093 211.64 717.467 211.48 716.88 211C716.4 210.627 716.107 210.147 716 209.56C715.92 208.947 716.08 208.413 716.48 207.96C717.413 206.92 718.333 205.733 719.24 204.4C720.173 203.067 721.04 201.693 721.84 200.28C722.64 198.84 723.307 197.48 723.84 196.2C724.107 195.56 724.533 195.147 725.12 194.96C725.707 194.747 726.307 194.76 726.92 195C727.48 195.24 727.867 195.64 728.08 196.2C728.32 196.733 728.307 197.293 728.04 197.88C727.933 198.147 727.813 198.413 727.68 198.68C727.573 198.947 727.453 199.227 727.32 199.52H750.16C750.773 199.52 751.24 199.72 751.56 200.12C751.907 200.493 752.08 200.947 752.08 201.48C752.08 201.987 751.907 202.44 751.56 202.84C751.24 203.213 750.773 203.4 750.16 203.4H734.08V205.72H747.16C747.72 205.72 748.16 205.907 748.48 206.28C748.827 206.627 749 207.053 749 207.56C749 208.067 748.827 208.507 748.48 208.88C748.16 209.253 747.72 209.44 747.16 209.44H734.08V211.68H747.16C747.72 211.68 748.16 211.867 748.48 212.24C748.827 212.587 749 213.027 749 213.56C749 214.067 748.827 214.507 748.48 214.88C748.16 215.227 747.72 215.4 747.16 215.4H734.08V216.48C734.08 216.987 733.973 217.413 733.76 217.76C734.453 217.6 735.093 217.773 735.68 218.28C735.92 218.493 736.24 218.8 736.64 219.2C737.067 219.6 737.48 220.013 737.88 220.44C738.307 220.867 738.653 221.227 738.92 221.52C739.373 222 739.587 222.533 739.56 223.12C739.56 223.68 739.293 224.187 738.76 224.64ZM735 232.24C732.68 232.24 730.867 232.04 729.56 231.64C728.253 231.24 727.333 230.56 726.8 229.6C726.293 228.667 726.04 227.373 726.04 225.72V221.48C726.04 220.787 726.253 220.24 726.68 219.84C727.133 219.413 727.667 219.2 728.28 219.2C728.893 219.2 729.427 219.413 729.88 219.84C730.333 220.24 730.56 220.787 730.56 221.48V225.32C730.56 226.093 730.667 226.693 730.88 227.12C731.12 227.52 731.56 227.8 732.2 227.96C732.867 228.093 733.84 228.16 735.12 228.16C736.347 228.16 737.28 228.107 737.92 228C738.587 227.867 739.08 227.64 739.4 227.32C739.72 226.973 739.987 226.493 740.2 225.88C740.413 225.293 740.813 224.893 741.4 224.68C741.987 224.467 742.56 224.467 743.12 224.68C743.733 224.893 744.16 225.253 744.4 225.76C744.667 226.24 744.707 226.787 744.52 227.4C744.173 228.6 743.653 229.547 742.96 230.24C742.293 230.96 741.32 231.467 740.04 231.76C738.787 232.08 737.107 232.24 735 232.24ZM716.48 230.36C715.973 230.067 715.627 229.627 715.44 229.04C715.28 228.48 715.387 227.947 715.76 227.44C716.133 226.96 716.547 226.373 717 225.68C717.48 224.96 717.947 224.227 718.4 223.48C718.853 222.733 719.213 222.093 719.48 221.56C719.773 220.947 720.2 220.533 720.76 220.32C721.32 220.107 721.893 220.133 722.48 220.4C723.04 220.667 723.427 221.08 723.64 221.64C723.853 222.2 723.813 222.8 723.52 223.44C723.227 224.027 722.853 224.707 722.4 225.48C721.973 226.253 721.52 227.013 721.04 227.76C720.56 228.507 720.107 229.16 719.68 229.72C719.28 230.253 718.787 230.573 718.2 230.68C717.613 230.813 717.04 230.707 716.48 230.36ZM751.84 228.96C751.387 229.36 750.853 229.547 750.24 229.52C749.627 229.52 749.133 229.267 748.76 228.76C748.387 228.253 747.893 227.64 747.28 226.92C746.693 226.2 746.08 225.493 745.44 224.8C744.827 224.107 744.293 223.547 743.84 223.12C743.44 222.72 743.267 222.213 743.32 221.6C743.4 220.987 743.653 220.507 744.08 220.16C744.533 219.787 745.04 219.613 745.6 219.64C746.187 219.64 746.707 219.867 747.16 220.32C747.667 220.773 748.227 221.347 748.84 222.04C749.48 222.707 750.093 223.373 750.68 224.04C751.267 224.707 751.747 225.293 752.12 225.8C752.547 226.307 752.733 226.853 752.68 227.44C752.627 228.027 752.347 228.533 751.84 228.96ZM759.84 232.08C759.28 231.867 758.907 231.493 758.72 230.96C758.533 230.427 758.56 229.893 758.8 229.36C759.813 226.987 760.56 224.24 761.04 221.12C761.52 217.973 761.76 214.427 761.76 210.48V206.48C761.76 204.587 762.027 203.08 762.56 201.96C763.093 200.84 764 200.04 765.28 199.56C766.587 199.053 768.36 198.8 770.6 198.8H776.52V197.2C776.52 196.507 776.76 195.947 777.24 195.52C777.747 195.067 778.333 194.84 779 194.84C779.693 194.84 780.28 195.067 780.76 195.52C781.24 195.947 781.48 196.507 781.48 197.2V198.8H794.56C795.093 198.8 795.52 198.987 795.84 199.36C796.16 199.707 796.32 200.12 796.32 200.6C796.32 201.08 796.16 201.507 795.84 201.88C795.52 202.227 795.093 202.4 794.56 202.4H770.6C768.893 202.4 767.707 202.613 767.04 203.04C766.4 203.467 766.027 204.307 765.92 205.56H771.28V204.56C771.28 203.973 771.467 203.52 771.84 203.2C772.213 202.853 772.653 202.68 773.16 202.68C773.667 202.68 774.093 202.853 774.44 203.2C774.813 203.52 775 203.973 775 204.56V205.56H778.52C779.027 205.56 779.413 205.707 779.68 206C779.947 206.293 780.08 206.667 780.08 207.12C780.08 207.547 779.947 207.92 779.68 208.24C779.413 208.533 779.027 208.68 778.52 208.68H775V216.4C775 216.987 774.813 217.453 774.44 217.8C774.093 218.12 773.667 218.28 773.16 218.28C772.653 218.28 772.213 218.12 771.84 217.8C771.467 217.453 771.28 216.987 771.28 216.4V208.68H765.92V210.48C765.92 214.4 765.68 218.08 765.2 221.52C764.747 224.96 763.947 228.067 762.8 230.84C762.56 231.4 762.16 231.787 761.6 232C761.04 232.24 760.453 232.267 759.84 232.08ZM794 232.36C793.493 232.653 792.973 232.733 792.44 232.6C791.907 232.493 791.493 232.2 791.2 231.72C791.093 231.507 790.973 231.293 790.84 231.08C790.707 230.893 790.56 230.68 790.4 230.44C789.28 230.547 787.973 230.667 786.48 230.8C784.987 230.933 783.4 231.067 781.72 231.2C780.067 231.333 778.4 231.453 776.72 231.56C775.067 231.693 773.493 231.8 772 231.88C770.507 231.987 769.187 232.067 768.04 232.12C766.547 232.2 765.76 231.56 765.68 230.2C765.653 229.587 765.827 229.093 766.2 228.72C766.573 228.347 767.093 228.16 767.76 228.16C768.693 228.133 769.76 228.093 770.96 228.04C772.16 227.987 773.413 227.947 774.72 227.92C774.88 227.76 775.053 227.6 775.24 227.44C775.427 227.28 775.613 227.107 775.8 226.92C775.213 226.493 774.56 226.04 773.84 225.56C773.147 225.08 772.467 224.627 771.8 224.2C771.133 223.747 770.56 223.373 770.08 223.08C769.653 222.813 769.387 222.427 769.28 221.92C769.2 221.387 769.32 220.907 769.64 220.48C770.013 220.027 770.44 219.773 770.92 219.72C771.427 219.64 771.933 219.747 772.44 220.04C772.653 220.147 772.88 220.28 773.12 220.44C773.387 220.6 773.653 220.773 773.92 220.96C774.373 220.453 774.88 219.867 775.44 219.2C776.027 218.533 776.467 218.013 776.76 217.64C777.133 217.213 777.587 217.013 778.12 217.04C778.68 217.067 779.133 217.24 779.48 217.56C779.907 217.933 780.12 218.373 780.12 218.88C780.12 219.387 779.933 219.827 779.56 220.2C779.24 220.547 778.827 220.987 778.32 221.52C777.84 222.027 777.387 222.507 776.96 222.96C777.28 223.173 777.587 223.387 777.88 223.6C778.173 223.787 778.453 223.973 778.72 224.16C779.707 223.227 780.653 222.32 781.56 221.44C782.467 220.533 783.2 219.787 783.76 219.2C784.187 218.773 784.68 218.573 785.24 218.6C785.8 218.6 786.28 218.787 786.68 219.16C787.133 219.56 787.333 220.027 787.28 220.56C787.253 221.093 787.053 221.547 786.68 221.92C785.933 222.64 784.973 223.533 783.8 224.6C782.653 225.64 781.52 226.653 780.4 227.64C781.813 227.56 783.187 227.48 784.52 227.4C785.853 227.32 787.067 227.267 788.16 227.24C787.973 227 787.8 226.787 787.64 226.6C787.48 226.387 787.333 226.187 787.2 226C786.853 225.547 786.76 225.08 786.92 224.6C787.08 224.093 787.347 223.707 787.72 223.44C788.173 223.147 788.667 223.04 789.2 223.12C789.733 223.173 790.173 223.427 790.52 223.88C790.973 224.413 791.453 225.027 791.96 225.72C792.493 226.413 793 227.093 793.48 227.76C793.987 228.427 794.4 229.013 794.72 229.52C795.04 230 795.133 230.507 795 231.04C794.893 231.6 794.56 232.04 794 232.36ZM786.96 218.28C786.453 218.28 786.013 218.12 785.64 217.8C785.267 217.453 785.08 216.987 785.08 216.4V208.68H781.92C781.44 208.68 781.053 208.533 780.76 208.24C780.493 207.92 780.36 207.547 780.36 207.12C780.36 206.667 780.493 206.293 780.76 206C781.053 205.707 781.44 205.56 781.92 205.56H785.08V204.56C785.08 203.973 785.267 203.52 785.64 203.2C786.013 202.853 786.453 202.68 786.96 202.68C787.467 202.68 787.893 202.853 788.24 203.2C788.613 203.52 788.8 203.973 788.8 204.56V205.56H794.2C794.68 205.56 795.053 205.707 795.32 206C795.613 206.293 795.76 206.667 795.76 207.12C795.76 207.547 795.613 207.92 795.32 208.24C795.053 208.533 794.68 208.68 794.2 208.68H788.8V216.4C788.8 216.987 788.613 217.453 788.24 217.8C787.893 218.12 787.467 218.28 786.96 218.28ZM793.48 217.28C792.173 217.28 791.253 217.04 790.72 216.56C790.187 216.08 789.92 215.213 789.92 213.96V210.96C789.92 210.453 790.067 210.067 790.36 209.8C790.68 209.533 791.053 209.4 791.48 209.4C791.933 209.4 792.307 209.533 792.6 209.8C792.893 210.067 793.04 210.453 793.04 210.96V213.44C793.04 213.733 793.093 213.92 793.2 214C793.307 214.08 793.493 214.12 793.76 214.12C793.947 214.12 794.08 214.067 794.16 213.96C794.267 213.853 794.387 213.64 794.52 213.32C794.707 212.947 795 212.707 795.4 212.6C795.827 212.493 796.213 212.52 796.56 212.68C797.387 213.053 797.667 213.68 797.4 214.56C797.16 215.44 796.733 216.12 796.12 216.6C795.533 217.053 794.653 217.28 793.48 217.28ZM766.96 217.56C766.56 217.427 766.267 217.173 766.08 216.8C765.893 216.427 765.893 216.013 766.08 215.56C766.373 214.84 766.64 214.067 766.88 213.24C767.12 212.387 767.32 211.573 767.48 210.8C767.587 210.293 767.827 209.933 768.2 209.72C768.573 209.507 769 209.453 769.48 209.56C770.44 209.8 770.84 210.4 770.68 211.36C770.52 212.293 770.32 213.213 770.08 214.12C769.84 215.027 769.56 215.84 769.24 216.56C768.733 217.6 767.973 217.933 766.96 217.56ZM780.88 217.56C780.48 217.427 780.187 217.173 780 216.8C779.813 216.427 779.813 216.013 780 215.56C780.32 214.84 780.6 214.067 780.84 213.24C781.08 212.413 781.267 211.6 781.4 210.8C781.507 210.293 781.747 209.933 782.12 209.72C782.493 209.507 782.92 209.453 783.4 209.56C784.36 209.8 784.76 210.4 784.6 211.36C784.44 212.293 784.24 213.213 784 214.12C783.76 215.027 783.48 215.84 783.16 216.56C782.653 217.6 781.893 217.933 780.88 217.56ZM777.68 217.04C777.253 217.04 776.88 216.907 776.56 216.64C776.24 216.347 776.08 215.947 776.08 215.44V211C776.08 210.467 776.24 210.067 776.56 209.8C776.88 209.533 777.253 209.4 777.68 209.4C778.133 209.4 778.507 209.533 778.8 209.8C779.12 210.067 779.28 210.467 779.28 211V215.44C779.28 215.947 779.12 216.347 778.8 216.64C778.507 216.907 778.133 217.04 777.68 217.04ZM816.16 203.92H824.32V208.04H816.16V203.92ZM823 203.92H826.84C826.84 203.92 826.8 205.28 826.8 205.76C826.6 222.76 826.4 228.56 825.44 230.16C824.76 231.32 824.08 231.72 823.04 231.88C822.16 232.08 820.96 232.08 819.68 232.08C819.6 230.92 819.2 229.24 818.64 228.16C819.64 228.28 820.44 228.28 821 228.28C821.44 228.28 821.72 228.12 822 227.56C822.64 226.48 822.84 221.16 823 204.88V203.92ZM818 195.04H821.68C821.64 211.24 821.24 224 816 232.64C815.44 232 813.76 230.52 812.92 229.92C817.88 222.44 818.12 209.84 818 195.04ZM807.6 195.04H812V201.76H807.6V195.04ZM803.76 200.04H815.64V203.96H803.76V200.04ZM803.32 211.08H816V215H803.32V211.08ZM804.6 204.88L807.84 203.96C808.56 205.92 809 208.56 809.08 210.28L805.56 211.28C805.64 209.56 805.2 206.88 804.6 204.88ZM811.64 203.88L815.48 204.64C814.72 207 814.04 209.6 813.44 211.24L810.36 210.48C810.84 208.64 811.44 205.8 811.64 203.88ZM803 219.56C806.28 219.16 811.12 218.4 815.84 217.68L816.12 221.52C811.84 222.32 807.32 223.08 803.8 223.72L803 219.56ZM831.76 195.04H836.2V201.76H831.76V195.04ZM831.76 212.56H836.2V232.64H831.76V212.56ZM827.48 200H840.2V203.92H827.48V200ZM827.32 211.04H840.76V214.96H827.32V211.04ZM827.64 219.2H840.28V223.16H827.64V219.2ZM828.36 204.84L831.64 203.92C832.4 205.88 832.92 208.56 832.96 210.28L829.48 211.28C829.48 209.56 829.04 206.88 828.36 204.84ZM835.92 203.72L839.84 204.56C839.08 206.92 838.36 209.48 837.72 211.16L834.56 210.36C835.04 208.52 835.68 205.68 835.92 203.72ZM807.6 212.28H812V219.56C812 223.96 810.84 229.28 806.16 232.64C805.56 231.72 804.24 230.24 803.24 229.52C807.16 227.08 807.6 222.72 807.6 219.52V212.28ZM866 222.32C865.467 222.32 864.987 222.133 864.56 221.76C864.16 221.387 863.933 220.933 863.88 220.4L863.68 216.4C863.627 215.067 863.827 213.987 864.28 213.16C864.733 212.333 865.76 211.627 867.36 211.04C868.613 210.587 869.533 209.973 870.12 209.2C870.733 208.427 871.04 207.427 871.04 206.2C871.04 204.627 870.587 203.373 869.68 202.44C868.773 201.507 867.547 201.04 866 201.04C864.693 201.04 863.56 201.427 862.6 202.2C861.667 202.947 861.053 203.933 860.76 205.16C860.573 205.88 860.147 206.427 859.48 206.8C858.813 207.147 858.107 207.227 857.36 207.04C856.64 206.827 856.107 206.413 855.76 205.8C855.413 205.16 855.32 204.467 855.48 203.72C855.827 202.28 856.48 201 857.44 199.88C858.427 198.733 859.64 197.827 861.08 197.16C862.547 196.493 864.187 196.16 866 196.16C868.08 196.16 869.92 196.56 871.52 197.36C873.12 198.16 874.373 199.32 875.28 200.84C876.213 202.333 876.68 204.12 876.68 206.2C876.68 208.36 876.04 210.147 874.76 211.56C873.507 212.973 871.88 214.027 869.88 214.72C869.213 214.96 868.773 215.227 868.56 215.52C868.347 215.787 868.227 216.267 868.2 216.96L868.08 220.4C868.053 220.933 867.827 221.387 867.4 221.76C867 222.133 866.533 222.32 866 222.32ZM866 231.44C865.067 231.44 864.267 231.107 863.6 230.44C862.933 229.773 862.6 228.973 862.6 228.04C862.6 227.107 862.933 226.307 863.6 225.64C864.267 224.973 865.067 224.64 866 224.64C866.933 224.64 867.733 224.973 868.4 225.64C869.067 226.307 869.4 227.107 869.4 228.04C869.4 228.973 869.067 229.773 868.4 230.44C867.733 231.107 866.933 231.44 866 231.44Z" fill="#934291"/>
<defs>
<clipPath id="clip0_950_19934">
<rect width="202.528" height="248.648" fill="white" transform="matrix(-1 0 0 1 1219.53 160.75)"/>
</clipPath>
</defs>
</svg>
