<svg width="1077" height="947" viewBox="0 0 1077 947" fill="none" xmlns="http://www.w3.org/2000/svg">
<path d="M237.933 2.00002C276.514 77.6669 266.014 146.5 256.514 173C247.014 199.5 216.014 218 175.014 204.512C134.014 191.023 104.902 218.948 92.1879 240.474C79.4735 262 70.9056 265.139 51.2998 270.585C21.0137 278.999 9.25879 314 9.25879 314H273.514C323.96 314 331.514 257.948 383.014 240.474C434.514 223 468.514 251.5 492.014 258C515.514 264.5 534.835 257.5 569.925 212.5C605.014 167.5 631.014 166.5 677.514 176.052C700.533 180.78 725.514 161 748.514 135.5C771.514 110 802.014 91.5 841.014 101.5C880.014 111.5 898.624 145.5 894.014 176.052C889.403 206.604 915.014 251 952.014 240.474C989.014 229.948 1035.51 252.344 1022.01 303.084C1008.51 353.824 1049.01 366.6 1076.51 372.05H905.014C854.514 372.05 847.397 355.881 818.014 334.082C788.63 312.282 734.514 303.084 685.142 339.775C635.77 376.465 619.143 373.566 569.925 353.824C520.706 334.082 472.617 346.5 443.514 379.5C414.411 412.5 407.368 452 395.514 481.408C383.659 510.816 365.514 523.5 318.514 511.233C271.514 498.966 248.322 536.637 231.514 570.883C214.705 605.129 193.014 612.516 162.514 605.129C132.014 597.742 103.014 605.129 85.2058 641C67.398 676.871 71.1591 713.19 45.9444 717H571.729H978.514C978.514 717 977.014 634.399 930.014 629.428C883.014 624.457 869.014 609.348 847.514 563.328C826.014 517.308 795.514 481.408 718.014 481.408C640.514 481.408 607.514 543.819 598.014 563.328C588.514 582.837 571.014 619.122 515.514 615.068C460.014 611.013 428.283 587.5 383.014 659C337.744 730.5 268.514 823.302 193.014 805.5C117.514 787.698 103.438 836.664 85.2058 872.75C66.9732 908.835 46.4504 901.981 28.0137 908.835C9.57697 915.69 2.51367 933 2.51367 944.899H66.9732C89.3917 944.899 109.014 944.899 142.65 918.316C176.286 891.734 193.014 868.5 240.746 874.655C288.478 880.81 288.514 899 303.514 908.835" stroke="#FFE382" stroke-width="4" stroke-miterlimit="10" stroke-linecap="round"/>
</svg>
