<svg width="139" height="139" viewBox="0 0 139 139" fill="none" xmlns="http://www.w3.org/2000/svg">
<g clip-path="url(#clip0_950_27642)">
<path d="M69.48 138.96C107.853 138.96 138.96 107.853 138.96 69.48C138.96 31.1073 107.853 0 69.48 0C31.1073 0 0 31.1073 0 69.48C0 107.853 31.1073 138.96 69.48 138.96Z" fill="#AE80C4"/>
<path d="M40.57 40.4H82.85C85.64 40.4 87.9 42.66 87.9 45.45V88.12H40.57C37.78 88.12 35.52 85.86 35.52 83.07V45.45C35.52 42.66 37.78 40.4 40.57 40.4Z" fill="white"/>
<path d="M71.5898 67.5H110.11C112.74 67.5 114.87 69.63 114.87 72.26V83.35C114.87 85.98 112.74 88.11 110.11 88.11H71.5898V67.5Z" fill="white"/>
<path d="M110.11 67.5C108.24 67.5 105.41 65.66 103.86 62.42C102.31 59.18 101.18 56.49 99.7701 54.8C98.3601 53.11 96.7201 51.98 93.2301 51.98H85.0801V55.51H91.1501C93.4101 55.51 96.2701 55.37 97.5901 58.05C98.9101 60.73 99.7601 62.85 100.46 64.26C101.16 65.67 102.11 67.51 102.67 67.51H110.1L110.11 67.5Z" fill="white"/>
<path d="M58.7499 51.27H34.1799C32.1144 51.27 30.4399 52.9444 30.4399 55.01C30.4399 57.0755 32.1144 58.75 34.1799 58.75H58.7499C60.8155 58.75 62.4899 57.0755 62.4899 55.01C62.4899 52.9444 60.8155 51.27 58.7499 51.27Z" fill="white" stroke="#AE80C4" stroke-width="2" stroke-miterlimit="10"/>
<path d="M52.3998 63.76H27.8298C25.7643 63.76 24.0898 65.4345 24.0898 67.5C24.0898 69.5656 25.7643 71.24 27.8298 71.24H52.3998C54.4654 71.24 56.1398 69.5656 56.1398 67.5C56.1398 65.4345 54.4654 63.76 52.3998 63.76Z" fill="white" stroke="#AE80C4" stroke-width="2" stroke-miterlimit="10"/>
<path d="M53.3099 98.56C59.0812 98.56 63.7599 93.8814 63.7599 88.11C63.7599 82.3386 59.0812 77.66 53.3099 77.66C47.5385 77.66 42.8599 82.3386 42.8599 88.11C42.8599 93.8814 47.5385 98.56 53.3099 98.56Z" fill="white" stroke="#AE80C4" stroke-width="2" stroke-miterlimit="10"/>
<path d="M53.3099 91.56C55.2152 91.56 56.7599 90.0154 56.7599 88.11C56.7599 86.2046 55.2152 84.66 53.3099 84.66C51.4045 84.66 49.8599 86.2046 49.8599 88.11C49.8599 90.0154 51.4045 91.56 53.3099 91.56Z" fill="#AE80C4"/>
<path d="M94.2801 98.56C100.051 98.56 104.73 93.8814 104.73 88.11C104.73 82.3386 100.051 77.66 94.2801 77.66C88.5087 77.66 83.8301 82.3386 83.8301 88.11C83.8301 93.8814 88.5087 98.56 94.2801 98.56Z" fill="white" stroke="#AE80C4" stroke-width="2" stroke-miterlimit="10"/>
<path d="M94.2801 91.56C96.1855 91.56 97.7301 90.0154 97.7301 88.11C97.7301 86.2046 96.1855 84.66 94.2801 84.66C92.3747 84.66 90.8301 86.2046 90.8301 88.11C90.8301 90.0154 92.3747 91.56 94.2801 91.56Z" fill="#AE80C4"/>
</g>
<defs>
<clipPath id="clip0_950_27642">
<rect width="138.96" height="138.96" fill="white"/>
</clipPath>
</defs>
</svg>
