<svg width="139" height="139" viewBox="0 0 139 139" fill="none" xmlns="http://www.w3.org/2000/svg">
<g clip-path="url(#clip0_950_27712)">
<path d="M69.48 138.96C107.853 138.96 138.96 107.853 138.96 69.48C138.96 31.1073 107.853 0 69.48 0C31.1073 0 0 31.1073 0 69.48C0 107.853 31.1073 138.96 69.48 138.96Z" fill="#AE80C4"/>
<path d="M64.2499 106.92H41.8899C36.6299 106.92 32.3599 102.65 32.3599 97.39V48.59C32.3599 43.33 36.6299 39.06 41.8899 39.06H95.5399C100.8 39.06 105.07 43.33 105.07 48.59V65.59" stroke="white" stroke-width="3" stroke-linecap="round" stroke-linejoin="round"/>
<path d="M89.5099 107.17C98.9485 107.17 106.6 99.5185 106.6 90.08C106.6 80.6414 98.9485 72.99 89.5099 72.99C80.0714 72.99 72.4199 80.6414 72.4199 90.08C72.4199 99.5185 80.0714 107.17 89.5099 107.17Z" stroke="white" stroke-width="3" stroke-linecap="round" stroke-linejoin="round"/>
<path d="M89.5098 90.08V82.17" stroke="white" stroke-width="3" stroke-linecap="round" stroke-linejoin="round"/>
<path d="M89.5098 90.08H97.4098" stroke="white" stroke-width="3" stroke-linecap="round" stroke-linejoin="round"/>
<path d="M47.6699 31.79V46.33" stroke="white" stroke-width="3" stroke-linecap="round" stroke-linejoin="round"/>
<path d="M68.71 31.79V46.33" stroke="white" stroke-width="3" stroke-linecap="round" stroke-linejoin="round"/>
<path d="M89.7598 31.79V46.33" stroke="white" stroke-width="3" stroke-linecap="round" stroke-linejoin="round"/>
<path d="M47.6701 65.67C49.6418 65.67 51.2401 64.0716 51.2401 62.1C51.2401 60.1283 49.6418 58.53 47.6701 58.53C45.6984 58.53 44.1001 60.1283 44.1001 62.1C44.1001 64.0716 45.6984 65.67 47.6701 65.67Z" fill="white"/>
<path d="M61.5197 65.67C63.4914 65.67 65.0897 64.0716 65.0897 62.1C65.0897 60.1283 63.4914 58.53 61.5197 58.53C59.5481 58.53 57.9497 60.1283 57.9497 62.1C57.9497 64.0716 59.5481 65.67 61.5197 65.67Z" fill="white"/>
<path d="M47.6701 79.23C49.6418 79.23 51.2401 77.6316 51.2401 75.66C51.2401 73.6883 49.6418 72.09 47.6701 72.09C45.6984 72.09 44.1001 73.6883 44.1001 75.66C44.1001 77.6316 45.6984 79.23 47.6701 79.23Z" fill="white"/>
<path d="M61.5197 79.23C63.4914 79.23 65.0897 77.6316 65.0897 75.66C65.0897 73.6883 63.4914 72.09 61.5197 72.09C59.5481 72.09 57.9497 73.6883 57.9497 75.66C57.9497 77.6316 59.5481 79.23 61.5197 79.23Z" fill="white"/>
<path d="M47.6701 92.78C49.6418 92.78 51.2401 91.1816 51.2401 89.21C51.2401 87.2383 49.6418 85.64 47.6701 85.64C45.6984 85.64 44.1001 87.2383 44.1001 89.21C44.1001 91.1816 45.6984 92.78 47.6701 92.78Z" fill="white"/>
<path d="M61.5197 92.78C63.4914 92.78 65.0897 91.1816 65.0897 89.21C65.0897 87.2383 63.4914 85.64 61.5197 85.64C59.5481 85.64 57.9497 87.2383 57.9497 89.21C57.9497 91.1816 59.5481 92.78 61.5197 92.78Z" fill="white"/>
<path d="M75.3801 65.67C77.3517 65.67 78.9501 64.0716 78.9501 62.1C78.9501 60.1283 77.3517 58.53 75.3801 58.53C73.4084 58.53 71.8101 60.1283 71.8101 62.1C71.8101 64.0716 73.4084 65.67 75.3801 65.67Z" fill="white"/>
<path d="M89.2297 65.67C91.2013 65.67 92.7997 64.0716 92.7997 62.1C92.7997 60.1283 91.2013 58.53 89.2297 58.53C87.258 58.53 85.6597 60.1283 85.6597 62.1C85.6597 64.0716 87.258 65.67 89.2297 65.67Z" fill="white"/>
</g>
<defs>
<clipPath id="clip0_950_27712">
<rect width="138.96" height="138.96" fill="white"/>
</clipPath>
</defs>
</svg>
