<svg width="139" height="139" viewBox="0 0 139 139" fill="none" xmlns="http://www.w3.org/2000/svg">
<g clip-path="url(#clip0_950_27775)">
<path d="M69.48 138.96C107.853 138.96 138.96 107.853 138.96 69.48C138.96 31.1073 107.853 0 69.48 0C31.1073 0 0 31.1073 0 69.48C0 107.853 31.1073 138.96 69.48 138.96Z" fill="#934291"/>
<path d="M51.6304 105.76H87.3304" stroke="white" stroke-width="3" stroke-linecap="round" stroke-linejoin="round"/>
<path d="M69.4802 86.9899H47.8602C41.6302 86.9899 37.9702 81.22 37.9702 76.26C37.9702 70.03 43.7102 65.75 46.7102 65.75C46.7102 65.75 43.2502 58.1299 47.4002 51.6699C51.5502 45.2099 57.5602 44.74 57.5602 44.74C57.5602 44.74 58.3302 33.2 69.4902 33.2" stroke="white" stroke-width="3" stroke-linecap="round" stroke-linejoin="round"/>
<path d="M69.4802 86.9899C80.2502 86.9899 85.8702 86.9899 91.1002 86.9899C97.3302 86.9899 100.99 81.22 100.99 76.26C100.99 70.03 95.2502 65.75 92.2502 65.75C92.2502 65.75 95.7102 58.1299 91.5602 51.6699C87.4002 45.2099 81.4002 44.74 81.4002 44.74C81.4002 44.74 80.6302 33.2 69.4702 33.2" stroke="white" stroke-width="3" stroke-linecap="round" stroke-linejoin="round"/>
<path d="M69.48 105.76V52.36" stroke="white" stroke-width="3" stroke-linecap="round" stroke-linejoin="round"/>
<path d="M61.9102 55.24L69.2702 62.6" stroke="white" stroke-width="3" stroke-linecap="round" stroke-linejoin="round"/>
<path d="M61.9102 71.86L69.2902 79.25" stroke="white" stroke-width="3" stroke-linecap="round" stroke-linejoin="round"/>
<path d="M77.7301 63.21L69.5601 71.37" stroke="white" stroke-width="3" stroke-linecap="round" stroke-linejoin="round"/>
</g>
<defs>
<clipPath id="clip0_950_27775">
<rect width="138.96" height="138.96" fill="white"/>
</clipPath>
</defs>
</svg>
