<svg width="139" height="139" viewBox="0 0 139 139" fill="none" xmlns="http://www.w3.org/2000/svg">
<g clip-path="url(#clip0_950_27774)">
<path d="M69.48 138.96C107.853 138.96 138.96 107.853 138.96 69.48C138.96 31.1073 107.853 0 69.48 0C31.1073 0 0 31.1073 0 69.48C0 107.853 31.1073 138.96 69.48 138.96Z" fill="#934291"/>
<path d="M69.4801 120.42H42.3701V116.47L53.8101 108H69.4801" stroke="white" stroke-width="3" stroke-linecap="round" stroke-linejoin="round"/>
<path d="M69.4801 89.2201H53.6701C49.2901 89.2201 46.6101 87.2401 45.6201 86.1101V83.5701C45.6201 83.5701 55.0801 84.7001 57.5501 79.3301H69.4801" stroke="white" stroke-width="3" stroke-linecap="round" stroke-linejoin="round"/>
<path d="M69.4799 65.9301H57.5499C53.9499 65.9301 52.6799 64.2401 51.6899 63.3901V60.7101C51.6899 60.7101 58.7499 62.1201 60.5799 56.1901H69.4699" stroke="white" stroke-width="3" stroke-linecap="round" stroke-linejoin="round"/>
<path d="M69.4802 43.3401H61.0102C59.4602 43.3401 57.3402 41.9301 56.4902 40.2301V37.6901H59.1702C60.3002 37.6901 62.9802 36.4201 64.3902 33.4501H69.4702" stroke="white" stroke-width="3" stroke-linecap="round" stroke-linejoin="round"/>
<path d="M69.4801 25.41C68.5001 25.41 66.3701 25.69 66.3701 27.81V33.46" stroke="white" stroke-width="3" stroke-linecap="round" stroke-linejoin="round"/>
<path d="M60.5801 56.1801V43.3401" stroke="white" stroke-width="3" stroke-linecap="round" stroke-linejoin="round"/>
<path d="M57.5503 79.34V65.9301" stroke="white" stroke-width="3" stroke-linecap="round" stroke-linejoin="round"/>
<path d="M53.8101 108V89.2201" stroke="white" stroke-width="3" stroke-linecap="round" stroke-linejoin="round"/>
<path d="M69.4803 94.73C72.7503 94.73 75.4103 97.39 75.4103 100.66V108H63.5503V100.66C63.5503 97.39 66.2103 94.73 69.4803 94.73Z" stroke="white" stroke-width="3" stroke-linecap="round" stroke-linejoin="round"/>
<path d="M59.0701 114.02C59.0701 113.269 58.4612 112.66 57.7101 112.66C56.959 112.66 56.3501 113.269 56.3501 114.02C56.3501 114.771 56.959 115.38 57.7101 115.38C58.4612 115.38 59.0701 114.771 59.0701 114.02Z" fill="white"/>
<path d="M64.9099 114.02C64.9099 113.269 64.301 112.66 63.5499 112.66C62.7988 112.66 62.1899 113.269 62.1899 114.02C62.1899 114.771 62.7988 115.38 63.5499 115.38C64.301 115.38 64.9099 114.771 64.9099 114.02Z" fill="white"/>
<path d="M60.5901 95.1C60.5901 94.3489 59.9812 93.74 59.2301 93.74C58.479 93.74 57.8701 94.3489 57.8701 95.1C57.8701 95.8511 58.479 96.46 59.2301 96.46C59.9812 96.46 60.5901 95.8511 60.5901 95.1Z" fill="white"/>
<path d="M70.8401 114.02C70.8401 113.269 70.2312 112.66 69.4801 112.66C68.729 112.66 68.1201 113.269 68.1201 114.02C68.1201 114.771 68.729 115.38 69.4801 115.38C70.2312 115.38 70.8401 114.771 70.8401 114.02Z" fill="white"/>
<path d="M70.8401 72.63C70.8401 71.8789 70.2312 71.27 69.4801 71.27C68.729 71.27 68.1201 71.8789 68.1201 72.63C68.1201 73.3811 68.729 73.99 69.4801 73.99C70.2312 73.99 70.8401 73.3811 70.8401 72.63Z" fill="white"/>
<path d="M64.9099 72.63C64.9099 71.8789 64.301 71.27 63.5499 71.27C62.7988 71.27 62.1899 71.8789 62.1899 72.63C62.1899 73.3811 62.7988 73.99 63.5499 73.99C64.301 73.99 64.9099 73.3811 64.9099 72.63Z" fill="white"/>
<path d="M67.2 49.76C67.2 49.0089 66.5911 48.4 65.84 48.4C65.0889 48.4 64.48 49.0089 64.48 49.76C64.48 50.5111 65.0889 51.12 65.84 51.12C66.5911 51.12 67.2 50.5111 67.2 49.76Z" fill="white"/>
<path d="M69.48 120.42H96.58V116.47L85.15 108H69.48" stroke="white" stroke-width="3" stroke-linecap="round" stroke-linejoin="round"/>
<path d="M69.48 89.2201H85.29C89.67 89.2201 92.35 87.2401 93.34 86.1101V83.5701C93.34 83.5701 83.88 84.7001 81.41 79.3301H69.48" stroke="white" stroke-width="3" stroke-linecap="round" stroke-linejoin="round"/>
<path d="M69.48 65.9301H81.41C85.01 65.9301 86.28 64.2401 87.27 63.3901V60.7101C87.27 60.7101 80.21 62.1201 78.38 56.1901H69.49" stroke="white" stroke-width="3" stroke-linecap="round" stroke-linejoin="round"/>
<path d="M69.48 43.3401H77.95C79.5 43.3401 81.62 41.9301 82.47 40.2301V37.6901H79.79C78.66 37.6901 75.98 36.4201 74.57 33.4501H69.49" stroke="white" stroke-width="3" stroke-linecap="round" stroke-linejoin="round"/>
<path d="M69.48 25.41C70.46 25.41 72.59 25.69 72.59 27.81V33.46" stroke="white" stroke-width="3" stroke-linecap="round" stroke-linejoin="round"/>
<path d="M78.3701 56.1801V43.3401" stroke="white" stroke-width="3" stroke-linecap="round" stroke-linejoin="round"/>
<path d="M81.4102 79.34V65.9301" stroke="white" stroke-width="3" stroke-linecap="round" stroke-linejoin="round"/>
<path d="M85.1499 108V89.2201" stroke="white" stroke-width="3" stroke-linecap="round" stroke-linejoin="round"/>
<path d="M79.8904 114.01C79.8904 114.761 80.4992 115.37 81.2504 115.37C82.0015 115.37 82.6104 114.761 82.6104 114.01C82.6104 113.259 82.0015 112.65 81.2504 112.65C80.4992 112.65 79.8904 113.259 79.8904 114.01Z" fill="white"/>
<path d="M74.05 114.01C74.05 114.761 74.6589 115.37 75.41 115.37C76.1611 115.37 76.77 114.761 76.77 114.01C76.77 113.259 76.1611 112.65 75.41 112.65C74.6589 112.65 74.05 113.259 74.05 114.01Z" fill="white"/>
<path d="M78.3703 95.1101C78.3703 95.8612 78.9792 96.4701 79.7303 96.4701C80.4814 96.4701 81.0903 95.8612 81.0903 95.1101C81.0903 94.359 80.4814 93.7501 79.7303 93.7501C78.9792 93.7501 78.3703 94.359 78.3703 95.1101Z" fill="white"/>
<path d="M74.05 72.63C74.05 73.3811 74.6589 73.99 75.41 73.99C76.1611 73.99 76.77 73.3811 76.77 72.63C76.77 71.8789 76.1611 71.27 75.41 71.27C74.6589 71.27 74.05 71.8789 74.05 72.63Z" fill="white"/>
<path d="M71.76 49.76C71.76 50.5111 72.3689 51.12 73.12 51.12C73.8711 51.12 74.48 50.5111 74.48 49.76C74.48 49.0089 73.8711 48.4 73.12 48.4C72.3689 48.4 71.76 49.0089 71.76 49.76Z" fill="white"/>
<path d="M70.8401 38.4C70.8401 37.6489 70.2312 37.04 69.4801 37.04C68.729 37.04 68.1201 37.6489 68.1201 38.4C68.1201 39.1511 68.729 39.76 69.4801 39.76C70.2312 39.76 70.8401 39.1511 70.8401 38.4Z" fill="white"/>
<path d="M74.0202 83.01H64.9302V85.97H74.0202V83.01Z" fill="white"/>
<path d="M74.0202 59.5701H64.9302V62.5301H74.0202V59.5701Z" fill="white"/>
<path d="M69.48 25.41V18.54" stroke="white" stroke-width="3" stroke-linecap="round" stroke-linejoin="round"/>
</g>
<defs>
<clipPath id="clip0_950_27774">
<rect width="138.96" height="138.96" fill="white"/>
</clipPath>
</defs>
</svg>
