<svg width="139" height="139" viewBox="0 0 139 139" fill="none" xmlns="http://www.w3.org/2000/svg">
<g clip-path="url(#clip0_950_27713)">
<path d="M69.48 138.96C107.853 138.96 138.96 107.853 138.96 69.48C138.96 31.1073 107.853 0 69.48 0C31.1073 0 0 31.1073 0 69.48C0 107.853 31.1073 138.96 69.48 138.96Z" fill="#AE80C4"/>
<path d="M68.1898 84.67C68.1898 84.67 43.7998 93.1 36.3198 63.47C36.3198 63.47 60.7798 56.14 68.1898 84.67Z" stroke="white" stroke-width="3" stroke-linecap="round" stroke-linejoin="round"/>
<path d="M68.1899 84.67C68.1899 84.67 92.5799 93.1 100.06 63.47C100.06 63.47 75.5999 56.14 68.1899 84.67Z" stroke="white" stroke-width="3" stroke-linecap="round" stroke-linejoin="round"/>
<path d="M68.19 47.37C58.62 54.9 57.25 62.63 57.25 62.63L68.19 76.93L79.13 62.63C79.13 62.63 77.76 54.9 68.19 47.37Z" stroke="white" stroke-width="3" stroke-linecap="round" stroke-linejoin="round"/>
<path d="M32.4001 48.31L30.1401 46.24" stroke="white" stroke-width="3" stroke-linecap="round" stroke-linejoin="round"/>
<path d="M68.29 26.82V23.76" stroke="white" stroke-width="3" stroke-linecap="round" stroke-linejoin="round"/>
<path d="M47.4902 32.4399L45.9102 29.8199" stroke="white" stroke-width="3" stroke-linecap="round" stroke-linejoin="round"/>
<path d="M96.2701 52.35C96.2701 52.35 88.7801 33.25 68.2901 33.25C47.8001 33.25 40.3101 52.35 40.3101 52.35" stroke="white" stroke-width="3" stroke-linecap="round" stroke-linejoin="round"/>
<path d="M59.5 100.08C59.5 100.08 61.62 102.53 68.18 102.53H68.37C74.93 102.53 77.05 100.08 77.05 100.08" stroke="white" stroke-width="3" stroke-linecap="round" stroke-linejoin="round"/>
<path d="M48.77 105.16C48.77 105.16 54.28 111.43 68.18 111.43H68.37C82.27 111.43 87.78 105.16 87.78 105.16" stroke="white" stroke-width="3" stroke-linecap="round" stroke-linejoin="round"/>
<path d="M104.17 48.31L106.43 46.24" stroke="white" stroke-width="3" stroke-linecap="round" stroke-linejoin="round"/>
<path d="M89.0801 32.4399L90.6601 29.8199" stroke="white" stroke-width="3" stroke-linecap="round" stroke-linejoin="round"/>
<path d="M64.2999 85.36C64.2999 85.36 50.0299 106.86 26.1099 87.86C26.1099 87.86 41.0999 67.18 64.2999 85.36Z" fill="#AE80C4" stroke="white" stroke-width="3" stroke-linecap="round" stroke-linejoin="round"/>
<path d="M72.0801 85.36C72.0801 85.36 86.3501 106.86 110.27 87.86C110.27 87.86 95.2801 67.18 72.0801 85.36Z" fill="#AE80C4" stroke="white" stroke-width="3" stroke-linecap="round" stroke-linejoin="round"/>
<path d="M68.2202 93.49C68.2202 93.49 93.0702 86.53 82.3402 57.91C82.3402 57.91 58.0602 65.82 68.2202 93.49Z" fill="#AE80C4" stroke="white" stroke-width="3" stroke-linecap="round" stroke-linejoin="round"/>
<path d="M68.1598 93.49C68.1598 93.49 43.3098 86.53 54.0398 57.91C54.0398 57.91 78.3198 65.82 68.1598 93.49Z" fill="#AE80C4" stroke="white" stroke-width="3" stroke-linecap="round" stroke-linejoin="round"/>
</g>
<defs>
<clipPath id="clip0_950_27713">
<rect width="138.96" height="138.96" fill="white"/>
</clipPath>
</defs>
</svg>
