<svg width="139" height="139" viewBox="0 0 139 139" fill="none" xmlns="http://www.w3.org/2000/svg">
<g clip-path="url(#clip0_950_27711)">
<path d="M69.48 138.96C107.853 138.96 138.96 107.853 138.96 69.48C138.96 31.1073 107.853 0 69.48 0C31.1073 0 0 31.1073 0 69.48C0 107.853 31.1073 138.96 69.48 138.96Z" fill="#AE80C4"/>
<path d="M56.7501 106.3C56.7501 106.3 42.3501 85.92 56.7501 65.54C56.7501 65.54 73.0601 84.05 56.7501 106.3Z" fill="white"/>
<path d="M53.9902 106.3C53.9902 106.3 44.2502 94.77 48.7902 75.93C48.7902 75.93 44.5202 71.36 40.5202 70.13C38.5402 69.52 37.1902 72.85 36.6702 74.05C35.8802 75.86 34.4502 82.11 36.4602 90.01C38.5502 98.22 45.3902 105.65 53.9902 106.3Z" fill="white"/>
<path d="M59.6802 106.3C59.6802 106.3 65.0602 99.18 66.2802 91.33C67.1802 85.51 66.6502 80.12 66.6502 80.12C66.6502 80.12 70.3302 73.47 74.6302 72.04C78.9302 70.61 79.3902 72.3 79.0102 73.83C78.3802 76.39 78.0502 80.03 77.5502 82.6C76.2902 89.11 75.4402 100.63 59.6902 106.31L59.6802 106.3Z" fill="white"/>
<path d="M101.41 97.53C100.24 97.53 99.3002 96.58 99.3002 95.42V95.1C99.3002 93.93 98.3502 92.99 97.1902 92.99H93.7802V62.55C93.7802 60.84 92.7102 59.3 91.1002 58.71L83.2402 55.82V53.9C83.2402 53.9 82.5702 51.98 84.2002 50.96C85.8202 49.95 89.3302 47.35 88.7902 42.64C88.2602 37.93 83.8702 30.78 80.6202 29.32C77.3702 30.78 72.9902 37.93 72.4502 42.64C71.9202 47.35 75.4202 49.95 77.0402 50.96C78.6602 51.97 78.0002 53.9 78.0002 53.9L70.4702 51.13C68.6902 50.48 66.8102 51.79 66.8102 53.68V75.77C72.4802 68.89 76.9202 69.11 79.0302 69.19C81.6202 69.28 82.1902 71.31 81.7602 72.75C81.2402 74.48 80.7802 77.87 80.1302 81.62C79.1602 87.27 78.6402 92.25 75.5802 97.37C71.5302 104.15 64.1802 106.79 64.1802 106.79L93.7702 106.3H101.4C102.57 106.3 103.51 105.35 103.51 104.19V99.64C103.51 98.47 102.56 97.53 101.4 97.53H101.41Z" fill="white"/>
</g>
<defs>
<clipPath id="clip0_950_27711">
<rect width="138.96" height="138.96" fill="white"/>
</clipPath>
</defs>
</svg>
