<svg width="139" height="139" viewBox="0 0 139 139" fill="none" xmlns="http://www.w3.org/2000/svg">
<g clip-path="url(#clip0_950_19927)">
<path d="M69.48 138.96C107.853 138.96 138.96 107.853 138.96 69.48C138.96 31.1073 107.853 0 69.48 0C31.1073 0 0 31.1073 0 69.48C0 107.853 31.1073 138.96 69.48 138.96Z" fill="#AE80C4"/>
<path d="M80.6398 99.53C80.0898 97.47 77.4798 95.33 74.7698 92.83C72.0598 90.33 68.5598 89.81 66.6998 90.36C64.8398 90.91 62.5698 93.35 62.0298 93.89C61.4898 94.43 60.5998 95.78 58.1798 95.08C55.7498 94.38 47.5398 86.66 47.5398 86.66C47.5398 86.66 39.7798 78.49 39.0598 76.07C38.3398 73.65 39.6898 72.75 40.2298 72.21C40.7698 71.67 43.1898 69.39 43.7298 67.52C44.2698 65.65 43.7298 62.15 41.2198 59.46C38.7098 56.77 36.5498 54.17 34.4898 53.63C32.4298 53.09 29.5498 54.98 28.1198 56.32C26.6898 57.66 23.5398 60.99 23.1798 63.77C22.8198 66.55 25.2398 76.87 31.0798 84.59C36.9198 92.31 39.6998 94.55 39.6998 94.55C39.6998 94.55 41.9598 97.32 49.7098 103.11C57.4598 108.9 67.7998 111.26 70.5798 110.89C73.3598 110.52 76.6598 107.36 77.9998 105.91C79.3398 104.47 81.2098 101.58 80.6598 99.52L80.6398 99.53ZM29.0098 72.84C29.0098 72.84 26.3198 68.17 27.2198 64.22C28.1198 60.27 31.1698 58.66 31.1698 58.66L33.9498 61.98C33.9498 61.98 27.7598 64.67 29.0098 72.84ZM70.0898 106.86C66.1498 107.78 61.4598 105.11 61.4598 105.11C69.6298 106.32 72.2898 100.11 72.2898 100.11L75.6298 102.87C75.6298 102.87 74.0298 105.93 70.0898 106.85V106.86Z" fill="white"/>
<path d="M82.9299 27.43C65.6999 27.43 56.1099 37.12 56.1099 47.98C56.1099 57.85 63.0199 62.52 64.6399 63.69C66.2599 64.86 66.3499 65.75 66.3499 65.75C66.4399 69.79 61.9499 74.46 61.9499 74.46C70.1199 75.9 78.1899 68.72 78.1899 68.72C101.43 69.62 108.43 57.86 108.43 48.35C108.43 37.67 100.16 27.44 82.9299 27.44V27.43ZM70.0199 51.84C68.0399 51.84 66.4299 50.23 66.4299 48.25C66.4299 46.27 68.0399 44.66 70.0199 44.66C71.9999 44.66 73.6099 46.27 73.6099 48.25C73.6099 50.23 71.9999 51.84 70.0199 51.84ZM82.2699 51.84C80.2899 51.84 78.6799 50.23 78.6799 48.25C78.6799 46.27 80.2899 44.66 82.2699 44.66C84.2499 44.66 85.8599 46.27 85.8599 48.25C85.8599 50.23 84.2499 51.84 82.2699 51.84ZM94.5199 51.84C92.5399 51.84 90.9299 50.23 90.9299 48.25C90.9299 46.27 92.5399 44.66 94.5199 44.66C96.4999 44.66 98.1099 46.27 98.1099 48.25C98.1099 50.23 96.4999 51.84 94.5199 51.84Z" fill="white"/>
</g>
<defs>
<clipPath id="clip0_950_19927">
<rect width="138.96" height="138.96" fill="white"/>
</clipPath>
</defs>
</svg>
