<svg width="231" height="200" viewBox="0 0 231 200" fill="none" xmlns="http://www.w3.org/2000/svg">
<path d="M174.656 62.8306C175.011 60.6646 173.542 58.5357 170.248 58.1784C168.431 58.2529 167.154 59.7862 166.905 61.8109C166.884 61.9597 166.891 62.2649 166.948 62.6445C163.101 64.751 158.325 65.7782 154.364 67.9815C155.294 66.329 159.808 56.8535 160.951 53.7198C167.828 44.8694 172.229 38.87 179.361 33.3916C179.787 33.7712 180.348 34.0987 181.086 34.2997C183.62 35.0068 185.302 34.3071 185.806 31.1957C186.161 29.0297 184.692 26.8934 181.398 26.5435C179.581 26.618 178.304 28.1513 178.056 30.176C178.02 30.4737 178.056 31.3446 178.496 32.2378C172.541 36.0861 167.537 41.5422 163.123 47.2439C163.619 45.6287 168.978 31.9252 169.12 31.7391C172.796 27.005 176.657 21.5787 178.914 15.7802C179.078 15.8472 179.22 15.9216 179.411 15.9738C181.945 16.6809 183.627 15.9812 184.131 12.8698C184.486 10.7038 183.017 8.56748 179.723 8.21763C177.906 8.29207 176.629 9.82541 176.381 11.85C176.331 12.2446 176.409 13.696 177.459 14.8126C175.415 19.6657 172.392 23.6852 169.574 28.0099C171.313 24.1095 172.406 15.9142 172.051 7.99432C173.698 8.0092 174.791 7.05644 175.188 4.65219C175.543 2.48613 174.074 0.349845 170.781 0C168.964 0.074435 167.686 1.6078 167.438 3.63243C167.367 4.17581 167.53 6.68425 170.128 7.61469C169.95 11.396 169.744 15.1624 169.354 18.8767C167.438 14.4181 164.549 11.0536 161.121 7.84546C161.32 7.40629 161.483 6.90012 161.582 6.26742C161.937 4.10136 160.468 1.96507 157.175 1.61523C155.358 1.68966 154.08 3.22303 153.832 5.24766C153.761 5.81337 153.91 8.54513 156.863 9.36392C158.119 9.71376 159.162 9.71377 159.964 9.25227C164.365 14.5669 168.68 22.7994 168.701 22.8367C163.641 42.4131 162.555 42.5545 159.148 51.777C159.013 48.8964 159.162 39.2272 154.804 31.1287C155.273 30.5853 155.606 29.7963 155.791 28.6798C156.146 26.5138 154.677 24.3775 151.383 24.0276C149.566 24.1021 148.289 25.6354 148.041 27.6601C147.97 28.2258 148.119 30.9575 151.071 31.7763C151.795 31.9773 152.434 32.0443 153.009 31.9996C155.521 39.8749 157.913 54.7991 157.459 56.5185C157.367 56.8684 149.254 72.068 146.167 76.9807C147.735 70.1401 145.698 62.3765 143.732 55.6848C145.045 55.4764 145.933 54.4939 146.273 52.3948C146.628 50.2288 145.159 48.0999 141.866 47.7426C140.049 47.8171 138.771 49.3504 138.523 51.3751C138.452 51.9408 138.601 54.6726 141.553 55.4913C141.61 55.5062 141.66 55.5137 141.717 55.5285C143.725 63.9471 144.236 79.1468 144.236 79.1468C144.236 79.1468 137.401 89.0243 132.071 98.4478C131.638 99.2144 133.768 100.964 134.35 100.1C140.155 91.4137 145.485 82.4517 150.979 73.6311C153.442 71.6214 163.399 66.7012 167.629 64.3268C168.084 64.9744 168.793 65.5773 169.936 65.8899C172.47 66.597 174.152 65.8973 174.656 62.786V62.8306Z" fill="#DBD0A2"/>
<path d="M198.283 143.706C199.586 142.316 199.429 140.096 196.999 138.297C195.532 137.489 193.802 137.996 192.647 139.328C192.559 139.429 192.42 139.643 192.289 139.942C188.259 139.643 184.008 138.133 179.851 137.849C181.362 137.095 189.39 132.427 191.77 130.713C201.37 127.598 207.667 125.368 215.879 124.794C216.04 125.268 216.328 125.769 216.81 126.261C218.48 127.961 220.128 128.249 221.998 126.257C223.301 124.867 223.145 122.647 220.714 120.848C219.247 120.039 217.518 120.547 216.363 121.879C216.193 122.072 215.806 122.715 215.732 123.568C209.219 123.528 202.699 125.093 196.526 127.101C197.678 126.174 208.367 118.86 208.567 118.801C213.701 117.137 219.3 115.056 223.816 111.958C223.914 112.084 223.99 112.204 224.11 112.331C225.78 114.031 227.428 114.319 229.299 112.327C230.602 110.937 230.445 108.717 228.015 106.917C226.547 106.109 224.818 106.617 223.663 107.949C223.435 108.214 222.821 109.285 223.117 110.588C219.22 113.105 214.94 114.569 210.678 116.344C213.888 114.359 218.612 109.002 222.065 103.146C223.361 103.927 224.67 103.765 226.113 102.224C227.416 100.834 227.259 98.6137 224.829 96.8145C223.361 96.0063 221.632 96.5139 220.477 97.846C220.168 98.204 219.116 100.075 220.721 101.967C218.797 104.599 216.859 107.203 214.8 109.687C215.391 105.585 214.697 101.809 213.51 97.8965C213.873 97.6727 214.242 97.385 214.617 96.9836C215.921 95.5932 215.764 93.3732 213.334 91.5741C211.866 90.7659 210.137 91.2734 208.982 92.6055C208.658 92.978 207.488 95.0129 209.429 96.9874C210.257 97.8306 211.081 98.326 211.93 98.367C212.891 104.255 212.422 112.188 212.415 112.224C199.195 123.887 198.268 123.478 191.241 128.497C192.492 126.362 197.17 119.5 197.543 111.632C198.167 111.462 198.81 111.051 199.473 110.342C200.776 108.951 200.619 106.731 198.189 104.932C196.721 104.124 194.992 104.631 193.837 105.963C193.514 106.336 192.343 108.371 194.284 110.345C194.758 110.83 195.231 111.18 195.71 111.417C193.979 118.248 188.83 130.084 187.665 131.104C187.429 131.312 173.864 138.4 169.114 140.472C173.575 136.295 175.629 129.772 177.23 124.042C178.366 124.506 179.525 124.224 180.784 122.877C182.087 121.487 181.93 119.267 179.5 117.468C178.032 116.659 176.303 117.167 175.148 118.499C174.824 118.871 173.654 120.906 175.595 122.881C175.633 122.916 175.67 122.944 175.708 122.986C173.324 129.974 166.568 141.116 166.568 141.116C166.568 141.116 156.514 144.988 147.87 149.244C147.167 149.592 148.024 151.847 148.891 151.497C157.564 147.994 165.995 144.074 174.487 140.332C177.373 140.053 187.553 141.205 192.007 141.493C192.059 142.173 192.335 142.937 193.087 143.703C194.757 145.404 196.405 145.692 198.275 143.699L198.283 143.706Z" fill="#C2B075"/>
<path d="M100.486 91.7171C100.337 97.724 95.2765 110.758 95.2765 110.914C95.2977 115.782 94.4035 119.809 92.5226 123.694C93.1188 123.523 97.8599 121.104 99.7762 120.025C100.912 118.447 105.078 110.631 106.519 108.368C106.27 108.249 104.46 103.537 105.582 101.803C106.831 99.8603 109.365 98.9224 111.508 99.5551C113.389 100.113 115.866 103.016 114.503 105.108C112.658 109.47 108.925 108.755 107.945 108.718C106.469 112.068 104.822 115.298 102.835 118.35C108.208 115.536 113.985 113.125 119.379 112.492C121.693 105.577 126.172 99.5774 132.19 95.8036C135.647 93.6375 139.508 92.1637 143.397 91.1067C148.564 89.7074 154.242 90.5485 159.217 88.9109C159.217 88.9109 147.059 105.101 139.444 108.629C135.682 110.371 133.205 111.963 119.983 113.742C113.077 116.43 99.6555 122.57 99.5917 122.623C105.113 122.474 110.806 123.665 116.093 125.079C120.82 121.67 125.838 121.111 131.7 121.997C139.181 123.129 154.888 127.148 154.426 127.543C145.42 135.291 133.659 136.192 129.592 135.343C125.497 134.487 119.521 132.187 114.688 126.181C114.681 126.173 114.702 126.166 114.716 126.158C110.777 125.622 106.831 125.131 102.885 124.662C99.982 124.32 97.5121 124.58 95.0422 125.086C93.7576 125.838 83.7999 132.857 81.2022 135.038C83.8709 134.971 89.2933 134.815 89.2933 134.815C97.3489 129.277 117.832 132.269 114.943 134.093C110.174 137.108 93.5163 142.928 89.7617 135.999C86.1279 136.572 82.4727 136.512 78.8885 137.018C75.3043 140.137 67.2203 147.677 66.6525 148.206C67.3906 147.871 74.8429 143.457 85.2904 144.477C86.9228 142.981 88.2429 143.531 89.3643 144.06C92.1749 145.37 90.9186 148.02 89.9746 148.652C85.0703 151.942 83.1966 148.258 83.9986 145.973C80.2512 146.352 76.4611 146.33 72.806 147.141C72.8273 147.141 72.8415 147.141 72.8628 147.149C76.4541 148.496 79.9247 150.67 82.0397 154.012C82.281 153.811 85.6594 152.114 87.6964 153.066C90.8619 154.548 89.123 159.312 87.6538 160.101C81.0745 163.651 80.677 158.188 81.1668 155.009C78.1149 150.863 71.0529 147.796 71.0103 147.811C69.4134 148.444 66.468 149.486 64.8356 149.873C58.3343 155.858 51.5492 161.746 44.1253 166.301C47.8656 166.204 51.6627 166.286 55.2895 167.016C57.5607 167.47 59.7538 168.11 61.9824 168.579C62.0037 168.556 62.0179 168.534 62.0463 168.519C78.8033 157.882 112.438 167.648 114.716 169.159C115.639 169.77 95.028 180.116 84.5451 178.642C77.9374 177.719 61.5566 170.261 61.5566 170.261C56.0348 169.033 48.6392 167.894 40.6617 168.303C36.9498 170.306 33.0746 171.928 29.0007 173.06C30.9738 173.722 33.0036 174.266 34.8986 175.107C37.9789 176.476 40.9101 178.151 43.7633 179.982C43.8201 180.019 43.8556 180.072 43.8982 180.116C48.3341 179.982 52.6848 180.406 56.8864 182.528C60.5913 184.396 64.0052 186.905 67.6106 188.974C71.3865 191.14 80.4144 195.77 78.9878 197.229C75.6591 200.623 60.5132 200.645 53.2952 196.953C48.5257 194.512 47.2623 191.058 40.8321 180.287C38.0641 178.59 35.2038 177.049 32.1874 175.858C30.2782 175.099 28.2625 174.623 26.4385 173.692C25.2319 173.96 6.45924 178.002 0.59676 176.707C-0.0633003 176.558 -0.262011 175.486 0.525804 175.36C7.95681 174.124 15.2601 174.846 22.5917 172.531C24.8061 170.931 27.0844 168.467 28.1419 167.418C32.6913 162.884 35.218 157.332 36.8078 151.22C32.3152 145.474 33.8624 135.857 35.5161 129.299C36.4317 125.697 37.5957 121.997 39.661 118.923C42.5852 114.561 46.4391 107.937 48.3483 106.239C49.3348 105.368 53.2809 115.343 53.5932 120.114C53.8984 124.796 52.3299 129.396 50.4065 133.535C48.0856 138.522 44.4021 147.149 39.0435 149.628C37.8298 157.912 34.196 164.515 29.0149 169.197C28.3761 169.777 27.347 170.767 26.1546 171.787C36.4317 168.683 52.8054 160.22 61.7695 147.96C63.771 145.221 65.3111 142.035 66.5816 138.834C66.177 138.939 62.0534 122.786 63.8632 114.256C65.5311 106.381 75.1907 92.119 75.4391 93.2653C78.3136 106.396 77.0645 123.017 67.9585 139.236C66.1841 142.393 65.2614 145.035 63.3451 148.437C66.1912 145.891 89.9463 124.58 90.7696 124.268C91.5503 122.809 92.2529 121.312 92.693 119.712C93.4524 116.965 93.3317 114.077 93.8428 111.294C93.4311 111.599 84.9 94.7243 84.609 85.8814C84.3322 77.6489 88.8746 71.3145 93.4169 65.0173C93.8925 64.3548 100.699 82.9263 100.486 91.7097V91.7171Z" fill="#C2B075"/>
</svg>
