<?xml version="1.0" encoding="utf-8"?>
<!-- Generator: Adobe Illustrator 27.8.1, SVG Export Plug-In . SVG Version: 6.00 Build 0)  -->
<svg version="1.1" id="圖層_1" xmlns="http://www.w3.org/2000/svg" xmlns:xlink="http://www.w3.org/1999/xlink" x="0px" y="0px"
	 viewBox="0 0 1377.7 694" style="enable-background:new 0 0 1377.7 694;" xml:space="preserve">
<style type="text/css">
	.st0{clip-path:url(#SVGID_00000177452417893943594210000005215325533399266193_);}
	.st1{fill:#FFFAEC;}
	.st2{fill:#FFF5DA;}
	.st3{fill:#D8E6A0;}
	.st4{fill:#FFE8B9;}
	.st5{fill:#FFD784;}
	.st6{fill:#4E326A;}
	.st7{fill:#C6ADD2;}
	.st8{fill:#3B1A54;}
	.st9{fill:#824F9A;}
	.st10{fill:#814E99;}
	.st11{fill:#86569D;}
	.st12{fill:#FFFFFF;}
	.st13{fill:#80C7A7;}
	.st14{fill:#A3A3A3;}
	.st15{fill:#AE80C4;}
	.st16{fill:#9163A7;}
	.st17{fill:#FFC876;}
	.st18{clip-path:url(#SVGID_00000034079964504714962400000000537691526308072124_);}
	.st19{fill:#CF9A70;}
	.st20{fill:#FBEFD2;}
</style>
<g>
	<defs>
		<rect id="SVGID_1_" x="0.1" y="0.6" width="1377.6" height="693.4"/>
	</defs>
	<clipPath id="SVGID_00000023248437561381033040000015865878050338337685_">
		<use xlink:href="#SVGID_1_"  style="overflow:visible;"/>
	</clipPath>
	<g style="clip-path:url(#SVGID_00000023248437561381033040000015865878050338337685_);">
		<rect x="0.1" y="0.6" class="st1" width="1376.7" height="693.4"/>
		<path class="st2" d="M1219,693.7c0-306.3-237.2-554.5-529.7-554.5c-292.6,0-529.7,248.3-529.7,554.5"/>
		<path class="st3" d="M1083.3,685.2c-11.5-24.2-46.1-157.9-10.9-165.2c16.8,3.1,26.1,38.6,32.1,53.1
			c-0.2-24.3,15.9-134.4,51.2-123.3c15.8,7.3,3.7,63.8,5.3,81.6c10.4-18.6,52.1-69.2,74.9-51c12,12.2-26.3,67.5-32.1,85
			c57.7-58,143.6-14.4,18.5,54.6c19.1-6.3,50.2-7.7,55.6,16.8c-0.2,34.9-53.9,53-83.1,57.3h-108.7L1083.3,685.2L1083.3,685.2z"/>
		<path class="st3" d="M294.4,685.2c11.5-24.2,46.1-157.9,10.9-165.2c-16.8,3.1-26.1,38.6-32.1,53.1c0.2-24.3-15.9-134.4-51.2-123.3
			c-15.8,7.3-3.7,63.8-5.3,81.6c-10.4-18.6-52.1-69.2-74.9-51c-12,12.2,26.3,67.5,32.1,85c-57.7-58-143.6-14.4-18.5,54.6
			c-19.1-6.3-50.2-7.7-55.6,16.8c0.2,34.9,53.9,53,83.1,57.3h108.7L294.4,685.2L294.4,685.2z"/>
		<path class="st4" d="M1109.6,693.7c0-241.2-188.4-436.7-420.7-436.7c-232.4,0-420.7,195.5-420.7,436.7"/>
		<path class="st5" d="M1017.9,693.7c0-174.7-147.3-316.4-329-316.4s-329,141.7-329,316.4"/>
		<path class="st6" d="M887,524.5c0.1,1.4,1,7.6,6,12.4c4.8,4.5,10.2,4.8,11.6,4.8c1.4,0.6,3.7,1.7,5.5,4c5.1,6.6,1.5,16.1-1.2,37.1
			c-1.5,12.1-2.2,18.3-1.4,26c1,9.9,4.4,18.4,8.4,25.2c0,5.9,0.9,17.8,7.2,30.4c2.5,4.9,6.8,13.6,15.7,19.9
			c12.9,9.1,33.9,11.9,43.3,1c5-5.8,4.7-14.3,3.9-31c-0.9-18.7-1.9-38-12.7-58.1c-9.3-17.3-16.9-18.6-22-26.3
			c-1.1-1.7-2.4-4.3-3.9-9.2c-6.8-22.3-1.2-38.4-9.3-44.4c-0.8-0.6-2.3-1.5-4.9-1.8c-5.5-3.4-11.8-3.4-15.9,0.1
			c-2.3,1.9-3.4,4.4-3.9,6.1C904.6,521.9,895.8,523.2,887,524.5L887,524.5z"/>
		<path class="st6" d="M943.5,521.3c3.8,6.8,3.4,13.8,0.1,16.9c-2.6,2.4-6.7,2.1-9.3,0.9c-6.4-2.9-9.8-13.7-8.2-27.1
			c1.8,0,4.4,0.2,7.2,1.2C938.7,515.3,942.1,519.3,943.5,521.3L943.5,521.3z"/>
		<path class="st6" d="M907.1,536.8c-3.5,4.2-3.9,6.4-3.3,7.7c0.3,0.8,1.1,1.5,0.9,2c-0.3,0.5-1.5,0.2-3.1-0.1
			c-1.5-0.3-2.3-0.5-2.9-0.9c-1.4-1.1-1.5-2.7-2.1-2.7c-0.8,0.1-1.1,3.2-1.6,3.2c-0.6,0-0.5-4.6-1.9-5c-0.8-0.2-1.3,1-2,0.8
			c-1-0.3-1.1-2.9-1.1-4.6c-0.1-2.5,0-5.8,0.4-9.9L907.1,536.8L907.1,536.8z"/>
		<path class="st1" d="M887,524.5c-0.8,1.1,0,3.4,0.7,3.6c0.4,0.1,0.6-0.6,1.4-1.4c1.8-2,4.2-1.8,4.1-2.3c0-0.4-2.2-0.5-3.1-0.5
			C888.3,523.9,887.4,523.9,887,524.5L887,524.5z"/>
		<path class="st6" d="M909.9,585.1c-0.7,32.8-1.4,65.5-2.1,98.3c-3.9-0.7-7.2,1.3-8.1,4.2c-0.7,2.3,0.4,4.4,0.7,5h15.8
			c5.3-12.7,10.6-25.5,15.8-38.2c1.5-12.2,3-24.5,4.6-36.7C927.7,606.8,918.8,596,909.9,585.1L909.9,585.1z"/>
		<path class="st6" d="M976.3,637.9c-10.8-7.7-18.4-5.6-20.2-5c-9.3,3.1-13.4,14.3-18.3,27.5c-3.9,10.5-5.4,19.7-6.2,25.8
			c-3.3-1.6-6.7-0.1-7.6,2.3c-0.9,2.3,0.7,4.8,0.9,5h54.6C978.5,675,977.4,656.4,976.3,637.9L976.3,637.9z"/>
		<path class="st6" d="M976.5,677.7c6.2-6.6,14-7,17-3.6c3.1,3.5,1.5,11.5-2.5,15.6c-4,4.1-9.9,3.6-12.7,3.3c-2.7-0.3-4.9-1-6.3-1.7
			L976.5,677.7z"/>
		<path class="st1" d="M928,667.7c-0.1,0-0.2,0-0.3-0.1c-0.3-0.2-0.4-0.5-0.2-0.8c1.5-2.4,2.8-4.9,4.1-7.5c2.5-5.1,4.5-10.5,6.1-16
			c0.1-0.3,0.4-0.5,0.7-0.4c0.3,0.1,0.5,0.4,0.4,0.7c-1.6,5.6-3.6,11-6.1,16.2c-1.3,2.6-2.6,5.1-4.1,7.6
			C928.4,667.6,928.2,667.7,928,667.7L928,667.7z"/>
		<path class="st1" d="M909.2,619.1c-0.4-0.1-0.6-0.4-0.6-0.7l3.4-18.1c0.1-0.3,0.4-0.5,0.7-0.5c0.3,0.1,0.5,0.4,0.5,0.7l-3.4,18.1
			C909.7,618.9,909.5,619.1,909.2,619.1L909.2,619.1z"/>
		<path class="st1" d="M934.3,679.2c-0.3,0-0.6-0.3-0.6-0.6c0-1.1,0.1-26.7,18.8-38.2c8-4.9,16.2-5.3,21.6-4.7
			c0.3,0,0.6,0.3,0.5,0.6c0,0.3-0.3,0.5-0.6,0.5c-5.3-0.6-13.1-0.2-20.9,4.5c-18.1,11.2-18.2,36.1-18.2,37.2
			C934.8,678.9,934.6,679.2,934.3,679.2L934.3,679.2z"/>
		<path class="st1" d="M979,692.4c-0.1,0-0.2,0-0.3-0.1c-0.3-0.2-0.3-0.5-0.2-0.8c1-1.4,1.8-2.9,2.5-4.4c1.7-3.7,2.7-7.7,3-11.9
			c0-0.3,0.3-0.6,0.6-0.5c0.3,0,0.6,0.3,0.5,0.6c-0.3,4.4-1.4,8.5-3.1,12.3c-0.7,1.6-1.6,3.1-2.6,4.6
			C979.3,692.3,979.2,692.4,979,692.4L979,692.4z"/>
		<path class="st1" d="M940.5,687.2c-0.1,0-7.5-0.8-7.5-0.8c-0.3,0-0.6-0.3-0.5-0.6c0-0.3,0.3-0.6,0.6-0.5l7.4,0.8
			c0.3,0,0.6,0.3,0.5,0.6C941.1,687,940.8,687.2,940.5,687.2z"/>
		<path class="st1" d="M900.4,541.9c-0.3,0-0.6-0.2-0.6-0.6c-0.1-2,0.1-4.1,0.6-6c0.5-1.9,1.3-3.6,2.3-5.2c0.2-0.3,0.5-0.4,0.8-0.2
			c0.3,0.2,0.4,0.5,0.2,0.8c-1,1.5-1.7,3.1-2.2,4.9c-0.5,1.8-0.7,3.8-0.6,5.7C901,541.6,900.8,541.9,900.4,541.9L900.4,541.9
			L900.4,541.9z"/>
		<path class="st1" d="M895.8,540.3c-0.3,0-0.6-0.2-0.6-0.5c-0.1-1.1-0.1-2.1,0-3.2c0.2-2.4,0.9-4.7,2.1-6.8
			c0.2-0.3,0.5-0.4,0.8-0.2c0.3,0.2,0.4,0.5,0.2,0.8c-1.1,2-1.7,4.1-1.9,6.3c-0.1,1-0.1,2,0,3C896.4,540,896.1,540.3,895.8,540.3
			C895.8,540.3,895.8,540.3,895.8,540.3L895.8,540.3z"/>
		<path class="st1" d="M891.6,537.7c-0.3,0-0.5-0.2-0.6-0.5c-0.2-1.4-0.2-2.9,0-4.3c0.4-2.6,1.5-4.5,2.4-5.7
			c0.2-0.3,0.6-0.3,0.8-0.1c0.3,0.2,0.3,0.6,0.1,0.8c-0.8,1-1.8,2.8-2.2,5.2c-0.2,1.3-0.2,2.6,0,3.9
			C892.2,537.3,892,537.6,891.6,537.7C891.7,537.7,891.6,537.7,891.6,537.7L891.6,537.7z"/>
		<path class="st1" d="M935.1,542.3c-4.5,0-8.9-2.2-11.6-6.2c-3.5-5.2-3.6-12.5-0.1-18.1c0.2-0.3,0.5-0.4,0.8-0.2
			c0.3,0.2,0.4,0.5,0.2,0.8c-3.2,5.2-3.2,12,0.1,16.8c3.8,5.6,11.2,7.3,17.2,3.9c0.3-0.2,0.6-0.1,0.8,0.2c0.2,0.3,0.1,0.6-0.2,0.8
			C940,541.7,937.5,542.3,935.1,542.3L935.1,542.3z"/>
		<path class="st1" d="M917.2,523.8c0.7,0,1.3-1.1,1.3-2.5c0-1.4-0.6-2.5-1.3-2.5c-0.7,0-1.3,1.1-1.3,2.5
			C915.9,522.7,916.5,523.8,917.2,523.8z"/>
		<path class="st7" d="M831.4,662.4c0.1,1.7,0.1,3.4,0.2,5c0.3,9.1,0.7,18.2,1,27.3h13.5c0.1-0.3,0.5-2.9-1.3-5
			c-0.2-0.2-0.4-0.4-0.6-0.5c-1.6-1.5-3.5-1.5-3.8-1.5c1.4-7.2,2.7-14.5,4.1-21.7l0.3-2.5l1.4-10.8l0.7-5.4l0.8-5.8
			c-1.4,0.7-2.9,1.6-4.4,2.7c-0.1,0.1-0.2,0.1-0.3,0.2c-0.3,0.2-0.6,0.5-0.9,0.8c-0.2,0.2-0.5,0.4-0.7,0.6
			c-6.1,5.2-8.6,11.7-9.7,15.5C831.6,661.7,831.5,662.1,831.4,662.4L831.4,662.4z"/>
		<path class="st7" d="M817.2,655c0.1,0.8,0.3,1.6,0.6,2.3c0.6,1.2,1.4,1.9,2.7,2.4c1.8,0.7,4.4,0.8,8.3,1.3
			c0.8,0.1,1.8,0.2,2.8,0.3c2.1,0.3,4.5,0.6,7.2,1.1c1.8,0.3,3.7,0.7,5.9,1.2c0,0,0.1,0,0.1,0c3.4,0.8,6.2,1.6,8.6,2.2
			c6.2,1.8,9.9,3.1,13.7,2.7c1.1-0.1,2.3-0.5,3.6-0.9c0.9-0.4,1.8-0.8,2.5-1.2c5.7-3.3,8.1-8.8,8.5-9.5c2.9-6.8,1.2-13.3-0.3-16.9
			c-0.1-0.1-0.1-0.3-0.2-0.4c-0.5-1.2-0.9-2-1.1-2.3c0,0-0.1-0.1-0.1-0.1c-0.6-0.2-1.2-0.5-1.8-0.7c-2.7-1-6-2-9.8-2.9
			c-0.1-0.1-0.2-0.1-0.3-0.1c-0.3-0.1-0.6-0.1-0.8-0.2c-2-0.5-4.2-0.8-6.5-1.2c-1.2-0.2-2.5-0.4-3.7-0.5c-1.4-0.2-2.8-0.4-4.3-0.5
			c-1.4-0.1-2.9-0.2-4.4-0.2c-1.2,0-2.4,0-3.6,0.1c-1.5,0.1-3,0.3-4.5,0.6c-1.2,0.2-2.4,0.5-3.6,0.9c-1.5,0.5-3,1.1-4.5,1.9
			c-0.6,0.3-1.2,0.7-1.8,1.1c-0.7,0.4-1.4,0.9-2,1.4c-1.9,1.4-3.6,3.1-5.1,4.8C819.5,646,816.9,651.1,817.2,655L817.2,655z"/>
		<path class="st7" d="M881.7,625.2c2.7,3.3,3.8,8.7,1.5,12.5c-2.9,5-9.9,5-15,5c-3.6,0-6.8,0-9.2-2.4c-3.5-3.6-1.9-9.3-1.8-9.7
			c1.2-4.4,4.8-6.5,5.9-7.1C868.3,620.5,877.2,619.6,881.7,625.2L881.7,625.2z"/>
		<path class="st7" d="M880.4,625.6c-0.3-1.6-1.1-4.3-3.3-6.7c-0.3-0.3-3.1-3.2-4.3-2.5c-0.5,0.3-1.2,1.5,0.8,8L880.4,625.6z"/>
		<path class="st7" d="M864.2,625.2c-0.8-0.6-2.8-2-5.5-1.8c-0.8,0-2.7,0.1-3.2,1.1c-0.7,1.3,0.7,3.7,3.6,5.9L864.2,625.2z"/>
		<path class="st8" d="M865.5,632.8c0.1,0.2,0.6-0.2,1.3,0.1c1.1,0.4,1.4,2.1,1.6,2.1c0.2-0.1-0.2-1.6,0.4-2.1
			c0.6-0.5,1.5,0,1.6-0.2c0.1-0.2-1-1.3-2.4-1.3C866.6,631.3,865.4,632.5,865.5,632.8z"/>
		<path class="st8" d="M872.6,628.2c0,1.1,0.4,2,1,2c0.5,0,1-0.9,1-2c0-1.1-0.4-2-1-2C873.1,626.2,872.6,627.1,872.6,628.2z"/>
		<path class="st8" d="M862.2,630c0,1.1,0.4,2,1,2c0.5,0,1-0.9,1-2c0-1.1-0.4-2-1-2C862.7,628,862.2,628.9,862.2,630z"/>
		<path class="st9" d="M879.9,624.8c0.2,0,0.3-0.1,0.4-0.2c0.2-0.2,0.2-0.6-0.1-0.8c-1.1-0.9-2.2-1.5-3.5-2c-1.6-0.6-3.3-0.8-5-0.6
			c-0.3,0-0.5,0.3-0.5,0.6c0,0.3,0.3,0.5,0.6,0.5c1.5-0.1,3.1,0,4.6,0.5c1.1,0.4,2.2,1,3.2,1.8C879.6,624.8,879.8,624.8,879.9,624.8
			L879.9,624.8z"/>
		<path class="st9" d="M858.1,630c0.2,0,0.4-0.1,0.5-0.4c0.3-0.7,0.6-1.4,1.1-2.1c0.6-1,1.4-1.8,2.3-2.5c0.2-0.2,0.3-0.6,0.1-0.8
			c-0.2-0.2-0.6-0.3-0.8-0.1c-1,0.8-1.9,1.8-2.6,2.8c-0.5,0.7-0.9,1.5-1.2,2.3c-0.1,0.3,0,0.6,0.3,0.7C857.9,630,858,630,858.1,630
			L858.1,630z"/>
		<path class="st8" d="M871.2,637.3c0.3,0,0.5-0.2,0.6-0.5c0-0.3-0.2-0.6-0.5-0.6c-0.3,0-0.8-0.1-1.3-0.4c-0.7-0.5-1.1-1.2-1.2-1.6
			c-0.1-0.3-0.4-0.5-0.7-0.4c-0.3,0.1-0.5,0.4-0.4,0.7c0.2,0.5,0.6,1.5,1.6,2.2C869.9,637,870.5,637.2,871.2,637.3
			C871.2,637.3,871.2,637.3,871.2,637.3L871.2,637.3z"/>
		<path class="st8" d="M866.1,637.3c0.1,0,0.1,0,0.2,0c0.4-0.2,1.3-0.6,1.9-1.5c0.6-0.9,0.7-1.9,0.6-2.4c0-0.3-0.3-0.6-0.6-0.5
			c-0.3,0-0.6,0.3-0.5,0.6c0,0.3,0,1-0.4,1.7c-0.4,0.7-1,1-1.3,1.1c-0.3,0.1-0.4,0.4-0.3,0.7C865.6,637.1,865.8,637.3,866.1,637.3z"
			/>
		<path class="st7" d="M878,694.8h12.1c0.6-1,1.2-2.3,0.7-3.5c-0.9-2.1-4.7-0.9-6.8-2.4c-0.2-0.1-0.3-0.3-0.5-0.5
			c-0.5-0.5-0.8-1.3-0.9-2.3c-0.1-0.9-0.1-2,0.1-3.3c0.1-1,0.3-2.1,0.6-3.3c0.2-0.8,0.4-1.6,0.6-2.5c0.2-1,0.5-2,0.7-3.1
			c1.3-5.4,2.7-11.7,2.5-18.3c-0.2-7.1-2.1-13.1-4.2-17.7c-0.3-0.8-0.7-1.5-1-2.1c-0.2,1.2-0.5,2.4-0.8,3.6
			c-0.1,0.3-0.1,0.5-0.2,0.7c-1.3,5-3.1,8.8-4.7,11.5c-2,3.5-4.9,7.3-4.1,11.9c0.2,1.1,0.5,2,0.9,2.8c0.2,0.5,0.5,0.9,0.7,1.2
			c-0.9,1.6-1.6,3-2,4.4C868.8,682.6,876.4,692.7,878,694.8L878,694.8z"/>
		<path class="st7" d="M842.7,694.8c0,0,12.2,0,12.2,0c2.7-5.7,5.4-11.4,8.1-17.2c1.4-3,2.8-6.1,4.2-9.1c0.4-0.9,0.8-1.9,1.3-2.8
			c-0.8-1-2-2.8-2.6-5.3c-1.8-7,3.1-12.8,2.9-17.7c0-0.8-0.2-1.7-0.6-2.5c-0.1-0.2-0.2-0.4-0.3-0.6c0-0.1-0.1-0.1-0.1-0.2
			c-0.7-1-1.9-2.4-4.1-3.6c-0.3,0.8-0.6,1.6-0.9,2.4c-0.2,0.6-0.5,1.2-0.7,1.8c-0.2,0.6-0.4,1.1-0.6,1.7c-1.7,4.5-3.3,9.2-4.9,14.1
			c-1.1,3.4-2.1,6.7-3.1,10c-0.5,1.7-1,3.4-1.5,5c-0.3,0.9-0.5,1.8-0.8,2.7c-0.2,0.7-0.4,1.3-0.5,1.9c-0.3,0.9-0.5,1.9-0.8,2.8
			c-0.3,1.1-0.6,2.2-0.8,3.4c-0.3,0.9-0.5,1.9-0.7,2.8c-0.4,1.6-0.8,3.2-1.1,4.8c-1.1-0.3-2.1-0.2-3,0.1c-1.1,0.4-1.9,1.1-2.2,2.1
			C841.5,693,842.5,694.6,842.7,694.8L842.7,694.8z"/>
		<path class="st7" d="M848.3,648.4c-1.5,3.7-5.2,11.6-13.6,17.2c-3.2,2.1-6.3,3.4-8.8,4.2c-1.6-1.7-4.8-5.7-5.4-11.3
			c-0.9-8.2,4.2-16.7,12.9-21.3L848.3,648.4z"/>
		<path class="st7" d="M813.9,680.5c0,0.6,0.1,1.1,0.1,1.6c0.2,1.8,0.4,3.6,0.7,5.2c0.5,2.8,1,5.3,1.6,7.7h13.5
			c0.1-0.3,0.5-2.9-1.3-5c-1.7-2-4-2-4.4-2c1.2-6.3,2.3-12.5,3.6-18.8c0.2-0.9,0.4-1.9,0.5-2.8l0.7-5.4l2.2-17.3l0.2-1.9
			c-0.9,0.5-2,1.1-3,1.8c-1,0.7-2.1,1.5-3.3,2.4c-1,0.8-2,1.7-2.8,2.6c-2.2,2.2-3.8,4.5-5,6.3c-0.8,2.3-1.4,4.5-2,6.9
			c-0.3,1.4-0.6,2.7-0.8,4c-0.3,2-0.6,4.1-0.7,6c-0.1,0.9-0.1,1.7-0.1,2.6C813.7,676.5,813.7,678.6,813.9,680.5L813.9,680.5z"/>
		<path class="st7" d="M798.3,614.6c0.1,0.9,0.3,1.7,0.5,2.5c0.8,3,2.1,5.2,2.5,6c0.1,0.2,0.2,0.2,0.2,0.3c0.6,0.8,1.2,1.7,1.8,2.4
			c1.2,1.6,2.4,2.9,3.6,4.1c0.8,0.9,1.6,1.7,2.3,2.3c1.8,1.8,3.3,3,4.1,3.6c0.5,0.4,0.7,0.5,0.7,0.5c0.8,0.6,1.8,1.3,2.9,2
			c1.4,0.8,3,1.7,4.8,2.6c0.5,0.2,0.9,0.5,1.5,0.7c0.9,0.4,1.8,0.8,2.8,1.1c0.7,0.3,1.4,0.6,2.2,0.8c0.7,0.3,1.4,0.5,2.1,0.7
			l0.7-0.6l1.7-1.5l2.4-2.1l0.8-0.8l0.2-0.1c-0.2,0-0.3-0.1-0.5-0.1c-0.1,0-0.3,0-0.4-0.1c-1-0.2-2-0.4-3-0.7
			c-0.2,0-0.3-0.1-0.5-0.1c-1.3-0.4-2.4-0.8-3.4-1.3c-1.8-0.8-3.2-1.6-4.5-2.4c-0.7-0.5-1.3-0.9-1.8-1.3c-0.7-0.5-1.3-1-2-1.7
			c-1.5-1.3-2.8-2.7-4.2-4.2c-0.9-1-1.8-2-2.6-3.1c-1.1-1.4-2.2-2.7-3.2-4.1c-0.8-1-1.6-2-2.3-3c-1-1.3-2-2.5-2.8-3.5
			c-1.2-1.3-2.2-2.3-3.1-2.8c-0.4-0.2-0.7-0.3-1-0.4c-0.3-0.1-1.2-0.2-1.9,0.3C798.5,611.2,798.1,612.3,798.3,614.6L798.3,614.6z"/>
		<path class="st10" d="M879.4,678.3c0.3,0.5,2.2-0.1,4.6-1.1c0.2-1,0.5-2,0.7-3.1c-1.3,0.2-2.8,0.8-4,2
			C880.2,676.5,879.1,677.8,879.4,678.3z"/>
		<path class="st10" d="M879.4,683.5c0.3,0.4,1.6,0.1,3.5-0.6c0.1-1,0.3-2.1,0.6-3.3c-0.9,0.3-1.9,0.8-2.7,1.7
			C880.2,681.8,879.1,683,879.4,683.5z"/>
		<path class="st10" d="M881,688.9c0.3,0.4,1.2,0.2,2.7-0.3c-0.5-0.5-0.8-1.3-0.9-2.3c-0.2,0.1-0.3,0.2-0.5,0.4
			C881.8,687.1,880.6,688.4,881,688.9L881,688.9z"/>
		<path class="st10" d="M851.2,673.6c0.3,0.1,0.6,0.2,1,0.3c0.7,0.1,2.4,0.4,2.6-0.2c0.2-0.5-1-1.5-2.8-2.8
			C851.7,671.8,851.4,672.7,851.2,673.6L851.2,673.6z"/>
		<path class="st10" d="M817,638.4c1.4,0.8,3,1.7,4.8,2.6c1.2-1.5,2.1-3.6,2.1-6.5c-0.7-0.5-1.3-0.9-1.8-1.3c-0.7-0.5-1.3-1-2-1.7
			C819.2,633.2,818.1,635.6,817,638.4z"/>
		<path class="st10" d="M809.3,632.3c1.8,1.8,3.3,3,4.1,3.6c1.4-1.6,2.7-3.9,2.7-7.3c0-0.3,0-0.8-0.1-1.4c-0.9-1-1.8-2-2.6-3.1
			C812.2,625.5,810.7,628.6,809.3,632.3L809.3,632.3z"/>
		<path class="st10" d="M803.4,625.8c1.2,1.6,2.4,2.9,3.6,4.1c1.6-1.5,3.4-4.1,3.4-8c0-0.5,0-1.1-0.1-1.9c-0.8-1-1.6-2-2.3-3
			C806.7,618.3,805.1,621.7,803.4,625.8z"/>
		<path class="st10" d="M798.9,617.2c0.8,3,2.1,5.2,2.5,6c1.7-1.5,3.7-4.1,3.8-8.4c0-0.3,0-0.7,0-1.1c-1.2-1.3-2.2-2.3-3.1-2.8
			C801.1,612.2,800,614.5,798.9,617.2L798.9,617.2z"/>
		<path class="st10" d="M813.9,671.9c0.8,0.3,1.6,0.5,2.5,0.7c1.3,0.2,4.7,0.6,5.2-0.5c0.5-1.1-2.6-3.5-7-6.2
			C814.2,667.9,814,669.9,813.9,671.9L813.9,671.9z"/>
		<path class="st10" d="M813.9,680.5c0.4,0.1,0.8,0.2,1.2,0.3c1.3,0.2,4.7,0.6,5.2-0.5c0.5-1.1-2.3-3.3-6.5-5.9
			C813.7,676.5,813.7,678.6,813.9,680.5z"/>
		<path class="st10" d="M814,682.2c0.2,1.8,0.4,3.6,0.7,5.2c0.3,0,0.6-0.1,0.9-0.1c1.3-0.3,4.6-1.1,4.7-2.3
			C820.2,683.9,817.7,683,814,682.2z"/>
		<path class="st10" d="M849.9,678.3c0.4,0.2,0.9,0.4,1.4,0.5c0.7,0.2,2.4,0.4,2.6-0.2c0.2-0.6-1.2-1.7-3.2-3.1
			C850.4,676.4,850.2,677.3,849.9,678.3z"/>
		<path class="st10" d="M848.4,684.4c0.4,0.2,0.8,0.3,1.3,0.4c0.7,0.1,2.4,0.4,2.6-0.2c0.2-0.6-1.1-1.7-3.2-3.1
			C848.8,682.6,848.6,683.5,848.4,684.4z"/>
		<path class="st11" d="M881.2,630.3c0.5-0.1,2.1,3.4,1.1,6.8c-0.1,0.4-1.1,3.4-3.9,4.5c-1.1,0.4-2.5,0.5-2.6,0.2
			c-0.2-0.5,1.9-1.2,3.4-3C882,635.3,880.6,630.4,881.2,630.3z"/>
		<path class="st11" d="M867.7,642.5c0,0.5-3.6,1.7-6.9,0.2c-0.4-0.2-3.3-1.5-4-4.4c-0.3-1.1-0.2-2.5,0.2-2.6c0.5-0.1,1,2,2.6,3.7
			C862.6,642.8,867.7,641.9,867.7,642.5z"/>
		<path class="st10" d="M848.8,640.5c0.8,4,2.2,7.9,2.6,7.9c0.4-0.1-0.4-3.3-0.4-7.3c0.1-4,0.9-7.4,1.8-9.9
			c-1.4-0.1-2.9-0.2-4.4-0.2C848.2,633.5,848.1,636.8,848.8,640.5z"/>
		<path class="st10" d="M840.8,640.5c0.2,1,0.4,2,0.7,2.9c0.2,0.7,0.3,1.3,0.5,1.9c0.6,1.9,1.2,3.1,1.5,3.1c0.2-0.1,0-1.5-0.2-3.6
			c0-0.1,0-0.3,0-0.4c-0.1-0.9-0.1-2-0.1-3.2c0-4,0.9-7.5,1.8-10c-1.5,0.1-3,0.3-4.5,0.6C840.3,634.1,840.2,637.1,840.8,640.5
			L840.8,640.5z"/>
		<path class="st10" d="M832.3,634.4c0,1.1-0.1,2.2,0,3.5c0,0.1,0,0.3,0,0.4c0.1,1.2,0.2,2.4,0.4,3.6c0,0.1,0,0.2,0.1,0.3
			c0.8,4,2.2,7.7,2.6,7.6c0.4-0.1-0.4-3.3-0.4-7.3c0-0.8,0-1.7,0.1-2.5c0-0.4,0.1-0.7,0.1-1.1c0-0.1,0-0.1,0-0.2
			c0.3-2.4,0.9-4.5,1.5-6.3C835.3,633,833.8,633.6,832.3,634.4L832.3,634.4z"/>
		<path class="st8" d="M866,670.4c0.1,0,0.3,0,0.4-0.1l2.7-2.5c0.2-0.2,0.2-0.6,0-0.8c-0.2-0.2-0.6-0.2-0.8,0l-2.7,2.5
			c-0.2,0.2-0.2,0.6,0,0.8C865.7,670.3,865.9,670.4,866,670.4L866,670.4z"/>
		<path class="st8" d="M874.2,668.8c0.1,0,0.2,0,0.2,0c0.3-0.1,0.4-0.5,0.3-0.8l-1.8-4c-0.1-0.3-0.5-0.4-0.8-0.3
			c-0.3,0.1-0.4,0.5-0.3,0.8l1.8,4C873.8,668.6,874,668.8,874.2,668.8z"/>
		<path class="st8" d="M851.8,665.7c0.2,0,0.4-0.1,0.5-0.3c0.2-0.3,0.1-0.6-0.2-0.8c-1.6-1.1-5-2.9-9.5-2.5c-3.1,0.3-5.5,1.5-7,2.5
			c-0.3,0.2-0.3,0.5-0.2,0.8c0.2,0.3,0.5,0.3,0.8,0.2c1.3-0.9,3.6-2,6.4-2.3c4.1-0.3,7.2,1.3,8.7,2.3
			C851.6,665.6,851.7,665.7,851.8,665.7L851.8,665.7z"/>
		<path class="st8" d="M837.4,663.1c0.2,0,0.4-0.1,0.5-0.3c1.7-2.7,4.3-8.2,3-15c-0.5-2.6-1.5-5-3-7.3c-0.2-0.3-0.5-0.3-0.8-0.2
			c-0.3,0.2-0.3,0.5-0.2,0.8c1.4,2.1,2.4,4.4,2.8,6.8c1.2,6.4-1.3,11.6-2.9,14.2c-0.2,0.3-0.1,0.6,0.2,0.8
			C837.2,663,837.3,663.1,837.4,663.1L837.4,663.1z"/>
		<path class="st10" d="M883,691.2c0.1,0,3.6-0.5,3.6-0.5c0.3,0,0.5-0.3,0.5-0.7c0-0.3-0.3-0.5-0.7-0.5l-3.5,0.5
			c-0.3,0-0.5,0.3-0.5,0.7C882.5,691,882.7,691.2,883,691.2z"/>
		<path class="st8" d="M842.7,695.4c0.1,0,0.3,0,0.4-0.1c0.2-0.2,0.3-0.6,0.1-0.8c-0.1-0.1-0.9-1.1-0.6-2.4c0.3-1.5,1.8-2.1,1.8-2.1
			c0.3-0.1,0.4-0.4,0.3-0.7c-0.1-0.3-0.4-0.4-0.7-0.3c-0.2,0.1-2.1,0.9-2.6,3c-0.4,1.8,0.7,3.2,0.9,3.4
			C842.3,695.3,842.5,695.4,842.7,695.4z"/>
		<path class="st12" d="M665.6,657.1c2.4,1.1,7.6,3.8,9.6,9.4c1.1,3,1.5,7.7-0.2,8.6c-1.5,0.8-4.2-1.5-6-3c-3.5-3-5.5-6.3-6.7-8.9
			L665.6,657.1z"/>
		<path class="st12" d="M649.5,658.4c-0.9,3.9,0.1,9.3,4.1,12c2.2,1.4,6.2,2.7,9.2,0.6c1.9-1.3,2.5-3.4,2.8-4.2
			c0.9,0.5,2.2,1,3.1,0.5c2.2-1.3,1.8-8.9-2.5-13.4c-0.4-0.4-5.3-5.3-10.7-3.3C650.9,652.2,649.7,657.5,649.5,658.4z"/>
		<path class="st12" d="M653.3,653.2c-3.4-1-14.4,13.2-9.8,23.4c0.1,0.3,2.6,5.7,5.6,5.5c4.7-0.4,8.1-14.1,5.9-25
			C654.3,653.6,653.6,653.3,653.3,653.2L653.3,653.2z"/>
		<path class="st12" d="M649.1,660.9c-0.9-0.6-7.3-4.9-14.5-2.5c-8.9,3-10.8,13.2-11.1,15c-1.9,11.3,6.5,19.5,7.2,20.2h28.8
			c3.3-8,6.7-16.1,10-24.1L649.1,660.9L649.1,660.9z"/>
		<path class="st12" d="M653.8,689.8c0.1,0,2.9-0.6,4.7,1.3c0.8,0.9,1,2,1.1,2.5H652l-5.6-9.8L653.8,689.8L653.8,689.8z"/>
		<path class="st12" d="M660.1,689.8c0.1,0,2.9-0.6,4.7,1.3c0.8,0.9,1,2,1.1,2.5h-7.6c-1.9-3.3-3.7-6.5-5.6-9.8L660.1,689.8
			L660.1,689.8z"/>
		<path class="st12" d="M629.2,690.4c-0.7,0-8.6,0.3-9.3-2.3c-0.3-1.3,1.1-3,2.8-3.6c2.1-0.8,4.7,0.2,6,2.5L629.2,690.4z"/>
		<path class="st8" d="M647.8,692.7c-0.2,0-0.4-0.1-0.5-0.2c-0.6-0.6-1.3-1.1-2.1-1.5c-1-0.5-2-0.8-3.1-0.9c-0.3,0-0.5-0.2-0.6-0.4
			c-0.1-0.2-0.1-0.5,0-0.7c2.4-3.9,2.3-8.9-0.3-12.5c-2.4-3.4-6.7-5.1-10.9-4.4c-0.4,0.1-0.8-0.2-0.9-0.6c-0.1-0.4,0.2-0.8,0.6-0.9
			c4.7-0.8,9.6,1.1,12.3,4.9c2.8,3.8,3.1,9,0.9,13.2c0.9,0.2,1.7,0.5,2.5,0.9c0.9,0.5,1.7,1,2.5,1.7c0.3,0.3,0.3,0.8,0,1
			C648.2,692.6,648,692.7,647.8,692.7L647.8,692.7z"/>
		<path class="st8" d="M656.4,689.8c-0.1,0-0.1,0-0.2,0c-0.4-0.1-0.7-0.5-0.6-0.9l3.2-14.7c0.1-0.4,0.5-0.7,0.9-0.6
			c0.4,0.1,0.7,0.5,0.6,0.9l-3.2,14.7C657,689.5,656.7,689.8,656.4,689.8L656.4,689.8z"/>
		<path class="st8" d="M659.8,693.3c-0.3,0-0.6-0.2-0.7-0.5c-0.1-0.3-0.3-0.6-0.4-0.9c-0.9-1.4-2.6-1.7-3.2-1.8
			c-1.1-0.1-2,0.1-2.6,0.4c-0.4,0.1-0.8,0-1-0.4c-0.2-0.4,0-0.8,0.4-1c1.1-0.5,2.3-0.6,3.4-0.5c0.9,0.1,3,0.5,4.3,2.4
			c0.3,0.4,0.5,0.8,0.6,1.2c0.1,0.4-0.1,0.8-0.5,0.9C660,693.3,659.9,693.3,659.8,693.3L659.8,693.3z"/>
		<path class="st8" d="M658.7,672.7c-0.5,0-0.9,0-1.4-0.1c-0.4-0.1-0.7-0.5-0.6-0.9c0.1-0.4,0.5-0.7,0.9-0.6
			c1.8,0.4,3.7-0.2,4.8-1.6c1.4-1.7,1-3.7,0.9-4.1c-0.1-0.4,0.2-0.8,0.6-0.9c0.4-0.1,0.8,0.2,0.9,0.6c0.1,0.5,0.5,3.1-1.2,5.3
			C662.4,671.8,660.6,672.6,658.7,672.7L658.7,672.7z"/>
		<path class="st8" d="M669,672.1c-0.9-0.1-2.5-0.6-3.6-2c-0.5-0.6-0.9-1.4-1.1-2.3c-0.1-0.4,0.1-0.8,0.5-0.9
			c0.4-0.1,0.8,0.1,0.9,0.5c0.2,0.6,0.4,1.2,0.8,1.7c0.9,1.1,2.1,1.4,2.6,1.5c0.4,0.1,0.7,0.4,0.6,0.9
			C669.7,671.8,669.4,672.1,669,672.1L669,672.1z"/>
		<path class="st8" d="M669.5,670.8c-0.1,0-0.1,0-0.2,0c-0.4-0.1-0.6-0.5-0.6-0.9c0.1-0.5,0.2-1,0.3-1.6c0.3-2.5,0.1-5.1-0.8-7.7
			c-0.1-0.4,0.1-0.8,0.5-0.9c0.4-0.1,0.8,0.1,0.9,0.5c0.9,2.8,1.2,5.6,0.9,8.4c-0.1,0.6-0.2,1.2-0.3,1.8
			C670.2,670.6,669.8,670.8,669.5,670.8L669.5,670.8z"/>
		<path class="st8" d="M649.6,677.2c-4.1,0-6.2-5.4-6.5-6c-1.5-4.1,0-7.9,0.7-9.3c0.2-0.4,0.6-0.5,1-0.3c0.4,0.2,0.5,0.6,0.3,1
			c-0.6,1.3-2,4.6-0.6,8.2c0.7,1.8,2.6,5,5.1,5c1,0,2.5-0.5,4-2.9c2.2-3.3,1.3-7.4,0.6-10.5c-0.5-2.3-1.4-4.6-2.6-6.7
			c-0.2-0.4-0.1-0.8,0.3-1c0.4-0.2,0.8-0.1,1,0.3c1.3,2.3,2.2,4.7,2.7,7.1c0.7,3.1,1.7,7.8-0.8,11.6
			C653,676.6,651,677.2,649.6,677.2L649.6,677.2L649.6,677.2z"/>
		<path class="st8" d="M666.1,663.2c0.3,1.3-1.6,2.5-2,2.3c-0.4-0.2,0.3-1.4-0.3-2c-0.6-0.6-1.8,0-2-0.2c-0.1-0.3,0.9-1.3,2.1-1.3
			C664.8,661.9,665.9,662.3,666.1,663.2L666.1,663.2z"/>
		<path class="st8" d="M659.6,659.1c0,1.1-0.5,1.9-1.1,1.9c-0.6,0-1.1-0.9-1.1-1.9c0-1.1,0.5-1.9,1.1-1.9
			C659.1,657.2,659.6,658.1,659.6,659.1z"/>
		<path class="st8" d="M666.9,658.6c0,1.1-0.5,1.9-1.1,1.9c-0.6,0-1.1-0.9-1.1-1.9c0-1.1,0.5-1.9,1.1-1.9
			C666.4,656.7,666.9,657.6,666.9,658.6z"/>
		<g>
			<path class="st6" d="M930.3,187c-0.4,0-0.3-5.6-2.6-12.7c-1.4-4.2-2.2-6.8-5-9.1c-3.9-3.3-9-3.8-11.4-4c1.9-0.6,4.7-1.8,7.3-4
				c3.7-3.2,4.7-6.9,5.7-10.8c0.7-2.6,1.4-6.3,1.1-11c0-0.8,0.6,11.5,9,17.7c4,2.9,8.8,3.7,11.7,4c-2.8,0.7-7.6,2.4-10.6,6.2
				c-1.3,1.7-2.2,3.3-2.9,7.6C931.1,180.1,930.7,187,930.3,187L930.3,187z"/>
			<path class="st6" d="M868,145.7c-0.2,0-0.1-3.1-1.4-7.1c-0.8-2.3-1.3-3.8-2.8-5.1c-2.2-1.8-5-2.1-6.4-2.2c1-0.3,2.6-1,4.1-2.2
				c2-1.8,2.6-3.8,3.2-6c0.4-1.4,0.8-3.5,0.6-6.1c0-0.4,0.3,6.4,5,9.9c2.2,1.6,4.9,2.1,6.5,2.2c-1.6,0.4-4.2,1.3-5.9,3.5
				c-0.7,0.9-1.2,1.9-1.6,4.2C868.5,141.9,868.3,145.7,868,145.7z"/>
		</g>
		<g>
			<path class="st6" d="M479.3,451.3c-0.3,0-0.2-5.1-1.9-11.5c-1-3.8-1.7-6.1-3.8-8.2c-2.9-2.9-6.8-3.5-8.6-3.6
				c1.4-0.5,3.6-1.6,5.5-3.6c2.8-2.9,3.5-6.2,4.3-9.8c0.5-2.3,1.1-5.7,0.8-10c0-0.7,0.4,10.4,6.8,16c3,2.6,6.6,3.4,8.8,3.6
				c-2.1,0.7-5.7,2.2-8,5.6c-1,1.5-1.7,3-2.2,6.9C479.9,445.2,479.6,451.3,479.3,451.3z"/>
			<path class="st6" d="M518.3,482c-0.1,0-0.1-2.6-1-6c-0.5-2-0.9-3.2-2-4.3c-1.5-1.5-3.6-1.8-4.5-1.9c0.7-0.3,1.9-0.8,2.9-1.9
				c1.4-1.5,1.8-3.2,2.3-5.1c0.3-1.2,0.6-3,0.4-5.2c0-0.4,0.2,5.4,3.6,8.3c1.6,1.4,3.5,1.8,4.6,1.9c-1.1,0.3-3,1.1-4.2,2.9
				c-0.5,0.8-0.9,1.6-1.2,3.6C518.6,478.8,518.5,482,518.3,482L518.3,482z"/>
		</g>
		<path class="st13" d="M186.7,481.1c0,0,2.2-23.9-12.4-54.2c-14.5-30.3-37.8-29.6-44.1-16.7c-6.3,12.9,5.6,24.8,13.4,31.6
			C151.4,448.6,174.7,461.3,186.7,481.1L186.7,481.1z"/>
		<path class="st13" d="M160.9,506.4c0,0-12.6-35.9-32.5-55.2c-19.8-19.3-45.1,1-37.2,19.1C99.2,488.5,140.5,486.1,160.9,506.4z"/>
		<path class="st8" d="M229.2,625.5c-0.4,0.1-0.9-0.2-1-0.6c-12.6-35.9-28.7-67.4-48-93.7c-21.8-29.8-48.7-54-77.7-70.1
			c-0.5-0.2-0.6-0.8-0.4-1.3c0.3-0.5,0.8-0.6,1.3-0.4c29.3,16.2,56.4,40.7,78.3,70.7c18,24.5,33.3,53.6,45.5,86.5
			c-9-70.5-35.9-137.9-77.9-195.3c-0.3-0.4-0.2-1,0.2-1.3c0.4-0.3,1-0.2,1.3,0.2c43.8,59.9,71.2,130.5,79.2,204.2
			C230,625,229.7,625.4,229.2,625.5C229.2,625.5,229.2,625.5,229.2,625.5L229.2,625.5z"/>
		<path class="st13" d="M1215.6,445.3c0,0-4.8-18.2,2.6-43.6c7.3-25.4,25.5-27.8,32-18.7c6.6,9.2-1.1,20-6.3,26.2
			C1238.8,415.5,1222.4,428.4,1215.6,445.3z"/>
		<path class="st13" d="M1221.3,453.1c0,0,16.5-24.9,35.4-35.7c18.8-10.9,34.2,9.4,24.6,21.8
			C1271.7,451.5,1240.7,441.7,1221.3,453.1L1221.3,453.1z"/>
		<path class="st8" d="M1210.7,478.4L1210.7,478.4c-0.5,0-1-0.4-1-1c0-30.1,18.2-72.1,18.4-72.5c0.2-0.5,0.8-0.7,1.3-0.5
			c0.5,0.2,0.7,0.8,0.5,1.3c-0.2,0.4-14.2,32.7-17.5,60.7c4.4-11.1,15.9-27.7,46.7-34.9c0.5-0.1,1,0.2,1.1,0.7
			c0.1,0.5-0.2,1-0.7,1.1c-46.7,10.9-47.8,43.7-47.8,44.1C1211.7,478,1211.2,478.4,1210.7,478.4L1210.7,478.4z"/>
		<path class="st14" d="M978.5,499.9h-5.9v178.2h5.9V499.9z"/>
		<path class="st14" d="M1009.3,499.9h-5.9v178.2h5.9V499.9z"/>
		<path class="st14" d="M1040.2,499.9h-5.9v178.2h5.9V499.9z"/>
		<path class="st14" d="M1071,499.9h-5.9v178.2h5.9V499.9z"/>
		<path class="st14" d="M1101.8,499.9h-5.9v178.2h5.9V499.9z"/>
		<path class="st14" d="M1132.7,499.9h-5.9v178.2h5.9V499.9z"/>
		<path class="st14" d="M1163.5,499.9h-5.9v178.2h5.9V499.9z"/>
		<path class="st14" d="M1194.3,499.9h-5.9v178.2h5.9V499.9z"/>
		<path class="st7" d="M1222.1,475.8H957v8.1h265V475.8z"/>
		<path class="st12" d="M1222.1,483.9H957v16h265V483.9z"/>
		<path class="st1" d="M1222.1,483.9H957v8h265V483.9z"/>
		<path class="st12" d="M969.2,499.9h-5.9v178.2h5.9V499.9z"/>
		<path class="st12" d="M1000,499.9h-5.9v178.2h5.9V499.9z"/>
		<path class="st12" d="M1030.9,499.9h-5.9v178.2h5.9V499.9z"/>
		<path class="st12" d="M1061.7,499.9h-5.9v178.2h5.9V499.9z"/>
		<path class="st12" d="M1092.5,499.9h-5.9v178.2h5.9V499.9z"/>
		<path class="st12" d="M1123.3,499.9h-5.9v178.2h5.9V499.9z"/>
		<path class="st12" d="M1154.2,499.9h-5.9v178.2h5.9V499.9z"/>
		<path class="st12" d="M1185,499.9h-5.9v178.2h5.9V499.9z"/>
		<path class="st12" d="M1215.8,499.9h-5.9v178.2h5.9V499.9z"/>
		<path class="st12" d="M956.5,694.1h265v-16h-265V694.1z"/>
		<path class="st7" d="M1164.4,380.4h-128.9v95.4h128.9V380.4z"/>
		<path class="st15" d="M1143.2,385.2h-102.4v84.9h102.4V385.2z"/>
		<path class="st1" d="M1061.6,388.2h-4.2v79.1h4.2V388.2z"/>
		<path class="st1" d="M1084.4,388.2h-4.2v79.1h4.2V388.2z"/>
		<path class="st1" d="M1107.1,388.2h-4.2v79.1h4.2V388.2z"/>
		<path class="st1" d="M1129.8,388.2h-4.2v79.1h4.2V388.2z"/>
		<path class="st1" d="M1146.6,473.2h-105.2v-88.4h105.2V473.2z M1048,467.3h92.1v-76.4H1048V467.3z"/>
		<path class="st16" d="M1179.8,380.4h-23.5v95.4h23.5V380.4z"/>
		<path class="st17" d="M1084.4,384.9h-42.9v16h42.9V384.9z"/>
		<path class="st7" d="M457.5,532.1H219.8v6h237.6V532.1z"/>
		<path class="st12" d="M457.5,538.2H219.8V550h237.6V538.2z"/>
		<path class="st1" d="M457.5,538.2H219.8v5.9h237.6V538.2z"/>
		<path class="st12" d="M230.7,550h-5.3v132.2h5.3V550z"/>
		<path class="st12" d="M258.4,550h-5.3v132.2h5.3V550z"/>
		<path class="st12" d="M286,550h-5.3v132.2h5.3V550z"/>
		<path class="st12" d="M313.7,550h-5.3v132.2h5.3V550z"/>
		<path class="st12" d="M341.3,550H336v132.2h5.3V550z"/>
		<path class="st12" d="M368.9,550h-5.3v132.2h5.3V550z"/>
		<path class="st12" d="M396.6,550h-5.3v132.2h5.3V550z"/>
		<path class="st12" d="M424.2,550h-5.3v132.2h5.3V550z"/>
		<path class="st12" d="M451.8,550h-5.3v132.2h5.3V550z"/>
		<path class="st12" d="M219.3,694.1h237.6v-11.9H219.3V694.1z"/>
		<path class="st14" d="M239.1,550h-5.3v132.2h5.3V550z"/>
		<path class="st14" d="M266.7,550h-5.3v132.2h5.3V550z"/>
		<path class="st14" d="M294.4,550h-5.3v132.2h5.3V550z"/>
		<path class="st14" d="M322,550h-5.3v132.2h5.3V550z"/>
		<path class="st14" d="M349.7,550h-5.3v132.2h5.3V550z"/>
		<path class="st14" d="M377.3,550H372v132.2h5.3V550z"/>
		<path class="st14" d="M404.9,550h-5.3v132.2h5.3V550z"/>
		<path class="st14" d="M432.6,550h-5.3v132.2h5.3V550z"/>
		<g>
			<defs>
				<rect id="SVGID_00000119831865613811325790000010030918819228777365_" x="561" y="613.8" width="48" height="81.6"/>
			</defs>
			<clipPath id="SVGID_00000149340980034180679040000005916951324947464067_">
				<use xlink:href="#SVGID_00000119831865613811325790000010030918819228777365_"  style="overflow:visible;"/>
			</clipPath>
			<g style="clip-path:url(#SVGID_00000149340980034180679040000005916951324947464067_);">
				<path class="st19" d="M569.5,623c1.3-1,4.6-3.1,8.9-3.1c1.5,0,2.7,0.2,3.7,0.5c-0.1-0.3-0.5-2.7,1.1-4.5c1-1.1,2.3-1.4,2.7-1.5
					c0.7-0.4,1.5-0.9,1.9-0.6c0.6,0.4,0.3,1.7,0.1,2.7c-0.2,1.1-0.1,3.1,0.9,6.5c0.4,1,2.1,6-0.4,11.6c-2.5,5.6-7.3,7.6-8.3,8
					c-1.2,0.1-7.2,0.3-12.3-4.3c-4.3-3.9-5.2-8.7-5.4-10.1c-0.4-0.8-0.8-1.9-1.1-3.3c-0.3-1.5-0.9-4.5,0.2-5.4
					C562.7,618.6,566,620,569.5,623z"/>
				<path class="st19" d="M565,630.8c0,2.3-0.1,6-0.6,10.5c-0.8,7.7-1.8,9.7-2,14.8c-0.2,5.3,1,6.9,2,14.8c1,8.2,1.4,14.9,1.7,19.3
					c-1.2-0.1-2.4,0.5-3,1.6c-0.5,1-0.4,2.2,0.2,3.1h8c1.4-9.6,2.8-19.2,4.1-28.8c8.6-13.4,7.9-27.3,1.2-32.7
					C575.5,632.5,572,630,565,630.8z"/>
				<path class="st19" d="M575.5,690.9c-1.2-1.7-3.6-2-5-0.8c-1.4,1.1-1.7,3.3-0.6,4.8c2.6,0,5.3,0,7.9-0.1
					c6.6-11.1,8.7-20.7,9.3-26.8c0.6-5.1,1.4-12.7-2.4-14.9c-2.5-1.5-6.9-0.6-9.6,1.9c-4.3,4-2.5,10.2-3.2,32.3
					c-0.1,2.1-0.2,3.8-0.2,4.9L575.5,690.9z"/>
				<path class="st19" d="M587.9,628.5c4.6,13.2,9.7,23.3,13.7,30.3c4.4,7.7,7.9,12.6,7.3,19.3c-0.6,7.8-6.2,13.6-10.4,17
					c-7.4-0.1-14.9-0.1-22.3-0.2c0.6-22.6,1.2-45.2,1.7-67.8L587.9,628.5L587.9,628.5z"/>
				<path class="st8" d="M574.4,626.3c0,0.8-0.5,1.5-1.2,1.5c-0.7,0-1.2-0.7-1.2-1.5c0-0.8,0.5-1.5,1.2-1.5
					C573.9,624.8,574.4,625.5,574.4,626.3z"/>
				<path class="st8" d="M583.9,624.1c0,0.8-0.5,1.5-1.2,1.5c-0.7,0-1.2-0.7-1.2-1.5s0.5-1.5,1.2-1.5
					C583.4,622.6,583.9,623.3,583.9,624.1z"/>
				<path class="st8" d="M580.6,627.1c0,0.1-0.3,0-0.6,0.2c-0.5,0.4-0.1,1.6-0.3,1.6c-0.1,0-0.3-0.4-0.7-0.9
					c-0.7-0.7-1.4-0.7-1.5-0.9c0-0.3,0.8-0.7,1.6-0.7C579.9,626.4,580.7,626.9,580.6,627.1L580.6,627.1z"/>
				<path class="st8" d="M578.9,630.6c-0.2,0-0.4-0.1-0.5-0.3c-0.1-0.3,0-0.6,0.3-0.7c0.1-0.1,0.3-0.1,0.4-0.3
					c0.2-0.4-0.1-0.8-0.1-0.8c-0.1-0.3-0.1-0.6,0.2-0.7c0.3-0.2,0.6-0.1,0.7,0.2c0.2,0.3,0.5,1.1,0.1,1.9c-0.2,0.4-0.5,0.6-0.9,0.8
					C579.1,630.5,579,630.6,578.9,630.6L578.9,630.6z"/>
				<path class="st8" d="M581.1,629.8c-0.3,0-1-0.1-1.6-0.8c-0.5-0.7-0.4-1.4-0.4-1.6c0-0.3,0.3-0.5,0.6-0.5c0.3,0,0.5,0.3,0.5,0.6
					c0,0.1,0,0.4,0.2,0.8c0.3,0.3,0.7,0.4,0.7,0.4c0.3,0,0.5,0.3,0.5,0.6C581.6,629.6,581.3,629.8,581.1,629.8L581.1,629.8z"/>
				<path class="st8" d="M571.9,689.3c-0.3,0-0.6-0.3-0.5-0.6l1.6-25.4c0-0.3,0.2-0.5,0.6-0.5c0.3,0,0.5,0.3,0.5,0.6l-1.6,25.4
					C572.4,689.1,572.2,689.3,571.9,689.3z"/>
				<path class="st8" d="M568.6,694.1c-0.3,0-0.5-0.2-0.5-0.5c0-0.5-0.1-2.3,1.2-3.7c1.2-1.3,3.1-1.7,4.8-1.2
					c0.3,0.1,0.4,0.4,0.4,0.7c-0.1,0.3-0.4,0.4-0.7,0.4c-1.4-0.4-2.8-0.1-3.7,0.9c-1,1.1-1,2.4-0.9,2.8
					C569.1,693.8,568.9,694,568.6,694.1C568.6,694.1,568.6,694.1,568.6,694.1L568.6,694.1z"/>
				<path class="st8" d="M577.8,695.4c-0.1,0-0.1,0-0.2,0c-0.3-0.1-0.4-0.4-0.3-0.7l8.4-21.3c0.7-1.1,1.1-2.2,1.3-3.4
					c0.4-2.3-0.1-4.3-0.6-5.6c-0.1-0.3,0-0.6,0.3-0.7c0.3-0.1,0.6,0,0.7,0.3c0.6,1.4,1.1,3.6,0.7,6.2c-0.2,1.3-0.7,2.5-1.4,3.7
					l-8.3,21.2C578.2,695.3,578,695.4,577.8,695.4L577.8,695.4z"/>
				<path class="st8" d="M594.8,694.7c-1.8-0.4-5-1.4-6.8-4.3c-2.7-4.6,0.3-10.5,3.1-13.2c2.8-2.9,6.3-3.7,8.1-3.9
					c0.3-0.1,0.6,0.2,0.6,0.5s-0.2,0.6-0.5,0.6c-1.7,0.2-4.9,1-7.5,3.6c-2.5,2.5-5.3,7.8-2.9,11.9c1.5,2.6,4.4,3.5,5.9,3.8
					c0.3,0.1,0.5,0.3,0.4,0.6C595.3,694.5,595.1,694.7,594.8,694.7L594.8,694.7z"/>
				<path class="st8" d="M597.3,691c-0.9,0-1.8-0.2-2.6-0.7c-2.9-1.6-2.8-5.3-2.8-5.5c0.1-2.9,2.2-5.3,4.2-6.2
					c1-0.5,1.8-0.6,2.6-0.7c0.8-0.1,1.4-0.2,2-0.7c0.6-0.6,0.8-1.5,0.7-2.8c0-0.3,0.2-0.6,0.5-0.6c0.3,0,0.6,0.2,0.6,0.5
					c0.1,1.6-0.2,2.8-1,3.6c-0.8,0.9-1.7,1-2.6,1.1c-0.7,0.1-1.4,0.2-2.2,0.6c-1.7,0.8-3.5,2.8-3.6,5.3c0,0-0.1,3.2,2.2,4.5
					c1,0.5,2,0.6,2.6,0.5c0.3,0,0.6,0.2,0.6,0.5c0,0.3-0.2,0.6-0.5,0.6C597.8,691,597.5,691,597.3,691z"/>
				<path class="st8" d="M580.9,689.9c-0.2,0-0.3-0.1-0.4-0.2c-0.2-0.2-0.1-0.6,0.1-0.8c0.4-0.3,1.4-1,2.8-0.7
					c0.2,0,0.4,0.1,0.6,0.2c0.1-2.4,0.5-4.7,1.3-6.9c1-2.9,3-9,8.6-11c1.8-0.7,3.8-0.9,5.9-0.5c0.3,0,0.5,0.3,0.4,0.6
					c0,0.3-0.3,0.5-0.6,0.5c-1.9-0.3-3.7-0.1-5.4,0.5c-5.1,1.9-7,7.6-7.9,10.4c-0.8,2.4-1.2,4.9-1.2,7.4c0,0.2-0.1,0.4-0.3,0.5
					c-0.2,0.1-0.4,0.1-0.6,0c-0.3-0.2-0.6-0.4-1-0.4c-1-0.2-1.7,0.4-1.9,0.5C581.1,689.9,581,689.9,580.9,689.9L580.9,689.9z"/>
				<path class="st8" d="M568.1,625.7c-0.3,0-0.5-0.2-0.5-0.5c-0.1-0.6-0.2-1.1-0.5-1.6c-1.1-1.8-3.5-1.8-3.7-1.8
					c-0.3,0-0.5-0.2-0.5-0.5c0-0.3,0.2-0.5,0.5-0.5c0.3,0,3.2,0.1,4.6,2.3c0.4,0.6,0.6,1.3,0.7,2
					C568.7,625.4,568.4,625.7,568.1,625.7C568.1,625.7,568.1,625.7,568.1,625.7L568.1,625.7z"/>
				<path class="st8" d="M583.8,621.3c0,0-0.1,0-0.1,0c-0.3-0.1-0.5-0.3-0.4-0.6c0.4-1.8,1.2-3.3,2.3-4.4c0.4-0.4,0.9-0.8,1.3-1.1
					c0.3-0.2,0.6-0.1,0.7,0.2c0.2,0.3,0.1,0.6-0.2,0.7c-0.4,0.3-0.8,0.6-1.2,0.9c-1,1-1.7,2.3-2,3.9
					C584.2,621.1,584,621.2,583.8,621.3L583.8,621.3z"/>
				<path class="st8" d="M569,633c-0.2,0-0.4-0.1-0.5-0.3c-0.1-0.3,0-0.6,0.3-0.7l6-2.7c0.3-0.1,0.6,0,0.7,0.3
					c0.1,0.3,0,0.6-0.3,0.7l-6,2.7C569.1,633,569.1,633,569,633z"/>
				<path class="st8" d="M572.9,634c-0.1,0-0.2,0-0.4-0.1c-0.2-0.2-0.3-0.5-0.1-0.8l1.5-1.8c0.2-0.2,0.5-0.3,0.8-0.1
					c0.2,0.2,0.3,0.5,0.1,0.8l-1.5,1.8C573.2,634,573.1,634,572.9,634L572.9,634z"/>
				<path class="st8" d="M575.4,634.8c-0.1,0-0.2,0-0.3-0.1c-0.3-0.2-0.3-0.5-0.2-0.7l1.5-2.3c0.2-0.3,0.5-0.3,0.7-0.2
					c0.3,0.2,0.3,0.5,0.2,0.7l-1.5,2.3C575.8,634.7,575.6,634.8,575.4,634.8z"/>
				<path class="st8" d="M592.1,627.6c0,0-9.9-0.5-9.9-0.5c-0.3,0-0.5-0.3-0.5-0.6c0-0.3,0.3-0.5,0.6-0.5l9.8,0.5
					c0.3,0,0.5,0.3,0.5,0.6C592.6,627.4,592.4,627.6,592.1,627.6L592.1,627.6z"/>
				<path class="st8" d="M595.6,630.6c-0.1,0-11.1-1.9-11.1-1.9c-0.3-0.1-0.5-0.3-0.4-0.6c0-0.3,0.3-0.5,0.6-0.4l11,1.9
					c0.3,0.1,0.5,0.3,0.4,0.6C596.1,630.4,595.9,630.6,595.6,630.6L595.6,630.6z"/>
				<path class="st8" d="M590.6,631.6c0,0-0.1,0-0.1,0l-5.7-1.3c-0.3-0.1-0.5-0.4-0.4-0.6c0.1-0.3,0.4-0.5,0.6-0.4l5.7,1.3
					c0.3,0.1,0.5,0.4,0.4,0.6C591.1,631.4,590.9,631.6,590.6,631.6z"/>
			</g>
		</g>
		<path class="st20" d="M482,645.1c0.5,2.3,1.8,10.4-2.7,19c-4.1,7.8-10.5,11.3-12.8,12.3c-0.8,2.5-1.5,5.1-2.3,7.6
			c2.3,3.2,4.4,4.4,6,4.9c0.6,0.2,1.8,0.6,2.7,1.6c0.8,1,0.9,2.2,0.9,3.1h-14.1c-3.9-5.1-7.8-10.2-11.7-15.3c2-3.3,4-6.6,6-9.9
			c1.3-9.3,2.6-18.5,4-27.8L482,645.1L482,645.1z"/>
		<path class="st20" d="M532.8,603.2c3,2.6,4.6,6.1,5.4,7.8c1,2.1,1.5,4,1.8,5.3c4-1.1,7.5-0.1,8.2,1.6c1,2.3-2.7,5.8-4.4,7.1
			c-1.2,0.9-2.3,1.5-3.3,1.9c-5,2.2-9.8,2.2-11.3,2.2c-5.3-0.1-18-0.3-21.5-7.3c-2.4-4.7,2-7.1,1.5-18.1c-0.4-8.3-3.2-13-1.2-14.3
			c1.9-1.3,6.7,2.4,8.8,4.4c1.8,1.7,3,3.6,3.7,4.9C522.6,598.9,528.2,599.2,532.8,603.2z"/>
		<path class="st20" d="M524.6,601.1c1.5-3.4,2.9-6.2,4-8.2c1.1-2.1,1.5-2.7,2.1-2.7c1.5,0,2.9,5.1,3.1,8.9c0.3,4.2-0.7,7.5-1.5,9.5
			L524.6,601.1z"/>
		<path class="st20" d="M532.2,625.4c0.2,4.1,0.5,20.3-11.1,33.5c-9.1,10.4-20.5,13.2-27.8,15c-5.8,1.4-22.4,4.7-39.5-3.1
			c-6.5-3-14.5-6.8-16.9-15c-2.2-7.6,1.1-16.5,6.8-21.8c9.5-8.9,21.3-3.3,43-8c12-2.6,21.1-7,26.6-10.1L532.2,625.4z"/>
		<path class="st20" d="M527.1,640.8c0.9,10.5,0.6,23.9-3.4,38.6c-1,3.7-2.2,7.2-3.4,10.5c1.6-2,4.3-1.9,5.5-0.6
			c0.9,1.1,1,3-0.2,4.5H512c-1.3-2.3-7.9-14.2-3.8-29.2C512.4,649,524.9,642,527.1,640.8L527.1,640.8z"/>
		<path class="st20" d="M505.4,650.4c-1,8.8-2.7,18.6-5.8,29c-1.1,3.7-2.2,7.2-3.4,10.5c1.6-1.5,4-1.4,5.1-0.1c0.9,1,1,2.6,0.2,4
			h-13.6c-1.3-9.7-2.5-19.5-3.8-29.2L505.4,650.4z"/>
		<path class="st20" d="M461.5,645.1c4.3,6.5,4.6,14.7,0.9,21.3c-5.2,9.2-15.5,10-16.3,10.1c-0.8,2.5-1.5,5.1-2.3,7.6
			c2.3,3.2,4.4,4.4,6,4.9c0.6,0.2,1.8,0.6,2.7,1.6c0.8,1,0.9,2.2,0.9,3.1h-14.1c-3.9-5.1-7.8-10.2-11.7-15.3
			c2.9-2.5,5.8-5.1,8.6-7.6c0.4-10,0.9-20,1.3-30L461.5,645.1L461.5,645.1z"/>
		<path class="st20" d="M452.1,634.8c-7.5,1.1-14.5-3.5-16.2-10.2c-2.3-9,6.3-17.4,11.9-17.1c6.6,0.3,9.1,12.4,13.9,11.5
			c3-0.5,5.4-6,4.5-10.4c-0.9-4.6-5.1-7-7.4-8.2c-9.2-5.1-19.5-1.7-22.4-0.8c-1.3,0.4-11.3,3.8-17.8,13.6c-1.8,2.7-3.4,5.1-3.7,8.6
			c-0.5,5.9,3,10.3,7.3,15.6c5.7,7.2,8.9,11.2,13.6,11c7.1-0.3,11.4-9.7,11.7-10.4L452.1,634.8L452.1,634.8z"/>
		<path class="st8" d="M526.7,629.6c-1.4,0-2.8-0.2-4.1-0.6c-4.1-1.2-6.7-3.8-7.8-5.3c-0.2-0.3-0.2-0.6,0.1-0.8
			c0.3-0.2,0.6-0.2,0.8,0.1c1.1,1.4,3.5,3.8,7.3,4.9c2,0.6,4,0.7,6.1,0.3c0.3,0,0.6,0.2,0.7,0.5c0.1,0.3-0.2,0.6-0.5,0.7
			C528.4,629.5,527.6,629.6,526.7,629.6L526.7,629.6z"/>
		<path class="st8" d="M538.2,617.7c0.1,0.7,1.7,0.4,3.5,1.9c1.1,0.9,1.4,1.8,2.1,1.7c0.5,0,0.9-0.5,1.6-1.5
			c0.8-1.1,1.2-1.7,1.2-2.1c-0.1-1.2-2.3-2.2-4.2-2.2C540.2,615.5,538.1,616.8,538.2,617.7z"/>
		<path class="st8" d="M538.4,626c-0.3,0-0.6-0.2-0.6-0.5c0-0.3,0.2-0.6,0.5-0.6c0.5,0,2.8-0.3,4.1-2.4c0.7-1.1,0.8-2.2,0.8-2.9
			c0-0.3,0.2-0.6,0.6-0.6c0.4,0,0.6,0.2,0.6,0.6c0,0.9-0.1,2.3-1,3.6C541.9,625.6,539.1,625.9,538.4,626
			C538.5,626,538.5,626,538.4,626L538.4,626z"/>
		<path class="st8" d="M522.5,613.7c0,1.1,0.5,1.9,1,1.9c0.6,0,1-0.9,1-1.9c0-1.1-0.5-1.9-1-1.9C523,611.7,522.5,612.6,522.5,613.7z
			"/>
		<path class="st8" d="M534.4,612.4c0,1.1,0.5,1.9,1,1.9c0.6,0,1-0.9,1-1.9c0-1.1-0.5-1.9-1-1.9
			C534.8,610.5,534.4,611.4,534.4,612.4z"/>
		<path class="st8" d="M505.9,669c-0.2,0-0.4-0.1-0.5-0.3c-0.2-0.3-0.1-0.6,0.2-0.8c2.3-1.3,4.6-2.8,6.8-4.4
			c4.9-3.6,9.2-7.9,13-12.8c0.2-0.3,0.6-0.3,0.8-0.1c0.3,0.2,0.3,0.6,0.1,0.8c-3.8,5-8.3,9.3-13.2,13c-2.2,1.6-4.5,3.1-6.9,4.5
			C506.1,669,506,669,505.9,669z"/>
		<path class="st8" d="M465.7,675.1c-2.3,0-4.8-0.4-7.3-1.8c-0.8-0.4-1.5-0.9-2.3-1.5c-0.3-0.2-0.3-0.6-0.1-0.8
			c0.2-0.3,0.6-0.3,0.8-0.1c0.7,0.5,1.3,1,2.1,1.4c4.1,2.2,8.5,1.8,11.5,1c0.3-0.1,0.6,0.1,0.7,0.4c0.1,0.3-0.1,0.6-0.4,0.7
			C469.4,674.8,467.6,675.1,465.7,675.1L465.7,675.1z"/>
		<path class="st8" d="M444.6,676.7c-0.3,0-0.5-0.2-0.6-0.5c-0.1-0.3,0.1-0.6,0.5-0.7c14.3-2.8,24.7-12.7,25.4-24.1
			c0.4-6.3-2.5-11.5-4.9-14.7c-0.2-0.3-0.1-0.6,0.1-0.8c0.3-0.2,0.6-0.1,0.8,0.1c2.6,3.4,5.5,8.9,5.2,15.5
			c-0.7,11.9-11.5,22.2-26.3,25.1C444.7,676.7,444.7,676.7,444.6,676.7L444.6,676.7z"/>
		<path class="st8" d="M485.7,676.7c-0.2,0-0.4-0.1-0.5-0.3l-2.4-5.2c-0.1-0.3,0-0.6,0.3-0.8c0.3-0.1,0.6,0,0.8,0.3l2.4,5.2
			c0.1,0.3,0,0.6-0.3,0.8C485.8,676.7,485.7,676.7,485.7,676.7z"/>
		<path class="st8" d="M531.7,603.6c-0.1,0-0.2,0-0.3-0.1c-1.4-1-3-1.8-4.6-2.4c-2.4-0.9-4.9-1.3-7.4-1.2c-0.4,0-0.6-0.2-0.6-0.6
			c0-0.3,0.2-0.6,0.6-0.6c2.7-0.1,5.3,0.4,7.8,1.3c1.8,0.6,3.4,1.5,4.9,2.6c0.3,0.2,0.3,0.6,0.1,0.8
			C532.1,603.5,531.9,603.6,531.7,603.6L531.7,603.6z"/>
		<path class="st8" d="M417.3,627.3l-4.8-0.1c-0.3,0-0.6-0.3-0.6-0.6c0-0.3,0.3-0.6,0.6-0.6l4.7,0.1c0.3,0,0.6,0.3,0.6,0.6
			C417.9,627.1,417.7,627.3,417.3,627.3L417.3,627.3z"/>
		<path class="st8" d="M419,616.5c-0.2,0-0.3-0.1-0.5-0.2l-2.5-3c-0.2-0.2-0.2-0.6,0.1-0.8c0.3-0.2,0.6-0.2,0.8,0.1l2.5,3
			c0.2,0.2,0.2,0.6-0.1,0.8C419.3,616.4,419.1,616.5,419,616.5L419,616.5z"/>
		<path class="st8" d="M421,609.5c-0.2,0-0.4-0.1-0.5-0.2l-2.2-2.9c-0.2-0.3-0.1-0.6,0.1-0.8c0.3-0.2,0.6-0.1,0.8,0.1l2.2,2.9
			c0.2,0.3,0.1,0.6-0.1,0.8C421.2,609.5,421.1,609.5,421,609.5z"/>
	</g>
</g>
</svg>
