<svg width="171" height="214" viewBox="0 0 171 214" fill="none" xmlns="http://www.w3.org/2000/svg">
<g clip-path="url(#clip0_2020_4133)">
<path d="M64.56 119.26C62.99 118.68 61.49 118.1 60.1 117.49C44.13 110.68 37.72 102.54 34.93 95.93C34.93 95.93 28.46 80.57 20.35 72.12C18.89 70.59 17.76 69.84 16.47 69.53C13 68.61 10.75 71.2 6.38998 70.86C4.40998 70.72 2.84998 70.04 1.85998 69.53C1.41998 68.85 -0.93002 65.27 0.42998 62.38C1.82998 59.38 6.31998 59.08 9.82998 58.84C12.49 58.64 17.22 58.74 22.94 61.26C25.12 62.69 28.36 65.11 31.69 68.72C37.11 74.61 38.03 78.7 41.23 82.48C42.87 84.42 45.32 86.53 49.06 88.24C49.67 88.51 50.35 88.79 51.07 89.06C51.17 89.09 51.31 89.13 51.44 89.2C52.09 89.44 52.8 89.64 53.55 89.85C56.07 90.57 59 91.11 62.47 91.42C63.15 100.72 63.87 109.98 64.55 119.28L64.56 119.26Z" fill="black"/>
<path d="M91.13 135.81C91.23 139.76 91.13 143.95 90.72 148.38C90.52 150.56 90.28 152.71 89.94 154.78C88.68 163.4 86.5 171.1 83.98 177.77C83.44 179.3 82.86 180.77 82.28 182.13C81.63 183.63 81.02 185.09 80.34 186.46C78.33 190.75 76.29 194.43 74.45 197.5H54.76C54.69 196.41 54.62 193.75 56.22 191.16C59.25 186.32 65.28 186.29 65.69 186.29C66.41 183.16 66.98 180.13 67.5 177.16C70.33 159.62 69.13 144.84 65.66 132.4C65.11 130.29 64.47 128.24 63.75 126.27C62.49 122.66 61.3 120.07 60.11 117.48C60.04 117.34 59.97 117.21 59.94 117.11C58.65 114.28 57.35 111.63 55.99 107.78C53.98 102.3 52.48 96.81 51.49 91.36C51.39 90.88 51.32 90.47 51.25 90.07C51.18 89.73 51.11 89.35 51.08 89.05C49.58 79.79 49.34 70.62 50.02 61.73C50.19 59.45 50.43 57.2 50.7 54.95C50.84 53.76 51.01 52.57 51.18 51.41C51.32 50.49 51.49 49.64 51.62 48.75C52.17 49.81 52.68 50.83 53.22 51.88C53.36 52.15 53.53 52.46 53.66 52.73C55.02 55.39 56.38 58.01 57.75 60.67C58.87 62.88 60 65.1 61.16 67.35C70.87 86.25 80.54 105.16 90.25 124.1C90.69 127.68 91.03 131.56 91.14 135.82L91.13 135.81Z" fill="black"/>
<path d="M142.56 183.19C142.29 187.86 141.88 192.8 141.3 197.97C139.53 197.97 137.79 197.94 136.02 197.94C115.48 197.77 94.94 197.63 74.44 197.5H73.01C72.43 196.65 71.68 195.22 71.55 193.34C71.55 193.14 71.52 192.93 71.52 192.73C71.55 188.64 74.82 185.82 75.68 185.1C78.17 182.95 80.86 182.34 82.29 182.14C81.34 180.98 80.31 179.59 79.36 177.95C77.76 175.16 76.46 171.72 76.4 167.83C76.3 159.42 82.05 155.23 86.38 144.02C88.08 139.56 89.99 132.92 90.26 124.09C79.29 110.53 67.68 92.8601 58.89 70.7501C58.72 70.3101 58.55 69.9001 58.38 69.4601C58.28 69.1901 58.18 68.9501 58.07 68.6801C57.59 67.4901 57.15 66.2601 56.71 65.0401C56.4 64.2201 56.13 63.4001 55.86 62.5901C54.67 59.2201 53.65 55.9101 52.73 52.6801C52.7 52.5401 52.63 52.4101 52.59 52.2701C52.25 51.0801 51.94 49.9201 51.64 48.7601C52.63 48.3501 53.58 47.9401 54.57 47.5301C62.88 44.0201 71.26 40.5501 79.57 37.0701C79.71 37.4401 79.84 37.7901 80.01 38.1301C84.98 50.7001 90.36 60.9501 95.3 69.0201C97.75 73.1101 100.07 76.6201 102.18 79.6101C107.66 87.4401 112.64 93.4401 112.64 93.4401C126.43 110.3 133.55 113.67 138.39 125.05C139.79 128.35 140.98 132.27 142.03 143.78C142.37 147.56 142.68 151.82 142.88 156.59C143.19 164.25 143.19 173.14 142.57 183.19H142.56Z" fill="black"/>
<path d="M23.33 15.56C22.32 18.12 29.63 23.83 35.08 26.94C38.59 28.95 44.04 31.42 51.52 32.53C50.01 35.09 47.6 38.15 43.99 39.01C37.25 40.62 30.61 33.57 29 35.2C28.14 36.07 29.44 39.02 30.94 40.95C33.16 43.8 36.63 45.09 43.58 47.67C46.51 48.76 47.24 49.02 48.79 49.89C51.45 51.38 52.27 52.56 55.09 53.1C59.26 53.9 65.65 53.11 74.86 45.16C75.96 44.4 77.76 42.94 79.07 40.54C79.07 40.54 81.35 36.36 80.37 30.9C79.14 24.07 70.92 17.9 59.79 16.07C55.98 17.21 52.16 18.34 48.35 19.48C38.62 18.65 33.96 17 31.54 15.49C30.94 15.12 28.63 13.6 26.01 14.09C25.46 14.19 23.74 14.52 23.34 15.55L23.33 15.56Z" fill="black"/>
<path d="M65.46 21.5101C65.91 17.9301 68.13 1.15008 72.14 0.970075C75.37 0.820075 79.57 11.4501 79.47 21.1801C79.43 25.4201 78.57 28.9301 77.77 31.3901L65.46 21.5101Z" fill="black"/>
<path d="M57.01 18.66C57.26 16.12 57.64 12.45 58.16 8.03004C58.96 1.37004 59.24 0.0500393 59.74 3.93282e-05C60.93 -0.109961 62.55 7.01004 63.2 10.45C64.04 14.88 64.28 18.6 64.35 21.14L57 18.65L57.01 18.66Z" fill="black"/>
<path d="M55.47 24.1301C53.77 24.9501 52.11 25.0501 51.76 24.3401C51.41 23.6301 52.52 22.3901 54.22 21.5701C55.92 20.7501 57.58 20.6501 57.93 21.3601C58.27 22.0701 57.17 23.3101 55.47 24.1301Z" fill="#FFFAEC"/>
<path d="M23.52 17.9301C23.93 17.9701 24.08 17.3801 24.89 16.7901C25.93 16.0301 27.09 15.9901 27.73 15.9701C30.27 15.8701 31.81 17.4801 32.21 17.0201C32.53 16.6601 31.75 15.4601 31.34 14.9201C30.95 14.4101 29.51 12.5201 27.04 12.4001C25.49 12.3301 23.16 12.9401 22.56 14.6401C22.06 16.0401 22.83 17.8601 23.52 17.9301Z" fill="#3B1A54"/>
<path d="M91.59 189.6C89.72 188.99 88.29 188.13 87.13 186.99C84.49 184.38 83.13 180.21 83.2 174.92C83.33 164.66 88.68 152.83 96.5 145.49C101.3 140.99 107.29 137.87 114.29 136.22C114.62 136.13 114.97 136.35 115.05 136.69C115.13 137.03 114.92 137.37 114.58 137.45C107.8 139.05 102.01 142.06 97.37 146.41C89.78 153.53 84.59 164.99 84.46 174.94C84.4 179.88 85.63 183.74 88.02 186.1C89.04 187.1 90.31 187.87 91.8 188.38C92.12 188.49 92.3 188.85 92.19 189.18C92.1 189.44 91.86 189.6 91.6 189.6H91.59Z" fill="#3B1A54"/>
<path d="M70.81 196.59C70.42 196.56 70.16 196.26 70.18 195.91C70.28 194.6 70.91 190.11 74.58 187.54C77.66 185.39 81.11 185.78 83.39 186.03C85.93 186.32 87.44 187.03 88.9 187.72C89.97 188.23 91.08 188.75 92.65 189.14C95.9 189.95 99.55 189.75 103.43 188.54C103.76 188.43 104.11 188.62 104.21 188.95C104.31 189.28 104.13 189.63 103.8 189.74C99.68 191.01 95.83 191.23 92.34 190.35C90.65 189.93 89.49 189.38 88.36 188.85C86.93 188.17 85.58 187.53 83.25 187.27C81.15 187.03 77.99 186.68 75.29 188.56C72.07 190.81 71.52 194.82 71.43 195.99C71.4 196.32 71.13 196.57 70.8 196.57L70.81 196.59Z" fill="#3B1A54"/>
<path d="M77.93 182.64C77.39 182.49 77.22 182.13 77.34 181.8C81.71 169.56 85.47 156.99 88.5 144.43C89.79 139.07 91 133.58 92.06 128.09C92.12 127.75 92.46 127.51 92.8 127.6C93.14 127.67 93.36 127.99 93.3 128.34C92.23 133.84 91.03 139.36 89.72 144.73C86.68 157.33 82.91 169.95 78.53 182.23C78.44 182.49 78.2 182.65 77.94 182.65L77.93 182.64Z" fill="#3B1A54"/>
<path d="M93.4 126.08C92.98 126.03 92.73 125.72 92.78 125.38C92.89 124.45 92.89 123.52 92.78 122.61C92.3 118.72 89.86 116.01 88.44 114.74C88.18 114.51 88.17 114.11 88.4 113.86C88.64 113.6 89.03 113.59 89.29 113.81C90.83 115.2 93.5 118.17 94.03 122.46C94.15 123.46 94.15 124.5 94.03 125.53C93.99 125.85 93.72 126.08 93.41 126.08H93.4Z" fill="#3B1A54"/>
<path d="M41.27 39.2301C42.12 39.7801 43.29 40.6801 44.29 42.0701C48.45 47.8801 44.75 55.5601 47.04 56.5701C48.74 57.3201 51.74 54.2401 53.12 52.0301C55.19 48.7201 54.65 45.1401 54.17 41.3401C53.9 39.1801 53.29 36.1201 51.78 32.6301C48.27 34.8301 44.77 37.0301 41.26 39.2301H41.27Z" fill="#FFCCCC"/>
<path d="M70.37 20.5701C70.25 20.5701 70.13 20.5401 70.03 20.4701C67.91 19.0801 63.56 16.8401 58.14 17.5501C56.09 17.8101 54.1 18.4601 52.24 19.4901C51.94 19.6601 51.55 19.5501 51.39 19.2401C51.22 18.9401 51.33 18.5601 51.63 18.3901C53.64 17.2901 55.78 16.5901 57.98 16.3001C63.77 15.5701 68.46 17.9301 70.71 19.4201C71 19.6101 71.08 20.0001 70.89 20.2901C70.77 20.4701 70.57 20.5701 70.37 20.5701Z" fill="#3B1A54"/>
<path d="M76.94 27.1801C76.67 27.1801 76.42 27.0001 76.34 26.7201C75.43 23.5101 74.81 20.2601 74.5 17.0701C74.31 15.1501 74.24 13.3701 74.17 11.8001C74.04 8.64007 73.94 6.15007 72.94 5.74007C72.56 5.59007 72.02 5.70007 71.35 6.07007C71.06 6.24007 70.67 6.13007 70.5 5.82007C70.33 5.52007 70.44 5.14007 70.75 4.97007C71.77 4.40007 72.68 4.27007 73.42 4.58007C75.17 5.29007 75.28 7.86007 75.43 11.7501C75.49 13.3001 75.56 15.0601 75.75 16.9501C76.06 20.0701 76.66 23.2401 77.55 26.3801C77.64 26.7101 77.45 27.0601 77.12 27.1501C77.06 27.1701 77 27.1701 76.95 27.1701L76.94 27.1801Z" fill="#3B1A54"/>
<path d="M49.39 51.4502C48.95 51.3902 48.72 51.0702 48.77 50.7302C49.17 48.0602 49.09 45.3802 48.54 42.7702C48.18 41.0802 47.62 39.4402 46.88 37.8902C46.73 37.5802 46.87 37.2002 47.18 37.0502C47.5 36.9002 47.87 37.0302 48.02 37.3502C48.8 38.9902 49.39 40.7302 49.76 42.5102C50.35 45.2702 50.43 48.1002 50.02 50.9102C49.97 51.2202 49.71 51.4402 49.4 51.4402L49.39 51.4502Z" fill="#3B1A54"/>
<path d="M59.93 117.73C59.73 117.73 59.54 117.63 59.42 117.46C56.34 113 54.04 108.09 52.59 102.86C51.22 97.9401 50.64 92.8501 50.86 87.7201C50.87 87.3701 51.14 87.1701 51.52 87.1201C51.86 87.1301 52.13 87.4301 52.12 87.7701C51.9 92.7701 52.47 97.7301 53.8 102.52C55.22 107.62 57.46 112.4 60.46 116.75C60.66 117.03 60.59 117.42 60.3 117.62C60.19 117.69 60.06 117.73 59.94 117.73H59.93Z" fill="#3B1A54"/>
<path d="M57.01 78.5301C56.73 78.5301 56.48 78.3401 56.4 78.0601L55.07 72.9601C54.98 72.6301 55.18 72.2801 55.52 72.2001C55.84 72.1201 56.2 72.3101 56.28 72.6501L57.61 77.7501C57.7 78.0801 57.5 78.4301 57.16 78.5201C57.11 78.5301 57.06 78.5401 57 78.5401L57.01 78.5301Z" fill="#3B1A54"/>
<path d="M60.69 78.16C60.51 78.16 60.33 78.08 60.2 77.93L58.41 75.74C58.19 75.47 58.23 75.08 58.5 74.86C58.77 74.64 59.16 74.68 59.38 74.95L61.17 77.14C61.39 77.41 61.35 77.8 61.08 78.02C60.96 78.12 60.82 78.16 60.68 78.16H60.69Z" fill="#3B1A54"/>
<path d="M71.05 70.51C70.81 70.51 70.57 70.37 70.48 70.13L67.32 62.84C67.18 62.52 67.32 62.15 67.64 62.01C67.96 61.87 68.33 62.02 68.46 62.34L71.62 69.63C71.76 69.95 71.62 70.32 71.3 70.46C71.22 70.49 71.13 70.51 71.05 70.51Z" fill="#3B1A54"/>
<path d="M73.99 66.8601C73.74 66.8601 73.5 66.7101 73.41 66.4701L72.53 64.2801C72.4 63.9601 72.56 63.5901 72.88 63.4601C73.2 63.3401 73.57 63.4901 73.7 63.8101L74.58 66.0001C74.71 66.3201 74.55 66.6901 74.23 66.8201C74.15 66.8501 74.07 66.8601 74 66.8601H73.99Z" fill="#3B1A54"/>
<path d="M83.82 65.7701C83.67 65.7701 83.52 65.7201 83.4 65.6101L78.16 60.8701C77.91 60.6401 77.89 60.2401 78.12 59.9801C78.35 59.7201 78.75 59.7101 79.01 59.9401L84.25 64.6801C84.5 64.9101 84.52 65.3101 84.29 65.5701C84.17 65.7101 84 65.7801 83.82 65.7801V65.7701Z" fill="#3B1A54"/>
<path d="M125.25 163.54C125.15 163.54 125.06 163.52 124.97 163.47L122.38 162.15C122.07 161.99 121.95 161.62 122.11 161.31C122.26 161 122.64 160.88 122.95 161.04L125.54 162.36C125.85 162.52 125.97 162.89 125.81 163.2C125.7 163.42 125.48 163.54 125.25 163.54Z" fill="#3B1A54"/>
<path d="M129.46 160.6C129.21 160.6 128.98 160.46 128.88 160.22L128.07 158.28C127.94 157.96 128.09 157.59 128.41 157.46C128.72 157.32 129.1 157.47 129.23 157.8L130.04 159.74C130.17 160.06 130.03 160.43 129.7 160.56C129.62 160.59 129.54 160.61 129.46 160.61V160.6Z" fill="#3B1A54"/>
<path d="M138.99 182.46C141.32 182.05 143.39 183.66 144.2 184.27C156.35 193.49 170.4 195.19 170.13 200.15C169.78 206.37 147.24 211.36 128 211.17C109.11 210.98 90.18 205.75 90.41 202.74C90.57 200.53 100.9 198.07 110.5 199.01C116.23 199.57 120.87 201.92 129.13 201.12C133.03 200.74 135.37 199.94 135.94 198.37C136.71 196.2 133.36 194.61 133.19 190.75C133.02 187.04 135.88 183.01 138.99 182.46Z" fill="black"/>
<path d="M136.67 195.11C136.43 195.11 136.21 194.97 136.1 194.75C134.83 192.02 135.07 188.9 136.73 186.59C138.45 184.19 140.99 183.57 142.01 183.42C142.36 183.37 142.67 183.61 142.73 183.94C142.78 184.28 142.54 184.6 142.2 184.66C141.53 184.76 139.23 185.26 137.75 187.32C136.36 189.26 136.16 191.91 137.24 194.22C137.39 194.53 137.24 194.91 136.94 195.05C136.86 195.09 136.76 195.11 136.68 195.11H136.67Z" fill="#3B1A54"/>
<path d="M103.62 208.23C103.43 208.23 103.24 208.14 103.11 207.98C102.9 207.7 102.96 207.31 103.24 207.1L106.07 204.99C106.35 204.78 106.74 204.85 106.95 205.12C107.16 205.4 107.1 205.79 106.82 206L103.99 208.11C103.88 208.2 103.75 208.23 103.62 208.23Z" fill="#3B1A54"/>
<path d="M112.12 211.81C111.88 211.81 111.65 211.67 111.55 211.44C111.41 211.12 111.55 210.75 111.87 210.61L117.38 208.17C117.71 208.03 118.07 208.17 118.21 208.49C118.35 208.81 118.21 209.18 117.89 209.32L112.38 211.76C112.3 211.8 112.21 211.81 112.13 211.81H112.12Z" fill="#3B1A54"/>
<path d="M120.06 213.74C119.88 213.74 119.7 213.66 119.57 213.51C119.35 213.24 119.39 212.85 119.66 212.63L123.55 209.47C123.83 209.26 124.22 209.29 124.43 209.56C124.65 209.83 124.61 210.22 124.34 210.44L120.45 213.6C120.33 213.69 120.19 213.74 120.05 213.74H120.06Z" fill="#3B1A54"/>
</g>
<defs>
<clipPath id="clip0_2020_4133">
<rect width="170.13" height="213.74" fill="white"/>
</clipPath>
</defs>
</svg>
