<svg width="40" height="41" viewBox="0 0 40 41" fill="none" xmlns="http://www.w3.org/2000/svg">
<rect x="0.5" y="1.19995" width="39" height="39" rx="19.5" stroke="#AE80C4"/>
<g clip-path="url(#clip0_1315_3692)">
<path d="M26.7023 22.2105V23.1007C26.8814 23.1007 31.1074 23.1677 31.1074 27.4921C31.1074 28.5806 30.7691 29.4088 30.1 29.9568C28.8539 30.9759 26.767 30.842 25.9363 30.7379V29.2576C25.9363 24.6951 23.924 22.0047 22.3073 19.845C21.193 18.3548 20.2204 17.0555 20.1135 15.4809C20.3746 15.347 20.591 15.1735 20.7602 14.9627C21.1681 14.4544 21.2726 13.7551 21.0736 12.8848C20.203 9.08109 17.5565 7.69995 15.9895 7.69995H14.5941C12.6267 7.69995 11.8233 8.94967 11.6069 9.83488L8.58233 10.3754C8.4306 10.4027 8.30375 10.5044 8.24654 10.6482C8.22167 10.7102 7.63964 12.188 8.35101 13.3609C8.79375 14.0899 9.60958 14.5188 10.7761 14.6329C11.5696 14.7122 12.669 14.8511 13.0172 15.1586C13.1789 15.2999 13.1814 15.5107 13.144 16.0735C13.1316 16.2744 13.1167 16.4976 13.1142 16.7505C13.0669 17.1323 12.6167 20.7401 12.6167 21.8684C12.6167 22.6519 12.7411 23.1354 12.9475 23.9388C13.0644 24.3975 13.2137 24.9679 13.3853 25.7812C13.7435 27.4698 13.4102 29.7981 13.2585 30.6784H11.2039V31.5685H13.6291C13.8405 31.5685 14.0245 31.4198 14.0668 31.214C14.0942 31.0801 14.7434 27.8913 14.2584 25.5977C14.0818 24.767 13.9325 24.1868 13.8131 23.7181C13.6117 22.9321 13.5097 22.5378 13.5097 21.8684C13.5097 21.2534 13.6589 19.788 13.7957 18.5953L19.9294 17.906C20.3722 18.754 20.9716 19.5549 21.5884 20.3806C23.2052 22.5428 25.0408 24.9926 25.0408 29.2625V31.4892L25.399 31.5611C25.4612 31.5735 26.1452 31.7049 27.0555 31.7049C28.1674 31.7049 29.6125 31.5065 30.6621 30.6511C31.5476 29.927 31.9978 28.8658 31.9978 27.497C31.9978 22.275 26.7521 22.2155 26.6999 22.2155L26.7023 22.2105ZM13.9052 17.6853C13.9649 17.1844 14.0071 16.8447 14.0096 16.8348C14.0096 16.8174 14.0121 16.7976 14.0121 16.7802C14.0121 16.5471 14.0245 16.3364 14.0395 16.1331C14.1439 14.5412 13.7385 14.0353 10.8682 13.7502C9.9976 13.6634 9.40811 13.3807 9.11959 12.9046C8.76639 12.3294 8.90319 11.5756 9.00517 11.2061L12.0745 10.6556C12.2735 10.6209 12.4227 10.4548 12.4401 10.2539C12.4451 10.187 12.6018 8.58765 14.5941 8.58765H15.9895C17.2207 8.58765 19.4543 9.80761 20.203 13.0782C20.3398 13.6708 20.2926 14.1171 20.0612 14.4023C19.7702 14.7668 19.1484 14.9528 18.2107 14.9528C16.2905 14.9528 16.2308 10.606 16.2308 10.5614H15.3378C15.3378 10.7771 15.3702 15.8429 18.2107 15.8429C18.5937 15.8429 18.937 15.8157 19.2429 15.7586C19.2927 16.2074 19.3996 16.6339 19.5513 17.0455L13.9027 17.6803L13.9052 17.6853Z" fill="#AE80C4"/>
<path d="M13.5666 9.42822C13.3203 9.42822 13.1213 9.62659 13.1213 9.87207V10.5614C13.1213 10.8069 13.3203 11.0052 13.5666 11.0052C13.8128 11.0052 14.0118 10.8069 14.0118 10.5614V9.87207C14.0118 9.62659 13.8128 9.42822 13.5666 9.42822Z" fill="#AE80C4"/>
<path d="M18.9765 30.6735C18.0587 28.9576 17.8323 27.4153 18.3024 26.0812C19.0412 23.9909 21.2797 23.0785 21.3021 23.0685L20.9738 22.2404C20.8668 22.2825 18.3422 23.3016 17.4642 25.7763C16.9419 27.2442 17.116 28.8882 17.9766 30.6735H15.7853V31.5636H23.1999V30.6735H18.974H18.9765Z" fill="#AE80C4"/>
</g>
<defs>
<clipPath id="clip0_1315_3692">
<rect width="24" height="24" fill="white" transform="translate(8 7.69995)"/>
</clipPath>
</defs>
</svg>
