<svg width="40" height="41" viewBox="0 0 40 41" fill="none" xmlns="http://www.w3.org/2000/svg">
<rect x="0.5" y="1.19995" width="39" height="39" rx="19.5" stroke="#AE80C4"/>
<g clip-path="url(#clip0_1315_3698)">
<path d="M12.3376 10.1184C12.0396 10.1184 11.7988 10.3558 11.7988 10.6496V11.4745C11.7988 11.7683 12.0396 12.0056 12.3376 12.0056C12.6357 12.0056 12.8765 11.7683 12.8765 11.4745V10.6496C12.8765 10.3558 12.6357 10.1184 12.3376 10.1184Z" fill="#AE80C4"/>
<path d="M32.0001 19.605L31.6028 18.6139C31.5275 18.6436 29.7244 19.3646 28.8786 21.4151C28.1471 23.1866 28.3608 25.3587 29.5077 27.8721C30.6184 30.2994 30.8171 32.0382 30.0886 32.9047C29.3903 33.7296 27.8551 33.697 26.9761 33.5634V28.1629C26.9761 22.5397 24.4265 21.3706 22.3796 20.4329C20.8956 19.7534 19.9173 19.3053 19.9173 17.424C19.9173 12.6525 19.0113 10.6465 18.0029 8.85128C16.4647 6.12131 14.5412 5.72665 14.4599 5.70885C14.3004 5.67917 14.1378 5.72072 14.0144 5.82161C13.891 5.9225 13.8187 6.07383 13.8187 6.2311V8.17175H13.1053C12.1331 8.17175 10.3661 8.70291 10.0922 10.6436H9.34263C9.28845 10.6436 9.23728 10.6525 9.18611 10.6673C8.74662 10.7979 8.00311 11.4091 8.00311 12.8602C8.00311 14.1183 8.97539 15.418 10.5979 15.418C10.7213 15.418 10.8598 15.4121 11.0103 15.4032C11.4347 15.3795 12.0759 15.3468 12.2565 15.5872C12.3408 15.6999 12.4852 16.0857 12.0458 17.243C11.9976 17.3646 10.8929 20.2637 10.8929 23.8721C10.8929 24.7534 11.0253 25.2103 11.242 25.964C11.3926 26.4893 11.5822 27.145 11.814 28.2281C12.2384 30.2044 11.8471 32.5456 11.6574 33.4685H9.15299V34.5338H12.0879C12.3347 34.5338 12.5515 34.3676 12.6117 34.1302C12.6478 33.9937 13.4575 30.7652 12.8675 28.0086C12.6267 26.8899 12.425 26.1866 12.2775 25.6732C12.0728 24.9611 11.9705 24.605 11.9705 23.8721C11.9705 21.789 12.3739 19.9225 12.6869 18.786L18.8397 17.602C18.9089 20.0175 20.4411 20.7207 21.9221 21.4002C23.8757 22.2964 25.8955 23.2192 25.8955 28.1658V34.418L26.3049 34.5189C26.3651 34.5338 27.0695 34.7029 27.9484 34.7029C28.9418 34.7029 30.1579 34.4863 30.9164 33.5931C31.9459 32.3765 31.8044 30.3083 30.495 27.4388C29.4776 25.2133 29.2699 23.329 29.8749 21.8394C30.5372 20.2103 31.9911 19.6139 32.0031 19.608L32.0001 19.605ZM13.1204 14.9581C12.5966 14.2548 11.6033 14.3053 10.947 14.3409C10.8206 14.3468 10.7002 14.3557 10.5949 14.3557C9.61054 14.3557 9.08075 13.5872 9.08075 12.8631C9.08075 12.0738 9.35166 11.7979 9.46906 11.7118H10.5949C10.8929 11.7118 11.1337 11.4744 11.1337 11.1807C11.1337 9.31419 12.9037 9.24297 13.1023 9.24H14.3576C14.6556 9.24 14.8964 9.00261 14.8964 8.70885V7.03229C15.4563 7.3498 16.2901 8.01448 17.0517 9.37057C17.9246 10.9225 18.7133 12.6495 18.8186 16.5189L13.0451 17.6287C13.0451 17.6287 13.0451 17.6198 13.0481 17.6198C13.5207 16.3735 13.5418 15.5278 13.1174 14.9581H13.1204Z" fill="#AE80C4"/>
<path d="M18.3068 33.4685C17.1629 31.3735 16.9071 29.6851 17.5392 28.4507C18.4483 26.6792 20.9618 26.3557 20.9858 26.3528L20.8594 25.2964C20.733 25.3112 17.7529 25.6821 16.579 27.964C15.8294 29.418 16.004 31.2697 17.0937 33.4685H15.0498V34.5338H23.418V33.4685H18.3038H18.3068Z" fill="#AE80C4"/>
</g>
<defs>
<clipPath id="clip0_1315_3698">
<rect width="24" height="29" fill="white" transform="translate(8 5.69995)"/>
</clipPath>
</defs>
</svg>
