<svg width="286" height="119" viewBox="0 0 286 119" fill="none" xmlns="http://www.w3.org/2000/svg">
<circle cx="97.729" cy="68.4289" r="13.8477" transform="rotate(13.675 97.729 68.4289)" fill="#FFE382"/>
<circle cx="49.1141" cy="48.814" r="10.0277" transform="rotate(13.675 49.1141 48.814)" fill="#FFC876"/>
<circle cx="8.36774" cy="62.0677" r="6.92654" transform="rotate(13.675 8.36774 62.0677)" fill="#FFCCCC"/>
<circle cx="70.2323" cy="82.9321" r="4.33103" transform="rotate(13.675 70.2323 82.9321)" fill="#80C7A7"/>
<path d="M238.164 105.599C247.723 77.9483 259.777 43.0177 261.513 37.7222C264.448 28.7638 274.903 19.4738 273.541 18.1984C272.18 16.923 268.456 17.7239 258.406 25.7743C250.481 32.1258 225.23 70.4132 213.039 105.599H238.164Z" fill="#80C7A7"/>
<path d="M234.581 80.3869C234.536 80.3869 234.495 80.3869 234.45 80.3716C234.08 80.3002 233.843 79.938 233.913 79.5655C236.479 66.4544 259.544 29.4526 260.521 27.8813C260.723 27.5599 261.143 27.4629 261.462 27.667C261.781 27.8711 261.877 28.2945 261.675 28.6159C261.437 28.9985 237.769 66.9697 235.249 79.8359C235.184 80.1624 234.9 80.3869 234.581 80.3869Z" fill="#3F9896"/>
<path d="M220.463 101.462C220.271 101.462 220.073 101.462 219.881 101.462C210.216 101.38 201.608 99.3495 201.249 99.2679C196.922 98.2323 194.24 93.8602 195.267 89.4933C196.295 85.1314 200.631 82.4326 204.958 83.4632C205.165 83.5142 212.447 85.1926 220.255 85.2232C228.074 85.2487 233.574 83.5754 234.971 80.7338C237.268 76.0506 237.678 67.8064 238.073 59.8326C238.387 53.4964 238.711 46.9459 239.976 41.0434C241.671 33.1257 244.869 27.514 249.742 23.8867C253.32 21.2237 258.365 21.9889 261.007 25.5958C263.648 29.2026 262.889 34.2889 259.312 36.9519C255.187 40.0231 254.641 50.9762 254.165 60.6437C253.689 70.2755 253.194 80.2339 249.408 87.9424C246.367 94.1306 238.878 101.467 220.473 101.467L220.463 101.462Z" fill="#AE80C4"/>
<path d="M249.737 23.8867C247.9 25.254 246.301 26.9018 244.935 28.8455C245.714 35.1307 250.441 40.1761 256.538 41.3801C257.217 39.3956 258.112 37.8396 259.306 36.9519C262.884 34.2889 263.643 29.2026 261.002 25.5958C258.36 21.9889 253.315 21.2237 249.737 23.8867Z" fill="white"/>
<path d="M170.957 59.9805C174.844 60.4141 183.593 31.9778 186.528 36.4876C189.048 40.3546 198.04 91.187 200.55 105.599H222.523C220.341 93.197 216.501 70.1327 215.625 56.7614C214.385 37.8345 190.683 10.5052 181.503 15.3364C172.323 20.1676 167.066 59.5519 170.952 59.9856L170.957 59.9805Z" fill="#80C7A7"/>
<path d="M185.814 35.1765C179.671 41.3545 176.382 51.0221 170.957 59.9805" stroke="#3F9896" stroke-width="3" stroke-linecap="round" stroke-linejoin="round"/>
<path d="M230.634 105.599C231.464 100.987 231.99 96.6048 232.006 92.8399C232.254 44.9104 240.598 5.15873 237.931 1.20499C235.265 -2.74874 226.93 17.5097 222.315 28.8709C217.7 40.2322 209.897 58.9959 206.719 87.9066C206.066 93.8449 205.393 99.829 204.735 105.599H230.629H230.634Z" fill="#3F9896"/>
<path d="M231.54 19.3309C231.54 19.3309 225.255 44.6808 222.968 61.3936" stroke="#80C7A7" stroke-width="3" stroke-linecap="round" stroke-linejoin="round"/>
<path d="M188.39 25.3815C188.39 25.3815 206.967 42.38 209.249 66.5769" stroke="#3F9896" stroke-width="3" stroke-linecap="round" stroke-linejoin="round"/>
<path d="M170.795 105.599H197.838C197.2 102.212 196.563 98.7934 195.93 95.3907C190.49 66.0514 181.083 47.451 175.501 36.1867C169.92 24.9172 159.855 4.83225 157.426 9.08188C154.997 13.3315 166.55 53.3637 170.436 102.385C170.517 103.416 170.643 104.492 170.8 105.599H170.795Z" fill="#3F9896"/>
<path d="M164.956 26.8201C164.956 26.8201 178.958 63.6944 184.104 84.4375" stroke="#80C7A7" stroke-width="3" stroke-linecap="round" stroke-linejoin="round"/>
<path d="M240.037 105.599C240.148 102.87 240.148 100.008 240.148 97.064C240.148 77.9279 226.439 62.4191 209.522 62.4191C192.605 62.4191 178.897 77.933 178.897 97.064C178.897 100.008 178.897 102.87 179.008 105.599H240.031H240.037Z" fill="white"/>
<path d="M233.448 76.4944C233.448 76.4944 228.56 49.0478 223.469 48.3488C218.383 47.6499 212.149 66.8319 212.149 66.8319L233.443 76.4944H233.448Z" fill="#AE80C4"/>
<path d="M228.797 70.352C228.797 70.352 226.039 54.884 223.175 54.4912C220.306 54.0983 216.794 64.9086 216.794 64.9086L228.797 70.3571V70.352Z" fill="#FFCCCC"/>
<path d="M185.597 76.4944C185.597 76.4944 190.485 49.0478 195.576 48.3488C200.662 47.6499 206.896 66.8319 206.896 66.8319L185.602 76.4944H185.597Z" fill="#AE80C4"/>
<path d="M190.247 70.352C190.247 70.352 193.005 54.884 195.869 54.4912C198.739 54.0983 202.251 64.9086 202.251 64.9086L190.247 70.3571V70.352Z" fill="#FFCCCC"/>
<path d="M232.441 74.0864C226.647 67.1278 218.611 62.4854 209.72 62.4191C209.654 62.4191 209.593 62.4191 209.527 62.4191C209.497 62.4191 209.462 62.4191 209.431 62.4191C193.193 62.4752 179.929 76.8311 178.958 94.9417C186.386 95.0999 199.973 94.5183 202.752 86.2792C206.81 74.2344 206.764 71.607 209.533 71.6121C211.658 71.6121 213.141 79.0146 216.243 85.5905C219.507 92.5185 226.217 97.768 240.082 94.7428C239.622 86.8404 236.813 79.6625 232.446 74.0864H232.441Z" fill="#AE80C4"/>
<path d="M202.332 82.0449C202.205 82.0449 202.079 82.0092 201.962 81.9327L196.861 78.6217C196.548 78.4177 196.456 77.9943 196.659 77.6729C196.861 77.3566 197.286 77.2647 197.6 77.4688L202.701 80.7797C203.015 80.9838 203.106 81.4072 202.903 81.7286C202.772 81.9327 202.554 82.0449 202.332 82.0449Z" fill="#F4F0ED"/>
<path d="M216.607 82.0449C216.384 82.0449 216.162 81.9327 216.035 81.7286C215.833 81.4123 215.924 80.9838 216.238 80.7797L221.338 77.4688C221.652 77.2647 222.077 77.3566 222.28 77.6729C222.482 77.9892 222.391 78.4177 222.077 78.6217L216.976 81.9327C216.86 82.0092 216.733 82.0449 216.607 82.0449Z" fill="#F4F0ED"/>
<path d="M211.754 84.8099C211.754 85.4221 210.818 86.3761 209.669 86.3761C208.52 86.3761 207.584 85.4221 207.584 84.8099C207.584 84.1977 208.52 83.7029 209.669 83.7029C210.818 83.7029 211.754 84.1977 211.754 84.8099Z" fill="#3B1A54"/>
<path d="M207.306 88.8555C206.977 88.8555 206.739 88.7943 206.689 88.779C206.329 88.677 206.117 88.2994 206.218 87.9321C206.319 87.5699 206.694 87.3607 207.048 87.4526C207.083 87.4577 207.574 87.575 208.004 87.2536C208.485 86.9016 208.778 86.1211 208.854 84.9936C208.88 84.6161 209.168 84.3355 209.578 84.3559C209.952 84.3814 210.236 84.7079 210.211 85.0854C210.104 86.672 209.619 87.7842 208.773 88.3862C208.247 88.7637 207.701 88.8504 207.301 88.8504L207.306 88.8555Z" fill="#3B1A54"/>
<path d="M211.805 88.8555C211.4 88.8555 210.858 88.7637 210.332 88.3913C209.487 87.7893 209.001 86.6771 208.895 85.0905C208.87 84.713 209.153 84.3865 209.527 84.361C209.937 84.3508 210.231 84.6212 210.251 84.9987C210.327 86.1261 210.62 86.9067 211.101 87.2587C211.541 87.5801 212.037 87.4628 212.058 87.4577C212.422 87.3607 212.791 87.5852 212.888 87.9474C212.984 88.3096 212.776 88.682 212.417 88.7841C212.366 88.7994 212.134 88.8606 211.805 88.8606V88.8555Z" fill="#3B1A54"/>
<path d="M169.991 104.354C170.279 104.788 170.567 105.201 170.851 105.594H189.635C186.644 94.3142 170.775 67.1023 160.674 61.1794C148.707 54.1647 139.927 60.1488 136.749 70.3775C134.391 77.9585 138.151 103.752 140.256 116.593C140.494 118.052 142.568 118.067 142.831 116.613C144.83 105.64 148.585 86.1313 150.301 84.7181C150.301 84.7181 161.474 91.5237 169.991 104.349V104.354Z" fill="#80C7A7"/>
<path d="M181.508 105.599C173.801 83.7131 150.093 68.3063 150.093 68.3063" stroke="#3F9896" stroke-width="3" stroke-linecap="round" stroke-linejoin="round"/>
<path d="M255.805 105.599C255.805 105.599 271.158 52.6393 274.25 49.5018C277.337 46.3643 279.755 70.6326 282.949 70.9234C286.137 71.2142 288.292 38.7375 281.709 33.3502C275.12 27.9629 254.028 46.6449 246.276 60.0774C235.867 78.1116 231.565 105.604 231.565 105.604H255.805V105.599Z" fill="#3F9896"/>
<path d="M267.545 47.854C267.545 47.854 250.4 67.7298 243.255 105.471" stroke="#80C7A7" stroke-width="3" stroke-linecap="round" stroke-linejoin="round"/>
<path d="M151.525 81.8459C148.383 87.6056 144.835 105.645 142.837 116.618" stroke="#3F9896" stroke-width="3" stroke-linecap="round" stroke-linejoin="round"/>
<path d="M274.118 47.5632C274.118 47.5632 279.831 58.5113 281.835 70.6122" stroke="#80C7A7" stroke-width="3" stroke-linecap="round" stroke-linejoin="round"/>
</svg>
