<svg width="310" height="263" viewBox="0 0 310 263" fill="none" xmlns="http://www.w3.org/2000/svg">
<g clip-path="url(#clip0_442_4234)">
<path d="M310 165.177L252.276 150.533L268.471 93.1848L211.161 109.384L196.529 51.6221L155 94.3271L113.471 51.6221L98.8394 109.384L41.5291 93.1848L57.7239 150.533L0 165.177L42.6705 206.748L0 248.31L57.7239 262.954H252.276L310 248.31L267.33 206.748L310 165.177Z" fill="#C6ADD2"/>
<path d="M248.207 188.272C245.328 184.646 240.415 170.541 237.107 154.647C235.337 146.138 234.832 137.33 232.004 129.086C227.752 116.71 219.258 113.879 209.002 114.095C201.798 114.244 199.887 119.252 199.887 119.252C199.887 119.252 178.357 111.793 174.346 125.013C167.291 124.698 158.184 126.188 153.462 134.69C144.959 149.987 153.71 164.796 153.71 164.796C153.71 164.796 159.202 197.733 170.533 209.032L178.142 222.169L196.777 262.987H290.331C290.331 262.987 256.147 198.263 248.215 188.263L248.207 188.272Z" fill="#3B1A54"/>
<path d="M206.727 115.179C201.955 115.659 197.207 119.533 197.886 129.524C198.564 139.507 204.535 143.257 207.918 143.779C211.657 144.358 218.952 141.022 218.952 126.966C218.952 117.199 214.469 114.401 206.727 115.179Z" fill="#FFCCCC"/>
<path d="M208.762 144.913C208.415 144.913 208.075 144.888 207.745 144.838C204.279 144.3 197.53 140.418 196.802 129.59C196.082 118.978 201.401 114.633 206.612 114.103C211.094 113.656 214.337 114.401 216.545 116.396C218.886 118.507 220.019 121.967 220.019 126.958C220.019 136.031 217.074 140.459 214.601 142.578C212.856 144.077 210.739 144.913 208.762 144.913ZM209.018 116.131C208.332 116.131 207.604 116.172 206.827 116.247C201.368 116.801 198.423 121.735 198.944 129.441C199.589 138.911 205.197 142.264 208.075 142.711C209.333 142.909 211.334 142.545 213.195 140.948C215.321 139.118 217.86 135.211 217.86 126.958C217.86 122.604 216.959 119.674 215.098 117.993C213.716 116.743 211.715 116.131 209.01 116.131H209.018Z" fill="#3B1A54"/>
<path d="M180.119 117.712C175.347 118.2 170.599 122.066 171.277 132.057C171.956 142.04 177.927 145.79 181.31 146.312C185.049 146.891 192.344 143.555 192.344 129.499C192.344 119.732 187.861 116.934 180.119 117.712Z" fill="#FFCCCC"/>
<path d="M182.162 147.454C181.815 147.454 181.476 147.429 181.145 147.379C177.679 146.841 170.938 142.959 170.202 132.132C169.483 121.52 174.801 117.174 180.012 116.644C184.495 116.197 187.737 116.942 189.945 118.937C192.286 121.048 193.419 124.508 193.419 129.499C193.419 138.572 190.475 143 188.002 145.12C186.256 146.618 184.139 147.454 182.162 147.454ZM180.227 118.788C174.768 119.343 171.823 124.276 172.344 131.983C172.99 141.453 178.597 144.805 181.476 145.252C182.733 145.451 184.734 145.086 186.595 143.489C188.721 141.659 191.26 137.752 191.26 129.499C191.26 125.145 190.359 122.215 188.498 120.535C186.769 118.97 184.064 118.399 180.218 118.788H180.227Z" fill="#3B1A54"/>
<path d="M175.123 158.058C180.632 153.977 187.174 151.692 193.75 151.75C205.181 151.866 217.356 159.167 222.054 171.302C222.831 173.305 223.327 175.524 223.03 177.693C222.475 181.724 219.225 184.72 215.768 185.78C211.301 187.146 205.892 186.368 201.425 185.217C198.969 184.58 196.512 183.752 193.99 183.76C189.126 183.777 187.671 187.518 184.379 190.697C182.278 192.733 180.103 194.728 177.63 196.16C172.816 198.933 168.118 198.246 166.017 192.013C162.783 182.411 162.899 170.83 169.54 163.215C171.228 161.278 173.105 159.548 175.115 158.066L175.123 158.058Z" fill="#FFCCCC"/>
<path d="M191.02 198.784C190.847 198.784 190.665 198.743 190.499 198.652C189.978 198.362 189.788 197.717 190.078 197.195C190.127 197.112 194.776 188.843 203.617 192.162C204.171 192.369 204.453 192.99 204.246 193.545C204.039 194.099 203.419 194.381 202.865 194.174C195.785 191.517 192.112 197.957 191.963 198.23C191.765 198.586 191.401 198.784 191.02 198.784Z" fill="white"/>
<path d="M181.31 166.451C184.015 117.687 188.399 105.676 175 101.446C158.755 96.3138 154.396 107.836 154.396 107.836C154.396 107.836 163.552 36.1261 146.481 30.2571C135.621 26.5239 132.511 30.2571 132.511 30.2571C132.511 22.0704 127.002 13.0145 114.662 17.1286C107.259 19.5954 104.075 30.2571 101.048 49.2712C97.119 73.9638 90.4526 97.721 87.0035 116.512C80.7671 150.5 66.4003 178.09 59.4939 222.177C56.6156 240.546 46.0369 262.995 46.0369 262.995H167.431C193.32 204.008 179.664 196.218 181.31 166.451Z" fill="#FFC876"/>
<path d="M135.489 205.431C134.893 205.431 134.413 204.951 134.413 204.355C134.413 198.453 136.125 192.651 138.111 185.946C140.741 177.03 144.016 165.938 144.173 150.616C144.587 110.643 157.134 103.151 157.663 102.853C158.184 102.564 158.838 102.746 159.127 103.267C159.417 103.78 159.235 104.434 158.722 104.724C158.573 104.807 146.712 112.232 146.324 150.641C146.158 166.269 142.842 177.519 140.17 186.566C138.235 193.114 136.564 198.776 136.564 204.372C136.564 204.968 136.084 205.448 135.489 205.448V205.431Z" fill="#3B1A54"/>
<path d="M109.236 157.859C109.178 157.859 109.112 157.859 109.054 157.843C108.467 157.743 108.078 157.18 108.177 156.601C120.667 84.4766 131.353 30.5799 131.46 30.0502C131.576 29.4707 132.147 29.09 132.726 29.2058C133.305 29.3217 133.685 29.8846 133.57 30.4723C133.462 31.0104 122.776 84.8739 110.295 156.973C110.204 157.495 109.749 157.867 109.236 157.867V157.859Z" fill="#3B1A54"/>
<path d="M135.381 61.9362C131.146 61.9362 126.845 59.8833 126.556 59.7426C126.018 59.4859 125.795 58.8403 126.059 58.3105C126.316 57.7724 126.961 57.5489 127.499 57.8056C127.59 57.8552 137.192 62.4163 140.352 57.5158C143.809 52.1518 144.281 39.9669 143.875 36.2337C143.809 35.6459 144.239 35.1162 144.826 35.0499C145.43 34.9837 145.951 35.4142 146.009 36.0019C146.348 39.1557 146.257 52.3008 142.155 58.6747C140.559 61.1498 137.986 61.9279 135.381 61.9279V61.9362Z" fill="#3B1A54"/>
<path d="M172.46 136.916C171.89 136.916 171.41 136.875 171.071 136.825C164.04 135.931 158.854 135.012 156.051 131.279C153.85 128.341 153.321 123.813 154.405 117.025C155.232 111.826 157.316 108.259 160.591 106.421C165.579 103.623 171.402 105.991 171.642 106.09C172.22 106.33 172.493 106.992 172.254 107.563C172.014 108.143 171.36 108.416 170.781 108.176C170.732 108.151 165.703 106.131 161.683 108.399C159.053 109.881 157.349 112.894 156.638 117.372C155.662 123.506 156.051 127.488 157.862 129.913C160.128 132.943 164.677 133.729 171.352 134.574C172.287 134.69 174.652 134.822 176.364 133.473C177.481 132.595 178.151 131.196 178.349 129.309C178.416 128.688 178.978 128.249 179.598 128.307C180.219 128.374 180.665 128.937 180.599 129.557C180.326 132.066 179.375 133.978 177.762 135.252C176.042 136.61 173.949 136.908 172.46 136.908V136.916Z" fill="#3B1A54"/>
<path d="M104.067 37.8726C104.067 37.8726 95.0263 32.0865 89.2448 41.5893C83.4634 51.0922 81.4039 91.1732 77.2683 108.532C73.141 125.89 68.228 183.437 68.228 183.437L104.058 105.229V37.8726H104.067Z" fill="#FFC876"/>
<path d="M75.2502 157.859C75.1095 157.859 74.9689 157.834 74.8283 157.768C74.2824 157.536 74.026 156.899 74.2659 156.353C76.7638 150.525 81.9415 125.89 85.7213 107.894C87.2267 100.726 88.5252 94.5341 89.4433 90.5111C92.7104 76.1906 102.933 37.9638 103.033 37.583C103.19 37.0118 103.777 36.6724 104.348 36.8214C104.919 36.9787 105.266 37.5664 105.109 38.1376C105.009 38.5184 94.7947 76.7121 91.5359 90.9912C90.6178 94.9977 89.3193 101.181 87.8222 108.341C83.8107 127.43 78.8233 151.179 76.2427 157.205C76.069 157.611 75.672 157.859 75.2584 157.859H75.2502Z" fill="#3B1A54"/>
<path d="M108.492 50.1487C105.15 50.1487 102.321 49.1553 102.14 49.0891C101.577 48.8904 101.288 48.2779 101.486 47.715C101.685 47.1521 102.297 46.8624 102.859 47.061C102.925 47.0859 109.095 49.2215 113.289 46.9203C115.117 45.9187 116.333 44.1638 116.895 41.7136C119.335 31.1263 120.179 26.5156 120.187 26.4742C120.295 25.8865 120.857 25.4974 121.436 25.605C122.023 25.7127 122.404 26.2755 122.304 26.855C122.304 26.9047 121.444 31.5485 118.988 42.1937C118.276 45.273 116.705 47.4998 114.306 48.8077C112.47 49.8175 110.394 50.1404 108.483 50.1404L108.492 50.1487Z" fill="#3B1A54"/>
<path d="M87.9132 62.5984C85.8041 62.5984 84.1747 61.9031 84.0672 61.8534C83.5213 61.6134 83.2814 60.9843 83.513 60.4379C83.7446 59.8916 84.3732 59.6433 84.9274 59.8751C84.9604 59.8833 88.0042 61.1747 90.6923 59.8088C92.5781 58.8486 93.9015 56.7874 94.6211 53.675C94.7534 53.0956 95.3406 52.7396 95.9113 52.8638C96.4903 52.9962 96.8542 53.5757 96.7219 54.1551C95.8534 57.9298 94.1413 60.4793 91.6517 61.7376C90.378 62.3749 89.0794 62.5902 87.9297 62.5902L87.9132 62.5984Z" fill="#3B1A54"/>
<path d="M63.6377 83.9219C63.3564 83.9219 63.0752 83.8143 62.8685 83.5991L38.3695 58.3932C37.956 57.9711 37.9642 57.284 38.3943 56.8701C38.8244 56.4562 39.5027 56.4645 39.9162 56.895L64.4151 82.1008C64.8287 82.523 64.8204 83.21 64.3903 83.6239C64.1835 83.8309 63.9106 83.9302 63.6377 83.9302V83.9219Z" fill="#3B1A54"/>
<path d="M170.078 35.348C170.012 35.348 169.946 35.348 169.88 35.3314C169.292 35.2238 168.912 34.6609 169.019 34.0732L175.016 1.87261C175.123 1.28489 175.686 0.912391 176.273 1.01172C176.86 1.11934 177.241 1.68222 177.133 2.26995L171.137 34.4705C171.038 34.992 170.591 35.348 170.078 35.348Z" fill="#3B1A54"/>
<path d="M226.636 84.4849C226.297 84.4849 225.966 84.3276 225.759 84.0296C225.42 83.5412 225.536 82.8707 226.015 82.5313L249.844 65.6778C250.332 65.3384 251.002 65.4543 251.341 65.9344C251.681 66.4228 251.573 67.0933 251.085 67.4327L227.256 84.2862C227.066 84.4187 226.851 84.4849 226.636 84.4849Z" fill="#3B1A54"/>
<path d="M187.936 243.667L196.761 263.003H290.315C290.315 263.003 277.834 239.37 266.205 218.461C252.533 225.853 233.286 216.118 223.675 221.043C212.12 226.962 213.179 236.316 203.245 242.466C197.811 245.835 194.445 245.157 187.936 243.667Z" fill="white"/>
</g>
<defs>
<clipPath id="clip0_442_4234">
<rect width="310" height="262" fill="white" transform="translate(0 0.995117)"/>
</clipPath>
</defs>
</svg>
