<svg width="1048" height="417" viewBox="0 0 1048 417" fill="none" xmlns="http://www.w3.org/2000/svg">
<path d="M331.4 43.16C330.72 42.68 330.3 42.02 330.14 41.18C329.98 40.34 330.16 39.58 330.68 38.9C332.32 36.74 333.58 34.3 334.46 31.58C335.34 28.82 335.8 25.5 335.84 21.62C335.92 18.06 336.72 15.56 338.24 14.12C339.76 12.64 342.4 11.9 346.16 11.9H361.94C361.9 11.34 361.86 10.76 361.82 10.16C361.82 9.56 361.82 8.96 361.82 8.36C361.78 7.32 362.04 6.5 362.6 5.9C363.16 5.26 363.94 4.92 364.94 4.88C366.06 4.84 366.9 5.1 367.46 5.66C368.06 6.22 368.36 7.02 368.36 8.06C368.36 8.7 368.36 9.34 368.36 9.98C368.4 10.62 368.44 11.26 368.48 11.9H373.94L371.9 9.74C371.38 9.18 371.16 8.52 371.24 7.76C371.32 7 371.62 6.36 372.14 5.84C372.7 5.32 373.36 5.04 374.12 5C374.92 4.92 375.64 5.16 376.28 5.72C376.52 5.92 376.86 6.24 377.3 6.68C377.78 7.12 378.24 7.56 378.68 8C379.12 8.44 379.44 8.76 379.64 8.96C380 9.36 380.24 9.82 380.36 10.34C380.52 10.86 380.5 11.38 380.3 11.9H382.7C383.62 11.9 384.32 12.18 384.8 12.74C385.32 13.3 385.58 13.98 385.58 14.78C385.58 15.58 385.32 16.28 384.8 16.88C384.32 17.44 383.62 17.72 382.7 17.72H369.02C369.58 21.52 370.44 24.78 371.6 27.5C372.88 25.5 373.94 23.56 374.78 21.68C375.18 20.76 375.8 20.18 376.64 19.94C377.48 19.66 378.32 19.74 379.16 20.18C380.08 20.58 380.66 21.18 380.9 21.98C381.14 22.74 381.06 23.52 380.66 24.32C379.9 25.8 379.06 27.3 378.14 28.82C377.22 30.3 376.24 31.76 375.2 33.2C376 34.12 376.86 34.9 377.78 35.54C378.94 36.38 379.76 36.16 380.24 34.88C380.32 34.64 380.4 34.38 380.48 34.1C380.6 33.82 380.72 33.54 380.84 33.26C381.12 32.46 381.64 31.88 382.4 31.52C383.16 31.12 383.98 31.08 384.86 31.4C385.7 31.68 386.32 32.18 386.72 32.9C387.12 33.62 387.16 34.44 386.84 35.36C386.64 35.96 386.4 36.6 386.12 37.28C385.84 37.96 385.56 38.6 385.28 39.2C383 44.12 379.56 44.98 374.96 41.78C373.64 40.86 372.36 39.72 371.12 38.36C370.4 39.12 369.68 39.88 368.96 40.64C368.28 41.36 367.58 42.04 366.86 42.68C366.18 43.32 365.38 43.68 364.46 43.76C363.54 43.8 362.74 43.44 362.06 42.68C361.46 42.04 361.18 41.32 361.22 40.52C361.26 39.68 361.6 39 362.24 38.48C363.08 37.76 363.94 36.96 364.82 36.08C365.7 35.16 366.56 34.2 367.4 33.2C366.28 31.2 365.3 28.92 364.46 26.36C363.66 23.8 363.02 20.92 362.54 17.72H347.24C345.28 17.72 343.98 18.02 343.34 18.62C342.7 19.22 342.36 20.34 342.32 21.98C342.2 25.82 341.68 29.5 340.76 33.02C339.84 36.54 338.34 39.66 336.26 42.38C335.7 43.1 334.94 43.56 333.98 43.76C333.06 43.92 332.2 43.72 331.4 43.16ZM359.96 60.8C356.6 60.8 353.96 60.52 352.04 59.96C350.16 59.4 348.84 58.44 348.08 57.08C347.32 55.76 346.94 53.9 346.94 51.5V46.4C346.94 45.36 347.26 44.56 347.9 44C348.58 43.4 349.36 43.1 350.24 43.1C351.16 43.1 351.94 43.4 352.58 44C353.22 44.56 353.54 45.36 353.54 46.4V50.78C353.54 51.86 353.7 52.7 354.02 53.3C354.34 53.86 354.96 54.26 355.88 54.5C356.84 54.7 358.26 54.8 360.14 54.8C361.94 54.8 363.28 54.72 364.16 54.56C365.08 54.36 365.76 54.04 366.2 53.6C366.64 53.12 367.04 52.46 367.4 51.62C367.76 50.74 368.36 50.14 369.2 49.82C370.04 49.5 370.9 49.52 371.78 49.88C372.66 50.2 373.28 50.74 373.64 51.5C374 52.26 374.02 53.08 373.7 53.96C373.1 55.64 372.32 56.98 371.36 57.98C370.44 58.98 369.08 59.7 367.28 60.14C365.52 60.58 363.08 60.8 359.96 60.8ZM352.58 41C350.38 41 348.64 40.8 347.36 40.4C346.12 39.96 345.24 39.26 344.72 38.3C344.24 37.3 344 35.94 344 34.22C344 32.46 344.24 31.1 344.72 30.14C345.24 29.14 346.12 28.44 347.36 28.04C348.64 27.64 350.38 27.44 352.58 27.44C354.82 27.44 356.56 27.64 357.8 28.04C359.04 28.44 359.9 29.14 360.38 30.14C360.9 31.1 361.16 32.46 361.16 34.22C361.16 35.94 360.9 37.3 360.38 38.3C359.9 39.26 359.04 39.96 357.8 40.4C356.56 40.8 354.82 41 352.58 41ZM345.86 25.58C345.02 25.58 344.36 25.32 343.88 24.8C343.44 24.28 343.22 23.66 343.22 22.94C343.22 22.18 343.44 21.56 343.88 21.08C344.36 20.56 345.02 20.3 345.86 20.3H359.6C360.48 20.3 361.14 20.56 361.58 21.08C362.06 21.56 362.3 22.18 362.3 22.94C362.3 23.66 362.06 24.28 361.58 24.8C361.14 25.32 360.48 25.58 359.6 25.58H345.86ZM333.02 57.8C332.38 57.24 332 56.54 331.88 55.7C331.76 54.86 332 54.12 332.6 53.48C333.12 52.92 333.72 52.22 334.4 51.38C335.08 50.5 335.74 49.62 336.38 48.74C337.06 47.86 337.58 47.14 337.94 46.58C338.5 45.78 339.18 45.3 339.98 45.14C340.82 44.94 341.64 45.08 342.44 45.56C343.16 46 343.64 46.64 343.88 47.48C344.12 48.32 343.96 49.14 343.4 49.94C342.68 51.06 341.8 52.34 340.76 53.78C339.72 55.22 338.76 56.4 337.88 57.32C337.24 58.08 336.46 58.5 335.54 58.58C334.62 58.7 333.78 58.44 333.02 57.8ZM385.34 57.2C384.62 57.76 383.8 57.98 382.88 57.86C381.96 57.78 381.24 57.38 380.72 56.66C380.32 56.06 379.76 55.34 379.04 54.5C378.32 53.62 377.56 52.74 376.76 51.86C376 50.94 375.32 50.18 374.72 49.58C374.16 49.02 373.94 48.34 374.06 47.54C374.18 46.74 374.54 46.08 375.14 45.56C375.82 45 376.58 44.74 377.42 44.78C378.26 44.78 379 45.1 379.64 45.74C380.24 46.34 380.94 47.08 381.74 47.96C382.58 48.84 383.38 49.72 384.14 50.6C384.9 51.44 385.5 52.16 385.94 52.76C386.5 53.44 386.72 54.2 386.6 55.04C386.52 55.88 386.1 56.6 385.34 57.2ZM363.98 51.26C363.34 51.78 362.58 52.02 361.7 51.98C360.82 51.9 360.08 51.5 359.48 50.78C359.08 50.26 358.54 49.6 357.86 48.8C357.22 47.96 356.68 47.34 356.24 46.94C355.72 46.38 355.54 45.7 355.7 44.9C355.86 44.1 356.24 43.46 356.84 42.98C357.52 42.46 358.22 42.24 358.94 42.32C359.7 42.36 360.4 42.68 361.04 43.28C361.52 43.72 362.08 44.3 362.72 45.02C363.4 45.7 363.98 46.3 364.46 46.82C365.1 47.54 365.38 48.32 365.3 49.16C365.22 49.96 364.78 50.66 363.98 51.26ZM352.58 36.14C353.82 36.14 354.64 36.04 355.04 35.84C355.44 35.64 355.64 35.1 355.64 34.22C355.64 33.38 355.44 32.86 355.04 32.66C354.64 32.42 353.82 32.3 352.58 32.3C351.38 32.3 350.58 32.42 350.18 32.66C349.78 32.86 349.58 33.38 349.58 34.22C349.58 35.1 349.78 35.64 350.18 35.84C350.58 36.04 351.38 36.14 352.58 36.14ZM426.62 61.16C425.74 61.16 425 60.88 424.4 60.32C423.8 59.8 423.46 59.08 423.38 58.16C423.34 57.28 423.58 56.54 424.1 55.94C424.66 55.34 425.36 55 426.2 54.92C427.16 54.84 427.8 54.68 428.12 54.44C428.48 54.16 428.66 53.62 428.66 52.82V46.1C427.42 47.34 426.06 48.62 424.58 49.94C423.14 51.22 421.82 52.32 420.62 53.24C419.9 53.76 419.1 54.02 418.22 54.02C417.38 53.98 416.68 53.58 416.12 52.82C415.64 52.14 415.46 51.4 415.58 50.6C415.74 49.8 416.14 49.18 416.78 48.74C417.74 48.1 418.84 47.3 420.08 46.34C421.36 45.34 422.64 44.3 423.92 43.22C425.24 42.14 426.42 41.16 427.46 40.28C426.1 40.68 424.56 41.1 422.84 41.54C421.12 41.98 419.68 42.34 418.52 42.62C417.64 42.82 416.84 42.74 416.12 42.38C415.44 41.98 415 41.36 414.8 40.52C414.64 39.72 414.76 39 415.16 38.36C415.6 37.72 416.26 37.34 417.14 37.22L417.86 37.1V18.92C417.86 16.88 418.14 15.34 418.7 14.3C419.26 13.26 420.28 12.54 421.76 12.14C421.96 11.5 422.22 10.68 422.54 9.68C422.86 8.68 423.1 7.88 423.26 7.28C423.58 6.28 424.12 5.6 424.88 5.24C425.68 4.88 426.52 4.84 427.4 5.12C428.32 5.4 428.94 5.9 429.26 6.62C429.62 7.3 429.64 8.02 429.32 8.78C429.12 9.26 428.92 9.76 428.72 10.28C428.52 10.8 428.3 11.32 428.06 11.84C430.42 12 432.04 12.6 432.92 13.64C433.8 14.68 434.24 16.44 434.24 18.92V54.2C434.24 56.6 433.62 58.36 432.38 59.48C431.14 60.6 429.22 61.16 426.62 61.16ZM440.72 60.86C439.72 60.86 438.92 60.56 438.32 59.96C437.72 59.36 437.4 58.6 437.36 57.68C437.32 56.84 437.54 56.1 438.02 55.46C438.54 54.82 439.3 54.46 440.3 54.38C441.54 54.3 442.32 54.12 442.64 53.84C442.96 53.52 443.12 52.84 443.12 51.8V41.9C442.88 42.54 442.36 43.02 441.56 43.34C440.8 43.66 440.02 43.7 439.22 43.46C438.46 43.18 437.94 42.62 437.66 41.78C437.46 41.14 437.2 40.38 436.88 39.5C436.56 38.62 436.22 37.74 435.86 36.86C435.54 35.98 435.26 35.26 435.02 34.7C434.7 33.9 434.68 33.16 434.96 32.48C435.24 31.8 435.76 31.32 436.52 31.04C437.32 30.72 438.06 30.7 438.74 30.98C439.42 31.22 439.94 31.74 440.3 32.54C440.58 33.1 440.9 33.82 441.26 34.7C441.62 35.58 441.96 36.46 442.28 37.34C442.64 38.18 442.92 38.9 443.12 39.5V26.42H437.96C437 26.42 436.22 26.12 435.62 25.52C435.06 24.88 434.78 24.12 434.78 23.24C434.78 22.36 435.06 21.62 435.62 21.02C436.22 20.38 437 20.06 437.96 20.06H443.12V8.72C443.12 7.8 443.42 7.08 444.02 6.56C444.62 6 445.34 5.72 446.18 5.72C447.02 5.72 447.72 6 448.28 6.56C448.88 7.08 449.18 7.8 449.18 8.72V20.06H450.86C451.86 20.06 452.64 20.38 453.2 21.02C453.76 21.62 454.04 22.36 454.04 23.24C454.04 24.12 453.76 24.88 453.2 25.52C452.64 26.12 451.86 26.42 450.86 26.42H449.18V52.7C449.18 55.74 448.52 57.86 447.2 59.06C445.88 60.26 443.72 60.86 440.72 60.86ZM406.94 59.78C404.82 59.78 403.16 59.5 401.96 58.94C400.76 58.42 399.92 57.5 399.44 56.18C398.96 54.9 398.72 53.1 398.72 50.78C398.72 48.42 398.96 46.6 399.44 45.32C399.92 44 400.76 43.08 401.96 42.56C403.16 42.04 404.82 41.78 406.94 41.78C409.06 41.78 410.72 42.04 411.92 42.56C413.12 43.08 413.96 44 414.44 45.32C414.92 46.6 415.16 48.42 415.16 50.78C415.16 53.1 414.92 54.9 414.44 56.18C413.96 57.5 413.12 58.42 411.92 58.94C410.72 59.5 409.06 59.78 406.94 59.78ZM399.02 22.1C398.18 22.1 397.52 21.84 397.04 21.32C396.6 20.8 396.38 20.16 396.38 19.4C396.38 18.64 396.6 18 397.04 17.48C397.52 16.92 398.18 16.64 399.02 16.64H414.38C415.18 16.64 415.82 16.92 416.3 17.48C416.78 18 417.02 18.64 417.02 19.4C417.02 20.16 416.78 20.8 416.3 21.32C415.82 21.84 415.18 22.1 414.38 22.1H399.02ZM401.6 13.82C400.72 13.82 400.04 13.54 399.56 12.98C399.08 12.42 398.84 11.76 398.84 11C398.84 10.2 399.08 9.54 399.56 9.02C400.04 8.46 400.72 8.18 401.6 8.18H412.22C413.1 8.18 413.78 8.46 414.26 9.02C414.78 9.54 415.04 10.2 415.04 11C415.04 11.76 414.78 12.42 414.26 12.98C413.78 13.54 413.1 13.82 412.22 13.82H401.6ZM401.48 30.5C400.64 30.5 399.98 30.24 399.5 29.72C399.02 29.16 398.78 28.5 398.78 27.74C398.78 26.98 399.02 26.34 399.5 25.82C399.98 25.26 400.64 24.98 401.48 24.98H412.34C413.14 24.98 413.78 25.26 414.26 25.82C414.78 26.34 415.04 26.98 415.04 27.74C415.04 28.5 414.78 29.16 414.26 29.72C413.78 30.24 413.14 30.5 412.34 30.5H401.48ZM401.48 38.84C400.64 38.84 399.98 38.58 399.5 38.06C399.02 37.5 398.78 36.84 398.78 36.08C398.78 35.32 399.02 34.68 399.5 34.16C399.98 33.64 400.64 33.38 401.48 33.38H412.34C413.14 33.38 413.78 33.64 414.26 34.16C414.78 34.68 415.04 35.32 415.04 36.08C415.04 36.84 414.78 37.5 414.26 38.06C413.78 38.58 413.14 38.84 412.34 38.84H401.48ZM406.94 54.26C407.98 54.26 408.64 54.06 408.92 53.66C409.2 53.26 409.34 52.3 409.34 50.78C409.34 49.26 409.2 48.3 408.92 47.9C408.64 47.5 407.98 47.3 406.94 47.3C405.94 47.3 405.28 47.5 404.96 47.9C404.68 48.3 404.54 49.26 404.54 50.78C404.54 52.3 404.68 53.26 404.96 53.66C405.28 54.06 405.94 54.26 406.94 54.26ZM423.44 36.14C424.36 35.94 425.26 35.76 426.14 35.6C427.06 35.44 427.9 35.3 428.66 35.18V32.48H423.44V36.14ZM423.44 27.98H428.66V24.86H423.44V27.98ZM423.44 20.36H428.66V19.7C428.66 18.66 428.5 17.98 428.18 17.66C427.86 17.34 427.14 17.18 426.02 17.18C424.94 17.18 424.24 17.34 423.92 17.66C423.6 17.98 423.44 18.66 423.44 19.7V20.36ZM488.12 5.12L494.72 6.74C492.5 13.1 488.72 19.22 484.64 23.18C483.5 21.92 480.92 19.64 479.42 18.62C483.2 15.38 486.38 10.34 488.12 5.12ZM487.64 20.48L494.24 22.22C492.38 26.9 489.26 31.76 486.38 34.82C485.06 33.74 482.24 32 480.68 31.16C483.56 28.46 486.14 24.38 487.64 20.48ZM489.44 10.16H513.32V16.22H487.04L489.44 10.16ZM496.28 14.78H503.18V33.44C503.18 36.56 502.7 38.3 500.48 39.32C498.44 40.34 495.74 40.4 492.02 40.4C491.72 38.54 490.76 35.84 489.8 34.1C492.08 34.22 494.6 34.22 495.32 34.22C496.04 34.16 496.28 33.98 496.28 33.32V14.78ZM504.5 22.52L510.38 20C513.2 23.96 515.96 29.12 517.22 32.72L511.04 35.66C509.9 32.12 507.08 26.54 504.5 22.52ZM511.52 10.16H512.54L513.62 9.98L518.72 11.06C517.4 15.14 515.66 19.7 514.22 22.58L508.1 21.38C509.24 18.74 510.68 14.48 511.52 11V10.16ZM478.22 42.68H485.36V51.92C485.36 53.72 485.84 53.9 488.66 53.9C489.92 53.9 495.2 53.9 496.82 53.9C499.1 53.9 499.52 53.18 499.82 47.96C501.26 49.04 504.26 50.12 506.18 50.54C505.4 58.34 503.36 60.32 497.42 60.32C495.8 60.32 489.38 60.32 487.76 60.32C480.08 60.32 478.22 58.28 478.22 51.98V42.68ZM483.32 41L488.12 36.92C491.78 38.9 496.28 42.02 498.38 44.48L493.22 49.04C491.3 46.58 486.98 43.16 483.32 41ZM502.7 44.96L508.64 41.72C512.9 45.68 517.4 51.2 519.2 55.4L512.78 59C511.22 54.92 506.96 49.1 502.7 44.96ZM470.78 42.86L477.26 45.02C475.64 50.6 473.3 56.12 468.74 59.6L462.74 55.46C466.82 52.58 469.46 47.9 470.78 42.86ZM476.24 5.06L482.6 7.22C478.7 14.78 472.46 22.46 466.46 27.26C465.68 25.82 463.46 22.76 462.14 21.44C467.6 17.54 473.06 11.3 476.24 5.06ZM471.08 17.6L477.8 10.82L477.98 10.88V40.28H471.08V17.6ZM542.36 56.24C539.48 56.24 537.24 55.96 535.64 55.4C534.04 54.84 532.92 53.9 532.28 52.58C531.68 51.22 531.38 49.4 531.38 47.12V25.64C531.38 22.92 531.8 20.88 532.64 19.52C533.52 18.12 535.18 17.22 537.62 16.82C537.86 15.74 538.14 14.44 538.46 12.92C538.78 11.4 539.02 10.16 539.18 9.2C539.38 8.08 539.86 7.28 540.62 6.8C541.38 6.32 542.3 6.18 543.38 6.38C544.46 6.58 545.24 7.08 545.72 7.88C546.2 8.68 546.32 9.6 546.08 10.64C545.92 11.4 545.68 12.36 545.36 13.52C545.04 14.68 544.76 15.7 544.52 16.58C546.88 16.7 548.7 17.08 549.98 17.72C551.26 18.36 552.14 19.32 552.62 20.6C553.1 21.88 553.34 23.56 553.34 25.64V47.12C553.34 49.4 553.02 51.22 552.38 52.58C551.78 53.9 550.68 54.84 549.08 55.4C547.52 55.96 545.28 56.24 542.36 56.24ZM568.46 60.74C567.38 60.78 566.44 60.54 565.64 60.02C564.88 59.54 564.4 58.7 564.2 57.5C564.08 56.46 564.34 55.58 564.98 54.86C565.62 54.1 566.48 53.68 567.56 53.6C569.4 53.44 570.78 53.24 571.7 53C572.62 52.72 573.28 52.24 573.68 51.56C574.08 50.88 574.4 49.84 574.64 48.44C575.08 45.88 575.36 43 575.48 39.8C575.6 36.6 575.66 32.56 575.66 27.68C575.66 25.68 575.34 24.38 574.7 23.78C574.06 23.18 572.78 22.88 570.86 22.88H563.66C563.14 24.12 562.58 25.28 561.98 26.36C561.38 27.44 560.8 28.44 560.24 29.36C559.72 30.24 559 30.84 558.08 31.16C557.16 31.44 556.26 31.34 555.38 30.86C554.58 30.42 554.02 29.76 553.7 28.88C553.42 28 553.52 27.16 554 26.36C554.96 24.8 555.92 23.04 556.88 21.08C557.84 19.08 558.72 17.02 559.52 14.9C560.32 12.78 560.96 10.76 561.44 8.84C561.68 7.8 562.2 7.02 563 6.5C563.84 5.98 564.76 5.84 565.76 6.08C566.68 6.28 567.4 6.76 567.92 7.52C568.44 8.28 568.58 9.18 568.34 10.22C567.82 12.26 567.16 14.36 566.36 16.52H571.52C574.2 16.52 576.34 16.8 577.94 17.36C579.54 17.92 580.7 19 581.42 20.6C582.14 22.16 582.5 24.44 582.5 27.44C582.5 30.84 582.46 33.84 582.38 36.44C582.34 39.04 582.24 41.38 582.08 43.46C581.92 45.54 581.7 47.54 581.42 49.46C580.98 52.42 580.26 54.7 579.26 56.3C578.3 57.9 576.94 59 575.18 59.6C573.46 60.24 571.22 60.62 568.46 60.74ZM570.26 44.12C569.46 44.68 568.6 44.9 567.68 44.78C566.76 44.66 566.02 44.18 565.46 43.34C564.98 42.58 564.38 41.7 563.66 40.7C562.98 39.7 562.28 38.72 561.56 37.76C560.88 36.8 560.28 36.02 559.76 35.42C559.24 34.74 559.02 33.96 559.1 33.08C559.22 32.16 559.64 31.44 560.36 30.92C561.08 30.32 561.9 30.08 562.82 30.2C563.74 30.28 564.5 30.68 565.1 31.4C565.7 32.08 566.36 32.88 567.08 33.8C567.84 34.72 568.56 35.66 569.24 36.62C569.92 37.58 570.5 38.44 570.98 39.2C571.54 40.08 571.74 40.98 571.58 41.9C571.46 42.82 571.02 43.56 570.26 44.12ZM542.36 49.94C543.96 49.94 545.02 49.7 545.54 49.22C546.06 48.7 546.32 47.76 546.32 46.4V39.2H538.4V46.4C538.4 47.76 538.66 48.7 539.18 49.22C539.7 49.7 540.76 49.94 542.36 49.94ZM538.4 33.08H546.32V26.36C546.32 25 546.06 24.08 545.54 23.6C545.02 23.08 543.96 22.82 542.36 22.82C540.76 22.82 539.7 23.08 539.18 23.6C538.66 24.08 538.4 25 538.4 26.36V33.08ZM626.6 43.34C623.32 43.34 621.04 42.74 619.76 41.54C618.48 40.34 617.84 38.46 617.84 35.9V25.22C617.84 22.62 618.48 20.72 619.76 19.52C621.04 18.32 623.32 17.72 626.6 17.72H628.1V15.32H616.22C615.42 15.32 614.78 15.06 614.3 14.54C613.82 14.02 613.58 13.38 613.58 12.62C613.58 11.9 613.82 11.28 614.3 10.76C614.78 10.24 615.42 9.98 616.22 9.98H628.1V8.3C628.1 7.26 628.44 6.44 629.12 5.84C629.8 5.2 630.62 4.88 631.58 4.88C632.54 4.88 633.34 5.2 633.98 5.84C634.66 6.44 635 7.26 635 8.3V9.98H647.78C648.62 9.98 649.26 10.24 649.7 10.76C650.18 11.28 650.42 11.9 650.42 12.62C650.42 13.38 650.18 14.02 649.7 14.54C649.26 15.06 648.62 15.32 647.78 15.32H635V17.72H637.52C640.8 17.72 643.08 18.32 644.36 19.52C645.64 20.72 646.28 22.62 646.28 25.22V35.9C646.28 38.46 645.64 40.34 644.36 41.54C643.08 42.74 640.8 43.34 637.52 43.34H626.6ZM599.42 49.82C598.34 50.14 597.38 50.1 596.54 49.7C595.7 49.3 595.12 48.6 594.8 47.6C594.52 46.56 594.6 45.66 595.04 44.9C595.52 44.1 596.28 43.56 597.32 43.28C598 43.08 598.74 42.88 599.54 42.68C600.38 42.44 601.24 42.18 602.12 41.9V25.82H597.98C596.98 25.82 596.2 25.5 595.64 24.86C595.08 24.22 594.8 23.46 594.8 22.58C594.8 21.66 595.08 20.9 595.64 20.3C596.2 19.66 596.98 19.34 597.98 19.34H602.12V9.38C602.12 8.34 602.42 7.54 603.02 6.98C603.66 6.42 604.42 6.14 605.3 6.14C606.22 6.14 606.98 6.42 607.58 6.98C608.22 7.54 608.54 8.34 608.54 9.38V19.34H611.9C612.9 19.34 613.68 19.66 614.24 20.3C614.84 20.9 615.14 21.66 615.14 22.58C615.14 23.46 614.84 24.22 614.24 24.86C613.68 25.5 612.9 25.82 611.9 25.82H608.54V40.04C609.22 39.8 609.88 39.58 610.52 39.38C611.2 39.18 611.82 39 612.38 38.84C613.14 38.6 613.86 38.66 614.54 39.02C615.22 39.38 615.7 39.96 615.98 40.76C616.26 41.64 616.22 42.46 615.86 43.22C615.5 43.94 614.8 44.5 613.76 44.9C612.64 45.3 611.18 45.82 609.38 46.46C607.62 47.06 605.84 47.68 604.04 48.32C602.24 48.92 600.7 49.42 599.42 49.82ZM618.26 60.68C617.34 61.12 616.4 61.24 615.44 61.04C614.52 60.88 613.84 60.36 613.4 59.48C613 58.68 612.9 57.86 613.1 57.02C613.34 56.18 613.92 55.58 614.84 55.22C616.08 54.7 617.5 54.02 619.1 53.18C620.74 52.3 622.18 51.48 623.42 50.72H614.54C613.74 50.72 613.1 50.46 612.62 49.94C612.18 49.42 611.96 48.8 611.96 48.08C611.96 47.36 612.18 46.74 612.62 46.22C613.1 45.7 613.74 45.44 614.54 45.44H648.68C649.48 45.44 650.1 45.7 650.54 46.22C651.02 46.74 651.26 47.36 651.26 48.08C651.26 48.8 651.02 49.42 650.54 49.94C650.1 50.46 649.48 50.72 648.68 50.72H640.28C641.52 51.48 642.94 52.3 644.54 53.18C646.18 54.02 647.62 54.7 648.86 55.22C649.78 55.58 650.36 56.18 650.6 57.02C650.84 57.86 650.74 58.68 650.3 59.48C649.86 60.36 649.16 60.88 648.2 61.04C647.28 61.24 646.36 61.12 645.44 60.68C644.52 60.24 643.42 59.68 642.14 59C640.9 58.32 639.68 57.6 638.48 56.84C637.32 56.08 636.32 55.38 635.48 54.74C634.84 54.26 634.5 53.64 634.46 52.88C634.46 52.12 634.66 51.44 635.06 50.84L635.18 50.72H628.52L628.58 50.84C629.02 51.44 629.24 52.12 629.24 52.88C629.24 53.64 628.9 54.26 628.22 54.74C627.38 55.38 626.36 56.08 625.16 56.84C623.96 57.6 622.74 58.32 621.5 59C620.26 59.68 619.18 60.24 618.26 60.68ZM628.28 38.66H635.84C637.32 38.66 638.26 38.5 638.66 38.18C639.1 37.82 639.34 37.06 639.38 35.9H624.74C624.74 37.06 624.96 37.82 625.4 38.18C625.84 38.5 626.8 38.66 628.28 38.66ZM624.74 31.76H639.38V29.18H624.74V31.76ZM624.74 25.04H639.38C639.34 23.92 639.1 23.2 638.66 22.88C638.22 22.56 637.28 22.4 635.84 22.4H628.28C626.84 22.4 625.9 22.56 625.46 22.88C625.02 23.2 624.78 23.92 624.74 25.04ZM703.88 62.06C702.96 62.06 702.2 61.8 701.6 61.28C701 60.76 700.66 60 700.58 59C700.54 58.16 700.8 57.44 701.36 56.84C701.92 56.28 702.64 55.98 703.52 55.94C705.04 55.82 706.02 55.62 706.46 55.34C706.94 55.06 707.28 54.36 707.48 53.24C707.56 52.56 707.64 51.92 707.72 51.32C707.84 50.72 707.94 49.98 708.02 49.1C708.14 47.7 707.92 46.76 707.36 46.28C706.84 45.8 705.84 45.56 704.36 45.56H676.04C675.64 45.92 675.24 46.26 674.84 46.58C674.48 46.9 674.08 47.22 673.64 47.54C674.28 47.22 674.92 47.14 675.56 47.3C676.4 47.46 677.04 47.86 677.48 48.5C677.92 49.14 678.04 49.9 677.84 50.78C677.6 51.78 677.26 52.9 676.82 54.14C676.38 55.34 676 56.36 675.68 57.2C675.36 58 674.8 58.6 674 59C673.2 59.44 672.38 59.52 671.54 59.24C670.7 58.96 670.1 58.44 669.74 57.68C669.42 56.96 669.42 56.22 669.74 55.46C670.1 54.66 670.5 53.7 670.94 52.58C671.38 51.42 671.7 50.46 671.9 49.7C672.1 49.06 672.4 48.54 672.8 48.14C671.6 49.02 670.38 49.86 669.14 50.66C667.9 51.42 666.66 52.12 665.42 52.76C664.66 53.16 663.84 53.28 662.96 53.12C662.08 52.92 661.42 52.44 660.98 51.68C660.58 50.96 660.48 50.22 660.68 49.46C660.92 48.66 661.42 48.06 662.18 47.66C664.54 46.5 667 45.04 669.56 43.28C672.16 41.48 674.44 39.6 676.4 37.64C674.52 37.2 673.2 36.38 672.44 35.18C671.72 33.98 671.36 32.22 671.36 29.9V26.66C671.36 24.06 671.82 22.18 672.74 21.02C673.7 19.86 675.4 19.06 677.84 18.62C678.96 18.42 680.16 18.16 681.44 17.84C682.72 17.52 683.94 17.22 685.1 16.94C685.82 16.78 686.52 16.88 687.2 17.24C687.88 17.56 688.3 18.1 688.46 18.86C688.66 19.62 688.58 20.3 688.22 20.9C687.86 21.46 687.3 21.84 686.54 22.04C685.66 22.24 684.7 22.46 683.66 22.7C682.62 22.9 681.66 23.08 680.78 23.24C679.74 23.44 679 23.7 678.56 24.02C678.12 24.34 677.86 24.94 677.78 25.82H685.94C686.7 25.82 687.28 26.04 687.68 26.48C688.08 26.92 688.28 27.48 688.28 28.16C688.28 28.8 688.08 29.36 687.68 29.84C687.28 30.28 686.7 30.5 685.94 30.5H677.78C677.86 31.66 678.18 32.42 678.74 32.78C679.3 33.1 680.4 33.26 682.04 33.26H696.14C697.78 33.26 698.88 33.12 699.44 32.84C700.04 32.52 700.36 31.74 700.4 30.5H692.36C691.64 30.5 691.06 30.28 690.62 29.84C690.22 29.36 690.02 28.8 690.02 28.16C690.02 27.48 690.22 26.92 690.62 26.48C691.06 26.04 691.64 25.82 692.36 25.82H700.4C700.36 24.66 700.04 23.92 699.44 23.6C698.88 23.28 697.78 23.12 696.14 23.12H692.48C691.76 23.12 691.14 22.9 690.62 22.46C690.14 21.98 689.9 21.38 689.9 20.66C689.9 19.9 690.14 19.3 690.62 18.86C691.14 18.38 691.76 18.14 692.48 18.14H697.22C699.7 18.14 701.64 18.4 703.04 18.92C704.44 19.44 705.42 20.3 705.98 21.5C706.54 22.7 706.82 24.3 706.82 26.3V29.9C706.82 31.9 706.54 33.5 705.98 34.7C705.42 35.9 704.44 36.76 703.04 37.28C701.64 37.8 699.7 38.06 697.22 38.06H683.48C683.16 38.46 682.82 38.86 682.46 39.26C682.1 39.66 681.74 40.08 681.38 40.52H704.66C708.38 40.52 711.04 41.22 712.64 42.62C714.24 43.98 714.88 46.2 714.56 49.28C714.44 50.76 714.32 51.86 714.2 52.58C714.12 53.3 714 54.12 713.84 55.04C713.4 57.72 712.42 59.56 710.9 60.56C709.42 61.56 707.08 62.06 703.88 62.06ZM665.78 24.08C664.9 24.08 664.14 23.8 663.5 23.24C662.86 22.64 662.54 21.86 662.54 20.9V18.62C662.54 15.66 663.3 13.54 664.82 12.26C666.38 10.98 668.98 10.34 672.62 10.34H685.34V8.18C685.34 7.1 685.7 6.26 686.42 5.66C687.14 5.02 688 4.7 689 4.7C690 4.7 690.84 5.02 691.52 5.66C692.24 6.26 692.6 7.1 692.6 8.18V10.34H705.56C709.2 10.34 711.78 10.98 713.3 12.26C714.86 13.54 715.64 15.66 715.64 18.62V20.9C715.64 21.86 715.32 22.64 714.68 23.24C714.04 23.8 713.28 24.08 712.4 24.08C711.52 24.08 710.76 23.82 710.12 23.3C709.48 22.78 709.16 22.02 709.16 21.02V18.56C709.16 17.48 708.88 16.72 708.32 16.28C707.8 15.8 706.84 15.56 705.44 15.56H672.74C671.34 15.56 670.36 15.8 669.8 16.28C669.28 16.72 669.02 17.48 669.02 18.56V21.02C669.02 22.02 668.7 22.78 668.06 23.3C667.46 23.82 666.7 24.08 665.78 24.08ZM684.62 58.58C683.74 58.78 682.96 58.66 682.28 58.22C681.64 57.82 681.26 57.18 681.14 56.3C681.02 55.54 680.86 54.6 680.66 53.48C680.5 52.32 680.36 51.44 680.24 50.84C680.08 50.04 680.24 49.38 680.72 48.86C681.2 48.3 681.78 47.96 682.46 47.84C683.26 47.72 683.98 47.82 684.62 48.14C685.26 48.46 685.66 49.06 685.82 49.94C685.9 50.3 686 50.86 686.12 51.62C686.28 52.34 686.44 53.06 686.6 53.78C686.76 54.5 686.86 55.02 686.9 55.34C687.06 56.22 686.92 56.94 686.48 57.5C686.04 58.06 685.42 58.42 684.62 58.58ZM693.8 57.38C692.92 57.62 692.14 57.54 691.46 57.14C690.78 56.74 690.34 56.1 690.14 55.22C689.98 54.42 689.76 53.52 689.48 52.52C689.2 51.48 688.98 50.7 688.82 50.18C688.62 49.38 688.74 48.7 689.18 48.14C689.62 47.54 690.18 47.16 690.86 47C691.66 46.8 692.36 46.86 692.96 47.18C693.6 47.5 694.06 48.08 694.34 48.92C694.46 49.28 694.62 49.8 694.82 50.48C695.02 51.12 695.22 51.78 695.42 52.46C695.62 53.1 695.76 53.6 695.84 53.96C696.08 54.84 696 55.58 695.6 56.18C695.2 56.78 694.6 57.18 693.8 57.38ZM702.68 55.28C701.88 55.6 701.12 55.62 700.4 55.34C699.68 55.06 699.16 54.52 698.84 53.72C698.56 52.96 698.24 52.14 697.88 51.26C697.52 50.34 697.24 49.62 697.04 49.1C696.72 48.38 696.74 47.72 697.1 47.12C697.46 46.48 697.96 46.06 698.6 45.86C699.4 45.54 700.1 45.5 700.7 45.74C701.34 45.94 701.84 46.44 702.2 47.24C702.36 47.56 702.56 48.02 702.8 48.62C703.08 49.18 703.34 49.76 703.58 50.36C703.86 50.96 704.06 51.42 704.18 51.74C704.54 52.58 704.56 53.32 704.24 53.96C703.92 54.56 703.4 55 702.68 55.28Z" fill="#AE80C4"/>
<g clip-path="url(#clip0_1689_4970)">
<path d="M711.4 298.34L641.61 280.65L661.19 211.37L591.9 230.94L574.21 161.16L524 212.75L473.79 161.16L456.1 230.94L386.81 211.37L406.39 280.65L336.6 298.34L388.19 348.56L336.6 398.77L406.39 416.46H641.61L711.4 398.77L659.81 348.56L711.4 298.34Z" fill="#FFFAEC"/>
<path d="M636.69 326.24C633.21 321.86 627.27 304.82 623.27 285.62C621.13 275.34 620.52 264.7 617.1 254.74C611.96 239.79 601.69 236.37 589.29 236.63C580.58 236.81 578.27 242.86 578.27 242.86C578.27 242.86 552.24 233.85 547.39 249.82C538.86 249.44 527.85 251.24 522.14 261.51C511.86 279.99 522.44 297.88 522.44 297.88C522.44 297.88 529.08 337.67 542.78 351.32L551.98 367.19L574.51 416.5H687.62C687.62 416.5 646.29 338.31 636.7 326.23L636.69 326.24Z" fill="#3B1A54"/>
<path d="M586.54 237.94C580.77 238.52 575.03 243.2 575.85 255.27C576.67 267.33 583.89 271.86 587.98 272.49C592.5 273.19 601.32 269.16 601.32 252.18C601.32 240.38 595.9 237 586.54 237.94Z" fill="#FFCCCC"/>
<path d="M588.999 273.86C588.579 273.86 588.169 273.83 587.769 273.77C583.579 273.12 575.419 268.43 574.539 255.35C573.669 242.53 580.099 237.28 586.399 236.64C591.819 236.1 595.739 237 598.409 239.41C601.239 241.96 602.609 246.14 602.609 252.17C602.609 263.13 599.049 268.48 596.059 271.04C593.949 272.85 591.389 273.86 588.999 273.86ZM589.309 239.09C588.479 239.09 587.599 239.14 586.659 239.23C580.059 239.9 576.499 245.86 577.129 255.17C577.909 266.61 584.689 270.66 588.169 271.2C589.689 271.44 592.109 271 594.359 269.07C596.929 266.86 599.999 262.14 599.999 252.17C599.999 246.91 598.909 243.37 596.659 241.34C594.989 239.83 592.569 239.09 589.299 239.09H589.309Z" fill="#3B1A54"/>
<path d="M554.37 241C548.6 241.59 542.86 246.26 543.68 258.33C544.5 270.39 551.72 274.92 555.81 275.55C560.33 276.25 569.15 272.22 569.15 255.24C569.15 243.44 563.73 240.06 554.37 241Z" fill="#FFCCCC"/>
<path d="M556.84 276.93C556.42 276.93 556.01 276.9 555.61 276.84C551.42 276.19 543.27 271.5 542.38 258.42C541.51 245.6 547.94 240.35 554.24 239.71C559.66 239.17 563.58 240.07 566.25 242.48C569.08 245.03 570.45 249.21 570.45 255.24C570.45 266.2 566.89 271.55 563.9 274.11C561.79 275.92 559.23 276.93 556.84 276.93ZM554.5 242.3C547.9 242.97 544.34 248.93 544.97 258.24C545.75 269.68 552.53 273.73 556.01 274.27C557.53 274.51 559.95 274.07 562.2 272.14C564.77 269.93 567.84 265.21 567.84 255.24C567.84 249.98 566.75 246.44 564.5 244.41C562.41 242.52 559.14 241.83 554.49 242.3H554.5Z" fill="#3B1A54"/>
<path d="M548.33 289.74C554.99 284.81 562.9 282.05 570.85 282.12C584.67 282.26 599.39 291.08 605.07 305.74C606.01 308.16 606.61 310.84 606.25 313.46C605.58 318.33 601.65 321.95 597.47 323.23C592.07 324.88 585.53 323.94 580.13 322.55C577.16 321.78 574.19 320.78 571.14 320.79C565.26 320.81 563.5 325.33 559.52 329.17C556.98 331.63 554.35 334.04 551.36 335.77C545.54 339.12 539.86 338.29 537.32 330.76C533.41 319.16 533.55 305.17 541.58 295.97C543.62 293.63 545.89 291.54 548.32 289.75L548.33 289.74Z" fill="#FFCCCC"/>
<path d="M567.55 338.94C567.34 338.94 567.12 338.89 566.92 338.78C566.29 338.43 566.06 337.65 566.41 337.02C566.47 336.92 572.09 326.93 582.78 330.94C583.45 331.19 583.79 331.94 583.54 332.61C583.29 333.28 582.54 333.62 581.87 333.37C573.31 330.16 568.87 337.94 568.69 338.27C568.45 338.7 568.01 338.94 567.55 338.94Z" fill="white"/>
<path d="M555.81 299.88C559.08 240.97 564.38 226.46 548.18 221.35C528.54 215.15 523.27 229.07 523.27 229.07C523.27 229.07 534.34 142.44 513.7 135.35C500.57 130.84 496.81 135.35 496.81 135.35C496.81 125.46 490.15 114.52 475.23 119.49C466.28 122.47 462.43 135.35 458.77 158.32C454.02 188.15 445.96 216.85 441.79 239.55C434.25 280.61 416.88 313.94 408.53 367.2C405.05 389.39 392.26 416.51 392.26 416.51H539.03C570.33 345.25 553.82 335.84 555.81 299.88Z" fill="#FFC876"/>
<path d="M500.409 346.97C499.689 346.97 499.109 346.39 499.109 345.67C499.109 338.54 501.179 331.53 503.579 323.43C506.759 312.66 510.719 299.26 510.909 280.75C511.409 232.46 526.579 223.41 527.219 223.05C527.849 222.7 528.639 222.92 528.989 223.55C529.339 224.17 529.119 224.96 528.499 225.31C528.319 225.41 513.979 234.38 513.509 280.78C513.309 299.66 509.299 313.25 506.069 324.18C503.729 332.09 501.709 338.93 501.709 345.69C501.709 346.41 501.129 346.99 500.409 346.99V346.97Z" fill="#3B1A54"/>
<path d="M468.67 289.5C468.6 289.5 468.52 289.5 468.45 289.48C467.74 289.36 467.27 288.68 467.39 287.98C482.49 200.85 495.41 135.74 495.54 135.1C495.68 134.4 496.37 133.94 497.07 134.08C497.77 134.22 498.23 134.9 498.09 135.61C497.96 136.26 485.04 201.33 469.95 288.43C469.84 289.06 469.29 289.51 468.67 289.51V289.5Z" fill="#3B1A54"/>
<path d="M500.28 173.62C495.16 173.62 489.96 171.14 489.61 170.97C488.96 170.66 488.69 169.88 489.01 169.24C489.32 168.59 490.1 168.32 490.75 168.63C490.86 168.69 502.47 174.2 506.29 168.28C510.47 161.8 511.04 147.08 510.55 142.57C510.47 141.86 510.99 141.22 511.7 141.14C512.43 141.06 513.06 141.58 513.13 142.29C513.54 146.1 513.43 161.98 508.47 169.68C506.54 172.67 503.43 173.61 500.28 173.61V173.62Z" fill="#3B1A54"/>
<path d="M545.109 264.2C544.419 264.2 543.839 264.15 543.429 264.09C534.929 263.01 528.659 261.9 525.269 257.39C522.609 253.84 521.969 248.37 523.279 240.17C524.279 233.89 526.799 229.58 530.759 227.36C536.789 223.98 543.829 226.84 544.119 226.96C544.819 227.25 545.149 228.05 544.859 228.74C544.569 229.44 543.779 229.77 543.079 229.48C543.019 229.45 536.939 227.01 532.079 229.75C528.899 231.54 526.839 235.18 525.979 240.59C524.799 248 525.269 252.81 527.459 255.74C530.199 259.4 535.699 260.35 543.769 261.37C544.899 261.51 547.759 261.67 549.829 260.04C551.179 258.98 551.989 257.29 552.229 255.01C552.309 254.26 552.989 253.73 553.739 253.8C554.489 253.88 555.029 254.56 554.949 255.31C554.619 258.34 553.469 260.65 551.519 262.19C549.439 263.83 546.909 264.19 545.109 264.19V264.2Z" fill="#3B1A54"/>
<path d="M462.42 144.55C462.42 144.55 451.49 137.56 444.5 149.04C437.51 160.52 435.02 208.94 430.02 229.91C425.03 250.88 419.09 320.4 419.09 320.4L462.41 225.92V144.55H462.42Z" fill="#FFC876"/>
<path d="M427.58 289.5C427.41 289.5 427.24 289.47 427.07 289.39C426.41 289.11 426.1 288.34 426.39 287.68C429.41 280.64 435.67 250.88 440.24 229.14C442.06 220.48 443.63 213 444.74 208.14C448.69 190.84 461.05 144.66 461.17 144.2C461.36 143.51 462.07 143.1 462.76 143.28C463.45 143.47 463.87 144.18 463.68 144.87C463.56 145.33 451.21 191.47 447.27 208.72C446.16 213.56 444.59 221.03 442.78 229.68C437.93 252.74 431.9 281.43 428.78 288.71C428.57 289.2 428.09 289.5 427.59 289.5H427.58Z" fill="#3B1A54"/>
<path d="M467.77 159.38C463.73 159.38 460.31 158.18 460.09 158.1C459.41 157.86 459.06 157.12 459.3 156.44C459.54 155.76 460.28 155.41 460.96 155.65C461.04 155.68 468.5 158.26 473.57 155.48C475.78 154.27 477.25 152.15 477.93 149.19C480.88 136.4 481.9 130.83 481.91 130.78C482.04 130.07 482.72 129.6 483.42 129.73C484.13 129.86 484.59 130.54 484.47 131.24C484.47 131.3 483.43 136.91 480.46 149.77C479.6 153.49 477.7 156.18 474.8 157.76C472.58 158.98 470.07 159.37 467.76 159.37L467.77 159.38Z" fill="#3B1A54"/>
<path d="M442.89 174.42C440.34 174.42 438.37 173.58 438.24 173.52C437.58 173.23 437.29 172.47 437.57 171.81C437.85 171.15 438.61 170.85 439.28 171.13C439.32 171.14 443 172.7 446.25 171.05C448.53 169.89 450.13 167.4 451 163.64C451.16 162.94 451.87 162.51 452.56 162.66C453.26 162.82 453.7 163.52 453.54 164.22C452.49 168.78 450.42 171.86 447.41 173.38C445.87 174.15 444.3 174.41 442.91 174.41L442.89 174.42Z" fill="#3B1A54"/>
<path d="M413.54 200.18C413.2 200.18 412.86 200.05 412.61 199.79L382.99 169.34C382.49 168.83 382.5 168 383.02 167.5C383.54 167 384.36 167.01 384.86 167.53L414.48 197.98C414.98 198.49 414.97 199.32 414.45 199.82C414.2 200.07 413.87 200.19 413.54 200.19V200.18Z" fill="#3B1A54"/>
<path d="M542.23 141.5C542.15 141.5 542.07 141.5 541.99 141.48C541.28 141.35 540.82 140.67 540.95 139.96L548.2 101.06C548.33 100.35 549.01 99.9001 549.72 100.02C550.43 100.15 550.89 100.83 550.76 101.54L543.51 140.44C543.39 141.07 542.85 141.5 542.23 141.5Z" fill="#3B1A54"/>
<path d="M610.61 200.86C610.2 200.86 609.8 200.67 609.55 200.31C609.14 199.72 609.28 198.91 609.86 198.5L638.67 178.14C639.26 177.73 640.07 177.87 640.48 178.45C640.89 179.04 640.76 179.85 640.17 180.26L611.36 200.62C611.13 200.78 610.87 200.86 610.61 200.86Z" fill="#3B1A54"/>
<path d="M563.819 393.16L574.489 416.52H687.599C687.599 416.52 672.509 387.97 658.449 362.71C641.919 371.64 618.649 359.88 607.029 365.83C593.059 372.98 594.339 384.28 582.329 391.71C575.759 395.78 571.689 394.96 563.819 393.16Z" fill="white"/>
</g>
<defs>
<clipPath id="clip0_1689_4970">
<rect width="374.8" height="316.51" fill="white" transform="translate(336.6 100)"/>
</clipPath>
</defs>
</svg>
