<svg width="40" height="40" viewBox="0 0 40 40" fill="none" xmlns="http://www.w3.org/2000/svg">
<path d="M19.9997 0C12.8205 0 7 5.90389 7 13.186C7 19.9029 11.9525 25.4427 18.3543 26.2632V30.3696H15.5128C14.3655 30.3696 13.4353 31.3132 13.4353 32.477C13.4353 33.6408 14.3655 34.5843 15.5128 34.5843H18.3543V37.8926C18.3543 39.0564 19.2845 40 20.4319 40C21.5793 40 22.5095 39.0564 22.5095 37.8926V34.5843H25.3509C26.4983 34.5843 27.4285 33.6408 27.4285 32.477C27.4285 31.3132 26.4983 30.3696 25.3509 30.3696H22.5095V26.1241C28.488 24.9375 33 19.5972 33 13.186C33 5.90389 27.1795 0 19.9997 0ZM19.9997 22.5102C14.9227 22.5102 10.8073 18.3358 10.8073 13.186C10.8073 8.03619 14.9232 3.86234 19.9997 3.86234C25.0763 3.86234 29.1922 8.03672 29.1922 13.1865C29.1922 18.3363 25.0768 22.5107 19.9997 22.5107V22.5102Z" fill="#FFCCCC"/>
</svg>
