<svg width="40" height="40" viewBox="0 0 40 40" fill="none" xmlns="http://www.w3.org/2000/svg">
<path d="M34.4044 4H28.5634C27.6926 4 26.9332 4.66058 26.9072 5.51713C26.8801 6.40347 27.6023 7.13042 28.4965 7.13042H29.7629L24.5666 12.2441C22.4373 10.8294 19.8662 10.01 17.0992 10.0293C10.0603 10.0774 4.23262 15.6625 4.00695 22.5876C3.76269 30.0933 9.9918 36.2281 17.6169 35.9935C24.6505 35.7771 30.329 30.0504 30.3874 23.1248C30.4129 20.0973 29.3833 17.3087 27.6416 15.0887L32.7046 10.1056V11.1963C32.7046 12.0607 33.4167 12.7615 34.295 12.7615H34.4097C35.2879 12.7615 36 12.0607 36 11.1963V5.56991C36 4.70291 35.2858 4 34.4049 4H34.4044ZM26.5042 23.6108C26.2111 28.1805 22.4431 31.8889 17.8001 32.1779C12.17 32.5281 7.52798 27.9594 7.88375 22.4182C8.17739 17.8486 11.9448 14.1401 16.5878 13.8517C22.218 13.5015 26.86 18.0702 26.5042 23.6114V23.6108Z" fill="#C6ADD2"/>
</svg>
