<svg width="2011" height="338" viewBox="0 0 2011 338" fill="none" xmlns="http://www.w3.org/2000/svg">
<path fill-rule="evenodd" clip-rule="evenodd" d="M0 0V330.45C14.085 341.987 45.0082 338.122 65.065 333.163C69.7076 332.015 73.8458 330.747 78.19 329.415C92.6132 324.995 109.308 319.878 154.283 316.154C200.664 312.313 237.519 316.187 273.775 319.997C298.861 322.634 323.659 325.24 351.127 325.24C408.187 329.263 448.692 315.798 491.504 301.566C533.015 287.766 576.696 273.245 639.743 273.245C678.849 269.647 702.132 260.757 726.417 251.484C747.304 243.508 768.933 235.25 802.006 229.832C844.061 222.942 878.558 229.531 910.76 235.682C939.154 241.106 965.763 246.188 994.195 241.389C1016.08 237.695 1038.17 229.205 1060.61 220.586C1100.38 205.304 1141.2 189.62 1183.72 199.552C1216.65 207.245 1328.54 193.133 1400.8 184.019C1424.12 181.078 1443.31 178.657 1454.38 177.659C1460.25 177.129 1467.45 177.82 1476.28 178.669C1508.9 181.8 1563.79 187.071 1655.88 141.01C1722.38 119.592 1731.03 119.592 1827.46 119.592C1876.53 119.592 1899.94 105.662 1922.93 91.98C1945.12 78.7786 1966.91 65.8089 2011 65.8089V0H0Z" fill="#FFE382"/>
</svg>
