<svg width="310" height="366" viewBox="0 0 310 366" fill="none" xmlns="http://www.w3.org/2000/svg">
<path d="M88.12 34.72C87.6133 35.0133 87.0667 35.1067 86.48 35C85.92 34.8933 85.48 34.5733 85.16 34.04C84.8933 33.5867 84.8267 33.1067 84.96 32.6C85.12 32.0667 85.4267 31.6667 85.88 31.4C87.88 30.28 89.44 28.92 90.56 27.32C90.1333 27.08 89.6933 26.8533 89.24 26.64C88.7867 26.4267 88.36 26.2267 87.96 26.04C87.48 25.8267 87.16 25.4533 87 24.92C86.8667 24.36 86.9333 23.84 87.2 23.36C87.4667 22.88 87.8533 22.56 88.36 22.4C88.8667 22.24 89.3867 22.2667 89.92 22.48C90.2933 22.64 90.68 22.8133 91.08 23C91.48 23.1867 91.8933 23.3867 92.32 23.6C92.4533 23.1467 92.56 22.6933 92.64 22.24C92.7467 21.76 92.8267 21.28 92.88 20.8H88.24C87.6533 20.8 87.1733 20.6133 86.8 20.24C86.4533 19.84 86.28 19.3733 86.28 18.84C86.28 18.3067 86.4533 17.8533 86.8 17.48C87.1733 17.08 87.6533 16.88 88.24 16.88H99.32C101.693 16.88 103.36 17.3467 104.32 18.28C105.307 19.2133 105.773 20.7467 105.72 22.88C105.693 23.68 105.653 24.48 105.6 25.28C105.547 26.0533 105.493 26.8 105.44 27.52C105.253 29.2267 104.88 30.5467 104.32 31.48C103.787 32.3867 103.067 33.0267 102.16 33.4C101.253 33.7733 100.147 33.9733 98.84 34C98.2 34.0267 97.64 33.8667 97.16 33.52C96.7067 33.1467 96.4533 32.64 96.4 32C96.3467 31.4667 96.4533 31.0133 96.72 30.64C96.3467 30.64 95.9733 30.52 95.6 30.28C95.3867 30.1467 95.16 30 94.92 29.84C94.68 29.68 94.4133 29.52 94.12 29.36C93.4267 30.4267 92.5867 31.4133 91.6 32.32C90.6133 33.2 89.4533 34 88.12 34.72ZM78 51.44C76.4 51.44 75.1467 51.2533 74.24 50.88C73.36 50.5333 72.7333 49.92 72.36 49.04C72.0133 48.1867 71.84 47.0133 71.84 45.52C71.84 44 72.0133 42.8133 72.36 41.96C72.7333 41.08 73.36 40.4667 74.24 40.12C75.1467 39.7467 76.4 39.56 78 39.56C79.6 39.56 80.84 39.7467 81.72 40.12C82.6267 40.4667 83.2533 41.08 83.6 41.96C83.9467 42.8133 84.12 44 84.12 45.52C84.12 45.7867 84.1067 46.0667 84.08 46.36C84.08 46.6267 84.0667 46.88 84.04 47.12C84.0667 47.04 84.0933 46.96 84.12 46.88C84.1467 46.7733 84.1733 46.6667 84.2 46.56C84.44 46.0533 84.7067 45.44 85 44.72C85.2933 43.9733 85.56 43.2267 85.8 42.48C86.0667 41.7067 86.28 41.0133 86.44 40.4C86.6 39.8133 86.9067 39.3867 87.36 39.12C87.84 38.8533 88.36 38.7867 88.92 38.92C89.4533 39.08 89.8533 39.36 90.12 39.76C90.3867 40.16 90.4533 40.6667 90.32 41.28C90.16 41.9733 89.9333 42.7467 89.64 43.6C89.3733 44.4267 89.08 45.24 88.76 46.04C88.4667 46.8133 88.1867 47.48 87.92 48.04C87.6533 48.5733 87.2533 48.92 86.72 49.08C86.1867 49.2667 85.6533 49.2533 85.12 49.04C84.32 48.6933 83.96 48.12 84.04 47.32C83.8533 48.8667 83.3067 49.9333 82.4 50.52C81.52 51.1333 80.0533 51.44 78 51.44ZM96.68 51.48C95.24 51.48 94.1067 51.32 93.28 51C92.48 50.7067 91.9067 50.2 91.56 49.48C91.24 48.7867 91.08 47.84 91.08 46.64V39.76C91.08 39.1467 91.28 38.6533 91.68 38.28C92.1067 37.9067 92.6 37.72 93.16 37.72C93.7467 37.72 94.24 37.9067 94.64 38.28C95.04 38.6533 95.24 39.1467 95.24 39.76V45.8C95.24 46.3333 95.3467 46.6933 95.56 46.88C95.7733 47.0667 96.2133 47.16 96.88 47.16C97.4133 47.16 97.7867 47.0667 98 46.88C98.24 46.6667 98.4533 46.2267 98.64 45.56C98.8 44.9467 99.12 44.52 99.6 44.28C100.08 44.04 100.613 44.0267 101.2 44.24C101.813 44.4267 102.227 44.76 102.44 45.24C102.653 45.6933 102.693 46.2267 102.56 46.84C102.213 48.52 101.573 49.7067 100.64 50.4C99.7333 51.12 98.4133 51.48 96.68 51.48ZM71.64 26.48C71.08 26.48 70.64 26.2933 70.32 25.92C70 25.5467 69.84 25.1067 69.84 24.6C69.84 24.0933 70 23.6667 70.32 23.32C70.64 22.9467 71.08 22.76 71.64 22.76H83.92C84.5067 22.76 84.96 22.9467 85.28 23.32C85.6 23.6667 85.76 24.0933 85.76 24.6C85.76 25.1067 85.6 25.5467 85.28 25.92C84.96 26.2933 84.5067 26.48 83.92 26.48H71.64ZM73.68 20.88C73.0933 20.88 72.6267 20.6933 72.28 20.32C71.9333 19.92 71.76 19.4667 71.76 18.96C71.76 18.4267 71.9333 17.9733 72.28 17.6C72.6267 17.2267 73.0933 17.04 73.68 17.04H82.12C82.7067 17.04 83.16 17.2267 83.48 17.6C83.8267 17.9733 84 18.4267 84 18.96C84 19.4667 83.8267 19.92 83.48 20.32C83.16 20.6933 82.7067 20.88 82.12 20.88H73.68ZM73.6 37.76C73.0133 37.76 72.56 37.5733 72.24 37.2C71.92 36.8267 71.76 36.3867 71.76 35.88C71.76 35.3467 71.92 34.9067 72.24 34.56C72.56 34.1867 73.0133 34 73.6 34H82.16C82.7467 34 83.2 34.1867 83.52 34.56C83.84 34.9067 84 35.3467 84 35.88C84 36.3867 83.84 36.8267 83.52 37.2C83.2 37.5733 82.7467 37.76 82.16 37.76H73.6ZM73.6 32.12C73.0133 32.12 72.56 31.9333 72.24 31.56C71.92 31.1867 71.76 30.7467 71.76 30.24C71.76 29.7067 71.92 29.2667 72.24 28.92C72.56 28.5467 73.0133 28.36 73.6 28.36H82.16C82.7467 28.36 83.2 28.5467 83.52 28.92C83.84 29.2667 84 29.7067 84 30.24C84 30.7467 83.84 31.1867 83.52 31.56C83.2 31.9333 82.7467 32.12 82.16 32.12H73.6ZM107.16 47.84C106.68 48.1333 106.16 48.24 105.6 48.16C105.067 48.08 104.653 47.7867 104.36 47.28C104.093 46.7467 103.733 46.1067 103.28 45.36C102.853 44.6133 102.4 43.8667 101.92 43.12C101.44 42.3733 101 41.7467 100.6 41.24C100.28 40.8133 100.173 40.3333 100.28 39.8C100.387 39.2667 100.653 38.8533 101.08 38.56C101.533 38.24 102.04 38.1333 102.6 38.24C103.16 38.32 103.613 38.5867 103.96 39.04C104.36 39.5467 104.8 40.1733 105.28 40.92C105.787 41.6667 106.267 42.4133 106.72 43.16C107.2 43.88 107.573 44.5067 107.84 45.04C108.133 45.6267 108.213 46.1733 108.08 46.68C107.947 47.16 107.64 47.5467 107.16 47.84ZM98.48 29.76C99.1733 29.7067 99.6933 29.6133 100.04 29.48C100.387 29.3467 100.64 29.08 100.8 28.68C100.96 28.2533 101.093 27.6 101.2 26.72C101.253 26.2667 101.293 25.76 101.32 25.2C101.373 24.6133 101.413 24.0267 101.44 23.44C101.493 22.4 101.347 21.7067 101 21.36C100.653 20.9867 99.92 20.8 98.8 20.8H96.92C96.76 22.5067 96.44 24.0533 95.96 25.44C96.3333 25.6267 96.68 25.8133 97 26C97.32 26.1867 97.6133 26.3733 97.88 26.56C98.4133 26.9067 98.7467 27.3733 98.88 27.96C99.0133 28.52 98.92 29.0667 98.6 29.6C98.5733 29.6267 98.5467 29.6533 98.52 29.68C98.52 29.7067 98.5067 29.7333 98.48 29.76ZM96.48 39.88C96.0533 39.4267 95.5067 38.8933 94.84 38.28C94.2 37.64 93.6133 37.12 93.08 36.72C92.68 36.4 92.4533 36 92.4 35.52C92.3733 35.0133 92.5067 34.56 92.8 34.16C93.12 33.7067 93.5467 33.44 94.08 33.36C94.64 33.28 95.1333 33.4 95.56 33.72C96.12 34.1467 96.7333 34.68 97.4 35.32C98.0933 35.9333 98.6533 36.4533 99.08 36.88C99.5067 37.2533 99.7333 37.72 99.76 38.28C99.7867 38.8133 99.6133 39.2933 99.24 39.72C98.8933 40.1467 98.44 40.3867 97.88 40.44C97.32 40.4667 96.8533 40.28 96.48 39.88ZM78 47.72C78.8533 47.72 79.4 47.5733 79.64 47.28C79.88 46.96 80 46.3733 80 45.52C80 44.6667 79.88 44.08 79.64 43.76C79.4 43.44 78.8533 43.28 78 43.28C77.1467 43.28 76.5867 43.44 76.32 43.76C76.08 44.08 75.96 44.6667 75.96 45.52C75.96 46.3733 76.08 46.96 76.32 47.28C76.5867 47.5733 77.1467 47.72 78 47.72ZM148.68 52.64C145.907 52.3467 143.307 51.8267 140.88 51.08C138.453 50.36 136.267 49.3867 134.32 48.16C134.347 48.24 134.36 48.32 134.36 48.4C134.387 48.48 134.4 48.56 134.4 48.64C134.453 49.1467 134.333 49.5867 134.04 49.96C133.747 50.3333 133.28 50.5733 132.64 50.68C131.653 50.8133 130.493 50.96 129.16 51.12C127.853 51.3067 126.48 51.48 125.04 51.64C123.6 51.8267 122.2 51.9867 120.84 52.12C119.48 52.28 118.28 52.4 117.24 52.48C116.573 52.5333 116.013 52.3733 115.56 52C115.107 51.6267 114.853 51.1467 114.8 50.56C114.773 50 114.947 49.5067 115.32 49.08C115.693 48.6533 116.213 48.4267 116.88 48.4C117.68 48.3467 118.6 48.28 119.64 48.2C120.68 48.12 121.773 48.0267 122.92 47.92V39.76C122.92 37.7067 123.413 36.2667 124.4 35.44C125.387 34.5867 127.133 34.16 129.64 34.16H130.64V33.32C130.64 32.68 130.827 32.16 131.2 31.76C131.573 31.36 132.027 31.1067 132.56 31H129.28C128.373 31.9867 127.267 33 125.96 34.04C124.68 35.08 123.293 36.0667 121.8 37C120.333 37.9333 118.84 38.76 117.32 39.48C116.653 39.7733 116.04 39.8667 115.48 39.76C114.947 39.6267 114.533 39.2933 114.24 38.76C113.973 38.2267 113.92 37.6933 114.08 37.16C114.24 36.6 114.613 36.2 115.2 35.96C116.587 35.3733 118.067 34.6267 119.64 33.72C121.213 32.8133 122.613 31.9067 123.84 31H116.24C115.813 31 115.44 30.8533 115.12 30.56C114.827 30.24 114.68 29.8667 114.68 29.44C114.68 28.9867 114.827 28.6133 115.12 28.32C115.44 28 115.813 27.84 116.24 27.84H130.64V26.44H119.4C119 26.44 118.653 26.3067 118.36 26.04C118.093 25.7467 117.96 25.4 117.96 25C117.96 24.6267 118.093 24.3067 118.36 24.04C118.653 23.7467 119 23.6 119.4 23.6H130.64V22.2H117.08C116.653 22.2 116.293 22.0533 116 21.76C115.707 21.44 115.56 21.0667 115.56 20.64C115.56 20.2133 115.707 19.8533 116 19.56C116.293 19.2667 116.653 19.12 117.08 19.12H125.32C125.133 18.8533 124.96 18.6 124.8 18.36C124.64 18.0933 124.493 17.8533 124.36 17.64C123.987 17.0533 123.92 16.5333 124.16 16.08C124.4 15.6 124.733 15.2667 125.16 15.08C125.693 14.8667 126.227 14.8133 126.76 14.92C127.32 15 127.747 15.2667 128.04 15.72C128.2 15.9333 128.413 16.2533 128.68 16.68C128.947 17.1067 129.213 17.5467 129.48 18C129.747 18.4267 129.973 18.8 130.16 19.12H136.08C136.347 18.6133 136.64 18.04 136.96 17.4C137.307 16.76 137.573 16.2533 137.76 15.88C138.027 15.3733 138.453 15.0533 139.04 14.92C139.653 14.7867 140.213 14.8267 140.72 15.04C141.253 15.2267 141.64 15.5733 141.88 16.08C142.12 16.56 142.053 17.1067 141.68 17.72C141.573 17.9067 141.44 18.12 141.28 18.36C141.147 18.6 141 18.8533 140.84 19.12H148.92C149.347 19.12 149.707 19.2667 150 19.56C150.293 19.8533 150.44 20.2133 150.44 20.64C150.44 21.0667 150.293 21.44 150 21.76C149.707 22.0533 149.347 22.2 148.92 22.2H135.36V23.6H146.48C146.88 23.6 147.213 23.7467 147.48 24.04C147.747 24.3067 147.88 24.6267 147.88 25C147.88 25.4 147.747 25.7467 147.48 26.04C147.213 26.3067 146.88 26.44 146.48 26.44H135.36V27.84H149.84C150.293 27.84 150.667 28 150.96 28.32C151.253 28.6133 151.4 28.9867 151.4 29.44C151.4 29.8667 151.253 30.24 150.96 30.56C150.667 30.8533 150.293 31 149.84 31H142.64C143.84 31.8267 145.16 32.64 146.6 33.44C148.067 34.2133 149.467 34.88 150.8 35.44C151.387 35.6533 151.773 36.04 151.96 36.6C152.173 37.16 152.147 37.7067 151.88 38.24C151.587 38.8 151.147 39.1733 150.56 39.36C149.973 39.5467 149.373 39.5067 148.76 39.24C147.453 38.6 146.093 37.8667 144.68 37.04C143.267 36.2133 141.907 35.2933 140.6 34.28C139.32 33.2667 138.173 32.1733 137.16 31H133.44C133.973 31.1067 134.427 31.36 134.8 31.76C135.173 32.16 135.36 32.68 135.36 33.32V34.16H135.84C137.573 34.16 138.92 34.3333 139.88 34.68C140.867 35.0267 141.547 35.6 141.92 36.4C142.32 37.2 142.52 38.2933 142.52 39.68C142.52 41.04 142.32 42.12 141.92 42.92C141.547 43.72 140.88 44.3067 139.92 44.68C138.96 45.0267 137.627 45.2 135.92 45.2C136.453 45.4933 137 45.7733 137.56 46.04C138.147 46.28 138.733 46.52 139.32 46.76C139.827 46.36 140.453 45.8667 141.2 45.28C141.973 44.6933 142.707 44.1333 143.4 43.6C144.12 43.04 144.627 42.6267 144.92 42.36C145.373 41.96 145.88 41.7733 146.44 41.8C147.027 41.8267 147.507 42.0667 147.88 42.52C148.28 42.9467 148.467 43.44 148.44 44C148.413 44.56 148.173 45 147.72 45.32C147.373 45.5867 146.827 45.9867 146.08 46.52C145.333 47.0267 144.6 47.5333 143.88 48.04C144.787 48.2267 145.707 48.3867 146.64 48.52C147.573 48.6533 148.507 48.76 149.44 48.84C150.133 48.8667 150.653 49.1067 151 49.56C151.347 50.04 151.453 50.56 151.32 51.12C151.187 51.7333 150.88 52.16 150.4 52.4C149.947 52.64 149.373 52.72 148.68 52.64ZM127.32 42.28H135.4C136.333 42.28 137 42.2 137.4 42.04C137.8 41.8533 138.053 41.4667 138.16 40.88H127.32V42.28ZM127.44 38.4H138.12C138.013 37.8133 137.76 37.4533 137.36 37.32C136.96 37.16 136.307 37.08 135.4 37.08H130.12C129.213 37.08 128.56 37.1733 128.16 37.36C127.787 37.52 127.547 37.8667 127.44 38.4ZM127.32 47.56C128.28 47.4533 129.187 47.36 130.04 47.28C130.92 47.2 131.68 47.12 132.32 47.04H132.68C131.933 46.48 131.24 45.8667 130.6 45.2H127.32V47.56ZM173.64 51.92C172.947 52.2133 172.28 52.2667 171.64 52.08C171.027 51.92 170.573 51.5333 170.28 50.92C170.013 50.3867 169.973 49.8267 170.16 49.24C170.347 48.68 170.733 48.2667 171.32 48C171.987 47.7333 172.733 47.3733 173.56 46.92C174.413 46.44 175.253 45.9467 176.08 45.44C176.907 44.9333 177.587 44.48 178.12 44.08C178.2 44.0267 178.28 43.9733 178.36 43.92C178.467 43.8667 178.573 43.8267 178.68 43.8C177.027 43.5333 175.827 42.9467 175.08 42.04C174.333 41.1333 173.96 39.8533 173.96 38.2V28.92C173.96 27.1067 174.413 25.7467 175.32 24.84C176.227 23.9067 177.693 23.3733 179.72 23.24C179.853 22.7867 180 22.28 180.16 21.72C180.32 21.1333 180.453 20.6533 180.56 20.28H173.64C173.053 20.28 172.573 20.0933 172.2 19.72C171.853 19.32 171.68 18.8533 171.68 18.32C171.68 17.7867 171.853 17.3333 172.2 16.96C172.573 16.56 173.053 16.36 173.64 16.36H193.56C194.173 16.36 194.653 16.56 195 16.96C195.373 17.3333 195.56 17.7867 195.56 18.32C195.56 18.8533 195.373 19.32 195 19.72C194.653 20.0933 194.173 20.28 193.56 20.28H185.88C185.747 20.7067 185.587 21.1867 185.4 21.72C185.24 22.2533 185.093 22.7467 184.96 23.2H185.92C188.373 23.2 190.133 23.6667 191.2 24.6C192.267 25.5067 192.8 26.9467 192.8 28.92V38.2C192.8 39.88 192.413 41.1733 191.64 42.08C190.893 42.9867 189.667 43.56 187.96 43.8C188.173 43.88 188.373 44 188.56 44.16C189.333 44.7733 190.293 45.4267 191.44 46.12C192.587 46.7867 193.627 47.3467 194.56 47.8C195.147 48.0667 195.52 48.5067 195.68 49.12C195.84 49.7333 195.773 50.3067 195.48 50.84C195.16 51.4267 194.68 51.8 194.04 51.96C193.427 52.12 192.773 52.04 192.08 51.72C191.067 51.1867 189.933 50.52 188.68 49.72C187.453 48.92 186.373 48.1067 185.44 47.28C185.013 46.88 184.8 46.4 184.8 45.84C184.8 45.2533 184.987 44.7467 185.36 44.32C185.44 44.24 185.52 44.1733 185.6 44.12C185.68 44.04 185.76 43.9733 185.84 43.92H180.72C180.907 44.0267 181.093 44.2 181.28 44.44C181.653 44.92 181.813 45.44 181.76 46C181.733 46.56 181.493 47.0267 181.04 47.4C180.427 47.9067 179.667 48.4533 178.76 49.04C177.88 49.6267 176.973 50.1733 176.04 50.68C175.133 51.1867 174.333 51.6 173.64 51.92ZM162.6 49.84C162.067 50.24 161.48 50.4267 160.84 50.4C160.2 50.4 159.627 50.1333 159.12 49.6C158.72 49.1467 158.56 48.6 158.64 47.96C158.72 47.2933 159 46.7867 159.48 46.44C160.547 45.64 161.64 44.72 162.76 43.68C163.88 42.6133 164.947 41.5333 165.96 40.44C167 39.32 167.88 38.28 168.6 37.32C168.973 36.8133 169.467 36.4933 170.08 36.36C170.693 36.2 171.293 36.3333 171.88 36.76C172.413 37.1067 172.733 37.5733 172.84 38.16C172.947 38.72 172.813 39.2533 172.44 39.76C171.64 40.9067 170.68 42.1067 169.56 43.36C168.467 44.5867 167.32 45.7733 166.12 46.92C164.92 48.04 163.747 49.0133 162.6 49.84ZM162.6 38.28C162.067 38.68 161.453 38.88 160.76 38.88C160.093 38.88 159.547 38.6133 159.12 38.08C158.773 37.6 158.627 37.0533 158.68 36.44C158.733 35.8267 159 35.3467 159.48 35C160.493 34.28 161.533 33.4667 162.6 32.56C163.667 31.6267 164.68 30.68 165.64 29.72C166.6 28.7333 167.4 27.8267 168.04 27C168.413 26.52 168.893 26.24 169.48 26.16C170.093 26.0533 170.653 26.2 171.16 26.6C171.64 27 171.92 27.48 172 28.04C172.08 28.5733 171.933 29.08 171.56 29.56C170.84 30.4933 169.973 31.4933 168.96 32.56C167.947 33.6 166.88 34.6267 165.76 35.64C164.667 36.6267 163.613 37.5067 162.6 38.28ZM163 27.32C162.467 27.7467 161.867 27.9467 161.2 27.92C160.533 27.8933 159.987 27.6533 159.56 27.2C159.187 26.7467 159.013 26.2133 159.04 25.6C159.067 24.9867 159.307 24.5067 159.76 24.16C160.533 23.5733 161.36 22.8933 162.24 22.12C163.147 21.32 164.013 20.4933 164.84 19.64C165.693 18.7867 166.4 17.9733 166.96 17.2C167.333 16.6933 167.827 16.3867 168.44 16.28C169.053 16.1733 169.613 16.3067 170.12 16.68C170.653 17.0267 170.96 17.4933 171.04 18.08C171.12 18.64 170.973 19.1733 170.6 19.68C169.987 20.5067 169.253 21.3867 168.4 22.32C167.573 23.2267 166.693 24.12 165.76 25C164.827 25.8533 163.907 26.6267 163 27.32ZM178.64 34.64H188.16V32.48H178.64V34.64ZM181.4 40.32H185.36C186.427 40.32 187.147 40.1733 187.52 39.88C187.92 39.5867 188.133 38.9867 188.16 38.08H178.64C178.64 38.9867 178.827 39.5867 179.2 39.88C179.6 40.1733 180.333 40.32 181.4 40.32ZM178.64 29.04H188.16C188.133 28.1333 187.92 27.5467 187.52 27.28C187.147 26.9867 186.427 26.84 185.36 26.84H181.4C180.333 26.84 179.6 26.9867 179.2 27.28C178.827 27.5467 178.64 28.1333 178.64 29.04ZM230.68 48.28C228.867 48.28 227.413 48.0533 226.32 47.6C225.227 47.12 224.44 46.3467 223.96 45.28C223.48 44.2133 223.24 42.7867 223.24 41V27.92C223.24 26.1333 223.48 24.7067 223.96 23.64C224.44 22.5733 225.227 21.8133 226.32 21.36C227.413 20.88 228.867 20.64 230.68 20.64C232.52 20.64 233.973 20.88 235.04 21.36C236.133 21.8133 236.92 22.5733 237.4 23.64C237.88 24.7067 238.12 26.1333 238.12 27.92V41.04C238.12 42.8267 237.88 44.2533 237.4 45.32C236.92 46.36 236.133 47.12 235.04 47.6C233.973 48.0533 232.52 48.28 230.68 48.28ZM206.24 51.44C205.653 51.7867 205.013 51.92 204.32 51.84C203.627 51.76 203.093 51.4133 202.72 50.8C202.373 50.24 202.267 49.6667 202.4 49.08C202.533 48.4933 202.893 48.04 203.48 47.72C205.693 46.4933 207.453 44.9733 208.76 43.16C210.067 41.3467 210.853 39.04 211.12 36.24H205.64C204.973 36.24 204.427 36.0267 204 35.6C203.6 35.1467 203.4 34.6133 203.4 34C203.4 33.3867 203.6 32.8667 204 32.44C204.427 31.9867 204.973 31.76 205.64 31.76H211.2V25.76H209.04C208.693 26.3733 208.333 26.9733 207.96 27.56C207.587 28.12 207.227 28.64 206.88 29.12C206.507 29.6267 206 29.96 205.36 30.12C204.72 30.28 204.107 30.1733 203.52 29.8C203.04 29.5067 202.72 29.08 202.56 28.52C202.4 27.9333 202.493 27.4133 202.84 26.96C203.907 25.52 204.92 23.92 205.88 22.16C206.867 20.3733 207.613 18.68 208.12 17.08C208.333 16.4667 208.72 16.0267 209.28 15.76C209.84 15.4667 210.44 15.4267 211.08 15.64C211.693 15.8267 212.133 16.2133 212.4 16.8C212.667 17.36 212.693 17.9467 212.48 18.56C212.293 19.0133 212.093 19.48 211.88 19.96C211.693 20.44 211.493 20.9067 211.28 21.36H219.2C219.867 21.36 220.4 21.5733 220.8 22C221.2 22.4267 221.4 22.9467 221.4 23.56C221.4 24.1733 221.2 24.6933 220.8 25.12C220.4 25.5467 219.867 25.76 219.2 25.76H215.76V31.76H220.28C220.973 31.76 221.52 31.9867 221.92 32.44C222.32 32.8667 222.52 33.3867 222.52 34C222.52 34.6133 222.32 35.1467 221.92 35.6C221.52 36.0267 220.973 36.24 220.28 36.24H215.68C215.68 36.3467 215.667 36.4667 215.64 36.6C215.64 36.7067 215.627 36.8133 215.6 36.92C216.133 37.7733 216.773 38.72 217.52 39.76C218.293 40.7733 219.08 41.7733 219.88 42.76C220.68 43.72 221.387 44.5333 222 45.2C222.48 45.7067 222.68 46.28 222.6 46.92C222.547 47.5333 222.267 48.0667 221.76 48.52C221.227 49 220.613 49.2133 219.92 49.16C219.227 49.1333 218.653 48.8533 218.2 48.32C217.613 47.6267 216.96 46.7733 216.24 45.76C215.52 44.7467 214.813 43.7067 214.12 42.64C213.32 44.48 212.253 46.1333 210.92 47.6C209.587 49.0667 208.027 50.3467 206.24 51.44ZM230.68 43.8C231.8 43.8 232.533 43.6 232.88 43.2C233.253 42.7733 233.44 41.9867 233.44 40.84V28.08C233.44 26.9067 233.253 26.12 232.88 25.72C232.533 25.32 231.8 25.12 230.68 25.12C229.533 25.12 228.787 25.32 228.44 25.72C228.093 26.12 227.92 26.9067 227.92 28.08V40.8C227.92 41.9467 228.093 42.7333 228.44 43.16C228.787 43.5867 229.533 43.8 230.68 43.8Z" fill="#AE80C4"/>
<g clip-path="url(#clip0_1594_4040)">
<path d="M310 268.182L252.276 253.538L268.471 196.19L211.161 212.389L196.529 154.627L155 197.332L113.471 154.627L98.8394 212.389L41.5291 196.19L57.7239 253.538L0 268.182L42.6705 309.753L0 351.315L57.7239 365.959H252.276L310 351.315L267.33 309.753L310 268.182Z" fill="#C6ADD2"/>
<path d="M248.207 291.276C245.329 287.651 240.416 273.545 237.107 257.652C235.337 249.143 234.833 240.335 232.004 232.09C227.753 219.715 219.258 216.884 209.002 217.099C201.798 217.248 199.887 222.256 199.887 222.256C199.887 222.256 178.358 214.798 174.346 228.018C167.291 227.703 158.185 229.193 153.462 237.694C144.959 252.992 153.71 267.801 153.71 267.801C153.71 267.801 159.202 300.738 170.533 312.037L178.143 325.174L196.777 365.992H290.332C290.332 365.992 256.147 301.268 248.215 291.268L248.207 291.276Z" fill="#3B1A54"/>
<path d="M206.727 218.184C201.955 218.664 197.207 222.538 197.885 232.529C198.564 242.512 204.535 246.262 207.918 246.783C211.657 247.363 218.952 244.027 218.952 229.971C218.952 220.203 214.469 217.406 206.727 218.184Z" fill="#FFCCCC"/>
<path d="M208.762 247.917C208.415 247.917 208.075 247.893 207.745 247.843C204.279 247.305 197.53 243.423 196.802 232.595C196.082 221.983 201.401 217.637 206.612 217.108C211.094 216.661 214.337 217.406 216.545 219.4C218.886 221.511 220.019 224.971 220.019 229.963C220.019 239.035 217.074 243.464 214.601 245.583C212.856 247.081 210.739 247.917 208.762 247.917ZM209.018 219.136C208.332 219.136 207.604 219.177 206.827 219.251C201.368 219.806 198.423 224.74 198.944 232.446C199.589 241.916 205.197 245.269 208.075 245.716C209.333 245.914 211.334 245.55 213.195 243.952C215.321 242.123 217.86 238.216 217.86 229.963C217.86 225.609 216.959 222.678 215.098 220.998C213.716 219.748 211.715 219.136 209.01 219.136H209.018Z" fill="#3B1A54"/>
<path d="M180.119 220.717C175.347 221.205 170.599 225.071 171.277 235.062C171.956 245.045 177.927 248.795 181.31 249.316C185.049 249.896 192.344 246.56 192.344 232.504C192.344 222.736 187.861 219.939 180.119 220.717Z" fill="#FFCCCC"/>
<path d="M182.162 250.459C181.815 250.459 181.476 250.434 181.145 250.384C177.679 249.846 170.939 245.964 170.202 235.136C169.483 224.524 174.801 220.179 180.012 219.649C184.495 219.202 187.737 219.947 189.945 221.942C192.286 224.053 193.419 227.513 193.419 232.504C193.419 241.577 190.475 246.005 188.002 248.124C186.257 249.623 184.139 250.459 182.162 250.459ZM180.227 221.793C174.768 222.347 171.824 227.281 172.345 234.988C172.99 244.457 178.598 247.81 181.476 248.257C182.733 248.455 184.735 248.091 186.596 246.494C188.721 244.664 191.261 240.757 191.261 232.504C191.261 228.15 190.359 225.22 188.498 223.539C186.769 221.975 184.065 221.404 180.219 221.793H180.227Z" fill="#3B1A54"/>
<path d="M175.124 261.062C180.632 256.981 187.175 254.697 193.75 254.755C205.181 254.871 217.356 262.172 222.054 274.307C222.831 276.31 223.328 278.529 223.03 280.697C222.476 284.729 219.225 287.725 215.768 288.785C211.301 290.151 205.892 289.372 201.426 288.222C198.969 287.584 196.513 286.757 193.99 286.765C189.127 286.781 187.671 290.523 184.379 293.702C182.278 295.738 180.103 297.733 177.63 299.165C172.816 301.938 168.118 301.251 166.017 295.018C162.783 285.416 162.899 273.835 169.541 266.219C171.228 264.282 173.106 262.552 175.115 261.071L175.124 261.062Z" fill="#FFCCCC"/>
<path d="M191.021 301.789C190.847 301.789 190.665 301.748 190.5 301.657C189.979 301.367 189.788 300.721 190.078 300.2C190.127 300.117 194.776 291.847 203.618 295.167C204.172 295.374 204.453 295.995 204.246 296.549C204.039 297.104 203.419 297.385 202.865 297.178C195.785 294.521 192.112 300.961 191.964 301.234C191.765 301.59 191.401 301.789 191.021 301.789Z" fill="white"/>
<path d="M181.31 269.456C184.015 220.692 188.398 208.681 174.999 204.451C158.755 199.319 154.396 210.841 154.396 210.841C154.396 210.841 163.552 139.131 146.481 133.262C135.621 129.529 132.511 133.262 132.511 133.262C132.511 125.075 127.002 116.019 114.662 120.133C107.259 122.6 104.075 133.262 101.048 152.276C97.1188 176.969 90.4523 200.726 87.0033 219.516C80.7669 253.505 66.4 281.095 59.4937 325.182C56.6153 343.551 46.0366 366 46.0366 366H167.431C193.32 307.012 179.664 299.223 181.31 269.456Z" fill="#FFC876"/>
<path d="M135.488 308.436C134.893 308.436 134.413 307.956 134.413 307.36C134.413 301.458 136.125 295.655 138.11 288.95C140.74 280.035 144.016 268.943 144.173 253.621C144.587 213.647 157.134 206.156 157.663 205.858C158.184 205.568 158.838 205.75 159.127 206.272C159.417 206.785 159.235 207.439 158.722 207.729C158.573 207.812 146.712 215.237 146.323 253.646C146.158 269.274 142.841 280.524 140.17 289.571C138.234 296.119 136.564 301.781 136.564 307.377C136.564 307.973 136.084 308.453 135.488 308.453V308.436Z" fill="#3B1A54"/>
<path d="M109.236 260.864C109.178 260.864 109.112 260.864 109.054 260.847C108.467 260.748 108.078 260.185 108.178 259.606C120.667 187.481 131.353 133.585 131.461 133.055C131.576 132.476 132.147 132.095 132.726 132.211C133.305 132.327 133.686 132.889 133.57 133.477C133.462 134.015 122.776 187.879 110.295 259.978C110.204 260.5 109.749 260.872 109.236 260.872V260.864Z" fill="#3B1A54"/>
<path d="M135.381 164.941C131.146 164.941 126.845 162.888 126.556 162.747C126.018 162.491 125.795 161.845 126.06 161.315C126.316 160.777 126.961 160.554 127.499 160.81C127.59 160.86 137.193 165.421 140.352 160.521C143.809 155.157 144.281 142.972 143.876 139.239C143.809 138.651 144.239 138.121 144.827 138.055C145.431 137.989 145.952 138.419 146.009 139.007C146.349 142.161 146.258 155.306 142.155 161.68C140.559 164.155 137.987 164.933 135.381 164.933V164.941Z" fill="#3B1A54"/>
<path d="M172.46 239.921C171.89 239.921 171.41 239.88 171.071 239.83C164.04 238.936 158.854 238.017 156.051 234.284C153.85 231.345 153.321 226.817 154.405 220.03C155.232 214.831 157.316 211.263 160.591 209.426C165.579 206.628 171.402 208.995 171.642 209.095C172.22 209.335 172.493 209.997 172.254 210.568C172.014 211.148 171.36 211.421 170.781 211.181C170.732 211.156 165.703 209.136 161.683 211.404C159.053 212.886 157.349 215.899 156.638 220.377C155.662 226.511 156.051 230.493 157.862 232.918C160.128 235.948 164.677 236.734 171.352 237.578C172.287 237.694 174.652 237.827 176.364 236.478C177.481 235.6 178.151 234.201 178.349 232.314C178.416 231.693 178.978 231.254 179.598 231.312C180.219 231.378 180.665 231.941 180.599 232.562C180.326 235.07 179.375 236.982 177.762 238.257C176.042 239.615 173.949 239.913 172.46 239.913V239.921Z" fill="#3B1A54"/>
<path d="M104.067 140.877C104.067 140.877 95.0263 135.091 89.2448 144.594C83.4634 154.097 81.4039 194.178 77.2683 211.537C73.141 228.895 68.228 286.442 68.228 286.442L104.058 208.234V140.877H104.067Z" fill="#FFC876"/>
<path d="M75.2502 260.864C75.1095 260.864 74.9689 260.839 74.8283 260.773C74.2824 260.541 74.026 259.904 74.2659 259.357C76.7638 253.53 81.9415 228.895 85.7213 210.899C87.2267 203.731 88.5252 197.539 89.4433 193.516C92.7104 179.195 102.933 140.968 103.033 140.588C103.19 140.016 103.777 139.677 104.348 139.826C104.919 139.983 105.266 140.571 105.109 141.142C105.009 141.523 94.7947 179.717 91.5359 193.996C90.6178 198.002 89.3193 204.186 87.8222 211.346C83.8107 230.435 78.8233 254.184 76.2427 260.21C76.069 260.615 75.672 260.864 75.2584 260.864H75.2502Z" fill="#3B1A54"/>
<path d="M108.492 153.153C105.15 153.153 102.322 152.16 102.14 152.094C101.577 151.895 101.288 151.283 101.486 150.72C101.685 150.157 102.297 149.867 102.859 150.066C102.926 150.091 109.096 152.226 113.289 149.925C115.117 148.923 116.333 147.168 116.895 144.718C119.335 134.131 120.179 129.52 120.187 129.479C120.295 128.891 120.857 128.502 121.436 128.61C122.023 128.717 122.404 129.28 122.305 129.86C122.305 129.909 121.444 134.553 118.988 145.198C118.277 148.278 116.705 150.504 114.307 151.812C112.47 152.822 110.394 153.145 108.484 153.145L108.492 153.153Z" fill="#3B1A54"/>
<path d="M87.9135 165.603C85.8043 165.603 84.1749 164.908 84.0674 164.858C83.5215 164.618 83.2817 163.989 83.5132 163.443C83.7448 162.896 84.3734 162.648 84.9276 162.88C84.9607 162.888 88.0044 164.179 90.6925 162.813C92.5783 161.853 93.9017 159.792 94.6213 156.68C94.7536 156.1 95.3409 155.744 95.9116 155.868C96.4906 156.001 96.8545 156.58 96.7222 157.16C95.8537 160.934 94.1416 163.484 91.652 164.742C90.3782 165.38 89.0797 165.595 87.93 165.595L87.9135 165.603Z" fill="#3B1A54"/>
<path d="M63.6377 186.927C63.3564 186.927 63.0752 186.819 62.8685 186.604L38.3695 161.398C37.956 160.976 37.9642 160.289 38.3943 159.875C38.8244 159.461 39.5027 159.469 39.9162 159.9L64.4151 185.106C64.8287 185.528 64.8204 186.215 64.3903 186.629C64.1835 186.836 63.9106 186.935 63.6377 186.935V186.927Z" fill="#3B1A54"/>
<path d="M170.078 138.353C170.012 138.353 169.946 138.353 169.88 138.336C169.293 138.229 168.912 137.666 169.02 137.078L175.016 104.877C175.124 104.29 175.686 103.917 176.273 104.016C176.861 104.124 177.241 104.687 177.134 105.275L171.137 137.475C171.038 137.997 170.591 138.353 170.078 138.353Z" fill="#3B1A54"/>
<path d="M226.636 187.49C226.297 187.49 225.966 187.332 225.759 187.034C225.42 186.546 225.536 185.875 226.015 185.536L249.844 168.683C250.332 168.343 251.002 168.459 251.341 168.939C251.681 169.428 251.573 170.098 251.085 170.437L227.256 187.291C227.066 187.423 226.851 187.49 226.636 187.49Z" fill="#3B1A54"/>
<path d="M187.936 346.671L196.761 366.008H290.315C290.315 366.008 277.834 342.375 266.205 321.466C252.533 328.858 233.286 319.123 223.675 324.048C212.12 329.967 213.179 339.321 203.245 345.471C197.811 348.84 194.445 348.161 187.936 346.671Z" fill="white"/>
</g>
<defs>
<clipPath id="clip0_1594_4040">
<rect width="310" height="262" fill="white" transform="translate(0 104)"/>
</clipPath>
</defs>
</svg>
