<svg width="1512" height="338" viewBox="0 0 1512 338" fill="none" xmlns="http://www.w3.org/2000/svg">
<path fill-rule="evenodd" clip-rule="evenodd" d="M0 0V330.45C10.59 341.987 33.84 338.122 48.92 333.163C52.4107 332.015 55.522 330.747 58.7883 329.415C69.6326 324.995 82.185 319.878 116 316.154C150.872 312.313 178.582 316.187 205.842 319.997C224.703 322.634 243.348 325.24 264 325.24C306.902 329.263 337.356 315.798 369.544 301.566C400.755 287.766 433.598 273.245 481 273.245C510.402 269.647 527.908 260.757 546.168 251.484C561.872 243.508 578.133 235.25 603 229.832C634.619 222.942 660.557 229.531 684.768 235.682C706.117 241.106 726.123 246.188 747.5 241.389C763.951 237.695 780.567 229.205 797.433 220.586C827.337 205.304 858.031 189.62 890 199.552C914.759 207.245 998.883 193.133 1053.21 184.019C1070.74 181.078 1085.17 178.657 1093.5 177.659C1097.91 177.129 1103.32 177.82 1109.97 178.669C1134.49 181.8 1175.76 187.071 1245 141.01C1295 119.592 1301.5 119.592 1374 119.592C1410.9 119.592 1428.5 105.662 1445.79 91.98C1462.47 78.7786 1478.85 65.8089 1512 65.8089V0H0Z" fill="#FFE382"/>
</svg>
