<svg width="171" height="215" viewBox="0 0 171 215" fill="none" xmlns="http://www.w3.org/2000/svg">
<g clip-path="url(#clip0_1545_445)">
<path d="M64.56 119.96C62.99 119.38 61.49 118.8 60.1 118.19C44.13 111.38 37.72 103.24 34.93 96.63C34.93 96.63 28.46 81.27 20.35 72.82C18.89 71.29 17.76 70.54 16.47 70.23C13 69.31 10.75 71.9 6.38998 71.56C4.40998 71.42 2.84998 70.74 1.85998 70.23C1.41998 69.55 -0.93002 65.97 0.42998 63.08C1.82998 60.08 6.31998 59.78 9.82998 59.54C12.49 59.34 17.22 59.44 22.94 61.96C25.12 63.39 28.36 65.81 31.69 69.42C37.11 75.31 38.03 79.4 41.23 83.18C42.87 85.12 45.32 87.23 49.06 88.94C49.67 89.21 50.35 89.49 51.07 89.76C51.17 89.79 51.31 89.83 51.44 89.9C52.09 90.14 52.8 90.34 53.55 90.55C56.07 91.27 59 91.81 62.47 92.12C63.15 101.42 63.87 110.68 64.55 119.98L64.56 119.96Z" fill="#FFE382"/>
<path d="M91.13 136.51C91.23 140.46 91.13 144.65 90.72 149.08C90.52 151.26 90.28 153.41 89.94 155.48C88.68 164.1 86.5 171.8 83.98 178.47C83.44 180 82.86 181.47 82.28 182.83C81.63 184.33 81.02 185.79 80.34 187.16C78.33 191.45 76.29 195.13 74.45 198.2H54.76C54.69 197.11 54.62 194.45 56.22 191.86C59.25 187.02 65.28 186.99 65.69 186.99C66.41 183.86 66.98 180.83 67.5 177.86C70.33 160.32 69.13 145.54 65.66 133.1C65.11 130.99 64.47 128.94 63.75 126.97C62.49 123.36 61.3 120.77 60.11 118.18C60.04 118.04 59.97 117.91 59.94 117.81C58.65 114.98 57.35 112.33 55.99 108.48C53.98 103 52.48 97.51 51.49 92.06C51.39 91.58 51.32 91.17 51.25 90.77C51.18 90.43 51.11 90.05 51.08 89.75C49.58 80.49 49.34 71.32 50.02 62.43C50.19 60.15 50.43 57.9 50.7 55.65C50.84 54.46 51.01 53.27 51.18 52.11C51.32 51.19 51.49 50.34 51.62 49.45C52.17 50.51 52.68 51.53 53.22 52.58C53.36 52.85 53.53 53.16 53.66 53.43C55.02 56.09 56.38 58.7099 57.75 61.3699C58.87 63.5799 60 65.7999 61.16 68.0499C70.87 86.95 80.54 105.86 90.25 124.8C90.69 128.38 91.03 132.26 91.14 136.52L91.13 136.51Z" fill="#FFE382"/>
<path d="M142.56 183.89C142.29 188.56 141.88 193.5 141.3 198.67C139.53 198.67 137.79 198.64 136.02 198.64C115.48 198.47 94.94 198.33 74.44 198.2H73.01C72.43 197.35 71.68 195.92 71.55 194.04C71.55 193.84 71.52 193.63 71.52 193.43C71.55 189.34 74.82 186.52 75.68 185.8C78.17 183.65 80.86 183.04 82.29 182.84C81.34 181.68 80.31 180.29 79.36 178.65C77.76 175.86 76.46 172.42 76.4 168.53C76.3 160.12 82.05 155.93 86.38 144.72C88.08 140.26 89.99 133.62 90.26 124.79C79.29 111.23 67.68 93.56 58.89 71.45C58.72 71.01 58.55 70.6 58.38 70.16C58.28 69.89 58.18 69.65 58.07 69.38C57.59 68.19 57.15 66.96 56.71 65.74C56.4 64.92 56.13 64.1 55.86 63.29C54.67 59.92 53.65 56.61 52.73 53.38C52.7 53.24 52.63 53.11 52.59 52.97C52.25 51.78 51.94 50.62 51.64 49.46C52.63 49.05 53.58 48.64 54.57 48.23C62.88 44.72 71.26 41.25 79.57 37.77C79.71 38.14 79.84 38.49 80.01 38.83C84.98 51.4 90.36 61.65 95.3 69.72C97.75 73.81 100.07 77.32 102.18 80.31C107.66 88.14 112.64 94.14 112.64 94.14C126.43 111 133.55 114.37 138.39 125.75C139.79 129.05 140.98 132.97 142.03 144.48C142.37 148.26 142.68 152.52 142.88 157.29C143.19 164.95 143.19 173.84 142.57 183.89H142.56Z" fill="#FFE382"/>
<path d="M23.3301 16.2599C22.3201 18.8199 29.6301 24.5299 35.0801 27.6399C38.5901 29.6499 44.0401 32.1199 51.5201 33.2299C50.0101 35.7899 47.6001 38.8499 43.9901 39.7099C37.2501 41.3199 30.6101 34.2699 29.0001 35.8999C28.1401 36.7699 29.4401 39.7199 30.9401 41.6499C33.1601 44.4999 36.6301 45.7899 43.5801 48.3699C46.5101 49.4599 47.2401 49.7199 48.7901 50.5899C51.4501 52.0799 52.2701 53.2599 55.0901 53.7999C59.2601 54.5999 65.6501 53.8099 74.8601 45.8599C75.9601 45.0999 77.7601 43.6399 79.0701 41.2399C79.0701 41.2399 81.3501 37.0599 80.3701 31.5999C79.1401 24.7699 70.9201 18.5999 59.7901 16.7699C55.9801 17.9099 52.1601 19.0399 48.3501 20.1799C38.6201 19.3499 33.9601 17.6999 31.5401 16.1899C30.9401 15.8199 28.6301 14.2999 26.0101 14.7899C25.4601 14.8899 23.7401 15.2199 23.3401 16.2499L23.3301 16.2599Z" fill="#FFE382"/>
<path d="M65.4601 22.21C65.9101 18.63 68.1301 1.85003 72.1401 1.67003C75.3701 1.52003 79.5701 12.15 79.4701 21.88C79.4301 26.12 78.5701 29.63 77.7701 32.09L65.4601 22.21Z" fill="#FFE382"/>
<path d="M57.01 19.36C57.26 16.82 57.64 13.15 58.16 8.72999C58.96 2.06999 59.24 0.749991 59.74 0.699991C60.93 0.589991 62.55 7.70999 63.2 11.15C64.04 15.58 64.28 19.3 64.35 21.84L57 19.35L57.01 19.36Z" fill="#FFE382"/>
<path d="M55.4701 24.8301C53.7701 25.6501 52.1101 25.7501 51.7601 25.0401C51.4101 24.3301 52.5201 23.0901 54.2201 22.2701C55.9201 21.4501 57.5801 21.3501 57.9301 22.0601C58.2701 22.7701 57.1701 24.0101 55.4701 24.8301Z" fill="#3B1A54"/>
<path d="M23.52 18.6301C23.93 18.6701 24.08 18.0801 24.89 17.4901C25.93 16.7301 27.09 16.6901 27.73 16.6701C30.27 16.5701 31.81 18.1801 32.21 17.7201C32.53 17.3601 31.75 16.1601 31.34 15.6201C30.95 15.1101 29.51 13.2201 27.04 13.1001C25.49 13.0301 23.16 13.6401 22.56 15.3401C22.06 16.7401 22.83 18.5601 23.52 18.6301Z" fill="#3B1A54"/>
<path d="M91.5901 190.3C89.7201 189.69 88.2901 188.83 87.1301 187.69C84.4901 185.08 83.1301 180.91 83.2001 175.62C83.3301 165.36 88.6801 153.53 96.5001 146.19C101.3 141.69 107.29 138.57 114.29 136.92C114.62 136.83 114.97 137.05 115.05 137.39C115.13 137.73 114.92 138.07 114.58 138.15C107.8 139.75 102.01 142.76 97.3701 147.11C89.7801 154.23 84.5901 165.69 84.4601 175.64C84.4001 180.58 85.6301 184.44 88.0201 186.8C89.0401 187.8 90.3101 188.57 91.8001 189.08C92.1201 189.19 92.3001 189.55 92.1901 189.88C92.1001 190.14 91.8601 190.3 91.6001 190.3H91.5901Z" fill="#3B1A54"/>
<path d="M70.81 197.29C70.42 197.26 70.16 196.96 70.18 196.61C70.28 195.3 70.91 190.81 74.58 188.24C77.66 186.09 81.11 186.48 83.39 186.73C85.93 187.02 87.44 187.73 88.9 188.42C89.97 188.93 91.08 189.45 92.65 189.84C95.9 190.65 99.55 190.45 103.43 189.24C103.76 189.13 104.11 189.32 104.21 189.65C104.31 189.98 104.13 190.33 103.8 190.44C99.68 191.71 95.83 191.93 92.34 191.05C90.65 190.63 89.49 190.08 88.36 189.55C86.93 188.87 85.58 188.23 83.25 187.97C81.15 187.73 77.99 187.38 75.29 189.26C72.07 191.51 71.52 195.52 71.43 196.69C71.4 197.02 71.13 197.27 70.8 197.27L70.81 197.29Z" fill="#3B1A54"/>
<path d="M77.93 183.34C77.39 183.19 77.22 182.83 77.34 182.5C81.71 170.26 85.47 157.69 88.5 145.13C89.79 139.77 91 134.28 92.06 128.79C92.12 128.45 92.46 128.21 92.8 128.3C93.14 128.37 93.36 128.69 93.3 129.04C92.23 134.54 91.03 140.06 89.72 145.43C86.68 158.03 82.91 170.65 78.53 182.93C78.44 183.19 78.2 183.35 77.94 183.35L77.93 183.34Z" fill="#3B1A54"/>
<path d="M93.4001 126.78C92.9801 126.73 92.7301 126.42 92.7801 126.08C92.8901 125.15 92.8901 124.22 92.7801 123.31C92.3001 119.42 89.8601 116.71 88.4401 115.44C88.1801 115.21 88.1701 114.81 88.4001 114.56C88.6401 114.3 89.0301 114.29 89.2901 114.51C90.8301 115.9 93.5001 118.87 94.0301 123.16C94.1501 124.16 94.1501 125.2 94.0301 126.23C93.9901 126.55 93.7201 126.78 93.4101 126.78H93.4001Z" fill="#3B1A54"/>
<path d="M41.27 39.9301C42.12 40.4801 43.29 41.3801 44.29 42.7701C48.45 48.5801 44.75 56.2601 47.04 57.2701C48.74 58.0201 51.74 54.9401 53.12 52.7301C55.19 49.4201 54.65 45.8401 54.17 42.0401C53.9 39.8801 53.29 36.8201 51.78 33.3301C48.27 35.5301 44.77 37.7301 41.26 39.9301H41.27Z" fill="#FFCCCC"/>
<path d="M70.3701 21.27C70.2501 21.27 70.1301 21.24 70.0301 21.17C67.9101 19.78 63.5601 17.54 58.1401 18.25C56.0901 18.51 54.1001 19.16 52.2401 20.19C51.9401 20.36 51.5501 20.25 51.3901 19.94C51.2201 19.64 51.3301 19.26 51.6301 19.09C53.6401 17.99 55.7801 17.29 57.9801 17C63.7701 16.27 68.4601 18.63 70.7101 20.12C71.0001 20.31 71.0801 20.7 70.8901 20.99C70.7701 21.17 70.5701 21.27 70.3701 21.27Z" fill="#3B1A54"/>
<path d="M76.94 27.88C76.67 27.88 76.42 27.7 76.34 27.42C75.43 24.21 74.81 20.96 74.5 17.77C74.31 15.85 74.24 14.07 74.17 12.5C74.04 9.34002 73.94 6.85002 72.94 6.44002C72.56 6.29002 72.02 6.40002 71.35 6.77002C71.06 6.94002 70.67 6.83002 70.5 6.52002C70.33 6.22002 70.44 5.84002 70.75 5.67002C71.77 5.10002 72.68 4.97002 73.42 5.28002C75.17 5.99002 75.28 8.56002 75.43 12.45C75.49 14 75.56 15.76 75.75 17.65C76.06 20.77 76.66 23.94 77.55 27.08C77.64 27.41 77.45 27.76 77.12 27.85C77.06 27.87 77 27.87 76.95 27.87L76.94 27.88Z" fill="#3B1A54"/>
<path d="M49.39 52.1501C48.95 52.0901 48.72 51.7701 48.77 51.4301C49.17 48.7601 49.09 46.0801 48.54 43.4701C48.18 41.7801 47.62 40.1401 46.88 38.5901C46.73 38.2801 46.87 37.9001 47.18 37.7501C47.5 37.6001 47.87 37.7301 48.02 38.0501C48.8 39.6901 49.39 41.4301 49.76 43.2101C50.35 45.9701 50.43 48.8001 50.02 51.6101C49.97 51.9201 49.71 52.1401 49.4 52.1401L49.39 52.1501Z" fill="#3B1A54"/>
<path d="M59.93 118.43C59.73 118.43 59.54 118.33 59.42 118.16C56.34 113.7 54.04 108.79 52.59 103.56C51.22 98.6401 50.64 93.5501 50.86 88.4201C50.87 88.0701 51.14 87.8701 51.52 87.8201C51.86 87.8301 52.13 88.1301 52.12 88.4701C51.9 93.4701 52.47 98.4301 53.8 103.22C55.22 108.32 57.46 113.1 60.46 117.45C60.66 117.73 60.59 118.12 60.3 118.32C60.19 118.39 60.06 118.43 59.94 118.43H59.93Z" fill="#3B1A54"/>
<path d="M57.01 79.23C56.73 79.23 56.48 79.04 56.4 78.76L55.07 73.66C54.98 73.33 55.18 72.98 55.52 72.9C55.84 72.82 56.2 73.01 56.28 73.35L57.61 78.45C57.7 78.78 57.5 79.13 57.16 79.22C57.11 79.23 57.06 79.24 57 79.24L57.01 79.23Z" fill="#3B1A54"/>
<path d="M60.69 78.8599C60.51 78.8599 60.33 78.7799 60.2 78.6299L58.41 76.4399C58.19 76.1699 58.23 75.7799 58.5 75.5599C58.77 75.3399 59.16 75.3799 59.38 75.6499L61.17 77.8399C61.39 78.1099 61.35 78.4999 61.08 78.7199C60.96 78.8199 60.82 78.8599 60.68 78.8599H60.69Z" fill="#3B1A54"/>
<path d="M71.0501 71.21C70.8101 71.21 70.5701 71.07 70.4801 70.83L67.32 63.54C67.18 63.22 67.32 62.85 67.64 62.71C67.96 62.57 68.33 62.72 68.46 63.04L71.62 70.33C71.76 70.65 71.6201 71.02 71.3001 71.16C71.2201 71.19 71.13 71.21 71.0501 71.21Z" fill="#3B1A54"/>
<path d="M73.99 67.5601C73.74 67.5601 73.5 67.4101 73.41 67.1701L72.53 64.9801C72.4 64.6601 72.56 64.2901 72.88 64.1601C73.2 64.0401 73.57 64.1901 73.7 64.5101L74.58 66.7001C74.71 67.0201 74.55 67.3901 74.23 67.5201C74.15 67.5501 74.07 67.5601 74 67.5601H73.99Z" fill="#3B1A54"/>
<path d="M83.82 66.4701C83.67 66.4701 83.5201 66.4201 83.4001 66.3101L78.1601 61.5701C77.9101 61.3401 77.8901 60.9401 78.1201 60.6801C78.3501 60.4201 78.7501 60.4101 79.0101 60.6401L84.2501 65.3801C84.5001 65.6101 84.5201 66.0101 84.2901 66.2701C84.1701 66.4101 84 66.4801 83.82 66.4801V66.4701Z" fill="#3B1A54"/>
<path d="M125.25 164.24C125.15 164.24 125.06 164.22 124.97 164.17L122.38 162.85C122.07 162.69 121.95 162.32 122.11 162.01C122.26 161.7 122.64 161.58 122.95 161.74L125.54 163.06C125.85 163.22 125.97 163.59 125.81 163.9C125.7 164.12 125.48 164.24 125.25 164.24Z" fill="#3B1A54"/>
<path d="M129.46 161.3C129.21 161.3 128.98 161.16 128.88 160.92L128.07 158.98C127.94 158.66 128.09 158.29 128.41 158.16C128.72 158.02 129.1 158.17 129.23 158.5L130.04 160.44C130.17 160.76 130.03 161.13 129.7 161.26C129.62 161.29 129.54 161.31 129.46 161.31V161.3Z" fill="#3B1A54"/>
<path d="M138.99 183.16C141.32 182.75 143.39 184.36 144.2 184.97C156.35 194.19 170.4 195.89 170.13 200.85C169.78 207.07 147.24 212.06 128 211.87C109.11 211.68 90.18 206.45 90.41 203.44C90.57 201.23 100.9 198.77 110.5 199.71C116.23 200.27 120.87 202.62 129.13 201.82C133.03 201.44 135.37 200.64 135.94 199.07C136.71 196.9 133.36 195.31 133.19 191.45C133.02 187.74 135.88 183.71 138.99 183.16Z" fill="#FFE382"/>
<path d="M136.67 195.81C136.43 195.81 136.21 195.67 136.1 195.45C134.83 192.72 135.07 189.6 136.73 187.29C138.45 184.89 140.99 184.27 142.01 184.12C142.36 184.07 142.67 184.31 142.73 184.64C142.78 184.98 142.54 185.3 142.2 185.36C141.53 185.46 139.23 185.96 137.75 188.02C136.36 189.96 136.16 192.61 137.24 194.92C137.39 195.23 137.24 195.61 136.94 195.75C136.86 195.79 136.76 195.81 136.68 195.81H136.67Z" fill="#3B1A54"/>
<path d="M103.62 208.93C103.43 208.93 103.24 208.84 103.11 208.68C102.9 208.4 102.96 208.01 103.24 207.8L106.07 205.69C106.35 205.48 106.74 205.55 106.95 205.82C107.16 206.1 107.1 206.49 106.82 206.7L103.99 208.81C103.88 208.9 103.75 208.93 103.62 208.93Z" fill="#3B1A54"/>
<path d="M112.12 212.51C111.88 212.51 111.65 212.37 111.55 212.14C111.41 211.82 111.55 211.45 111.87 211.31L117.38 208.87C117.71 208.73 118.07 208.87 118.21 209.19C118.35 209.51 118.21 209.88 117.89 210.02L112.38 212.46C112.3 212.5 112.21 212.51 112.13 212.51H112.12Z" fill="#3B1A54"/>
<path d="M120.06 214.44C119.88 214.44 119.7 214.36 119.57 214.21C119.35 213.94 119.39 213.55 119.66 213.33L123.55 210.17C123.83 209.96 124.22 209.99 124.43 210.26C124.65 210.53 124.61 210.92 124.34 211.14L120.45 214.3C120.33 214.39 120.19 214.44 120.05 214.44H120.06Z" fill="#3B1A54"/>
</g>
<defs>
<clipPath id="clip0_1545_445">
<rect width="170.13" height="213.74" fill="white" transform="translate(0 0.699951)"/>
</clipPath>
</defs>
</svg>
