<svg width="40" height="40" viewBox="0 0 40 40" fill="none" xmlns="http://www.w3.org/2000/svg">
<rect x="0.5" y="0.5" width="39" height="39" rx="19.5" stroke="#AE80C4"/>
<g clip-path="url(#clip0_397_7305)">
<path d="M12.3376 9.41846C12.0396 9.41846 11.7988 9.65585 11.7988 9.94961V10.7745C11.7988 11.0683 12.0396 11.3057 12.3376 11.3057C12.6357 11.3057 12.8765 11.0683 12.8765 10.7745V9.94961C12.8765 9.65585 12.6357 9.41846 12.3376 9.41846Z" fill="#AE80C4"/>
<path d="M32.0001 18.905L31.6028 17.9139C31.5275 17.9436 29.7245 18.6647 28.8786 20.7151C28.1471 22.4866 28.3608 24.6587 29.5077 27.1721C30.6185 29.5994 30.8171 31.3383 30.0887 32.2047C29.3903 33.0297 27.8551 32.997 26.9762 32.8635V27.4629C26.9762 21.8398 24.4266 20.6706 22.3797 19.7329C20.8957 19.0534 19.9174 18.6053 19.9174 16.724C19.9174 11.9525 19.0113 9.94658 18.0029 8.15133C16.4647 5.42136 14.5412 5.0267 14.4599 5.00889C14.3004 4.97922 14.1378 5.02076 14.0144 5.12165C13.891 5.22254 13.8188 5.37388 13.8188 5.53115V7.4718H13.1054C12.1331 7.4718 10.3661 8.00296 10.0922 9.94361H9.34266C9.28848 9.94361 9.23731 9.95252 9.18614 9.96735C8.74665 10.0979 8.00314 10.7092 8.00314 12.1602C8.00314 13.4184 8.97542 14.7181 10.5979 14.7181C10.7213 14.7181 10.8598 14.7122 11.0103 14.7033C11.4347 14.6795 12.0759 14.6469 12.2565 14.8872C12.3408 15 12.4853 15.3857 12.0458 16.543C11.9976 16.6647 10.8929 19.5638 10.8929 23.1721C10.8929 24.0534 11.0253 24.5104 11.2421 25.2641C11.3926 25.7893 11.5822 26.4451 11.814 27.5282C12.2384 29.5044 11.8471 31.8457 11.6575 32.7685H9.15302V33.8338H12.0879C12.3348 33.8338 12.5515 33.6677 12.6117 33.4303C12.6478 33.2938 13.4576 30.0653 12.8676 27.3086C12.6267 26.1899 12.4251 25.4866 12.2776 24.9733C12.0729 24.2611 11.9705 23.905 11.9705 23.1721C11.9705 21.089 12.3739 19.2225 12.687 18.086L18.8397 16.9021C18.9089 19.3175 20.4411 20.0208 21.9221 20.7003C23.8757 21.5964 25.8955 22.5193 25.8955 27.4659V33.7181L26.3049 33.819C26.3651 33.8338 27.0695 34.003 27.9485 34.003C28.9418 34.003 30.1579 33.7863 30.9165 32.8932C31.9459 31.6766 31.8045 29.6083 30.4951 26.7389C29.4776 24.5133 29.2699 22.6291 29.875 21.1395C30.5372 19.5104 31.9911 18.9139 32.0031 18.908L32.0001 18.905ZM13.1204 14.2582C12.5966 13.5549 11.6033 13.6053 10.9471 13.6409C10.8207 13.6469 10.7002 13.6558 10.5949 13.6558C9.61057 13.6558 9.08078 12.8872 9.08078 12.1632C9.08078 11.3739 9.35169 11.0979 9.46909 11.0119H10.5949C10.8929 11.0119 11.1337 10.7745 11.1337 10.4807C11.1337 8.61424 12.9037 8.54302 13.1024 8.54005H14.3576C14.6556 8.54005 14.8964 8.30266 14.8964 8.0089V6.33234C15.4563 6.64984 16.2901 7.31453 17.0517 8.67062C17.9246 10.2225 18.7133 11.9495 18.8186 15.819L13.0452 16.9288C13.0452 16.9288 13.0452 16.9199 13.0482 16.9199C13.5208 15.6736 13.5418 14.8279 13.1174 14.2582H13.1204Z" fill="#AE80C4"/>
<path d="M18.3068 32.7688C17.1629 30.6738 16.9071 28.9854 17.5392 27.751C18.4483 25.9795 20.9618 25.656 20.9858 25.6531L20.8594 24.5967C20.733 24.6115 17.7529 24.9824 16.579 27.2643C15.8294 28.7183 16.004 30.57 17.0937 32.7688H15.0498V33.8341H23.418V32.7688H18.3038H18.3068Z" fill="#AE80C4"/>
</g>
<defs>
<clipPath id="clip0_397_7305">
<rect width="24" height="29" fill="white" transform="translate(8 5)"/>
</clipPath>
</defs>
</svg>
