<svg width="40" height="40" viewBox="0 0 40 40" fill="none" xmlns="http://www.w3.org/2000/svg">
<rect x="0.5" y="0.5" width="39" height="39" rx="19.5" stroke="#AE80C4"/>
<g clip-path="url(#clip0_397_7282)">
<path d="M26.7024 21.5106V22.4008C26.8815 22.4008 31.1074 22.4677 31.1074 26.7921C31.1074 27.8807 30.7691 28.7089 30.1 29.2568C28.8539 30.276 26.767 30.1421 25.9363 30.0379V28.5576C25.9363 23.9951 23.9241 21.3048 22.3073 19.1451C21.193 17.6548 20.2205 16.3555 20.1135 14.781C20.3747 14.6471 20.5911 14.4735 20.7602 14.2627C21.1681 13.7544 21.2726 13.0552 21.0736 12.1848C20.203 8.38113 17.5566 7 15.9896 7H14.5942C12.6267 7 11.8233 8.24972 11.6069 9.13493L8.58236 9.67548C8.43063 9.70276 8.30378 9.80442 8.24657 9.94824C8.2217 10.0102 7.63967 11.4881 8.35104 12.6609C8.79378 13.3899 9.60961 13.8189 10.7762 13.9329C11.5696 14.0123 12.669 14.1512 13.0172 14.4586C13.1789 14.6 13.1814 14.8107 13.1441 15.3736C13.1316 15.5744 13.1167 15.7976 13.1142 16.0505C13.067 16.4324 12.6168 20.0402 12.6168 21.1684C12.6168 21.952 12.7411 22.4355 12.9476 23.2389C13.0645 23.6976 13.2137 24.2679 13.3853 25.0812C13.7435 26.7698 13.4102 29.0982 13.2585 29.9784H11.204V30.8686H13.6291C13.8405 30.8686 14.0246 30.7198 14.0669 30.514C14.0942 30.3801 14.7434 27.1913 14.2584 24.8977C14.0818 24.0671 13.9325 23.4868 13.8132 23.0182C13.6117 22.2322 13.5097 21.8379 13.5097 21.1684C13.5097 20.5535 13.6589 19.088 13.7957 17.8953L19.9294 17.206C20.3722 18.054 20.9716 18.8549 21.5885 19.6806C23.2052 21.8429 25.0409 24.2927 25.0409 28.5626V30.7892L25.399 30.8611C25.4612 30.8735 26.1452 31.005 27.0556 31.005C28.1674 31.005 29.6125 30.8066 30.6622 29.9511C31.5476 29.2271 31.9978 28.1658 31.9978 26.7971C31.9978 21.5751 26.7521 21.5155 26.6999 21.5155L26.7024 21.5106ZM13.9052 16.9853C13.9649 16.4845 14.0072 16.1447 14.0097 16.1348C14.0097 16.1175 14.0121 16.0976 14.0121 16.0803C14.0121 15.8472 14.0246 15.6364 14.0395 15.4331C14.144 13.8412 13.7385 13.3354 10.8682 13.0502C9.99763 12.9634 9.40814 12.6808 9.11962 12.2047C8.76642 11.6294 8.90322 10.8756 9.0052 10.5061L12.0745 9.95568C12.2735 9.92096 12.4228 9.75483 12.4402 9.55398C12.4451 9.48703 12.6018 7.8877 14.5942 7.8877H15.9896C17.2208 7.8877 19.4544 9.10766 20.203 12.3782C20.3398 12.9709 20.2926 13.4172 20.0613 13.7023C19.7703 14.0668 19.1484 14.2528 18.2107 14.2528C16.2905 14.2528 16.2308 9.90609 16.2308 9.86145H15.3379C15.3379 10.0772 15.3702 15.143 18.2107 15.143C18.5938 15.143 18.937 15.1157 19.2429 15.0587C19.2927 15.5075 19.3996 15.934 19.5514 16.3456L13.9027 16.9804L13.9052 16.9853Z" fill="#AE80C4"/>
<path d="M13.5666 8.72852C13.3204 8.72852 13.1214 8.92688 13.1214 9.17236V9.86169C13.1214 10.1072 13.3204 10.3055 13.5666 10.3055C13.8128 10.3055 14.0118 10.1072 14.0118 9.86169V9.17236C14.0118 8.92688 13.8128 8.72852 13.5666 8.72852Z" fill="#AE80C4"/>
<path d="M18.9765 29.9736C18.0586 28.2577 17.8323 26.7154 18.3024 25.3814C19.0411 23.2911 21.2797 22.3786 21.3021 22.3687L20.9738 21.5405C20.8668 21.5827 18.3422 22.6018 17.4642 25.0764C16.9418 26.5443 17.116 28.1883 17.9766 29.9736H15.7852V30.8638H23.1999V29.9736H18.974H18.9765Z" fill="#AE80C4"/>
</g>
<defs>
<clipPath id="clip0_397_7282">
<rect width="24" height="24" fill="white" transform="translate(8 7)"/>
</clipPath>
</defs>
</svg>
