<svg width="16" height="16" viewBox="0 0 16 16" fill="none" xmlns="http://www.w3.org/2000/svg">
<g clip-path="url(#clip0_1560_2412)">
<path d="M5.48781 6.61395C6.51712 6.40163 7.30281 5.47116 7.21754 4.15975C7.13227 2.84834 6.43186 1.03111 5.48781 0.818783C4.38542 0.575236 2.76532 2.55484 3.01503 4.24718C3.26475 5.93952 4.4585 6.82628 5.48781 6.61395Z" fill="white"/>
<path d="M3.21584 8.05031C3.2402 6.8638 2.59459 5.68353 1.85763 5.55239C1.20594 5.44623 0 6.614 0 7.71309C0 8.81217 0.950133 9.91126 1.85763 9.78636C2.76513 9.66147 3.20365 8.83091 3.21584 8.05031Z" fill="white"/>
<path d="M8.00351 7.33203C6.14587 7.33203 3.01531 9.36159 2.27225 11.9407C1.5292 14.5198 3.39901 15.5689 4.29433 15.7438C5.78044 16.0373 6.89502 14.9382 8.00351 14.9382C9.11809 14.9382 10.2327 16.0373 11.7127 15.7438C12.608 15.5627 14.4778 14.5198 13.7348 11.9407C12.9917 9.36159 9.85505 7.33203 8.00351 7.33203Z" fill="white"/>
<path d="M10.5185 6.61395C11.5478 6.82628 12.7476 5.93952 12.9913 4.24718C13.2349 2.55484 11.6148 0.575236 10.5185 0.818783C9.56834 1.03111 8.86792 2.84834 8.78874 4.15975C8.70956 5.47116 9.48916 6.40163 10.5185 6.61395Z" fill="white"/>
<path d="M14.1483 5.55865C13.4052 5.68354 12.7596 6.87006 12.7901 8.05657C12.8084 8.83717 13.2408 9.66148 14.1483 9.79262C15.0558 9.91752 16.0059 8.81843 16.0059 7.71935C16.0059 6.62026 14.8 5.45249 14.1483 5.56489V5.55865Z" fill="white"/>
</g>
<defs>
<clipPath id="clip0_1560_2412">
<rect width="16" height="15" fill="white" transform="translate(0 0.800049)"/>
</clipPath>
</defs>
</svg>
