<?xml version="1.0" encoding="utf-8"?>
<!-- Generator: Adobe Illustrator 27.8.1, SVG Export Plug-In . SVG Version: 6.00 Build 0)  -->
<svg version="1.1" id="圖層_1" xmlns="http://www.w3.org/2000/svg" xmlns:xlink="http://www.w3.org/1999/xlink" x="0px" y="0px"
	 viewBox="0 0 1512 960" style="enable-background:new 0 0 1512 960;" xml:space="preserve">
<style type="text/css">
	.st0{clip-path:url(#SVGID_00000177450758669449549200000000652008620274751149_);}
	.st1{fill:#FFF9EC;}
	.st2{clip-path:url(#SVGID_00000177450758669449549200000000652008620274751149_);fill:#36244D;}
	.st3{fill:#A05F9E;}
	.st4{fill:#F8C9C9;}
	.st5{fill:#A67DB5;}
	.st6{fill:none;stroke:#4C714A;stroke-width:2.4845;stroke-miterlimit:10;}
	.st7{fill:#E95352;}
	.st8{fill:#8CA259;}
	.st9{fill:none;stroke:#F8C9C9;stroke-width:2.4845;stroke-miterlimit:10;}
	.st10{fill:#4C714A;}
	
		.st11{clip-path:url(#SVGID_00000177450758669449549200000000652008620274751149_);fill:none;stroke:#040000;stroke-width:1.2422;stroke-miterlimit:10;}
	.st12{fill:none;stroke:#36244D;stroke-width:2.4845;stroke-linecap:round;stroke-linejoin:round;stroke-miterlimit:10;}
	.st13{fill:#36244E;}
	.st14{clip-path:url(#SVGID_00000177450758669449549200000000652008620274751149_);fill:#4E7392;}
	.st15{fill:none;stroke:#222146;stroke-width:2.4845;stroke-linecap:round;stroke-linejoin:round;stroke-miterlimit:10;}
	.st16{clip-path:url(#SVGID_00000177450758669449549200000000652008620274751149_);fill:#F8C9C9;}
	.st17{clip-path:url(#SVGID_00000177450758669449549200000000652008620274751149_);fill:#36244E;}
	.st18{clip-path:url(#SVGID_00000177450758669449549200000000652008620274751149_);fill:#E95352;}
	
		.st19{clip-path:url(#SVGID_00000177450758669449549200000000652008620274751149_);fill:none;stroke:#36244E;stroke-width:2;stroke-linecap:round;stroke-linejoin:round;stroke-miterlimit:10;}
	.st20{clip-path:url(#SVGID_00000177450758669449549200000000652008620274751149_);fill:#FFFFFF;}
	.st21{clip-path:url(#SVGID_00000177450758669449549200000000652008620274751149_);fill:#A67DB5;}
	.st22{fill:#FFFFFF;}
	.st23{fill:none;stroke:#4C714A;stroke-width:3.524;stroke-miterlimit:10;}
	.st24{fill:none;stroke:#4C714A;stroke-width:2.7127;stroke-miterlimit:10;}
	.st25{fill:#36244D;}
	.st26{fill:#F7C476;}
	.st27{fill:#F4EFEC;}
	
		.st28{clip-path:url(#SVGID_00000177450758669449549200000000652008620274751149_);fill:#FDEBE5;stroke:#FFF9EC;stroke-width:1.1491;stroke-miterlimit:10;}
	
		.st29{clip-path:url(#SVGID_00000177450758669449549200000000652008620274751149_);fill:none;stroke:#36244D;stroke-width:1.8385;stroke-linecap:round;stroke-miterlimit:10;}
	
		.st30{clip-path:url(#SVGID_00000177450758669449549200000000652008620274751149_);fill:none;stroke:#A05F9E;stroke-width:2.0683;stroke-linecap:round;stroke-linejoin:round;stroke-miterlimit:10;}
</style>
<g>
	<defs>
		<polygon id="SVGID_1_" points="1512,961.7 0,960 0,275.1 1512,275.1 		"/>
	</defs>
	<clipPath id="SVGID_00000170239456301020447320000015503992047432253864_">
		<use xlink:href="#SVGID_1_"  style="overflow:visible;"/>
	</clipPath>
	<g style="clip-path:url(#SVGID_00000170239456301020447320000015503992047432253864_);">
		<g>
			<g>
				<g>
					<rect x="959.7" y="315.7" class="st1" width="98.5" height="120.4"/>
				</g>
				<g>
					<rect x="1071.6" y="315.7" class="st1" width="98.5" height="120.4"/>
				</g>
			</g>
			<g>
				<g>
					<rect x="959.7" y="448.1" class="st1" width="98.5" height="120.4"/>
				</g>
				<g>
					<rect x="1071.6" y="448.1" class="st1" width="98.5" height="120.4"/>
				</g>
			</g>
			<g>
				<g>
					<rect x="959.7" y="580.4" class="st1" width="98.5" height="120.4"/>
				</g>
				<g>
					<rect x="1071.6" y="580.4" class="st1" width="98.5" height="120.4"/>
				</g>
			</g>
		</g>
	</g>
	<g style="clip-path:url(#SVGID_00000170239456301020447320000015503992047432253864_);">
		<g>
			<g>
				<g>
					<rect x="1205.7" y="315.7" class="st1" width="98.5" height="120.4"/>
				</g>
				<g>
					<rect x="1317.5" y="315.7" class="st1" width="98.5" height="120.4"/>
				</g>
			</g>
			<g>
				<g>
					<rect x="1205.7" y="448.1" class="st1" width="98.5" height="120.4"/>
				</g>
				<g>
					<rect x="1317.5" y="448.1" class="st1" width="98.5" height="120.4"/>
				</g>
			</g>
			<g>
				<g>
					<rect x="1205.7" y="580.4" class="st1" width="98.5" height="120.4"/>
				</g>
				<g>
					<rect x="1317.5" y="580.4" class="st1" width="98.5" height="120.4"/>
				</g>
			</g>
		</g>
	</g>
	<path style="clip-path:url(#SVGID_00000170239456301020447320000015503992047432253864_);fill:#36244D;" d="M1169.9,514.6
		c8.5,2.8,15.2,10.2,17.1,18.9c1.7,7.8-0.2,16.4,2.9,23.8c3.1,7.2,10.4,11.5,17,15.9s13.4,10,14.4,17.8c0.6,4.9-1.2,10.2,0.8,14.7
		c0.9,2.1,2.5,3.8,4.2,5.4c7.3,7.2,15.4,14.4,18,24.3c0.7,2.9,0.9,6-0.6,8.6c-1.2,2-3.2,3.3-5.3,4.3c-11.4,5.2-24.8,1.4-36.4-3.4
		c-6.4-2.7-12.8-5.7-17.8-10.5s-8.7-11.4-8.4-18.3c0.2-4.5,1.9-9.6-1-13c-1-1.2-2.4-2-3.7-2.8c-3.9-2.5-7.5-6.6-7.2-11.3
		c0.2-3.2,2.2-6,3.9-8.9c1.9-3.4,3.4-7,4.3-10.8c0.8-3.4,1.1-7.1-0.2-10.3c-2-4.8-7.2-7.3-12-9.2c-4.9-1.8-10.1-3.5-13.4-7.5
		c-3.9-4.8-6.8-17.6-2-22.6C1150.3,513.5,1162.1,512,1169.9,514.6z"/>
	<g style="clip-path:url(#SVGID_00000170239456301020447320000015503992047432253864_);">
		<path class="st3" d="M1193,576.2c3,0.8,5.9,2.1,8.5,3.9c2.5,1.8,4.5,4.3,5.6,7.3c1.1,2.9,0.8,6.1,0.1,9.2
			c-0.7,3.1-1.7,6.2-1.7,9.6c0,3.4,1.8,6.7,4.2,8.9c2.4,2.3,5.3,3.9,7.8,5.8c2.6,1.9,4.7,4.2,5.6,7.1c1,2.9,1.2,6.1,1.4,9.3
			c0,0.6,0.5,1,1.1,1c0.6,0,1-0.5,1-1.1c0,0,0,0,0,0c-0.3-3.2-0.6-6.5-1.9-9.7c-1.2-3.2-3.7-5.8-6.3-7.7c-2.7-1.9-5.5-3.5-7.8-5.6
			c-1.1-1.1-2.2-2.2-2.9-3.6c-0.7-1.4-1-2.9-1.1-4.4c-0.1-3.1,1-6.2,1.7-9.3c0.7-3.1,1.1-6.7-0.1-9.8c-1.1-3.2-3.2-5.9-5.7-8.1
			c-2.5-2.2-5.4-3.9-8.4-5.4c-0.7-0.4-1.6-0.1-2,0.6c-0.4,0.7-0.1,1.6,0.6,2C1192.8,576.1,1192.9,576.1,1193,576.2z"/>
		<path class="st3" d="M1179.7,585.6c2.9,1.1,5.3,1.7,7.6,2.9c2.2,1.2,4.1,3,3.7,5.3c-0.1,1.1-0.7,2.4-1.2,3.7
			c-0.4,1.3-1,2.3-1.7,3.6c-1.3,2.5-2.3,5.2-2.5,8c-0.1,1.4,0.2,2.9,0.7,4.3c0.6,1.4,1.5,2.5,2.5,3.5c2,2,4.4,3.3,6.2,5.3
			c3.6,3.8,5.1,9.5,3.9,14.5c-0.1,0.5,0.2,1.1,0.7,1.2c0.5,0.1,1.1-0.2,1.2-0.7c0,0,0-0.1,0-0.1c0.9-5.7-1-11.7-5-15.8
			c-2-2-4.4-3.4-6.3-5.3c-1.9-1.8-3-4.2-2.9-6.8c0.2-2.6,1.3-5.1,2.5-7.4c0.6-1.1,1.5-2.4,1.9-3.7l0.8-1.9c0.2-0.6,0.6-1.4,0.7-2.1
			c0.4-1.5-0.1-3.3-1-4.6c-0.9-1.3-2.1-2.2-3.3-3c-2.4-1.6-5.2-2.6-7.4-3.7l-0.1-0.1c-0.8-0.4-1.8-0.1-2.2,0.7
			c-0.4,0.8-0.1,1.8,0.7,2.2C1179.6,585.6,1179.6,585.6,1179.7,585.6z"/>
	</g>
	<g style="clip-path:url(#SVGID_00000170239456301020447320000015503992047432253864_);">
		<path class="st4" d="M124.9,902.6c0-0.2,0-0.5,0-0.7c0-26.6,8.5-51.3,22.8-71.5l29.1,15.9c0,0-15.5-16.4-22.9-24
			c19.4-23.1,47.2-38.9,78.6-43l7.8,20l-1.3-20.7c3.1-0.2,6.3-0.4,9.5-0.4c19.8,0,38.4,4.6,55,12.9l-4.6,17l9.5-14.4
			c15.2,8.5,28.5,20.1,38.9,33.9L326,849.3l28.1-11.7c11.4,18.7,18,40.7,18,64.2c0,0.2,0,0.5,0,0.7H124.9z"/>
		<path class="st5" d="M131.1,863l108.3,35.1l-101.3-52c0.5-1,1-2,1.6-3l107,56.9l-53.1-108.9c1.8-0.9,3.6-1.8,5.5-2.6l48.6,109.6
			V778.2c0.3,0,0.5,0,0.8,0c0.3,0,0.5,0,0.8,0v117.8l31.6-113.5c1.3,0.4,2.6,0.7,3.9,1.1l-34.1,113.9l68.8-96.9
			c0.4,0.3,0.9,0.6,1.3,0.9l-60.5,85.3l67.4-80c0.4,0.3,0.8,0.7,1.2,1L251,900l112.9-42.4c0.6,1.5,1.1,3.1,1.7,4.7l-116.9,40.2
			l-0.3-0.7l0,0l-0.2,0.7l-117.6-38.1C130.7,864,130.9,863.5,131.1,863z"/>
	</g>
	<g style="clip-path:url(#SVGID_00000170239456301020447320000015503992047432253864_);">
		<path class="st6" d="M1333.7,634.8c0,0-7.1,95.2,28.1,159.7"/>
		<path class="st7" d="M1305.8,605.6l8.5,18.8l-4.8-18.7l7.4,0.2l8.3,24.7l-3.7-24.6l6.4,0.2l2.2,7.9l-0.6-7.9l5.6,0.2l3.7,20.4
			l0.7-20.2l12.8,0.4l-3,20.2l6.9-20l5.7,0.2l-0.6,5.7l2.4-5.7l7.9,0.3c-0.7,20.4-17.8,36.5-38.2,35.8
			c-20.4-0.7-36.5-17.8-35.8-38.2L1305.8,605.6z"/>
		<path class="st8" d="M1319.4,664.9c6.7,7.8,10.6,16.2,10.8,22.3c-6-1.1-13.8-6.2-20.5-14s-10.6-16.2-10.8-22.3
			C1305,652,1312.7,657.1,1319.4,664.9z"/>
		<path class="st8" d="M1347.7,684.6c5.4-8.7,12.2-15,18-17.1c0.8,6.1-1.7,15.1-7.1,23.8c-5.4,8.7-12.2,15-18,17.1
			C1339.9,702.3,1342.3,693.3,1347.7,684.6z"/>
	</g>
	<g style="clip-path:url(#SVGID_00000170239456301020447320000015503992047432253864_);">
		<g>
			<circle class="st8" cx="1429.5" cy="753.3" r="83.5"/>
			<circle class="st8" cx="1349.5" cy="774.8" r="62.3"/>
			<circle class="st8" cx="1287.2" cy="798.7" r="36.8"/>
			<circle class="st8" cx="1196.2" cy="876.1" r="36.8"/>
			<circle class="st8" cx="1257.3" cy="862.3" r="63.7"/>
		</g>
		<polygon class="st8" points="1196.2,912.8 1513,912.8 1513,753.3 1429.5,753.3 1253.3,823.7 		"/>
	</g>
	<g style="clip-path:url(#SVGID_00000170239456301020447320000015503992047432253864_);">
		<path class="st9" d="M1440.7,733c0,0-16.8,94,11.6,161.8"/>
		<path class="st4" d="M1416,701.1l6.5,19.6l-2.9-19.1l7.4,1l5.7,25.5l-1.1-24.8l6.3,0.9l1.4,8.1l0.2-7.9l5.5,0.8l1.6,20.7l2.7-20.1
			l12.7,1.7l-5,19.8l9-19.2l5.7,0.8l-1.2,5.6l3-5.4l7.9,1.1c-2.8,20.3-21.4,34.5-41.7,31.7c-20.3-2.8-34.5-21.4-31.7-41.7
			L1416,701.1z"/>
		<path class="st4" d="M1423.5,761.4c5.9,8.4,8.9,17.2,8.5,23.3c-5.9-1.7-13.1-7.6-19-16c-5.9-8.4-8.9-17.2-8.5-23.3
			C1410.4,747.1,1417.6,753,1423.5,761.4z"/>
		<path class="st4" d="M1449.6,784c6.2-8.1,13.7-13.7,19.7-15.2c0.1,6.1-3.3,14.8-9.5,22.9c-6.2,8.1-13.7,13.7-19.7,15.2
			C1440,800.8,1443.4,792.1,1449.6,784z"/>
	</g>
	<g style="clip-path:url(#SVGID_00000170239456301020447320000015503992047432253864_);">
		<path class="st10" d="M1497.3,926.5c0-0.3,0-0.5,0-0.8c0-27-8.6-51.9-23.1-72.3l-29.5,16.1c0,0,15.7-16.6,23.1-24.3
			c-19.7-23.3-47.7-39.4-79.5-43.5l-7.9,20.3l1.3-20.9c-3.2-0.2-6.4-0.4-9.6-0.4c-20,0-38.9,4.7-55.7,13.1l4.6,17.2l-9.7-14.6
			c-15.4,8.6-28.8,20.3-39.4,34.3l21.6,22l-28.4-11.9c-11.5,18.9-18.2,41.2-18.2,65c0,0.3,0,0.5,0,0.8H1497.3z"/>
		<path class="st8" d="M1491,886.5L1381.3,922l102.5-52.6c-0.5-1-1-2.1-1.6-3.1L1374,923.9l53.8-110.2c-1.8-0.9-3.7-1.8-5.6-2.6
			L1373,922V800.7c-0.3,0-0.5,0-0.8,0s-0.5,0-0.8,0V920l-32-114.9c-1.3,0.4-2.6,0.7-3.9,1.1l34.5,115.2l-69.6-98
			c-0.4,0.3-0.9,0.6-1.3,0.9l61.3,86.3l-68.2-81c-0.4,0.3-0.8,0.7-1.2,1l78.6,93.3l-114.3-42.9c-0.6,1.6-1.2,3.1-1.7,4.7l118.2,40.7
			l0.3-0.7l0,0l0.2,0.8l119-38.6C1491.3,887.5,1491.1,887,1491,886.5z"/>
	</g>
	
		<line style="clip-path:url(#SVGID_00000170239456301020447320000015503992047432253864_);fill:none;stroke:#040000;stroke-width:1.2422;stroke-miterlimit:10;" x1="1197.9" y1="798.6" x2="1222" y2="780.4"/>
	<g style="clip-path:url(#SVGID_00000170239456301020447320000015503992047432253864_);">
		<path class="st4" d="M863.2,830.4l-56.3,50.6c-5.9,5.3-12.9,9.2-20.6,11.4c-22,6.4-42,13-55.5,20.3c-1.4,0.8-2.5,2-3.2,3.4l0,0
			c-2,4.7,1.4,9.9,6.5,9.9h95.7c4.8,0,8.7-3.8,8.8-8.6c0.1-4.2-0.1-9.6-1-15.4l58.7-37.7L863.2,830.4z"/>
		<g>
			<path class="st12" d="M747.8,914.4c0,0-7.8,4.5-9.4,11.6"/>
			<path class="st12" d="M757.3,914.4c0,0-7.8,4.5-9.4,11.6"/>
			<path class="st12" d="M766.7,914.4c0,0-7.8,4.5-9.4,11.6"/>
			<path class="st12" d="M776.1,914.4c0,0-7.8,4.5-9.4,11.6"/>
			<path class="st12" d="M823.7,892.9c2.3,4.9-0.7,12.1-6.8,13"/>
		</g>
		<path class="st13" d="M863.2,830.4l-13.1,11.8c-2.5,2.2-2.4,6.1,0.1,8.4c6.3,5.6,10.8,13.1,13.2,22.6c1.4,5.2,7.4,7.6,11.9,4.6
			l21.1-13.5L863.2,830.4z"/>
	</g>
	<path style="clip-path:url(#SVGID_00000170239456301020447320000015503992047432253864_);fill:#4E7392;" d="M1147,814l-90.6-83.4
		c-26.9-24.8-68.5-24.4-94.9,0.8L849.3,838.3l52.2,44.3c0,0,19.6-12.6,27-25.2c25.2-9.3,37.7-30.5,37.7-30.5s22.2-9.6,34.5-23.5
		l68.5,89.4L1147,814z"/>
	<path style="clip-path:url(#SVGID_00000170239456301020447320000015503992047432253864_);fill:#4E7392;" d="M1131.8,820.5
		c-1.1,1.8-2.2,4-3.1,6.5c-24.6-5.4-47.8-7.2-70-5.9c-26.3,1.5-47.4,22.5-49.2,48.8v0c-2.1,30.3,21.9,56.1,52.4,56.1h171.9
		c18.5,0,35.1-11.9,40.4-29.6c1.9-6.3,3.2-13.8,3.2-22.6c0-38-32.6-65.7-32.6-65.7l-102.8,6.2C1137.8,814.6,1134,816.8,1131.8,820.5
		z"/>
	<g style="clip-path:url(#SVGID_00000170239456301020447320000015503992047432253864_);">
		<line class="st15" x1="1126.7" y1="825.3" x2="1234.9" y2="844"/>
		<line class="st15" x1="1199.4" y1="838.3" x2="1232.7" y2="831.2"/>
	</g>
	<path style="clip-path:url(#SVGID_00000170239456301020447320000015503992047432253864_);fill:#F8C9C9;" d="M1100.2,722.1
		l-27.8,63.4c-3.9,8.9-12.7,14.7-22.5,14.7H917.3v-19.7l113.1-19.2c2.2-0.4,4.2-1.8,5.2-3.8l46.3-88.2c7.7-14.6,19.9-26.4,35-33.3
		c3.6-1.7,7.4-3.2,11.2-4.7L1100.2,722.1z"/>
	<path style="clip-path:url(#SVGID_00000170239456301020447320000015503992047432253864_);fill:#36244E;" d="M1001.2,766.2
		l-83.9,14.3v19.7h132.6c9.7,0,18.6-5.8,22.5-14.7l6.3-14.4c1.8-4.2-2.5-8.5-6.6-6.6c-12.1,5.5-28,8.3-40.9,4.2
		C1021.5,765.5,1011.3,764.4,1001.2,766.2z"/>
	<path style="clip-path:url(#SVGID_00000170239456301020447320000015503992047432253864_);fill:#E95352;" d="M1183.2,629.5l34.9,15
		l21.7,86c-1,17.1-2.1,49.3-2.1,49.3s17.1,13.3,13.8,27.6c-1,4.3-5,7.3-9.5,7.3h-101.4c-2.7,0-5-1.8-5.7-4.4l-14.3-54.1
		c-1.5-5.8-5.7-10.6-11.1-13.2c-21.8-10.7-24.2-40.4-6.3-69.1l8.7-31.1c1-3.5,3.4-6.4,6.7-7.9c3-1.4,6.2-2.6,9.4-3.7L1183.2,629.5z"
		/>
	<path style="clip-path:url(#SVGID_00000170239456301020447320000015503992047432253864_);fill:#36244E;" d="M1143.6,737.2
		c11.1-3.3,24-8.9,35.4-18.6l-7.4,42.3c0,0-13.6-2-28.3-6.7C1134.9,751.4,1135.2,739.6,1143.6,737.2z"/>
	<path style="clip-path:url(#SVGID_00000170239456301020447320000015503992047432253864_);fill:#36244E;" d="M1198.8,803.5
		c15.1-2.8,26.5-15.3,27.7-30.6l2.9-37.1l-19.5-11.6l-81.4,62.3l6.3,23.9c0.7,2.6,3,4.4,5.7,4.4h21.6
		C1172.9,809.7,1185.1,806,1198.8,803.5z"/>
	<g style="clip-path:url(#SVGID_00000170239456301020447320000015503992047432253864_);">
		<path class="st4" d="M1239.8,730.5c5.6-64.3-13.6-87-26.6-87c-27,0-42.2,62.2-56.3,106.2c-1.2,3.8-4.2,6.7-8,7.8l-102,29l-6.4-1
			c-10.6-1.7-21.5,0.3-30.7,5.9c-5.9,3.5-11.2,7.6-16,12.2h167.1c16.3,0,31-9.8,37.2-24.9l19.5-47.5
			C1217.6,731,1229.2,742,1239.8,730.5z"/>
		<g>
			<line class="st12" x1="1013.8" y1="793.6" x2="1003.2" y2="802.3"/>
			<line class="st12" x1="1020.6" y1="793.6" x2="1010" y2="802.3"/>
			<line class="st12" x1="1027.3" y1="793.6" x2="1016.7" y2="802.3"/>
			<path class="st12" d="M1023.5,802.3l5.3-4.4c0,0,8.2,4.8,19.8,1"/>
		</g>
	</g>
	<path style="clip-path:url(#SVGID_00000170239456301020447320000015503992047432253864_);fill:#36244E;" d="M1229.5,735.7l1.6-19.5
		c0.3-4-5.2-5.3-6.8-1.6l-6.8,16.4C1217.6,731,1222.8,736,1229.5,735.7z"/>
	<path style="clip-path:url(#SVGID_00000170239456301020447320000015503992047432253864_);fill:#F8C9C9;" d="M1154.2,590.6
		l11.9,25.5c1.7,3.6,4.5,6.5,7.9,8.4l9.1,5c-12.1,26.7-28.1,50.8-50.3,46.6c-26.9-5.1-4.8-44.9-4.8-44.9l5.9-2.6l-6.5-18.5
		L1154.2,590.6z"/>
	<path style="clip-path:url(#SVGID_00000170239456301020447320000015503992047432253864_);fill:#36244E;" d="M1127.5,610.1l7.3,21
		c1.4,3.9,6.3,5.2,9.3,2.4c9.2-8.6,12.2-21.3,7.8-36L1127.5,610.1z"/>
	
		<line style="clip-path:url(#SVGID_00000170239456301020447320000015503992047432253864_);fill:none;stroke:#36244E;stroke-width:2;stroke-linecap:round;stroke-linejoin:round;stroke-miterlimit:10;" x1="1144" y1="653.8" x2="1159.7" y2="643.5"/>
	
		<rect x="765.8" y="805.1" style="clip-path:url(#SVGID_00000170239456301020447320000015503992047432253864_);fill:#FFFFFF;" width="349.3" height="11.2"/>
	
		<rect x="765.8" y="805.1" style="clip-path:url(#SVGID_00000170239456301020447320000015503992047432253864_);fill:#A67DB5;" width="349.3" height="3"/>
	<g style="clip-path:url(#SVGID_00000170239456301020447320000015503992047432253864_);">
		<g>
			<polygon class="st22" points="1117.8,927.8 1106.5,927.8 1079.4,816.3 1090.6,816.3 			"/>
			<polygon class="st5" points="1117.8,927.8 1114.5,927.8 1087.3,816.3 1090.6,816.3 			"/>
			<polygon class="st22" points="1101.3,874.3 1000.8,874.3 1000.8,865.6 1099.1,865.6 			"/>
			<polygon class="st22" points="1022,927.8 1010.8,927.8 983.6,816.3 994.8,816.3 			"/>
			<polygon class="st5" points="1022,927.8 1018.7,927.8 991.5,816.3 994.8,816.3 			"/>
			<path class="st5" d="M983.6,816.3h11.2l0.4,1.8l-5,2.4c-2.6,1.2-5.7-0.2-6.4-3L983.6,816.3z"/>
			<path class="st5" d="M1079.4,816.3h11.2l0.4,1.8l-5,2.4c-2.6,1.2-5.7-0.2-6.4-3L1079.4,816.3z"/>
			<path class="st5" d="M1096.9,880.2l4.5-5.9h-7.9l1.3,5.5C1095.1,880.7,1096.3,881,1096.9,880.2z"/>
		</g>
		<g>
			<path class="st5" d="M784,880.2l-4.5-5.9h7.9l-1.3,5.5C785.9,880.7,784.6,881,784,880.2z"/>
			<g>
				<polygon class="st5" points="763.2,927.8 774.4,927.8 801.6,816.3 790.3,816.3 				"/>
				<polygon class="st22" points="763.2,927.8 766.5,927.8 793.7,816.3 790.3,816.3 				"/>
				<polygon class="st5" points="859,927.8 870.2,927.8 897.4,816.3 886.1,816.3 				"/>
				<polygon class="st22" points="859,927.8 862.3,927.8 889.5,816.3 886.1,816.3 				"/>
				<path class="st5" d="M897.4,816.3h-11.2l-0.4,1.8l5,2.4c2.6,1.2,5.7-0.2,6.4-3L897.4,816.3z"/>
				<path class="st5" d="M801.6,816.3h-11.2l-0.4,1.8l5,2.4c2.6,1.2,5.7-0.2,6.4-3L801.6,816.3z"/>
				<polygon class="st5" points="779.6,874.3 880.2,874.3 880.2,865.6 781.8,865.6 				"/>
			</g>
		</g>
	</g>
	
		<rect x="974.6" y="798.4" style="clip-path:url(#SVGID_00000170239456301020447320000015503992047432253864_);fill:#FFFFFF;" width="118.6" height="6.7"/>
	<g style="clip-path:url(#SVGID_00000170239456301020447320000015503992047432253864_);">
		<g>
			<polygon class="st5" points="1007.5,805.1 886.3,805.1 865.3,712.9 986.6,712.9 			"/>
			<polygon class="st22" points="1007.5,805.1 1002.4,805.1 981.5,712.9 986.6,712.9 			"/>
		</g>
		
			<ellipse transform="matrix(0.6369 -0.7709 0.7709 0.6369 -246.0696 995.5519)" class="st22" cx="933.9" cy="759" rx="8.4" ry="10.5"/>
	</g>
	
		<rect x="974.6" y="803.5" style="clip-path:url(#SVGID_00000170239456301020447320000015503992047432253864_);fill:#A67DB5;" width="118.6" height="1.6"/>
	<g style="clip-path:url(#SVGID_00000170239456301020447320000015503992047432253864_);">
		<g>
			<path class="st23" d="M119.2,638c0,0-29.9,132.1,5.8,230"/>
			<path class="st7" d="M102,581l-1.5,29.2l6.1-26.7l9.2,5.1l-5.5,36.6l11.3-33.4l7.9,4.4l-2.4,11.4l4.3-10.3l6.9,3.8l-8.5,28.1
				l13.9-25.1l15.9,8.8l-16.8,23.5l21.7-20.8l7.1,3.9l-4.5,6.8l6.7-5.6l9.8,5.5c-14.1,25.4-46.1,34.5-71.4,20.4
				s-34.5-46.1-20.4-71.4L102,581z"/>
			<path class="st8" d="M93,677.2c7.8,12.3,11.4,25,10.5,33.6c-8.2-2.8-18.1-11.6-25.8-23.9s-11.4-25-10.5-33.6
				C75.4,656.1,85.2,664.9,93,677.2z"/>
			<path class="st8" d="M128.5,710.8c9.4-11.1,20.3-18.5,28.9-20.2c-0.2,8.7-5.6,20.8-14.9,31.9c-9.4,11.1-20.3,18.5-28.9,20.2
				C113.7,734,119.1,722,128.5,710.8z"/>
		</g>
		<g>
			<g>
				<circle class="st8" cx="15.2" cy="768.8" r="84.8"/>
				<circle class="st8" cx="96.4" cy="790.6" r="63.2"/>
				<circle class="st8" cx="159.6" cy="814.8" r="37.3"/>
				<circle class="st8" cx="251.9" cy="893.3" r="37.3"/>
				<path class="st8" d="M125.3,879.4c0-35.7,28.9-64.6,64.6-64.6s64.6,28.9,64.6,64.6"/>
			</g>
			<polygon class="st8" points="251.9,930.6 -69.6,930.6 -69.6,768.8 15.2,768.8 194,840.2 			"/>
		</g>
		<g>
			<path class="st24" d="M215.3,753.3c0,0-25.6,101-84.3,155.7"/>
			<path class="st7" d="M254.2,732.7L239,749.3l11.4-17.7l-7.8-2.3L225.4,752l12.3-24.2l-6.7-2l-5,7.4l3.4-7.9l-5.8-1.7l-10.9,19.8
				l6.3-21.2l-13.4-4l-3.9,21.9l-0.3-23.1l-6-1.8l-1.3,6.2l-0.5-6.7l-8.3-2.5c-6.4,21.4,5.8,43.9,27.2,50.3s43.9-5.8,50.3-27.2
				L254.2,732.7z"/>
			<path class="st8" d="M219.6,789.4c-9.6,5.7-16.6,13.1-18.9,19.4c6.6,0.9,16.5-1.7,26.1-7.4c9.6-5.7,16.6-13.1,18.9-19.4
				C239.1,781.1,229.2,783.6,219.6,789.4z"/>
			<path class="st10" d="M183.5,800.1c-2.5-10.9-7.5-19.8-12.7-23.9c-2.9,6-3.4,16.2-0.9,27.1c2.5,10.9,7.5,19.8,12.7,23.9
				C185.5,821.1,186.1,811,183.5,800.1z"/>
		</g>
		<g>
			<path class="st10" d="M238.1,960c0-0.2,0-0.4,0-0.6c0-23.1-7.3-44.4-19.7-61.8l-25.2,13.8c0,0,13.4-14.2,19.8-20.8
				c-16.8-20-40.8-33.7-68-37.2l-6.7,17.3l1.1-17.9c-2.7-0.2-5.4-0.3-8.2-0.3c-17.1,0-33.3,4-47.6,11.2l3.9,14.7l-8.3-12.5
				c-13.2,7.3-24.6,17.4-33.7,29.3L64.1,914l-24.3-10.1C29.9,920,24.3,939,24.3,959.4c0,0.2,0,0.4,0,0.6H238.1z"/>
			<path class="st8" d="M232.7,925.8L139,956.1l87.7-45c-0.4-0.9-0.9-1.8-1.3-2.6l-92.6,49.3l46-94.2c-1.6-0.8-3.1-1.5-4.8-2.2
				l-42.1,94.8V852.4c-0.2,0-0.5,0-0.7,0c-0.2,0-0.5,0-0.7,0v102l-27.3-98.2c-1.1,0.3-2.2,0.6-3.3,0.9l29.5,98.5l-59.5-83.8
				c-0.4,0.3-0.7,0.5-1.1,0.8l52.4,73.8l-58.3-69.2c-0.3,0.3-0.7,0.6-1,0.9l67.2,79.8l-97.7-36.6c-0.5,1.3-1,2.7-1.4,4L131,960
				l0.2-0.6l0,0l0.2,0.6l101.8-33C233,926.6,232.9,926.2,232.7,925.8z"/>
		</g>
	</g>
	<path style="clip-path:url(#SVGID_00000170239456301020447320000015503992047432253864_);fill:#FFFFFF;" d="M1403.1,594.6
		c-14.9,1.8-16.1,3.3-17.7,21c-1.5-17.7-2.8-19.2-17.7-21c14.9-1.8,16.1-3.3,17.7-21C1387,591.3,1388.2,592.8,1403.1,594.6z"/>
	<path style="clip-path:url(#SVGID_00000170239456301020447320000015503992047432253864_);fill:#FFFFFF;" d="M1326.5,750.3
		c-9.6,1.2-10.4,2.1-11.4,13.5c-1-11.4-1.8-12.4-11.4-13.5c9.6-1.2,10.4-2.1,11.4-13.5C1316.1,748.1,1316.9,749.1,1326.5,750.3z"/>
	<path style="clip-path:url(#SVGID_00000170239456301020447320000015503992047432253864_);fill:#FFFFFF;" d="M356.6,598.7
		c-14.9,1.8-16.1,3.3-17.6,21c-1.5-17.7-2.8-19.2-17.6-21c14.9-1.8,16.1-3.3,17.6-21C340.5,595.4,341.8,596.9,356.6,598.7z"/>
	<path style="clip-path:url(#SVGID_00000170239456301020447320000015503992047432253864_);fill:#FFFFFF;" d="M638.5,688.5
		c-20.3,2.5-21.9,4.5-24,28.6c-2.1-24.1-3.7-26.1-24-28.6c20.3-2.5,21.9-4.5,24-28.6C616.5,684,618.2,686,638.5,688.5z"/>
	<path style="clip-path:url(#SVGID_00000170239456301020447320000015503992047432253864_);fill:#FFFFFF;" d="M981.1,442.7
		c-23.8,2.9-25.7,5.2-28.2,33.5c-2.4-28.3-4.4-30.6-28.2-33.5c23.8-2.9,25.7-5.2,28.2-33.5C955.4,437.5,957.4,439.8,981.1,442.7z"/>
	<g style="clip-path:url(#SVGID_00000170239456301020447320000015503992047432253864_);">
		<g>
			<path class="st25" d="M1307.6,811.3c-2.9-1.4-5.8-2.9-8.1-5.2c-2.6-2.6-3.8-5.9-4.7-9.4c-1.5-5.7-3.3-10.9-7.9-14.8
				c-3.8-3.3-9.8-5.7-14.2-2.2c-4.3,3.4-2.1,8.9,1,12.3c2.4,2.6,5.3,4.8,6.5,8.4c1.1,3.2,0.9,6.7,0.5,10c-0.7,6-2.4,12.6,0.5,18.3
				c1.9,3.8,5.5,5.7,9.2,7.3c-0.6-0.2-1.1-0.4-1.7-0.6c-0.8-0.4-1.2,0.9-0.4,1.3c2.3,1,4.6,1.5,6.9,1.6c0.4,0.2,0.8,0.5,1.2,0.7
				c0.6,0.4,1.2-0.3,1-0.8c7.4-0.8,13.9-6.2,15.4-14.2C1313.6,818.9,1312.5,813.7,1307.6,811.3z"/>
		</g>
		<g>
			<path class="st25" d="M1257.3,874.2c-3.7-1-7.6-0.8-11,0.9c-2.1,1-4,2.5-6.2,3c-3.4,0.8-5.3-1.3-6.7-4.1
				c-3.8-8.1-7.6-16.3-15.2-21.6c-3.3-2.3-7.4-4-11.5-3.1c-3.4,0.7-6.3,3.1-7.1,6.5c-2.1,9.1,8.4,14.7,11.4,22
				c4,9.6,0.2,20.6,4,30.4c1.5,3.9,4,7.4,7,10.3c-0.1,0.2-0.2,0.4,0,0.7c4.9,7.2,13.7,9.4,22,8.3c8.5-1.1,17.9-4.6,23.7-11.1
				C1278.3,904.3,1273.9,878.7,1257.3,874.2z"/>
		</g>
		<g>
			<path class="st26" d="M1356.3,827.1c-2.6-20.2-49.3-14.5-49.3-14.5s-3.6,10.2-13.8,17.5c-10.2,7.3-39.1,20.2-45.5,44.1
				c-3,11.2-0.2,24.7,6.3,35.7c-10.6,3-27.5,4.7-46.6-4.8c-12.9-6.4-13.9-20.2-15.4-32.9c-0.8-6.4-2.2-13.1-6.5-18
				c-9.9-11.3-29.9-10.6-40.4-0.6c-23.2,22.3,0.5,57,20.9,71c25.4,17.3,56.7,20.3,86.4,16.2c29-4,59.5-10.7,80.7-32.5
				C1358.3,882.5,1360.1,856.6,1356.3,827.1z"/>
		</g>
		<g>
			<path class="st26" d="M1279.7,864.8c-3.7-1-7.6-0.8-11,0.9c-2.1,1-4,2.5-6.2,3c-3.4,0.8-5.3-1.3-6.7-4.1
				c-3.8-8.1-7.6-16.3-15.2-21.6c-3.3-2.3-7.4-4-11.5-3.1c-3.4,0.7-6.3,3.1-7.1,6.5c-2.1,9.1,8.4,14.7,11.4,22
				c2.8,6.9,1.7,14.5,2.2,21.7c0.7,8.9,5.3,18.3,12.8,23.4c12.5,8.6,31.9,4.6,41.7-6.6C1300.7,895,1296.4,869.3,1279.7,864.8z"/>
		</g>
		<g>
			<path class="st22" d="M1231.3,861.7c-0.9,0.3-1.8,0.4-2.6,0.4c-0.1,0-0.2-0.1-0.3-0.1l-0.6-0.7c-3.7-4.3-7.6-8.8-6.2-14.8
				c0.7-3.2,3.4-5.8,6.9-6.7c0.2,0,0.4-0.1,0.6-0.1c4.7-1,9,1.2,11.9,3.1c2.3,1.6,4.3,3.5,6.2,5.9c0.1,0.1,0.1,0.3,0,0.5
				c-1.6,2.8-4.4,5.7-8.3,8.6C1236.1,859.7,1233.5,861.1,1231.3,861.7C1231.3,861.7,1231.3,861.7,1231.3,861.7z"/>
		</g>
		<g>
			<path class="st22" d="M1240.7,843c-3.3-2.3-7.4-4-11.5-3.1c-3.4,0.7-6.3,3.1-7.1,6.5c-1.4,6.1,2.8,10.6,6.7,15.1
				c2.3,0,5.4-0.9,10-4.4c4.2-3.1,6.7-6,8.1-8.4C1245,846.6,1243,844.7,1240.7,843z"/>
		</g>
		<g>
			<path class="st25" d="M1259,919c-0.2,0-0.3,0.1-0.5,0c-9.9-1.3-16.6-7.8-16.9-8c-0.5-0.5-0.5-1.3,0-1.8c0.5-0.5,1.3-0.5,1.8,0
				c0.1,0.1,6.4,6.1,15.5,7.4c0.7,0.1,1.2,0.7,1.1,1.4C1259.8,918.4,1259.5,918.8,1259,919z"/>
		</g>
		<g>
			<path class="st25" d="M1304.8,887.1c-0.7,0.2-1.4-0.2-1.5-0.9c-2.6-10.8-8.1-12.5-8.2-12.5c-0.7-0.2-1.1-0.9-0.9-1.5
				c0.2-0.7,0.9-1.1,1.5-0.9c0.3,0.1,7,1.9,10,14.4C1305.8,886.2,1305.4,886.9,1304.8,887.1z"/>
		</g>
		<g>
			<path class="st25" d="M1187,930.7c-0.3,0.1-0.6,0.1-0.9-0.1c-6.8-3.5-12.1-8-15-10.4c-0.9-0.8-1.8-1.5-2.1-1.7
				c-0.6-0.3-0.9-1.1-0.6-1.7c0.3-0.6,1-0.9,1.6-0.6c0.5,0.2,1.2,0.8,2.7,2.1c2.8,2.4,8,6.8,14.5,10.1c0.6,0.3,0.9,1.1,0.5,1.7
				C1187.6,930.4,1187.3,930.6,1187,930.7z"/>
		</g>
		<g>
			<path class="st25" d="M1191.4,924.2c-0.4,0.1-0.9,0-1.2-0.3c-3.3-3.2-7.6-5.9-7.6-5.9c-0.6-0.4-0.8-1.1-0.4-1.7
				c0.4-0.6,1.1-0.8,1.7-0.4c0.2,0.1,4.6,2.8,8.1,6.2c0.5,0.5,0.5,1.3,0,1.8C1191.8,924.1,1191.6,924.2,1191.4,924.2z"/>
		</g>
		<g>
			<path class="st22" d="M1281.1,865.7c-0.1,0-0.2,0-0.2,0c-0.6,0.1-1.3-0.1-1.8-0.3c-0.2-0.1-0.5-0.1-0.7-0.2
				c-1.2-0.2-2.5-0.4-3.8-0.3c-1.4,0-2.8,0.2-4.3,0.6c-1,0.3-2,0.6-3,1.1c-0.2,0.1-0.4,0.2-0.6,0.3c-0.9,0.4-1.9,0.8-2.8,1.1
				c-0.9,0.2-1.7,0.3-2.5,0.3c-2.6-0.2-4.9-2.1-7-5.7c-0.2-0.4-0.5-0.9-0.7-1.3c-0.1-0.1-0.1-0.3,0-0.4c8.4-12,21.8-20.1,31.6-26.1
				c3.1-1.9,5.7-3.5,7.7-4.9c5.7-4.1,9.3-9.1,11.3-12.6c0.1-0.1,0.1-0.2,0.3-0.2c0.2,0,0.3,0,0.4,0.1c1.5,1.3,10,6.7,12,7.2
				c0.5,0.1,0.9,0.7,0.8,1.2c-1.4,8.4-3.9,17.5-12.6,21.7c-1.4,0.7-2.9,1.3-4.3,1.9c-3.1,1.3-6,2.6-8.8,4.5c-4,2.9-7.3,6.5-9.9,10.9
				C1282.1,865.1,1281.7,865.5,1281.1,865.7C1281.1,865.7,1281.1,865.7,1281.1,865.7z"/>
		</g>
		<g>
			<path class="st22" d="M1304.9,846.9c8.4-4.1,11-12.7,12.4-21.4c0.1-0.3-0.1-0.7-0.5-0.8c-2.2-0.5-10.8-6.1-12.2-7.3
				c-2.1,3.6-5.7,8.6-11.4,12.7c-8.1,5.9-28.2,15.2-39.2,30.9c0.2,0.4,0.4,0.9,0.7,1.3c1.4,2.5,3.6,5.2,6.6,5.5
				c2.1,0.2,3.9-0.8,5.8-1.6c2.4-1,4.8-1.7,7.4-1.7c1.3,0,2.6,0.1,3.9,0.3c0.7,0.1,1.6,0.6,2.4,0.5c0.6-0.1,1-0.5,1-0.9
				c2.5-4.4,5.9-8.2,10-11.1C1295.9,850.4,1300.5,849,1304.9,846.9z"/>
		</g>
		<g>
			<path class="st25" d="M1328.9,771.5c0,0,13.5-19.9,17.5-18.3c3.9,1.7,4.6,26.9,3.6,26.3C1349,779,1328.9,771.5,1328.9,771.5z"/>
		</g>
		<g>
			<path class="st26" d="M1353.2,777.5c-6.8-4.9-20.3-13.1-34.6-2.1c-16.2,12.5-19.6,5.1-24.8,14.4c-5.2,9.2,2,25.3,22.8,37
				c26.2,14.7,47.5,12.3,55.2,0.8c6.4-9.6-3.4-29.2-4-34.9C1367.3,786.9,1357.5,780.6,1353.2,777.5z"/>
		</g>
		<g>
			<path class="st26" d="M1343.5,828.2c-2.9-1.4-5.8-2.9-8.1-5.2c-2.6-2.6-3.8-5.9-4.7-9.4c-1.5-5.7-3.3-10.9-7.9-14.8
				c-3.8-3.3-9.8-5.7-14.2-2.2c-4.2,3.4-2.1,8.9,1,12.3c2.4,2.6,5.3,4.8,6.5,8.4c1.1,3.2,0.9,6.7,0.5,10c-0.7,6-2.4,12.6,0.5,18.3
				c1.9,3.8,5.5,5.7,9.2,7.3c-0.6-0.2-1.1-0.4-1.7-0.6c-0.8-0.4-1.2,0.9-0.4,1.3c2.3,1,4.6,1.5,6.9,1.6c0.4,0.2,0.8,0.5,1.2,0.7
				c0.6,0.4,1.2-0.3,1-0.8c7.4-0.8,13.9-6.2,15.4-14.2C1349.6,835.7,1348.5,830.6,1343.5,828.2z"/>
		</g>
		<g>
			<path class="st22" d="M1322.8,798.8c-0.4-0.4-0.9-0.8-1.4-1.1c-2.5-1.6-5.4-2.8-8.4-2.8c-1.5,0.1-3,0.6-4.4,1.7
				c-4.2,3.4-2.1,8.9,1,12.3c2,2.2,4.3,4,5.7,6.6c1.4-0.7,3.1-1.7,4.9-3.1c3.6-2.7,6-5.2,7.5-7.4
				C1326.5,802.7,1324.9,800.6,1322.8,798.8z"/>
		</g>
		<g>
			<path class="st25" d="M1317.3,846.8c-0.6,0.2-1.2-0.1-1.4-0.6c-2.6-5.1-1.8-10.7-1-16c0.1-1,0.3-2,0.4-3c0.4-3.1,0.6-6.4-0.4-9.4
				c-0.8-2.4-2.6-4.2-4.4-6.1c-0.6-0.6-1.2-1.2-1.8-1.8c-2.5-2.8-3.9-6.1-3.7-8.9c0.2-2,1.1-3.8,2.8-5.2c5-4.1,11.7-1.4,15.8,2.2
				c5,4.3,6.8,10,8.3,15.4c0.8,3.1,1.9,6.4,4.4,8.8c2.3,2.2,5.2,3.7,7.8,5c0.6,0.3,0.9,1.1,0.6,1.7c-0.3,0.6-1.1,0.9-1.7,0.6
				c-2.8-1.4-5.9-2.9-8.5-5.4c-2.9-2.9-4.1-6.5-5-10c-1.3-5.1-3-10.3-7.5-14.2c-3.4-2.9-8.8-5.2-12.6-2.1c-1.2,0.9-1.8,2.1-1.9,3.4
				c-0.2,2.5,1.4,5.3,3,7c0.5,0.6,1.1,1.2,1.7,1.7c2,2,4.1,4.1,5,7.1c1.1,3.5,0.9,7.1,0.5,10.5c-0.1,1-0.3,2-0.4,3
				c-0.7,5-1.5,10.1,0.8,14.6c0.3,0.6,0.1,1.4-0.6,1.7C1317.5,846.7,1317.4,846.8,1317.3,846.8z"/>
		</g>
		<g>
			<path class="st27" d="M1343.3,773.5c-0.2,0-0.3,0.1-0.5,0c-0.7-0.1-1.2-0.7-1.1-1.4c0.6-4.8-0.3-10-0.3-10
				c-0.1-0.7,0.2-1.3,1-1.5c0.7-0.1,1.3,0.3,1.5,1c0,0.2,1,5.6,0.3,10.8C1344.2,772.9,1343.8,773.3,1343.3,773.5z"/>
		</g>
		<g>
			<path class="st25" d="M1290.5,908.3c-0.4,0.1-0.8,0-1.2-0.3c-0.5-0.5-0.6-1.2-0.1-1.8c5.2-5.9,6.9-16,4.2-25.1
				c-2.3-7.8-7.4-13.3-13.9-15c-3.5-1-7-0.7-10.2,0.8c-0.7,0.3-1.3,0.7-2,1.1c-1.4,0.8-2.8,1.6-4.5,2c-3.5,0.9-6.2-0.8-8.1-4.8
				c-0.6-1.4-1.2-2.5-1.8-3.7c-0.3-0.6,0-1.4,0.6-1.7c0.6-0.3,1.4,0,1.7,0.6c0.6,1.2,1.1,2.4,1.7,3.5c1.5,3.2,3.1,4.2,5.3,3.6
				c1.4-0.4,2.5-1,3.8-1.8c0.7-0.4,1.4-0.8,2.1-1.2c3.7-1.8,7.8-2.1,11.9-1c7.4,2,13.1,8.1,15.7,16.7c3,9.9,1.1,21-4.7,27.5
				C1290.9,908.1,1290.7,908.2,1290.5,908.3z"/>
		</g>
		<g>
			<path class="st25" d="M1352.5,777.6c0.1-0.1,0.2-0.3,0.3-0.4c-7-4.9-20.1-12.5-34.1-1.7c-4.6,3.6-8.2,5.5-11.1,6.7
				c0.1,0,0.1,0,0.2,0c0.1,0,3.2,5.3,3.5,5.8c1.2,1.6,2.7,3.2,4.4,4.4c3.3,2.3,7.7,2.8,11.6,2.4c5.8-0.6,11.4-3.1,14.9-7.9
				c1.4-1.8,2.5-4,4.3-5.4C1348.4,779.9,1350.9,779.6,1352.5,777.6z"/>
		</g>
		<g>
			<path class="st25" d="M1333.7,798.6c-0.4,0.8-1.8,0.8-3.2,0c-1.4-0.7-2.1-2-1.7-2.7c0.4-0.8,1.8-0.8,3.2,0
				C1333.3,796.6,1334.1,797.8,1333.7,798.6z"/>
		</g>
		<g>
			<path class="st25" d="M1331.7,807.3c-0.4,0.1-0.9,0-1.2-0.3c-1.7-1.6-1.8-3.9-1.5-6c-1.9,1.2-3.8,1.9-5,0.8
				c-0.5-0.5-0.5-1.3-0.1-1.8c0.4-0.5,1.1-0.5,1.7-0.2c0.8,0,3-1.5,4.9-3.1c0.4-0.4,1.1-0.4,1.6-0.1c0.5,0.3,0.6,1,0.4,1.5
				c-0.6,1.3-1.9,5.4-0.2,6.9c0.5,0.5,0.5,1.3,0.1,1.8C1332.1,807.1,1331.9,807.2,1331.7,807.3z"/>
		</g>
		<g>
			<path class="st26" d="M1351.3,776.2c0,0,10.8-17.8,14.7-15.8c3.8,2,2.8,36.1,1.8,35.4C1366.8,795.1,1351.3,776.2,1351.3,776.2z"
				/>
		</g>
		<g>
			<path class="st25" d="M1361.1,789.1c-0.2,0.1-0.4,0.1-0.7,0c-0.7-0.2-1.1-0.9-0.9-1.5c1.9-6.8,3.1-21.6,3.1-21.7
				c0.1-0.7,0.7-1.2,1.3-1.2c0.7,0.1,1.2,0.7,1.2,1.3c0,0.6-1.2,15.2-3.2,22.2C1361.8,788.6,1361.5,788.9,1361.1,789.1z"/>
		</g>
		<g>
			<path class="st27" d="M1323.6,790.4c0.7,0.4,1.5,0.1,1.9-0.6l1.1-2c0.4-0.7,0.1-1.5-0.6-1.9c-0.7-0.4-1.5-0.1-1.9,0.6l-1.1,2
				C1322.7,789.2,1322.9,790,1323.6,790.4z"/>
		</g>
		<g>
			<path class="st25" d="M1342.7,801.3c0.7,0.4,1.5,0.1,1.9-0.6l1.1-2c0.4-0.7,0.1-1.5-0.6-1.9c-0.7-0.4-1.5-0.1-1.9,0.6l-1.1,2
				C1341.7,800.1,1342,800.9,1342.7,801.3z"/>
		</g>
		<g>
			<path class="st27" d="M1332.1,785.8c-0.7,0.2-1.4-0.2-1.5-0.9c-0.6-2.2-1.2-2.7-1.2-2.7c-0.6-0.3-0.9-0.9-0.6-1.6
				c0.3-0.6,1.1-0.9,1.7-0.7c0.5,0.2,1.7,1,2.5,4.3C1333.1,784.9,1332.7,785.6,1332.1,785.8z"/>
		</g>
		<g>
			<path class="st25" d="M1347.5,794c-0.4,0.1-0.8,0-1.1-0.2c-0.1-0.1-0.9-0.3-2.9,0c-0.7,0.1-1.3-0.4-1.4-1.1
				c-0.1-0.7,0.4-1.3,1.1-1.4c3.4-0.5,4.6,0.3,4.9,0.7c0.5,0.5,0.5,1.3,0,1.8C1347.9,793.9,1347.7,794,1347.5,794z"/>
		</g>
	</g>
	<path style="clip-path:url(#SVGID_00000170239456301020447320000015503992047432253864_);fill:#36244D;" d="M1090.6,560.7
		c4-17.4,22.4-46.3,54-39.1c31.6,7.2,39.1,60.1,14.8,76.9L1090.6,560.7z"/>
	<path style="clip-path:url(#SVGID_00000170239456301020447320000015503992047432253864_);fill:#E95352;" d="M1092.7,553.7
		c1.7-4.4,4.2-9.1,7.3-13.5c7.7-10.8,21.6-15.6,34.4-12.1c21.2,5.7,33.8,20.2,39.7,46.1c-0.8,3.5-2.1,6.8-3.9,9.8
		c-4.4-12.1-10.8-24-21.6-33.1C1135.4,539.5,1108.4,533,1092.7,553.7z"/>
	<path style="clip-path:url(#SVGID_00000170239456301020447320000015503992047432253864_);fill:#F8C9C9;" d="M1151.7,573.2
		c0,0-9-3.4-11.6-14.1c-2.5-10.6-21.8-23.6-40.6-11.8c-18.9,11.8-2.9,37.4-3.4,45.4c-0.5,8,4.3,16.2,13.9,24.3
		c9.6,8.1,28.6,8.1,39.6-11.9c5.8-10.6,7.2-23.1,7.2-23.1L1151.7,573.2z"/>
	<path style="clip-path:url(#SVGID_00000170239456301020447320000015503992047432253864_);fill:#F8C9C9;" d="M1156.9,563.2
		c0.8-0.4,1.6-0.8,2.5-0.9c2.3-0.3,4.5,1.3,5.5,3.5c0.9,2.1,0.8,4.6,0.3,6.8c-0.5,2.3-1.3,4.5-1.7,6.7c-0.4,2.4-0.5,5.1-2.1,7
		c-1.7,1.9-4.7,2.2-7,1.1c-4.6-2.2-5.6-8.9-6.3-13.5C1147.3,568.3,1152.6,565.3,1156.9,563.2z"/>
	
		<ellipse transform="matrix(0.9453 -0.3261 0.3261 0.9453 -126.2065 397.1744)" style="clip-path:url(#SVGID_00000170239456301020447320000015503992047432253864_);fill:#36244D;" cx="1121.5" cy="575" rx="3.7" ry="4.8"/>
	
		<ellipse transform="matrix(0.9387 -0.3447 0.3447 0.9387 -133.4571 415.5019)" style="clip-path:url(#SVGID_00000170239456301020447320000015503992047432253864_);fill:#36244D;" cx="1101.6" cy="583" rx="3.1" ry="4.5"/>
	<path style="clip-path:url(#SVGID_00000170239456301020447320000015503992047432253864_);fill:#36244D;" d="M1108.2,583.2
		c0.1,0.9,0.2,1.8,0,2.6c-0.1,0.8-0.5,1.4-1,2.1c-0.5,0.7-1.1,1.4-1.7,2.2c-0.6,0.8-1.2,1.8-1.3,3c-0.1,1.3,0.7,2.7,1.9,3.2
		c1.1,0.5,2.3,0.5,3.3,0.4c2.1-0.5,3.7-1.6,5-3c0.1-0.1,0.1-0.2,0-0.2c0,0-0.1,0-0.2,0c-1.7,0.8-3.4,1.6-5,1.6
		c-0.8,0.1-1.6-0.1-2.2-0.4c-0.5-0.3-0.8-0.8-0.8-1.4c0-1.3,1.5-2.7,2.5-4.4c0.5-0.8,1-1.9,1-3c0-1.1-0.2-2-0.6-2.9
		c-0.1-0.3-0.4-0.4-0.6-0.3C1108.3,582.8,1108.2,583,1108.2,583.2z"/>
	
		<circle style="clip-path:url(#SVGID_00000170239456301020447320000015503992047432253864_);fill:#FDEBE5;stroke:#FFF9EC;stroke-width:1.1491;stroke-miterlimit:10;" cx="1158.7" cy="588.4" r="3.7"/>
	
		<path style="clip-path:url(#SVGID_00000170239456301020447320000015503992047432253864_);fill:none;stroke:#36244D;stroke-width:1.8385;stroke-linecap:round;stroke-miterlimit:10;" d="
		M1113.7,604.7c0,0,14.5,1.1,16.5-12.8"/>
	
		<path style="clip-path:url(#SVGID_00000170239456301020447320000015503992047432253864_);fill:none;stroke:#36244D;stroke-width:1.8385;stroke-linecap:round;stroke-miterlimit:10;" d="
		M1154.1,577.8c0,0-1-9.1,6.2-9.9"/>
	
		<path style="clip-path:url(#SVGID_00000170239456301020447320000015503992047432253864_);fill:none;stroke:#36244D;stroke-width:1.8385;stroke-linecap:round;stroke-miterlimit:10;" d="
		M1115.6,560.7c0,0,6.3-5.1,12.4,0.7"/>
	
		<path style="clip-path:url(#SVGID_00000170239456301020447320000015503992047432253864_);fill:none;stroke:#A05F9E;stroke-width:2.0683;stroke-linecap:round;stroke-linejoin:round;stroke-miterlimit:10;" d="
		M1163.8,537.9c0,0,6.9,5.7,9.2,19.5"/>
</g>
</svg>
