<svg width="100" height="80" viewBox="0 0 160 90" fill="none" xmlns="http://www.w3.org/2000/svg">
<g clip-path="url(#clip0_47_992)">
<path d="M35.2 75.2C50.28 82.57 65.68 90.05 82.37 92.65C101.37 95.61 121.36 91.85 137.51 82.27C147.66 76.25 156.65 67.37 158.94 56.24C161.59 43.38 154.79 30.15 145.63 20.12C136.51 10.12 124.27 1.94996 110.46 0.319957C98.93 -1.04004 87.48 2.20996 76.45 5.42996C58.64 10.62 40.83 15.81 23.01 21.01C8.32005 25.28 -2.29995 35.59 0.430046 51.28C1.74005 58.8 8.32005 61.98 14.95 65.29C21.67 68.64 28.45 71.8999 35.2 75.2Z" fill="#AE80C4"/>
<path d="M34.3605 54.22C34.0939 54.22 33.8605 54.12 33.6605 53.92C33.4605 53.7333 33.3605 53.5067 33.3605 53.24C33.3605 52.96 33.4605 52.7267 33.6605 52.54C33.8605 52.34 34.0939 52.24 34.3605 52.24H38.6005C38.5339 52.0533 38.4805 51.84 38.4405 51.6C38.4005 51.3467 38.3872 51.1067 38.4005 50.88C38.4272 50.64 38.4805 50.4667 38.5605 50.36C38.6005 50.3067 38.6405 50.2667 38.6805 50.24C38.7205 50.2 38.7605 50.1667 38.8005 50.14C37.8405 50.0467 37.1805 49.7933 36.8205 49.38C36.4605 48.9667 36.2805 48.32 36.2805 47.44C36.2805 46.7467 36.3872 46.2067 36.6005 45.82C36.8139 45.42 37.1805 45.1333 37.7005 44.96C38.2205 44.7867 38.9339 44.7 39.8405 44.7H44.4205C45.3272 44.7 46.0339 44.7867 46.5405 44.96C47.0605 45.1333 47.4272 45.42 47.6405 45.82C47.8539 46.2067 47.9605 46.7467 47.9605 47.44C47.9605 48.2267 47.8205 48.8267 47.5405 49.24C47.2605 49.6533 46.7539 49.9267 46.0205 50.06C46.1672 50.2067 46.2605 50.3867 46.3005 50.6C46.3539 50.8 46.3339 51 46.2405 51.2C46.2005 51.3067 46.1339 51.4533 46.0405 51.64C45.9605 51.8267 45.8739 52.0267 45.7805 52.24H50.0005C50.2672 52.24 50.5005 52.34 50.7005 52.54C50.9005 52.7267 51.0005 52.96 51.0005 53.24C51.0005 53.5067 50.9005 53.7333 50.7005 53.92C50.5005 54.12 50.2672 54.22 50.0005 54.22H34.3605ZM34.3805 45.64C34.0739 45.8133 33.7739 45.8733 33.4805 45.82C33.2005 45.7667 32.9739 45.6067 32.8005 45.34C32.6405 45.0867 32.5939 44.82 32.6605 44.54C32.7405 44.2467 32.9272 44.02 33.2205 43.86C33.6872 43.6067 34.1539 43.3267 34.6205 43.02C35.1005 42.7133 35.5539 42.3933 35.9805 42.06C35.8339 41.9133 35.6472 41.7467 35.4205 41.56C35.2072 41.3733 35.0005 41.2 34.8005 41.04C34.6139 40.8667 34.4605 40.7333 34.3405 40.64C34.1405 40.48 34.0339 40.2667 34.0205 40C34.0072 39.72 34.0939 39.4867 34.2805 39.3C34.4672 39.1 34.6939 38.9933 34.9605 38.98C35.2272 38.9533 35.4739 39.0267 35.7005 39.2C35.8072 39.28 35.9739 39.4133 36.2005 39.6C36.4272 39.7867 36.6605 39.9867 36.9005 40.2C37.1405 40.4 37.3405 40.5733 37.5005 40.72C37.9672 40.2667 38.3805 39.8 38.7405 39.32C39.1005 38.8267 38.9872 38.58 38.4005 38.58H35.2005C34.9472 38.58 34.7205 38.4867 34.5205 38.3C34.3339 38.1133 34.2405 37.8933 34.2405 37.64C34.2405 37.3733 34.3339 37.1533 34.5205 36.98C34.7205 36.7933 34.9472 36.7 35.2005 36.7H39.1205C39.8939 36.7 40.4672 36.8467 40.8405 37.14C41.2139 37.4333 41.4005 37.8133 41.4005 38.28C41.4139 38.7333 41.2405 39.2267 40.8805 39.76C40.6805 40.0533 40.4672 40.3467 40.2405 40.64C40.0272 40.9333 39.7939 41.22 39.5405 41.5H44.8005C43.8139 40.3667 42.9739 39.1133 42.2805 37.74C42.1472 37.4733 42.1339 37.2133 42.2405 36.96C42.3605 36.6933 42.5405 36.5 42.7805 36.38C43.0472 36.26 43.3139 36.24 43.5805 36.32C43.8472 36.4 44.0539 36.58 44.2005 36.86C44.3472 37.1267 44.5005 37.3933 44.6605 37.66C44.8339 37.9267 45.0072 38.1933 45.1805 38.46C45.3672 38.3 45.5739 38.1267 45.8005 37.94C46.0272 37.74 46.2405 37.5533 46.4405 37.38C46.6539 37.1933 46.8072 37.0533 46.9005 36.96C47.1005 36.7733 47.3339 36.68 47.6005 36.68C47.8805 36.6667 48.1205 36.7667 48.3205 36.98C48.5072 37.18 48.6072 37.42 48.6205 37.7C48.6339 37.9667 48.5339 38.1933 48.3205 38.38C48.2139 38.4733 48.0405 38.62 47.8005 38.82C47.5739 39.02 47.3272 39.2267 47.0605 39.44C46.8072 39.6533 46.5805 39.84 46.3805 40C46.5272 40.1467 46.6672 40.2933 46.8005 40.44C46.9472 40.5867 47.0939 40.7333 47.2405 40.88C47.4005 40.7467 47.6139 40.5667 47.8805 40.34C48.1472 40.1133 48.4072 39.8933 48.6605 39.68C48.9139 39.4533 49.1005 39.2867 49.2205 39.18C49.4205 38.9933 49.6539 38.9 49.9205 38.9C50.2005 38.8867 50.4339 38.9867 50.6205 39.2C50.8205 39.4 50.9272 39.64 50.9405 39.92C50.9539 40.1867 50.8539 40.4133 50.6405 40.6C50.5339 40.6933 50.3672 40.8333 50.1405 41.02C49.9272 41.2067 49.6939 41.4067 49.4405 41.62C49.2005 41.82 48.9805 42 48.7805 42.16C49.1272 42.4133 49.4805 42.6533 49.8405 42.88C50.2139 43.1067 50.6072 43.32 51.0205 43.52C51.2872 43.6533 51.4672 43.8667 51.5605 44.16C51.6539 44.4533 51.6272 44.7333 51.4805 45C51.2939 45.3333 51.0272 45.5267 50.6805 45.58C50.3472 45.6333 50.0272 45.58 49.7205 45.42C49.0405 45.0333 48.3939 44.62 47.7805 44.18C47.1672 43.74 46.5872 43.2733 46.0405 42.78C45.9872 43.0067 45.8672 43.2 45.6805 43.36C45.4939 43.52 45.2739 43.6 45.0205 43.6H39.4605C39.1939 43.6 38.9605 43.5067 38.7605 43.32C38.5605 43.1333 38.4472 42.9133 38.4205 42.66C37.8072 43.2467 37.1539 43.7933 36.4605 44.3C35.7805 44.8067 35.0872 45.2533 34.3805 45.64ZM39.6205 48.24H44.6405C45.0005 48.24 45.2539 48.1867 45.4005 48.08C45.5472 47.9733 45.6205 47.7533 45.6205 47.42C45.6205 47.0867 45.5472 46.8733 45.4005 46.78C45.2539 46.6733 45.0005 46.62 44.6405 46.62H39.6205C39.2472 46.62 38.9872 46.6733 38.8405 46.78C38.6939 46.8733 38.6205 47.0867 38.6205 47.42C38.6205 47.7533 38.6939 47.9733 38.8405 48.08C38.9872 48.1867 39.2472 48.24 39.6205 48.24ZM40.9205 52.24H43.2805C43.3872 51.9733 43.5205 51.6533 43.6805 51.28C43.8405 50.9067 43.9672 50.6067 44.0605 50.38C44.0872 50.34 44.1072 50.3067 44.1205 50.28C44.1339 50.24 44.1472 50.2067 44.1605 50.18H39.7605C39.9339 50.2867 40.1205 50.4733 40.3205 50.74C40.5205 51.0067 40.6605 51.24 40.7405 51.44C40.7805 51.5467 40.8139 51.6733 40.8405 51.82C40.8805 51.9533 40.9072 52.0933 40.9205 52.24ZM56.1405 54.1C55.8205 54.3 55.4739 54.3733 55.1005 54.32C54.7272 54.2667 54.4405 54.0733 54.2405 53.74C54.0672 53.4333 54.0339 53.1067 54.1405 52.76C54.2472 52.4133 54.4672 52.1467 54.8005 51.96C56.2939 51.0933 57.5805 50.04 58.6605 48.8C59.7539 47.5467 60.6205 46.2067 61.2605 44.78C61.9139 43.34 62.3005 41.9133 62.4205 40.5C62.4739 39.9667 62.3872 39.5933 62.1605 39.38C61.9472 39.1667 61.5205 39.06 60.8805 39.06H58.7005C58.3939 39.06 58.1272 38.9533 57.9005 38.74C57.6872 38.5133 57.5805 38.2467 57.5805 37.94C57.5805 37.6333 57.6872 37.3733 57.9005 37.16C58.1272 36.9333 58.3939 36.82 58.7005 36.82H60.8805C61.8805 36.82 62.6672 36.92 63.2405 37.12C63.8272 37.32 64.2472 37.6667 64.5005 38.16C64.7539 38.64 64.8805 39.3133 64.8805 40.18C64.8805 41.82 65.1739 43.3533 65.7605 44.78C66.3472 46.2067 67.1805 47.52 68.2605 48.72C69.3539 49.92 70.6405 51 72.1205 51.96C72.4272 52.16 72.6072 52.4467 72.6605 52.82C72.7272 53.1933 72.6539 53.5267 72.4405 53.82C72.2272 54.14 71.9272 54.3133 71.5405 54.34C71.1672 54.38 70.8205 54.2867 70.5005 54.06C68.9272 52.9533 67.5205 51.6733 66.2805 50.22C65.0405 48.7667 64.1072 47.12 63.4805 45.28C62.7072 47.1067 61.7005 48.7733 60.4605 50.28C59.2205 51.7733 57.7805 53.0467 56.1405 54.1ZM77.2805 52.92C76.9205 53.64 76.5272 53.8867 76.1005 53.66C75.6872 53.4333 75.6539 52.9667 76.0005 52.26L82.7205 39.04C82.8939 38.6933 83.0805 38.46 83.2805 38.34C83.4939 38.22 83.7005 38.2133 83.9005 38.32C84.3272 38.5467 84.3672 39.0067 84.0205 39.7L77.2805 52.92ZM95.7795 53.96C95.4995 53.96 95.2595 53.86 95.0595 53.66C94.8728 53.4733 94.7795 53.24 94.7795 52.96C94.7795 52.6933 94.8728 52.4667 95.0595 52.28C95.2595 52.08 95.4995 51.98 95.7795 51.98H99.1795V47.72H96.7195C96.4528 47.72 96.2195 47.62 96.0195 47.42C95.8195 47.22 95.7195 46.98 95.7195 46.7C95.7195 46.42 95.8195 46.1867 96.0195 46C96.2195 45.8 96.4528 45.7 96.7195 45.7H99.1795V42.02H96.1995C95.9195 42.02 95.6795 41.9267 95.4795 41.74C95.2928 41.54 95.1995 41.3 95.1995 41.02C95.1995 40.7533 95.2928 40.5267 95.4795 40.34C95.6795 40.14 95.9195 40.04 96.1995 40.04H99.8595C99.8328 40.0133 99.8061 39.9867 99.7795 39.96C99.7661 39.9333 99.7461 39.9133 99.7195 39.9C99.5995 39.7667 99.4328 39.5867 99.2195 39.36C99.0061 39.1333 98.7861 38.9067 98.5595 38.68C98.3328 38.44 98.1461 38.2533 97.9995 38.12C97.7861 37.92 97.6795 37.6733 97.6795 37.38C97.6928 37.0733 97.8261 36.8067 98.0795 36.58C98.3195 36.3667 98.5861 36.2667 98.8795 36.28C99.1861 36.28 99.4661 36.3933 99.7195 36.62C99.8795 36.7533 100.073 36.9333 100.299 37.16C100.526 37.3733 100.746 37.5933 100.959 37.82C101.186 38.0467 101.373 38.2467 101.519 38.42C101.733 38.66 101.826 38.94 101.799 39.26C101.786 39.5667 101.653 39.8267 101.399 40.04H104.619C104.886 40.04 105.119 40.14 105.319 40.34C105.519 40.5267 105.619 40.7533 105.619 41.02C105.619 41.3 105.519 41.54 105.319 41.74C105.119 41.9267 104.886 42.02 104.619 42.02H101.479V45.7H104.039C104.319 45.7 104.559 45.8 104.759 46C104.959 46.1867 105.059 46.42 105.059 46.7C105.059 46.98 104.959 47.22 104.759 47.42C104.559 47.62 104.319 47.72 104.039 47.72H101.479V51.98H104.979C105.246 51.98 105.473 52.08 105.659 52.28C105.859 52.4667 105.959 52.6933 105.959 52.96C105.959 53.24 105.859 53.4733 105.659 53.66C105.473 53.86 105.246 53.96 104.979 53.96H95.7795ZM91.2995 54.42C90.4995 54.42 89.8661 54.3267 89.3995 54.14C88.9461 53.9533 88.6261 53.64 88.4395 53.2C88.2528 52.76 88.1595 52.1667 88.1595 51.42C88.1595 50.66 88.2528 50.06 88.4395 49.62C88.6261 49.18 88.9461 48.8667 89.3995 48.68C89.8661 48.4933 90.4995 48.4 91.2995 48.4C92.1128 48.4 92.7461 48.4933 93.1995 48.68C93.6528 48.8667 93.9728 49.18 94.1595 49.62C94.3461 50.06 94.4395 50.66 94.4395 51.42C94.4395 52.1667 94.3461 52.76 94.1595 53.2C93.9728 53.64 93.6528 53.9533 93.1995 54.14C92.7461 54.3267 92.1128 54.42 91.2995 54.42ZM87.9995 41.8C87.7461 41.8 87.5261 41.7133 87.3395 41.54C87.1661 41.3533 87.0795 41.1333 87.0795 40.88C87.0795 40.6133 87.1661 40.3933 87.3395 40.22C87.5261 40.0333 87.7461 39.94 87.9995 39.94H94.2795C94.5328 39.94 94.7461 40.0333 94.9195 40.22C95.1061 40.3933 95.1995 40.6133 95.1995 40.88C95.1995 41.1333 95.1061 41.3533 94.9195 41.54C94.7461 41.7133 94.5328 41.8 94.2795 41.8H87.9995ZM89.0395 39C88.7861 39 88.5595 38.9067 88.3595 38.72C88.1728 38.52 88.0795 38.2933 88.0795 38.04C88.0795 37.7733 88.1728 37.5467 88.3595 37.36C88.5595 37.1733 88.7861 37.08 89.0395 37.08H93.3595C93.6261 37.08 93.8461 37.1733 94.0195 37.36C94.2061 37.5467 94.2995 37.7733 94.2995 38.04C94.2995 38.2933 94.2061 38.52 94.0195 38.72C93.8461 38.9067 93.6261 39 93.3595 39H89.0395ZM88.9995 47.46C88.7461 47.46 88.5261 47.3667 88.3395 47.18C88.1661 46.9933 88.0795 46.7733 88.0795 46.52C88.0795 46.2667 88.1661 46.0467 88.3395 45.86C88.5261 45.6733 88.7461 45.58 88.9995 45.58H93.3795C93.6328 45.58 93.8461 45.6733 94.0195 45.86C94.2061 46.0467 94.2995 46.2667 94.2995 46.52C94.2995 46.7733 94.2061 46.9933 94.0195 47.18C93.8461 47.3667 93.6328 47.46 93.3795 47.46H88.9995ZM88.9995 44.64C88.7461 44.64 88.5261 44.5467 88.3395 44.36C88.1661 44.1733 88.0795 43.9533 88.0795 43.7C88.0795 43.4333 88.1661 43.2133 88.3395 43.04C88.5261 42.8533 88.7461 42.76 88.9995 42.76H93.3795C93.6328 42.76 93.8461 42.8533 94.0195 43.04C94.2061 43.2133 94.2995 43.4333 94.2995 43.7C94.2995 43.9533 94.2061 44.1733 94.0195 44.36C93.8461 44.5467 93.6328 44.64 93.3795 44.64H88.9995ZM91.2995 52.52C91.7261 52.52 91.9995 52.4533 92.1195 52.32C92.2528 52.1733 92.3195 51.8733 92.3195 51.42C92.3195 50.9533 92.2528 50.6533 92.1195 50.52C91.9995 50.3733 91.7261 50.3 91.2995 50.3C90.8861 50.3 90.6128 50.3733 90.4795 50.52C90.3461 50.6533 90.2795 50.9533 90.2795 51.42C90.2795 51.8733 90.3461 52.1733 90.4795 52.32C90.6128 52.4533 90.8861 52.52 91.2995 52.52ZM111.579 54.68C111.259 54.68 110.986 54.5733 110.759 54.36C110.533 54.1467 110.419 53.8667 110.419 53.52V45.9H109.359C109.026 45.9 108.759 45.8 108.559 45.6C108.373 45.3867 108.279 45.1333 108.279 44.84C108.279 44.5333 108.373 44.28 108.559 44.08C108.759 43.8667 109.026 43.76 109.359 43.76H110.419V41.1C110.419 39.9267 110.573 39.0333 110.879 38.42C111.186 37.8067 111.706 37.3867 112.439 37.16C113.173 36.92 114.173 36.8 115.439 36.8H120.219C121.486 36.8 122.486 36.92 123.219 37.16C123.953 37.3867 124.473 37.8067 124.779 38.42C125.099 39.0333 125.259 39.9267 125.259 41.1V43.76H126.299C126.633 43.76 126.893 43.8667 127.079 44.08C127.279 44.28 127.379 44.5333 127.379 44.84C127.379 45.1333 127.279 45.3867 127.079 45.6C126.893 45.8 126.633 45.9 126.299 45.9H125.259V50.92C125.259 51.84 125.146 52.5667 124.919 53.1C124.706 53.6333 124.353 54.0067 123.859 54.22C123.379 54.4467 122.733 54.5667 121.919 54.58C121.546 54.5933 121.239 54.5067 120.999 54.32C120.773 54.1333 120.639 53.8733 120.599 53.54C120.386 53.7267 120.139 53.82 119.859 53.82C119.566 53.82 119.306 53.7133 119.079 53.5C118.866 53.3 118.759 53.0333 118.759 52.7V45.9H116.919V52.72C116.919 53.0533 116.813 53.32 116.599 53.52C116.386 53.72 116.126 53.82 115.819 53.82C115.513 53.82 115.253 53.72 115.039 53.52C114.826 53.32 114.719 53.0533 114.719 52.72V45.9H112.739V53.52C112.739 53.8667 112.626 54.1467 112.399 54.36C112.173 54.5733 111.899 54.68 111.579 54.68ZM120.979 52.46C121.113 52.3267 121.313 52.2467 121.579 52.22C121.953 52.18 122.233 52.1133 122.419 52.02C122.606 51.9267 122.733 51.7667 122.799 51.54C122.866 51.3133 122.899 50.9933 122.899 50.58V45.9H120.979V52.46ZM112.739 43.76H114.719V38.9C114.186 38.9267 113.773 39.0067 113.479 39.14C113.199 39.26 113.006 39.4733 112.899 39.78C112.793 40.0867 112.739 40.5267 112.739 41.1V43.76ZM116.919 43.76H118.759V38.88H116.919V43.76ZM120.979 43.76H122.899V41.1C122.899 40.5267 122.846 40.0867 122.739 39.78C122.646 39.4733 122.459 39.26 122.179 39.14C121.913 39.0067 121.513 38.9267 120.979 38.9V43.76Z" fill="white"/>
</g>
<defs>
<clipPath id="clip0_47_992">
<rect width="159.52" height="93.64" fill="white"/>
</clipPath>
</defs>
</svg>
