<svg width="22" height="22" viewBox="0 0 22 22" fill="none" xmlns="http://www.w3.org/2000/svg">
<path fill-rule="evenodd" clip-rule="evenodd" d="M2.12899 8.09649C4.01275 12.062 7.41492 14.5416 11.2273 14.5432C11.2285 14.5432 11.2298 14.5432 11.231 14.5432V13.1682C11.2303 13.1682 11.2298 13.1682 11.2291 13.1682C11.2285 13.1682 11.228 13.1682 11.2273 13.1682M11.2291 13.1682C14.396 13.1674 17.3769 11.1072 19.0873 7.50649L19.3823 6.8855L20.6243 7.47549L20.3293 8.09649C18.4455 12.062 15.0434 14.5416 11.231 14.5432M11.2291 13.1682C8.06237 13.1674 5.08143 11.1072 3.37097 7.50649L3.07598 6.8855L1.83398 7.47549L2.12899 8.09649" fill="#E4C59F"/>
<path fill-rule="evenodd" clip-rule="evenodd" d="M17.2697 10.3755L20.1772 13.283L19.2049 14.2552L16.2975 11.3477L17.2697 10.3755Z" fill="#E4C59F"/>
<path fill-rule="evenodd" clip-rule="evenodd" d="M5.11613 10.3755L2.20868 13.283L3.18095 14.2552L6.08841 11.3477L5.11613 10.3755Z" fill="#E4C59F"/>
<path fill-rule="evenodd" clip-rule="evenodd" d="M13.8357 12.7031L14.9931 16.6907L13.6726 17.0741L12.5151 13.0865L13.8357 12.7031Z" fill="#E4C59F"/>
<path fill-rule="evenodd" clip-rule="evenodd" d="M8.54945 12.7034L7.39203 16.691L8.71253 17.0742L9.86993 13.0866L8.54945 12.7034Z" fill="#E4C59F"/>
</svg>
