<svg width="20" height="18" viewBox="0 0 27 25" fill="none" xmlns="http://www.w3.org/2000/svg">
<g clip-path="url(#clip0_1179_249)">
<path d="M9.01003 9.31005C10.7 8.97005 11.99 7.48005 11.85 5.38005C11.71 3.28005 10.56 0.370051 9.01003 0.0300513C7.20003 -0.359949 4.54003 2.81005 4.95003 5.52005C5.36003 8.23005 7.32003 9.65005 9.01003 9.31005Z" fill="#AE80C4"/>
<path d="M5.28 11.61C5.32 9.71003 4.26 7.82003 3.05 7.61003C1.98 7.44003 0 9.31003 0 11.07C0 12.83 1.56 14.59 3.05 14.39C4.54 14.19 5.26 12.86 5.28 11.61Z" fill="#AE80C4"/>
<path d="M13.14 10.46C10.09 10.46 4.94996 13.71 3.72996 17.84C2.50996 21.97 5.57996 23.65 7.04996 23.93C9.48996 24.4 11.32 22.64 13.14 22.64C14.97 22.64 16.8 24.4 19.23 23.93C20.7 23.64 23.77 21.97 22.55 17.84C21.33 13.71 16.18 10.46 13.14 10.46Z" fill="#AE80C4"/>
<path d="M17.27 9.31005C18.96 9.65005 20.93 8.23005 21.33 5.52005C21.73 2.81005 19.07 -0.359949 17.27 0.0300513C15.71 0.370051 14.56 3.28005 14.43 5.38005C14.3 7.48005 15.58 8.97005 17.27 9.31005Z" fill="#AE80C4"/>
<path d="M23.23 7.61996C22.01 7.81996 20.95 9.71996 21 11.62C21.03 12.87 21.74 14.19 23.23 14.4C24.72 14.6 26.28 12.84 26.28 11.08C26.28 9.31996 24.3 7.44996 23.23 7.62996V7.61996Z" fill="#AE80C4"/>
</g>
<defs>
<clipPath id="clip0_1179_249">
<rect width="26.27" height="24.02" fill="white"/>
</clipPath>
</defs>
</svg>
