<?xml version="1.0" encoding="utf-8"?>
<!-- Generator: Adobe Illustrator 27.8.1, SVG Export Plug-In . SVG Version: 6.00 Build 0)  -->
<svg version="1.1" id="圖層_1" xmlns="http://www.w3.org/2000/svg" xmlns:xlink="http://www.w3.org/1999/xlink" x="0px" y="0px"
	 viewBox="0 0 200 191" style="enable-background:new 0 0 200 191;" xml:space="preserve">
<style type="text/css">
	.st0{fill:#81E1D0;}
	.st1{fill:#3B1A54;}
	.st2{fill:#FFC876;}
	.st3{fill:#3C3544;}
</style>
<path class="st0" d="M44.4,15.1c0,1.2,0.3,5.4,2.8,9.8c-0.2,1.8-0.3,3.4-0.4,4.8c-0.1,1.9-0.2,4.8,1,5.3c0.4,0.2,0.8-0.1,1.2-0.3
	c0.4-0.2,0.8-0.5,1.3-0.4c1,0.3,1.2,2.3,1.4,3.8c0.1,1.1,0.2,1.9,0.5,2c0.3,0,0.6-0.6,0.9-1.4c0.4-0.9,0.8-2,1.3-2
	c0.3,0,0.5,0.4,0.8,0.9c0.3,0.7,0.7,1.5,1.6,2.3c0.7,0.6,1.6,0.8,3.5,1.3l0,0c2,0.5,3.5,0.9,3.8,0.4c0.2-0.3-0.1-0.7-0.4-1.3
	c-0.2-0.3-0.4-0.7-0.5-1.1c-0.3-0.8-0.2-1.8,0.5-3.2c0.3,0,0.5,0.1,0.7,0.1c1.7,0.8,4.3,2.3,6.4,5c4.3,5.9,3.3,8.8,0,21.8
	c-1.1,4.5-6.4,13.5-8.5,17.8c-3.9,12.7-4.2,20.9-3.9,29.7c0.2,4.8,4.8,11,5.9,15.3l88.7,6.5c-1.5-9.2-4.3-18.7-9-28.5
	C137.9,91,132,85.4,127,80.7c-2.9-2.8-5.5-5.2-7.6-8.7c-1.3-2.1-2.5-5-4-10.8c-2.5-9.8-2.8-18.3-2.8-25.7c4.3-3.2,5.4-11.2,1.3-19.1
	c-1.6-2.3-5.3-7.2-12-10c-3.3-1.4-6.3-1.9-8.6-2c-4-0.7-7.9,0-11,2.1c-2.9,2-4.5,4.7-5.3,6.5l-3.4,0.2
	C63.9,13.9,54.1,14.5,44.4,15.1L44.4,15.1z"/>
<path class="st1" d="M44.4,15.1c-1.1,1.2-0.3,3.9,0.6,4.1c0.5,0.1,0.8-0.6,1.8-1.5c2.4-2,5.2-1.7,5.2-2.2c0-0.5-2.6-0.7-3.8-0.8
	C46.1,14.5,45,14.4,44.4,15.1L44.4,15.1z"/>
<path class="st1" d="M59.4,36.1c0.5,0,0.9-0.4,0.9-0.8c0-2.1,0.4-4.3,1.2-6.3c0.7-1.9,1.7-3.7,3-5.2c0.3-0.4,0.2-0.9-0.1-1.2
	c-0.4-0.3-0.9-0.2-1.2,0.1c-1.4,1.7-2.5,3.6-3.3,5.7c-0.8,2.2-1.2,4.5-1.3,6.9C58.6,35.7,59,36.1,59.4,36.1L59.4,36.1z"/>
<path class="st1" d="M53.9,33.9c0.5,0,0.9-0.4,0.9-0.8c0-1.1,0.1-2.2,0.2-3.3c0.4-2.4,1.4-4.8,2.9-6.9c0.3-0.4,0.2-0.9-0.2-1.2
	c-0.4-0.3-0.9-0.2-1.2,0.2c-1.6,2.3-2.7,4.9-3.1,7.6c-0.2,1.2-0.3,2.4-0.3,3.6C53.1,33.5,53.4,33.9,53.9,33.9L53.9,33.9z"/>
<path class="st1" d="M49,30.6c0.6,0,0.9-0.5,0.9-0.9c-0.1-1.5,0-2.9,0.3-4.3c0.5-2,1.6-4,3.1-5.5c0.3-0.3,0.3-0.9,0-1.2
	c-0.3-0.3-0.9-0.3-1.2,0c-1.7,1.8-2.9,4-3.5,6.3c-0.4,1.6-0.5,3.2-0.4,4.9C48.2,30.2,48.6,30.5,49,30.6L49,30.6z"/>
<path class="st1" d="M101.9,39.7c3,0.2,6-0.3,8.9-1.5c0.4-0.2,0.6-0.7,0.4-1.1c-0.2-0.4-0.7-0.6-1.1-0.4c-7.6,3.3-16.4,0.7-20.6-5.9
	C86,25,86.5,17.5,90.8,12c0.3-0.4,0.2-0.9-0.1-1.2c-0.4-0.3-0.9-0.2-1.2,0.1c-4.8,6.1-5.3,14.4-1.4,20.7
	C91.1,36.4,96.3,39.2,101.9,39.7L101.9,39.7z"/>
<path class="st1" d="M81.5,17.1c-0.8-0.1-1.4-1.4-1.3-2.9c0.1-1.5,0.9-2.7,1.7-2.7s1.4,1.4,1.3,2.9C83.1,15.9,82.4,17.1,81.5,17.1z"
	/>
<path class="st2" d="M143.1,106.1H14.6v84h128.5V106.1z"/>
<path class="st2" d="M143.1,190l46.3-22.4V89l-46.3,22.4V190z"/>
<path class="st2" d="M129,134.5H0.1l14.1-28.4h128.8L129,134.5z"/>
<path class="st2" d="M143.1,106.1l10.3,21.3l46-26.9l-10-16.8L143.1,106.1z"/>
<path class="st1" d="M15,106.3c16.8,0.4,33.6,0.9,50.3,1.3c8.3,0.2,16.7,0.7,25,0.6c4.1,0,8.2-0.5,12.3-0.9
	c4.1-0.4,8.3-0.6,12.4-0.6c9.4,0,18.7,0.4,28.1,0.7c0.9,0,0.9-1.5,0-1.6c-8.3-0.2-16.7-0.5-25-0.7c-4.1-0.1-8.2,0-12.3,0.3
	c-4.1,0.3-8.2,0.8-12.3,1c-8.3,0.4-16.7-0.2-25-0.4c-8.4-0.2-16.9-0.4-25.3-0.7c-9.5-0.3-18.9-0.5-28.4-0.7
	C14.1,104.7,14.1,106.3,15,106.3L15,106.3z"/>
<path class="st1" d="M143.5,107.4c15.4-7.6,30.7-15.6,46.2-23c0.8-0.4,0.4-1.9-0.4-1.5c-15.6,7.5-31,15.5-46.5,23.1
	C142.1,106.4,142.8,107.7,143.5,107.4L143.5,107.4z"/>
<path class="st1" d="M142.7,107.3c1,1.8,1.9,3.6,2.9,5.4c0.9,1.7,1.8,3.3,2.8,4.9c1.9,3.3,3.6,6.8,5,10.4c0.4,0.9,1.5,0.1,1.2-0.8
	c-1.4-3.6-3.1-7.1-5-10.5c-0.9-1.6-1.9-3.2-2.8-4.9c-0.9-1.8-1.8-3.7-2.9-5.4C143.4,105.7,142.2,106.5,142.7,107.3z"/>
<path class="st1" d="M154.3,128.4c15.4-8.5,30.5-17.8,45.3-27.6c0.7-0.5,0.1-1.8-0.7-1.3c-14.9,9.7-29.9,19-45.3,27.6
	C152.9,127.5,153.6,128.8,154.3,128.4z"/>
<path class="st1" d="M142.7,106.6c-5.5,9-9.8,18.9-14,28.8c-0.4,0.9,0.8,1.7,1.2,0.8c4.1-9.9,8.5-19.8,14-28.8
	C144.4,106.5,143.2,105.7,142.7,106.6z"/>
<path class="st1" d="M0.6,135.1c16.7,0,33.4,0,50.1,0.2c16.7,0.1,33.4,0.4,50.1,0.6c9.5,0.2,18.9,0.4,28.4,0.6c0.9,0,0.9-1.5,0-1.6
	c-16.7-0.4-33.4-0.7-50.1-0.9s-33.4-0.4-50.1-0.4c-9.5,0-18.9-0.1-28.4,0C-0.2,133.5-0.2,135.1,0.6,135.1L0.6,135.1z"/>
<path class="st3" d="M31.6,125.1c11.4-3.8,23-7.1,34.6-9.9c0.8-0.2,0.5-1.7-0.4-1.5c-11.6,2.8-23.2,6.1-34.6,9.9
	C30.4,123.9,30.7,125.4,31.6,125.1z"/>
<path class="st3" d="M52.3,123.5c4-1.2,8-2.3,12.1-3.4c0.8-0.2,0.5-1.7-0.4-1.5c-4,1.2-8,2.3-12.1,3.4
	C51.1,122.3,51.5,123.8,52.3,123.5z"/>
<path class="st1" d="M142.5,107.4c0,24.4-0.4,48.7-0.5,73.1c0,1.3,1.5,1.3,1.5,0c0-24.4,0.4-48.7,0.5-73.1
	C144,106.1,142.5,106.1,142.5,107.4z"/>
</svg>
