<?xml version="1.0" encoding="utf-8"?>
<!-- Generator: Adobe Illustrator 27.8.1, SVG Export Plug-In . SVG Version: 6.00 Build 0)  -->
<svg version="1.1" id="圖層_1" xmlns="http://www.w3.org/2000/svg" xmlns:xlink="http://www.w3.org/1999/xlink" x="0px" y="0px"
	 viewBox="0 0 200 180" style="enable-background:new 0 0 200 180;" xml:space="preserve">
<style type="text/css">
	.st0{fill:#F084D8;}
	.st1{fill:#3B1A54;}
	.st2{fill:#FFC876;}
	.st3{fill:#3C3544;}
</style>
<path class="st0" d="M95.3,13.8c-9.3,0-16.2,4.5-19.1,6.7c-7.5-6.3-14.4-9.4-16.9-7.3c-2.3,1.9-1,8.2-0.3,11.5
	c0.6,3,1.6,5.4,2.3,7.1c0.3,2.1,1.4,7.8,5.1,13.9c-0.2,4-0.5,8.7-1,13.8c-0.8,7.8-1.7,12.9-2.5,17.2c-0.9,4.8-1.6,8.7-1.8,14.4
	c-0.3,6.6,0.5,10.6,1.7,16.1c0.8,3.9,1.7,8.5,2.6,15.4H145v-15.4c-9.9-42-17.3-42.5-26.2-66.5c2.7-10-0.2-18.4-0.9-20.2
	c-2.2-7.4-2.3-11.5-1.9-13.9c0-0.2,0.1-0.5,0.1-0.7c0.3-2,0.7-4.2-0.4-4.9c-1-0.6-2.7,0.3-4.1,1.2c-1,0.2-3.7,0.8-5.9,3.1
	c-3.6,3.9-2.6,9-2.4,9.6C101.1,14.3,98.4,13.8,95.3,13.8z"/>
<path class="st1" d="M86.9,27.6c0,1.7-1.1,3.1-2.6,3.1c-1.4,0-2.5-1.4-2.5-3.1c0-1.7,1.1-3.1,2.5-3.1C85.7,24.4,86.9,25.8,86.9,27.6
	z"/>
<path class="st1" d="M107.1,22.8c0,1.7-1.1,3.1-2.6,3.1c-1.4,0-2.5-1.4-2.5-3.1s1.1-3.1,2.5-3.1C106,19.7,107.1,21.1,107.1,22.8z"/>
<path class="st1" d="M100.1,29.3c-0.1,0.2-0.7-0.1-1.3,0.4c-1.1,0.8-0.2,3.4-0.7,3.5c-0.3,0.1-0.6-0.9-1.6-1.8
	c-1.5-1.5-3.1-1.4-3.1-2c0-0.7,1.7-1.5,3.3-1.4C98.6,27.9,100.2,28.9,100.1,29.3L100.1,29.3z"/>
<path class="st1" d="M96.5,36.6c-0.4,0-0.9-0.2-1.1-0.7c-0.3-0.6,0-1.3,0.6-1.5c0.2-0.1,0.6-0.3,0.8-0.7c0.4-0.8-0.1-1.6-0.1-1.7
	c-0.3-0.5-0.2-1.3,0.4-1.6c0.5-0.3,1.2-0.2,1.6,0.3c0.4,0.7,1,2.4,0.2,4c-0.4,0.8-1.1,1.4-1.9,1.7C96.9,36.6,96.7,36.6,96.5,36.6
	L96.5,36.6z"/>
<path class="st1" d="M101,35.1c-0.6,0-2.2-0.2-3.3-1.7c-1.1-1.4-1-2.9-0.9-3.4c0.1-0.6,0.7-1.1,1.3-1c0.6,0.1,1.1,0.7,1,1.3
	c0,0.1-0.1,1,0.4,1.6c0.6,0.7,1.4,0.8,1.6,0.8c0.6,0,1.1,0.6,1.1,1.2C102.2,34.6,101.7,35.1,101,35.1L101,35.1z"/>
<path class="st1" d="M73.3,26.3c-0.6,0-1.1-0.4-1.2-1c-0.1-1.2-0.5-2.4-1.1-3.3c-2.3-3.8-7.4-3.9-8-3.9c-0.6,0-1.1-0.5-1.1-1.1
	c0-0.6,0.5-1.2,1.1-1.2c0.7,0,6.9,0.1,9.9,5c0.8,1.3,1.3,2.8,1.4,4.4c0.1,0.6-0.4,1.2-1,1.2C73.4,26.3,73.3,26.3,73.3,26.3
	L73.3,26.3z"/>
<path class="st1" d="M106.8,16.8c-0.1,0-0.2,0-0.2,0c-0.6-0.1-1-0.7-0.9-1.4c0.8-3.7,2.5-7,5-9.5c0.9-0.8,1.8-1.6,2.9-2.2
	c0.5-0.3,1.2-0.2,1.6,0.4c0.3,0.5,0.2,1.2-0.4,1.6c-0.9,0.6-1.7,1.2-2.5,1.9c-2.2,2.1-3.7,5-4.4,8.3
	C107.9,16.4,107.4,16.8,106.8,16.8L106.8,16.8z"/>
<path class="st1" d="M75.2,41.8c-0.4,0-0.8-0.2-1-0.7c-0.3-0.6,0-1.3,0.6-1.5l12.8-5.9c0.6-0.3,1.3,0,1.5,0.6c0.3,0.6,0,1.3-0.6,1.5
	l-12.8,5.9C75.5,41.8,75.4,41.8,75.2,41.8z"/>
<path class="st1" d="M83.7,44.1c-0.3,0-0.5-0.1-0.8-0.3c-0.5-0.4-0.5-1.1-0.1-1.6l3.2-3.8c0.4-0.5,1.1-0.5,1.6-0.1
	c0.5,0.4,0.5,1.1,0.1,1.6l-3.2,3.8C84.3,43.9,84,44.1,83.7,44.1L83.7,44.1z"/>
<path class="st1" d="M88.9,45.6c-0.2,0-0.4-0.1-0.6-0.2c-0.5-0.3-0.7-1.1-0.3-1.6l3.2-4.9c0.4-0.5,1.1-0.7,1.6-0.3
	c0.5,0.3,0.7,1.1,0.3,1.6L89.9,45C89.7,45.4,89.3,45.6,88.9,45.6z"/>
<path class="st1" d="M124.7,30.4c-0.1,0-21.1-1-21.1-1c-0.6,0-1.1-0.6-1.1-1.2c0-0.6,0.6-1.1,1.2-1.1l21.1,1c0.6,0,1.1,0.6,1.1,1.2
	C125.8,29.9,125.3,30.4,124.7,30.4L124.7,30.4z"/>
<path class="st1" d="M132.3,36.6c-0.2,0-23.8-4-23.8-4c-0.6-0.1-1.1-0.7-0.9-1.3c0.1-0.6,0.7-1.1,1.3-0.9l23.6,4
	c0.6,0.1,1,0.7,0.9,1.3C133.3,36.2,132.8,36.6,132.3,36.6L132.3,36.6z"/>
<path class="st1" d="M121.6,38.9c-0.1,0-0.2,0-0.3,0L109.2,36c-0.6-0.1-1-0.8-0.9-1.4c0.1-0.6,0.8-1,1.4-0.9l12.1,2.8
	c0.6,0.1,1,0.8,0.9,1.4C122.6,38.5,122.1,38.9,121.6,38.9z"/>
<path class="st2" d="M143.1,95.1H14.6v84h128.5V95.1z"/>
<path class="st2" d="M143.1,179l46.3-22.4V78l-46.3,22.4V179z"/>
<path class="st2" d="M129,123.5H0.1l14.1-28.4h128.8L129,123.5z"/>
<path class="st2" d="M143.1,95.1l10.3,21.3l46-26.9l-10-16.8L143.1,95.1z"/>
<path class="st1" d="M15,95.3c16.8,0.4,33.6,0.9,50.3,1.3c8.3,0.2,16.7,0.7,25,0.6c4.1,0,8.2-0.5,12.3-0.9c4.1-0.4,8.3-0.6,12.4-0.6
	c9.4,0,18.7,0.4,28.1,0.7c0.9,0,0.9-1.5,0-1.6c-8.3-0.2-16.7-0.5-25-0.7c-4.1-0.1-8.2,0-12.3,0.3c-4.1,0.3-8.2,0.8-12.3,1
	c-8.3,0.4-16.7-0.2-25-0.4c-8.4-0.2-16.9-0.4-25.3-0.7C33.9,94.3,24.5,94,15,93.8C14.1,93.7,14.1,95.3,15,95.3L15,95.3z"/>
<path class="st1" d="M143.5,96.4c15.4-7.6,30.7-15.6,46.2-23c0.8-0.4,0.4-1.9-0.4-1.5c-15.6,7.5-31,15.5-46.5,23.1
	C142.1,95.4,142.8,96.7,143.5,96.4L143.5,96.4z"/>
<path class="st1" d="M142.7,96.3c1,1.8,1.9,3.6,2.9,5.4c0.9,1.7,1.8,3.3,2.8,4.9c1.9,3.3,3.6,6.8,5,10.4c0.4,0.9,1.5,0.1,1.2-0.8
	c-1.4-3.6-3.1-7.1-5-10.5c-0.9-1.6-1.9-3.2-2.8-4.9c-0.9-1.8-1.8-3.7-2.9-5.4C143.4,94.7,142.2,95.5,142.7,96.3z"/>
<path class="st1" d="M154.3,117.4c15.4-8.5,30.5-17.8,45.3-27.6c0.7-0.5,0.1-1.8-0.7-1.3c-14.9,9.7-29.9,19-45.3,27.6
	C152.9,116.5,153.6,117.8,154.3,117.4z"/>
<path class="st1" d="M142.7,95.6c-5.5,9-9.8,18.9-14,28.8c-0.4,0.9,0.8,1.7,1.2,0.8c4.1-9.9,8.5-19.8,14-28.8
	C144.4,95.5,143.2,94.7,142.7,95.6z"/>
<path class="st1" d="M0.6,124.1c16.7,0,33.4,0,50.1,0.2c16.7,0.1,33.4,0.4,50.1,0.6c9.5,0.2,18.9,0.4,28.4,0.6c0.9,0,0.9-1.5,0-1.6
	c-16.7-0.4-33.4-0.7-50.1-0.9c-16.7-0.2-33.4-0.4-50.1-0.4c-9.5,0-18.9-0.1-28.4,0C-0.2,122.5-0.2,124.1,0.6,124.1L0.6,124.1z"/>
<path class="st3" d="M31.6,114.1c11.4-3.8,23-7.1,34.6-9.9c0.8-0.2,0.5-1.7-0.4-1.5c-11.6,2.8-23.2,6.1-34.6,9.9
	C30.4,112.9,30.7,114.4,31.6,114.1z"/>
<path class="st3" d="M52.3,112.5c4-1.2,8-2.3,12.1-3.4c0.8-0.2,0.5-1.7-0.4-1.5c-4,1.2-8,2.3-12.1,3.4
	C51.1,111.3,51.5,112.8,52.3,112.5z"/>
<path class="st1" d="M142.5,96.4c0,24.4-0.4,48.7-0.5,73.1c0,1.3,1.5,1.3,1.5,0c0-24.4,0.4-48.7,0.5-73.1
	C144,95.1,142.5,95.1,142.5,96.4z"/>
</svg>
