<svg width="32" height="32" viewBox="0 0 32 32" fill="none" xmlns="http://www.w3.org/2000/svg">
<path fill-rule="evenodd" clip-rule="evenodd" d="M16.288 5.33325C13.5846 5.33325 11.3932 7.52359 11.3932 10.2262C11.3932 12.9289 13.5846 15.1193 16.288 15.1193C18.9895 15.1193 21.181 12.9291 21.181 10.2262C21.181 7.52339 18.9895 5.33325 16.288 5.33325ZM9.39325 10.2262C9.39325 6.41824 12.4808 3.33325 16.288 3.33325C20.0936 3.33325 23.181 6.41844 23.181 10.2262C23.181 14.0341 20.0936 17.1193 16.288 17.1193C12.4808 17.1193 9.39325 14.0342 9.39325 10.2262Z" fill="#E4C59F"/>
<path fill-rule="evenodd" clip-rule="evenodd" d="M8.17192 26.2466C10.5505 27.4962 13.3192 28.0075 16.3308 28H16.3356C19.3472 28.0075 22.1159 27.4962 24.4944 26.2466C23.1286 22.9855 20.0794 21.4155 16.3358 21.4251H16.3307C12.5825 21.4155 9.53822 22.9818 8.17192 26.2466ZM16.3332 19.4251C11.6673 19.4139 7.51138 21.584 5.98928 26.3974L5.75293 27.1447L6.42222 27.5527C9.36137 29.3444 12.7782 30.0084 16.3332 30C19.8883 30.0084 23.3051 29.3444 26.2443 27.5527L26.9135 27.1447L26.6772 26.3974C25.1567 21.5888 20.9946 19.4139 16.3332 19.4251Z" fill="#E4C59F"/>
</svg>
