<svg width="26" height="26" viewBox="0 0 26 26" fill="none" xmlns="http://www.w3.org/2000/svg">
<g clip-path="url(#clip0_2053_5507)">
<path d="M12.7432 13.2373C16.1953 13.2373 18.9932 10.4395 18.9932 6.9873C18.9932 3.53516 16.1953 0.737305 12.7432 0.737305C9.29102 0.737305 6.49316 3.53516 6.49316 6.9873C6.49316 10.4395 9.29102 13.2373 12.7432 13.2373ZM17.4209 14.8291L15.0869 24.1748L13.5244 17.5342L15.0869 14.7998H10.3994L11.9619 17.5342L10.3994 24.1748L8.06543 14.8291C4.58398 14.9951 1.80566 17.8418 1.80566 21.3623V23.3936C1.80566 24.6875 2.85547 25.7373 4.14941 25.7373H21.3369C22.6309 25.7373 23.6807 24.6875 23.6807 23.3936V21.3623C23.6807 17.8418 20.9023 14.9951 17.4209 14.8291Z" fill="#E0E0E0"/>
</g>
<defs>
<clipPath id="clip0_2053_5507">
<rect width="25" height="25" fill="white" transform="translate(0.243164 0.737305)"/>
</clipPath>
</defs>
</svg>
