<?xml version="1.0" encoding="utf-8"?>
<!-- Generator: Adobe Illustrator 27.8.1, SVG Export Plug-In . SVG Version: 6.00 Build 0)  -->
<svg version="1.1" id="圖層_1" xmlns="http://www.w3.org/2000/svg" xmlns:xlink="http://www.w3.org/1999/xlink" x="0px" y="0px"
	 viewBox="0 0 1512 362.3" style="enable-background:new 0 0 1512 362.3;" xml:space="preserve">
<style type="text/css">
	.st0{fill:#FFE382;}
</style>
<g>
	<path class="st0" d="M1682.7,320v-98.8c0-58.6,0.4-117.2,0-175.7c-0.3-40.5-6.7-44.8-51.5-48.1c-45.4-3.4-91.7,4.8-133,23.9
		c-26.8,12.4-52.1,29.4-81.2,34.5c-12.5,2.2-25.6,2.1-37.4,6.8c-13.2,5.2-23.3,15.8-33.7,25.4c-47.3,43.8-110.1,73.8-174.5,70.7
		c-36.3-1.7-71.3-13.6-107.1-20.2c-59.7-10.9-95,18.1-150.2,24.8c-41.1,4.9-82.5,6.1-123.9,7.2c-12.5,0.3-25.1,0.7-37.6,1
		C698,173,640.1,175.4,595,203.8c-5.7,3.5-11.3,7.6-17.8,9.5c-12.4,3.7-25.7-0.7-38.4-3.6c-37.7-8.7-78.7-4.5-113.3,11.7
		c-8.6,4-17.2,8.9-26.8,9.3c-7.4,0.3-14.5-2-21.7-3.3c-26.4-4.9-52.4,2.9-77.5,9.8c-15.3,4.2-69.4,7.8-76,19.7
		c37,0,64.6,10.1,99.2,21.2c25.6,8.3,43.8,8.3,69.9,6.3c55.2-4.2,111.7-2.3,167.1-3.4c14.6-0.3,25.3,0.9,39.1,5.4
		c26.2,8.6,50.9,10.2,78.3,11.6c20.3,1,42,6.2,62.3,3.2c25.8-3.7,48-20.5,74-24.4c42.4-6.3,72.8,10.1,112.3,16.1
		c83.2,12.7,166.9,6.1,250.2,18.7c25,3.8,50.6,11.4,75.7,13.4c41.1,3.3,83.7,0,125,0.1c81.4,0.1,157.6-17.2,239.7-3.7
		C1635.6,324.6,1663.5,325.4,1682.7,320z"/>
</g>
</svg>
