<svg width="237" height="169" viewBox="0 0 237 169" fill="none" xmlns="http://www.w3.org/2000/svg">
<path d="M123.584 81.81C116.074 106.42 108.514 131.07 100.964 155.67L6.74392 145.32C4.50392 119.73 2.26392 94.15 0.013916 68.56C0.293916 67.85 0.623916 67.2 0.903916 66.49C10.5039 44.45 20.0939 22.38 29.7139 0.399994L106.914 8.87999C112.344 32.56 117.784 56.24 123.174 79.92C123.314 80.53 123.444 81.19 123.584 81.81Z" fill="#AE80C4"/>
<path d="M236.414 94.21C229.684 118.9 222.944 143.64 216.244 168.34L10.0739 145.68L26.0839 0L223.894 21.74C227.944 45.27 232.014 68.8 236.094 92.33C236.194 92.94 236.294 93.6 236.404 94.21H236.414Z" fill="#AE80C4"/>
<path d="M236.104 92.33L0.91394 66.48C9.29394 44.32 17.6739 22.11 26.0839 0L223.894 21.74C227.944 45.27 232.014 68.8 236.094 92.33H236.104Z" fill="#FFCCCC"/>
<path d="M110.234 80C104.144 100.25 98.0239 120.53 91.9039 140.78L16.2139 132.46C14.4639 111.43 12.7139 90.39 10.9739 69.36C11.2039 68.78 11.4639 68.24 11.6939 67.66C19.4439 49.53 27.1939 31.36 34.9739 13.26L96.9839 20.07C101.304 39.53 105.614 58.99 109.904 78.45C110.014 78.95 110.124 79.5 110.234 80Z" fill="#3B1A54"/>
<path d="M93.2539 143.18L14.4139 134.52L8.97394 69.05L9.91394 66.79L14.0039 57.21C20.4039 42.24 26.7939 27.26 33.2139 12.33L33.8339 10.88L98.5739 17.99L100.014 24.51C103.954 42.29 107.904 60.07 111.814 77.85L112.284 80.04L112.094 80.67C106.014 100.92 99.8839 121.21 93.7739 141.45L93.2539 143.18ZM18.0339 130.41L90.5739 138.38C96.4539 118.92 102.344 99.42 108.194 79.96L108.004 79.06C104.094 61.28 100.144 43.5 96.2039 25.72L95.4139 22.16L36.1339 15.65C29.9239 30.1 23.7339 44.59 17.5439 59.07L12.9939 69.71L18.0339 130.41Z" fill="white"/>
<path d="M43.9564 14.2327L30.7917 134.052L34.6982 134.481L47.8629 14.6619L43.9564 14.2327Z" fill="white"/>
<path d="M73.7946 17.5194L60.6299 137.338L64.5364 137.768L77.7011 17.9486L73.7946 17.5194Z" fill="white"/>
<path d="M24.6249 35.7499L24.1356 40.2031L104.154 48.9948L104.643 44.5416L24.6249 35.7499Z" fill="white"/>
<path d="M11.212 67.1278L10.7227 71.581L108.345 82.3069L108.835 77.8537L11.212 67.1278Z" fill="white"/>
<path d="M14.5614 107.423L14.0721 111.877L98.3152 121.132L98.8045 116.679L14.5614 107.423Z" fill="white"/>
<path d="M169.504 81.1454L136.503 77.5195L135.034 90.889L168.035 94.5149L169.504 81.1454Z" fill="white"/>
<path d="M220.895 86.2871L187.893 82.6612L186.424 96.0307L219.426 99.6566L220.895 86.2871Z" fill="white"/>
</svg>
