<svg width="281" height="413" viewBox="0 0 281 413" fill="none" xmlns="http://www.w3.org/2000/svg">
<path d="M18.3739 269.401C27.8839 253.781 39.9339 240.091 48.9539 224.121C60.2339 204.161 67.6939 179.711 87.3039 168.621C100.614 161.101 117.354 161.211 133.384 163.031C174.454 167.681 215.614 182.551 252.394 206.041C261.294 211.721 270.344 218.341 275.414 227.791C280.134 236.581 280.774 246.631 280.654 256.151C280.004 308.521 259.294 357.821 223.964 391.111C215.114 399.451 205.134 406.951 193.244 410.211C184.824 412.521 175.764 412.621 166.804 412.711C124.164 413.121 70.5639 412.591 33.8539 378.331C0.29388 347.001 -1.93612 302.751 18.3739 269.401Z" fill="#FFCCCC"/>
<path d="M176.22 26.7566C175.88 27.9066 170.38 47.4266 183.46 61.8366C191.87 71.1066 202.88 72.6566 206.01 72.9866C219.57 69.7066 230.29 59.9466 233.83 47.3166C237.37 34.7066 232.42 24.0666 230.98 21.2266C231.19 20.4966 235 6.59661 230.84 4.19661C227.58 2.31661 219.76 7.71661 211.95 18.0866C205.63 17.6566 199.31 17.2266 192.98 16.7966C186.75 6.09661 179.93 -1.13339 176.54 0.146614C172.98 1.48661 172.66 12.4366 176.21 26.7566H176.22Z" fill="#AE80C4"/>
<path d="M191.82 113.087C190.11 126.467 186.41 137.847 182.42 146.987C179.25 154.497 175.83 160.387 173.05 164.727C173.58 171.337 173.72 178.357 173.57 185.807L173.54 186.247C173.06 205.037 170.17 221.537 166.66 235.237L141.47 233.527C139.06 231.057 138.14 227.617 139.3 224.947C140.89 221.147 146.27 219.027 151.18 221.317C151.01 218.647 150.76 214.457 150.31 209.267C149.7 201.327 149.17 194.717 148.67 188.997C146.43 165.757 144.95 158.827 145.29 144.547C145.61 130.627 145.91 119.727 150.91 106.217C156.96 90.2866 166.33 79.2066 172.89 72.7266C176.84 65.6266 180.69 58.5166 184.64 51.4166C185.31 53.3266 186.14 55.5166 186.95 57.9666C190.81 70.3966 194.91 89.7666 191.82 113.077V113.087Z" fill="#AE80C4"/>
<path d="M228 238.067C218.4 236.967 208.7 235.957 199.09 234.947C195.48 220.047 191.88 205.067 188.28 190.177C187.65 187.647 187.11 185.217 186.56 182.867C184.67 172.797 182.69 162.717 180.8 152.647C181.37 150.737 181.95 148.817 182.43 146.987C195.11 102.747 193.23 83.3466 188.09 74.0266C187.45 72.9166 184.98 68.7566 185.51 63.5566C185.64 61.6966 186.12 59.8666 186.95 58.0566C190.65 49.3366 200.78 41.4166 211.91 42.1666C220.4 42.6566 226.25 48.1166 228.32 50.2966C223.2 74.7166 220.69 94.7066 219.32 108.377C217.33 128.487 217.25 141.447 215.2 186.147C214.89 193.407 214.52 201.457 214.07 210.577C213.69 217.477 213.4 223.047 213.24 226.677C220.57 225.927 226.59 228.827 228.08 233.097C228.37 234.007 228.71 235.627 228.01 238.067H228Z" fill="#AE80C4"/>
<path d="M180.9 58.7066C157.37 62.5666 122.29 72.6566 96.04 101.597C93.17 104.767 90.55 107.987 88.17 111.237C85.12 137.047 82.08 162.867 79.03 188.677C82.23 189.427 87.47 190.177 93.45 188.727C101.69 186.747 104.99 181.087 112.27 175.757C117.09 172.227 124.53 168.067 135.69 165.877C138.68 166.867 163.98 174.747 187.03 159.007C205.68 146.267 210.11 126.747 210.96 122.527C200.94 101.257 190.91 79.9766 180.89 58.7066H180.9Z" fill="#AE80C4"/>
<path d="M101.67 198.507C97.1 208.317 91.69 214.787 89.57 217.217C90.27 217.357 94.66 218.097 97.31 222.187C99.72 225.987 98.9099 229.937 98.6899 230.627L75.18 229.027C73.97 219.447 73.1799 208.737 73.2599 197.107C73.1899 194.257 73.21 191.337 73.32 188.317C74.48 156.787 81.33 130.527 88.14 111.187C92.11 115.537 109.17 134.987 109.17 164.997C109.14 178.487 105.71 189.797 101.66 198.497L101.67 198.507Z" fill="#AE80C4"/>
<path d="M137.51 197.657C132.63 209.317 126.35 216.877 124.04 219.557C124.65 219.687 129.13 220.437 131.69 224.517C134.18 228.327 133.3 232.267 133.16 232.967L109.65 231.367C108.45 221.607 107.58 210.807 107.67 199.087C107.59 196.327 107.69 193.497 107.8 190.657C108.88 159.117 115.72 132.857 122.62 113.527C126.59 117.877 143.65 137.327 143.65 167.337C143.65 179.237 141 189.447 137.51 197.637V197.657Z" fill="#AE80C4"/>
<path d="M88.17 111.237C78.87 160.207 58.34 184.677 45.91 196.257C34.74 206.667 19.77 216.287 15.2 212.667C11.28 209.567 16.77 198.047 11.61 194.667C9.00998 192.967 4.62998 193.927 2.24998 196.247C-0.290021 198.737 -0.0800213 202.357 0.129979 205.727C0.279979 208.177 0.729979 215.647 5.77998 220.537C13.34 227.847 26.54 224.257 32.27 222.707C37.13 221.387 47.87 217.717 60.96 204.097C67.25 197.557 96.37 167.727 91.98 127.977C91.17 120.687 89.44 114.877 88.17 111.237Z" fill="#AE80C4"/>
<path d="M173.6 54.5066C172.83 67.8766 170.91 68.7566 172.5 73.7166C173.8 77.7766 176.52 80.9466 181.99 87.2666C187.17 93.2566 187.92 92.7266 189.59 95.9666C192.04 100.737 191.6 104.207 195.2 107.307C196.26 108.227 198.08 109.797 200.05 109.437C203.07 108.897 203.83 104.297 206.28 99.4566C209.44 93.1966 211.85 93.5566 217.71 86.3566C220.43 83.0066 220.62 81.6166 227.39 64.3966C234.21 47.0366 236.1 43.0266 234.17 41.1366C231.05 38.0766 223.2 45.7466 216.21 42.1366C209.67 38.7666 210.56 28.9966 206.59 28.5766C201.99 28.0966 200.5 41.1666 192.14 43.2766C184.97 45.0766 179.4 37.1566 175.45 39.7866C173.27 41.2366 174.21 44.1666 173.62 54.5066H173.6Z" fill="white"/>
<path d="M211.24 35.1266C211.09 35.5866 209.71 34.9666 208.44 35.8266C206.92 36.8566 206.99 39.0666 206.48 39.0366C205.98 39.0066 206.27 36.8966 204.9 35.6566C203.72 34.5866 202.22 35.0066 202.13 34.5066C202.02 33.8766 204.35 32.4366 206.83 32.6066C209.32 32.7766 211.43 34.5366 211.23 35.1266H211.24Z" fill="#3B1A54"/>
<path d="M194.3 29.7466C194.17 31.6766 193.1 33.1866 191.91 33.0966C190.72 33.0066 189.87 31.3866 190 29.4466C190.13 27.5166 191.2 26.0066 192.39 26.0966C193.58 26.1866 194.43 27.8066 194.3 29.7466Z" fill="#3B1A54"/>
<path d="M219.46 29.2266C219.33 31.1566 218.26 32.6666 217.07 32.5766C215.88 32.4966 215.03 30.8666 215.16 28.9266C215.29 26.9966 216.36 25.4866 217.55 25.5766C218.74 25.6666 219.59 27.2866 219.46 29.2266Z" fill="#3B1A54"/>
<path d="M200.77 44.1766C200.04 44.1266 199.48 43.4966 199.52 42.7566C199.56 42.0166 200.2 41.4566 200.94 41.4966C201.5 41.5266 202.34 41.4666 203.19 41.0166C205.04 40.0266 205.41 37.8466 205.45 37.6066C205.56 36.8766 206.24 36.3266 206.97 36.4866C207.7 36.5966 208.21 37.2766 208.1 38.0166C208.01 38.6366 207.4 41.8166 204.46 43.3866C203.06 44.1466 201.69 44.2366 200.78 44.1866H200.77V44.1766Z" fill="#3B1A54"/>
<path d="M210.83 45.2766C210.67 45.2666 210.52 45.2266 210.37 45.1566C209.71 44.8566 206.37 43.1766 205.46 39.4466C205.05 37.7866 205.27 36.3066 205.53 35.3666C205.72 34.6466 206.47 34.2466 207.17 34.4266C207.88 34.6266 208.31 35.3566 208.11 36.0666C207.94 36.7066 207.79 37.6966 208.06 38.8066C208.68 41.3266 211.02 42.5066 211.48 42.7166C212.15 43.0266 212.45 43.8166 212.14 44.4966C211.9 45.0166 211.37 45.3166 210.83 45.2766Z" fill="#3B1A54"/>
<path d="M166.66 235.237L141.47 233.527C139.06 231.057 138.14 227.617 139.3 224.947C140.89 221.147 146.27 219.027 151.18 221.317C151.01 218.647 150.76 214.457 150.31 209.267C149.7 201.327 149.17 194.717 148.67 188.997C152.45 185.617 157.32 184.527 158.32 184.237C158.86 184.097 168.5 182.087 173.54 186.247C173.06 205.037 170.17 221.537 166.66 235.237Z" fill="#3B1A54"/>
<path d="M228 238.067C218.4 236.967 208.7 235.957 199.09 234.947C195.48 220.047 191.88 205.067 188.28 190.177C188.04 185.897 188.01 183.677 190.11 181.597C195.43 176.537 206.17 180.467 206.86 180.687C207.73 181.017 211.97 182.637 215.19 186.137C214.88 193.397 214.51 201.447 214.06 210.567C213.68 217.467 213.39 223.037 213.23 226.667C220.56 225.917 226.58 228.817 228.07 233.087C228.36 233.997 228.7 235.617 228 238.057V238.067Z" fill="#3B1A54"/>
<path d="M97.31 222.187C99.72 225.987 98.91 229.937 98.69 230.627L75.18 229.027C73.97 219.447 73.18 208.737 73.26 197.107C80.55 191.737 90.29 189.557 96.59 193.457C98.47 194.557 100.3 196.377 101.66 198.507C97.09 208.317 91.68 214.787 89.56 217.217C90.26 217.357 94.65 218.097 97.3 222.187H97.31Z" fill="#3B1A54"/>
<path d="M133.16 193.717C134.7 194.617 136.11 195.957 137.51 197.657C132.63 209.317 126.35 216.877 124.04 219.557C124.65 219.687 129.13 220.437 131.69 224.517C134.18 228.327 133.3 232.267 133.16 232.967L109.65 231.367C108.45 221.607 107.58 210.807 107.67 199.087C115.04 192.487 126.26 189.427 133.16 193.717Z" fill="#3B1A54"/>
<path d="M146.42 168.747C145.89 168.707 145.41 168.367 145.24 167.827C144.47 165.507 143.82 163.127 143.32 160.767C142.09 155.067 141.58 149.177 141.82 143.267C141.85 142.527 142.47 141.947 143.21 141.977C143.99 142.017 144.53 142.627 144.5 143.367C144.27 149.057 144.76 154.717 145.94 160.197C146.43 162.467 147.05 164.757 147.79 166.997C148.02 167.697 147.64 168.457 146.94 168.687C146.77 168.747 146.6 168.767 146.43 168.757L146.42 168.747Z" fill="#3B1A54"/>
<path d="M177.52 164.337C177.05 164.307 176.61 164.027 176.4 163.567C176.09 162.897 176.38 162.097 177.05 161.787C182.48 159.257 187.5 155.987 191.97 152.067C199.94 145.087 206.15 135.967 209.93 125.697C210.18 124.997 210.94 124.637 211.65 124.897C212.34 125.157 212.7 125.927 212.44 126.617C208.5 137.307 202.03 146.807 193.73 154.087C189.06 158.177 183.83 161.577 178.17 164.217C177.96 164.317 177.73 164.357 177.51 164.337H177.52Z" fill="#3B1A54"/>
<path d="M111.07 166.297C110.92 166.287 110.77 166.247 110.62 166.187C109.94 165.887 109.63 165.097 109.93 164.417C112.49 158.607 113.81 152.527 113.85 146.357C113.95 131.877 106.95 121.187 102.77 116.107C102.3 115.537 102.38 114.687 102.95 114.217C103.52 113.747 104.37 113.827 104.84 114.397C109.25 119.757 116.64 131.047 116.54 146.367C116.5 152.907 115.1 159.347 112.39 165.497C112.16 166.027 111.62 166.337 111.07 166.297Z" fill="#3B1A54"/>
<path d="M125.13 169.147C121.6 168.907 118.08 168.387 114.6 167.597C113.88 167.437 113.43 166.717 113.59 165.987C113.75 165.267 114.48 164.827 115.2 164.977C121.31 166.367 127.55 166.877 133.73 166.487C136.94 166.287 140.18 165.837 143.36 165.137C144.08 164.967 144.8 165.437 144.95 166.167C145.11 166.887 144.65 167.607 143.92 167.757C140.61 168.477 137.24 168.947 133.89 169.157C130.97 169.337 128.04 169.337 125.12 169.137L125.13 169.147Z" fill="#3B1A54"/>
<path d="M72.57 187.727C72.4 187.717 72.24 187.677 72.08 187.597C71.41 187.277 71.13 186.477 71.46 185.807C75.57 177.307 78.77 168.327 80.96 159.127C83.14 149.997 84.33 140.597 84.5 131.217C84.51 130.477 85.12 129.887 85.86 129.897C86.57 129.937 87.19 130.527 87.17 131.257C86.99 140.837 85.78 150.417 83.56 159.737C81.32 169.127 78.06 178.287 73.86 186.967C73.62 187.467 73.09 187.757 72.56 187.717L72.57 187.727Z" fill="#3B1A54"/>
<path d="M95.44 189.547C95.44 189.547 94.57 197.987 89.41 203.767" stroke="white" stroke-width="2" stroke-linecap="round" stroke-linejoin="round"/>
<path d="M122.59 187.787C122.59 187.787 124.19 195.267 122.59 200.727" stroke="white" stroke-width="2" stroke-linecap="round" stroke-linejoin="round"/>
<path d="M130.63 198.157C130.63 198.157 129.85 201.287 127.98 204.427" stroke="white" stroke-width="2" stroke-linecap="round" stroke-linejoin="round"/>
<path d="M146.88 227.237C146.88 227.237 146.06 230.617 148.94 234.007" stroke="white" stroke-width="2" stroke-linecap="round" stroke-linejoin="round"/>
<path d="M218.36 232.107C218.36 232.107 221.14 233.067 220.5 238.367" stroke="white" stroke-width="2" stroke-linecap="round" stroke-linejoin="round"/>
</svg>
