<svg width="196" height="184" viewBox="0 0 196 184" fill="none" xmlns="http://www.w3.org/2000/svg">
<g clip-path="url(#clip0_1279_9089)">
<path d="M195.64 35.3671C192.719 62.2325 172.772 81.5055 147.512 88.4697C122.024 95.2026 95.3403 88.5469 73.5838 71.3015C66.8584 44.8218 78.9996 14.287 110.465 3.48796C141.743 -7.48739 178.915 8.61199 195.64 35.3671Z" fill="#3F9896"/>
<path d="M113.885 51.2461C116.733 78.7726 103.48 104.15 83.0538 118.476C62.3888 132.658 37.5451 133.495 14.3229 122.663C2.49359 98.5194 6.83864 65.0644 32.5555 45.2295C58.0645 25.2953 94.062 29.9786 113.885 51.2461Z" fill="#3F9896"/>
<path d="M45.7464 91.4338C54.0935 117.814 47.9709 146.696 33.0855 166.377C31.7549 168.107 30.3828 169.738 28.9587 171.269C2.10878 203.391 -58.5661 171.005 -32.7348 115.688C-31.4251 113.274 -29.949 110.916 -28.3274 108.635C-9.52308 81.8248 23.7509 76.1278 45.7361 91.4228L45.7464 91.4338Z" fill="#3F9896"/>
<path d="M168.26 37.4278C89.8517 47.8191 27.2642 94.7839 -10.9578 157.738" stroke="#80C7A7" stroke-width="3" stroke-linecap="round" stroke-linejoin="round"/>
<path d="M156.4 65.5053C148.864 62.4089 141.203 59.654 133.448 57.2518" stroke="#80C7A7" stroke-width="3" stroke-linecap="round" stroke-linejoin="round"/>
<path d="M119.986 76.2714C112.575 74.3319 105.08 72.7451 97.5023 71.4999" stroke="#80C7A7" stroke-width="3" stroke-linecap="round" stroke-linejoin="round"/>
<path d="M86.8272 92.5911C79.6235 91.7536 72.3575 91.2577 65.0499 91.1145" stroke="#80C7A7" stroke-width="3" stroke-linecap="round" stroke-linejoin="round"/>
<path d="M57.202 113.782C50.279 113.969 43.3144 114.509 36.3395 115.412" stroke="#80C7A7" stroke-width="3" stroke-linecap="round" stroke-linejoin="round"/>
<path d="M31.3807 139.17C24.8008 140.327 18.2104 141.848 11.6305 143.721" stroke="#80C7A7" stroke-width="3" stroke-linecap="round" stroke-linejoin="round"/>
<path d="M137.471 16.9536C132.627 22.838 128.012 28.8766 123.656 35.0475" stroke="#80C7A7" stroke-width="3" stroke-linecap="round" stroke-linejoin="round"/>
<path d="M97.0763 30.4525C93.1055 37.0972 89.3841 43.8521 85.9019 50.6952" stroke="#80C7A7" stroke-width="3" stroke-linecap="round" stroke-linejoin="round"/>
<path d="M60.216 50.0339C57.1495 57.2737 54.3429 64.5906 51.7754 71.9515" stroke="#80C7A7" stroke-width="3" stroke-linecap="round" stroke-linejoin="round"/>
<path d="M27.2229 75.015C25.092 82.7066 23.2105 90.4202 21.5681 98.1448" stroke="#80C7A7" stroke-width="3" stroke-linecap="round" stroke-linejoin="round"/>
<path d="M-1.59161 104.69C-2.78702 112.668 -3.73295 120.635 -4.4502 128.58" stroke="#80C7A7" stroke-width="3" stroke-linecap="round" stroke-linejoin="round"/>
</g>
<defs>
<clipPath id="clip0_1279_9089">
<rect width="196" height="184" fill="white"/>
</clipPath>
</defs>
</svg>
