<svg width="196" height="184" viewBox="0 0 196 184" fill="none" xmlns="http://www.w3.org/2000/svg">
<g clip-path="url(#clip0_1279_9088)">
<path d="M8.49446e-06 35.3671C2.92097 62.2325 22.8687 81.5055 48.1282 88.4698C73.6165 95.2026 100.3 88.5469 122.057 71.3015C128.782 44.8218 116.641 14.287 85.1756 3.48796C53.8974 -7.48739 16.7254 8.61199 8.49446e-06 35.3671Z" fill="#80C7A7"/>
<path d="M81.7554 51.2461C78.9072 78.7726 92.1607 104.15 112.587 118.476C133.252 132.658 158.095 133.495 181.317 122.663C193.147 98.5194 188.802 65.0644 163.085 45.2295C137.576 25.2953 101.578 29.9786 81.7554 51.2461Z" fill="#80C7A7"/>
<path d="M149.894 91.4338C141.547 117.814 147.669 146.696 162.555 166.377C163.885 168.107 165.258 169.738 166.682 171.269C193.532 203.391 254.206 171.005 228.375 115.688C227.065 113.274 225.589 110.916 223.968 108.635C205.163 81.8248 171.889 76.1278 149.904 91.4228L149.894 91.4338Z" fill="#80C7A7"/>
<path d="M27.3802 37.4278C105.789 47.8191 168.376 94.7839 206.598 157.738" stroke="#3F9896" stroke-width="3" stroke-linecap="round" stroke-linejoin="round"/>
<path d="M39.2404 65.5053C46.7767 62.4089 54.4377 59.654 62.1923 57.2518" stroke="#3F9896" stroke-width="3" stroke-linecap="round" stroke-linejoin="round"/>
<path d="M75.654 76.2714C83.0656 74.3319 90.5603 72.7451 98.1381 71.4999" stroke="#3F9896" stroke-width="3" stroke-linecap="round" stroke-linejoin="round"/>
<path d="M108.813 92.5911C116.017 91.7536 123.283 91.2577 130.591 91.1145" stroke="#3F9896" stroke-width="3" stroke-linecap="round" stroke-linejoin="round"/>
<path d="M138.438 113.782C145.361 113.969 152.326 114.509 159.301 115.412" stroke="#3F9896" stroke-width="3" stroke-linecap="round" stroke-linejoin="round"/>
<path d="M164.26 139.17C170.84 140.327 177.43 141.848 184.01 143.721" stroke="#3F9896" stroke-width="3" stroke-linecap="round" stroke-linejoin="round"/>
<path d="M58.1694 16.9536C63.0134 22.838 67.6287 28.8766 71.9841 35.0475" stroke="#3F9896" stroke-width="3" stroke-linecap="round" stroke-linejoin="round"/>
<path d="M98.5641 30.4525C102.535 37.0972 106.256 43.8521 109.739 50.6952" stroke="#3F9896" stroke-width="3" stroke-linecap="round" stroke-linejoin="round"/>
<path d="M135.424 50.0339C138.491 57.2737 141.297 64.5906 143.865 71.9515" stroke="#3F9896" stroke-width="3" stroke-linecap="round" stroke-linejoin="round"/>
<path d="M168.417 75.015C170.548 82.7066 172.43 90.4202 174.072 98.1448" stroke="#3F9896" stroke-width="3" stroke-linecap="round" stroke-linejoin="round"/>
<path d="M197.232 104.69C198.427 112.668 199.373 120.635 200.091 128.58" stroke="#3F9896" stroke-width="3" stroke-linecap="round" stroke-linejoin="round"/>
</g>
<defs>
<clipPath id="clip0_1279_9088">
<rect width="196" height="184" fill="white"/>
</clipPath>
</defs>
</svg>
