<svg width="239" height="387" viewBox="0 0 239 387" fill="none" xmlns="http://www.w3.org/2000/svg">
<path d="M0.013916 0.0656208C0.513916 0.0856208 1.05392 -0.134379 1.49392 0.135621C65.4139 38.6456 69.5239 66.8356 68.5539 137.006C68.2439 159.946 77.8739 186.916 102.984 189.576C128.094 192.236 133.974 179.816 160.644 182.196C189.914 184.806 191.904 219.726 203.914 230.356C223.854 248.006 236.784 263.576 238.194 294.396C238.714 305.786 236.004 317.596 229.744 326.266C221.174 338.136 207.314 342.676 194.154 343.566C180.994 344.446 167.764 342.316 154.644 343.726C146.504 344.596 138.244 347.046 131.154 352.006C124.204 356.876 117.664 362.706 111.884 369.106C93.0939 389.896 64.2739 394.276 45.6639 368.436C29.8539 346.476 25.3339 321.056 0.023916 323.126" fill="#CF9A70"/>
</svg>
