<?xml version="1.0" encoding="utf-8"?>
<!-- Generator: Adobe Illustrator 27.8.1, SVG Export Plug-In . SVG Version: 6.00 Build 0)  -->
<svg version="1.1" id="圖層_1" xmlns="http://www.w3.org/2000/svg" xmlns:xlink="http://www.w3.org/1999/xlink" x="0px" y="0px"
	 viewBox="0 0 1512 380" style="enable-background:new 0 0 1512 380;" xml:space="preserve">
<style type="text/css">
	.st0{fill:#80C7A7;}
</style>
<path class="st0" d="M1512,277.7c-26.2-20.8-57.7-30.7-95.3-25.4c-13.1,1.9-26,5.5-39.3,5.2c-23.1-0.5-42.8-12.3-65.2-16.4
	c-20.7-3.8-42.4-0.8-63.2,2.2c-69.9,10.1-140.2,20.2-207.2,38.2c-19.5,5.2-39.4,11.2-60.1,10.8c-16.2-0.3-31.7-4.5-46.8-8.6
	C880.3,268.8,825.6,253.9,771,239c-57.3-15.6-116.5-32.1-160.2-63.9c-23.1-16.8-43-38.4-73.9-45.5c-13.7-3.1-28.4-3-42.4-5.6
	c-44-8-72.9-39.9-114.7-52.8c-56.6-17.5-125.4,3-180.8-16.4c-21.7-7.6-39-20.6-58.8-30.7C99.7,3.5,48.1-4.5,0,2.4V941h1512V277.7z"
	/>
</svg>
