<svg width="276" height="249" viewBox="0 0 276 249" fill="none" xmlns="http://www.w3.org/2000/svg">
<path d="M226.8 188.283C226.8 188.283 287.53 208.715 317.664 180.072C347.797 151.428 318.879 141.127 309.469 152.302C301.008 162.346 270.72 180.491 239.902 168.777C231.27 165.497 222.099 163.887 212.868 164.187" fill="#3B1A54"/>
<path d="M39.9783 56.4991L19.6666 33.7216C19.6666 33.7216 19.2898 24.6106 15.8389 23.0693C12.3965 21.5279 3.73917 24.6363 2.79722 31.9148C2.79722 31.9148 -3.47955 37.8661 2.8486 46.4633C9.17675 55.0605 47.1114 113.957 49.3892 120.31L61.4889 81.6229L39.9869 56.4991H39.9783Z" fill="#3B1A54"/>
<path d="M230.799 223.734C257.216 173.495 199.98 131.999 146.7 110.583C109.708 95.7091 112.388 51.5327 112.08 50.1883C118.339 43.7575 122.304 24.6792 114.135 23.0694C108.5 21.9562 102.891 23.1036 99.4491 24.1312C97.06 21.7079 83.8557 9.18022 67.4658 10.9784C63.9121 6.89391 56.5992 -0.573003 50.9904 0.0349685C44.4738 0.737132 43.0866 13.71 45.7326 21.0143C36.5101 28.0016 29.9165 36.008 29.9165 36.008C29.9165 36.008 21.987 43.7575 26.928 54.9151C28.4522 58.3574 31.3037 61.8083 34.9773 65.0451C44.842 79.1483 48.4814 89.3211 48.5927 98.3037C48.8239 117.254 49.6288 147.113 58.9798 167.672C100.057 258.003 209.682 263.894 230.799 223.734Z" fill="#FFFAEC"/>
<path d="M217.749 218.091L283.831 202.37C283.831 202.37 306.908 206.994 313.236 204.391C319.565 201.787 319.034 199.056 319.034 199.056C319.034 199.056 323.632 196.478 318.7 190.981C318.7 190.981 314.744 184.619 306.54 183.685C231.681 175.14 209.879 147.062 209.879 147.062" fill="#FFFAEC"/>
<path d="M71.8674 82.7021H71.8762V82.7111L71.8674 82.7021Z" fill="#FFCCCC"/>
<path d="M111.582 65.0194C113.115 60.5581 113.364 55.7886 112.079 50.1884C118.339 43.7576 122.303 24.6793 114.134 23.0694C108.5 21.9562 102.891 23.1037 99.4487 24.1312C97.9502 22.607 92.1616 17.0839 84.0011 13.6416C74.1451 18.9164 57.0877 32.2233 74.8558 55.6259C86.4501 70.8936 100.408 70.1744 111.591 65.0194H111.582Z" fill="#3B1A54"/>
<path d="M166.713 244.825L259.246 234.369C259.246 234.369 278.213 248.301 285.046 248.61C291.88 248.918 292.556 246.221 292.556 246.221C292.556 246.221 297.823 245.827 295.665 238.754C295.665 238.754 295.862 228.384 287.718 227.005C279.575 225.627 218.066 202.943 218.066 202.943" fill="#FFFAEC"/>
<path d="M52.5488 32.8653C51.5898 34.8091 49.6288 35.7938 48.156 35.0746C46.6832 34.3553 46.2636 32.1888 47.2141 30.245C48.1646 28.3012 50.1341 27.3165 51.6069 28.0358C53.0797 28.7636 53.4993 30.9215 52.5488 32.8653Z" fill="#3B1A54"/>
<path d="M79.634 43.6975C78.4951 46.0095 76.1574 47.1826 74.4106 46.3178C72.6637 45.4615 72.1585 42.884 73.2974 40.5806C74.4362 38.2686 76.7739 37.0954 78.5208 37.9603C80.2676 38.8252 80.7728 41.3941 79.634 43.6975Z" fill="white"/>
<path d="M45.3987 46.4207C45.3987 46.4207 45.7156 52.5432 54.5954 48.2788C54.5954 48.2788 54.8351 58.0235 66.5407 57.4669" stroke="#3B1A54" stroke-width="3" stroke-linecap="round" stroke-linejoin="round"/>
<path d="M61.1376 43.843C60.4183 45.1702 57.7038 46.7458 55.9141 45.7782C54.1245 44.8106 53.9532 41.6765 54.6639 40.3493C55.3747 39.022 56.8646 39.7413 58.6457 40.7089C60.4354 41.6765 61.8483 42.5157 61.129 43.843H61.1376Z" fill="#FFCCCC"/>
<path d="M140.389 60.7293L145.295 30.6048C145.295 30.6048 152.137 24.5679 151.169 20.9286C150.202 17.2808 142.333 12.5112 136.082 16.3645C136.082 16.3645 127.501 15.2342 124.804 25.5612C122.107 35.8881 100.228 102.44 96.7347 108.211L132.562 103.313L140.397 60.7293H140.389Z" fill="#FFFAEC"/>
<path d="M112.764 59.7361C112.764 59.7361 109.057 83.5754 88.7453 82.6249" stroke="#3B1A54" stroke-width="3" stroke-linecap="round" stroke-linejoin="round"/>
<path d="M45.7327 21.0144C45.7327 21.0144 54.2871 13.0594 64.1174 13.0422" stroke="#3B1A54" stroke-width="3" stroke-linecap="round" stroke-linejoin="round"/>
<path d="M2.79718 31.915C2.79718 31.915 11.6085 23.1979 15.9413 32.0521" stroke="white" stroke-width="3" stroke-linecap="round" stroke-linejoin="round"/>
<path d="M135.843 18.574C135.843 18.574 146.247 17.7862 144.251 26.6661" stroke="#3B1A54" stroke-width="3" stroke-linecap="round" stroke-linejoin="round"/>
<path d="M208.698 219.221L243.429 212.371" stroke="#3B1A54" stroke-width="3" stroke-linecap="round" stroke-linejoin="round"/>
<path d="M164.529 154.743C170.052 156.13 175.499 154.88 180.979 153.929C185.072 153.218 189.182 152.533 193.241 151.651C198.448 150.521 202.404 148.046 205.709 144.21C188.908 130.39 167.518 118.949 146.701 110.583C144.491 109.693 142.436 108.691 140.501 107.604C139.645 112.621 139.139 117.708 139.105 122.751C139.071 127.889 139.97 132.958 142.402 137.531C144.877 142.189 148.927 145.58 153.132 148.603C156.557 151.069 160.393 153.698 164.538 154.743H164.529Z" fill="#3B1A54"/>
</svg>
