<svg width="252" height="272" viewBox="0 0 252 272" fill="none" xmlns="http://www.w3.org/2000/svg">
<path d="M206.725 270.466C206.125 268.09 204.055 261.471 196.904 256.617C184.124 247.937 167.554 253.333 166.854 253.571C154.744 249.125 142.633 244.678 130.523 240.232C112.283 221.818 93.8425 209.319 85.9123 213.002C77.3222 216.99 80.5222 240.198 94.0925 269.838C131.643 270.05 169.194 270.254 206.735 270.466H206.725Z" fill="#FFFAEC"/>
<path d="M251.475 270.729C250.875 268.353 248.805 261.734 241.655 256.88C228.875 248.2 212.305 253.596 211.605 253.834C199.494 249.388 187.384 244.941 175.274 240.503C157.034 222.09 138.593 209.59 130.663 213.273C122.073 217.261 125.273 240.469 138.843 270.109C176.394 270.321 213.945 270.525 251.485 270.737L251.475 270.729Z" fill="#FFFAEC"/>
<path d="M185.754 244.347C203.984 235.395 207.274 228.615 206.994 224.117C206.484 215.878 193.924 214.385 181.614 199.467C171.004 186.611 174.214 180.298 166.734 175.029C159.424 169.878 144.063 167.239 107.763 181.732C103.503 200.884 99.2425 220.036 94.9824 239.179L185.744 244.339L185.754 244.347Z" fill="#FFFAEC"/>
<path d="M111.353 209.124C107.963 204.974 104.163 198.958 102.913 191.304C99.3325 169.352 118.953 147.569 125.573 149.275C129.433 150.268 131.253 159.856 126.333 190.617L111.353 209.124Z" fill="#FFFAEC"/>
<path d="M150.063 202.946C147.853 198.262 145.743 191.669 146.553 183.972C148.863 161.893 173.753 144.404 179.753 147.323C183.253 149.029 182.493 158.719 169.563 187.757L150.073 202.937L150.063 202.946Z" fill="#FFFAEC"/>
<path d="M119.633 162.275C121.683 156.343 124.183 147.434 125.063 136.462C126.273 121.256 128.473 93.7115 112.113 83.6901C93.4925 72.294 57.4518 87.6359 37.8914 102.358C2.67076 128.876 1.19074 168.215 0.840731 177.54C-1.0393 227.749 36.2514 262.252 45.3416 270.228C61.5819 270.101 77.8322 269.973 94.0725 269.846L119.623 162.275H119.633Z" fill="#FFFAEC"/>
<path d="M50.9817 116.894C22.4612 107.823 2.74079 86.5072 0.160738 62.2301C-0.00926558 60.6093 -2.72932 29.654 23.0912 11.6816C63.3719 -16.3461 136.323 12.7763 137.193 29.1534C137.653 37.6983 118.683 46.5148 105.153 49.332C90.9824 52.285 79.1522 49.4084 74.0821 47.8895C72.2521 53.2184 70.5921 60.0493 70.2721 68.0257C69.682 83.0791 74.1621 95.1116 77.6822 102.367L50.9717 116.894H50.9817Z" fill="#FFFAEC"/>
<path d="M170.264 246.638C159.394 246.638 141.093 244.602 126.613 232.781C120.293 227.622 115.503 221.292 112.383 213.969C112.163 213.46 112.473 212.9 113.073 212.713C113.673 212.535 114.333 212.798 114.553 213.299C117.543 220.342 122.143 226.417 128.213 231.373C146.193 246.036 170.364 245.026 177.354 244.364C178.004 244.305 178.554 244.695 178.624 245.23C178.694 245.764 178.244 246.248 177.604 246.307C175.974 246.46 173.434 246.63 170.274 246.63L170.264 246.638Z" fill="#3B1A54"/>
<path d="M192.434 215.055C193.424 217.66 190.654 221.495 188.534 221.453C186.894 221.419 186.774 219.086 184.424 217.253C178.994 213.018 168.544 216.837 168.164 215.768C167.884 214.97 173.354 211.975 180.144 211.686C181.114 211.644 191.004 211.304 192.434 215.055Z" fill="#3B1A54"/>
<path d="M151.413 206.586C153.273 208.725 153.933 210.99 152.883 211.635C151.833 212.28 149.493 211.084 147.633 208.945C145.773 206.807 145.113 204.541 146.163 203.896C147.213 203.252 149.553 204.448 151.413 206.586Z" fill="#3B1A54"/>
<path d="M175.534 197.575C177.394 199.713 178.054 201.979 177.004 202.624C175.954 203.268 173.614 202.072 171.754 199.934C169.894 197.795 169.234 195.53 170.284 194.885C171.334 194.24 173.674 195.436 175.534 197.575Z" fill="#3B1A54"/>
<path d="M179.224 240.053C178.924 240.053 178.634 239.96 178.404 239.765C177.954 239.383 177.964 238.764 178.404 238.382C182.764 234.733 185.894 230.303 187.434 225.586C188.024 223.77 188.404 221.886 188.544 219.994C188.584 219.45 189.194 219.052 189.764 219.077C190.394 219.111 190.884 219.578 190.844 220.112C190.694 222.14 190.284 224.16 189.654 226.103C187.994 231.152 184.664 235.878 180.024 239.773C179.794 239.96 179.504 240.053 179.214 240.053H179.224Z" fill="#3B1A54"/>
<path d="M200.204 233.477C200.024 233.477 199.844 233.443 199.674 233.367C197.214 232.298 195.084 230.846 193.364 229.073C189.664 225.271 188.904 221.012 188.774 218.805C188.744 218.262 189.234 217.804 189.864 217.779C190.574 217.702 191.044 218.169 191.074 218.704C191.184 220.664 191.864 224.448 195.144 227.817C196.674 229.387 198.554 230.668 200.734 231.619C201.294 231.865 201.524 232.45 201.234 232.934C201.034 233.273 200.624 233.469 200.214 233.469L200.204 233.477Z" fill="#3B1A54"/>
<path d="M122.903 183.056C122.723 183.056 122.543 183.022 122.373 182.946C121.813 182.7 121.593 182.106 121.883 181.63C122.923 179.933 124.233 178.406 125.773 177.099C134.383 169.759 147.693 171.074 151.573 171.651C152.203 171.745 152.613 172.254 152.503 172.78C152.393 173.315 151.783 173.671 151.173 173.569C147.583 173.043 135.233 171.796 127.413 178.474C126.043 179.645 124.873 181.011 123.933 182.538C123.733 182.869 123.323 183.064 122.913 183.064L122.903 183.056Z" fill="#3B1A54"/>
<path d="M107.193 208.318C106.753 208.318 106.323 208.097 106.133 207.732C102.593 200.867 98.8026 189.879 100.863 176.539C102.273 167.383 106.303 158.499 112.523 150.837C112.893 150.387 113.613 150.277 114.123 150.582C114.643 150.887 114.783 151.498 114.423 151.94C108.413 159.348 104.513 167.935 103.153 176.785C101.163 189.683 104.833 200.307 108.253 206.943C108.503 207.435 108.243 208.012 107.663 208.233C107.513 208.284 107.353 208.318 107.203 208.318H107.193Z" fill="#3B1A54"/>
<path d="M202.984 266.579C202.574 266.579 202.174 266.393 201.964 266.062C200.214 263.278 197.974 260.885 195.304 258.959C182.664 249.846 164.524 253.8 161.024 254.691C160.834 254.733 160.644 254.742 160.454 254.708C144.083 251.772 113.813 243.235 95.0525 219.137C90.4324 213.205 86.8023 206.663 84.2623 199.696C84.0723 199.178 84.4123 198.635 85.0223 198.474C85.6323 198.321 86.2723 198.601 86.4623 199.119C88.9324 205.908 92.4724 212.28 96.9725 218.059C115.183 241.437 144.563 249.812 160.654 252.739C164.974 251.687 183.574 247.936 196.804 257.466C199.704 259.553 202.124 262.133 204.014 265.145C204.314 265.62 204.104 266.214 203.534 266.469C203.364 266.545 203.174 266.579 202.994 266.579H202.984Z" fill="#3B1A54"/>
<path d="M137.313 271.645C137.213 271.645 137.113 271.637 137.013 271.611C129.853 269.948 122.843 267.75 116.193 265.086C96.0225 256.999 78.7622 244.619 64.9019 228.301C64.5319 227.86 64.6419 227.249 65.1619 226.935C65.6719 226.612 66.392 226.714 66.772 227.155C80.4022 243.202 97.3625 255.37 117.183 263.312C123.713 265.934 130.583 268.09 137.623 269.719C138.233 269.863 138.593 270.398 138.433 270.915C138.293 271.348 137.823 271.637 137.323 271.637L137.313 271.645Z" fill="#3B1A54"/>
<path d="M104.612 268.285C104.112 268.285 103.652 268.005 103.512 267.581C100.112 257.703 91.132 250.728 82.092 251.059C77.492 251.212 73.772 253.249 71.462 254.929C70.992 255.285 70.252 255.234 69.842 254.818C69.432 254.411 69.482 253.792 69.972 253.444C72.562 251.56 76.752 249.277 82.012 249.108C92.302 248.692 101.982 256.142 105.732 267.038C105.912 267.555 105.562 268.098 104.952 268.251C104.842 268.276 104.732 268.293 104.632 268.293L104.612 268.285Z" fill="#3B1A54"/>
<path d="M62.1313 255.2C61.9313 255.2 61.7313 255.158 61.5513 255.064C58.6613 253.639 33.3713 240.503 33.6513 219.467C33.7113 215.284 34.7813 211.101 36.8513 207.028C36.3113 195.962 35.2413 184.795 33.6513 173.849C32.5913 166.509 31.2813 159.101 29.7513 151.829C29.6413 151.294 30.0613 150.785 30.6813 150.692C31.3213 150.607 31.9013 150.955 32.0213 151.481C33.5513 158.787 34.8713 166.237 35.9313 173.611C37.5313 184.685 38.6213 195.979 39.1513 207.172C39.1513 207.325 39.1213 207.469 39.0513 207.605C37.0413 211.499 35.9913 215.505 35.9413 219.493C35.6713 239.425 59.9313 252.009 62.7013 253.376C63.2513 253.647 63.4413 254.25 63.1113 254.708C62.9013 255.022 62.5113 255.192 62.1213 255.192L62.1313 255.2Z" fill="#3B1A54"/>
<path d="M35.0114 108.128C34.7214 108.128 34.4314 108.035 34.2014 107.848C33.7514 107.475 33.7414 106.855 34.1814 106.465C39.1714 102.129 44.6814 98.1832 50.5414 94.7466C57.9014 90.4274 65.8814 86.855 74.2714 84.1312C74.8614 83.9445 75.5314 84.1906 75.7614 84.6912C75.9914 85.1919 75.6914 85.7604 75.1014 85.9556C66.8814 88.62 59.0714 92.1246 51.8614 96.3504C46.1214 99.7191 40.7314 103.58 35.8414 107.831C35.6114 108.026 35.3214 108.128 35.0214 108.128H35.0114Z" fill="#3B1A54"/>
</svg>
